G04*
G04 #@! TF.GenerationSoftware,Altium Limited,Altium Designer,25.4.2 (15)*
G04*
G04 Layer_Color=16711935*
%FSLAX44Y44*%
%MOMM*%
G71*
G04*
G04 #@! TF.SameCoordinates,3376916D-7717-44A7-936A-FC15E23AF39E*
G04*
G04*
G04 #@! TF.FilePolarity,Negative*
G04*
G01*
G75*
%ADD18R,0.9000X0.8000*%
%ADD19R,0.8000X0.9000*%
%ADD20C,2.4500*%
%ADD21R,2.3000X2.3000*%
%ADD22C,1.6112*%
%ADD23C,1.9832*%
%ADD24R,1.6112X1.6112*%
%ADD25C,1.6032*%
%ADD26R,1.6032X1.6032*%
%ADD27C,6.2032*%
%ADD28C,0.7032*%
D18*
X361950Y374530D02*
D03*
Y359530D02*
D03*
D19*
X395090Y358140D02*
D03*
X410090D02*
D03*
X292220Y410210D02*
D03*
X307220D02*
D03*
X265550Y359410D02*
D03*
X280550D02*
D03*
X263010Y487680D02*
D03*
X278010D02*
D03*
X263010Y461010D02*
D03*
X278010D02*
D03*
X412630D02*
D03*
X397630D02*
D03*
D20*
X368300Y15040D02*
D03*
Y66040D02*
D03*
X419300Y15040D02*
D03*
Y66040D02*
D03*
X511810Y15240D02*
D03*
Y66240D02*
D03*
X562810Y15240D02*
D03*
Y66240D02*
D03*
X731520Y29210D02*
D03*
X679450Y737870D02*
D03*
X613410D02*
D03*
X665480Y29210D02*
D03*
D21*
X393800Y40540D02*
D03*
X537310Y40740D02*
D03*
D22*
X413350Y435610D02*
D03*
Y410210D02*
D03*
Y384810D02*
D03*
X210150Y537210D02*
D03*
X235550D02*
D03*
X260950D02*
D03*
X286350D02*
D03*
X311750D02*
D03*
X337150D02*
D03*
X362550D02*
D03*
X387950D02*
D03*
X413350D02*
D03*
X438750D02*
D03*
X210150Y511810D02*
D03*
X235550D02*
D03*
X260950D02*
D03*
X286350D02*
D03*
X311750D02*
D03*
X337150D02*
D03*
X362550D02*
D03*
X387950D02*
D03*
X413350D02*
D03*
X438750D02*
D03*
X210150Y486410D02*
D03*
X235550D02*
D03*
X311750D02*
D03*
X337150D02*
D03*
X362550D02*
D03*
X438750D02*
D03*
X210150Y461010D02*
D03*
X235550D02*
D03*
X438750D02*
D03*
X210150Y435610D02*
D03*
X235550D02*
D03*
X260950D02*
D03*
X438750D02*
D03*
X210150Y410210D02*
D03*
X235550D02*
D03*
X260950D02*
D03*
X438750D02*
D03*
X210150Y384810D02*
D03*
X235550D02*
D03*
X260950D02*
D03*
X438750D02*
D03*
X210150Y359410D02*
D03*
X235550D02*
D03*
X438750D02*
D03*
X210150Y334010D02*
D03*
X235550D02*
D03*
X311750D02*
D03*
X337150D02*
D03*
X362550D02*
D03*
X438750D02*
D03*
X210150Y308610D02*
D03*
X235550D02*
D03*
X260950D02*
D03*
X286350D02*
D03*
X311750D02*
D03*
X337150D02*
D03*
X362550D02*
D03*
X387950D02*
D03*
X413350D02*
D03*
X438750D02*
D03*
X464150Y537210D02*
D03*
Y511810D02*
D03*
Y486410D02*
D03*
Y461010D02*
D03*
Y435610D02*
D03*
Y410210D02*
D03*
Y384810D02*
D03*
Y359410D02*
D03*
Y334010D02*
D03*
Y308610D02*
D03*
X210150Y283210D02*
D03*
X235550D02*
D03*
X260950D02*
D03*
X286350D02*
D03*
X311750D02*
D03*
X438750D02*
D03*
X413350D02*
D03*
X387950D02*
D03*
X362550D02*
D03*
X337150D02*
D03*
D23*
X159150Y537210D02*
D03*
Y283210D02*
D03*
X565150Y537210D02*
D03*
Y283210D02*
D03*
D24*
X464150D02*
D03*
D25*
X174390Y687070D02*
D03*
X224390D02*
D03*
X199390D02*
D03*
D26*
X249390D02*
D03*
D27*
X33020Y749300D02*
D03*
X31750Y31750D02*
D03*
X811530Y33020D02*
D03*
Y750570D02*
D03*
D28*
X527181Y376947D02*
D03*
Y364247D02*
D03*
Y351547D02*
D03*
X528451Y288047D02*
D03*
X527050Y242570D02*
D03*
Y214630D02*
D03*
X482600Y73660D02*
D03*
X451622Y75504D02*
D03*
X441462Y66614D02*
D03*
X474482Y65344D02*
D03*
X464322Y56454D02*
D03*
X749300Y83820D02*
D03*
X214630Y92670D02*
D03*
X767080Y88900D02*
D03*
X237490Y97790D02*
D03*
X792480D02*
D03*
X826770Y105410D02*
D03*
X399782Y105370D02*
D03*
X444500Y38100D02*
D03*
X454660Y46990D02*
D03*
X511810Y148590D02*
D03*
X491490Y121920D02*
D03*
X547370Y398780D02*
D03*
X520700D02*
D03*
X508000D02*
D03*
X495300D02*
D03*
X482600D02*
D03*
X483870Y375920D02*
D03*
X494030Y365760D02*
D03*
X504190Y355600D02*
D03*
X524510Y123190D02*
D03*
X548640D02*
D03*
X511810Y121920D02*
D03*
X494030Y148590D02*
D03*
X524510Y143510D02*
D03*
X548640D02*
D03*
Y153670D02*
D03*
X491490Y242570D02*
D03*
Y226060D02*
D03*
Y214630D02*
D03*
X514350D02*
D03*
Y226060D02*
D03*
X515620Y242570D02*
D03*
X527050Y226060D02*
D03*
X547370Y214630D02*
D03*
Y226060D02*
D03*
Y242570D02*
D03*
X546100Y288290D02*
D03*
X539870Y408775D02*
D03*
X547501Y376947D02*
D03*
Y364247D02*
D03*
Y351547D02*
D03*
X180340Y368300D02*
D03*
X196850Y107950D02*
D03*
X777240Y114300D02*
D03*
X388620Y586740D02*
D03*
X414020Y621030D02*
D03*
X302593Y584603D02*
D03*
X450850Y661670D02*
D03*
X590868Y570230D02*
D03*
X619760Y571500D02*
D03*
X496570Y631190D02*
D03*
X579120Y508000D02*
D03*
X562610Y584409D02*
D03*
X537210Y570230D02*
D03*
X349250Y562610D02*
D03*
X496570Y514350D02*
D03*
X362550Y609987D02*
D03*
X671830Y271780D02*
D03*
X494030Y422910D02*
D03*
X491490Y445770D02*
D03*
X618490Y431800D02*
D03*
Y229870D02*
D03*
X717550Y257810D02*
D03*
X706120Y303530D02*
D03*
X662940Y386080D02*
D03*
X640080Y411480D02*
D03*
Y297180D02*
D03*
X661670Y320040D02*
D03*
X415290Y133350D02*
D03*
X812800Y132080D02*
D03*
X687070Y369570D02*
D03*
X685800Y196850D02*
D03*
X363220Y195580D02*
D03*
X731520Y331470D02*
D03*
Y179070D02*
D03*
X387350D02*
D03*
X706120Y158750D02*
D03*
X463550Y160020D02*
D03*
M02*
