G04*
G04 #@! TF.GenerationSoftware,Altium Limited,Altium Designer,25.4.2 (15)*
G04*
G04 Layer_Color=128*
%FSLAX44Y44*%
%MOMM*%
G71*
G04*
G04 #@! TF.SameCoordinates,3376916D-7717-44A7-936A-FC15E23AF39E*
G04*
G04*
G04 #@! TF.FilePolarity,Positive*
G04*
G01*
G75*
%ADD15C,0.1270*%
D15*
X360300Y15040D02*
X376300D01*
X368300Y7040D02*
Y23040D01*
X360300Y66040D02*
X376300D01*
X368300Y58040D02*
Y74040D01*
X411300Y15040D02*
X427300D01*
X419300Y7040D02*
Y23040D01*
X411300Y66040D02*
X427300D01*
X419300Y58040D02*
Y74040D01*
X386300Y40540D02*
X401300D01*
X393800Y33040D02*
Y48040D01*
X503810Y15240D02*
X519810D01*
X511810Y7240D02*
Y23240D01*
X503810Y66240D02*
X519810D01*
X511810Y58240D02*
Y74240D01*
X554810Y15240D02*
X570810D01*
X562810Y7240D02*
Y23240D01*
X554810Y66240D02*
X570810D01*
X562810Y58240D02*
Y74240D01*
X529810Y40740D02*
X544810D01*
X537310Y33240D02*
Y48240D01*
X408850Y435610D02*
X417850D01*
X413350Y431110D02*
Y440110D01*
X408850Y410210D02*
X417850D01*
X413350Y405710D02*
Y414710D01*
X408850Y384810D02*
X417850D01*
X413350Y380310D02*
Y389310D01*
X150250Y537210D02*
X168050D01*
X159150Y528310D02*
Y546110D01*
X150250Y283210D02*
X168050D01*
X159150Y274310D02*
Y292110D01*
X556250Y537210D02*
X574050D01*
X565150Y528310D02*
Y546110D01*
X556250Y283210D02*
X574050D01*
X565150Y274310D02*
Y292110D01*
X205650Y537210D02*
X214650D01*
X210150Y532710D02*
Y541710D01*
X231050Y537210D02*
X240050D01*
X235550Y532710D02*
Y541710D01*
X256450Y537210D02*
X265450D01*
X260950Y532710D02*
Y541710D01*
X281850Y537210D02*
X290850D01*
X286350Y532710D02*
Y541710D01*
X307250Y537210D02*
X316250D01*
X311750Y532710D02*
Y541710D01*
X332650Y537210D02*
X341650D01*
X337150Y532710D02*
Y541710D01*
X358050Y537210D02*
X367050D01*
X362550Y532710D02*
Y541710D01*
X383450Y537210D02*
X392450D01*
X387950Y532710D02*
Y541710D01*
X408850Y537210D02*
X417850D01*
X413350Y532710D02*
Y541710D01*
X434250Y537210D02*
X443250D01*
X438750Y532710D02*
Y541710D01*
X205650Y511810D02*
X214650D01*
X210150Y507310D02*
Y516310D01*
X231050Y511810D02*
X240050D01*
X235550Y507310D02*
Y516310D01*
X256450Y511810D02*
X265450D01*
X260950Y507310D02*
Y516310D01*
X281850Y511810D02*
X290850D01*
X286350Y507310D02*
Y516310D01*
X307250Y511810D02*
X316250D01*
X311750Y507310D02*
Y516310D01*
X332650Y511810D02*
X341650D01*
X337150Y507310D02*
Y516310D01*
X358050Y511810D02*
X367050D01*
X362550Y507310D02*
Y516310D01*
X383450Y511810D02*
X392450D01*
X387950Y507310D02*
Y516310D01*
X408850Y511810D02*
X417850D01*
X413350Y507310D02*
Y516310D01*
X434250Y511810D02*
X443250D01*
X438750Y507310D02*
Y516310D01*
X205650Y486410D02*
X214650D01*
X210150Y481910D02*
Y490910D01*
X231050Y486410D02*
X240050D01*
X235550Y481910D02*
Y490910D01*
X307250Y486410D02*
X316250D01*
X311750Y481910D02*
Y490910D01*
X332650Y486410D02*
X341650D01*
X337150Y481910D02*
Y490910D01*
X358050Y486410D02*
X367050D01*
X362550Y481910D02*
Y490910D01*
X434250Y486410D02*
X443250D01*
X438750Y481910D02*
Y490910D01*
X205650Y461010D02*
X214650D01*
X210150Y456510D02*
Y465510D01*
X231050Y461010D02*
X240050D01*
X235550Y456510D02*
Y465510D01*
X434250Y461010D02*
X443250D01*
X438750Y456510D02*
Y465510D01*
X205650Y435610D02*
X214650D01*
X210150Y431110D02*
Y440110D01*
X231050Y435610D02*
X240050D01*
X235550Y431110D02*
Y440110D01*
X256450Y435610D02*
X265450D01*
X260950Y431110D02*
Y440110D01*
X434250Y435610D02*
X443250D01*
X438750Y431110D02*
Y440110D01*
X205650Y410210D02*
X214650D01*
X210150Y405710D02*
Y414710D01*
X231050Y410210D02*
X240050D01*
X235550Y405710D02*
Y414710D01*
X256450Y410210D02*
X265450D01*
X260950Y405710D02*
Y414710D01*
X434250Y410210D02*
X443250D01*
X438750Y405710D02*
Y414710D01*
X205650Y384810D02*
X214650D01*
X210150Y380310D02*
Y389310D01*
X231050Y384810D02*
X240050D01*
X235550Y380310D02*
Y389310D01*
X256450Y384810D02*
X265450D01*
X260950Y380310D02*
Y389310D01*
X434250Y384810D02*
X443250D01*
X438750Y380310D02*
Y389310D01*
X205650Y359410D02*
X214650D01*
X210150Y354910D02*
Y363910D01*
X231050Y359410D02*
X240050D01*
X235550Y354910D02*
Y363910D01*
X434250Y359410D02*
X443250D01*
X438750Y354910D02*
Y363910D01*
X205650Y334010D02*
X214650D01*
X210150Y329510D02*
Y338510D01*
X231050Y334010D02*
X240050D01*
X235550Y329510D02*
Y338510D01*
X307250Y334010D02*
X316250D01*
X311750Y329510D02*
Y338510D01*
X332650Y334010D02*
X341650D01*
X337150Y329510D02*
Y338510D01*
X358050Y334010D02*
X367050D01*
X362550Y329510D02*
Y338510D01*
X434250Y334010D02*
X443250D01*
X438750Y329510D02*
Y338510D01*
X205650Y308610D02*
X214650D01*
X210150Y304110D02*
Y313110D01*
X231050Y308610D02*
X240050D01*
X235550Y304110D02*
Y313110D01*
X256450Y308610D02*
X265450D01*
X260950Y304110D02*
Y313110D01*
X281850Y308610D02*
X290850D01*
X286350Y304110D02*
Y313110D01*
X307250Y308610D02*
X316250D01*
X311750Y304110D02*
Y313110D01*
X332650Y308610D02*
X341650D01*
X337150Y304110D02*
Y313110D01*
X358050Y308610D02*
X367050D01*
X362550Y304110D02*
Y313110D01*
X383450Y308610D02*
X392450D01*
X387950Y304110D02*
Y313110D01*
X408850Y308610D02*
X417850D01*
X413350Y304110D02*
Y313110D01*
X434250Y308610D02*
X443250D01*
X438750Y304110D02*
Y313110D01*
X459650Y537210D02*
X468650D01*
X464150Y532710D02*
Y541710D01*
X459650Y511810D02*
X468650D01*
X464150Y507310D02*
Y516310D01*
X459650Y486410D02*
X468650D01*
X464150Y481910D02*
Y490910D01*
X459650Y461010D02*
X468650D01*
X464150Y456510D02*
Y465510D01*
X459650Y435610D02*
X468650D01*
X464150Y431110D02*
Y440110D01*
X459650Y410210D02*
X468650D01*
X464150Y405710D02*
Y414710D01*
X459650Y384810D02*
X468650D01*
X464150Y380310D02*
Y389310D01*
X459650Y359410D02*
X468650D01*
X464150Y354910D02*
Y363910D01*
X459650Y334010D02*
X468650D01*
X464150Y329510D02*
Y338510D01*
X459650Y308610D02*
X468650D01*
X464150Y304110D02*
Y313110D01*
X205650Y283210D02*
X214650D01*
X210150Y278710D02*
Y287710D01*
X231050Y283210D02*
X240050D01*
X235550Y278710D02*
Y287710D01*
X256450Y283210D02*
X265450D01*
X260950Y278710D02*
Y287710D01*
X281850Y283210D02*
X290850D01*
X286350Y278710D02*
Y287710D01*
X307250Y283210D02*
X316250D01*
X311750Y278710D02*
Y287710D01*
X459650Y283210D02*
X468650D01*
X464150Y278710D02*
Y287710D01*
X434250Y283210D02*
X443250D01*
X438750Y278710D02*
Y287710D01*
X408850Y283210D02*
X417850D01*
X413350Y278710D02*
Y287710D01*
X383450Y283210D02*
X392450D01*
X387950Y278710D02*
Y287710D01*
X358050Y283210D02*
X367050D01*
X362550Y278710D02*
Y287710D01*
X332650Y283210D02*
X341650D01*
X337150Y278710D02*
Y287710D01*
X169890Y687070D02*
X178890D01*
X174390Y682570D02*
Y691570D01*
X219890Y687070D02*
X228890D01*
X224390Y682570D02*
Y691570D01*
X244890Y687070D02*
X253890D01*
X249390Y682570D02*
Y691570D01*
X194890Y687070D02*
X203890D01*
X199390Y682570D02*
Y691570D01*
X771779Y660400D02*
X782701D01*
X777240Y654939D02*
Y665861D01*
X797179Y660400D02*
X808101D01*
X802640Y654939D02*
Y665861D01*
X771779Y635000D02*
X782701D01*
X777240Y629539D02*
Y640461D01*
X797179Y635000D02*
X808101D01*
X802640Y629539D02*
Y640461D01*
X771779Y609600D02*
X782701D01*
X777240Y604139D02*
Y615061D01*
X797179Y609600D02*
X808101D01*
X802640Y604139D02*
Y615061D01*
X771779Y584200D02*
X782701D01*
X777240Y578739D02*
Y589661D01*
X797179Y584200D02*
X808101D01*
X802640Y578739D02*
Y589661D01*
X771779Y558800D02*
X782701D01*
X777240Y553339D02*
Y564261D01*
X797179Y558800D02*
X808101D01*
X802640Y553339D02*
Y564261D01*
X771779Y533400D02*
X782701D01*
X777240Y527939D02*
Y538861D01*
X797179Y533400D02*
X808101D01*
X802640Y527939D02*
Y538861D01*
X771779Y508000D02*
X782701D01*
X777240Y502539D02*
Y513461D01*
X797179Y508000D02*
X808101D01*
X802640Y502539D02*
Y513461D01*
X771779Y482600D02*
X782701D01*
X777240Y477139D02*
Y488061D01*
X797179Y482600D02*
X808101D01*
X802640Y477139D02*
Y488061D01*
X771779Y457200D02*
X782701D01*
X777240Y451739D02*
Y462661D01*
X797179Y457200D02*
X808101D01*
X802640Y451739D02*
Y462661D01*
X771779Y431800D02*
X782701D01*
X777240Y426339D02*
Y437261D01*
X797179Y431800D02*
X808101D01*
X802640Y426339D02*
Y437261D01*
X771779Y406400D02*
X782701D01*
X777240Y400939D02*
Y411861D01*
X797179Y406400D02*
X808101D01*
X802640Y400939D02*
Y411861D01*
X771779Y381000D02*
X782701D01*
X777240Y375539D02*
Y386461D01*
X797179Y381000D02*
X808101D01*
X802640Y375539D02*
Y386461D01*
X771779Y355600D02*
X782701D01*
X777240Y350139D02*
Y361061D01*
X797179Y355600D02*
X808101D01*
X802640Y350139D02*
Y361061D01*
X771779Y330200D02*
X782701D01*
X777240Y324739D02*
Y335661D01*
X797179Y330200D02*
X808101D01*
X802640Y324739D02*
Y335661D01*
X771779Y304800D02*
X782701D01*
X777240Y299339D02*
Y310261D01*
X797179Y304800D02*
X808101D01*
X802640Y299339D02*
Y310261D01*
X771779Y279400D02*
X782701D01*
X777240Y273939D02*
Y284861D01*
X797179Y279400D02*
X808101D01*
X802640Y273939D02*
Y284861D01*
X771779Y254000D02*
X782701D01*
X777240Y248539D02*
Y259461D01*
X797179Y254000D02*
X808101D01*
X802640Y248539D02*
Y259461D01*
X771779Y228600D02*
X782701D01*
X777240Y223139D02*
Y234061D01*
X797179Y228600D02*
X808101D01*
X802640Y223139D02*
Y234061D01*
X771779Y203200D02*
X782701D01*
X777240Y197739D02*
Y208661D01*
X797179Y203200D02*
X808101D01*
X802640Y197739D02*
Y208661D01*
X771779Y177800D02*
X782701D01*
X777240Y172339D02*
Y183261D01*
X797179Y177800D02*
X808101D01*
X802640Y172339D02*
Y183261D01*
X15520Y749300D02*
X50520D01*
X33020Y731800D02*
Y766800D01*
X14250Y31750D02*
X49250D01*
X31750Y14250D02*
Y49250D01*
X723520Y29210D02*
X739520D01*
X731520Y21210D02*
Y37210D01*
X794030Y33020D02*
X829030D01*
X811530Y15520D02*
Y50520D01*
X794030Y750570D02*
X829030D01*
X811530Y733070D02*
Y768070D01*
X671450Y737870D02*
X687450D01*
X679450Y729870D02*
Y745870D01*
X605410Y737870D02*
X621410D01*
X613410Y729870D02*
Y745870D01*
X657480Y29210D02*
X673480D01*
X665480Y21210D02*
Y37210D01*
X526181Y376947D02*
X528181D01*
X527181Y375947D02*
Y377947D01*
X526181Y364247D02*
X528181D01*
X527181Y363247D02*
Y365247D01*
X526181Y351547D02*
X528181D01*
X527181Y350547D02*
Y352547D01*
X527451Y288047D02*
X529451D01*
X528451Y287047D02*
Y289047D01*
X526050Y242570D02*
X528050D01*
X527050Y241570D02*
Y243570D01*
X526050Y214630D02*
X528050D01*
X527050Y213630D02*
Y215630D01*
X481600Y73660D02*
X483600D01*
X482600Y72660D02*
Y74660D01*
X450622Y75504D02*
X452622D01*
X451622Y74504D02*
Y76504D01*
X440462Y66614D02*
X442462D01*
X441462Y65614D02*
Y67614D01*
X473482Y65344D02*
X475482D01*
X474482Y64344D02*
Y66344D01*
X463322Y56454D02*
X465322D01*
X464322Y55454D02*
Y57454D01*
X748300Y83820D02*
X750300D01*
X749300Y82820D02*
Y84820D01*
X213630Y92670D02*
X215630D01*
X214630Y91670D02*
Y93670D01*
X766080Y88900D02*
X768080D01*
X767080Y87900D02*
Y89900D01*
X236490Y97790D02*
X238490D01*
X237490Y96790D02*
Y98790D01*
X791480Y97790D02*
X793480D01*
X792480Y96790D02*
Y98790D01*
X825770Y105410D02*
X827770D01*
X826770Y104410D02*
Y106410D01*
X398783Y105370D02*
X400783D01*
X399782Y104370D02*
Y106370D01*
X443500Y38100D02*
X445500D01*
X444500Y37100D02*
Y39100D01*
X453660Y46990D02*
X455660D01*
X454660Y45990D02*
Y47990D01*
X510810Y148590D02*
X512810D01*
X511810Y147590D02*
Y149590D01*
X490490Y121920D02*
X492490D01*
X491490Y120920D02*
Y122920D01*
X546370Y398780D02*
X548370D01*
X547370Y397780D02*
Y399780D01*
X519700Y398780D02*
X521700D01*
X520700Y397780D02*
Y399780D01*
X507000Y398780D02*
X509000D01*
X508000Y397780D02*
Y399780D01*
X494300Y398780D02*
X496300D01*
X495300Y397780D02*
Y399780D01*
X481600Y398780D02*
X483600D01*
X482600Y397780D02*
Y399780D01*
X482870Y375920D02*
X484870D01*
X483870Y374920D02*
Y376920D01*
X493030Y365760D02*
X495030D01*
X494030Y364760D02*
Y366760D01*
X503190Y355600D02*
X505190D01*
X504190Y354600D02*
Y356600D01*
X523510Y123190D02*
X525510D01*
X524510Y122190D02*
Y124190D01*
X547640Y123190D02*
X549640D01*
X548640Y122190D02*
Y124190D01*
X510810Y121920D02*
X512810D01*
X511810Y120920D02*
Y122920D01*
X493030Y148590D02*
X495030D01*
X494030Y147590D02*
Y149590D01*
X523510Y143510D02*
X525510D01*
X524510Y142510D02*
Y144510D01*
X547640Y143510D02*
X549640D01*
X548640Y142510D02*
Y144510D01*
X547640Y153670D02*
X549640D01*
X548640Y152670D02*
Y154670D01*
X490490Y242570D02*
X492490D01*
X491490Y241570D02*
Y243570D01*
X490490Y226060D02*
X492490D01*
X491490Y225060D02*
Y227060D01*
X490490Y214630D02*
X492490D01*
X491490Y213630D02*
Y215630D01*
X513350Y214630D02*
X515350D01*
X514350Y213630D02*
Y215630D01*
X513350Y226060D02*
X515350D01*
X514350Y225060D02*
Y227060D01*
X514620Y242570D02*
X516620D01*
X515620Y241570D02*
Y243570D01*
X526050Y226060D02*
X528050D01*
X527050Y225060D02*
Y227060D01*
X546370Y214630D02*
X548370D01*
X547370Y213630D02*
Y215630D01*
X546370Y226060D02*
X548370D01*
X547370Y225060D02*
Y227060D01*
X546370Y242570D02*
X548370D01*
X547370Y241570D02*
Y243570D01*
X545100Y288290D02*
X547100D01*
X546100Y287290D02*
Y289290D01*
X538870Y408775D02*
X540870D01*
X539870Y407775D02*
Y409775D01*
X546501Y376947D02*
X548501D01*
X547501Y375947D02*
Y377947D01*
X546501Y364247D02*
X548501D01*
X547501Y363247D02*
Y365247D01*
X546501Y351547D02*
X548501D01*
X547501Y350547D02*
Y352547D01*
X179340Y368300D02*
X181340D01*
X180340Y367300D02*
Y369300D01*
X195850Y107950D02*
X197850D01*
X196850Y106950D02*
Y108950D01*
X776240Y114300D02*
X778240D01*
X777240Y113300D02*
Y115300D01*
X387620Y586740D02*
X389620D01*
X388620Y585740D02*
Y587740D01*
X413020Y621030D02*
X415020D01*
X414020Y620030D02*
Y622030D01*
X301593Y584603D02*
X303593D01*
X302593Y583603D02*
Y585603D01*
X449850Y661670D02*
X451850D01*
X450850Y660670D02*
Y662670D01*
X589868Y570230D02*
X591867D01*
X590868Y569230D02*
Y571230D01*
X618760Y571500D02*
X620760D01*
X619760Y570500D02*
Y572500D01*
X495570Y631190D02*
X497570D01*
X496570Y630190D02*
Y632190D01*
X578120Y508000D02*
X580120D01*
X579120Y507000D02*
Y509000D01*
X561610Y584409D02*
X563610D01*
X562610Y583409D02*
Y585409D01*
X536210Y570230D02*
X538210D01*
X537210Y569230D02*
Y571230D01*
X348250Y562610D02*
X350250D01*
X349250Y561610D02*
Y563610D01*
X495570Y514350D02*
X497570D01*
X496570Y513350D02*
Y515350D01*
X361550Y609987D02*
X363550D01*
X362550Y608987D02*
Y610987D01*
X670830Y271780D02*
X672830D01*
X671830Y270780D02*
Y272780D01*
X493030Y422910D02*
X495030D01*
X494030Y421910D02*
Y423910D01*
X490490Y445770D02*
X492490D01*
X491490Y444770D02*
Y446770D01*
X617490Y431800D02*
X619490D01*
X618490Y430800D02*
Y432800D01*
X617490Y229870D02*
X619490D01*
X618490Y228870D02*
Y230870D01*
X716550Y257810D02*
X718550D01*
X717550Y256810D02*
Y258810D01*
X705120Y303530D02*
X707120D01*
X706120Y302530D02*
Y304530D01*
X661940Y386080D02*
X663940D01*
X662940Y385080D02*
Y387080D01*
X639080Y411480D02*
X641080D01*
X640080Y410480D02*
Y412480D01*
X639080Y297180D02*
X641080D01*
X640080Y296180D02*
Y298180D01*
X660670Y320040D02*
X662670D01*
X661670Y319040D02*
Y321040D01*
X414290Y133350D02*
X416290D01*
X415290Y132350D02*
Y134350D01*
X811800Y132080D02*
X813800D01*
X812800Y131080D02*
Y133080D01*
X686070Y369570D02*
X688070D01*
X687070Y368570D02*
Y370570D01*
X684800Y196850D02*
X686800D01*
X685800Y195850D02*
Y197850D01*
X362220Y195580D02*
X364220D01*
X363220Y194580D02*
Y196580D01*
X730520Y331470D02*
X732520D01*
X731520Y330470D02*
Y332470D01*
X730520Y179070D02*
X732520D01*
X731520Y178070D02*
Y180070D01*
X386350Y179070D02*
X388350D01*
X387350Y178070D02*
Y180070D01*
X705120Y158750D02*
X707120D01*
X706120Y157750D02*
Y159750D01*
X462550Y160020D02*
X464550D01*
X463550Y159020D02*
Y161020D01*
M02*
