G04*
G04 #@! TF.GenerationSoftware,Altium Limited,Altium Designer,25.4.2 (15)*
G04*
G04 Layer_Color=65535*
%FSLAX44Y44*%
%MOMM*%
G71*
G04*
G04 #@! TF.SameCoordinates,3376916D-7717-44A7-936A-FC15E23AF39E*
G04*
G04*
G04 #@! TF.FilePolarity,Positive*
G04*
G01*
G75*
%ADD10C,0.2500*%
%ADD11C,0.3000*%
%ADD12C,0.5080*%
%ADD13C,0.1500*%
%ADD14C,0.2000*%
%ADD15C,0.1270*%
%ADD16C,0.1524*%
%ADD17C,0.2540*%
G36*
X698010Y497029D02*
X689013D01*
Y513024D01*
X698010D01*
Y497029D01*
D02*
G37*
G36*
X686014D02*
X676017D01*
Y503027D01*
Y504027D01*
Y513024D01*
X686014D01*
Y497029D01*
D02*
G37*
G36*
X673018Y504027D02*
Y503027D01*
Y497029D01*
X664021D01*
Y498029D01*
X663022D01*
Y513024D01*
X673018D01*
Y504027D01*
D02*
G37*
G36*
X661022Y498029D02*
X660023D01*
Y497029D01*
X651025D01*
Y511025D01*
Y512024D01*
Y513024D01*
X661022D01*
Y498029D01*
D02*
G37*
G36*
X648026Y512024D02*
Y497029D01*
X638030D01*
Y513024D01*
X648026D01*
Y512024D01*
D02*
G37*
G36*
X717004Y484033D02*
X702009D01*
Y494030D01*
X717004D01*
Y484033D01*
D02*
G37*
G36*
X635031Y492031D02*
Y491031D01*
Y484033D01*
X619036D01*
Y494030D01*
X635031D01*
Y492031D01*
D02*
G37*
G36*
X717004Y471037D02*
X702009D01*
Y481034D01*
X717004D01*
Y471037D01*
D02*
G37*
G36*
X635031D02*
X619036D01*
Y481034D01*
X635031D01*
Y471037D01*
D02*
G37*
G36*
Y458042D02*
X619036D01*
Y468038D01*
X635031D01*
Y458042D01*
D02*
G37*
G36*
Y445046D02*
X619036D01*
Y447045D01*
Y448045D01*
Y455042D01*
X635031D01*
Y445046D01*
D02*
G37*
G36*
X695011Y493030D02*
X697011D01*
Y492031D01*
X698010D01*
Y434049D01*
X697011D01*
Y433050D01*
X694012D01*
Y432050D01*
X642028D01*
Y433050D01*
X640029D01*
Y434049D01*
X639029D01*
Y436049D01*
X638030D01*
Y474036D01*
Y475036D01*
Y491031D01*
X639029D01*
Y492031D01*
X640029D01*
Y493030D01*
X641029D01*
Y494030D01*
X695011D01*
Y493030D01*
D02*
G37*
G36*
X635031Y432050D02*
X619036D01*
Y442047D01*
X635031D01*
Y432050D01*
D02*
G37*
G36*
X717004Y468038D02*
X718004D01*
Y412056D01*
X717004D01*
Y411057D01*
X638030D01*
Y429051D01*
X702009D01*
Y440047D01*
Y441047D01*
Y469038D01*
X717004D01*
Y468038D01*
D02*
G37*
G36*
X700010Y403059D02*
X703009D01*
Y402060D01*
X706008D01*
Y401060D01*
X707008D01*
Y400060D01*
X709007D01*
Y399061D01*
X710006D01*
Y398061D01*
X711006D01*
Y397061D01*
X712006D01*
Y396062D01*
X713006D01*
Y394062D01*
X714005D01*
Y393062D01*
X715005D01*
Y391063D01*
X716005D01*
Y388064D01*
X717004D01*
Y385065D01*
X718004D01*
Y379067D01*
X719004D01*
Y372069D01*
X718004D01*
Y364072D01*
X717004D01*
Y360073D01*
X716005D01*
Y357074D01*
X715005D01*
Y355075D01*
X714005D01*
Y353075D01*
X713006D01*
Y351076D01*
X712006D01*
Y349077D01*
X711006D01*
Y347077D01*
X710006D01*
Y346077D01*
X709007D01*
Y344078D01*
X708007D01*
Y343078D01*
X707008D01*
Y342079D01*
X704008D01*
Y343078D01*
X703009D01*
Y344078D01*
X702009D01*
Y345078D01*
X701009D01*
Y346077D01*
X700010D01*
Y347077D01*
X698010D01*
Y348077D01*
X697011D01*
Y349077D01*
X696011D01*
Y350076D01*
X695011D01*
Y351076D01*
X694012D01*
Y353075D01*
X695011D01*
Y354075D01*
X696011D01*
Y355075D01*
X697011D01*
Y357074D01*
X698010D01*
Y359073D01*
X699010D01*
Y360073D01*
X700010D01*
Y362072D01*
X701009D01*
Y365071D01*
X702009D01*
Y368070D01*
X703009D01*
Y381066D01*
X702009D01*
Y383066D01*
X701009D01*
Y384065D01*
X700010D01*
Y385065D01*
X699010D01*
Y386065D01*
X697011D01*
Y387064D01*
X694012D01*
Y386065D01*
X692012D01*
Y385065D01*
X691013D01*
Y384065D01*
X690013D01*
Y382066D01*
X689013D01*
Y380067D01*
X688014D01*
Y378067D01*
X687014D01*
Y374068D01*
X686014D01*
Y371069D01*
X685014D01*
Y368070D01*
X684015D01*
Y364072D01*
X683015D01*
Y361073D01*
X682016D01*
Y358074D01*
X681016D01*
Y356074D01*
X680016D01*
Y354075D01*
X679016D01*
Y353075D01*
X678017D01*
Y351076D01*
X677017D01*
Y350076D01*
X676017D01*
Y349077D01*
X675018D01*
Y348077D01*
X673018D01*
Y347077D01*
X672019D01*
Y346077D01*
X669020D01*
Y345078D01*
X663022D01*
Y344078D01*
X659023D01*
Y345078D01*
X654025D01*
Y346077D01*
X651025D01*
Y347077D01*
X649026D01*
Y348077D01*
X647027D01*
Y349077D01*
X646027D01*
Y350076D01*
X645027D01*
Y351076D01*
X644028D01*
Y352076D01*
X643028D01*
Y354075D01*
X642028D01*
Y355075D01*
X641029D01*
Y357074D01*
X640029D01*
Y359073D01*
X639029D01*
Y361073D01*
X638030D01*
Y366071D01*
X637030D01*
Y380067D01*
X638030D01*
Y384065D01*
X639029D01*
Y388064D01*
X640029D01*
Y391063D01*
X641029D01*
Y393062D01*
X642028D01*
Y395062D01*
X643028D01*
Y397061D01*
X644028D01*
Y398061D01*
X645027D01*
Y400060D01*
X646027D01*
Y401060D01*
X649026D01*
Y400060D01*
X650026D01*
Y399061D01*
X652025D01*
Y398061D01*
X653025D01*
Y397061D01*
X655024D01*
Y396062D01*
X656024D01*
Y395062D01*
X658023D01*
Y394062D01*
X659023D01*
Y393062D01*
X660023D01*
Y392063D01*
X659023D01*
Y390063D01*
X658023D01*
Y388064D01*
X657023D01*
Y387064D01*
X656024D01*
Y384065D01*
X655024D01*
Y382066D01*
X654025D01*
Y379067D01*
X653025D01*
Y373069D01*
X652025D01*
Y371069D01*
X653025D01*
Y366071D01*
X654025D01*
Y364072D01*
X655024D01*
Y363072D01*
X656024D01*
Y362072D01*
X663022D01*
Y363072D01*
X664021D01*
Y364072D01*
X665021D01*
Y365071D01*
X666021D01*
Y368070D01*
X667020D01*
Y370070D01*
X668020D01*
Y374068D01*
X669020D01*
Y377068D01*
X670019D01*
Y381066D01*
X671019D01*
Y384065D01*
X672019D01*
Y387064D01*
X673018D01*
Y390063D01*
X674018D01*
Y392063D01*
X675018D01*
Y394062D01*
X676017D01*
Y395062D01*
X677017D01*
Y397061D01*
X678017D01*
Y398061D01*
X679016D01*
Y399061D01*
X680016D01*
Y400060D01*
X681016D01*
Y401060D01*
X683015D01*
Y402060D01*
X685014D01*
Y403059D01*
X688014D01*
Y404059D01*
X700010D01*
Y403059D01*
D02*
G37*
G36*
X706008Y336081D02*
X707008D01*
Y335081D01*
X708007D01*
Y334081D01*
X709007D01*
Y332082D01*
X710006D01*
Y331082D01*
X711006D01*
Y330083D01*
X712006D01*
Y328083D01*
X713006D01*
Y327084D01*
X714005D01*
Y325084D01*
X715005D01*
Y323085D01*
X716005D01*
Y321086D01*
X717004D01*
Y317087D01*
X718004D01*
Y312089D01*
X719004D01*
Y300092D01*
X718004D01*
Y294094D01*
X717004D01*
Y291095D01*
X716005D01*
Y288096D01*
X715005D01*
Y286097D01*
X714005D01*
Y284097D01*
X713006D01*
Y282098D01*
X712006D01*
Y281098D01*
X711006D01*
Y280099D01*
X710006D01*
Y279099D01*
X709007D01*
Y277100D01*
X708007D01*
Y276100D01*
X707008D01*
Y275100D01*
X706008D01*
Y274101D01*
X704008D01*
Y273101D01*
X703009D01*
Y272101D01*
X702009D01*
Y271102D01*
X701009D01*
Y270102D01*
X699010D01*
Y269102D01*
X697011D01*
Y268103D01*
X695011D01*
Y267103D01*
X692012D01*
Y266103D01*
X689013D01*
Y265104D01*
X683015D01*
Y264104D01*
X673018D01*
Y265104D01*
X667020D01*
Y266103D01*
X664021D01*
Y267103D01*
X661022D01*
Y268103D01*
X659023D01*
Y269102D01*
X657023D01*
Y270102D01*
X655024D01*
Y271102D01*
X654025D01*
Y272101D01*
X653025D01*
Y273101D01*
X651025D01*
Y274101D01*
X650026D01*
Y275100D01*
X649026D01*
Y276100D01*
X648026D01*
Y277100D01*
X647027D01*
Y278099D01*
X646027D01*
Y279099D01*
X645027D01*
Y281098D01*
X644028D01*
Y282098D01*
X643028D01*
Y284097D01*
X642028D01*
Y286097D01*
X641029D01*
Y288096D01*
X640029D01*
Y290096D01*
X639029D01*
Y293095D01*
X638030D01*
Y297093D01*
X637030D01*
Y315088D01*
X638030D01*
Y319086D01*
X639029D01*
Y322085D01*
X640029D01*
Y325084D01*
X641029D01*
Y327084D01*
X642028D01*
Y329083D01*
X643028D01*
Y330083D01*
X644028D01*
Y332082D01*
X645027D01*
Y333082D01*
X646027D01*
Y334081D01*
X647027D01*
Y335081D01*
X648026D01*
Y337080D01*
X649026D01*
Y336081D01*
X651025D01*
Y335081D01*
X652025D01*
Y334081D01*
X653025D01*
Y333082D01*
X654025D01*
Y332082D01*
X655024D01*
Y331082D01*
X656024D01*
Y330083D01*
X658023D01*
Y329083D01*
X659023D01*
Y328083D01*
X660023D01*
Y327084D01*
X661022D01*
Y324085D01*
X660023D01*
Y323085D01*
X659023D01*
Y322085D01*
X658023D01*
Y320086D01*
X657023D01*
Y319086D01*
X656024D01*
Y317087D01*
X655024D01*
Y314088D01*
X654025D01*
Y311089D01*
X653025D01*
Y300092D01*
X654025D01*
Y297093D01*
X655024D01*
Y295094D01*
X656024D01*
Y293095D01*
X657023D01*
Y292095D01*
X658023D01*
Y291095D01*
X659023D01*
Y290096D01*
X660023D01*
Y289096D01*
X661022D01*
Y288096D01*
X662022D01*
Y287097D01*
X663022D01*
Y286097D01*
X665021D01*
Y285097D01*
X667020D01*
Y284097D01*
X670019D01*
Y283098D01*
X676017D01*
Y282098D01*
X680016D01*
Y283098D01*
X686014D01*
Y284097D01*
X688014D01*
Y285097D01*
X691013D01*
Y286097D01*
X692012D01*
Y287097D01*
X694012D01*
Y288096D01*
X695011D01*
Y289096D01*
X696011D01*
Y290096D01*
X697011D01*
Y291095D01*
X698010D01*
Y292095D01*
X699010D01*
Y294094D01*
X700010D01*
Y296094D01*
X701009D01*
Y298093D01*
X702009D01*
Y302092D01*
X703009D01*
Y309089D01*
X702009D01*
Y314088D01*
X701009D01*
Y316087D01*
X700010D01*
Y318086D01*
X699010D01*
Y320086D01*
X698010D01*
Y322085D01*
X697011D01*
Y323085D01*
X696011D01*
Y324085D01*
X695011D01*
Y325084D01*
X694012D01*
Y327084D01*
X695011D01*
Y328083D01*
X696011D01*
Y329083D01*
X697011D01*
Y330083D01*
X698010D01*
Y331082D01*
X699010D01*
Y332082D01*
X700010D01*
Y333082D01*
X701009D01*
Y334081D01*
X702009D01*
Y335081D01*
X703009D01*
Y336081D01*
X704008D01*
Y337080D01*
X706008D01*
Y336081D01*
D02*
G37*
G36*
X447255Y232782D02*
X447360D01*
X447494Y232768D01*
X447649Y232761D01*
X447825Y232740D01*
X448014Y232719D01*
X448212Y232684D01*
X448423Y232649D01*
X448648Y232600D01*
X448873Y232543D01*
X449098Y232480D01*
X449323Y232403D01*
X449541Y232311D01*
X449759Y232213D01*
X449773Y232206D01*
X449809Y232185D01*
X449865Y232149D01*
X449949Y232107D01*
X450041Y232044D01*
X450146Y231973D01*
X450273Y231882D01*
X450400Y231784D01*
X450533Y231678D01*
X450681Y231551D01*
X450822Y231418D01*
X450962Y231270D01*
X451103Y231108D01*
X451237Y230939D01*
X451363Y230756D01*
X451483Y230559D01*
X451490Y230545D01*
X451511Y230510D01*
X451539Y230454D01*
X451575Y230369D01*
X451624Y230271D01*
X451673Y230151D01*
X451722Y230010D01*
X451779Y229863D01*
X451835Y229694D01*
X451884Y229511D01*
X451940Y229314D01*
X451983Y229110D01*
X452018Y228892D01*
X452046Y228667D01*
X452067Y228434D01*
X452074Y228195D01*
Y228097D01*
X452067Y228055D01*
X452060Y227949D01*
X452053Y227822D01*
X452032Y227682D01*
X452011Y227520D01*
X451983Y227337D01*
X451940Y227147D01*
X451891Y226950D01*
X451835Y226746D01*
X451758Y226542D01*
X451673Y226338D01*
X451575Y226127D01*
X451462Y225930D01*
X451328Y225740D01*
X451321Y225726D01*
X451293Y225697D01*
X451251Y225641D01*
X451188Y225578D01*
X451117Y225494D01*
X451019Y225402D01*
X450913Y225303D01*
X450787Y225191D01*
X450646Y225078D01*
X450491Y224959D01*
X450315Y224846D01*
X450132Y224734D01*
X449928Y224621D01*
X449710Y224522D01*
X449478Y224424D01*
X449232Y224347D01*
X448936Y225613D01*
X448950Y225620D01*
X448985Y225627D01*
X449035Y225648D01*
X449112Y225676D01*
X449197Y225712D01*
X449295Y225754D01*
X449408Y225810D01*
X449527Y225866D01*
X449654Y225930D01*
X449781Y226007D01*
X449907Y226084D01*
X450041Y226176D01*
X450160Y226274D01*
X450280Y226373D01*
X450386Y226486D01*
X450484Y226605D01*
X450491Y226612D01*
X450505Y226633D01*
X450526Y226668D01*
X450561Y226718D01*
X450597Y226781D01*
X450639Y226858D01*
X450681Y226950D01*
X450730Y227048D01*
X450773Y227161D01*
X450815Y227281D01*
X450857Y227414D01*
X450892Y227555D01*
X450927Y227710D01*
X450948Y227872D01*
X450962Y228040D01*
X450970Y228223D01*
Y228329D01*
X450962Y228406D01*
X450955Y228505D01*
X450941Y228617D01*
X450927Y228744D01*
X450899Y228878D01*
X450871Y229025D01*
X450836Y229173D01*
X450794Y229328D01*
X450744Y229490D01*
X450681Y229645D01*
X450604Y229799D01*
X450526Y229954D01*
X450428Y230102D01*
X450421Y230109D01*
X450407Y230137D01*
X450372Y230172D01*
X450329Y230222D01*
X450273Y230285D01*
X450210Y230355D01*
X450132Y230433D01*
X450048Y230517D01*
X449949Y230601D01*
X449844Y230693D01*
X449724Y230777D01*
X449590Y230862D01*
X449457Y230946D01*
X449309Y231024D01*
X449154Y231094D01*
X448985Y231157D01*
X448978D01*
X448943Y231171D01*
X448894Y231185D01*
X448831Y231206D01*
X448746Y231228D01*
X448648Y231256D01*
X448535Y231277D01*
X448409Y231305D01*
X448275Y231333D01*
X448127Y231361D01*
X447972Y231390D01*
X447810Y231411D01*
X447473Y231446D01*
X447297Y231453D01*
X447114Y231460D01*
X447100D01*
X447058D01*
X446994D01*
X446903Y231453D01*
X446797Y231446D01*
X446671Y231439D01*
X446530Y231432D01*
X446382Y231418D01*
X446213Y231397D01*
X446037Y231375D01*
X445679Y231305D01*
X445489Y231270D01*
X445306Y231221D01*
X445123Y231164D01*
X444947Y231101D01*
X444940Y231094D01*
X444905Y231087D01*
X444862Y231066D01*
X444799Y231031D01*
X444722Y230995D01*
X444630Y230946D01*
X444532Y230890D01*
X444426Y230827D01*
X444321Y230749D01*
X444208Y230665D01*
X444089Y230573D01*
X443976Y230475D01*
X443863Y230362D01*
X443758Y230243D01*
X443659Y230116D01*
X443568Y229975D01*
X443561Y229968D01*
X443547Y229940D01*
X443526Y229898D01*
X443498Y229842D01*
X443462Y229771D01*
X443420Y229687D01*
X443385Y229588D01*
X443343Y229483D01*
X443293Y229363D01*
X443258Y229237D01*
X443216Y229096D01*
X443181Y228955D01*
X443153Y228800D01*
X443132Y228645D01*
X443118Y228484D01*
X443111Y228322D01*
Y228273D01*
X443118Y228216D01*
Y228139D01*
X443132Y228047D01*
X443146Y227942D01*
X443160Y227815D01*
X443188Y227689D01*
X443223Y227548D01*
X443265Y227400D01*
X443315Y227245D01*
X443371Y227091D01*
X443441Y226936D01*
X443526Y226781D01*
X443624Y226633D01*
X443730Y226486D01*
X443737Y226479D01*
X443758Y226450D01*
X443793Y226415D01*
X443849Y226366D01*
X443913Y226303D01*
X443990Y226232D01*
X444089Y226155D01*
X444194Y226077D01*
X444321Y225993D01*
X444454Y225909D01*
X444609Y225817D01*
X444778Y225740D01*
X444954Y225655D01*
X445151Y225585D01*
X445355Y225522D01*
X445580Y225465D01*
X445256Y224178D01*
X445249D01*
X445235Y224185D01*
X445214Y224192D01*
X445186Y224199D01*
X445151Y224206D01*
X445102Y224220D01*
X444996Y224255D01*
X444862Y224304D01*
X444715Y224361D01*
X444546Y224431D01*
X444363Y224515D01*
X444166Y224607D01*
X443969Y224713D01*
X443772Y224832D01*
X443568Y224966D01*
X443371Y225114D01*
X443181Y225275D01*
X443005Y225451D01*
X442836Y225641D01*
X442829Y225655D01*
X442801Y225690D01*
X442759Y225747D01*
X442710Y225831D01*
X442646Y225930D01*
X442576Y226056D01*
X442498Y226197D01*
X442421Y226359D01*
X442344Y226535D01*
X442266Y226732D01*
X442196Y226943D01*
X442132Y227168D01*
X442083Y227414D01*
X442041Y227668D01*
X442013Y227935D01*
X442006Y228216D01*
Y228322D01*
X442013Y228371D01*
Y228477D01*
X442027Y228610D01*
X442041Y228765D01*
X442062Y228941D01*
X442083Y229124D01*
X442118Y229328D01*
X442161Y229532D01*
X442217Y229750D01*
X442273Y229961D01*
X442351Y230172D01*
X442435Y230383D01*
X442534Y230587D01*
X442646Y230777D01*
X442653Y230791D01*
X442674Y230820D01*
X442716Y230869D01*
X442766Y230939D01*
X442829Y231024D01*
X442914Y231115D01*
X443005Y231221D01*
X443118Y231333D01*
X443244Y231453D01*
X443378Y231572D01*
X443533Y231699D01*
X443694Y231826D01*
X443877Y231945D01*
X444067Y232065D01*
X444278Y232178D01*
X444497Y232276D01*
X444504D01*
X444511Y232283D01*
X444553Y232297D01*
X444616Y232325D01*
X444708Y232353D01*
X444820Y232396D01*
X444954Y232438D01*
X445109Y232487D01*
X445277Y232529D01*
X445467Y232579D01*
X445672Y232628D01*
X445883Y232670D01*
X446115Y232712D01*
X446347Y232740D01*
X446593Y232768D01*
X446847Y232782D01*
X447107Y232790D01*
X447114D01*
X447128D01*
X447149D01*
X447177D01*
X447212D01*
X447255Y232782D01*
D02*
G37*
G36*
X449499Y222151D02*
X449513Y222123D01*
X449541Y222067D01*
X449576Y221997D01*
X449619Y221912D01*
X449675Y221807D01*
X449738Y221694D01*
X449809Y221574D01*
X449893Y221441D01*
X449977Y221300D01*
X450174Y221005D01*
X450393Y220702D01*
X450632Y220414D01*
X450639Y220407D01*
X450660Y220378D01*
X450695Y220343D01*
X450744Y220294D01*
X450808Y220231D01*
X450878Y220160D01*
X450962Y220083D01*
X451047Y219998D01*
X451145Y219914D01*
X451251Y219823D01*
X451469Y219647D01*
X451701Y219485D01*
X451821Y219415D01*
X451940Y219351D01*
Y218577D01*
X442168D01*
Y219773D01*
X449781D01*
X449773Y219780D01*
X449759Y219795D01*
X449738Y219816D01*
X449710Y219851D01*
X449675Y219893D01*
X449626Y219949D01*
X449576Y220013D01*
X449520Y220076D01*
X449464Y220160D01*
X449394Y220245D01*
X449330Y220336D01*
X449253Y220435D01*
X449182Y220547D01*
X449105Y220660D01*
X448950Y220913D01*
X448943Y220920D01*
X448929Y220941D01*
X448908Y220984D01*
X448887Y221033D01*
X448852Y221089D01*
X448810Y221159D01*
X448767Y221244D01*
X448718Y221328D01*
X448619Y221525D01*
X448521Y221736D01*
X448423Y221954D01*
X448338Y222166D01*
X449492D01*
X449499Y222151D01*
D02*
G37*
G36*
X447191Y215510D02*
X447255D01*
X447395Y215503D01*
X447564Y215496D01*
X447754Y215488D01*
X447958Y215474D01*
X448176Y215453D01*
X448401Y215432D01*
X448866Y215369D01*
X449098Y215327D01*
X449323Y215278D01*
X449541Y215228D01*
X449745Y215165D01*
X449759Y215158D01*
X449795Y215151D01*
X449844Y215130D01*
X449921Y215102D01*
X450006Y215059D01*
X450111Y215017D01*
X450224Y214961D01*
X450343Y214897D01*
X450470Y214834D01*
X450604Y214750D01*
X450744Y214665D01*
X450878Y214574D01*
X451012Y214468D01*
X451138Y214356D01*
X451258Y214236D01*
X451371Y214109D01*
X451378Y214102D01*
X451399Y214074D01*
X451427Y214039D01*
X451462Y213983D01*
X451504Y213913D01*
X451553Y213828D01*
X451603Y213737D01*
X451659Y213624D01*
X451708Y213504D01*
X451758Y213371D01*
X451807Y213223D01*
X451849Y213068D01*
X451891Y212899D01*
X451919Y212724D01*
X451933Y212540D01*
X451940Y212344D01*
Y212266D01*
X451933Y212210D01*
Y212146D01*
X451926Y212062D01*
X451912Y211978D01*
X451898Y211879D01*
X451863Y211668D01*
X451807Y211436D01*
X451729Y211197D01*
X451680Y211084D01*
X451624Y210972D01*
Y210965D01*
X451610Y210943D01*
X451589Y210915D01*
X451567Y210873D01*
X451532Y210824D01*
X451490Y210767D01*
X451448Y210697D01*
X451392Y210627D01*
X451265Y210472D01*
X451103Y210310D01*
X450920Y210148D01*
X450709Y210001D01*
X450702Y209994D01*
X450681Y209986D01*
X450646Y209965D01*
X450604Y209937D01*
X450547Y209902D01*
X450477Y209867D01*
X450400Y209825D01*
X450308Y209783D01*
X450210Y209733D01*
X450097Y209684D01*
X449977Y209635D01*
X449851Y209578D01*
X449717Y209529D01*
X449576Y209487D01*
X449422Y209438D01*
X449267Y209396D01*
X449260D01*
X449225Y209389D01*
X449182Y209374D01*
X449112Y209360D01*
X449028Y209346D01*
X448922Y209325D01*
X448802Y209304D01*
X448662Y209283D01*
X448507Y209262D01*
X448331Y209241D01*
X448141Y209220D01*
X447937Y209206D01*
X447719Y209191D01*
X447480Y209177D01*
X447234Y209170D01*
X446966D01*
X446959D01*
X446945D01*
X446924D01*
X446889D01*
X446854D01*
X446804D01*
X446748Y209177D01*
X446685D01*
X446537Y209184D01*
X446368Y209191D01*
X446185Y209198D01*
X445981Y209213D01*
X445763Y209234D01*
X445538Y209255D01*
X445080Y209318D01*
X444848Y209360D01*
X444623Y209410D01*
X444405Y209466D01*
X444201Y209529D01*
X444187Y209536D01*
X444152Y209543D01*
X444103Y209564D01*
X444025Y209592D01*
X443941Y209635D01*
X443835Y209677D01*
X443723Y209733D01*
X443603Y209790D01*
X443476Y209860D01*
X443343Y209944D01*
X443209Y210029D01*
X443068Y210120D01*
X442935Y210226D01*
X442808Y210338D01*
X442688Y210458D01*
X442576Y210585D01*
X442569Y210592D01*
X442555Y210620D01*
X442527Y210655D01*
X442484Y210711D01*
X442442Y210782D01*
X442393Y210859D01*
X442344Y210958D01*
X442294Y211063D01*
X442238Y211190D01*
X442189Y211323D01*
X442140Y211464D01*
X442097Y211619D01*
X442062Y211788D01*
X442034Y211964D01*
X442013Y212146D01*
X442006Y212344D01*
Y212407D01*
X442013Y212477D01*
X442020Y212576D01*
X442034Y212695D01*
X442062Y212836D01*
X442090Y212984D01*
X442132Y213153D01*
X442182Y213329D01*
X442252Y213504D01*
X442329Y213687D01*
X442428Y213877D01*
X442541Y214060D01*
X442674Y214236D01*
X442829Y214405D01*
X443005Y214560D01*
X443012D01*
X443019Y214567D01*
X443040Y214581D01*
X443061Y214602D01*
X443096Y214623D01*
X443139Y214651D01*
X443181Y214679D01*
X443237Y214708D01*
X443301Y214743D01*
X443371Y214785D01*
X443448Y214820D01*
X443533Y214862D01*
X443631Y214905D01*
X443730Y214947D01*
X443842Y214996D01*
X443955Y215038D01*
X444081Y215081D01*
X444215Y215130D01*
X444356Y215172D01*
X444511Y215214D01*
X444665Y215256D01*
X444834Y215292D01*
X445003Y215334D01*
X445193Y215369D01*
X445383Y215397D01*
X445580Y215425D01*
X445791Y215453D01*
X446009Y215474D01*
X446234Y215496D01*
X446467Y215503D01*
X446713Y215517D01*
X446966D01*
X446973D01*
X446987D01*
X447008D01*
X447043D01*
X447086D01*
X447135D01*
X447191Y215510D01*
D02*
G37*
G36*
X104629Y410157D02*
X104735Y410150D01*
X104861Y410143D01*
X105002Y410122D01*
X105164Y410101D01*
X105347Y410073D01*
X105537Y410030D01*
X105734Y409981D01*
X105938Y409925D01*
X106142Y409847D01*
X106346Y409763D01*
X106557Y409665D01*
X106754Y409552D01*
X106944Y409418D01*
X106958Y409411D01*
X106986Y409383D01*
X107042Y409341D01*
X107106Y409278D01*
X107190Y409207D01*
X107282Y409109D01*
X107380Y409003D01*
X107493Y408877D01*
X107605Y408736D01*
X107725Y408581D01*
X107837Y408405D01*
X107950Y408222D01*
X108063Y408018D01*
X108161Y407800D01*
X108260Y407568D01*
X108337Y407322D01*
X107071Y407026D01*
X107064Y407040D01*
X107057Y407075D01*
X107035Y407125D01*
X107007Y407202D01*
X106972Y407286D01*
X106930Y407385D01*
X106874Y407498D01*
X106817Y407617D01*
X106754Y407744D01*
X106677Y407870D01*
X106599Y407997D01*
X106508Y408131D01*
X106409Y408250D01*
X106311Y408370D01*
X106198Y408475D01*
X106079Y408574D01*
X106071Y408581D01*
X106050Y408595D01*
X106015Y408616D01*
X105966Y408651D01*
X105903Y408687D01*
X105825Y408729D01*
X105734Y408771D01*
X105635Y408820D01*
X105523Y408862D01*
X105403Y408905D01*
X105269Y408947D01*
X105129Y408982D01*
X104974Y409017D01*
X104812Y409038D01*
X104643Y409053D01*
X104460Y409059D01*
X104355D01*
X104277Y409053D01*
X104179Y409045D01*
X104066Y409031D01*
X103940Y409017D01*
X103806Y408989D01*
X103658Y408961D01*
X103510Y408926D01*
X103356Y408884D01*
X103194Y408834D01*
X103039Y408771D01*
X102884Y408694D01*
X102729Y408616D01*
X102582Y408518D01*
X102575Y408511D01*
X102547Y408497D01*
X102511Y408461D01*
X102462Y408419D01*
X102399Y408363D01*
X102328Y408300D01*
X102251Y408222D01*
X102167Y408138D01*
X102082Y408039D01*
X101991Y407934D01*
X101906Y407814D01*
X101822Y407681D01*
X101737Y407547D01*
X101660Y407399D01*
X101590Y407244D01*
X101526Y407075D01*
Y407068D01*
X101512Y407033D01*
X101498Y406984D01*
X101477Y406921D01*
X101456Y406836D01*
X101428Y406738D01*
X101407Y406625D01*
X101379Y406498D01*
X101350Y406365D01*
X101322Y406217D01*
X101294Y406062D01*
X101273Y405900D01*
X101238Y405563D01*
X101231Y405387D01*
X101224Y405204D01*
Y405190D01*
Y405148D01*
Y405084D01*
X101231Y404993D01*
X101238Y404887D01*
X101245Y404761D01*
X101252Y404620D01*
X101266Y404472D01*
X101287Y404303D01*
X101308Y404127D01*
X101379Y403769D01*
X101414Y403579D01*
X101463Y403396D01*
X101519Y403213D01*
X101583Y403037D01*
X101590Y403030D01*
X101597Y402995D01*
X101618Y402952D01*
X101653Y402889D01*
X101688Y402812D01*
X101737Y402720D01*
X101794Y402622D01*
X101857Y402516D01*
X101934Y402411D01*
X102019Y402298D01*
X102110Y402178D01*
X102209Y402066D01*
X102321Y401953D01*
X102441Y401848D01*
X102568Y401749D01*
X102708Y401658D01*
X102715Y401651D01*
X102744Y401637D01*
X102786Y401616D01*
X102842Y401587D01*
X102912Y401552D01*
X102997Y401510D01*
X103095Y401475D01*
X103201Y401433D01*
X103320Y401383D01*
X103447Y401348D01*
X103588Y401306D01*
X103729Y401271D01*
X103883Y401243D01*
X104038Y401222D01*
X104200Y401208D01*
X104362Y401200D01*
X104411D01*
X104467Y401208D01*
X104545D01*
X104636Y401222D01*
X104742Y401236D01*
X104868Y401250D01*
X104995Y401278D01*
X105136Y401313D01*
X105283Y401355D01*
X105438Y401405D01*
X105593Y401461D01*
X105748Y401531D01*
X105903Y401616D01*
X106050Y401714D01*
X106198Y401820D01*
X106205Y401827D01*
X106233Y401848D01*
X106268Y401883D01*
X106318Y401939D01*
X106381Y402003D01*
X106451Y402080D01*
X106529Y402178D01*
X106606Y402284D01*
X106691Y402411D01*
X106775Y402544D01*
X106867Y402699D01*
X106944Y402868D01*
X107028Y403044D01*
X107099Y403241D01*
X107162Y403445D01*
X107218Y403670D01*
X108506Y403346D01*
Y403339D01*
X108499Y403325D01*
X108492Y403304D01*
X108485Y403276D01*
X108478Y403241D01*
X108464Y403192D01*
X108428Y403086D01*
X108379Y402952D01*
X108323Y402805D01*
X108252Y402636D01*
X108168Y402453D01*
X108077Y402256D01*
X107971Y402059D01*
X107851Y401862D01*
X107718Y401658D01*
X107570Y401461D01*
X107408Y401271D01*
X107232Y401095D01*
X107042Y400926D01*
X107028Y400919D01*
X106993Y400891D01*
X106937Y400849D01*
X106852Y400799D01*
X106754Y400736D01*
X106627Y400666D01*
X106487Y400588D01*
X106325Y400511D01*
X106149Y400434D01*
X105952Y400356D01*
X105741Y400286D01*
X105516Y400223D01*
X105269Y400173D01*
X105016Y400131D01*
X104749Y400103D01*
X104467Y400096D01*
X104362D01*
X104312Y400103D01*
X104207D01*
X104073Y400117D01*
X103919Y400131D01*
X103743Y400152D01*
X103560Y400173D01*
X103356Y400209D01*
X103152Y400251D01*
X102934Y400307D01*
X102722Y400363D01*
X102511Y400441D01*
X102300Y400525D01*
X102096Y400624D01*
X101906Y400736D01*
X101892Y400743D01*
X101864Y400764D01*
X101815Y400807D01*
X101744Y400856D01*
X101660Y400919D01*
X101568Y401003D01*
X101463Y401095D01*
X101350Y401208D01*
X101231Y401334D01*
X101111Y401468D01*
X100985Y401623D01*
X100858Y401785D01*
X100738Y401967D01*
X100619Y402157D01*
X100506Y402369D01*
X100408Y402587D01*
Y402594D01*
X100401Y402601D01*
X100386Y402643D01*
X100358Y402706D01*
X100330Y402798D01*
X100288Y402910D01*
X100246Y403044D01*
X100197Y403199D01*
X100154Y403368D01*
X100105Y403558D01*
X100056Y403761D01*
X100014Y403973D01*
X99971Y404205D01*
X99943Y404437D01*
X99915Y404683D01*
X99901Y404936D01*
X99894Y405197D01*
Y405204D01*
Y405218D01*
Y405239D01*
Y405267D01*
Y405302D01*
X99901Y405345D01*
Y405450D01*
X99915Y405584D01*
X99922Y405739D01*
X99943Y405914D01*
X99964Y406105D01*
X100000Y406301D01*
X100035Y406512D01*
X100084Y406738D01*
X100140Y406963D01*
X100204Y407188D01*
X100281Y407413D01*
X100372Y407631D01*
X100471Y407849D01*
X100478Y407863D01*
X100499Y407899D01*
X100534Y407955D01*
X100576Y408039D01*
X100640Y408131D01*
X100710Y408236D01*
X100802Y408363D01*
X100900Y408490D01*
X101006Y408623D01*
X101132Y408771D01*
X101266Y408912D01*
X101414Y409053D01*
X101576Y409193D01*
X101744Y409327D01*
X101927Y409454D01*
X102124Y409573D01*
X102138Y409580D01*
X102174Y409601D01*
X102230Y409629D01*
X102314Y409665D01*
X102413Y409714D01*
X102532Y409763D01*
X102673Y409812D01*
X102821Y409869D01*
X102990Y409925D01*
X103173Y409974D01*
X103370Y410030D01*
X103574Y410073D01*
X103792Y410108D01*
X104017Y410136D01*
X104249Y410157D01*
X104488Y410164D01*
X104587D01*
X104629Y410157D01*
D02*
G37*
G36*
X112896Y410023D02*
X112988Y410016D01*
X113093Y410009D01*
X113220Y409988D01*
X113361Y409967D01*
X113508Y409939D01*
X113670Y409897D01*
X113839Y409847D01*
X114008Y409791D01*
X114177Y409714D01*
X114346Y409629D01*
X114514Y409531D01*
X114676Y409418D01*
X114824Y409285D01*
X114831Y409278D01*
X114859Y409249D01*
X114894Y409207D01*
X114944Y409151D01*
X115007Y409081D01*
X115070Y408996D01*
X115141Y408898D01*
X115218Y408785D01*
X115288Y408658D01*
X115359Y408518D01*
X115422Y408370D01*
X115485Y408215D01*
X115535Y408046D01*
X115570Y407863D01*
X115598Y407681D01*
X115605Y407483D01*
Y407477D01*
Y407455D01*
Y407420D01*
X115598Y407371D01*
X115591Y407315D01*
X115584Y407244D01*
X115577Y407167D01*
X115563Y407082D01*
X115520Y406899D01*
X115457Y406702D01*
X115415Y406604D01*
X115366Y406506D01*
X115309Y406407D01*
X115246Y406309D01*
X115239Y406301D01*
X115232Y406287D01*
X115211Y406259D01*
X115176Y406224D01*
X115141Y406182D01*
X115091Y406140D01*
X115042Y406083D01*
X114979Y406027D01*
X114901Y405964D01*
X114824Y405900D01*
X114733Y405837D01*
X114641Y405774D01*
X114529Y405710D01*
X114416Y405647D01*
X114296Y405591D01*
X114163Y405535D01*
X114170D01*
X114205Y405521D01*
X114247Y405506D01*
X114310Y405478D01*
X114388Y405450D01*
X114472Y405408D01*
X114571Y405366D01*
X114669Y405309D01*
X114782Y405246D01*
X114894Y405176D01*
X115007Y405098D01*
X115119Y405014D01*
X115232Y404922D01*
X115338Y404817D01*
X115443Y404711D01*
X115535Y404592D01*
X115542Y404585D01*
X115556Y404564D01*
X115577Y404529D01*
X115612Y404479D01*
X115647Y404416D01*
X115682Y404338D01*
X115725Y404254D01*
X115774Y404156D01*
X115816Y404043D01*
X115858Y403930D01*
X115893Y403797D01*
X115936Y403663D01*
X115964Y403515D01*
X115985Y403368D01*
X115999Y403206D01*
X116006Y403037D01*
Y403023D01*
Y402981D01*
X115999Y402917D01*
X115992Y402826D01*
X115978Y402720D01*
X115957Y402601D01*
X115929Y402460D01*
X115893Y402305D01*
X115851Y402143D01*
X115788Y401974D01*
X115717Y401806D01*
X115633Y401630D01*
X115528Y401447D01*
X115415Y401278D01*
X115274Y401102D01*
X115119Y400940D01*
X115112Y400933D01*
X115077Y400905D01*
X115028Y400863D01*
X114958Y400807D01*
X114873Y400743D01*
X114761Y400673D01*
X114641Y400595D01*
X114500Y400518D01*
X114339Y400441D01*
X114163Y400363D01*
X113973Y400293D01*
X113769Y400230D01*
X113544Y400173D01*
X113311Y400131D01*
X113058Y400103D01*
X112798Y400096D01*
X112734D01*
X112657Y400103D01*
X112558Y400110D01*
X112439Y400124D01*
X112298Y400138D01*
X112136Y400166D01*
X111967Y400201D01*
X111784Y400251D01*
X111594Y400307D01*
X111405Y400370D01*
X111208Y400455D01*
X111011Y400553D01*
X110821Y400666D01*
X110645Y400799D01*
X110469Y400947D01*
X110462Y400954D01*
X110434Y400989D01*
X110384Y401032D01*
X110335Y401102D01*
X110265Y401186D01*
X110187Y401285D01*
X110110Y401398D01*
X110033Y401531D01*
X109948Y401679D01*
X109871Y401841D01*
X109793Y402017D01*
X109730Y402200D01*
X109674Y402404D01*
X109625Y402615D01*
X109596Y402840D01*
X109589Y403072D01*
Y403086D01*
Y403114D01*
Y403163D01*
X109596Y403234D01*
X109603Y403311D01*
X109618Y403410D01*
X109632Y403515D01*
X109653Y403628D01*
X109674Y403747D01*
X109709Y403881D01*
X109744Y404008D01*
X109793Y404142D01*
X109850Y404275D01*
X109913Y404409D01*
X109983Y404535D01*
X110068Y404662D01*
X110075Y404669D01*
X110089Y404690D01*
X110117Y404725D01*
X110159Y404768D01*
X110209Y404817D01*
X110272Y404880D01*
X110342Y404944D01*
X110420Y405014D01*
X110518Y405084D01*
X110617Y405155D01*
X110729Y405232D01*
X110856Y405302D01*
X110990Y405366D01*
X111130Y405429D01*
X111285Y405485D01*
X111447Y405535D01*
X111440D01*
X111412Y405549D01*
X111376Y405563D01*
X111327Y405584D01*
X111264Y405612D01*
X111194Y405647D01*
X111116Y405689D01*
X111032Y405732D01*
X110849Y405844D01*
X110666Y405978D01*
X110490Y406133D01*
X110413Y406217D01*
X110342Y406309D01*
X110335Y406315D01*
X110328Y406330D01*
X110307Y406358D01*
X110286Y406400D01*
X110258Y406449D01*
X110230Y406506D01*
X110194Y406576D01*
X110166Y406653D01*
X110131Y406738D01*
X110096Y406829D01*
X110068Y406928D01*
X110040Y407033D01*
X109997Y407265D01*
X109990Y407392D01*
X109983Y407519D01*
Y407533D01*
Y407568D01*
X109990Y407624D01*
X109997Y407695D01*
X110005Y407786D01*
X110026Y407892D01*
X110047Y408011D01*
X110082Y408138D01*
X110117Y408279D01*
X110166Y408419D01*
X110230Y408567D01*
X110307Y408722D01*
X110391Y408870D01*
X110490Y409024D01*
X110610Y409165D01*
X110743Y409306D01*
X110750Y409313D01*
X110778Y409334D01*
X110821Y409376D01*
X110884Y409418D01*
X110961Y409475D01*
X111053Y409538D01*
X111158Y409601D01*
X111285Y409672D01*
X111419Y409735D01*
X111573Y409798D01*
X111742Y409862D01*
X111925Y409918D01*
X112115Y409967D01*
X112326Y410002D01*
X112544Y410023D01*
X112777Y410030D01*
X112833D01*
X112896Y410023D01*
D02*
G37*
G36*
X220557Y229696D02*
X220663D01*
X220796Y229682D01*
X220951Y229675D01*
X221127Y229654D01*
X221317Y229633D01*
X221514Y229598D01*
X221725Y229562D01*
X221950Y229513D01*
X222175Y229457D01*
X222400Y229394D01*
X222626Y229316D01*
X222844Y229225D01*
X223062Y229126D01*
X223076Y229119D01*
X223111Y229098D01*
X223167Y229063D01*
X223252Y229021D01*
X223343Y228957D01*
X223449Y228887D01*
X223575Y228796D01*
X223702Y228697D01*
X223836Y228592D01*
X223983Y228465D01*
X224124Y228331D01*
X224265Y228183D01*
X224406Y228022D01*
X224539Y227853D01*
X224666Y227670D01*
X224786Y227473D01*
X224793Y227459D01*
X224814Y227424D01*
X224842Y227367D01*
X224877Y227283D01*
X224926Y227184D01*
X224976Y227065D01*
X225025Y226924D01*
X225081Y226776D01*
X225137Y226607D01*
X225187Y226425D01*
X225243Y226227D01*
X225285Y226024D01*
X225320Y225805D01*
X225348Y225580D01*
X225370Y225348D01*
X225377Y225109D01*
Y225010D01*
X225370Y224968D01*
X225363Y224863D01*
X225355Y224736D01*
X225334Y224595D01*
X225313Y224433D01*
X225285Y224251D01*
X225243Y224060D01*
X225194Y223864D01*
X225137Y223659D01*
X225060Y223455D01*
X224976Y223251D01*
X224877Y223040D01*
X224764Y222843D01*
X224631Y222653D01*
X224624Y222639D01*
X224596Y222611D01*
X224553Y222555D01*
X224490Y222491D01*
X224420Y222407D01*
X224321Y222316D01*
X224216Y222217D01*
X224089Y222105D01*
X223948Y221992D01*
X223794Y221872D01*
X223618Y221760D01*
X223435Y221647D01*
X223231Y221535D01*
X223013Y221436D01*
X222780Y221338D01*
X222534Y221260D01*
X222239Y222527D01*
X222253Y222534D01*
X222288Y222541D01*
X222337Y222562D01*
X222415Y222590D01*
X222499Y222625D01*
X222598Y222667D01*
X222710Y222724D01*
X222830Y222780D01*
X222956Y222843D01*
X223083Y222921D01*
X223210Y222998D01*
X223343Y223090D01*
X223463Y223188D01*
X223582Y223287D01*
X223688Y223399D01*
X223787Y223519D01*
X223794Y223526D01*
X223808Y223547D01*
X223829Y223582D01*
X223864Y223631D01*
X223899Y223695D01*
X223941Y223772D01*
X223983Y223864D01*
X224033Y223962D01*
X224075Y224075D01*
X224117Y224194D01*
X224159Y224328D01*
X224195Y224469D01*
X224230Y224623D01*
X224251Y224785D01*
X224265Y224954D01*
X224272Y225137D01*
Y225243D01*
X224265Y225320D01*
X224258Y225418D01*
X224244Y225531D01*
X224230Y225658D01*
X224202Y225791D01*
X224174Y225939D01*
X224138Y226087D01*
X224096Y226242D01*
X224047Y226403D01*
X223983Y226558D01*
X223906Y226713D01*
X223829Y226868D01*
X223730Y227015D01*
X223723Y227023D01*
X223709Y227051D01*
X223674Y227086D01*
X223632Y227135D01*
X223575Y227199D01*
X223512Y227269D01*
X223435Y227346D01*
X223350Y227431D01*
X223252Y227515D01*
X223146Y227607D01*
X223027Y227691D01*
X222893Y227775D01*
X222759Y227860D01*
X222612Y227937D01*
X222457Y228008D01*
X222288Y228071D01*
X222281D01*
X222246Y228085D01*
X222197Y228099D01*
X222133Y228120D01*
X222049Y228141D01*
X221950Y228169D01*
X221838Y228190D01*
X221711Y228219D01*
X221577Y228247D01*
X221430Y228275D01*
X221275Y228303D01*
X221113Y228324D01*
X220775Y228359D01*
X220599Y228366D01*
X220416Y228374D01*
X220402D01*
X220360D01*
X220297D01*
X220205Y228366D01*
X220100Y228359D01*
X219973Y228352D01*
X219832Y228345D01*
X219685Y228331D01*
X219516Y228310D01*
X219340Y228289D01*
X218981Y228219D01*
X218791Y228183D01*
X218608Y228134D01*
X218425Y228078D01*
X218249Y228015D01*
X218242Y228008D01*
X218207Y228001D01*
X218165Y227980D01*
X218102Y227944D01*
X218024Y227909D01*
X217933Y227860D01*
X217834Y227804D01*
X217729Y227740D01*
X217623Y227663D01*
X217511Y227578D01*
X217391Y227487D01*
X217278Y227388D01*
X217166Y227276D01*
X217060Y227156D01*
X216962Y227030D01*
X216870Y226889D01*
X216863Y226882D01*
X216849Y226854D01*
X216828Y226812D01*
X216800Y226755D01*
X216765Y226685D01*
X216723Y226600D01*
X216687Y226502D01*
X216645Y226396D01*
X216596Y226277D01*
X216561Y226150D01*
X216519Y226009D01*
X216483Y225869D01*
X216455Y225714D01*
X216434Y225559D01*
X216420Y225397D01*
X216413Y225236D01*
Y225186D01*
X216420Y225130D01*
Y225053D01*
X216434Y224961D01*
X216448Y224856D01*
X216462Y224729D01*
X216490Y224602D01*
X216526Y224462D01*
X216568Y224314D01*
X216617Y224159D01*
X216673Y224004D01*
X216744Y223849D01*
X216828Y223695D01*
X216927Y223547D01*
X217032Y223399D01*
X217039Y223392D01*
X217060Y223364D01*
X217096Y223329D01*
X217152Y223279D01*
X217215Y223216D01*
X217292Y223146D01*
X217391Y223069D01*
X217496Y222991D01*
X217623Y222907D01*
X217757Y222822D01*
X217912Y222731D01*
X218081Y222653D01*
X218256Y222569D01*
X218453Y222499D01*
X218657Y222435D01*
X218883Y222379D01*
X218559Y221091D01*
X218552D01*
X218538Y221098D01*
X218517Y221105D01*
X218489Y221112D01*
X218453Y221119D01*
X218404Y221134D01*
X218299Y221169D01*
X218165Y221218D01*
X218017Y221274D01*
X217848Y221345D01*
X217665Y221429D01*
X217468Y221521D01*
X217271Y221626D01*
X217074Y221746D01*
X216870Y221879D01*
X216673Y222027D01*
X216483Y222189D01*
X216308Y222365D01*
X216139Y222555D01*
X216132Y222569D01*
X216103Y222604D01*
X216061Y222660D01*
X216012Y222745D01*
X215949Y222843D01*
X215878Y222970D01*
X215801Y223111D01*
X215723Y223272D01*
X215646Y223448D01*
X215569Y223645D01*
X215498Y223857D01*
X215435Y224082D01*
X215386Y224328D01*
X215344Y224581D01*
X215315Y224848D01*
X215308Y225130D01*
Y225236D01*
X215315Y225285D01*
Y225390D01*
X215329Y225524D01*
X215344Y225679D01*
X215365Y225855D01*
X215386Y226038D01*
X215421Y226242D01*
X215463Y226446D01*
X215520Y226664D01*
X215576Y226875D01*
X215653Y227086D01*
X215738Y227297D01*
X215836Y227501D01*
X215949Y227691D01*
X215956Y227705D01*
X215977Y227733D01*
X216019Y227782D01*
X216068Y227853D01*
X216132Y227937D01*
X216216Y228029D01*
X216308Y228134D01*
X216420Y228247D01*
X216547Y228366D01*
X216680Y228486D01*
X216835Y228613D01*
X216997Y228739D01*
X217180Y228859D01*
X217370Y228979D01*
X217581Y229091D01*
X217799Y229190D01*
X217806D01*
X217813Y229197D01*
X217855Y229211D01*
X217919Y229239D01*
X218010Y229267D01*
X218123Y229309D01*
X218256Y229351D01*
X218411Y229401D01*
X218580Y229443D01*
X218770Y229492D01*
X218974Y229541D01*
X219185Y229584D01*
X219417Y229626D01*
X219650Y229654D01*
X219896Y229682D01*
X220149Y229696D01*
X220409Y229703D01*
X220416D01*
X220431D01*
X220452D01*
X220480D01*
X220515D01*
X220557Y229696D01*
D02*
G37*
G36*
X218130Y218741D02*
X218123D01*
X218088Y218734D01*
X218045Y218727D01*
X217982Y218713D01*
X217905Y218692D01*
X217813Y218671D01*
X217715Y218643D01*
X217609Y218608D01*
X217391Y218523D01*
X217271Y218474D01*
X217159Y218418D01*
X217046Y218347D01*
X216941Y218277D01*
X216842Y218193D01*
X216751Y218101D01*
X216744Y218094D01*
X216730Y218080D01*
X216709Y218052D01*
X216680Y218010D01*
X216645Y217960D01*
X216603Y217897D01*
X216568Y217834D01*
X216526Y217756D01*
X216476Y217672D01*
X216441Y217574D01*
X216399Y217475D01*
X216364Y217362D01*
X216336Y217250D01*
X216315Y217130D01*
X216301Y217004D01*
X216293Y216870D01*
Y216828D01*
X216301Y216786D01*
Y216722D01*
X216315Y216652D01*
X216329Y216560D01*
X216350Y216462D01*
X216378Y216356D01*
X216406Y216244D01*
X216448Y216124D01*
X216504Y216005D01*
X216568Y215878D01*
X216638Y215758D01*
X216730Y215632D01*
X216828Y215512D01*
X216941Y215399D01*
X216948Y215392D01*
X216969Y215371D01*
X217011Y215343D01*
X217060Y215308D01*
X217124Y215259D01*
X217201Y215210D01*
X217292Y215153D01*
X217398Y215097D01*
X217518Y215048D01*
X217644Y214991D01*
X217785Y214942D01*
X217940Y214893D01*
X218109Y214858D01*
X218285Y214830D01*
X218468Y214808D01*
X218664Y214801D01*
X218679D01*
X218707D01*
X218763Y214808D01*
X218833D01*
X218918Y214816D01*
X219023Y214830D01*
X219129Y214851D01*
X219256Y214872D01*
X219382Y214907D01*
X219509Y214942D01*
X219643Y214991D01*
X219783Y215048D01*
X219917Y215111D01*
X220044Y215188D01*
X220170Y215280D01*
X220283Y215378D01*
X220290Y215385D01*
X220311Y215406D01*
X220339Y215435D01*
X220374Y215484D01*
X220423Y215540D01*
X220473Y215611D01*
X220522Y215688D01*
X220578Y215779D01*
X220634Y215885D01*
X220684Y215998D01*
X220740Y216117D01*
X220782Y216251D01*
X220817Y216399D01*
X220846Y216553D01*
X220867Y216715D01*
X220874Y216884D01*
Y216940D01*
X220867Y216982D01*
Y217032D01*
X220860Y217095D01*
X220853Y217158D01*
X220839Y217236D01*
X220810Y217398D01*
X220761Y217574D01*
X220698Y217756D01*
X220606Y217932D01*
Y217939D01*
X220592Y217953D01*
X220578Y217974D01*
X220557Y218010D01*
X220501Y218094D01*
X220423Y218200D01*
X220325Y218312D01*
X220212Y218432D01*
X220079Y218552D01*
X219931Y218657D01*
X220079Y219783D01*
X225081Y218840D01*
Y213992D01*
X223941D01*
Y217890D01*
X221317Y218411D01*
X221324Y218404D01*
X221345Y218368D01*
X221373Y218326D01*
X221416Y218256D01*
X221458Y218179D01*
X221514Y218087D01*
X221563Y217974D01*
X221627Y217855D01*
X221683Y217721D01*
X221739Y217581D01*
X221788Y217426D01*
X221831Y217271D01*
X221873Y217102D01*
X221901Y216933D01*
X221922Y216750D01*
X221929Y216574D01*
Y216518D01*
X221922Y216448D01*
X221915Y216363D01*
X221901Y216251D01*
X221880Y216124D01*
X221852Y215976D01*
X221817Y215822D01*
X221774Y215660D01*
X221711Y215484D01*
X221641Y215308D01*
X221556Y215125D01*
X221451Y214942D01*
X221338Y214759D01*
X221197Y214583D01*
X221043Y214414D01*
X221035Y214407D01*
X221000Y214379D01*
X220951Y214330D01*
X220881Y214274D01*
X220796Y214210D01*
X220691Y214133D01*
X220564Y214056D01*
X220423Y213971D01*
X220269Y213894D01*
X220100Y213816D01*
X219910Y213739D01*
X219713Y213669D01*
X219495Y213619D01*
X219263Y213570D01*
X219023Y213542D01*
X218770Y213535D01*
X218763D01*
X218756D01*
X218735D01*
X218714D01*
X218643Y213542D01*
X218552Y213549D01*
X218432Y213556D01*
X218299Y213577D01*
X218151Y213598D01*
X217989Y213633D01*
X217813Y213676D01*
X217630Y213725D01*
X217440Y213788D01*
X217250Y213859D01*
X217053Y213950D01*
X216863Y214056D01*
X216673Y214175D01*
X216490Y214309D01*
X216476Y214323D01*
X216441Y214351D01*
X216385Y214407D01*
X216308Y214478D01*
X216216Y214576D01*
X216117Y214689D01*
X216012Y214823D01*
X215899Y214977D01*
X215787Y215153D01*
X215681Y215343D01*
X215583Y215554D01*
X215491Y215786D01*
X215421Y216033D01*
X215358Y216293D01*
X215322Y216574D01*
X215308Y216870D01*
Y216926D01*
X215315Y216997D01*
X215322Y217088D01*
X215329Y217201D01*
X215351Y217334D01*
X215372Y217482D01*
X215400Y217637D01*
X215442Y217806D01*
X215491Y217982D01*
X215548Y218165D01*
X215618Y218347D01*
X215702Y218523D01*
X215801Y218706D01*
X215921Y218875D01*
X216047Y219037D01*
X216054Y219044D01*
X216082Y219072D01*
X216125Y219114D01*
X216181Y219171D01*
X216258Y219234D01*
X216350Y219311D01*
X216455Y219389D01*
X216575Y219473D01*
X216709Y219558D01*
X216856Y219635D01*
X217018Y219719D01*
X217194Y219797D01*
X217384Y219860D01*
X217588Y219916D01*
X217799Y219966D01*
X218024Y219994D01*
X218130Y218741D01*
D02*
G37*
%LPC*%
G36*
X447184Y214285D02*
X446966D01*
X446959D01*
X446938D01*
X446910D01*
X446861D01*
X446804D01*
X446741Y214278D01*
X446664D01*
X446579D01*
X446488Y214271D01*
X446389D01*
X446164Y214257D01*
X445925Y214236D01*
X445672Y214215D01*
X445404Y214187D01*
X445137Y214152D01*
X444869Y214102D01*
X444609Y214053D01*
X444363Y213990D01*
X444145Y213913D01*
X444039Y213870D01*
X443948Y213828D01*
X443856Y213779D01*
X443779Y213730D01*
X443772Y213723D01*
X443744Y213701D01*
X443709Y213673D01*
X443659Y213631D01*
X443596Y213575D01*
X443533Y213504D01*
X443455Y213434D01*
X443385Y213343D01*
X443315Y213251D01*
X443237Y213146D01*
X443174Y213033D01*
X443118Y212906D01*
X443061Y212780D01*
X443026Y212639D01*
X442998Y212491D01*
X442991Y212344D01*
Y212308D01*
X442998Y212266D01*
X443005Y212210D01*
X443012Y212139D01*
X443033Y212055D01*
X443054Y211964D01*
X443089Y211865D01*
X443132Y211760D01*
X443181Y211647D01*
X443244Y211534D01*
X443322Y211415D01*
X443413Y211302D01*
X443519Y211183D01*
X443638Y211070D01*
X443779Y210965D01*
X443786Y210958D01*
X443821Y210943D01*
X443870Y210915D01*
X443941Y210873D01*
X444039Y210831D01*
X444159Y210789D01*
X444300Y210732D01*
X444476Y210683D01*
X444574Y210655D01*
X444679Y210634D01*
X444785Y210606D01*
X444905Y210578D01*
X445031Y210556D01*
X445165Y210535D01*
X445306Y210507D01*
X445461Y210486D01*
X445615Y210472D01*
X445784Y210451D01*
X445960Y210437D01*
X446143Y210423D01*
X446333Y210416D01*
X446537Y210409D01*
X446748Y210402D01*
X446966D01*
X446973D01*
X446994D01*
X447029D01*
X447072D01*
X447128D01*
X447191D01*
X447269Y210409D01*
X447353D01*
X447445Y210416D01*
X447550D01*
X447768Y210430D01*
X448007Y210451D01*
X448268Y210472D01*
X448528Y210500D01*
X448795Y210535D01*
X449063Y210585D01*
X449323Y210641D01*
X449569Y210704D01*
X449787Y210782D01*
X449893Y210824D01*
X449985Y210866D01*
X450076Y210915D01*
X450153Y210965D01*
X450160Y210972D01*
X450188Y210993D01*
X450224Y211021D01*
X450280Y211063D01*
X450336Y211119D01*
X450407Y211183D01*
X450477Y211260D01*
X450554Y211345D01*
X450625Y211443D01*
X450695Y211549D01*
X450765Y211661D01*
X450822Y211788D01*
X450878Y211921D01*
X450913Y212055D01*
X450941Y212203D01*
X450948Y212358D01*
Y212393D01*
X450941Y212435D01*
X450934Y212491D01*
X450927Y212562D01*
X450913Y212646D01*
X450892Y212731D01*
X450864Y212829D01*
X450822Y212934D01*
X450779Y213040D01*
X450723Y213153D01*
X450653Y213258D01*
X450575Y213371D01*
X450484Y213476D01*
X450372Y213575D01*
X450252Y213673D01*
X450245Y213680D01*
X450210Y213701D01*
X450153Y213730D01*
X450076Y213772D01*
X449970Y213814D01*
X449844Y213863D01*
X449689Y213920D01*
X449506Y213976D01*
X449408Y214011D01*
X449295Y214039D01*
X449182Y214067D01*
X449056Y214088D01*
X448929Y214117D01*
X448788Y214145D01*
X448641Y214166D01*
X448486Y214187D01*
X448324Y214208D01*
X448155Y214229D01*
X447979Y214243D01*
X447796Y214257D01*
X447599Y214271D01*
X447395Y214278D01*
X447184Y214285D01*
D02*
G37*
G36*
X112791Y409045D02*
X112727D01*
X112678Y409038D01*
X112622Y409031D01*
X112551Y409024D01*
X112474Y409010D01*
X112397Y408989D01*
X112214Y408940D01*
X112122Y408905D01*
X112024Y408856D01*
X111932Y408806D01*
X111834Y408750D01*
X111742Y408680D01*
X111658Y408602D01*
X111651Y408595D01*
X111637Y408581D01*
X111616Y408560D01*
X111587Y408525D01*
X111552Y408483D01*
X111517Y408433D01*
X111475Y408377D01*
X111440Y408307D01*
X111397Y408236D01*
X111355Y408159D01*
X111285Y407976D01*
X111257Y407884D01*
X111236Y407779D01*
X111222Y407673D01*
X111215Y407561D01*
Y407554D01*
Y407533D01*
Y407498D01*
X111222Y407448D01*
X111229Y407385D01*
X111236Y407322D01*
X111250Y407244D01*
X111271Y407160D01*
X111320Y406984D01*
X111355Y406893D01*
X111397Y406794D01*
X111447Y406702D01*
X111510Y406611D01*
X111573Y406520D01*
X111651Y406435D01*
X111658Y406428D01*
X111672Y406414D01*
X111700Y406393D01*
X111728Y406365D01*
X111777Y406337D01*
X111827Y406294D01*
X111890Y406259D01*
X111960Y406217D01*
X112038Y406175D01*
X112129Y406140D01*
X112221Y406097D01*
X112326Y406069D01*
X112432Y406041D01*
X112551Y406020D01*
X112678Y406006D01*
X112805Y405999D01*
X112868D01*
X112917Y406006D01*
X112981Y406013D01*
X113044Y406020D01*
X113121Y406034D01*
X113206Y406055D01*
X113382Y406105D01*
X113473Y406140D01*
X113572Y406182D01*
X113663Y406231D01*
X113755Y406287D01*
X113846Y406351D01*
X113930Y406428D01*
X113938Y406435D01*
X113952Y406449D01*
X113973Y406470D01*
X114001Y406506D01*
X114036Y406548D01*
X114071Y406597D01*
X114113Y406660D01*
X114156Y406724D01*
X114191Y406801D01*
X114233Y406878D01*
X114303Y407061D01*
X114332Y407160D01*
X114353Y407265D01*
X114367Y407378D01*
X114374Y407491D01*
Y407498D01*
Y407519D01*
Y407554D01*
X114367Y407603D01*
X114360Y407659D01*
X114353Y407723D01*
X114339Y407793D01*
X114317Y407878D01*
X114261Y408046D01*
X114226Y408138D01*
X114184Y408236D01*
X114127Y408328D01*
X114064Y408419D01*
X113994Y408511D01*
X113916Y408595D01*
X113909Y408602D01*
X113895Y408616D01*
X113867Y408637D01*
X113839Y408666D01*
X113790Y408701D01*
X113741Y408736D01*
X113677Y408778D01*
X113607Y408820D01*
X113529Y408862D01*
X113445Y408905D01*
X113354Y408940D01*
X113255Y408975D01*
X113142Y409003D01*
X113030Y409024D01*
X112917Y409038D01*
X112791Y409045D01*
D02*
G37*
G36*
X112762Y405021D02*
X112678D01*
X112622Y405014D01*
X112551Y405007D01*
X112467Y404993D01*
X112375Y404972D01*
X112270Y404951D01*
X112164Y404922D01*
X112052Y404887D01*
X111939Y404838D01*
X111820Y404782D01*
X111700Y404718D01*
X111587Y404641D01*
X111475Y404557D01*
X111369Y404458D01*
X111362Y404451D01*
X111348Y404430D01*
X111320Y404402D01*
X111285Y404360D01*
X111243Y404303D01*
X111194Y404240D01*
X111144Y404163D01*
X111095Y404078D01*
X111046Y403980D01*
X110997Y403874D01*
X110947Y403761D01*
X110905Y403635D01*
X110870Y403501D01*
X110842Y403368D01*
X110828Y403220D01*
X110821Y403065D01*
Y403058D01*
Y403044D01*
Y403016D01*
X110828Y402981D01*
Y402931D01*
X110835Y402882D01*
X110842Y402819D01*
X110849Y402755D01*
X110877Y402601D01*
X110919Y402439D01*
X110982Y402263D01*
X111060Y402080D01*
Y402073D01*
X111074Y402059D01*
X111088Y402038D01*
X111102Y402003D01*
X111130Y401960D01*
X111158Y401918D01*
X111243Y401806D01*
X111341Y401693D01*
X111461Y401566D01*
X111609Y401447D01*
X111777Y401341D01*
X111784D01*
X111799Y401327D01*
X111827Y401320D01*
X111862Y401299D01*
X111904Y401278D01*
X111960Y401257D01*
X112017Y401236D01*
X112087Y401215D01*
X112242Y401165D01*
X112411Y401123D01*
X112601Y401095D01*
X112805Y401081D01*
X112840D01*
X112889Y401088D01*
X112945D01*
X113023Y401095D01*
X113107Y401109D01*
X113199Y401130D01*
X113304Y401151D01*
X113410Y401179D01*
X113529Y401215D01*
X113642Y401257D01*
X113762Y401313D01*
X113881Y401376D01*
X114001Y401447D01*
X114113Y401531D01*
X114219Y401630D01*
X114226Y401637D01*
X114240Y401658D01*
X114268Y401686D01*
X114303Y401728D01*
X114346Y401785D01*
X114395Y401848D01*
X114444Y401925D01*
X114500Y402010D01*
X114550Y402108D01*
X114599Y402214D01*
X114648Y402326D01*
X114690Y402453D01*
X114726Y402587D01*
X114754Y402727D01*
X114768Y402875D01*
X114775Y403030D01*
Y403037D01*
Y403065D01*
X114768Y403114D01*
Y403171D01*
X114761Y403248D01*
X114747Y403332D01*
X114726Y403424D01*
X114704Y403529D01*
X114669Y403642D01*
X114634Y403755D01*
X114585Y403874D01*
X114529Y403994D01*
X114465Y404113D01*
X114388Y404226D01*
X114296Y404346D01*
X114198Y404451D01*
X114191Y404458D01*
X114170Y404479D01*
X114142Y404507D01*
X114092Y404543D01*
X114036Y404585D01*
X113973Y404634D01*
X113895Y404683D01*
X113804Y404739D01*
X113705Y404789D01*
X113600Y404838D01*
X113480Y404887D01*
X113354Y404930D01*
X113220Y404972D01*
X113072Y405000D01*
X112924Y405014D01*
X112762Y405021D01*
D02*
G37*
%LPD*%
D10*
X395050Y83497D02*
G03*
X395050Y83497I-1250J0D01*
G01*
X538560Y83697D02*
G03*
X538560Y83697I-1250J0D01*
G01*
X250640Y657567D02*
G03*
X250640Y657567I-1250J0D01*
G01*
D11*
X466064Y245210D02*
G03*
X466064Y245210I-1414J0D01*
G01*
D12*
X781050Y718820D02*
G03*
X781050Y718820I-3810J0D01*
G01*
D13*
X748170Y29210D02*
G03*
X748170Y29210I-16650J0D01*
G01*
X696100Y737870D02*
G03*
X696100Y737870I-16650J0D01*
G01*
X630060D02*
G03*
X630060Y737870I-16650J0D01*
G01*
X682130Y29210D02*
G03*
X682130Y29210I-16650J0D01*
G01*
D14*
X384300Y77497D02*
X403300D01*
X356843Y31040D02*
Y50040D01*
X384300Y3583D02*
X403300D01*
X430757Y31040D02*
Y50040D01*
X527810Y77697D02*
X546810D01*
X500353Y31240D02*
Y50240D01*
X527810Y3783D02*
X546810D01*
X574267Y31240D02*
Y50240D01*
X149890Y664070D02*
Y779070D01*
Y664070D02*
X273890D01*
X273860D02*
X273890D01*
Y779070D01*
X149890D02*
X273890D01*
X433950Y215020D02*
Y232020D01*
X416950Y215020D02*
Y232020D01*
X100720Y393310D02*
X117720D01*
X100720Y376310D02*
X117720D01*
X187080Y213750D02*
Y230750D01*
X204080Y213750D02*
Y230750D01*
D15*
X133150Y569210D02*
X590150D01*
Y251210D02*
Y569210D01*
X133150Y251210D02*
Y569210D01*
Y251210D02*
X590150D01*
D16*
X745044Y125730D02*
Y712470D01*
Y125730D02*
X834960D01*
Y712470D01*
X745044D02*
X834960D01*
D17*
X54610Y165510D02*
Y133770D01*
X70480D01*
X75770Y139060D01*
Y144350D01*
X70480Y149640D01*
X54610D01*
X70480D01*
X75770Y154930D01*
Y160220D01*
X70480Y165510D01*
X54610D01*
X86350Y133770D02*
Y165510D01*
X102220D01*
X107510Y160220D01*
Y149640D01*
X102220Y144350D01*
X86350D01*
X96930D02*
X107510Y133770D01*
X139249Y160220D02*
X133959Y165510D01*
X123379D01*
X118090Y160220D01*
Y139060D01*
X123379Y133770D01*
X133959D01*
X139249Y139060D01*
Y149640D01*
X128669D01*
X149829Y165510D02*
X170989D01*
X160409D01*
Y133770D01*
X202729Y160220D02*
X197439Y165510D01*
X186859D01*
X181569Y160220D01*
Y139060D01*
X186859Y133770D01*
X197439D01*
X202729Y139060D01*
X234468Y165510D02*
X223889Y160220D01*
X213309Y149640D01*
Y139060D01*
X218599Y133770D01*
X229179D01*
X234468Y139060D01*
Y144350D01*
X229179Y149640D01*
X213309D01*
X297948Y160220D02*
X292658Y165510D01*
X282078D01*
X276788Y160220D01*
Y154930D01*
X282078Y149640D01*
X292658D01*
X297948Y144350D01*
Y139060D01*
X292658Y133770D01*
X282078D01*
X276788Y139060D01*
X308528Y133770D02*
X319108D01*
X313818D01*
Y154930D01*
X308528D01*
X334978Y133770D02*
Y154930D01*
X350848D01*
X356138Y149640D01*
Y133770D01*
X377297Y123190D02*
X382587D01*
X387877Y128480D01*
Y154930D01*
X372007D01*
X366717Y149640D01*
Y139060D01*
X372007Y133770D01*
X387877D01*
X398457D02*
X409037D01*
X403747D01*
Y165510D01*
X398457D01*
X440777Y133770D02*
X430197D01*
X424907Y139060D01*
Y149640D01*
X430197Y154930D01*
X440777D01*
X446067Y149640D01*
Y144350D01*
X424907D01*
X456647Y149640D02*
X477807D01*
X509546Y160220D02*
X504256Y165510D01*
X493676D01*
X488386Y160220D01*
Y139060D01*
X493676Y133770D01*
X504256D01*
X509546Y139060D01*
X520126Y165510D02*
Y133770D01*
Y149640D01*
X525416Y154930D01*
X535996D01*
X541286Y149640D01*
Y133770D01*
X551866D02*
X562446D01*
X557156D01*
Y154930D01*
X551866D01*
X578316Y123190D02*
Y154930D01*
X594186D01*
X599476Y149640D01*
Y139060D01*
X594186Y133770D01*
X578316D01*
X613412Y598170D02*
Y608327D01*
X608334Y603248D02*
X618491D01*
X605795Y613405D02*
X615952D01*
X621030Y618484D01*
X615952Y623562D01*
X605795D01*
Y628640D02*
Y633718D01*
Y631179D01*
X621030D01*
Y628640D01*
Y633718D01*
X605795Y648954D02*
Y643875D01*
X608334Y641336D01*
X618491D01*
X621030Y643875D01*
Y648954D01*
X618491Y651493D01*
X608334D01*
X605795Y648954D01*
X621030Y656571D02*
X610873Y666728D01*
X608334Y681963D02*
X605795Y679424D01*
Y674345D01*
X608334Y671806D01*
X618491D01*
X621030Y674345D01*
Y679424D01*
X618491Y681963D01*
X605795Y687041D02*
X621030D01*
Y697198D01*
X605795Y702276D02*
X621030D01*
X615952D01*
X605795Y712433D01*
X613412Y704816D01*
X621030Y712433D01*
X585474Y15237D02*
X582935Y12698D01*
Y7619D01*
X585474Y5080D01*
X595631D01*
X598170Y7619D01*
Y12698D01*
X595631Y15237D01*
X582935Y20315D02*
X598170D01*
Y30472D01*
X582935Y35550D02*
X598170D01*
X593092D01*
X582935Y45707D01*
X590552Y38089D01*
X598170Y45707D01*
X54192Y254000D02*
X66888D01*
Y260348D01*
X64772Y262464D01*
X56308D01*
X54192Y260348D01*
Y254000D01*
X66888Y273044D02*
Y268812D01*
X64772Y266696D01*
X60540D01*
X58424Y268812D01*
Y273044D01*
X60540Y275160D01*
X62656D01*
Y266696D01*
X66888Y279392D02*
Y285740D01*
X64772Y287856D01*
X62656Y285740D01*
Y281508D01*
X60540Y279392D01*
X58424Y281508D01*
Y287856D01*
X66888Y292088D02*
Y296320D01*
Y294204D01*
X58424D01*
Y292088D01*
X71120Y306900D02*
Y309016D01*
X69004Y311131D01*
X58424D01*
Y304783D01*
X60540Y302668D01*
X64772D01*
X66888Y304783D01*
Y311131D01*
Y315364D02*
X58424D01*
Y321711D01*
X60540Y323827D01*
X66888D01*
Y334407D02*
Y330175D01*
X64772Y328059D01*
X60540D01*
X58424Y330175D01*
Y334407D01*
X60540Y336523D01*
X62656D01*
Y328059D01*
X54192Y349219D02*
X66888D01*
Y342871D01*
X64772Y340755D01*
X60540D01*
X58424Y342871D01*
Y349219D01*
X54192Y366147D02*
X66888D01*
Y372495D01*
X64772Y374611D01*
X62656D01*
X60540D01*
X58424Y372495D01*
Y366147D01*
Y378843D02*
X64772D01*
X66888Y380959D01*
Y387307D01*
X69004D01*
X71120Y385191D01*
Y383075D01*
X66888Y387307D02*
X58424D01*
X66888Y404235D02*
X54192D01*
Y410583D01*
X56308Y412699D01*
X60540D01*
X62656Y410583D01*
Y404235D01*
X58424Y419047D02*
Y423279D01*
X60540Y425395D01*
X66888D01*
Y419047D01*
X64772Y416931D01*
X62656Y419047D01*
Y425395D01*
X58424Y429626D02*
X66888D01*
X62656D01*
X60540Y431742D01*
X58424Y433858D01*
Y435974D01*
X66888Y442322D02*
X54192D01*
X62656D02*
X58424Y448670D01*
X62656Y442322D02*
X66888Y448670D01*
Y461366D02*
Y457134D01*
X64772Y455018D01*
X60540D01*
X58424Y457134D01*
Y461366D01*
X60540Y463482D01*
X62656D01*
Y455018D01*
X58424Y467714D02*
X66888D01*
X62656D01*
X60540Y469830D01*
X58424Y471946D01*
Y474062D01*
X56308Y501570D02*
X54192Y499454D01*
Y495222D01*
X56308Y493106D01*
X58424D01*
X60540Y495222D01*
Y499454D01*
X62656Y501570D01*
X64772D01*
X66888Y499454D01*
Y495222D01*
X64772Y493106D01*
X58424Y514266D02*
Y507918D01*
X60540Y505802D01*
X64772D01*
X66888Y507918D01*
Y514266D01*
X54192Y518498D02*
X66888D01*
X60540D01*
X58424Y520614D01*
Y524846D01*
X60540Y526962D01*
X66888D01*
Y531194D02*
Y535425D01*
Y533310D01*
X54192D01*
Y531194D01*
X66888Y548121D02*
Y543889D01*
X64772Y541773D01*
X60540D01*
X58424Y543889D01*
Y548121D01*
X60540Y550237D01*
X62656D01*
Y541773D01*
X66888Y554469D02*
Y560817D01*
X64772Y562933D01*
X62656Y560817D01*
Y556585D01*
X60540Y554469D01*
X58424Y556585D01*
Y562933D01*
X66888Y567165D02*
Y573513D01*
X64772Y575629D01*
X62656Y573513D01*
Y569281D01*
X60540Y567165D01*
X58424Y569281D01*
Y575629D01*
X60540Y592557D02*
Y601021D01*
X66888Y626413D02*
Y617949D01*
X58424Y626413D01*
X56308D01*
X54192Y624297D01*
Y620065D01*
X56308Y617949D01*
Y630645D02*
X54192Y632761D01*
Y636993D01*
X56308Y639109D01*
X64772D01*
X66888Y636993D01*
Y632761D01*
X64772Y630645D01*
X56308D01*
X66888Y651804D02*
Y643341D01*
X58424Y651804D01*
X56308D01*
X54192Y649688D01*
Y645456D01*
X56308Y643341D01*
X54192Y664500D02*
Y656036D01*
X60540D01*
X58424Y660268D01*
Y662384D01*
X60540Y664500D01*
X64772D01*
X66888Y662384D01*
Y658152D01*
X64772Y656036D01*
X295907Y767076D02*
X293368Y769615D01*
X288289D01*
X285750Y767076D01*
Y764537D01*
X288289Y761998D01*
X293368D01*
X295907Y759458D01*
Y756919D01*
X293368Y754380D01*
X288289D01*
X285750Y756919D01*
X300985Y754380D02*
Y769615D01*
X308603D01*
X311142Y767076D01*
Y761998D01*
X308603Y759458D01*
X300985D01*
X316220Y769615D02*
X321298D01*
X318759D01*
Y754380D01*
X316220D01*
X321298D01*
X344151Y767076D02*
X346690Y769615D01*
X351769D01*
X354308Y767076D01*
Y756919D01*
X351769Y754380D01*
X346690D01*
X344151Y756919D01*
Y767076D01*
X439176Y13973D02*
X436637Y11434D01*
Y6356D01*
X439176Y3817D01*
X449333D01*
X451872Y6356D01*
Y11434D01*
X449333Y13973D01*
X436637Y19052D02*
X451872D01*
Y29208D01*
X436637Y34287D02*
X451872D01*
X446794D01*
X436637Y44443D01*
X444254Y36826D01*
X451872Y44443D01*
X461015Y3817D02*
X476250D01*
Y11434D01*
X473711Y13973D01*
X463554D01*
X461015Y11434D01*
Y3817D01*
Y19052D02*
X476250D01*
Y26669D01*
X473711Y29208D01*
X471172D01*
X468633Y26669D01*
Y19052D01*
Y26669D01*
X466093Y29208D01*
X463554D01*
X461015Y26669D01*
Y19052D01*
X463554Y44443D02*
X461015Y41904D01*
Y36826D01*
X463554Y34287D01*
X473711D01*
X476250Y36826D01*
Y41904D01*
X473711Y44443D01*
X468633D01*
Y39365D01*
X674374Y681987D02*
X671835Y679448D01*
Y674369D01*
X674374Y671830D01*
X684531D01*
X687070Y674369D01*
Y679448D01*
X684531Y681987D01*
X679452D01*
Y676908D01*
X687070Y687065D02*
X671835D01*
X687070Y697222D01*
X671835D01*
Y702300D02*
X687070D01*
Y709918D01*
X684531Y712457D01*
X674374D01*
X671835Y709918D01*
Y702300D01*
X665482Y57150D02*
Y67307D01*
X660404Y62228D02*
X670561D01*
X657865Y72385D02*
X668021D01*
X673100Y77464D01*
X668021Y82542D01*
X657865D01*
X660404Y97777D02*
X657865Y95238D01*
Y90160D01*
X660404Y87620D01*
X670561D01*
X673100Y90160D01*
Y95238D01*
X670561Y97777D01*
X657865Y110473D02*
Y105395D01*
X660404Y102855D01*
X670561D01*
X673100Y105395D01*
Y110473D01*
X670561Y113012D01*
X660404D01*
X657865Y110473D01*
X673100Y118090D02*
X657865D01*
Y125708D01*
X660404Y128247D01*
X665482D01*
X668021Y125708D01*
Y118090D01*
Y123169D02*
X673100Y128247D01*
X657865Y143482D02*
Y133326D01*
X673100D01*
Y143482D01*
X665482Y133326D02*
Y138404D01*
X726444Y68577D02*
X723905Y66038D01*
Y60959D01*
X726444Y58420D01*
X736601D01*
X739140Y60959D01*
Y66038D01*
X736601Y68577D01*
X731522D01*
Y63498D01*
X739140Y73655D02*
X723905D01*
X739140Y83812D01*
X723905D01*
Y88890D02*
X739140D01*
Y96508D01*
X736601Y99047D01*
X726444D01*
X723905Y96508D01*
Y88890D01*
M02*
