G04*
G04 #@! TF.GenerationSoftware,Altium Limited,Altium Designer,25.4.2 (15)*
G04*
G04 Layer_Color=16711935*
%FSLAX44Y44*%
%MOMM*%
G71*
G04*
G04 #@! TF.SameCoordinates,3376916D-7717-44A7-936A-FC15E23AF39E*
G04*
G04*
G04 #@! TF.FilePolarity,Positive*
G04*
G01*
G75*
%ADD12C,0.5080*%
%ADD13C,0.1500*%
%ADD14C,0.2000*%
%ADD15C,0.1270*%
%ADD38C,0.1000*%
%ADD39C,0.0254*%
D12*
X762000Y660400D02*
G03*
X762000Y660400I-3810J0D01*
G01*
D13*
X748170Y29210D02*
G03*
X748170Y29210I-16650J0D01*
G01*
X696100Y737870D02*
G03*
X696100Y737870I-16650J0D01*
G01*
X630060D02*
G03*
X630060Y737870I-16650J0D01*
G01*
X682130Y29210D02*
G03*
X682130Y29210I-16650J0D01*
G01*
D14*
X356843Y77497D02*
X430757D01*
X356843Y3583D02*
Y77497D01*
Y3583D02*
X430757D01*
Y77497D01*
X500353Y77697D02*
X574267D01*
X500353Y3783D02*
Y77697D01*
Y3783D02*
X574267D01*
Y77697D01*
X429950Y215020D02*
Y232020D01*
X420950Y215020D02*
X429950D01*
X420950D02*
Y232020D01*
X429950D01*
X117720Y380310D02*
Y389310D01*
X100720D02*
X117720D01*
X100720Y380310D02*
Y389310D01*
Y380310D02*
X117720D01*
X191080Y230750D02*
X200080D01*
X191080Y213750D02*
Y230750D01*
Y213750D02*
X200080D01*
Y230750D01*
D15*
X507650Y569210D02*
G03*
X502650Y574210I-5000J0D01*
G01*
X544650Y595210D02*
G03*
X517650Y622210I-27000J0D01*
G01*
X346726Y622207D02*
G03*
X347564Y574204I-839J-24024D01*
G01*
X544650Y569210D02*
Y595210D01*
X347650Y574210D02*
X502650D01*
X346650Y622210D02*
X517650D01*
X590150Y251210D02*
Y569210D01*
X544650D02*
X590150D01*
X507650D02*
X544650D01*
X133150D02*
X507650D01*
X133150Y251210D02*
Y569210D01*
Y251210D02*
X590150D01*
D38*
X273890Y664070D02*
Y779070D01*
X149890Y664070D02*
X273890D01*
X149890D02*
Y779070D01*
X273890D01*
D39*
X746314Y127000D02*
Y711200D01*
Y127000D02*
X833690D01*
Y711200D01*
X746314D02*
X833690D01*
M02*
