G04*
G04 #@! TF.GenerationSoftware,Altium Limited,Altium Designer,25.4.2 (15)*
G04*
G04 Layer_Color=12632256*
%FSLAX44Y44*%
%MOMM*%
G71*
G04*
G04 #@! TF.SameCoordinates,3376916D-7717-44A7-936A-FC15E23AF39E*
G04*
G04*
G04 #@! TF.FilePolarity,Positive*
G04*
G01*
G75*
%ADD20C,2.4500*%
%ADD21R,2.3000X2.3000*%
%ADD29C,1.4080*%
%ADD30C,1.7800*%
%ADD31R,1.4080X1.4080*%
%ADD32C,1.4000*%
%ADD33R,1.4000X1.4000*%
%ADD35C,6.0000*%
%ADD37C,1.5240*%
D20*
X368300Y15040D02*
D03*
Y66040D02*
D03*
X419300Y15040D02*
D03*
Y66040D02*
D03*
X511810Y15240D02*
D03*
Y66240D02*
D03*
X562810Y15240D02*
D03*
Y66240D02*
D03*
X731520Y29210D02*
D03*
X679450Y737870D02*
D03*
X613410D02*
D03*
X665480Y29210D02*
D03*
D21*
X393800Y40540D02*
D03*
X537310Y40740D02*
D03*
D29*
X413350Y435610D02*
D03*
Y410210D02*
D03*
Y384810D02*
D03*
X210150Y537210D02*
D03*
X235550D02*
D03*
X260950D02*
D03*
X286350D02*
D03*
X311750D02*
D03*
X337150D02*
D03*
X362550D02*
D03*
X387950D02*
D03*
X413350D02*
D03*
X438750D02*
D03*
X210150Y511810D02*
D03*
X235550D02*
D03*
X260950D02*
D03*
X286350D02*
D03*
X311750D02*
D03*
X337150D02*
D03*
X362550D02*
D03*
X387950D02*
D03*
X413350D02*
D03*
X438750D02*
D03*
X210150Y486410D02*
D03*
X235550D02*
D03*
X311750D02*
D03*
X337150D02*
D03*
X362550D02*
D03*
X438750D02*
D03*
X210150Y461010D02*
D03*
X235550D02*
D03*
X438750D02*
D03*
X210150Y435610D02*
D03*
X235550D02*
D03*
X260950D02*
D03*
X438750D02*
D03*
X210150Y410210D02*
D03*
X235550D02*
D03*
X260950D02*
D03*
X438750D02*
D03*
X210150Y384810D02*
D03*
X235550D02*
D03*
X260950D02*
D03*
X438750D02*
D03*
X210150Y359410D02*
D03*
X235550D02*
D03*
X438750D02*
D03*
X210150Y334010D02*
D03*
X235550D02*
D03*
X311750D02*
D03*
X337150D02*
D03*
X362550D02*
D03*
X438750D02*
D03*
X210150Y308610D02*
D03*
X235550D02*
D03*
X260950D02*
D03*
X286350D02*
D03*
X311750D02*
D03*
X337150D02*
D03*
X362550D02*
D03*
X387950D02*
D03*
X413350D02*
D03*
X438750D02*
D03*
X464150Y537210D02*
D03*
Y511810D02*
D03*
Y486410D02*
D03*
Y461010D02*
D03*
Y435610D02*
D03*
Y410210D02*
D03*
Y384810D02*
D03*
Y359410D02*
D03*
Y334010D02*
D03*
Y308610D02*
D03*
X210150Y283210D02*
D03*
X235550D02*
D03*
X260950D02*
D03*
X286350D02*
D03*
X311750D02*
D03*
X438750D02*
D03*
X413350D02*
D03*
X387950D02*
D03*
X362550D02*
D03*
X337150D02*
D03*
D30*
X159150Y537210D02*
D03*
Y283210D02*
D03*
X565150Y537210D02*
D03*
Y283210D02*
D03*
D31*
X464150D02*
D03*
D32*
X174390Y687070D02*
D03*
X224390D02*
D03*
X199390D02*
D03*
D33*
X249390D02*
D03*
D35*
X33020Y749300D02*
D03*
X31750Y31750D02*
D03*
X811530Y33020D02*
D03*
Y750570D02*
D03*
D37*
X777240Y660400D02*
D03*
X802640D02*
D03*
X777240Y635000D02*
D03*
X802640D02*
D03*
X777240Y609600D02*
D03*
X802640D02*
D03*
X777240Y584200D02*
D03*
X802640D02*
D03*
X777240Y558800D02*
D03*
X802640D02*
D03*
X777240Y533400D02*
D03*
X802640D02*
D03*
X777240Y508000D02*
D03*
X802640D02*
D03*
X777240Y482600D02*
D03*
X802640D02*
D03*
X777240Y457200D02*
D03*
X802640D02*
D03*
X777240Y431800D02*
D03*
X802640D02*
D03*
X777240Y406400D02*
D03*
X802640D02*
D03*
X777240Y381000D02*
D03*
X802640D02*
D03*
X777240Y355600D02*
D03*
X802640D02*
D03*
X777240Y330200D02*
D03*
X802640D02*
D03*
X777240Y304800D02*
D03*
X802640D02*
D03*
X777240Y279400D02*
D03*
X802640D02*
D03*
X777240Y254000D02*
D03*
X802640D02*
D03*
X777240Y228600D02*
D03*
X802640D02*
D03*
X777240Y203200D02*
D03*
X802640D02*
D03*
X777240Y177800D02*
D03*
X802640D02*
D03*
M02*
