G04*
G04 #@! TF.GenerationSoftware,Altium Limited,Altium Designer,25.4.2 (15)*
G04*
G04 Layer_Color=32896*
%FSLAX44Y44*%
%MOMM*%
G71*
G04*
G04 #@! TF.SameCoordinates,3376916D-7717-44A7-936A-FC15E23AF39E*
G04*
G04*
G04 #@! TF.FilePolarity,Positive*
G04*
G01*
G75*
%ADD12C,0.5080*%
%ADD14C,0.2000*%
G36*
X325729Y415237D02*
X325996Y415209D01*
X326249Y415167D01*
X326496Y415117D01*
X326721Y415054D01*
X326932Y414984D01*
X327129Y414906D01*
X327305Y414829D01*
X327467Y414752D01*
X327607Y414674D01*
X327734Y414604D01*
X327832Y414540D01*
X327917Y414491D01*
X327973Y414449D01*
X328008Y414421D01*
X328022Y414414D01*
X328212Y414245D01*
X328388Y414069D01*
X328550Y413879D01*
X328698Y413682D01*
X328831Y413478D01*
X328951Y413281D01*
X329057Y413084D01*
X329148Y412887D01*
X329232Y412704D01*
X329303Y412535D01*
X329359Y412388D01*
X329408Y412254D01*
X329444Y412148D01*
X329458Y412099D01*
X329465Y412064D01*
X329472Y412036D01*
X329479Y412015D01*
X329486Y412001D01*
Y411994D01*
X328198Y411670D01*
X328142Y411895D01*
X328079Y412099D01*
X328008Y412296D01*
X327924Y412472D01*
X327846Y412641D01*
X327755Y412796D01*
X327671Y412929D01*
X327586Y413056D01*
X327509Y413162D01*
X327431Y413260D01*
X327361Y413337D01*
X327298Y413401D01*
X327248Y413457D01*
X327213Y413492D01*
X327185Y413513D01*
X327178Y413520D01*
X327030Y413626D01*
X326883Y413724D01*
X326728Y413809D01*
X326573Y413879D01*
X326418Y413935D01*
X326263Y413985D01*
X326116Y414027D01*
X325975Y414062D01*
X325848Y414090D01*
X325722Y414104D01*
X325616Y414118D01*
X325525Y414132D01*
X325447D01*
X325391Y414140D01*
X325342D01*
X325180Y414132D01*
X325018Y414118D01*
X324863Y414097D01*
X324709Y414069D01*
X324568Y414034D01*
X324427Y413992D01*
X324300Y413957D01*
X324181Y413907D01*
X324075Y413865D01*
X323977Y413830D01*
X323892Y413788D01*
X323822Y413753D01*
X323766Y413724D01*
X323723Y413703D01*
X323695Y413689D01*
X323688Y413682D01*
X323548Y413591D01*
X323421Y413492D01*
X323301Y413387D01*
X323189Y413274D01*
X323090Y413162D01*
X322999Y413042D01*
X322914Y412929D01*
X322837Y412824D01*
X322774Y412718D01*
X322717Y412620D01*
X322668Y412528D01*
X322633Y412451D01*
X322598Y412388D01*
X322577Y412345D01*
X322570Y412310D01*
X322563Y412303D01*
X322499Y412127D01*
X322443Y411944D01*
X322394Y411761D01*
X322359Y411571D01*
X322288Y411213D01*
X322267Y411037D01*
X322246Y410868D01*
X322232Y410720D01*
X322225Y410579D01*
X322218Y410453D01*
X322211Y410347D01*
X322204Y410256D01*
Y410192D01*
Y410150D01*
Y410136D01*
X322211Y409953D01*
X322218Y409777D01*
X322253Y409440D01*
X322274Y409278D01*
X322302Y409123D01*
X322330Y408975D01*
X322359Y408842D01*
X322387Y408715D01*
X322408Y408602D01*
X322436Y408504D01*
X322457Y408419D01*
X322478Y408356D01*
X322492Y408307D01*
X322506Y408272D01*
Y408265D01*
X322570Y408096D01*
X322640Y407941D01*
X322717Y407793D01*
X322802Y407659D01*
X322886Y407526D01*
X322971Y407406D01*
X323062Y407301D01*
X323147Y407202D01*
X323231Y407118D01*
X323308Y407040D01*
X323379Y406977D01*
X323442Y406921D01*
X323491Y406879D01*
X323526Y406843D01*
X323555Y406829D01*
X323562Y406822D01*
X323709Y406724D01*
X323864Y406646D01*
X324019Y406569D01*
X324174Y406506D01*
X324336Y406456D01*
X324490Y406414D01*
X324638Y406379D01*
X324786Y406351D01*
X324920Y406323D01*
X325046Y406309D01*
X325159Y406295D01*
X325257Y406287D01*
X325335Y406281D01*
X325440D01*
X325623Y406287D01*
X325792Y406302D01*
X325954Y406323D01*
X326109Y406358D01*
X326249Y406393D01*
X326383Y406435D01*
X326503Y406478D01*
X326615Y406520D01*
X326714Y406569D01*
X326805Y406611D01*
X326883Y406653D01*
X326946Y406689D01*
X326995Y406724D01*
X327030Y406745D01*
X327051Y406759D01*
X327058Y406766D01*
X327178Y406865D01*
X327291Y406970D01*
X327389Y407090D01*
X327488Y407209D01*
X327579Y407343D01*
X327657Y407469D01*
X327734Y407596D01*
X327797Y407723D01*
X327854Y407842D01*
X327910Y407955D01*
X327952Y408054D01*
X327987Y408138D01*
X328015Y408215D01*
X328036Y408265D01*
X328043Y408300D01*
X328050Y408314D01*
X329317Y408018D01*
X329240Y407772D01*
X329141Y407540D01*
X329043Y407322D01*
X328930Y407118D01*
X328817Y406935D01*
X328705Y406759D01*
X328585Y406604D01*
X328473Y406463D01*
X328360Y406337D01*
X328261Y406231D01*
X328170Y406133D01*
X328086Y406062D01*
X328022Y405999D01*
X327966Y405957D01*
X327938Y405929D01*
X327924Y405922D01*
X327734Y405788D01*
X327537Y405675D01*
X327326Y405577D01*
X327122Y405493D01*
X326918Y405415D01*
X326714Y405359D01*
X326517Y405310D01*
X326327Y405267D01*
X326144Y405239D01*
X325982Y405218D01*
X325841Y405197D01*
X325715Y405190D01*
X325609Y405183D01*
X325567Y405176D01*
X325468D01*
X325229Y405183D01*
X324997Y405204D01*
X324772Y405232D01*
X324554Y405267D01*
X324350Y405310D01*
X324153Y405366D01*
X323970Y405415D01*
X323801Y405471D01*
X323653Y405528D01*
X323512Y405577D01*
X323393Y405626D01*
X323294Y405675D01*
X323210Y405711D01*
X323154Y405739D01*
X323118Y405760D01*
X323104Y405767D01*
X322907Y405886D01*
X322724Y406013D01*
X322556Y406147D01*
X322394Y406287D01*
X322246Y406428D01*
X322112Y406569D01*
X321986Y406717D01*
X321880Y406850D01*
X321782Y406977D01*
X321690Y407104D01*
X321620Y407209D01*
X321556Y407301D01*
X321514Y407385D01*
X321479Y407441D01*
X321458Y407477D01*
X321451Y407491D01*
X321352Y407709D01*
X321261Y407927D01*
X321184Y408152D01*
X321120Y408377D01*
X321064Y408602D01*
X321015Y408828D01*
X320979Y409039D01*
X320944Y409235D01*
X320923Y409426D01*
X320902Y409601D01*
X320895Y409756D01*
X320881Y409890D01*
Y409995D01*
X320874Y410038D01*
Y410073D01*
Y410101D01*
Y410122D01*
Y410136D01*
Y410143D01*
X320881Y410404D01*
X320895Y410657D01*
X320923Y410903D01*
X320951Y411135D01*
X320994Y411367D01*
X321036Y411578D01*
X321085Y411782D01*
X321134Y411973D01*
X321176Y412141D01*
X321226Y412296D01*
X321268Y412430D01*
X321310Y412542D01*
X321338Y412634D01*
X321367Y412697D01*
X321381Y412739D01*
X321388Y412746D01*
Y412753D01*
X321486Y412971D01*
X321599Y413183D01*
X321718Y413373D01*
X321838Y413555D01*
X321964Y413717D01*
X322091Y413872D01*
X322211Y414006D01*
X322330Y414132D01*
X322443Y414245D01*
X322548Y414337D01*
X322640Y414421D01*
X322724Y414484D01*
X322795Y414534D01*
X322844Y414576D01*
X322872Y414597D01*
X322886Y414604D01*
X323076Y414716D01*
X323280Y414815D01*
X323491Y414899D01*
X323702Y414977D01*
X323913Y415033D01*
X324132Y415089D01*
X324336Y415131D01*
X324540Y415167D01*
X324723Y415188D01*
X324898Y415209D01*
X325053Y415223D01*
X325187Y415237D01*
X325292D01*
X325342Y415244D01*
X325447D01*
X325729Y415237D01*
D02*
G37*
G36*
X333693D02*
X333883Y415216D01*
X334066Y415188D01*
X334242Y415153D01*
X334411Y415110D01*
X334559Y415061D01*
X334706Y415012D01*
X334833Y414956D01*
X334953Y414899D01*
X335058Y414850D01*
X335150Y414801D01*
X335227Y414759D01*
X335290Y414724D01*
X335332Y414688D01*
X335361Y414674D01*
X335368Y414667D01*
X335516Y414555D01*
X335649Y414428D01*
X335776Y414294D01*
X335895Y414161D01*
X336001Y414020D01*
X336106Y413879D01*
X336191Y413745D01*
X336275Y413612D01*
X336346Y413485D01*
X336409Y413366D01*
X336458Y413260D01*
X336501Y413168D01*
X336536Y413091D01*
X336557Y413035D01*
X336571Y413000D01*
X336578Y412986D01*
X336648Y412767D01*
X336712Y412542D01*
X336768Y412303D01*
X336817Y412057D01*
X336852Y411811D01*
X336887Y411557D01*
X336916Y411318D01*
X336937Y411086D01*
X336951Y410868D01*
X336965Y410664D01*
X336972Y410481D01*
X336979Y410404D01*
Y410326D01*
Y410256D01*
X336986Y410192D01*
Y410143D01*
Y410101D01*
Y410066D01*
Y410038D01*
Y410023D01*
Y410017D01*
X336979Y409693D01*
X336965Y409383D01*
X336951Y409102D01*
X336923Y408834D01*
X336887Y408588D01*
X336852Y408370D01*
X336817Y408166D01*
X336782Y407983D01*
X336740Y407821D01*
X336704Y407681D01*
X336669Y407561D01*
X336634Y407463D01*
X336606Y407385D01*
X336592Y407329D01*
X336578Y407301D01*
X336571Y407287D01*
X336493Y407111D01*
X336402Y406949D01*
X336311Y406801D01*
X336212Y406660D01*
X336114Y406527D01*
X336015Y406407D01*
X335916Y406295D01*
X335818Y406196D01*
X335727Y406112D01*
X335649Y406034D01*
X335572Y405971D01*
X335501Y405915D01*
X335452Y405880D01*
X335410Y405844D01*
X335382Y405830D01*
X335375Y405823D01*
X335227Y405732D01*
X335079Y405654D01*
X334925Y405584D01*
X334777Y405528D01*
X334629Y405478D01*
X334481Y405436D01*
X334347Y405401D01*
X334214Y405373D01*
X334094Y405352D01*
X333989Y405338D01*
X333890Y405324D01*
X333806Y405317D01*
X333735Y405310D01*
X333644D01*
X333405Y405317D01*
X333172Y405352D01*
X332954Y405394D01*
X332750Y405450D01*
X332553Y405521D01*
X332370Y405598D01*
X332209Y405675D01*
X332054Y405760D01*
X331920Y405844D01*
X331801Y405929D01*
X331695Y406006D01*
X331611Y406077D01*
X331547Y406133D01*
X331498Y406175D01*
X331463Y406210D01*
X331456Y406217D01*
X331301Y406393D01*
X331167Y406576D01*
X331055Y406773D01*
X330949Y406970D01*
X330865Y407167D01*
X330794Y407364D01*
X330738Y407561D01*
X330696Y407744D01*
X330654Y407920D01*
X330633Y408082D01*
X330611Y408229D01*
X330597Y408356D01*
X330590Y408462D01*
Y408504D01*
X330583Y408539D01*
Y408567D01*
Y408588D01*
Y408595D01*
Y408602D01*
X330590Y408863D01*
X330619Y409109D01*
X330661Y409348D01*
X330710Y409566D01*
X330773Y409770D01*
X330844Y409960D01*
X330921Y410136D01*
X330998Y410291D01*
X331076Y410432D01*
X331153Y410558D01*
X331224Y410664D01*
X331287Y410748D01*
X331336Y410819D01*
X331378Y410868D01*
X331407Y410903D01*
X331414Y410910D01*
X331575Y411065D01*
X331744Y411199D01*
X331913Y411311D01*
X332089Y411417D01*
X332258Y411501D01*
X332427Y411571D01*
X332596Y411628D01*
X332750Y411670D01*
X332898Y411712D01*
X333032Y411733D01*
X333158Y411754D01*
X333257Y411768D01*
X333341Y411776D01*
X333405Y411782D01*
X333461D01*
X333595Y411776D01*
X333728Y411768D01*
X333975Y411726D01*
X334207Y411670D01*
X334305Y411642D01*
X334404Y411607D01*
X334495Y411571D01*
X334573Y411543D01*
X334636Y411515D01*
X334699Y411487D01*
X334742Y411466D01*
X334777Y411445D01*
X334798Y411438D01*
X334805Y411431D01*
X335030Y411290D01*
X335220Y411135D01*
X335311Y411058D01*
X335389Y410980D01*
X335466Y410910D01*
X335530Y410833D01*
X335593Y410769D01*
X335642Y410706D01*
X335684Y410650D01*
X335727Y410601D01*
X335755Y410558D01*
X335776Y410530D01*
X335783Y410509D01*
X335790Y410502D01*
Y410558D01*
Y410607D01*
Y410650D01*
Y410685D01*
Y410706D01*
Y410727D01*
Y410734D01*
Y410741D01*
X335783Y411016D01*
X335762Y411283D01*
X335734Y411529D01*
X335713Y411649D01*
X335698Y411754D01*
X335684Y411853D01*
X335663Y411937D01*
X335649Y412015D01*
X335635Y412078D01*
X335621Y412134D01*
X335614Y412169D01*
X335607Y412198D01*
Y412205D01*
X335572Y412331D01*
X335537Y412458D01*
X335501Y412570D01*
X335466Y412683D01*
X335424Y412782D01*
X335389Y412873D01*
X335354Y412957D01*
X335318Y413035D01*
X335290Y413105D01*
X335255Y413168D01*
X335234Y413218D01*
X335206Y413260D01*
X335192Y413295D01*
X335178Y413316D01*
X335164Y413330D01*
Y413337D01*
X335058Y413485D01*
X334946Y413619D01*
X334833Y413738D01*
X334727Y413830D01*
X334636Y413907D01*
X334559Y413964D01*
X334530Y413985D01*
X334509Y413999D01*
X334495Y414013D01*
X334488D01*
X334326Y414097D01*
X334165Y414154D01*
X333996Y414196D01*
X333848Y414231D01*
X333714Y414245D01*
X333658Y414252D01*
X333609D01*
X333574Y414259D01*
X333517D01*
X333398Y414252D01*
X333285Y414245D01*
X333081Y414203D01*
X332905Y414146D01*
X332821Y414111D01*
X332750Y414076D01*
X332687Y414048D01*
X332624Y414013D01*
X332575Y413985D01*
X332539Y413957D01*
X332504Y413935D01*
X332483Y413914D01*
X332469Y413907D01*
X332462Y413900D01*
X332384Y413830D01*
X332321Y413745D01*
X332202Y413563D01*
X332103Y413366D01*
X332026Y413168D01*
X331998Y413084D01*
X331969Y412993D01*
X331948Y412915D01*
X331934Y412852D01*
X331920Y412796D01*
X331913Y412753D01*
X331906Y412725D01*
Y412718D01*
X330759Y412824D01*
X330794Y413035D01*
X330837Y413232D01*
X330893Y413415D01*
X330956Y413591D01*
X331020Y413753D01*
X331097Y413893D01*
X331167Y414027D01*
X331245Y414146D01*
X331315Y414259D01*
X331385Y414351D01*
X331456Y414428D01*
X331512Y414491D01*
X331554Y414548D01*
X331596Y414583D01*
X331618Y414604D01*
X331625Y414611D01*
X331765Y414724D01*
X331913Y414822D01*
X332068Y414906D01*
X332223Y414977D01*
X332378Y415040D01*
X332532Y415089D01*
X332687Y415131D01*
X332835Y415167D01*
X332968Y415188D01*
X333095Y415209D01*
X333208Y415223D01*
X333306Y415237D01*
X333384D01*
X333447Y415244D01*
X333496D01*
X333693Y415237D01*
D02*
G37*
G36*
X367959Y391631D02*
X366812D01*
Y396402D01*
X366615Y396233D01*
X366404Y396064D01*
X365975Y395747D01*
X365756Y395600D01*
X365545Y395452D01*
X365341Y395318D01*
X365144Y395199D01*
X364961Y395086D01*
X364793Y394980D01*
X364638Y394896D01*
X364511Y394819D01*
X364406Y394762D01*
X364363Y394734D01*
X364328Y394713D01*
X364293Y394699D01*
X364272Y394685D01*
X364265Y394678D01*
X364258D01*
X363976Y394530D01*
X363688Y394396D01*
X363406Y394263D01*
X363132Y394143D01*
X362865Y394038D01*
X362604Y393932D01*
X362358Y393841D01*
X362126Y393756D01*
X361908Y393686D01*
X361718Y393623D01*
X361542Y393566D01*
X361401Y393524D01*
X361338Y393503D01*
X361282Y393489D01*
X361232Y393475D01*
X361190Y393461D01*
X361162Y393454D01*
X361141Y393447D01*
X361127Y393440D01*
X361120D01*
X360824Y393362D01*
X360536Y393299D01*
X360261Y393243D01*
X360001Y393186D01*
X359755Y393144D01*
X359530Y393109D01*
X359319Y393081D01*
X359122Y393060D01*
X358953Y393038D01*
X358798Y393024D01*
X358664Y393010D01*
X358552Y393003D01*
X358467D01*
X358397Y392996D01*
X358362D01*
X358348D01*
Y394228D01*
X358615Y394249D01*
X358882Y394277D01*
X359136Y394305D01*
X359375Y394340D01*
X359607Y394375D01*
X359832Y394418D01*
X360036Y394453D01*
X360226Y394495D01*
X360402Y394530D01*
X360557Y394565D01*
X360691Y394600D01*
X360810Y394629D01*
X360902Y394650D01*
X360965Y394671D01*
X361007Y394678D01*
X361021Y394685D01*
X361345Y394783D01*
X361669Y394889D01*
X361978Y394995D01*
X362281Y395114D01*
X362576Y395227D01*
X362851Y395346D01*
X363118Y395459D01*
X363364Y395571D01*
X363589Y395677D01*
X363786Y395775D01*
X363962Y395867D01*
X364047Y395902D01*
X364117Y395944D01*
X364180Y395973D01*
X364237Y396008D01*
X364286Y396029D01*
X364328Y396050D01*
X364356Y396071D01*
X364377Y396085D01*
X364392Y396092D01*
X364398D01*
X364701Y396261D01*
X364982Y396437D01*
X365250Y396599D01*
X365503Y396768D01*
X365735Y396922D01*
X365953Y397077D01*
X366150Y397225D01*
X366326Y397359D01*
X366488Y397478D01*
X366629Y397591D01*
X366749Y397689D01*
X366847Y397774D01*
X366924Y397844D01*
X366988Y397893D01*
X367016Y397928D01*
X367030Y397935D01*
X367959D01*
Y391631D01*
D02*
G37*
G36*
X361760Y389169D02*
X361535Y389113D01*
X361331Y389049D01*
X361134Y388979D01*
X360958Y388894D01*
X360789Y388817D01*
X360634Y388726D01*
X360501Y388641D01*
X360374Y388557D01*
X360269Y388479D01*
X360170Y388402D01*
X360093Y388332D01*
X360029Y388268D01*
X359973Y388219D01*
X359938Y388184D01*
X359917Y388156D01*
X359910Y388149D01*
X359804Y388001D01*
X359706Y387853D01*
X359621Y387698D01*
X359551Y387544D01*
X359495Y387389D01*
X359445Y387234D01*
X359403Y387086D01*
X359368Y386945D01*
X359340Y386819D01*
X359326Y386692D01*
X359312Y386587D01*
X359298Y386495D01*
Y386418D01*
X359291Y386362D01*
Y386312D01*
X359298Y386151D01*
X359312Y385989D01*
X359333Y385834D01*
X359361Y385679D01*
X359396Y385538D01*
X359438Y385398D01*
X359473Y385271D01*
X359523Y385151D01*
X359565Y385046D01*
X359600Y384947D01*
X359642Y384863D01*
X359678Y384793D01*
X359706Y384736D01*
X359727Y384694D01*
X359741Y384666D01*
X359748Y384659D01*
X359839Y384518D01*
X359938Y384392D01*
X360043Y384272D01*
X360156Y384159D01*
X360269Y384061D01*
X360388Y383969D01*
X360501Y383885D01*
X360606Y383808D01*
X360712Y383744D01*
X360810Y383688D01*
X360902Y383639D01*
X360979Y383604D01*
X361042Y383568D01*
X361085Y383547D01*
X361120Y383540D01*
X361127Y383533D01*
X361303Y383470D01*
X361486Y383414D01*
X361669Y383364D01*
X361859Y383329D01*
X362217Y383259D01*
X362393Y383238D01*
X362562Y383217D01*
X362710Y383203D01*
X362851Y383195D01*
X362977Y383188D01*
X363083Y383181D01*
X363174Y383174D01*
X363238D01*
X363280D01*
X363294D01*
X363477Y383181D01*
X363653Y383188D01*
X363990Y383224D01*
X364152Y383245D01*
X364307Y383273D01*
X364455Y383301D01*
X364589Y383329D01*
X364715Y383357D01*
X364828Y383378D01*
X364926Y383406D01*
X365011Y383428D01*
X365074Y383449D01*
X365123Y383463D01*
X365158Y383477D01*
X365165D01*
X365334Y383540D01*
X365489Y383611D01*
X365637Y383688D01*
X365770Y383772D01*
X365904Y383857D01*
X366024Y383941D01*
X366129Y384033D01*
X366228Y384117D01*
X366312Y384202D01*
X366390Y384279D01*
X366453Y384349D01*
X366509Y384413D01*
X366552Y384462D01*
X366587Y384497D01*
X366601Y384525D01*
X366608Y384532D01*
X366706Y384680D01*
X366784Y384835D01*
X366861Y384990D01*
X366924Y385144D01*
X366974Y385306D01*
X367016Y385461D01*
X367051Y385609D01*
X367079Y385756D01*
X367107Y385890D01*
X367121Y386017D01*
X367135Y386129D01*
X367142Y386228D01*
X367150Y386305D01*
Y386411D01*
X367142Y386594D01*
X367128Y386763D01*
X367107Y386924D01*
X367072Y387079D01*
X367037Y387220D01*
X366995Y387354D01*
X366953Y387473D01*
X366910Y387586D01*
X366861Y387684D01*
X366819Y387776D01*
X366777Y387853D01*
X366741Y387916D01*
X366706Y387966D01*
X366685Y388001D01*
X366671Y388022D01*
X366664Y388029D01*
X366566Y388149D01*
X366460Y388261D01*
X366340Y388360D01*
X366221Y388458D01*
X366087Y388550D01*
X365961Y388627D01*
X365834Y388704D01*
X365707Y388768D01*
X365588Y388824D01*
X365475Y388880D01*
X365377Y388923D01*
X365292Y388958D01*
X365215Y388986D01*
X365165Y389007D01*
X365130Y389014D01*
X365116Y389021D01*
X365412Y390288D01*
X365658Y390210D01*
X365890Y390112D01*
X366108Y390013D01*
X366312Y389901D01*
X366495Y389788D01*
X366671Y389675D01*
X366826Y389556D01*
X366967Y389443D01*
X367093Y389331D01*
X367199Y389232D01*
X367297Y389141D01*
X367368Y389056D01*
X367431Y388993D01*
X367473Y388937D01*
X367501Y388909D01*
X367508Y388894D01*
X367642Y388704D01*
X367755Y388507D01*
X367853Y388296D01*
X367938Y388092D01*
X368015Y387888D01*
X368071Y387684D01*
X368120Y387487D01*
X368163Y387297D01*
X368191Y387114D01*
X368212Y386953D01*
X368233Y386812D01*
X368240Y386685D01*
X368247Y386580D01*
X368254Y386538D01*
Y386439D01*
X368247Y386200D01*
X368226Y385968D01*
X368198Y385742D01*
X368163Y385524D01*
X368120Y385320D01*
X368064Y385123D01*
X368015Y384940D01*
X367959Y384771D01*
X367902Y384624D01*
X367853Y384483D01*
X367804Y384363D01*
X367755Y384265D01*
X367719Y384180D01*
X367691Y384124D01*
X367670Y384089D01*
X367663Y384075D01*
X367543Y383878D01*
X367417Y383695D01*
X367283Y383526D01*
X367142Y383364D01*
X367002Y383217D01*
X366861Y383083D01*
X366713Y382956D01*
X366580Y382851D01*
X366453Y382752D01*
X366326Y382661D01*
X366221Y382590D01*
X366129Y382527D01*
X366045Y382485D01*
X365989Y382450D01*
X365953Y382429D01*
X365939Y382421D01*
X365721Y382323D01*
X365503Y382231D01*
X365278Y382154D01*
X365053Y382091D01*
X364828Y382034D01*
X364603Y381985D01*
X364392Y381950D01*
X364194Y381915D01*
X364005Y381894D01*
X363829Y381873D01*
X363674Y381866D01*
X363540Y381852D01*
X363435D01*
X363392Y381845D01*
X363357D01*
X363329D01*
X363308D01*
X363294D01*
X363287D01*
X363027Y381852D01*
X362773Y381866D01*
X362527Y381894D01*
X362295Y381922D01*
X362063Y381964D01*
X361852Y382006D01*
X361647Y382056D01*
X361457Y382105D01*
X361289Y382147D01*
X361134Y382196D01*
X361000Y382239D01*
X360888Y382281D01*
X360796Y382309D01*
X360733Y382337D01*
X360691Y382351D01*
X360684Y382358D01*
X360677D01*
X360458Y382457D01*
X360247Y382569D01*
X360057Y382689D01*
X359874Y382808D01*
X359713Y382935D01*
X359558Y383062D01*
X359424Y383181D01*
X359298Y383301D01*
X359185Y383414D01*
X359094Y383519D01*
X359009Y383611D01*
X358946Y383695D01*
X358896Y383765D01*
X358854Y383815D01*
X358833Y383843D01*
X358826Y383857D01*
X358714Y384047D01*
X358615Y384251D01*
X358531Y384462D01*
X358453Y384673D01*
X358397Y384884D01*
X358341Y385102D01*
X358298Y385306D01*
X358263Y385510D01*
X358242Y385693D01*
X358221Y385869D01*
X358207Y386024D01*
X358193Y386157D01*
Y386263D01*
X358186Y386312D01*
Y386418D01*
X358193Y386699D01*
X358221Y386967D01*
X358263Y387220D01*
X358312Y387466D01*
X358376Y387691D01*
X358446Y387902D01*
X358524Y388099D01*
X358601Y388275D01*
X358678Y388437D01*
X358756Y388578D01*
X358826Y388704D01*
X358890Y388803D01*
X358939Y388887D01*
X358981Y388944D01*
X359009Y388979D01*
X359016Y388993D01*
X359185Y389183D01*
X359361Y389359D01*
X359551Y389521D01*
X359748Y389668D01*
X359952Y389802D01*
X360149Y389922D01*
X360346Y390027D01*
X360543Y390119D01*
X360726Y390203D01*
X360895Y390274D01*
X361042Y390330D01*
X361176Y390379D01*
X361282Y390414D01*
X361331Y390428D01*
X361366Y390435D01*
X361394Y390442D01*
X361415Y390449D01*
X361429Y390456D01*
X361436D01*
X361760Y389169D01*
D02*
G37*
G36*
X291910Y496988D02*
X292156Y496960D01*
X292381Y496918D01*
X292600Y496862D01*
X292804Y496798D01*
X292987Y496728D01*
X293162Y496651D01*
X293317Y496573D01*
X293458Y496496D01*
X293578Y496418D01*
X293683Y496348D01*
X293768Y496285D01*
X293838Y496228D01*
X293887Y496186D01*
X293922Y496158D01*
X293929Y496151D01*
X294084Y495989D01*
X294225Y495821D01*
X294337Y495652D01*
X294443Y495483D01*
X294527Y495307D01*
X294598Y495138D01*
X294661Y494976D01*
X294703Y494821D01*
X294739Y494674D01*
X294767Y494540D01*
X294788Y494420D01*
X294802Y494315D01*
X294809Y494237D01*
X294816Y494174D01*
Y493991D01*
X294802Y493865D01*
X294767Y493618D01*
X294710Y493400D01*
X294682Y493295D01*
X294654Y493203D01*
X294626Y493112D01*
X294598Y493034D01*
X294570Y492971D01*
X294541Y492908D01*
X294520Y492865D01*
X294506Y492830D01*
X294499Y492809D01*
X294492Y492802D01*
X294429Y492690D01*
X294359Y492577D01*
X294204Y492380D01*
X294042Y492197D01*
X293965Y492120D01*
X293887Y492049D01*
X293810Y491979D01*
X293739Y491923D01*
X293676Y491873D01*
X293620Y491831D01*
X293578Y491796D01*
X293542Y491775D01*
X293521Y491761D01*
X293514Y491754D01*
X293782Y491761D01*
X294035Y491768D01*
X294267Y491789D01*
X294485Y491810D01*
X294682Y491831D01*
X294872Y491859D01*
X295041Y491894D01*
X295189Y491923D01*
X295322Y491951D01*
X295442Y491979D01*
X295541Y492007D01*
X295618Y492035D01*
X295681Y492056D01*
X295730Y492070D01*
X295759Y492085D01*
X295766D01*
X295906Y492148D01*
X296040Y492218D01*
X296167Y492289D01*
X296286Y492366D01*
X296392Y492436D01*
X296490Y492514D01*
X296582Y492584D01*
X296659Y492654D01*
X296730Y492725D01*
X296793Y492781D01*
X296842Y492837D01*
X296884Y492887D01*
X296920Y492922D01*
X296941Y492957D01*
X296955Y492971D01*
X296962Y492978D01*
X297018Y493062D01*
X297067Y493147D01*
X297152Y493316D01*
X297208Y493485D01*
X297243Y493639D01*
X297257Y493717D01*
X297271Y493780D01*
X297278Y493836D01*
Y493886D01*
X297285Y493928D01*
Y493984D01*
X297278Y494111D01*
X297264Y494237D01*
X297236Y494357D01*
X297208Y494470D01*
X297166Y494575D01*
X297124Y494667D01*
X297074Y494758D01*
X297032Y494842D01*
X296983Y494920D01*
X296934Y494983D01*
X296891Y495039D01*
X296849Y495089D01*
X296821Y495124D01*
X296793Y495152D01*
X296779Y495166D01*
X296772Y495173D01*
X296709Y495229D01*
X296638Y495279D01*
X296476Y495370D01*
X296308Y495448D01*
X296146Y495511D01*
X295991Y495567D01*
X295928Y495581D01*
X295864Y495602D01*
X295822Y495616D01*
X295780Y495624D01*
X295759Y495630D01*
X295752D01*
X295843Y496820D01*
X296047Y496784D01*
X296244Y496742D01*
X296427Y496686D01*
X296596Y496615D01*
X296758Y496552D01*
X296905Y496475D01*
X297039Y496397D01*
X297159Y496320D01*
X297264Y496243D01*
X297356Y496172D01*
X297440Y496109D01*
X297504Y496053D01*
X297553Y496003D01*
X297595Y495968D01*
X297616Y495940D01*
X297623Y495933D01*
X297736Y495792D01*
X297834Y495645D01*
X297926Y495490D01*
X297996Y495328D01*
X298059Y495173D01*
X298116Y495018D01*
X298158Y494864D01*
X298193Y494723D01*
X298214Y494582D01*
X298235Y494455D01*
X298249Y494343D01*
X298263Y494244D01*
Y494167D01*
X298270Y494104D01*
Y494054D01*
X298256Y493773D01*
X298221Y493506D01*
X298165Y493259D01*
X298095Y493020D01*
X298010Y492802D01*
X297919Y492605D01*
X297813Y492422D01*
X297715Y492253D01*
X297609Y492106D01*
X297504Y491972D01*
X297412Y491866D01*
X297328Y491775D01*
X297257Y491698D01*
X297201Y491648D01*
X297166Y491620D01*
X297152Y491606D01*
X297025Y491515D01*
X296891Y491423D01*
X296758Y491339D01*
X296610Y491261D01*
X296300Y491121D01*
X295970Y491001D01*
X295632Y490902D01*
X295294Y490818D01*
X294949Y490748D01*
X294619Y490698D01*
X294302Y490649D01*
X294014Y490621D01*
X293873Y490607D01*
X293746Y490600D01*
X293620Y490586D01*
X293514Y490579D01*
X293409D01*
X293317Y490572D01*
X293240D01*
X293176Y490565D01*
X293120D01*
X293085D01*
X293057D01*
X293050D01*
X292818D01*
X292593Y490579D01*
X292381Y490586D01*
X292170Y490607D01*
X291973Y490628D01*
X291783Y490649D01*
X291600Y490677D01*
X291425Y490713D01*
X291256Y490748D01*
X291094Y490783D01*
X290946Y490825D01*
X290798Y490860D01*
X290665Y490902D01*
X290531Y490952D01*
X290411Y490994D01*
X290299Y491036D01*
X290193Y491078D01*
X290088Y491128D01*
X289996Y491170D01*
X289912Y491212D01*
X289834Y491247D01*
X289764Y491289D01*
X289645Y491360D01*
X289553Y491423D01*
X289483Y491465D01*
X289448Y491501D01*
X289433Y491507D01*
X289244Y491690D01*
X289075Y491880D01*
X288927Y492085D01*
X288800Y492289D01*
X288695Y492492D01*
X288603Y492690D01*
X288533Y492887D01*
X288477Y493077D01*
X288427Y493259D01*
X288392Y493421D01*
X288371Y493569D01*
X288350Y493696D01*
X288343Y493801D01*
Y493843D01*
X288336Y493879D01*
Y493942D01*
X288343Y494104D01*
X288357Y494266D01*
X288371Y494413D01*
X288399Y494561D01*
X288434Y494695D01*
X288470Y494828D01*
X288505Y494948D01*
X288547Y495054D01*
X288582Y495159D01*
X288617Y495243D01*
X288652Y495321D01*
X288688Y495391D01*
X288716Y495440D01*
X288730Y495483D01*
X288744Y495504D01*
X288751Y495511D01*
X288835Y495638D01*
X288920Y495757D01*
X289018Y495870D01*
X289117Y495968D01*
X289215Y496067D01*
X289314Y496158D01*
X289412Y496236D01*
X289511Y496313D01*
X289602Y496376D01*
X289680Y496433D01*
X289757Y496482D01*
X289827Y496524D01*
X289877Y496552D01*
X289919Y496573D01*
X289947Y496587D01*
X289954Y496594D01*
X290102Y496665D01*
X290257Y496728D01*
X290404Y496777D01*
X290552Y496827D01*
X290700Y496869D01*
X290841Y496897D01*
X290974Y496925D01*
X291101Y496946D01*
X291221Y496960D01*
X291326Y496974D01*
X291418Y496981D01*
X291502Y496988D01*
X291565Y496995D01*
X291615D01*
X291650D01*
X291657D01*
X291910Y496988D01*
D02*
G37*
G36*
Y488229D02*
X291685Y488173D01*
X291481Y488109D01*
X291284Y488039D01*
X291108Y487954D01*
X290939Y487877D01*
X290784Y487786D01*
X290651Y487701D01*
X290524Y487617D01*
X290418Y487539D01*
X290320Y487462D01*
X290243Y487392D01*
X290179Y487328D01*
X290123Y487279D01*
X290088Y487244D01*
X290067Y487216D01*
X290060Y487209D01*
X289954Y487061D01*
X289856Y486913D01*
X289771Y486758D01*
X289701Y486604D01*
X289645Y486449D01*
X289595Y486294D01*
X289553Y486146D01*
X289518Y486006D01*
X289490Y485879D01*
X289476Y485752D01*
X289462Y485647D01*
X289448Y485555D01*
Y485478D01*
X289440Y485422D01*
Y485372D01*
X289448Y485210D01*
X289462Y485049D01*
X289483Y484894D01*
X289511Y484739D01*
X289546Y484598D01*
X289588Y484458D01*
X289623Y484331D01*
X289673Y484211D01*
X289715Y484106D01*
X289750Y484007D01*
X289792Y483923D01*
X289827Y483853D01*
X289856Y483796D01*
X289877Y483754D01*
X289891Y483726D01*
X289898Y483719D01*
X289989Y483578D01*
X290088Y483451D01*
X290193Y483332D01*
X290306Y483219D01*
X290418Y483121D01*
X290538Y483029D01*
X290651Y482945D01*
X290756Y482868D01*
X290862Y482804D01*
X290960Y482748D01*
X291052Y482699D01*
X291129Y482663D01*
X291192Y482628D01*
X291235Y482607D01*
X291270Y482600D01*
X291277Y482593D01*
X291453Y482530D01*
X291636Y482474D01*
X291819Y482424D01*
X292009Y482389D01*
X292367Y482319D01*
X292543Y482298D01*
X292712Y482277D01*
X292860Y482262D01*
X293001Y482255D01*
X293127Y482248D01*
X293233Y482241D01*
X293324Y482234D01*
X293388D01*
X293430D01*
X293444D01*
X293627Y482241D01*
X293803Y482248D01*
X294140Y482284D01*
X294302Y482305D01*
X294457Y482333D01*
X294605Y482361D01*
X294739Y482389D01*
X294865Y482417D01*
X294978Y482438D01*
X295076Y482467D01*
X295161Y482488D01*
X295224Y482509D01*
X295273Y482523D01*
X295308Y482537D01*
X295315D01*
X295484Y482600D01*
X295639Y482671D01*
X295787Y482748D01*
X295921Y482832D01*
X296054Y482917D01*
X296174Y483001D01*
X296279Y483093D01*
X296378Y483177D01*
X296462Y483262D01*
X296540Y483339D01*
X296603Y483409D01*
X296659Y483473D01*
X296702Y483522D01*
X296737Y483557D01*
X296751Y483585D01*
X296758Y483592D01*
X296856Y483740D01*
X296934Y483895D01*
X297011Y484050D01*
X297074Y484204D01*
X297124Y484366D01*
X297166Y484521D01*
X297201Y484669D01*
X297229Y484817D01*
X297257Y484950D01*
X297271Y485077D01*
X297285Y485189D01*
X297292Y485288D01*
X297299Y485365D01*
Y485471D01*
X297292Y485654D01*
X297278Y485823D01*
X297257Y485984D01*
X297222Y486139D01*
X297187Y486280D01*
X297145Y486414D01*
X297103Y486533D01*
X297060Y486646D01*
X297011Y486744D01*
X296969Y486836D01*
X296927Y486913D01*
X296891Y486977D01*
X296856Y487026D01*
X296835Y487061D01*
X296821Y487082D01*
X296814Y487089D01*
X296716Y487209D01*
X296610Y487321D01*
X296490Y487420D01*
X296371Y487518D01*
X296237Y487610D01*
X296110Y487687D01*
X295984Y487765D01*
X295857Y487828D01*
X295738Y487884D01*
X295625Y487940D01*
X295527Y487983D01*
X295442Y488018D01*
X295365Y488046D01*
X295315Y488067D01*
X295280Y488074D01*
X295266Y488081D01*
X295562Y489347D01*
X295808Y489270D01*
X296040Y489172D01*
X296258Y489073D01*
X296462Y488961D01*
X296645Y488848D01*
X296821Y488735D01*
X296976Y488616D01*
X297117Y488503D01*
X297243Y488391D01*
X297349Y488292D01*
X297447Y488201D01*
X297518Y488116D01*
X297581Y488053D01*
X297623Y487997D01*
X297651Y487968D01*
X297658Y487954D01*
X297792Y487765D01*
X297905Y487567D01*
X298003Y487356D01*
X298088Y487152D01*
X298165Y486948D01*
X298221Y486744D01*
X298270Y486547D01*
X298313Y486357D01*
X298341Y486174D01*
X298362Y486013D01*
X298383Y485872D01*
X298390Y485745D01*
X298397Y485640D01*
X298404Y485597D01*
Y485499D01*
X298397Y485260D01*
X298376Y485028D01*
X298348Y484802D01*
X298313Y484584D01*
X298270Y484380D01*
X298214Y484183D01*
X298165Y484000D01*
X298109Y483831D01*
X298052Y483684D01*
X298003Y483543D01*
X297954Y483423D01*
X297905Y483325D01*
X297869Y483241D01*
X297841Y483184D01*
X297820Y483149D01*
X297813Y483135D01*
X297694Y482938D01*
X297567Y482755D01*
X297433Y482586D01*
X297292Y482424D01*
X297152Y482277D01*
X297011Y482143D01*
X296863Y482016D01*
X296730Y481911D01*
X296603Y481812D01*
X296476Y481721D01*
X296371Y481650D01*
X296279Y481587D01*
X296195Y481545D01*
X296139Y481510D01*
X296103Y481488D01*
X296089Y481482D01*
X295871Y481383D01*
X295653Y481292D01*
X295428Y481214D01*
X295203Y481151D01*
X294978Y481095D01*
X294753Y481045D01*
X294541Y481010D01*
X294345Y480975D01*
X294154Y480954D01*
X293979Y480933D01*
X293824Y480926D01*
X293690Y480912D01*
X293585D01*
X293542Y480905D01*
X293507D01*
X293479D01*
X293458D01*
X293444D01*
X293437D01*
X293176Y480912D01*
X292923Y480926D01*
X292677Y480954D01*
X292445Y480982D01*
X292213Y481024D01*
X292001Y481066D01*
X291798Y481116D01*
X291607Y481165D01*
X291439Y481207D01*
X291284Y481256D01*
X291150Y481299D01*
X291038Y481341D01*
X290946Y481369D01*
X290883Y481397D01*
X290841Y481411D01*
X290834Y481418D01*
X290827D01*
X290609Y481517D01*
X290397Y481629D01*
X290207Y481749D01*
X290025Y481869D01*
X289863Y481995D01*
X289708Y482122D01*
X289574Y482241D01*
X289448Y482361D01*
X289335Y482474D01*
X289244Y482579D01*
X289159Y482671D01*
X289096Y482755D01*
X289046Y482825D01*
X289004Y482875D01*
X288983Y482903D01*
X288976Y482917D01*
X288864Y483107D01*
X288765Y483311D01*
X288681Y483522D01*
X288603Y483733D01*
X288547Y483944D01*
X288491Y484162D01*
X288449Y484366D01*
X288413Y484570D01*
X288392Y484753D01*
X288371Y484929D01*
X288357Y485084D01*
X288343Y485218D01*
Y485323D01*
X288336Y485372D01*
Y485478D01*
X288343Y485759D01*
X288371Y486027D01*
X288413Y486280D01*
X288463Y486526D01*
X288526Y486751D01*
X288596Y486962D01*
X288674Y487159D01*
X288751Y487335D01*
X288828Y487497D01*
X288906Y487638D01*
X288976Y487765D01*
X289039Y487863D01*
X289089Y487947D01*
X289131Y488004D01*
X289159Y488039D01*
X289166Y488053D01*
X289335Y488243D01*
X289511Y488419D01*
X289701Y488581D01*
X289898Y488728D01*
X290102Y488862D01*
X290299Y488982D01*
X290496Y489087D01*
X290693Y489179D01*
X290876Y489263D01*
X291045Y489333D01*
X291192Y489390D01*
X291326Y489439D01*
X291432Y489474D01*
X291481Y489488D01*
X291516Y489495D01*
X291544Y489502D01*
X291565Y489509D01*
X291579Y489516D01*
X291586D01*
X291910Y488229D01*
D02*
G37*
G36*
X292737Y363167D02*
X293004Y363139D01*
X293258Y363097D01*
X293504Y363047D01*
X293729Y362984D01*
X293940Y362914D01*
X294137Y362836D01*
X294313Y362759D01*
X294475Y362682D01*
X294615Y362604D01*
X294742Y362534D01*
X294841Y362471D01*
X294925Y362421D01*
X294981Y362379D01*
X295016Y362351D01*
X295030Y362344D01*
X295220Y362175D01*
X295396Y361999D01*
X295558Y361809D01*
X295706Y361612D01*
X295840Y361408D01*
X295959Y361211D01*
X296065Y361014D01*
X296156Y360817D01*
X296241Y360634D01*
X296311Y360465D01*
X296367Y360318D01*
X296416Y360184D01*
X296452Y360078D01*
X296466Y360029D01*
X296473Y359994D01*
X296480Y359966D01*
X296487Y359945D01*
X296494Y359931D01*
Y359924D01*
X295206Y359600D01*
X295150Y359825D01*
X295087Y360029D01*
X295016Y360226D01*
X294932Y360402D01*
X294855Y360571D01*
X294763Y360726D01*
X294679Y360859D01*
X294594Y360986D01*
X294517Y361091D01*
X294440Y361190D01*
X294369Y361267D01*
X294306Y361331D01*
X294256Y361387D01*
X294221Y361422D01*
X294193Y361443D01*
X294186Y361450D01*
X294038Y361556D01*
X293891Y361654D01*
X293736Y361739D01*
X293581Y361809D01*
X293426Y361865D01*
X293272Y361915D01*
X293124Y361957D01*
X292983Y361992D01*
X292856Y362020D01*
X292730Y362034D01*
X292624Y362048D01*
X292533Y362062D01*
X292455D01*
X292399Y362070D01*
X292350D01*
X292188Y362062D01*
X292026Y362048D01*
X291871Y362027D01*
X291717Y361999D01*
X291576Y361964D01*
X291435Y361922D01*
X291308Y361887D01*
X291189Y361837D01*
X291083Y361795D01*
X290985Y361760D01*
X290900Y361718D01*
X290830Y361683D01*
X290774Y361654D01*
X290732Y361633D01*
X290704Y361619D01*
X290696Y361612D01*
X290556Y361521D01*
X290429Y361422D01*
X290310Y361317D01*
X290197Y361204D01*
X290098Y361091D01*
X290007Y360972D01*
X289923Y360859D01*
X289845Y360754D01*
X289782Y360648D01*
X289725Y360550D01*
X289676Y360458D01*
X289641Y360381D01*
X289606Y360318D01*
X289585Y360275D01*
X289578Y360240D01*
X289571Y360233D01*
X289507Y360057D01*
X289451Y359874D01*
X289402Y359691D01*
X289367Y359501D01*
X289296Y359143D01*
X289275Y358967D01*
X289254Y358798D01*
X289240Y358650D01*
X289233Y358509D01*
X289226Y358383D01*
X289219Y358277D01*
X289212Y358186D01*
Y358122D01*
Y358080D01*
Y358066D01*
X289219Y357883D01*
X289226Y357707D01*
X289261Y357370D01*
X289282Y357208D01*
X289310Y357053D01*
X289338Y356905D01*
X289367Y356772D01*
X289395Y356645D01*
X289416Y356532D01*
X289444Y356434D01*
X289465Y356349D01*
X289486Y356286D01*
X289500Y356237D01*
X289514Y356202D01*
Y356195D01*
X289578Y356026D01*
X289648Y355871D01*
X289725Y355723D01*
X289810Y355589D01*
X289894Y355456D01*
X289979Y355336D01*
X290070Y355231D01*
X290155Y355132D01*
X290239Y355048D01*
X290317Y354970D01*
X290387Y354907D01*
X290450Y354851D01*
X290499Y354809D01*
X290535Y354773D01*
X290563Y354759D01*
X290570Y354752D01*
X290718Y354654D01*
X290872Y354576D01*
X291027Y354499D01*
X291182Y354436D01*
X291344Y354386D01*
X291499Y354344D01*
X291646Y354309D01*
X291794Y354281D01*
X291928Y354253D01*
X292054Y354239D01*
X292167Y354225D01*
X292265Y354217D01*
X292343Y354211D01*
X292448D01*
X292631Y354217D01*
X292800Y354232D01*
X292962Y354253D01*
X293117Y354288D01*
X293258Y354323D01*
X293391Y354365D01*
X293511Y354408D01*
X293623Y354450D01*
X293722Y354499D01*
X293813Y354541D01*
X293891Y354583D01*
X293954Y354619D01*
X294003Y354654D01*
X294038Y354675D01*
X294060Y354689D01*
X294067Y354696D01*
X294186Y354795D01*
X294299Y354900D01*
X294397Y355020D01*
X294496Y355139D01*
X294587Y355273D01*
X294665Y355400D01*
X294742Y355526D01*
X294805Y355653D01*
X294862Y355772D01*
X294918Y355885D01*
X294960Y355984D01*
X294995Y356068D01*
X295023Y356145D01*
X295044Y356195D01*
X295052Y356230D01*
X295059Y356244D01*
X296325Y355948D01*
X296248Y355702D01*
X296149Y355470D01*
X296051Y355252D01*
X295938Y355048D01*
X295826Y354865D01*
X295713Y354689D01*
X295593Y354534D01*
X295481Y354393D01*
X295368Y354267D01*
X295270Y354161D01*
X295178Y354063D01*
X295094Y353992D01*
X295030Y353929D01*
X294974Y353887D01*
X294946Y353859D01*
X294932Y353852D01*
X294742Y353718D01*
X294545Y353605D01*
X294334Y353507D01*
X294130Y353423D01*
X293926Y353345D01*
X293722Y353289D01*
X293525Y353240D01*
X293335Y353197D01*
X293152Y353169D01*
X292990Y353148D01*
X292849Y353127D01*
X292723Y353120D01*
X292617Y353113D01*
X292575Y353106D01*
X292477D01*
X292237Y353113D01*
X292005Y353134D01*
X291780Y353162D01*
X291562Y353197D01*
X291358Y353240D01*
X291161Y353296D01*
X290978Y353345D01*
X290809Y353401D01*
X290661Y353458D01*
X290520Y353507D01*
X290401Y353556D01*
X290302Y353605D01*
X290218Y353641D01*
X290162Y353669D01*
X290126Y353690D01*
X290112Y353697D01*
X289915Y353816D01*
X289732Y353943D01*
X289564Y354077D01*
X289402Y354217D01*
X289254Y354358D01*
X289120Y354499D01*
X288994Y354647D01*
X288888Y354780D01*
X288790Y354907D01*
X288698Y355034D01*
X288628Y355139D01*
X288565Y355231D01*
X288522Y355315D01*
X288487Y355371D01*
X288466Y355407D01*
X288459Y355421D01*
X288361Y355639D01*
X288269Y355857D01*
X288192Y356082D01*
X288128Y356307D01*
X288072Y356532D01*
X288023Y356758D01*
X287988Y356968D01*
X287952Y357165D01*
X287931Y357355D01*
X287910Y357531D01*
X287903Y357686D01*
X287889Y357820D01*
Y357925D01*
X287882Y357968D01*
Y358003D01*
Y358031D01*
Y358052D01*
Y358066D01*
Y358073D01*
X287889Y358334D01*
X287903Y358587D01*
X287931Y358833D01*
X287959Y359065D01*
X288002Y359297D01*
X288044Y359509D01*
X288093Y359712D01*
X288142Y359902D01*
X288185Y360071D01*
X288234Y360226D01*
X288276Y360360D01*
X288318Y360472D01*
X288347Y360564D01*
X288375Y360627D01*
X288389Y360669D01*
X288396Y360676D01*
Y360683D01*
X288494Y360901D01*
X288607Y361113D01*
X288726Y361303D01*
X288846Y361485D01*
X288973Y361647D01*
X289099Y361802D01*
X289219Y361936D01*
X289338Y362062D01*
X289451Y362175D01*
X289557Y362267D01*
X289648Y362351D01*
X289732Y362414D01*
X289803Y362463D01*
X289852Y362506D01*
X289880Y362527D01*
X289894Y362534D01*
X290084Y362646D01*
X290288Y362745D01*
X290499Y362829D01*
X290711Y362907D01*
X290922Y362963D01*
X291140Y363019D01*
X291344Y363061D01*
X291548Y363097D01*
X291731Y363118D01*
X291907Y363139D01*
X292061Y363153D01*
X292195Y363167D01*
X292301D01*
X292350Y363174D01*
X292455D01*
X292737Y363167D01*
D02*
G37*
G36*
X302622Y360683D02*
X303938D01*
Y359586D01*
X302622D01*
Y353275D01*
X301644D01*
X297204Y359586D01*
Y360683D01*
X301426D01*
Y363012D01*
X302622D01*
Y360683D01*
D02*
G37*
G36*
X291551Y469048D02*
X291713Y469034D01*
X291868Y469013D01*
X292016Y468978D01*
X292156Y468943D01*
X292283Y468908D01*
X292403Y468858D01*
X292515Y468816D01*
X292614Y468774D01*
X292698Y468732D01*
X292768Y468690D01*
X292832Y468654D01*
X292881Y468619D01*
X292916Y468598D01*
X292937Y468584D01*
X292944Y468577D01*
X293057Y468486D01*
X293162Y468380D01*
X293254Y468274D01*
X293338Y468169D01*
X293416Y468056D01*
X293479Y467944D01*
X293542Y467831D01*
X293592Y467726D01*
X293641Y467627D01*
X293676Y467536D01*
X293711Y467451D01*
X293732Y467374D01*
X293754Y467318D01*
X293768Y467268D01*
X293775Y467240D01*
Y467233D01*
X293831Y467353D01*
X293894Y467465D01*
X293965Y467571D01*
X294028Y467669D01*
X294098Y467761D01*
X294169Y467838D01*
X294232Y467916D01*
X294295Y467979D01*
X294359Y468042D01*
X294415Y468092D01*
X294464Y468134D01*
X294506Y468169D01*
X294541Y468197D01*
X294570Y468218D01*
X294584Y468225D01*
X294591Y468232D01*
X294689Y468296D01*
X294788Y468345D01*
X294893Y468394D01*
X294992Y468429D01*
X295182Y468493D01*
X295365Y468535D01*
X295442Y468549D01*
X295519Y468556D01*
X295583Y468570D01*
X295639D01*
X295681Y468577D01*
X295716D01*
X295738D01*
X295745D01*
X295871Y468570D01*
X295991Y468563D01*
X296223Y468521D01*
X296434Y468464D01*
X296526Y468429D01*
X296617Y468401D01*
X296702Y468366D01*
X296772Y468331D01*
X296842Y468303D01*
X296891Y468274D01*
X296941Y468253D01*
X296969Y468232D01*
X296990Y468225D01*
X296997Y468218D01*
X297103Y468148D01*
X297208Y468070D01*
X297391Y467909D01*
X297553Y467740D01*
X297687Y467571D01*
X297743Y467494D01*
X297792Y467423D01*
X297834Y467360D01*
X297869Y467304D01*
X297897Y467254D01*
X297919Y467219D01*
X297926Y467198D01*
X297933Y467191D01*
X297996Y467064D01*
X298045Y466938D01*
X298095Y466811D01*
X298130Y466677D01*
X298193Y466431D01*
X298214Y466319D01*
X298235Y466206D01*
X298249Y466107D01*
X298256Y466016D01*
X298270Y465932D01*
Y465861D01*
X298277Y465805D01*
Y465728D01*
X298270Y465516D01*
X298249Y465312D01*
X298214Y465115D01*
X298172Y464933D01*
X298123Y464764D01*
X298066Y464609D01*
X298010Y464461D01*
X297947Y464327D01*
X297883Y464208D01*
X297827Y464102D01*
X297771Y464011D01*
X297722Y463933D01*
X297679Y463870D01*
X297644Y463828D01*
X297623Y463800D01*
X297616Y463793D01*
X297489Y463652D01*
X297349Y463525D01*
X297201Y463413D01*
X297046Y463314D01*
X296891Y463223D01*
X296737Y463138D01*
X296582Y463068D01*
X296434Y463005D01*
X296293Y462955D01*
X296167Y462913D01*
X296054Y462878D01*
X295949Y462850D01*
X295864Y462829D01*
X295808Y462815D01*
X295766Y462801D01*
X295759D01*
X295752D01*
X295541Y463997D01*
X295702Y464025D01*
X295850Y464060D01*
X295984Y464095D01*
X296110Y464145D01*
X296230Y464187D01*
X296336Y464243D01*
X296434Y464292D01*
X296526Y464342D01*
X296596Y464391D01*
X296666Y464433D01*
X296723Y464475D01*
X296765Y464510D01*
X296800Y464546D01*
X296828Y464567D01*
X296842Y464581D01*
X296849Y464588D01*
X296927Y464679D01*
X296997Y464771D01*
X297053Y464869D01*
X297103Y464968D01*
X297152Y465066D01*
X297187Y465158D01*
X297236Y465340D01*
X297257Y465425D01*
X297271Y465502D01*
X297278Y465573D01*
X297285Y465636D01*
X297292Y465678D01*
Y465749D01*
X297285Y465875D01*
X297271Y466002D01*
X297250Y466115D01*
X297222Y466227D01*
X297194Y466326D01*
X297152Y466424D01*
X297117Y466508D01*
X297074Y466586D01*
X297032Y466656D01*
X296997Y466720D01*
X296955Y466769D01*
X296927Y466818D01*
X296898Y466853D01*
X296877Y466874D01*
X296863Y466888D01*
X296856Y466895D01*
X296772Y466973D01*
X296687Y467043D01*
X296596Y467107D01*
X296504Y467156D01*
X296413Y467198D01*
X296322Y467233D01*
X296153Y467290D01*
X296075Y467311D01*
X296005Y467325D01*
X295935Y467332D01*
X295885Y467339D01*
X295836Y467346D01*
X295801D01*
X295780D01*
X295773D01*
X295625Y467339D01*
X295484Y467318D01*
X295351Y467290D01*
X295231Y467247D01*
X295118Y467205D01*
X295020Y467156D01*
X294928Y467099D01*
X294844Y467043D01*
X294774Y466980D01*
X294710Y466931D01*
X294661Y466874D01*
X294619Y466832D01*
X294584Y466790D01*
X294563Y466762D01*
X294548Y466741D01*
X294541Y466734D01*
X294471Y466621D01*
X294415Y466502D01*
X294359Y466382D01*
X294316Y466262D01*
X294246Y466030D01*
X294218Y465924D01*
X294197Y465819D01*
X294183Y465720D01*
X294169Y465636D01*
X294161Y465559D01*
X294154Y465488D01*
X294147Y465439D01*
Y465305D01*
X294154Y465242D01*
Y465214D01*
X294161Y465193D01*
Y465172D01*
X293113Y465038D01*
X293155Y465221D01*
X293184Y465383D01*
X293212Y465523D01*
X293226Y465650D01*
X293233Y465749D01*
X293240Y465819D01*
Y465882D01*
X293233Y466037D01*
X293219Y466178D01*
X293191Y466319D01*
X293155Y466445D01*
X293113Y466565D01*
X293071Y466677D01*
X293022Y466783D01*
X292973Y466874D01*
X292923Y466959D01*
X292874Y467036D01*
X292832Y467099D01*
X292790Y467149D01*
X292754Y467191D01*
X292726Y467226D01*
X292712Y467240D01*
X292705Y467247D01*
X292600Y467346D01*
X292494Y467423D01*
X292381Y467500D01*
X292269Y467564D01*
X292156Y467613D01*
X292044Y467655D01*
X291931Y467691D01*
X291826Y467719D01*
X291727Y467747D01*
X291636Y467761D01*
X291551Y467775D01*
X291488Y467782D01*
X291425Y467789D01*
X291382D01*
X291354D01*
X291347D01*
X291192Y467782D01*
X291038Y467761D01*
X290897Y467733D01*
X290763Y467697D01*
X290630Y467655D01*
X290517Y467606D01*
X290404Y467550D01*
X290306Y467500D01*
X290215Y467444D01*
X290137Y467388D01*
X290067Y467339D01*
X290010Y467296D01*
X289961Y467261D01*
X289933Y467233D01*
X289912Y467212D01*
X289905Y467205D01*
X289799Y467093D01*
X289715Y466980D01*
X289638Y466860D01*
X289567Y466741D01*
X289511Y466621D01*
X289462Y466502D01*
X289426Y466382D01*
X289391Y466276D01*
X289370Y466171D01*
X289349Y466079D01*
X289342Y465995D01*
X289328Y465918D01*
Y465861D01*
X289321Y465812D01*
Y465777D01*
X289328Y465643D01*
X289342Y465523D01*
X289363Y465404D01*
X289391Y465291D01*
X289426Y465186D01*
X289462Y465087D01*
X289504Y464996D01*
X289546Y464911D01*
X289581Y464834D01*
X289623Y464771D01*
X289659Y464707D01*
X289694Y464665D01*
X289722Y464623D01*
X289743Y464595D01*
X289757Y464581D01*
X289764Y464574D01*
X289856Y464482D01*
X289954Y464405D01*
X290067Y464327D01*
X290186Y464257D01*
X290425Y464137D01*
X290672Y464039D01*
X290784Y464004D01*
X290890Y463969D01*
X290981Y463940D01*
X291066Y463919D01*
X291136Y463898D01*
X291192Y463884D01*
X291221Y463877D01*
X291235D01*
X291073Y462681D01*
X290848Y462709D01*
X290637Y462751D01*
X290440Y462815D01*
X290250Y462878D01*
X290074Y462955D01*
X289912Y463033D01*
X289757Y463117D01*
X289623Y463202D01*
X289504Y463286D01*
X289398Y463363D01*
X289307Y463441D01*
X289229Y463504D01*
X289166Y463560D01*
X289124Y463603D01*
X289096Y463631D01*
X289089Y463638D01*
X288955Y463800D01*
X288835Y463976D01*
X288737Y464151D01*
X288652Y464327D01*
X288575Y464510D01*
X288512Y464686D01*
X288463Y464862D01*
X288427Y465024D01*
X288392Y465179D01*
X288371Y465319D01*
X288350Y465446D01*
X288343Y465559D01*
X288336Y465643D01*
X288329Y465713D01*
Y465770D01*
X288336Y466030D01*
X288364Y466276D01*
X288413Y466516D01*
X288470Y466734D01*
X288533Y466945D01*
X288610Y467135D01*
X288688Y467318D01*
X288772Y467479D01*
X288857Y467620D01*
X288934Y467754D01*
X289011Y467859D01*
X289075Y467951D01*
X289131Y468028D01*
X289180Y468078D01*
X289208Y468106D01*
X289215Y468120D01*
X289384Y468282D01*
X289560Y468429D01*
X289743Y468556D01*
X289926Y468661D01*
X290109Y468753D01*
X290292Y468830D01*
X290461Y468887D01*
X290630Y468936D01*
X290784Y468978D01*
X290925Y469006D01*
X291052Y469027D01*
X291164Y469041D01*
X291249Y469048D01*
X291319Y469055D01*
X291361D01*
X291375D01*
X291551Y469048D01*
D02*
G37*
G36*
X291917Y460289D02*
X291692Y460233D01*
X291488Y460169D01*
X291291Y460099D01*
X291115Y460014D01*
X290946Y459937D01*
X290791Y459846D01*
X290658Y459761D01*
X290531Y459677D01*
X290425Y459599D01*
X290327Y459522D01*
X290250Y459452D01*
X290186Y459388D01*
X290130Y459339D01*
X290095Y459304D01*
X290074Y459276D01*
X290067Y459269D01*
X289961Y459121D01*
X289863Y458973D01*
X289778Y458818D01*
X289708Y458664D01*
X289652Y458509D01*
X289602Y458354D01*
X289560Y458206D01*
X289525Y458065D01*
X289497Y457939D01*
X289483Y457812D01*
X289469Y457707D01*
X289455Y457615D01*
Y457538D01*
X289448Y457482D01*
Y457432D01*
X289455Y457271D01*
X289469Y457109D01*
X289490Y456954D01*
X289518Y456799D01*
X289553Y456658D01*
X289595Y456518D01*
X289631Y456391D01*
X289680Y456271D01*
X289722Y456166D01*
X289757Y456067D01*
X289799Y455983D01*
X289834Y455913D01*
X289863Y455856D01*
X289884Y455814D01*
X289898Y455786D01*
X289905Y455779D01*
X289996Y455638D01*
X290095Y455512D01*
X290200Y455392D01*
X290313Y455279D01*
X290425Y455181D01*
X290545Y455089D01*
X290658Y455005D01*
X290763Y454928D01*
X290869Y454864D01*
X290967Y454808D01*
X291059Y454759D01*
X291136Y454724D01*
X291199Y454688D01*
X291242Y454667D01*
X291277Y454660D01*
X291284Y454653D01*
X291460Y454590D01*
X291643Y454534D01*
X291826Y454484D01*
X292016Y454449D01*
X292374Y454379D01*
X292550Y454358D01*
X292719Y454337D01*
X292867Y454323D01*
X293008Y454315D01*
X293134Y454308D01*
X293240Y454301D01*
X293331Y454294D01*
X293395D01*
X293437D01*
X293451D01*
X293634Y454301D01*
X293810Y454308D01*
X294147Y454344D01*
X294309Y454365D01*
X294464Y454393D01*
X294612Y454421D01*
X294746Y454449D01*
X294872Y454477D01*
X294985Y454498D01*
X295083Y454526D01*
X295168Y454548D01*
X295231Y454569D01*
X295280Y454583D01*
X295315Y454597D01*
X295322D01*
X295491Y454660D01*
X295646Y454731D01*
X295794Y454808D01*
X295928Y454892D01*
X296061Y454977D01*
X296181Y455061D01*
X296286Y455153D01*
X296385Y455237D01*
X296469Y455322D01*
X296547Y455399D01*
X296610Y455469D01*
X296666Y455533D01*
X296709Y455582D01*
X296744Y455617D01*
X296758Y455645D01*
X296765Y455652D01*
X296863Y455800D01*
X296941Y455955D01*
X297018Y456110D01*
X297081Y456264D01*
X297131Y456426D01*
X297173Y456581D01*
X297208Y456729D01*
X297236Y456876D01*
X297264Y457010D01*
X297278Y457137D01*
X297292Y457249D01*
X297299Y457348D01*
X297306Y457425D01*
Y457531D01*
X297299Y457714D01*
X297285Y457883D01*
X297264Y458044D01*
X297229Y458199D01*
X297194Y458340D01*
X297152Y458474D01*
X297110Y458593D01*
X297067Y458706D01*
X297018Y458804D01*
X296976Y458896D01*
X296934Y458973D01*
X296898Y459036D01*
X296863Y459086D01*
X296842Y459121D01*
X296828Y459142D01*
X296821Y459149D01*
X296723Y459269D01*
X296617Y459381D01*
X296497Y459480D01*
X296378Y459578D01*
X296244Y459670D01*
X296117Y459747D01*
X295991Y459824D01*
X295864Y459888D01*
X295745Y459944D01*
X295632Y460000D01*
X295534Y460043D01*
X295449Y460078D01*
X295372Y460106D01*
X295322Y460127D01*
X295287Y460134D01*
X295273Y460141D01*
X295569Y461408D01*
X295815Y461330D01*
X296047Y461232D01*
X296265Y461133D01*
X296469Y461021D01*
X296652Y460908D01*
X296828Y460795D01*
X296983Y460676D01*
X297124Y460563D01*
X297250Y460451D01*
X297356Y460352D01*
X297454Y460261D01*
X297525Y460176D01*
X297588Y460113D01*
X297630Y460057D01*
X297658Y460028D01*
X297665Y460014D01*
X297799Y459824D01*
X297912Y459627D01*
X298010Y459416D01*
X298095Y459212D01*
X298172Y459008D01*
X298228Y458804D01*
X298277Y458607D01*
X298320Y458417D01*
X298348Y458234D01*
X298369Y458073D01*
X298390Y457932D01*
X298397Y457805D01*
X298404Y457700D01*
X298411Y457658D01*
Y457559D01*
X298404Y457320D01*
X298383Y457088D01*
X298355Y456862D01*
X298320Y456644D01*
X298277Y456440D01*
X298221Y456243D01*
X298172Y456060D01*
X298116Y455891D01*
X298059Y455744D01*
X298010Y455603D01*
X297961Y455483D01*
X297912Y455385D01*
X297876Y455300D01*
X297848Y455244D01*
X297827Y455209D01*
X297820Y455195D01*
X297701Y454998D01*
X297574Y454815D01*
X297440Y454646D01*
X297299Y454484D01*
X297159Y454337D01*
X297018Y454203D01*
X296870Y454076D01*
X296737Y453971D01*
X296610Y453872D01*
X296483Y453781D01*
X296378Y453710D01*
X296286Y453647D01*
X296202Y453605D01*
X296146Y453570D01*
X296110Y453549D01*
X296096Y453541D01*
X295878Y453443D01*
X295660Y453352D01*
X295435Y453274D01*
X295210Y453211D01*
X294985Y453154D01*
X294760Y453105D01*
X294548Y453070D01*
X294352Y453035D01*
X294161Y453014D01*
X293986Y452993D01*
X293831Y452986D01*
X293697Y452972D01*
X293592D01*
X293549Y452965D01*
X293514D01*
X293486D01*
X293465D01*
X293451D01*
X293444D01*
X293184Y452972D01*
X292930Y452986D01*
X292684Y453014D01*
X292452Y453042D01*
X292220Y453084D01*
X292009Y453126D01*
X291805Y453176D01*
X291615Y453225D01*
X291446Y453267D01*
X291291Y453316D01*
X291157Y453359D01*
X291045Y453401D01*
X290953Y453429D01*
X290890Y453457D01*
X290848Y453471D01*
X290841Y453478D01*
X290834D01*
X290616Y453577D01*
X290404Y453689D01*
X290215Y453809D01*
X290032Y453928D01*
X289870Y454055D01*
X289715Y454182D01*
X289581Y454301D01*
X289455Y454421D01*
X289342Y454534D01*
X289251Y454639D01*
X289166Y454731D01*
X289103Y454815D01*
X289053Y454885D01*
X289011Y454935D01*
X288990Y454963D01*
X288983Y454977D01*
X288871Y455167D01*
X288772Y455371D01*
X288688Y455582D01*
X288610Y455793D01*
X288554Y456004D01*
X288498Y456222D01*
X288456Y456426D01*
X288420Y456630D01*
X288399Y456813D01*
X288378Y456989D01*
X288364Y457144D01*
X288350Y457277D01*
Y457383D01*
X288343Y457432D01*
Y457538D01*
X288350Y457819D01*
X288378Y458087D01*
X288420Y458340D01*
X288470Y458586D01*
X288533Y458811D01*
X288603Y459022D01*
X288681Y459219D01*
X288758Y459395D01*
X288835Y459557D01*
X288913Y459698D01*
X288983Y459824D01*
X289046Y459923D01*
X289096Y460007D01*
X289138Y460064D01*
X289166Y460099D01*
X289173Y460113D01*
X289342Y460303D01*
X289518Y460479D01*
X289708Y460641D01*
X289905Y460788D01*
X290109Y460922D01*
X290306Y461042D01*
X290503Y461147D01*
X290700Y461239D01*
X290883Y461323D01*
X291052Y461394D01*
X291199Y461450D01*
X291333Y461499D01*
X291439Y461534D01*
X291488Y461548D01*
X291523Y461555D01*
X291551Y461562D01*
X291572Y461569D01*
X291586Y461576D01*
X291593D01*
X291917Y460289D01*
D02*
G37*
G36*
X400441Y487493D02*
X400680Y487472D01*
X400905Y487437D01*
X401116Y487388D01*
X401313Y487332D01*
X401496Y487268D01*
X401658Y487205D01*
X401813Y487142D01*
X401946Y487071D01*
X402066Y487008D01*
X402164Y486945D01*
X402249Y486888D01*
X402312Y486846D01*
X402361Y486804D01*
X402389Y486783D01*
X402397Y486776D01*
X402544Y486635D01*
X402671Y486480D01*
X402791Y486318D01*
X402889Y486150D01*
X402981Y485974D01*
X403058Y485798D01*
X403121Y485629D01*
X403178Y485460D01*
X403220Y485305D01*
X403255Y485158D01*
X403283Y485024D01*
X403304Y484911D01*
X403325Y484820D01*
X403332Y484749D01*
Y484721D01*
X403339Y484700D01*
Y484693D01*
Y484686D01*
X402108Y484560D01*
X402101Y484728D01*
X402087Y484883D01*
X402059Y485031D01*
X402031Y485172D01*
X401988Y485298D01*
X401946Y485411D01*
X401897Y485523D01*
X401848Y485615D01*
X401806Y485699D01*
X401756Y485777D01*
X401714Y485840D01*
X401672Y485896D01*
X401644Y485932D01*
X401616Y485967D01*
X401601Y485981D01*
X401595Y485988D01*
X401496Y486079D01*
X401383Y486157D01*
X401271Y486227D01*
X401158Y486290D01*
X401039Y486339D01*
X400926Y486382D01*
X400813Y486417D01*
X400708Y486445D01*
X400602Y486466D01*
X400511Y486480D01*
X400427Y486494D01*
X400349Y486501D01*
X400293Y486508D01*
X400208D01*
X400061Y486501D01*
X399920Y486487D01*
X399786Y486466D01*
X399660Y486431D01*
X399547Y486396D01*
X399435Y486354D01*
X399336Y486311D01*
X399244Y486262D01*
X399167Y486220D01*
X399097Y486171D01*
X399034Y486129D01*
X398984Y486093D01*
X398942Y486058D01*
X398914Y486037D01*
X398900Y486023D01*
X398893Y486016D01*
X398801Y485924D01*
X398724Y485826D01*
X398653Y485727D01*
X398597Y485622D01*
X398548Y485523D01*
X398506Y485425D01*
X398471Y485326D01*
X398442Y485235D01*
X398421Y485150D01*
X398407Y485073D01*
X398393Y485003D01*
X398386Y484939D01*
X398379Y484890D01*
Y484855D01*
Y484827D01*
Y484820D01*
X398386Y484693D01*
X398400Y484566D01*
X398428Y484440D01*
X398464Y484313D01*
X398555Y484067D01*
X398611Y483954D01*
X398661Y483849D01*
X398710Y483750D01*
X398766Y483659D01*
X398808Y483582D01*
X398851Y483511D01*
X398893Y483462D01*
X398921Y483420D01*
X398935Y483391D01*
X398942Y483385D01*
X399055Y483237D01*
X399195Y483075D01*
X399343Y482913D01*
X399512Y482744D01*
X399681Y482568D01*
X399864Y482399D01*
X400040Y482231D01*
X400223Y482069D01*
X400391Y481914D01*
X400553Y481773D01*
X400694Y481640D01*
X400828Y481534D01*
X400933Y481443D01*
X400975Y481407D01*
X401011Y481372D01*
X401039Y481351D01*
X401060Y481330D01*
X401074Y481323D01*
X401081Y481316D01*
X401264Y481161D01*
X401440Y481013D01*
X401601Y480873D01*
X401756Y480739D01*
X401897Y480605D01*
X402024Y480486D01*
X402136Y480373D01*
X402242Y480268D01*
X402340Y480176D01*
X402418Y480092D01*
X402488Y480021D01*
X402544Y479958D01*
X402587Y479909D01*
X402615Y479874D01*
X402636Y479852D01*
X402643Y479846D01*
X402833Y479606D01*
X402995Y479374D01*
X403128Y479156D01*
X403192Y479058D01*
X403241Y478959D01*
X403283Y478875D01*
X403325Y478797D01*
X403360Y478727D01*
X403382Y478663D01*
X403403Y478614D01*
X403417Y478579D01*
X403431Y478558D01*
Y478551D01*
X403480Y478403D01*
X403515Y478255D01*
X403536Y478115D01*
X403550Y477995D01*
X403558Y477882D01*
X403564Y477840D01*
Y477798D01*
Y477770D01*
Y477749D01*
Y477735D01*
Y477728D01*
X397134D01*
Y478875D01*
X401904D01*
X401827Y478994D01*
X401742Y479114D01*
X401658Y479219D01*
X401580Y479318D01*
X401510Y479395D01*
X401454Y479459D01*
X401419Y479501D01*
X401404Y479515D01*
X401341Y479585D01*
X401257Y479663D01*
X401165Y479747D01*
X401060Y479846D01*
X400947Y479944D01*
X400835Y480050D01*
X400595Y480254D01*
X400483Y480352D01*
X400377Y480443D01*
X400286Y480528D01*
X400194Y480598D01*
X400124Y480662D01*
X400075Y480704D01*
X400040Y480739D01*
X400025Y480746D01*
X399793Y480943D01*
X399575Y481133D01*
X399378Y481309D01*
X399195Y481471D01*
X399026Y481626D01*
X398879Y481766D01*
X398738Y481893D01*
X398618Y482006D01*
X398513Y482111D01*
X398428Y482202D01*
X398351Y482280D01*
X398288Y482343D01*
X398238Y482393D01*
X398210Y482428D01*
X398189Y482449D01*
X398182Y482456D01*
X398084Y482575D01*
X397985Y482688D01*
X397901Y482800D01*
X397823Y482906D01*
X397683Y483110D01*
X397626Y483202D01*
X397577Y483286D01*
X397528Y483363D01*
X397493Y483434D01*
X397457Y483497D01*
X397436Y483546D01*
X397415Y483588D01*
X397401Y483617D01*
X397387Y483638D01*
Y483645D01*
X397310Y483856D01*
X397246Y484060D01*
X397204Y484257D01*
X397176Y484433D01*
X397169Y484510D01*
X397162Y484581D01*
X397155Y484637D01*
X397148Y484693D01*
Y484735D01*
Y484763D01*
Y484785D01*
Y484792D01*
X397155Y485003D01*
X397183Y485207D01*
X397225Y485397D01*
X397275Y485580D01*
X397338Y485748D01*
X397408Y485910D01*
X397486Y486058D01*
X397556Y486192D01*
X397633Y486311D01*
X397711Y486417D01*
X397781Y486508D01*
X397844Y486579D01*
X397894Y486642D01*
X397936Y486684D01*
X397964Y486712D01*
X397971Y486720D01*
X398133Y486860D01*
X398302Y486980D01*
X398478Y487078D01*
X398661Y487170D01*
X398843Y487247D01*
X399034Y487310D01*
X399209Y487360D01*
X399385Y487402D01*
X399547Y487437D01*
X399702Y487458D01*
X399836Y487479D01*
X399955Y487486D01*
X400054Y487493D01*
X400124Y487500D01*
X400187D01*
X400441Y487493D01*
D02*
G37*
G36*
X408771Y487627D02*
X409003Y487606D01*
X409228Y487578D01*
X409446Y487543D01*
X409650Y487500D01*
X409847Y487444D01*
X410030Y487395D01*
X410199Y487339D01*
X410347Y487282D01*
X410488Y487233D01*
X410607Y487184D01*
X410706Y487135D01*
X410790Y487099D01*
X410847Y487071D01*
X410882Y487050D01*
X410896Y487043D01*
X411093Y486923D01*
X411276Y486797D01*
X411445Y486663D01*
X411606Y486522D01*
X411754Y486382D01*
X411888Y486241D01*
X412015Y486093D01*
X412120Y485960D01*
X412219Y485833D01*
X412310Y485706D01*
X412380Y485601D01*
X412444Y485509D01*
X412486Y485425D01*
X412521Y485369D01*
X412542Y485333D01*
X412549Y485319D01*
X412648Y485101D01*
X412739Y484883D01*
X412817Y484658D01*
X412880Y484433D01*
X412936Y484208D01*
X412985Y483983D01*
X413021Y483772D01*
X413056Y483574D01*
X413077Y483385D01*
X413098Y483209D01*
X413105Y483054D01*
X413119Y482920D01*
Y482815D01*
X413126Y482772D01*
Y482737D01*
Y482709D01*
Y482688D01*
Y482674D01*
Y482667D01*
X413119Y482407D01*
X413105Y482153D01*
X413077Y481907D01*
X413049Y481675D01*
X413007Y481443D01*
X412964Y481231D01*
X412915Y481027D01*
X412866Y480838D01*
X412824Y480669D01*
X412774Y480514D01*
X412732Y480380D01*
X412690Y480268D01*
X412662Y480176D01*
X412634Y480113D01*
X412620Y480071D01*
X412613Y480064D01*
Y480057D01*
X412514Y479838D01*
X412402Y479627D01*
X412282Y479437D01*
X412162Y479254D01*
X412036Y479093D01*
X411909Y478938D01*
X411789Y478804D01*
X411670Y478678D01*
X411557Y478565D01*
X411452Y478474D01*
X411360Y478389D01*
X411276Y478326D01*
X411205Y478276D01*
X411156Y478234D01*
X411128Y478213D01*
X411114Y478206D01*
X410924Y478094D01*
X410720Y477995D01*
X410509Y477911D01*
X410298Y477833D01*
X410087Y477777D01*
X409869Y477721D01*
X409665Y477678D01*
X409460Y477643D01*
X409278Y477622D01*
X409102Y477601D01*
X408947Y477587D01*
X408813Y477573D01*
X408708D01*
X408658Y477566D01*
X408553D01*
X408271Y477573D01*
X408004Y477601D01*
X407751Y477643D01*
X407505Y477692D01*
X407279Y477756D01*
X407068Y477826D01*
X406871Y477904D01*
X406696Y477981D01*
X406534Y478058D01*
X406393Y478136D01*
X406266Y478206D01*
X406168Y478270D01*
X406083Y478319D01*
X406027Y478361D01*
X405992Y478389D01*
X405978Y478396D01*
X405788Y478565D01*
X405612Y478741D01*
X405450Y478931D01*
X405302Y479128D01*
X405169Y479332D01*
X405049Y479529D01*
X404944Y479726D01*
X404852Y479923D01*
X404768Y480106D01*
X404697Y480275D01*
X404641Y480422D01*
X404592Y480556D01*
X404557Y480662D01*
X404543Y480711D01*
X404535Y480746D01*
X404528Y480774D01*
X404521Y480795D01*
X404514Y480809D01*
Y480816D01*
X405802Y481140D01*
X405858Y480915D01*
X405922Y480711D01*
X405992Y480514D01*
X406076Y480338D01*
X406154Y480169D01*
X406245Y480014D01*
X406330Y479881D01*
X406414Y479754D01*
X406491Y479649D01*
X406569Y479550D01*
X406639Y479473D01*
X406702Y479409D01*
X406752Y479353D01*
X406787Y479318D01*
X406815Y479297D01*
X406822Y479290D01*
X406970Y479184D01*
X407118Y479086D01*
X407272Y479001D01*
X407427Y478931D01*
X407582Y478875D01*
X407737Y478825D01*
X407884Y478783D01*
X408025Y478748D01*
X408152Y478720D01*
X408279Y478706D01*
X408384Y478692D01*
X408475Y478678D01*
X408553D01*
X408609Y478671D01*
X408658D01*
X408820Y478678D01*
X408982Y478692D01*
X409137Y478713D01*
X409292Y478741D01*
X409432Y478776D01*
X409573Y478818D01*
X409700Y478853D01*
X409819Y478903D01*
X409925Y478945D01*
X410023Y478980D01*
X410108Y479022D01*
X410178Y479058D01*
X410234Y479086D01*
X410277Y479107D01*
X410305Y479121D01*
X410312Y479128D01*
X410453Y479219D01*
X410579Y479318D01*
X410699Y479423D01*
X410811Y479536D01*
X410910Y479649D01*
X411001Y479768D01*
X411086Y479881D01*
X411163Y479986D01*
X411227Y480092D01*
X411283Y480190D01*
X411332Y480282D01*
X411367Y480359D01*
X411402Y480422D01*
X411423Y480465D01*
X411431Y480500D01*
X411438Y480507D01*
X411501Y480683D01*
X411557Y480866D01*
X411606Y481049D01*
X411642Y481239D01*
X411712Y481597D01*
X411733Y481773D01*
X411754Y481942D01*
X411768Y482090D01*
X411775Y482231D01*
X411782Y482357D01*
X411789Y482463D01*
X411796Y482554D01*
Y482618D01*
Y482660D01*
Y482674D01*
X411789Y482857D01*
X411782Y483033D01*
X411747Y483370D01*
X411726Y483532D01*
X411698Y483687D01*
X411670Y483835D01*
X411642Y483969D01*
X411614Y484095D01*
X411592Y484208D01*
X411564Y484306D01*
X411543Y484391D01*
X411522Y484454D01*
X411508Y484503D01*
X411494Y484538D01*
Y484545D01*
X411431Y484714D01*
X411360Y484869D01*
X411283Y485017D01*
X411198Y485150D01*
X411114Y485284D01*
X411030Y485404D01*
X410938Y485509D01*
X410854Y485608D01*
X410769Y485692D01*
X410692Y485770D01*
X410621Y485833D01*
X410558Y485889D01*
X410509Y485932D01*
X410474Y485967D01*
X410446Y485981D01*
X410438Y485988D01*
X410291Y486086D01*
X410136Y486164D01*
X409981Y486241D01*
X409826Y486304D01*
X409665Y486354D01*
X409510Y486396D01*
X409362Y486431D01*
X409214Y486459D01*
X409081Y486487D01*
X408954Y486501D01*
X408841Y486515D01*
X408743Y486522D01*
X408666Y486530D01*
X408560D01*
X408377Y486522D01*
X408208Y486508D01*
X408046Y486487D01*
X407892Y486452D01*
X407751Y486417D01*
X407617Y486375D01*
X407497Y486333D01*
X407385Y486290D01*
X407286Y486241D01*
X407195Y486199D01*
X407118Y486157D01*
X407054Y486121D01*
X407005Y486086D01*
X406970Y486065D01*
X406949Y486051D01*
X406942Y486044D01*
X406822Y485946D01*
X406710Y485840D01*
X406611Y485720D01*
X406512Y485601D01*
X406421Y485467D01*
X406344Y485340D01*
X406266Y485214D01*
X406203Y485087D01*
X406147Y484968D01*
X406090Y484855D01*
X406048Y484757D01*
X406013Y484672D01*
X405985Y484595D01*
X405964Y484545D01*
X405957Y484510D01*
X405950Y484496D01*
X404683Y484792D01*
X404761Y485038D01*
X404859Y485270D01*
X404958Y485488D01*
X405070Y485692D01*
X405183Y485875D01*
X405295Y486051D01*
X405415Y486206D01*
X405527Y486347D01*
X405640Y486473D01*
X405739Y486579D01*
X405830Y486677D01*
X405914Y486748D01*
X405978Y486811D01*
X406034Y486853D01*
X406062Y486881D01*
X406076Y486888D01*
X406266Y487022D01*
X406463Y487135D01*
X406674Y487233D01*
X406878Y487318D01*
X407082Y487395D01*
X407286Y487451D01*
X407483Y487500D01*
X407673Y487543D01*
X407856Y487571D01*
X408018Y487592D01*
X408159Y487613D01*
X408285Y487620D01*
X408391Y487627D01*
X408433Y487634D01*
X408532D01*
X408771Y487627D01*
D02*
G37*
G36*
X396321Y343871D02*
X396391Y343751D01*
X396553Y343519D01*
X396729Y343301D01*
X396821Y343195D01*
X396905Y343097D01*
X396990Y343013D01*
X397067Y342928D01*
X397137Y342858D01*
X397201Y342794D01*
X397250Y342745D01*
X397285Y342710D01*
X397313Y342689D01*
X397320Y342682D01*
X397609Y342443D01*
X397911Y342225D01*
X398207Y342028D01*
X398347Y341943D01*
X398481Y341859D01*
X398601Y341788D01*
X398713Y341725D01*
X398819Y341669D01*
X398903Y341626D01*
X398974Y341591D01*
X399030Y341563D01*
X399058Y341549D01*
X399072Y341542D01*
Y340388D01*
X398861Y340472D01*
X398643Y340571D01*
X398432Y340670D01*
X398235Y340768D01*
X398150Y340817D01*
X398066Y340859D01*
X397996Y340902D01*
X397939Y340937D01*
X397890Y340958D01*
X397848Y340979D01*
X397827Y340993D01*
X397820Y341000D01*
X397566Y341155D01*
X397454Y341232D01*
X397341Y341303D01*
X397243Y341380D01*
X397151Y341443D01*
X397067Y341514D01*
X396982Y341570D01*
X396919Y341626D01*
X396856Y341676D01*
X396800Y341725D01*
X396757Y341760D01*
X396722Y341788D01*
X396701Y341809D01*
X396687Y341823D01*
X396680Y341830D01*
Y334218D01*
X395484D01*
Y343990D01*
X396258D01*
X396321Y343871D01*
D02*
G37*
G36*
X405341Y344117D02*
X405573Y344096D01*
X405798Y344068D01*
X406016Y344033D01*
X406221Y343990D01*
X406418Y343934D01*
X406600Y343885D01*
X406769Y343829D01*
X406917Y343772D01*
X407058Y343723D01*
X407177Y343674D01*
X407276Y343625D01*
X407360Y343589D01*
X407417Y343561D01*
X407452Y343540D01*
X407466Y343533D01*
X407663Y343414D01*
X407846Y343287D01*
X408015Y343153D01*
X408176Y343013D01*
X408324Y342872D01*
X408458Y342731D01*
X408585Y342583D01*
X408690Y342450D01*
X408788Y342323D01*
X408880Y342196D01*
X408950Y342091D01*
X409014Y341999D01*
X409056Y341915D01*
X409091Y341859D01*
X409112Y341823D01*
X409119Y341809D01*
X409218Y341591D01*
X409309Y341373D01*
X409387Y341148D01*
X409450Y340923D01*
X409506Y340698D01*
X409555Y340472D01*
X409591Y340261D01*
X409626Y340065D01*
X409647Y339874D01*
X409668Y339699D01*
X409675Y339544D01*
X409689Y339410D01*
Y339305D01*
X409696Y339262D01*
Y339227D01*
Y339199D01*
Y339178D01*
Y339164D01*
Y339157D01*
X409689Y338896D01*
X409675Y338643D01*
X409647Y338397D01*
X409619Y338165D01*
X409576Y337933D01*
X409534Y337721D01*
X409485Y337518D01*
X409436Y337327D01*
X409394Y337159D01*
X409344Y337004D01*
X409302Y336870D01*
X409260Y336758D01*
X409232Y336666D01*
X409204Y336603D01*
X409190Y336561D01*
X409183Y336554D01*
Y336547D01*
X409084Y336329D01*
X408971Y336117D01*
X408852Y335927D01*
X408732Y335745D01*
X408606Y335583D01*
X408479Y335428D01*
X408359Y335294D01*
X408240Y335168D01*
X408127Y335055D01*
X408022Y334963D01*
X407930Y334879D01*
X407846Y334816D01*
X407775Y334767D01*
X407726Y334724D01*
X407698Y334703D01*
X407684Y334696D01*
X407494Y334584D01*
X407290Y334485D01*
X407079Y334401D01*
X406868Y334323D01*
X406657Y334267D01*
X406439Y334211D01*
X406235Y334169D01*
X406031Y334133D01*
X405848Y334112D01*
X405672Y334091D01*
X405517Y334077D01*
X405383Y334063D01*
X405278D01*
X405228Y334056D01*
X405123D01*
X404841Y334063D01*
X404574Y334091D01*
X404321Y334133D01*
X404075Y334183D01*
X403849Y334246D01*
X403638Y334316D01*
X403441Y334394D01*
X403265Y334471D01*
X403104Y334548D01*
X402963Y334626D01*
X402836Y334696D01*
X402738Y334759D01*
X402653Y334809D01*
X402597Y334851D01*
X402562Y334879D01*
X402548Y334886D01*
X402358Y335055D01*
X402182Y335231D01*
X402020Y335421D01*
X401872Y335618D01*
X401739Y335822D01*
X401619Y336019D01*
X401513Y336216D01*
X401422Y336413D01*
X401338Y336596D01*
X401267Y336765D01*
X401211Y336912D01*
X401162Y337046D01*
X401127Y337152D01*
X401113Y337201D01*
X401105Y337236D01*
X401098Y337264D01*
X401091Y337285D01*
X401084Y337299D01*
Y337306D01*
X402372Y337630D01*
X402428Y337405D01*
X402491Y337201D01*
X402562Y337004D01*
X402646Y336828D01*
X402724Y336659D01*
X402815Y336504D01*
X402900Y336371D01*
X402984Y336244D01*
X403061Y336138D01*
X403139Y336040D01*
X403209Y335963D01*
X403273Y335899D01*
X403322Y335843D01*
X403357Y335808D01*
X403385Y335787D01*
X403392Y335780D01*
X403540Y335674D01*
X403688Y335576D01*
X403842Y335491D01*
X403997Y335421D01*
X404152Y335365D01*
X404307Y335315D01*
X404454Y335273D01*
X404595Y335238D01*
X404722Y335210D01*
X404849Y335196D01*
X404954Y335182D01*
X405046Y335168D01*
X405123D01*
X405179Y335160D01*
X405228D01*
X405390Y335168D01*
X405552Y335182D01*
X405707Y335203D01*
X405862Y335231D01*
X406002Y335266D01*
X406143Y335308D01*
X406270Y335343D01*
X406389Y335393D01*
X406495Y335435D01*
X406593Y335470D01*
X406678Y335512D01*
X406748Y335547D01*
X406804Y335576D01*
X406847Y335597D01*
X406875Y335611D01*
X406882Y335618D01*
X407023Y335709D01*
X407149Y335808D01*
X407269Y335913D01*
X407381Y336026D01*
X407480Y336138D01*
X407571Y336258D01*
X407656Y336371D01*
X407733Y336476D01*
X407797Y336582D01*
X407853Y336680D01*
X407902Y336772D01*
X407937Y336849D01*
X407972Y336912D01*
X407994Y336955D01*
X408000Y336990D01*
X408008Y336997D01*
X408071Y337173D01*
X408127Y337356D01*
X408176Y337539D01*
X408212Y337729D01*
X408282Y338087D01*
X408303Y338263D01*
X408324Y338432D01*
X408338Y338580D01*
X408345Y338721D01*
X408352Y338847D01*
X408359Y338953D01*
X408366Y339044D01*
Y339108D01*
Y339150D01*
Y339164D01*
X408359Y339347D01*
X408352Y339523D01*
X408317Y339860D01*
X408296Y340022D01*
X408268Y340177D01*
X408240Y340325D01*
X408212Y340458D01*
X408184Y340585D01*
X408162Y340698D01*
X408134Y340796D01*
X408113Y340881D01*
X408092Y340944D01*
X408078Y340993D01*
X408064Y341028D01*
Y341035D01*
X408000Y341204D01*
X407930Y341359D01*
X407853Y341507D01*
X407768Y341641D01*
X407684Y341774D01*
X407599Y341894D01*
X407508Y341999D01*
X407424Y342098D01*
X407339Y342182D01*
X407262Y342260D01*
X407191Y342323D01*
X407128Y342379D01*
X407079Y342421D01*
X407044Y342457D01*
X407015Y342471D01*
X407009Y342478D01*
X406861Y342576D01*
X406706Y342654D01*
X406551Y342731D01*
X406396Y342794D01*
X406235Y342844D01*
X406080Y342886D01*
X405932Y342921D01*
X405784Y342949D01*
X405651Y342977D01*
X405524Y342991D01*
X405411Y343005D01*
X405313Y343013D01*
X405235Y343019D01*
X405130D01*
X404947Y343013D01*
X404778Y342998D01*
X404616Y342977D01*
X404462Y342942D01*
X404321Y342907D01*
X404187Y342865D01*
X404067Y342822D01*
X403955Y342780D01*
X403856Y342731D01*
X403765Y342689D01*
X403688Y342647D01*
X403624Y342611D01*
X403575Y342576D01*
X403540Y342555D01*
X403519Y342541D01*
X403512Y342534D01*
X403392Y342435D01*
X403279Y342330D01*
X403181Y342210D01*
X403083Y342091D01*
X402991Y341957D01*
X402914Y341830D01*
X402836Y341704D01*
X402773Y341577D01*
X402717Y341458D01*
X402660Y341345D01*
X402618Y341246D01*
X402583Y341162D01*
X402555Y341085D01*
X402534Y341035D01*
X402527Y341000D01*
X402520Y340986D01*
X401253Y341282D01*
X401331Y341528D01*
X401429Y341760D01*
X401528Y341978D01*
X401640Y342182D01*
X401753Y342365D01*
X401865Y342541D01*
X401985Y342696D01*
X402098Y342837D01*
X402210Y342963D01*
X402309Y343069D01*
X402400Y343167D01*
X402485Y343238D01*
X402548Y343301D01*
X402604Y343343D01*
X402632Y343371D01*
X402646Y343378D01*
X402836Y343512D01*
X403033Y343625D01*
X403244Y343723D01*
X403448Y343807D01*
X403652Y343885D01*
X403856Y343941D01*
X404053Y343990D01*
X404243Y344033D01*
X404426Y344061D01*
X404588Y344082D01*
X404729Y344103D01*
X404855Y344110D01*
X404961Y344117D01*
X405003Y344124D01*
X405102D01*
X405341Y344117D01*
D02*
G37*
%LPC*%
G36*
X333792Y410727D02*
X333756D01*
X333602Y410720D01*
X333461Y410699D01*
X333320Y410671D01*
X333187Y410636D01*
X333067Y410593D01*
X332954Y410544D01*
X332849Y410495D01*
X332750Y410439D01*
X332666Y410382D01*
X332589Y410333D01*
X332525Y410284D01*
X332469Y410242D01*
X332427Y410206D01*
X332399Y410171D01*
X332378Y410157D01*
X332370Y410150D01*
X332272Y410038D01*
X332188Y409918D01*
X332110Y409791D01*
X332047Y409665D01*
X331998Y409538D01*
X331948Y409411D01*
X331913Y409292D01*
X331885Y409172D01*
X331864Y409067D01*
X331843Y408961D01*
X331829Y408870D01*
X331822Y408792D01*
Y408729D01*
X331815Y408680D01*
Y408644D01*
Y408638D01*
X331822Y408447D01*
X331843Y408265D01*
X331871Y408096D01*
X331906Y407941D01*
X331948Y407786D01*
X331998Y407653D01*
X332054Y407526D01*
X332110Y407406D01*
X332159Y407308D01*
X332216Y407216D01*
X332265Y407139D01*
X332307Y407076D01*
X332342Y407019D01*
X332370Y406984D01*
X332392Y406963D01*
X332399Y406956D01*
X332511Y406843D01*
X332631Y406738D01*
X332743Y406653D01*
X332863Y406576D01*
X332983Y406513D01*
X333102Y406463D01*
X333208Y406421D01*
X333320Y406386D01*
X333419Y406358D01*
X333510Y406337D01*
X333588Y406323D01*
X333658Y406309D01*
X333714D01*
X333756Y406302D01*
X333792D01*
X333932Y406309D01*
X334066Y406330D01*
X334200Y406358D01*
X334319Y406393D01*
X334439Y406442D01*
X334544Y406492D01*
X334643Y406548D01*
X334734Y406604D01*
X334819Y406660D01*
X334896Y406717D01*
X334960Y406766D01*
X335009Y406815D01*
X335051Y406850D01*
X335079Y406879D01*
X335100Y406900D01*
X335107Y406907D01*
X335206Y407026D01*
X335290Y407153D01*
X335361Y407280D01*
X335424Y407413D01*
X335480Y407554D01*
X335522Y407688D01*
X335558Y407821D01*
X335586Y407948D01*
X335607Y408068D01*
X335628Y408180D01*
X335642Y408279D01*
X335649Y408370D01*
X335656Y408441D01*
Y408497D01*
Y408525D01*
Y408539D01*
X335649Y408729D01*
X335635Y408905D01*
X335607Y409067D01*
X335572Y409221D01*
X335530Y409369D01*
X335487Y409503D01*
X335438Y409622D01*
X335389Y409728D01*
X335340Y409827D01*
X335290Y409911D01*
X335248Y409981D01*
X335206Y410045D01*
X335171Y410087D01*
X335143Y410122D01*
X335129Y410143D01*
X335121Y410150D01*
X335016Y410249D01*
X334910Y410340D01*
X334798Y410418D01*
X334685Y410481D01*
X334566Y410537D01*
X334453Y410586D01*
X334347Y410622D01*
X334242Y410657D01*
X334136Y410678D01*
X334045Y410699D01*
X333968Y410706D01*
X333897Y410720D01*
X333834D01*
X333792Y410727D01*
D02*
G37*
G36*
X291685Y495764D02*
X291629D01*
X291600D01*
X291586D01*
X291397Y495757D01*
X291213Y495743D01*
X291045Y495715D01*
X290883Y495680D01*
X290735Y495638D01*
X290601Y495588D01*
X290475Y495539D01*
X290362Y495490D01*
X290264Y495440D01*
X290172Y495391D01*
X290102Y495342D01*
X290039Y495300D01*
X289989Y495265D01*
X289954Y495237D01*
X289933Y495222D01*
X289926Y495215D01*
X289820Y495110D01*
X289729Y495004D01*
X289645Y494892D01*
X289574Y494786D01*
X289518Y494674D01*
X289469Y494568D01*
X289426Y494463D01*
X289398Y494364D01*
X289370Y494266D01*
X289356Y494181D01*
X289342Y494104D01*
X289328Y494040D01*
Y493991D01*
X289321Y493949D01*
Y493914D01*
X289335Y493724D01*
X289363Y493541D01*
X289412Y493372D01*
X289469Y493224D01*
X289490Y493154D01*
X289518Y493098D01*
X289546Y493048D01*
X289567Y493006D01*
X289581Y492971D01*
X289595Y492943D01*
X289609Y492929D01*
Y492922D01*
X289729Y492760D01*
X289870Y492612D01*
X290010Y492486D01*
X290151Y492387D01*
X290278Y492303D01*
X290327Y492274D01*
X290376Y492246D01*
X290411Y492225D01*
X290447Y492211D01*
X290461Y492197D01*
X290468D01*
X290686Y492113D01*
X290897Y492049D01*
X291094Y492000D01*
X291277Y491972D01*
X291354Y491958D01*
X291432Y491951D01*
X291495Y491944D01*
X291551D01*
X291593Y491937D01*
X291629D01*
X291650D01*
X291657D01*
X291826Y491944D01*
X291987Y491958D01*
X292142Y491986D01*
X292290Y492028D01*
X292424Y492070D01*
X292550Y492113D01*
X292663Y492169D01*
X292768Y492218D01*
X292860Y492267D01*
X292944Y492324D01*
X293015Y492366D01*
X293071Y492415D01*
X293113Y492450D01*
X293148Y492478D01*
X293169Y492492D01*
X293176Y492500D01*
X293282Y492605D01*
X293367Y492718D01*
X293451Y492837D01*
X293514Y492950D01*
X293570Y493069D01*
X293620Y493182D01*
X293655Y493295D01*
X293690Y493400D01*
X293711Y493499D01*
X293732Y493583D01*
X293739Y493667D01*
X293754Y493738D01*
Y493794D01*
X293761Y493836D01*
Y493872D01*
X293754Y494019D01*
X293732Y494167D01*
X293704Y494301D01*
X293669Y494427D01*
X293627Y494547D01*
X293578Y494660D01*
X293521Y494758D01*
X293472Y494857D01*
X293416Y494934D01*
X293360Y495011D01*
X293310Y495075D01*
X293268Y495124D01*
X293233Y495166D01*
X293205Y495201D01*
X293184Y495215D01*
X293176Y495222D01*
X293064Y495321D01*
X292937Y495398D01*
X292811Y495476D01*
X292684Y495539D01*
X292550Y495588D01*
X292417Y495630D01*
X292290Y495666D01*
X292163Y495694D01*
X292044Y495722D01*
X291938Y495736D01*
X291840Y495750D01*
X291755Y495757D01*
X291685Y495764D01*
D02*
G37*
G36*
X301426Y359586D02*
X298372D01*
X301426Y355196D01*
Y359586D01*
D02*
G37*
%LPD*%
D12*
X781050Y718820D02*
G03*
X781050Y718820I-3810J0D01*
G01*
D14*
X353450Y358530D02*
Y375530D01*
X370450Y358530D02*
Y375530D01*
X394090Y349640D02*
X411090D01*
X394090Y366640D02*
X411090D01*
X291220Y401710D02*
X308220D01*
X291220Y418710D02*
X308220D01*
X264550Y350910D02*
X281550D01*
X264550Y367910D02*
X281550D01*
X262010Y479180D02*
X279010D01*
X262010Y496180D02*
X279010D01*
X262010Y452510D02*
X279010D01*
X262010Y469510D02*
X279010D01*
X396630D02*
X413630D01*
X396630Y452510D02*
X413630D01*
M02*
