G04*
G04 #@! TF.GenerationSoftware,Altium Limited,Altium Designer,25.4.2 (15)*
G04*
G04 Layer_Color=32896*
%FSLAX44Y44*%
%MOMM*%
G71*
G04*
G04 #@! TF.SameCoordinates,3376916D-7717-44A7-936A-FC15E23AF39E*
G04*
G04*
G04 #@! TF.FilePolarity,Positive*
G04*
G01*
G75*
%ADD14C,0.2000*%
G36*
X368371Y373460D02*
X367617D01*
Y376594D01*
X367488Y376483D01*
X367349Y376372D01*
X367067Y376165D01*
X366924Y376067D01*
X366785Y375970D01*
X366651Y375882D01*
X366522Y375804D01*
X366402Y375730D01*
X366291Y375661D01*
X366189Y375605D01*
X366106Y375554D01*
X366036Y375517D01*
X366009Y375499D01*
X365986Y375485D01*
X365962Y375476D01*
X365949Y375466D01*
X365944Y375462D01*
X365939D01*
X365754Y375365D01*
X365565Y375277D01*
X365380Y375189D01*
X365200Y375111D01*
X365024Y375041D01*
X364853Y374972D01*
X364691Y374912D01*
X364539Y374856D01*
X364395Y374810D01*
X364271Y374768D01*
X364155Y374731D01*
X364062Y374704D01*
X364021Y374690D01*
X363984Y374681D01*
X363951Y374671D01*
X363924Y374662D01*
X363905Y374657D01*
X363891Y374653D01*
X363882Y374648D01*
X363878D01*
X363683Y374597D01*
X363494Y374556D01*
X363314Y374519D01*
X363143Y374482D01*
X362981Y374454D01*
X362833Y374431D01*
X362694Y374412D01*
X362565Y374399D01*
X362454Y374385D01*
X362352Y374375D01*
X362264Y374366D01*
X362190Y374362D01*
X362135D01*
X362089Y374357D01*
X362065D01*
X362056D01*
Y375166D01*
X362232Y375180D01*
X362407Y375198D01*
X362574Y375217D01*
X362731Y375240D01*
X362884Y375263D01*
X363032Y375291D01*
X363166Y375314D01*
X363290Y375342D01*
X363406Y375365D01*
X363508Y375388D01*
X363596Y375411D01*
X363674Y375429D01*
X363734Y375443D01*
X363776Y375457D01*
X363804Y375462D01*
X363813Y375466D01*
X364025Y375531D01*
X364238Y375601D01*
X364442Y375670D01*
X364640Y375748D01*
X364835Y375822D01*
X365015Y375901D01*
X365191Y375975D01*
X365352Y376049D01*
X365500Y376118D01*
X365630Y376183D01*
X365745Y376243D01*
X365801Y376266D01*
X365847Y376294D01*
X365888Y376312D01*
X365925Y376335D01*
X365958Y376349D01*
X365986Y376363D01*
X366004Y376377D01*
X366018Y376386D01*
X366027Y376391D01*
X366032D01*
X366231Y376502D01*
X366415Y376618D01*
X366591Y376724D01*
X366758Y376835D01*
X366910Y376936D01*
X367053Y377038D01*
X367183Y377135D01*
X367299Y377223D01*
X367405Y377302D01*
X367497Y377376D01*
X367576Y377440D01*
X367640Y377496D01*
X367691Y377542D01*
X367733Y377574D01*
X367752Y377598D01*
X367761Y377602D01*
X368371D01*
Y373460D01*
D02*
G37*
G36*
X364298Y371842D02*
X364150Y371805D01*
X364016Y371764D01*
X363887Y371717D01*
X363771Y371662D01*
X363660Y371611D01*
X363559Y371551D01*
X363471Y371495D01*
X363388Y371440D01*
X363318Y371389D01*
X363254Y371338D01*
X363203Y371292D01*
X363161Y371250D01*
X363124Y371218D01*
X363101Y371195D01*
X363087Y371176D01*
X363083Y371172D01*
X363013Y371075D01*
X362948Y370978D01*
X362893Y370876D01*
X362847Y370774D01*
X362810Y370673D01*
X362777Y370571D01*
X362750Y370474D01*
X362727Y370381D01*
X362708Y370298D01*
X362699Y370215D01*
X362690Y370146D01*
X362680Y370085D01*
Y370035D01*
X362676Y369998D01*
Y369965D01*
X362680Y369859D01*
X362690Y369753D01*
X362703Y369651D01*
X362722Y369549D01*
X362745Y369457D01*
X362773Y369364D01*
X362796Y369281D01*
X362828Y369202D01*
X362856Y369133D01*
X362879Y369068D01*
X362907Y369013D01*
X362930Y368967D01*
X362948Y368930D01*
X362962Y368902D01*
X362971Y368884D01*
X362976Y368879D01*
X363036Y368787D01*
X363101Y368703D01*
X363170Y368625D01*
X363244Y368551D01*
X363318Y368486D01*
X363397Y368426D01*
X363471Y368370D01*
X363540Y368320D01*
X363610Y368278D01*
X363674Y368241D01*
X363734Y368209D01*
X363785Y368186D01*
X363827Y368162D01*
X363854Y368148D01*
X363878Y368144D01*
X363882Y368139D01*
X363998Y368098D01*
X364118Y368061D01*
X364238Y368028D01*
X364363Y368005D01*
X364599Y367959D01*
X364714Y367945D01*
X364825Y367931D01*
X364922Y367922D01*
X365015Y367917D01*
X365098Y367913D01*
X365167Y367908D01*
X365227Y367904D01*
X365269D01*
X365297D01*
X365306D01*
X365426Y367908D01*
X365542Y367913D01*
X365764Y367936D01*
X365870Y367950D01*
X365972Y367968D01*
X366069Y367987D01*
X366157Y368005D01*
X366240Y368024D01*
X366314Y368038D01*
X366379Y368056D01*
X366434Y368070D01*
X366476Y368084D01*
X366508Y368093D01*
X366531Y368102D01*
X366536D01*
X366647Y368144D01*
X366748Y368190D01*
X366845Y368241D01*
X366933Y368297D01*
X367021Y368352D01*
X367100Y368407D01*
X367169Y368467D01*
X367234Y368523D01*
X367289Y368578D01*
X367340Y368629D01*
X367382Y368675D01*
X367419Y368717D01*
X367446Y368750D01*
X367469Y368773D01*
X367479Y368791D01*
X367483Y368796D01*
X367548Y368893D01*
X367599Y368994D01*
X367650Y369096D01*
X367691Y369198D01*
X367724Y369304D01*
X367752Y369406D01*
X367775Y369503D01*
X367793Y369600D01*
X367812Y369688D01*
X367821Y369771D01*
X367830Y369845D01*
X367835Y369910D01*
X367839Y369961D01*
Y370030D01*
X367835Y370150D01*
X367826Y370261D01*
X367812Y370368D01*
X367789Y370469D01*
X367765Y370562D01*
X367738Y370649D01*
X367710Y370728D01*
X367682Y370802D01*
X367650Y370867D01*
X367622Y370927D01*
X367594Y370978D01*
X367571Y371019D01*
X367548Y371052D01*
X367534Y371075D01*
X367525Y371089D01*
X367520Y371093D01*
X367456Y371172D01*
X367386Y371246D01*
X367308Y371311D01*
X367229Y371375D01*
X367141Y371435D01*
X367058Y371486D01*
X366975Y371537D01*
X366892Y371579D01*
X366813Y371616D01*
X366739Y371653D01*
X366674Y371680D01*
X366619Y371703D01*
X366568Y371722D01*
X366536Y371736D01*
X366513Y371740D01*
X366503Y371745D01*
X366698Y372577D01*
X366859Y372526D01*
X367012Y372462D01*
X367155Y372397D01*
X367289Y372323D01*
X367409Y372249D01*
X367525Y372175D01*
X367627Y372096D01*
X367719Y372022D01*
X367802Y371949D01*
X367872Y371884D01*
X367936Y371824D01*
X367983Y371768D01*
X368024Y371727D01*
X368052Y371690D01*
X368070Y371671D01*
X368075Y371662D01*
X368163Y371537D01*
X368237Y371408D01*
X368302Y371269D01*
X368357Y371135D01*
X368408Y371001D01*
X368445Y370867D01*
X368477Y370737D01*
X368505Y370612D01*
X368523Y370492D01*
X368537Y370386D01*
X368551Y370294D01*
X368556Y370210D01*
X368560Y370141D01*
X368565Y370113D01*
Y370048D01*
X368560Y369891D01*
X368547Y369739D01*
X368528Y369591D01*
X368505Y369448D01*
X368477Y369314D01*
X368440Y369184D01*
X368408Y369064D01*
X368371Y368953D01*
X368334Y368856D01*
X368302Y368763D01*
X368269Y368685D01*
X368237Y368620D01*
X368214Y368565D01*
X368195Y368528D01*
X368181Y368504D01*
X368177Y368495D01*
X368098Y368366D01*
X368015Y368246D01*
X367927Y368135D01*
X367835Y368028D01*
X367742Y367931D01*
X367650Y367843D01*
X367553Y367760D01*
X367465Y367691D01*
X367382Y367626D01*
X367299Y367566D01*
X367229Y367520D01*
X367169Y367478D01*
X367113Y367450D01*
X367077Y367427D01*
X367053Y367413D01*
X367044Y367409D01*
X366901Y367344D01*
X366758Y367284D01*
X366610Y367233D01*
X366462Y367192D01*
X366314Y367155D01*
X366166Y367122D01*
X366027Y367099D01*
X365898Y367076D01*
X365773Y367062D01*
X365657Y367048D01*
X365556Y367044D01*
X365468Y367034D01*
X365398D01*
X365371Y367030D01*
X365348D01*
X365329D01*
X365315D01*
X365306D01*
X365301D01*
X365130Y367034D01*
X364964Y367044D01*
X364802Y367062D01*
X364650Y367081D01*
X364497Y367108D01*
X364358Y367136D01*
X364224Y367169D01*
X364100Y367201D01*
X363988Y367229D01*
X363887Y367261D01*
X363799Y367289D01*
X363725Y367316D01*
X363665Y367335D01*
X363623Y367353D01*
X363596Y367363D01*
X363591Y367367D01*
X363586D01*
X363443Y367432D01*
X363304Y367506D01*
X363180Y367585D01*
X363059Y367663D01*
X362953Y367746D01*
X362851Y367830D01*
X362763Y367908D01*
X362680Y367987D01*
X362606Y368061D01*
X362546Y368130D01*
X362491Y368190D01*
X362449Y368246D01*
X362417Y368292D01*
X362389Y368324D01*
X362375Y368343D01*
X362370Y368352D01*
X362297Y368477D01*
X362232Y368611D01*
X362176Y368750D01*
X362126Y368888D01*
X362089Y369027D01*
X362052Y369170D01*
X362024Y369304D01*
X362001Y369438D01*
X361987Y369558D01*
X361973Y369674D01*
X361964Y369776D01*
X361954Y369864D01*
Y369933D01*
X361950Y369965D01*
Y370035D01*
X361954Y370220D01*
X361973Y370395D01*
X362001Y370562D01*
X362033Y370723D01*
X362075Y370871D01*
X362121Y371010D01*
X362172Y371139D01*
X362223Y371255D01*
X362273Y371361D01*
X362324Y371454D01*
X362370Y371537D01*
X362412Y371602D01*
X362444Y371657D01*
X362472Y371694D01*
X362491Y371717D01*
X362495Y371727D01*
X362606Y371851D01*
X362722Y371967D01*
X362847Y372073D01*
X362976Y372170D01*
X363110Y372258D01*
X363240Y372337D01*
X363369Y372406D01*
X363498Y372466D01*
X363619Y372522D01*
X363730Y372568D01*
X363827Y372605D01*
X363915Y372637D01*
X363984Y372660D01*
X364016Y372670D01*
X364039Y372674D01*
X364058Y372679D01*
X364072Y372683D01*
X364081Y372688D01*
X364086D01*
X364298Y371842D01*
D02*
G37*
G36*
X393802Y364589D02*
X393848Y364510D01*
X393955Y364357D01*
X394070Y364214D01*
X394130Y364145D01*
X394186Y364080D01*
X394241Y364025D01*
X394292Y363969D01*
X394338Y363923D01*
X394380Y363881D01*
X394412Y363849D01*
X394436Y363826D01*
X394454Y363812D01*
X394459Y363807D01*
X394648Y363650D01*
X394847Y363507D01*
X395041Y363377D01*
X395134Y363322D01*
X395221Y363267D01*
X395300Y363220D01*
X395374Y363179D01*
X395443Y363142D01*
X395499Y363114D01*
X395545Y363091D01*
X395582Y363072D01*
X395601Y363063D01*
X395610Y363059D01*
Y362300D01*
X395471Y362356D01*
X395328Y362421D01*
X395189Y362485D01*
X395060Y362550D01*
X395004Y362582D01*
X394949Y362610D01*
X394902Y362638D01*
X394865Y362661D01*
X394833Y362675D01*
X394805Y362689D01*
X394791Y362698D01*
X394787Y362703D01*
X394620Y362804D01*
X394547Y362855D01*
X394473Y362901D01*
X394408Y362952D01*
X394348Y362994D01*
X394292Y363040D01*
X394237Y363077D01*
X394195Y363114D01*
X394154Y363146D01*
X394117Y363179D01*
X394089Y363202D01*
X394066Y363220D01*
X394052Y363234D01*
X394043Y363243D01*
X394038Y363248D01*
Y358246D01*
X393252D01*
Y364667D01*
X393761D01*
X393802Y364589D01*
D02*
G37*
G36*
X399729Y364751D02*
X399881Y364737D01*
X400029Y364718D01*
X400172Y364695D01*
X400307Y364667D01*
X400436Y364630D01*
X400556Y364598D01*
X400667Y364561D01*
X400764Y364524D01*
X400857Y364492D01*
X400935Y364459D01*
X401000Y364427D01*
X401055Y364404D01*
X401092Y364385D01*
X401115Y364371D01*
X401125Y364367D01*
X401254Y364288D01*
X401374Y364205D01*
X401485Y364117D01*
X401592Y364025D01*
X401689Y363932D01*
X401777Y363840D01*
X401860Y363743D01*
X401929Y363655D01*
X401994Y363572D01*
X402054Y363489D01*
X402100Y363419D01*
X402142Y363359D01*
X402169Y363303D01*
X402193Y363267D01*
X402206Y363243D01*
X402211Y363234D01*
X402276Y363091D01*
X402336Y362948D01*
X402387Y362800D01*
X402428Y362652D01*
X402465Y362504D01*
X402498Y362356D01*
X402521Y362217D01*
X402544Y362088D01*
X402558Y361963D01*
X402572Y361847D01*
X402576Y361746D01*
X402585Y361658D01*
Y361589D01*
X402590Y361561D01*
Y361538D01*
Y361519D01*
Y361505D01*
Y361496D01*
Y361491D01*
X402585Y361320D01*
X402576Y361154D01*
X402558Y360992D01*
X402539Y360840D01*
X402511Y360687D01*
X402484Y360548D01*
X402451Y360414D01*
X402419Y360289D01*
X402391Y360178D01*
X402359Y360077D01*
X402331Y359989D01*
X402304Y359915D01*
X402285Y359855D01*
X402267Y359813D01*
X402257Y359786D01*
X402253Y359781D01*
Y359776D01*
X402188Y359633D01*
X402114Y359494D01*
X402035Y359370D01*
X401957Y359249D01*
X401874Y359143D01*
X401790Y359041D01*
X401712Y358954D01*
X401633Y358870D01*
X401559Y358796D01*
X401490Y358736D01*
X401430Y358681D01*
X401374Y358639D01*
X401328Y358607D01*
X401296Y358579D01*
X401277Y358565D01*
X401268Y358560D01*
X401143Y358487D01*
X401009Y358422D01*
X400870Y358366D01*
X400732Y358316D01*
X400593Y358279D01*
X400450Y358242D01*
X400316Y358214D01*
X400182Y358191D01*
X400061Y358177D01*
X399946Y358163D01*
X399844Y358154D01*
X399756Y358144D01*
X399687D01*
X399655Y358140D01*
X399585D01*
X399400Y358144D01*
X399225Y358163D01*
X399058Y358191D01*
X398896Y358223D01*
X398749Y358265D01*
X398610Y358311D01*
X398480Y358362D01*
X398365Y358413D01*
X398259Y358464D01*
X398166Y358514D01*
X398083Y358560D01*
X398018Y358602D01*
X397963Y358634D01*
X397926Y358662D01*
X397903Y358681D01*
X397893Y358685D01*
X397769Y358796D01*
X397653Y358912D01*
X397547Y359037D01*
X397450Y359166D01*
X397362Y359300D01*
X397283Y359430D01*
X397214Y359559D01*
X397154Y359688D01*
X397098Y359809D01*
X397052Y359920D01*
X397015Y360017D01*
X396983Y360105D01*
X396960Y360174D01*
X396950Y360206D01*
X396946Y360229D01*
X396941Y360248D01*
X396936Y360262D01*
X396932Y360271D01*
Y360276D01*
X397778Y360488D01*
X397815Y360340D01*
X397856Y360206D01*
X397903Y360077D01*
X397958Y359961D01*
X398009Y359850D01*
X398069Y359749D01*
X398125Y359661D01*
X398180Y359578D01*
X398231Y359508D01*
X398282Y359444D01*
X398328Y359393D01*
X398369Y359351D01*
X398402Y359314D01*
X398425Y359291D01*
X398443Y359277D01*
X398448Y359272D01*
X398545Y359203D01*
X398642Y359138D01*
X398744Y359083D01*
X398846Y359037D01*
X398947Y359000D01*
X399049Y358967D01*
X399146Y358940D01*
X399239Y358917D01*
X399322Y358898D01*
X399405Y358889D01*
X399474Y358880D01*
X399534Y358870D01*
X399585D01*
X399622Y358866D01*
X399655D01*
X399761Y358870D01*
X399867Y358880D01*
X399969Y358893D01*
X400071Y358912D01*
X400163Y358935D01*
X400256Y358963D01*
X400339Y358986D01*
X400417Y359018D01*
X400487Y359046D01*
X400551Y359069D01*
X400607Y359097D01*
X400653Y359120D01*
X400690Y359138D01*
X400718Y359152D01*
X400736Y359161D01*
X400741Y359166D01*
X400834Y359226D01*
X400917Y359291D01*
X400995Y359360D01*
X401069Y359434D01*
X401134Y359508D01*
X401194Y359587D01*
X401250Y359661D01*
X401300Y359730D01*
X401342Y359799D01*
X401379Y359864D01*
X401411Y359924D01*
X401434Y359975D01*
X401457Y360017D01*
X401471Y360045D01*
X401476Y360068D01*
X401481Y360072D01*
X401522Y360188D01*
X401559Y360308D01*
X401592Y360428D01*
X401615Y360553D01*
X401661Y360789D01*
X401675Y360904D01*
X401689Y361015D01*
X401698Y361112D01*
X401702Y361205D01*
X401707Y361288D01*
X401712Y361357D01*
X401716Y361417D01*
Y361459D01*
Y361487D01*
Y361496D01*
X401712Y361616D01*
X401707Y361732D01*
X401684Y361954D01*
X401670Y362060D01*
X401652Y362162D01*
X401633Y362259D01*
X401615Y362347D01*
X401596Y362430D01*
X401582Y362504D01*
X401564Y362569D01*
X401550Y362624D01*
X401536Y362666D01*
X401527Y362698D01*
X401518Y362721D01*
Y362726D01*
X401476Y362837D01*
X401430Y362938D01*
X401379Y363035D01*
X401324Y363123D01*
X401268Y363211D01*
X401213Y363290D01*
X401152Y363359D01*
X401097Y363424D01*
X401041Y363479D01*
X400991Y363530D01*
X400944Y363572D01*
X400903Y363609D01*
X400870Y363636D01*
X400847Y363660D01*
X400829Y363669D01*
X400824Y363673D01*
X400727Y363738D01*
X400625Y363789D01*
X400524Y363840D01*
X400422Y363881D01*
X400316Y363914D01*
X400214Y363941D01*
X400117Y363965D01*
X400020Y363983D01*
X399932Y364002D01*
X399849Y364011D01*
X399775Y364020D01*
X399710Y364025D01*
X399659Y364029D01*
X399590D01*
X399470Y364025D01*
X399359Y364016D01*
X399253Y364002D01*
X399151Y363979D01*
X399058Y363955D01*
X398970Y363928D01*
X398892Y363900D01*
X398818Y363872D01*
X398753Y363840D01*
X398693Y363812D01*
X398642Y363784D01*
X398601Y363761D01*
X398568Y363738D01*
X398545Y363724D01*
X398531Y363715D01*
X398527Y363710D01*
X398448Y363646D01*
X398374Y363576D01*
X398309Y363498D01*
X398245Y363419D01*
X398185Y363331D01*
X398134Y363248D01*
X398083Y363165D01*
X398041Y363082D01*
X398004Y363003D01*
X397967Y362929D01*
X397940Y362864D01*
X397916Y362809D01*
X397898Y362758D01*
X397884Y362726D01*
X397879Y362703D01*
X397875Y362693D01*
X397043Y362887D01*
X397094Y363049D01*
X397158Y363202D01*
X397223Y363345D01*
X397297Y363479D01*
X397371Y363599D01*
X397445Y363715D01*
X397523Y363817D01*
X397598Y363909D01*
X397672Y363992D01*
X397736Y364062D01*
X397796Y364126D01*
X397852Y364173D01*
X397893Y364214D01*
X397930Y364242D01*
X397949Y364260D01*
X397958Y364265D01*
X398083Y364353D01*
X398212Y364427D01*
X398351Y364492D01*
X398485Y364547D01*
X398619Y364598D01*
X398753Y364635D01*
X398883Y364667D01*
X399007Y364695D01*
X399128Y364714D01*
X399234Y364727D01*
X399326Y364741D01*
X399410Y364746D01*
X399479Y364751D01*
X399507Y364755D01*
X399571D01*
X399729Y364751D01*
D02*
G37*
G36*
X302910Y410205D02*
X303085Y410187D01*
X303252Y410159D01*
X303413Y410127D01*
X303561Y410085D01*
X303700Y410039D01*
X303829Y409988D01*
X303945Y409937D01*
X304051Y409887D01*
X304144Y409836D01*
X304227Y409789D01*
X304292Y409748D01*
X304347Y409715D01*
X304384Y409688D01*
X304407Y409669D01*
X304417Y409665D01*
X304541Y409554D01*
X304657Y409438D01*
X304763Y409313D01*
X304860Y409184D01*
X304948Y409050D01*
X305027Y408920D01*
X305096Y408791D01*
X305156Y408661D01*
X305212Y408541D01*
X305258Y408430D01*
X305295Y408333D01*
X305327Y408245D01*
X305350Y408176D01*
X305360Y408144D01*
X305364Y408121D01*
X305369Y408102D01*
X305373Y408088D01*
X305378Y408079D01*
Y408074D01*
X304532Y407862D01*
X304495Y408010D01*
X304454Y408144D01*
X304407Y408273D01*
X304352Y408389D01*
X304301Y408500D01*
X304241Y408601D01*
X304185Y408689D01*
X304130Y408772D01*
X304079Y408842D01*
X304028Y408906D01*
X303982Y408957D01*
X303940Y408999D01*
X303908Y409036D01*
X303885Y409059D01*
X303867Y409073D01*
X303862Y409077D01*
X303765Y409147D01*
X303668Y409212D01*
X303566Y409267D01*
X303464Y409313D01*
X303363Y409350D01*
X303261Y409383D01*
X303164Y409410D01*
X303071Y409433D01*
X302988Y409452D01*
X302905Y409461D01*
X302836Y409470D01*
X302775Y409480D01*
X302725D01*
X302688Y409484D01*
X302655D01*
X302549Y409480D01*
X302443Y409470D01*
X302341Y409457D01*
X302239Y409438D01*
X302147Y409415D01*
X302054Y409387D01*
X301971Y409364D01*
X301893Y409332D01*
X301823Y409304D01*
X301758Y409281D01*
X301703Y409253D01*
X301657Y409230D01*
X301620Y409212D01*
X301592Y409198D01*
X301574Y409188D01*
X301569Y409184D01*
X301476Y409124D01*
X301393Y409059D01*
X301315Y408990D01*
X301241Y408916D01*
X301176Y408842D01*
X301116Y408763D01*
X301060Y408689D01*
X301010Y408620D01*
X300968Y408550D01*
X300931Y408486D01*
X300899Y408426D01*
X300875Y408375D01*
X300852Y408333D01*
X300839Y408306D01*
X300834Y408282D01*
X300829Y408278D01*
X300788Y408162D01*
X300751Y408042D01*
X300718Y407922D01*
X300695Y407797D01*
X300649Y407561D01*
X300635Y407446D01*
X300621Y407335D01*
X300612Y407238D01*
X300607Y407145D01*
X300603Y407062D01*
X300598Y406993D01*
X300593Y406932D01*
Y406891D01*
Y406863D01*
Y406854D01*
X300598Y406734D01*
X300603Y406618D01*
X300626Y406396D01*
X300640Y406290D01*
X300658Y406188D01*
X300677Y406091D01*
X300695Y406003D01*
X300714Y405920D01*
X300728Y405846D01*
X300746Y405781D01*
X300760Y405726D01*
X300774Y405684D01*
X300783Y405652D01*
X300792Y405629D01*
Y405624D01*
X300834Y405513D01*
X300880Y405412D01*
X300931Y405314D01*
X300986Y405227D01*
X301042Y405139D01*
X301097Y405060D01*
X301157Y404991D01*
X301213Y404926D01*
X301269Y404871D01*
X301319Y404820D01*
X301366Y404778D01*
X301407Y404741D01*
X301439Y404714D01*
X301463Y404691D01*
X301481Y404681D01*
X301486Y404677D01*
X301583Y404612D01*
X301684Y404561D01*
X301786Y404510D01*
X301888Y404469D01*
X301994Y404436D01*
X302096Y404408D01*
X302193Y404385D01*
X302290Y404367D01*
X302378Y404348D01*
X302461Y404339D01*
X302535Y404330D01*
X302600Y404325D01*
X302651Y404321D01*
X302720D01*
X302840Y404325D01*
X302951Y404334D01*
X303057Y404348D01*
X303159Y404371D01*
X303252Y404395D01*
X303340Y404422D01*
X303418Y404450D01*
X303492Y404478D01*
X303557Y404510D01*
X303617Y404538D01*
X303668Y404566D01*
X303709Y404589D01*
X303742Y404612D01*
X303765Y404626D01*
X303779Y404635D01*
X303783Y404640D01*
X303862Y404704D01*
X303936Y404774D01*
X304000Y404852D01*
X304065Y404931D01*
X304125Y405019D01*
X304176Y405102D01*
X304227Y405185D01*
X304269Y405268D01*
X304306Y405347D01*
X304343Y405421D01*
X304370Y405486D01*
X304394Y405541D01*
X304412Y405592D01*
X304426Y405624D01*
X304431Y405647D01*
X304435Y405657D01*
X305267Y405462D01*
X305216Y405301D01*
X305152Y405148D01*
X305087Y405005D01*
X305013Y404871D01*
X304939Y404751D01*
X304865Y404635D01*
X304786Y404533D01*
X304712Y404441D01*
X304639Y404358D01*
X304574Y404288D01*
X304514Y404224D01*
X304458Y404177D01*
X304417Y404136D01*
X304380Y404108D01*
X304361Y404090D01*
X304352Y404085D01*
X304227Y403997D01*
X304098Y403923D01*
X303959Y403858D01*
X303825Y403803D01*
X303691Y403752D01*
X303557Y403715D01*
X303427Y403683D01*
X303302Y403655D01*
X303182Y403637D01*
X303076Y403623D01*
X302983Y403609D01*
X302900Y403604D01*
X302831Y403600D01*
X302803Y403595D01*
X302738D01*
X302581Y403600D01*
X302429Y403613D01*
X302281Y403632D01*
X302138Y403655D01*
X302003Y403683D01*
X301874Y403720D01*
X301754Y403752D01*
X301643Y403789D01*
X301546Y403826D01*
X301453Y403858D01*
X301375Y403891D01*
X301310Y403923D01*
X301255Y403946D01*
X301218Y403965D01*
X301194Y403979D01*
X301185Y403983D01*
X301056Y404062D01*
X300936Y404145D01*
X300825Y404233D01*
X300718Y404325D01*
X300621Y404418D01*
X300533Y404510D01*
X300450Y404607D01*
X300381Y404695D01*
X300316Y404778D01*
X300256Y404861D01*
X300210Y404931D01*
X300168Y404991D01*
X300140Y405046D01*
X300117Y405083D01*
X300103Y405107D01*
X300099Y405116D01*
X300034Y405259D01*
X299974Y405402D01*
X299923Y405550D01*
X299882Y405698D01*
X299845Y405846D01*
X299812Y405994D01*
X299789Y406133D01*
X299766Y406262D01*
X299752Y406387D01*
X299738Y406503D01*
X299734Y406604D01*
X299724Y406692D01*
Y406762D01*
X299720Y406789D01*
Y406812D01*
Y406831D01*
Y406845D01*
Y406854D01*
Y406858D01*
X299724Y407030D01*
X299734Y407196D01*
X299752Y407358D01*
X299771Y407510D01*
X299798Y407663D01*
X299826Y407802D01*
X299858Y407936D01*
X299891Y408060D01*
X299919Y408171D01*
X299951Y408273D01*
X299979Y408361D01*
X300006Y408435D01*
X300025Y408495D01*
X300043Y408537D01*
X300053Y408564D01*
X300057Y408569D01*
Y408574D01*
X300122Y408717D01*
X300196Y408856D01*
X300275Y408980D01*
X300353Y409101D01*
X300436Y409207D01*
X300520Y409309D01*
X300598Y409397D01*
X300677Y409480D01*
X300751Y409554D01*
X300820Y409614D01*
X300880Y409669D01*
X300936Y409711D01*
X300982Y409743D01*
X301014Y409771D01*
X301033Y409785D01*
X301042Y409789D01*
X301167Y409863D01*
X301301Y409928D01*
X301439Y409984D01*
X301578Y410034D01*
X301717Y410071D01*
X301860Y410108D01*
X301994Y410136D01*
X302128Y410159D01*
X302248Y410173D01*
X302364Y410187D01*
X302466Y410196D01*
X302554Y410205D01*
X302623D01*
X302655Y410210D01*
X302725D01*
X302910Y410205D01*
D02*
G37*
G36*
X308143D02*
X308267Y410192D01*
X308388Y410173D01*
X308503Y410150D01*
X308614Y410122D01*
X308711Y410090D01*
X308808Y410057D01*
X308892Y410020D01*
X308970Y409984D01*
X309039Y409951D01*
X309100Y409919D01*
X309150Y409891D01*
X309192Y409868D01*
X309220Y409845D01*
X309238Y409836D01*
X309243Y409831D01*
X309340Y409757D01*
X309428Y409674D01*
X309511Y409586D01*
X309590Y409498D01*
X309659Y409406D01*
X309728Y409313D01*
X309784Y409225D01*
X309839Y409138D01*
X309885Y409054D01*
X309927Y408976D01*
X309959Y408906D01*
X309987Y408846D01*
X310010Y408796D01*
X310024Y408759D01*
X310033Y408735D01*
X310038Y408726D01*
X310084Y408583D01*
X310126Y408435D01*
X310163Y408278D01*
X310195Y408116D01*
X310218Y407954D01*
X310241Y407788D01*
X310260Y407631D01*
X310274Y407478D01*
X310283Y407335D01*
X310292Y407201D01*
X310297Y407080D01*
X310301Y407030D01*
Y406979D01*
Y406932D01*
X310306Y406891D01*
Y406858D01*
Y406831D01*
Y406808D01*
Y406789D01*
Y406780D01*
Y406775D01*
X310301Y406563D01*
X310292Y406359D01*
X310283Y406174D01*
X310264Y405999D01*
X310241Y405837D01*
X310218Y405694D01*
X310195Y405560D01*
X310172Y405439D01*
X310144Y405333D01*
X310121Y405241D01*
X310098Y405162D01*
X310075Y405097D01*
X310056Y405046D01*
X310047Y405009D01*
X310038Y404991D01*
X310033Y404982D01*
X309982Y404866D01*
X309922Y404760D01*
X309862Y404663D01*
X309797Y404570D01*
X309733Y404482D01*
X309668Y404404D01*
X309603Y404330D01*
X309539Y404265D01*
X309479Y404210D01*
X309428Y404159D01*
X309377Y404117D01*
X309331Y404080D01*
X309298Y404057D01*
X309270Y404034D01*
X309252Y404025D01*
X309247Y404020D01*
X309150Y403960D01*
X309053Y403909D01*
X308952Y403863D01*
X308855Y403826D01*
X308757Y403794D01*
X308660Y403766D01*
X308573Y403743D01*
X308485Y403724D01*
X308406Y403710D01*
X308337Y403701D01*
X308272Y403692D01*
X308216Y403687D01*
X308170Y403683D01*
X308110D01*
X307953Y403687D01*
X307801Y403710D01*
X307657Y403738D01*
X307523Y403775D01*
X307394Y403821D01*
X307274Y403872D01*
X307167Y403923D01*
X307066Y403979D01*
X306978Y404034D01*
X306899Y404090D01*
X306830Y404140D01*
X306774Y404187D01*
X306733Y404224D01*
X306700Y404251D01*
X306677Y404274D01*
X306672Y404279D01*
X306571Y404395D01*
X306483Y404515D01*
X306409Y404644D01*
X306340Y404774D01*
X306284Y404903D01*
X306238Y405033D01*
X306201Y405162D01*
X306173Y405282D01*
X306145Y405398D01*
X306132Y405504D01*
X306118Y405601D01*
X306108Y405684D01*
X306104Y405754D01*
Y405781D01*
X306099Y405804D01*
Y405823D01*
Y405837D01*
Y405841D01*
Y405846D01*
X306104Y406017D01*
X306122Y406179D01*
X306150Y406336D01*
X306182Y406479D01*
X306224Y406614D01*
X306270Y406738D01*
X306321Y406854D01*
X306372Y406956D01*
X306423Y407048D01*
X306474Y407131D01*
X306520Y407201D01*
X306562Y407256D01*
X306594Y407302D01*
X306622Y407335D01*
X306640Y407358D01*
X306645Y407362D01*
X306751Y407464D01*
X306862Y407552D01*
X306973Y407626D01*
X307089Y407695D01*
X307199Y407751D01*
X307311Y407797D01*
X307421Y407834D01*
X307523Y407862D01*
X307620Y407889D01*
X307708Y407903D01*
X307791Y407917D01*
X307856Y407926D01*
X307911Y407931D01*
X307953Y407936D01*
X307990D01*
X308078Y407931D01*
X308166Y407926D01*
X308328Y407899D01*
X308480Y407862D01*
X308545Y407843D01*
X308610Y407820D01*
X308670Y407797D01*
X308720Y407779D01*
X308762Y407760D01*
X308804Y407742D01*
X308831Y407728D01*
X308855Y407714D01*
X308868Y407709D01*
X308873Y407705D01*
X309021Y407612D01*
X309146Y407510D01*
X309206Y407459D01*
X309257Y407409D01*
X309307Y407362D01*
X309349Y407312D01*
X309391Y407270D01*
X309423Y407228D01*
X309451Y407191D01*
X309479Y407159D01*
X309497Y407131D01*
X309511Y407113D01*
X309515Y407099D01*
X309520Y407094D01*
Y407131D01*
Y407164D01*
Y407191D01*
Y407215D01*
Y407228D01*
Y407242D01*
Y407247D01*
Y407252D01*
X309515Y407432D01*
X309502Y407607D01*
X309483Y407769D01*
X309469Y407848D01*
X309460Y407917D01*
X309451Y407982D01*
X309437Y408037D01*
X309428Y408088D01*
X309419Y408130D01*
X309409Y408167D01*
X309405Y408190D01*
X309400Y408208D01*
Y408213D01*
X309377Y408296D01*
X309354Y408379D01*
X309331Y408453D01*
X309307Y408527D01*
X309280Y408592D01*
X309257Y408652D01*
X309233Y408708D01*
X309210Y408759D01*
X309192Y408805D01*
X309169Y408846D01*
X309155Y408879D01*
X309137Y408906D01*
X309127Y408930D01*
X309118Y408943D01*
X309109Y408953D01*
Y408957D01*
X309039Y409054D01*
X308965Y409142D01*
X308892Y409221D01*
X308822Y409281D01*
X308762Y409332D01*
X308711Y409369D01*
X308693Y409383D01*
X308679Y409392D01*
X308670Y409401D01*
X308665D01*
X308559Y409457D01*
X308452Y409493D01*
X308341Y409521D01*
X308244Y409544D01*
X308156Y409554D01*
X308119Y409558D01*
X308087D01*
X308064Y409563D01*
X308027D01*
X307948Y409558D01*
X307874Y409554D01*
X307740Y409526D01*
X307625Y409489D01*
X307569Y409466D01*
X307523Y409443D01*
X307481Y409424D01*
X307440Y409401D01*
X307407Y409383D01*
X307384Y409364D01*
X307361Y409350D01*
X307347Y409336D01*
X307338Y409332D01*
X307334Y409327D01*
X307283Y409281D01*
X307241Y409225D01*
X307162Y409105D01*
X307098Y408976D01*
X307047Y408846D01*
X307029Y408791D01*
X307010Y408731D01*
X306996Y408680D01*
X306987Y408638D01*
X306978Y408601D01*
X306973Y408574D01*
X306968Y408555D01*
Y408550D01*
X306215Y408620D01*
X306238Y408759D01*
X306266Y408888D01*
X306303Y409008D01*
X306344Y409124D01*
X306386Y409230D01*
X306437Y409323D01*
X306483Y409410D01*
X306534Y409489D01*
X306580Y409563D01*
X306626Y409623D01*
X306672Y409674D01*
X306709Y409715D01*
X306737Y409752D01*
X306765Y409776D01*
X306779Y409789D01*
X306784Y409794D01*
X306876Y409868D01*
X306973Y409933D01*
X307075Y409988D01*
X307176Y410034D01*
X307278Y410076D01*
X307380Y410108D01*
X307481Y410136D01*
X307579Y410159D01*
X307666Y410173D01*
X307750Y410187D01*
X307824Y410196D01*
X307888Y410205D01*
X307939D01*
X307981Y410210D01*
X308013D01*
X308143Y410205D01*
D02*
G37*
G36*
X276240Y359406D02*
X276415Y359387D01*
X276582Y359359D01*
X276743Y359327D01*
X276891Y359285D01*
X277030Y359239D01*
X277160Y359188D01*
X277275Y359137D01*
X277381Y359086D01*
X277474Y359036D01*
X277557Y358989D01*
X277622Y358948D01*
X277677Y358915D01*
X277714Y358888D01*
X277737Y358869D01*
X277747Y358865D01*
X277871Y358754D01*
X277987Y358638D01*
X278093Y358513D01*
X278190Y358384D01*
X278278Y358250D01*
X278357Y358120D01*
X278426Y357991D01*
X278486Y357861D01*
X278542Y357741D01*
X278588Y357630D01*
X278625Y357533D01*
X278657Y357445D01*
X278680Y357376D01*
X278690Y357344D01*
X278694Y357321D01*
X278699Y357302D01*
X278703Y357288D01*
X278708Y357279D01*
Y357274D01*
X277862Y357062D01*
X277825Y357210D01*
X277784Y357344D01*
X277737Y357473D01*
X277682Y357589D01*
X277631Y357700D01*
X277571Y357801D01*
X277515Y357889D01*
X277460Y357972D01*
X277409Y358042D01*
X277358Y358106D01*
X277312Y358157D01*
X277270Y358199D01*
X277238Y358236D01*
X277215Y358259D01*
X277197Y358273D01*
X277192Y358278D01*
X277095Y358347D01*
X276998Y358412D01*
X276896Y358467D01*
X276794Y358513D01*
X276693Y358550D01*
X276591Y358583D01*
X276494Y358610D01*
X276401Y358633D01*
X276318Y358652D01*
X276235Y358661D01*
X276166Y358670D01*
X276105Y358680D01*
X276055D01*
X276018Y358684D01*
X275985D01*
X275879Y358680D01*
X275773Y358670D01*
X275671Y358657D01*
X275569Y358638D01*
X275477Y358615D01*
X275384Y358587D01*
X275301Y358564D01*
X275222Y358532D01*
X275153Y358504D01*
X275089Y358481D01*
X275033Y358453D01*
X274987Y358430D01*
X274950Y358412D01*
X274922Y358398D01*
X274904Y358388D01*
X274899Y358384D01*
X274806Y358324D01*
X274723Y358259D01*
X274645Y358190D01*
X274571Y358116D01*
X274506Y358042D01*
X274446Y357963D01*
X274390Y357889D01*
X274340Y357820D01*
X274298Y357751D01*
X274261Y357686D01*
X274229Y357626D01*
X274205Y357575D01*
X274182Y357533D01*
X274168Y357505D01*
X274164Y357482D01*
X274159Y357478D01*
X274118Y357362D01*
X274081Y357242D01*
X274048Y357122D01*
X274025Y356997D01*
X273979Y356761D01*
X273965Y356646D01*
X273951Y356535D01*
X273942Y356438D01*
X273937Y356345D01*
X273933Y356262D01*
X273928Y356193D01*
X273923Y356133D01*
Y356091D01*
Y356063D01*
Y356054D01*
X273928Y355934D01*
X273933Y355818D01*
X273956Y355596D01*
X273970Y355490D01*
X273988Y355388D01*
X274007Y355291D01*
X274025Y355203D01*
X274044Y355120D01*
X274058Y355046D01*
X274076Y354981D01*
X274090Y354926D01*
X274104Y354884D01*
X274113Y354852D01*
X274122Y354829D01*
Y354824D01*
X274164Y354713D01*
X274210Y354612D01*
X274261Y354515D01*
X274317Y354427D01*
X274372Y354339D01*
X274427Y354260D01*
X274487Y354191D01*
X274543Y354126D01*
X274599Y354071D01*
X274649Y354020D01*
X274695Y353978D01*
X274737Y353941D01*
X274769Y353914D01*
X274793Y353890D01*
X274811Y353881D01*
X274816Y353877D01*
X274913Y353812D01*
X275014Y353761D01*
X275116Y353710D01*
X275218Y353669D01*
X275324Y353636D01*
X275426Y353609D01*
X275523Y353585D01*
X275620Y353567D01*
X275708Y353548D01*
X275791Y353539D01*
X275865Y353530D01*
X275930Y353525D01*
X275981Y353521D01*
X276050D01*
X276170Y353525D01*
X276281Y353535D01*
X276388Y353548D01*
X276489Y353572D01*
X276582Y353595D01*
X276670Y353622D01*
X276748Y353650D01*
X276822Y353678D01*
X276887Y353710D01*
X276947Y353738D01*
X276998Y353766D01*
X277039Y353789D01*
X277072Y353812D01*
X277095Y353826D01*
X277109Y353835D01*
X277113Y353840D01*
X277192Y353904D01*
X277266Y353974D01*
X277330Y354052D01*
X277395Y354131D01*
X277455Y354219D01*
X277506Y354302D01*
X277557Y354385D01*
X277599Y354468D01*
X277636Y354547D01*
X277673Y354621D01*
X277700Y354686D01*
X277724Y354741D01*
X277742Y354792D01*
X277756Y354824D01*
X277761Y354847D01*
X277765Y354857D01*
X278597Y354663D01*
X278546Y354501D01*
X278482Y354348D01*
X278417Y354205D01*
X278343Y354071D01*
X278269Y353951D01*
X278195Y353835D01*
X278116Y353733D01*
X278042Y353641D01*
X277969Y353558D01*
X277904Y353488D01*
X277844Y353424D01*
X277788Y353377D01*
X277747Y353336D01*
X277710Y353308D01*
X277691Y353289D01*
X277682Y353285D01*
X277557Y353197D01*
X277428Y353123D01*
X277289Y353058D01*
X277155Y353003D01*
X277021Y352952D01*
X276887Y352915D01*
X276757Y352883D01*
X276632Y352855D01*
X276512Y352836D01*
X276406Y352823D01*
X276313Y352809D01*
X276230Y352804D01*
X276161Y352799D01*
X276133Y352795D01*
X276068D01*
X275911Y352799D01*
X275759Y352813D01*
X275611Y352832D01*
X275467Y352855D01*
X275333Y352883D01*
X275204Y352920D01*
X275084Y352952D01*
X274973Y352989D01*
X274876Y353026D01*
X274783Y353058D01*
X274705Y353091D01*
X274640Y353123D01*
X274585Y353146D01*
X274548Y353165D01*
X274524Y353178D01*
X274515Y353183D01*
X274386Y353262D01*
X274266Y353345D01*
X274155Y353433D01*
X274048Y353525D01*
X273951Y353618D01*
X273863Y353710D01*
X273780Y353807D01*
X273711Y353895D01*
X273646Y353978D01*
X273586Y354062D01*
X273540Y354131D01*
X273498Y354191D01*
X273470Y354246D01*
X273447Y354283D01*
X273433Y354306D01*
X273429Y354316D01*
X273364Y354459D01*
X273304Y354602D01*
X273253Y354750D01*
X273212Y354898D01*
X273175Y355046D01*
X273142Y355194D01*
X273119Y355333D01*
X273096Y355462D01*
X273082Y355587D01*
X273068Y355703D01*
X273064Y355804D01*
X273054Y355892D01*
Y355961D01*
X273050Y355989D01*
Y356012D01*
Y356031D01*
Y356045D01*
Y356054D01*
Y356059D01*
X273054Y356230D01*
X273064Y356396D01*
X273082Y356558D01*
X273101Y356710D01*
X273128Y356863D01*
X273156Y357002D01*
X273188Y357136D01*
X273221Y357261D01*
X273249Y357371D01*
X273281Y357473D01*
X273309Y357561D01*
X273336Y357635D01*
X273355Y357695D01*
X273373Y357737D01*
X273383Y357764D01*
X273387Y357769D01*
Y357774D01*
X273452Y357917D01*
X273526Y358056D01*
X273605Y358180D01*
X273683Y358301D01*
X273766Y358407D01*
X273850Y358509D01*
X273928Y358596D01*
X274007Y358680D01*
X274081Y358754D01*
X274150Y358814D01*
X274210Y358869D01*
X274266Y358911D01*
X274312Y358943D01*
X274344Y358971D01*
X274363Y358985D01*
X274372Y358989D01*
X274497Y359063D01*
X274631Y359128D01*
X274769Y359184D01*
X274908Y359234D01*
X275047Y359271D01*
X275190Y359308D01*
X275324Y359336D01*
X275458Y359359D01*
X275578Y359373D01*
X275694Y359387D01*
X275796Y359396D01*
X275884Y359406D01*
X275953D01*
X275985Y359410D01*
X276055D01*
X276240Y359406D01*
D02*
G37*
G36*
X282735Y357774D02*
X283599D01*
Y357052D01*
X282735D01*
Y352906D01*
X282092D01*
X279175Y357052D01*
Y357774D01*
X281949D01*
Y359304D01*
X282735D01*
Y357774D01*
D02*
G37*
G36*
X273700Y487676D02*
X273875Y487657D01*
X274042Y487629D01*
X274203Y487597D01*
X274351Y487555D01*
X274490Y487509D01*
X274620Y487458D01*
X274735Y487407D01*
X274841Y487356D01*
X274934Y487306D01*
X275017Y487259D01*
X275082Y487218D01*
X275137Y487185D01*
X275174Y487158D01*
X275197Y487139D01*
X275207Y487135D01*
X275331Y487024D01*
X275447Y486908D01*
X275553Y486783D01*
X275650Y486654D01*
X275738Y486520D01*
X275817Y486390D01*
X275886Y486261D01*
X275946Y486131D01*
X276002Y486011D01*
X276048Y485900D01*
X276085Y485803D01*
X276117Y485715D01*
X276140Y485646D01*
X276150Y485614D01*
X276154Y485591D01*
X276159Y485572D01*
X276164Y485558D01*
X276168Y485549D01*
Y485544D01*
X275322Y485332D01*
X275285Y485480D01*
X275244Y485614D01*
X275197Y485743D01*
X275142Y485859D01*
X275091Y485970D01*
X275031Y486071D01*
X274975Y486159D01*
X274920Y486242D01*
X274869Y486312D01*
X274818Y486376D01*
X274772Y486427D01*
X274730Y486469D01*
X274698Y486506D01*
X274675Y486529D01*
X274657Y486543D01*
X274652Y486548D01*
X274555Y486617D01*
X274458Y486682D01*
X274356Y486737D01*
X274254Y486783D01*
X274153Y486820D01*
X274051Y486853D01*
X273954Y486880D01*
X273861Y486903D01*
X273778Y486922D01*
X273695Y486931D01*
X273626Y486940D01*
X273566Y486950D01*
X273515D01*
X273478Y486954D01*
X273445D01*
X273339Y486950D01*
X273233Y486940D01*
X273131Y486927D01*
X273029Y486908D01*
X272937Y486885D01*
X272844Y486857D01*
X272761Y486834D01*
X272682Y486802D01*
X272613Y486774D01*
X272549Y486751D01*
X272493Y486723D01*
X272447Y486700D01*
X272410Y486682D01*
X272382Y486668D01*
X272364Y486658D01*
X272359Y486654D01*
X272267Y486594D01*
X272183Y486529D01*
X272105Y486460D01*
X272031Y486386D01*
X271966Y486312D01*
X271906Y486233D01*
X271850Y486159D01*
X271800Y486090D01*
X271758Y486021D01*
X271721Y485956D01*
X271689Y485896D01*
X271665Y485845D01*
X271642Y485803D01*
X271628Y485775D01*
X271624Y485752D01*
X271619Y485748D01*
X271578Y485632D01*
X271541Y485512D01*
X271508Y485392D01*
X271485Y485267D01*
X271439Y485031D01*
X271425Y484916D01*
X271411Y484805D01*
X271402Y484708D01*
X271397Y484615D01*
X271393Y484532D01*
X271388Y484463D01*
X271383Y484403D01*
Y484361D01*
Y484333D01*
Y484324D01*
X271388Y484204D01*
X271393Y484088D01*
X271416Y483866D01*
X271430Y483760D01*
X271448Y483658D01*
X271467Y483561D01*
X271485Y483473D01*
X271504Y483390D01*
X271518Y483316D01*
X271536Y483251D01*
X271550Y483196D01*
X271564Y483154D01*
X271573Y483122D01*
X271582Y483099D01*
Y483094D01*
X271624Y482983D01*
X271670Y482882D01*
X271721Y482785D01*
X271777Y482697D01*
X271832Y482609D01*
X271887Y482530D01*
X271947Y482461D01*
X272003Y482396D01*
X272059Y482341D01*
X272109Y482290D01*
X272155Y482248D01*
X272197Y482211D01*
X272229Y482184D01*
X272253Y482160D01*
X272271Y482151D01*
X272276Y482147D01*
X272373Y482082D01*
X272474Y482031D01*
X272576Y481980D01*
X272678Y481939D01*
X272784Y481906D01*
X272886Y481879D01*
X272983Y481855D01*
X273080Y481837D01*
X273168Y481818D01*
X273251Y481809D01*
X273325Y481800D01*
X273390Y481795D01*
X273441Y481791D01*
X273510D01*
X273630Y481795D01*
X273741Y481805D01*
X273848Y481818D01*
X273949Y481842D01*
X274042Y481865D01*
X274130Y481892D01*
X274208Y481920D01*
X274282Y481948D01*
X274347Y481980D01*
X274407Y482008D01*
X274458Y482036D01*
X274499Y482059D01*
X274532Y482082D01*
X274555Y482096D01*
X274569Y482105D01*
X274573Y482110D01*
X274652Y482174D01*
X274726Y482244D01*
X274790Y482322D01*
X274855Y482401D01*
X274915Y482489D01*
X274966Y482572D01*
X275017Y482655D01*
X275059Y482738D01*
X275096Y482817D01*
X275133Y482891D01*
X275160Y482956D01*
X275184Y483011D01*
X275202Y483062D01*
X275216Y483094D01*
X275221Y483117D01*
X275225Y483127D01*
X276057Y482933D01*
X276006Y482771D01*
X275942Y482618D01*
X275877Y482475D01*
X275803Y482341D01*
X275729Y482220D01*
X275655Y482105D01*
X275576Y482003D01*
X275502Y481911D01*
X275429Y481828D01*
X275364Y481758D01*
X275304Y481694D01*
X275248Y481647D01*
X275207Y481606D01*
X275170Y481578D01*
X275151Y481559D01*
X275142Y481555D01*
X275017Y481467D01*
X274888Y481393D01*
X274749Y481328D01*
X274615Y481273D01*
X274481Y481222D01*
X274347Y481185D01*
X274217Y481153D01*
X274093Y481125D01*
X273972Y481106D01*
X273866Y481093D01*
X273773Y481079D01*
X273690Y481074D01*
X273621Y481069D01*
X273593Y481065D01*
X273528D01*
X273371Y481069D01*
X273219Y481083D01*
X273071Y481102D01*
X272927Y481125D01*
X272794Y481153D01*
X272664Y481190D01*
X272544Y481222D01*
X272433Y481259D01*
X272336Y481296D01*
X272243Y481328D01*
X272165Y481361D01*
X272100Y481393D01*
X272045Y481416D01*
X272008Y481435D01*
X271985Y481449D01*
X271975Y481453D01*
X271846Y481532D01*
X271726Y481615D01*
X271615Y481703D01*
X271508Y481795D01*
X271411Y481888D01*
X271323Y481980D01*
X271240Y482077D01*
X271171Y482165D01*
X271106Y482248D01*
X271046Y482332D01*
X271000Y482401D01*
X270958Y482461D01*
X270931Y482516D01*
X270907Y482553D01*
X270893Y482576D01*
X270889Y482586D01*
X270824Y482729D01*
X270764Y482872D01*
X270713Y483020D01*
X270672Y483168D01*
X270635Y483316D01*
X270602Y483464D01*
X270579Y483603D01*
X270556Y483732D01*
X270542Y483857D01*
X270528Y483973D01*
X270524Y484074D01*
X270514Y484162D01*
Y484231D01*
X270510Y484259D01*
Y484282D01*
Y484301D01*
Y484315D01*
Y484324D01*
Y484328D01*
X270514Y484500D01*
X270524Y484666D01*
X270542Y484828D01*
X270561Y484980D01*
X270588Y485133D01*
X270616Y485272D01*
X270648Y485406D01*
X270681Y485531D01*
X270709Y485641D01*
X270741Y485743D01*
X270769Y485831D01*
X270796Y485905D01*
X270815Y485965D01*
X270833Y486007D01*
X270843Y486034D01*
X270847Y486039D01*
Y486044D01*
X270912Y486187D01*
X270986Y486326D01*
X271065Y486450D01*
X271143Y486571D01*
X271226Y486677D01*
X271310Y486779D01*
X271388Y486866D01*
X271467Y486950D01*
X271541Y487024D01*
X271610Y487084D01*
X271670Y487139D01*
X271726Y487181D01*
X271772Y487213D01*
X271804Y487241D01*
X271823Y487255D01*
X271832Y487259D01*
X271957Y487333D01*
X272091Y487398D01*
X272229Y487454D01*
X272368Y487504D01*
X272507Y487541D01*
X272650Y487578D01*
X272784Y487606D01*
X272918Y487629D01*
X273039Y487643D01*
X273154Y487657D01*
X273256Y487666D01*
X273344Y487676D01*
X273413D01*
X273445Y487680D01*
X273515D01*
X273700Y487676D01*
D02*
G37*
G36*
X279182D02*
X279289Y487666D01*
X279386Y487657D01*
X279483Y487639D01*
X279571Y487615D01*
X279658Y487592D01*
X279737Y487569D01*
X279806Y487541D01*
X279876Y487518D01*
X279931Y487495D01*
X279982Y487472D01*
X280028Y487449D01*
X280061Y487430D01*
X280088Y487421D01*
X280102Y487412D01*
X280107Y487407D01*
X280190Y487352D01*
X280269Y487296D01*
X280343Y487232D01*
X280407Y487167D01*
X280472Y487102D01*
X280532Y487038D01*
X280583Y486973D01*
X280634Y486908D01*
X280675Y486848D01*
X280712Y486797D01*
X280745Y486746D01*
X280772Y486700D01*
X280791Y486668D01*
X280805Y486640D01*
X280814Y486622D01*
X280819Y486617D01*
X280865Y486520D01*
X280907Y486418D01*
X280939Y486321D01*
X280971Y486224D01*
X280999Y486127D01*
X281017Y486034D01*
X281036Y485947D01*
X281050Y485863D01*
X281059Y485785D01*
X281068Y485715D01*
X281073Y485655D01*
X281077Y485600D01*
X281082Y485558D01*
Y485526D01*
Y485503D01*
Y485498D01*
X281077Y485332D01*
X281059Y485170D01*
X281031Y485022D01*
X280994Y484879D01*
X280953Y484745D01*
X280907Y484624D01*
X280856Y484509D01*
X280805Y484407D01*
X280754Y484315D01*
X280703Y484236D01*
X280657Y484167D01*
X280615Y484111D01*
X280578Y484065D01*
X280550Y484033D01*
X280532Y484010D01*
X280527Y484005D01*
X280421Y483903D01*
X280310Y483811D01*
X280199Y483737D01*
X280088Y483667D01*
X279973Y483612D01*
X279862Y483566D01*
X279755Y483524D01*
X279654Y483496D01*
X279557Y483473D01*
X279469Y483455D01*
X279390Y483441D01*
X279321Y483432D01*
X279270Y483427D01*
X279228Y483423D01*
X279108D01*
X279025Y483432D01*
X278863Y483455D01*
X278720Y483492D01*
X278651Y483510D01*
X278591Y483529D01*
X278530Y483547D01*
X278479Y483566D01*
X278438Y483584D01*
X278396Y483603D01*
X278369Y483617D01*
X278346Y483626D01*
X278332Y483630D01*
X278327Y483635D01*
X278253Y483677D01*
X278179Y483723D01*
X278050Y483825D01*
X277929Y483931D01*
X277879Y483982D01*
X277832Y484033D01*
X277786Y484084D01*
X277749Y484130D01*
X277717Y484171D01*
X277689Y484208D01*
X277666Y484236D01*
X277652Y484259D01*
X277643Y484273D01*
X277638Y484278D01*
X277643Y484102D01*
X277647Y483936D01*
X277661Y483783D01*
X277675Y483640D01*
X277689Y483510D01*
X277708Y483386D01*
X277731Y483274D01*
X277749Y483177D01*
X277768Y483090D01*
X277786Y483011D01*
X277805Y482946D01*
X277823Y482896D01*
X277837Y482854D01*
X277846Y482822D01*
X277855Y482803D01*
Y482798D01*
X277897Y482706D01*
X277943Y482618D01*
X277990Y482535D01*
X278040Y482456D01*
X278087Y482387D01*
X278137Y482322D01*
X278184Y482262D01*
X278230Y482211D01*
X278276Y482165D01*
X278313Y482123D01*
X278350Y482091D01*
X278382Y482063D01*
X278406Y482040D01*
X278429Y482026D01*
X278438Y482017D01*
X278442Y482012D01*
X278498Y481976D01*
X278554Y481943D01*
X278664Y481888D01*
X278775Y481851D01*
X278877Y481828D01*
X278928Y481818D01*
X278969Y481809D01*
X279007Y481805D01*
X279039D01*
X279067Y481800D01*
X279104D01*
X279187Y481805D01*
X279270Y481814D01*
X279349Y481832D01*
X279423Y481851D01*
X279492Y481879D01*
X279552Y481906D01*
X279612Y481939D01*
X279668Y481966D01*
X279718Y481999D01*
X279760Y482031D01*
X279797Y482059D01*
X279829Y482086D01*
X279853Y482105D01*
X279871Y482123D01*
X279880Y482133D01*
X279885Y482137D01*
X279922Y482179D01*
X279954Y482225D01*
X280014Y482332D01*
X280065Y482442D01*
X280107Y482549D01*
X280144Y482650D01*
X280153Y482692D01*
X280167Y482734D01*
X280176Y482761D01*
X280181Y482789D01*
X280185Y482803D01*
Y482808D01*
X280967Y482747D01*
X280944Y482613D01*
X280916Y482484D01*
X280879Y482364D01*
X280833Y482253D01*
X280791Y482147D01*
X280740Y482049D01*
X280689Y481962D01*
X280638Y481883D01*
X280588Y481814D01*
X280541Y481754D01*
X280500Y481698D01*
X280463Y481657D01*
X280430Y481624D01*
X280407Y481596D01*
X280389Y481583D01*
X280384Y481578D01*
X280292Y481504D01*
X280195Y481439D01*
X280093Y481379D01*
X279987Y481333D01*
X279885Y481291D01*
X279783Y481254D01*
X279681Y481227D01*
X279589Y481203D01*
X279496Y481190D01*
X279413Y481176D01*
X279339Y481167D01*
X279275Y481157D01*
X279224D01*
X279182Y481153D01*
X279150D01*
X278965Y481162D01*
X278789Y481185D01*
X278627Y481222D01*
X278470Y481268D01*
X278327Y481324D01*
X278197Y481384D01*
X278077Y481453D01*
X277966Y481518D01*
X277869Y481587D01*
X277782Y481657D01*
X277712Y481717D01*
X277652Y481772D01*
X277601Y481818D01*
X277569Y481855D01*
X277550Y481879D01*
X277541Y481888D01*
X277481Y481971D01*
X277421Y482059D01*
X277365Y482147D01*
X277315Y482244D01*
X277222Y482447D01*
X277143Y482664D01*
X277079Y482886D01*
X277023Y483108D01*
X276977Y483335D01*
X276945Y483552D01*
X276912Y483760D01*
X276894Y483950D01*
X276885Y484042D01*
X276880Y484125D01*
X276871Y484208D01*
X276866Y484278D01*
Y484347D01*
X276861Y484407D01*
Y484458D01*
X276857Y484500D01*
Y484537D01*
Y484560D01*
Y484578D01*
Y484583D01*
Y484735D01*
X276866Y484883D01*
X276871Y485022D01*
X276885Y485161D01*
X276898Y485290D01*
X276912Y485415D01*
X276931Y485535D01*
X276954Y485651D01*
X276977Y485762D01*
X277000Y485868D01*
X277028Y485965D01*
X277051Y486062D01*
X277079Y486150D01*
X277111Y486238D01*
X277139Y486316D01*
X277167Y486390D01*
X277194Y486460D01*
X277227Y486529D01*
X277255Y486589D01*
X277282Y486645D01*
X277305Y486695D01*
X277333Y486742D01*
X277379Y486820D01*
X277421Y486880D01*
X277449Y486927D01*
X277472Y486950D01*
X277476Y486959D01*
X277597Y487084D01*
X277721Y487195D01*
X277855Y487292D01*
X277990Y487375D01*
X278124Y487444D01*
X278253Y487504D01*
X278382Y487551D01*
X278507Y487588D01*
X278627Y487620D01*
X278734Y487643D01*
X278831Y487657D01*
X278914Y487671D01*
X278983Y487676D01*
X279011D01*
X279034Y487680D01*
X279076D01*
X279182Y487676D01*
D02*
G37*
G36*
X273700Y460996D02*
X273875Y460978D01*
X274042Y460950D01*
X274203Y460918D01*
X274351Y460876D01*
X274490Y460830D01*
X274620Y460779D01*
X274735Y460728D01*
X274841Y460677D01*
X274934Y460626D01*
X275017Y460580D01*
X275082Y460539D01*
X275137Y460506D01*
X275174Y460479D01*
X275197Y460460D01*
X275207Y460455D01*
X275331Y460344D01*
X275447Y460229D01*
X275553Y460104D01*
X275650Y459975D01*
X275738Y459841D01*
X275817Y459711D01*
X275886Y459582D01*
X275946Y459452D01*
X276002Y459332D01*
X276048Y459221D01*
X276085Y459124D01*
X276117Y459036D01*
X276140Y458967D01*
X276150Y458934D01*
X276154Y458911D01*
X276159Y458893D01*
X276164Y458879D01*
X276168Y458870D01*
Y458865D01*
X275322Y458652D01*
X275285Y458800D01*
X275244Y458934D01*
X275197Y459064D01*
X275142Y459179D01*
X275091Y459290D01*
X275031Y459392D01*
X274975Y459480D01*
X274920Y459563D01*
X274869Y459632D01*
X274818Y459697D01*
X274772Y459748D01*
X274730Y459790D01*
X274698Y459827D01*
X274675Y459850D01*
X274657Y459864D01*
X274652Y459868D01*
X274555Y459938D01*
X274458Y460002D01*
X274356Y460058D01*
X274254Y460104D01*
X274153Y460141D01*
X274051Y460173D01*
X273954Y460201D01*
X273861Y460224D01*
X273778Y460243D01*
X273695Y460252D01*
X273626Y460261D01*
X273566Y460270D01*
X273515D01*
X273478Y460275D01*
X273445D01*
X273339Y460270D01*
X273233Y460261D01*
X273131Y460247D01*
X273029Y460229D01*
X272937Y460206D01*
X272844Y460178D01*
X272761Y460155D01*
X272682Y460122D01*
X272613Y460095D01*
X272549Y460072D01*
X272493Y460044D01*
X272447Y460021D01*
X272410Y460002D01*
X272382Y459988D01*
X272364Y459979D01*
X272359Y459975D01*
X272267Y459915D01*
X272183Y459850D01*
X272105Y459780D01*
X272031Y459706D01*
X271966Y459632D01*
X271906Y459554D01*
X271850Y459480D01*
X271800Y459411D01*
X271758Y459341D01*
X271721Y459277D01*
X271689Y459216D01*
X271665Y459166D01*
X271642Y459124D01*
X271628Y459096D01*
X271624Y459073D01*
X271619Y459068D01*
X271578Y458953D01*
X271541Y458833D01*
X271508Y458713D01*
X271485Y458588D01*
X271439Y458352D01*
X271425Y458236D01*
X271411Y458125D01*
X271402Y458028D01*
X271397Y457936D01*
X271393Y457853D01*
X271388Y457783D01*
X271383Y457723D01*
Y457682D01*
Y457654D01*
Y457645D01*
X271388Y457524D01*
X271393Y457409D01*
X271416Y457187D01*
X271430Y457081D01*
X271448Y456979D01*
X271467Y456882D01*
X271485Y456794D01*
X271504Y456711D01*
X271518Y456637D01*
X271536Y456572D01*
X271550Y456517D01*
X271564Y456475D01*
X271573Y456443D01*
X271582Y456420D01*
Y456415D01*
X271624Y456304D01*
X271670Y456202D01*
X271721Y456105D01*
X271777Y456017D01*
X271832Y455930D01*
X271887Y455851D01*
X271947Y455782D01*
X272003Y455717D01*
X272059Y455662D01*
X272109Y455611D01*
X272155Y455569D01*
X272197Y455532D01*
X272229Y455504D01*
X272253Y455481D01*
X272271Y455472D01*
X272276Y455467D01*
X272373Y455403D01*
X272474Y455352D01*
X272576Y455301D01*
X272678Y455259D01*
X272784Y455227D01*
X272886Y455199D01*
X272983Y455176D01*
X273080Y455158D01*
X273168Y455139D01*
X273251Y455130D01*
X273325Y455121D01*
X273390Y455116D01*
X273441Y455111D01*
X273510D01*
X273630Y455116D01*
X273741Y455125D01*
X273848Y455139D01*
X273949Y455162D01*
X274042Y455185D01*
X274130Y455213D01*
X274208Y455241D01*
X274282Y455269D01*
X274347Y455301D01*
X274407Y455329D01*
X274458Y455356D01*
X274499Y455379D01*
X274532Y455403D01*
X274555Y455416D01*
X274569Y455426D01*
X274573Y455430D01*
X274652Y455495D01*
X274726Y455564D01*
X274790Y455643D01*
X274855Y455722D01*
X274915Y455809D01*
X274966Y455893D01*
X275017Y455976D01*
X275059Y456059D01*
X275096Y456138D01*
X275133Y456212D01*
X275160Y456276D01*
X275184Y456332D01*
X275202Y456383D01*
X275216Y456415D01*
X275221Y456438D01*
X275225Y456447D01*
X276057Y456253D01*
X276006Y456091D01*
X275942Y455939D01*
X275877Y455796D01*
X275803Y455662D01*
X275729Y455541D01*
X275655Y455426D01*
X275576Y455324D01*
X275502Y455232D01*
X275429Y455148D01*
X275364Y455079D01*
X275304Y455014D01*
X275248Y454968D01*
X275207Y454926D01*
X275170Y454899D01*
X275151Y454880D01*
X275142Y454876D01*
X275017Y454788D01*
X274888Y454714D01*
X274749Y454649D01*
X274615Y454594D01*
X274481Y454543D01*
X274347Y454506D01*
X274217Y454473D01*
X274093Y454446D01*
X273972Y454427D01*
X273866Y454413D01*
X273773Y454399D01*
X273690Y454395D01*
X273621Y454390D01*
X273593Y454386D01*
X273528D01*
X273371Y454390D01*
X273219Y454404D01*
X273071Y454423D01*
X272927Y454446D01*
X272794Y454473D01*
X272664Y454510D01*
X272544Y454543D01*
X272433Y454580D01*
X272336Y454617D01*
X272243Y454649D01*
X272165Y454682D01*
X272100Y454714D01*
X272045Y454737D01*
X272008Y454755D01*
X271985Y454769D01*
X271975Y454774D01*
X271846Y454852D01*
X271726Y454936D01*
X271615Y455024D01*
X271508Y455116D01*
X271411Y455209D01*
X271323Y455301D01*
X271240Y455398D01*
X271171Y455486D01*
X271106Y455569D01*
X271046Y455652D01*
X271000Y455722D01*
X270958Y455782D01*
X270931Y455837D01*
X270907Y455874D01*
X270893Y455897D01*
X270889Y455906D01*
X270824Y456050D01*
X270764Y456193D01*
X270713Y456341D01*
X270672Y456489D01*
X270635Y456637D01*
X270602Y456785D01*
X270579Y456923D01*
X270556Y457053D01*
X270542Y457178D01*
X270528Y457293D01*
X270524Y457395D01*
X270514Y457483D01*
Y457552D01*
X270510Y457580D01*
Y457603D01*
Y457622D01*
Y457635D01*
Y457645D01*
Y457649D01*
X270514Y457820D01*
X270524Y457987D01*
X270542Y458149D01*
X270561Y458301D01*
X270588Y458454D01*
X270616Y458592D01*
X270648Y458726D01*
X270681Y458851D01*
X270709Y458962D01*
X270741Y459064D01*
X270769Y459152D01*
X270796Y459226D01*
X270815Y459286D01*
X270833Y459327D01*
X270843Y459355D01*
X270847Y459360D01*
Y459364D01*
X270912Y459508D01*
X270986Y459646D01*
X271065Y459771D01*
X271143Y459891D01*
X271226Y459998D01*
X271310Y460099D01*
X271388Y460187D01*
X271467Y460270D01*
X271541Y460344D01*
X271610Y460405D01*
X271670Y460460D01*
X271726Y460502D01*
X271772Y460534D01*
X271804Y460562D01*
X271823Y460575D01*
X271832Y460580D01*
X271957Y460654D01*
X272091Y460719D01*
X272229Y460774D01*
X272368Y460825D01*
X272507Y460862D01*
X272650Y460899D01*
X272784Y460927D01*
X272918Y460950D01*
X273039Y460964D01*
X273154Y460978D01*
X273256Y460987D01*
X273344Y460996D01*
X273413D01*
X273445Y461001D01*
X273515D01*
X273700Y460996D01*
D02*
G37*
G36*
X279094Y461006D02*
X279256Y460987D01*
X279413Y460955D01*
X279557Y460918D01*
X279695Y460876D01*
X279820Y460825D01*
X279940Y460774D01*
X280047Y460719D01*
X280139Y460663D01*
X280227Y460612D01*
X280296Y460562D01*
X280356Y460520D01*
X280407Y460483D01*
X280440Y460451D01*
X280458Y460432D01*
X280467Y460428D01*
X280574Y460317D01*
X280671Y460201D01*
X280754Y460081D01*
X280823Y459961D01*
X280883Y459841D01*
X280934Y459720D01*
X280971Y459609D01*
X281004Y459498D01*
X281031Y459397D01*
X281050Y459304D01*
X281064Y459221D01*
X281073Y459147D01*
X281077Y459092D01*
X281082Y459045D01*
Y459018D01*
Y459008D01*
X281077Y458893D01*
X281068Y458787D01*
X281054Y458685D01*
X281031Y458588D01*
X281008Y458495D01*
X280985Y458412D01*
X280953Y458334D01*
X280925Y458260D01*
X280897Y458195D01*
X280870Y458139D01*
X280842Y458093D01*
X280819Y458051D01*
X280796Y458019D01*
X280782Y457996D01*
X280772Y457982D01*
X280768Y457977D01*
X280708Y457904D01*
X280638Y457834D01*
X280569Y457774D01*
X280500Y457719D01*
X280426Y457668D01*
X280352Y457626D01*
X280278Y457585D01*
X280208Y457552D01*
X280144Y457520D01*
X280084Y457497D01*
X280028Y457474D01*
X279977Y457460D01*
X279940Y457446D01*
X279908Y457437D01*
X279890Y457432D01*
X279885D01*
X279963Y457395D01*
X280037Y457353D01*
X280107Y457307D01*
X280172Y457266D01*
X280232Y457219D01*
X280282Y457173D01*
X280333Y457132D01*
X280375Y457090D01*
X280417Y457048D01*
X280449Y457011D01*
X280477Y456979D01*
X280500Y456951D01*
X280518Y456928D01*
X280532Y456910D01*
X280537Y456900D01*
X280541Y456896D01*
X280583Y456831D01*
X280615Y456766D01*
X280648Y456697D01*
X280671Y456632D01*
X280712Y456507D01*
X280740Y456387D01*
X280749Y456336D01*
X280754Y456286D01*
X280763Y456244D01*
Y456207D01*
X280768Y456179D01*
Y456156D01*
Y456142D01*
Y456138D01*
X280763Y456054D01*
X280759Y455976D01*
X280731Y455823D01*
X280694Y455685D01*
X280671Y455625D01*
X280652Y455564D01*
X280629Y455509D01*
X280606Y455463D01*
X280588Y455416D01*
X280569Y455384D01*
X280555Y455352D01*
X280541Y455333D01*
X280537Y455319D01*
X280532Y455315D01*
X280486Y455245D01*
X280435Y455176D01*
X280329Y455056D01*
X280218Y454950D01*
X280107Y454862D01*
X280056Y454825D01*
X280010Y454792D01*
X279968Y454765D01*
X279931Y454742D01*
X279899Y454723D01*
X279876Y454709D01*
X279862Y454705D01*
X279857Y454700D01*
X279774Y454658D01*
X279691Y454626D01*
X279608Y454594D01*
X279520Y454571D01*
X279358Y454529D01*
X279284Y454515D01*
X279210Y454501D01*
X279145Y454492D01*
X279085Y454487D01*
X279030Y454478D01*
X278983D01*
X278946Y454473D01*
X278896D01*
X278757Y454478D01*
X278623Y454492D01*
X278493Y454515D01*
X278373Y454543D01*
X278262Y454575D01*
X278161Y454612D01*
X278064Y454649D01*
X277976Y454691D01*
X277897Y454732D01*
X277828Y454769D01*
X277768Y454806D01*
X277717Y454839D01*
X277675Y454866D01*
X277647Y454889D01*
X277629Y454903D01*
X277624Y454908D01*
X277532Y454991D01*
X277449Y455084D01*
X277375Y455181D01*
X277310Y455282D01*
X277250Y455384D01*
X277194Y455486D01*
X277148Y455588D01*
X277107Y455685D01*
X277074Y455777D01*
X277047Y455860D01*
X277023Y455934D01*
X277005Y456004D01*
X276991Y456059D01*
X276982Y456096D01*
X276973Y456124D01*
Y456128D01*
Y456133D01*
X277758Y456272D01*
X277777Y456165D01*
X277800Y456068D01*
X277823Y455980D01*
X277855Y455897D01*
X277883Y455819D01*
X277920Y455749D01*
X277952Y455685D01*
X277985Y455625D01*
X278017Y455578D01*
X278045Y455532D01*
X278073Y455495D01*
X278096Y455467D01*
X278119Y455444D01*
X278133Y455426D01*
X278142Y455416D01*
X278147Y455412D01*
X278207Y455361D01*
X278267Y455315D01*
X278332Y455278D01*
X278396Y455245D01*
X278461Y455213D01*
X278521Y455190D01*
X278641Y455158D01*
X278697Y455144D01*
X278748Y455135D01*
X278794Y455130D01*
X278836Y455125D01*
X278863Y455121D01*
X278909D01*
X278993Y455125D01*
X279076Y455135D01*
X279150Y455148D01*
X279224Y455167D01*
X279289Y455185D01*
X279353Y455213D01*
X279409Y455236D01*
X279460Y455264D01*
X279506Y455292D01*
X279547Y455315D01*
X279580Y455342D01*
X279612Y455361D01*
X279635Y455379D01*
X279649Y455393D01*
X279658Y455403D01*
X279663Y455407D01*
X279714Y455463D01*
X279760Y455518D01*
X279802Y455578D01*
X279834Y455638D01*
X279862Y455699D01*
X279885Y455759D01*
X279922Y455869D01*
X279936Y455920D01*
X279945Y455967D01*
X279950Y456013D01*
X279954Y456045D01*
X279959Y456077D01*
Y456101D01*
Y456115D01*
Y456119D01*
X279954Y456216D01*
X279940Y456309D01*
X279922Y456396D01*
X279894Y456475D01*
X279866Y456549D01*
X279834Y456614D01*
X279797Y456674D01*
X279760Y456729D01*
X279718Y456776D01*
X279686Y456817D01*
X279649Y456850D01*
X279621Y456877D01*
X279594Y456900D01*
X279575Y456914D01*
X279561Y456923D01*
X279557Y456928D01*
X279483Y456974D01*
X279404Y457011D01*
X279326Y457048D01*
X279247Y457076D01*
X279094Y457122D01*
X279025Y457141D01*
X278956Y457155D01*
X278891Y457164D01*
X278836Y457173D01*
X278785Y457178D01*
X278738Y457182D01*
X278706Y457187D01*
X278618D01*
X278577Y457182D01*
X278558D01*
X278544Y457178D01*
X278530D01*
X278442Y457867D01*
X278563Y457839D01*
X278669Y457820D01*
X278762Y457802D01*
X278845Y457793D01*
X278909Y457788D01*
X278956Y457783D01*
X278997D01*
X279099Y457788D01*
X279191Y457797D01*
X279284Y457816D01*
X279367Y457839D01*
X279446Y457867D01*
X279520Y457894D01*
X279589Y457927D01*
X279649Y457959D01*
X279705Y457991D01*
X279755Y458024D01*
X279797Y458051D01*
X279829Y458079D01*
X279857Y458102D01*
X279880Y458121D01*
X279890Y458130D01*
X279894Y458135D01*
X279959Y458204D01*
X280010Y458273D01*
X280061Y458347D01*
X280102Y458421D01*
X280135Y458495D01*
X280162Y458569D01*
X280185Y458643D01*
X280204Y458713D01*
X280222Y458777D01*
X280232Y458837D01*
X280241Y458893D01*
X280245Y458934D01*
X280250Y458976D01*
Y459004D01*
Y459022D01*
Y459027D01*
X280245Y459129D01*
X280232Y459230D01*
X280213Y459323D01*
X280190Y459411D01*
X280162Y459498D01*
X280130Y459572D01*
X280093Y459646D01*
X280061Y459711D01*
X280023Y459771D01*
X279987Y459822D01*
X279954Y459868D01*
X279926Y459905D01*
X279903Y459938D01*
X279885Y459956D01*
X279871Y459970D01*
X279866Y459975D01*
X279792Y460044D01*
X279718Y460099D01*
X279640Y460150D01*
X279561Y460196D01*
X279483Y460233D01*
X279404Y460266D01*
X279326Y460289D01*
X279256Y460312D01*
X279187Y460326D01*
X279127Y460340D01*
X279071Y460344D01*
X279020Y460354D01*
X278983D01*
X278951Y460358D01*
X278928D01*
X278840Y460354D01*
X278762Y460344D01*
X278683Y460331D01*
X278609Y460312D01*
X278540Y460289D01*
X278475Y460266D01*
X278415Y460238D01*
X278359Y460210D01*
X278309Y460187D01*
X278267Y460159D01*
X278225Y460136D01*
X278197Y460113D01*
X278170Y460095D01*
X278151Y460081D01*
X278142Y460072D01*
X278137Y460067D01*
X278077Y460007D01*
X278027Y459942D01*
X277976Y459868D01*
X277929Y459790D01*
X277851Y459632D01*
X277786Y459471D01*
X277763Y459397D01*
X277740Y459327D01*
X277721Y459267D01*
X277708Y459212D01*
X277694Y459166D01*
X277684Y459129D01*
X277680Y459110D01*
Y459101D01*
X276894Y459207D01*
X276912Y459355D01*
X276940Y459494D01*
X276982Y459623D01*
X277023Y459748D01*
X277074Y459864D01*
X277125Y459970D01*
X277181Y460072D01*
X277236Y460159D01*
X277292Y460238D01*
X277342Y460307D01*
X277393Y460368D01*
X277435Y460418D01*
X277472Y460460D01*
X277500Y460488D01*
X277518Y460506D01*
X277523Y460511D01*
X277629Y460599D01*
X277745Y460677D01*
X277860Y460742D01*
X277976Y460797D01*
X278096Y460848D01*
X278211Y460890D01*
X278327Y460922D01*
X278433Y460945D01*
X278535Y460969D01*
X278627Y460982D01*
X278711Y460996D01*
X278785Y461001D01*
X278840Y461006D01*
X278886Y461010D01*
X278923D01*
X279094Y461006D01*
D02*
G37*
G36*
X396795Y467533D02*
X396952Y467519D01*
X397100Y467496D01*
X397239Y467463D01*
X397368Y467426D01*
X397489Y467385D01*
X397595Y467343D01*
X397697Y467301D01*
X397785Y467255D01*
X397863Y467214D01*
X397928Y467172D01*
X397983Y467135D01*
X398025Y467107D01*
X398057Y467080D01*
X398076Y467066D01*
X398080Y467061D01*
X398177Y466969D01*
X398261Y466867D01*
X398339Y466761D01*
X398404Y466650D01*
X398464Y466534D01*
X398515Y466418D01*
X398557Y466308D01*
X398593Y466197D01*
X398621Y466095D01*
X398644Y465998D01*
X398663Y465910D01*
X398677Y465836D01*
X398691Y465776D01*
X398695Y465730D01*
Y465711D01*
X398700Y465697D01*
Y465693D01*
Y465688D01*
X397891Y465605D01*
X397886Y465716D01*
X397877Y465818D01*
X397859Y465915D01*
X397840Y466007D01*
X397812Y466090D01*
X397785Y466164D01*
X397752Y466238D01*
X397720Y466298D01*
X397692Y466354D01*
X397660Y466405D01*
X397632Y466446D01*
X397604Y466483D01*
X397586Y466506D01*
X397567Y466530D01*
X397558Y466539D01*
X397553Y466543D01*
X397489Y466604D01*
X397415Y466654D01*
X397341Y466701D01*
X397267Y466742D01*
X397188Y466774D01*
X397114Y466802D01*
X397040Y466825D01*
X396971Y466844D01*
X396902Y466858D01*
X396841Y466867D01*
X396786Y466876D01*
X396735Y466881D01*
X396698Y466885D01*
X396643D01*
X396546Y466881D01*
X396453Y466872D01*
X396365Y466858D01*
X396282Y466835D01*
X396208Y466811D01*
X396134Y466784D01*
X396069Y466756D01*
X396009Y466724D01*
X395959Y466696D01*
X395912Y466664D01*
X395871Y466636D01*
X395838Y466613D01*
X395811Y466590D01*
X395792Y466576D01*
X395783Y466567D01*
X395778Y466562D01*
X395718Y466502D01*
X395667Y466437D01*
X395621Y466372D01*
X395584Y466303D01*
X395552Y466238D01*
X395524Y466174D01*
X395501Y466109D01*
X395482Y466049D01*
X395468Y465993D01*
X395459Y465942D01*
X395450Y465896D01*
X395445Y465855D01*
X395441Y465822D01*
Y465799D01*
Y465781D01*
Y465776D01*
X395445Y465693D01*
X395455Y465610D01*
X395473Y465526D01*
X395496Y465443D01*
X395556Y465281D01*
X395593Y465207D01*
X395626Y465138D01*
X395658Y465073D01*
X395695Y465013D01*
X395723Y464962D01*
X395751Y464916D01*
X395778Y464884D01*
X395797Y464856D01*
X395806Y464838D01*
X395811Y464833D01*
X395885Y464736D01*
X395977Y464630D01*
X396074Y464523D01*
X396185Y464412D01*
X396296Y464297D01*
X396416Y464186D01*
X396532Y464075D01*
X396652Y463969D01*
X396763Y463867D01*
X396869Y463774D01*
X396962Y463686D01*
X397049Y463617D01*
X397119Y463557D01*
X397147Y463534D01*
X397170Y463511D01*
X397188Y463497D01*
X397202Y463483D01*
X397211Y463478D01*
X397216Y463474D01*
X397336Y463372D01*
X397452Y463275D01*
X397558Y463183D01*
X397660Y463095D01*
X397752Y463007D01*
X397835Y462928D01*
X397909Y462854D01*
X397979Y462785D01*
X398043Y462725D01*
X398094Y462669D01*
X398140Y462623D01*
X398177Y462582D01*
X398205Y462549D01*
X398224Y462526D01*
X398237Y462512D01*
X398242Y462508D01*
X398367Y462351D01*
X398473Y462198D01*
X398561Y462055D01*
X398603Y461990D01*
X398635Y461925D01*
X398663Y461870D01*
X398691Y461819D01*
X398714Y461773D01*
X398727Y461731D01*
X398741Y461699D01*
X398751Y461676D01*
X398760Y461662D01*
Y461657D01*
X398792Y461560D01*
X398815Y461463D01*
X398829Y461371D01*
X398839Y461292D01*
X398843Y461218D01*
X398848Y461190D01*
Y461162D01*
Y461144D01*
Y461130D01*
Y461121D01*
Y461116D01*
X394622D01*
Y461870D01*
X397757D01*
X397706Y461948D01*
X397650Y462027D01*
X397595Y462096D01*
X397544Y462161D01*
X397498Y462212D01*
X397461Y462253D01*
X397438Y462281D01*
X397429Y462290D01*
X397387Y462337D01*
X397332Y462388D01*
X397271Y462443D01*
X397202Y462508D01*
X397128Y462572D01*
X397054Y462642D01*
X396897Y462776D01*
X396823Y462840D01*
X396754Y462901D01*
X396693Y462956D01*
X396633Y463002D01*
X396587Y463044D01*
X396555Y463072D01*
X396532Y463095D01*
X396522Y463099D01*
X396370Y463229D01*
X396227Y463354D01*
X396097Y463469D01*
X395977Y463576D01*
X395866Y463677D01*
X395769Y463770D01*
X395676Y463853D01*
X395598Y463927D01*
X395529Y463996D01*
X395473Y464056D01*
X395422Y464107D01*
X395381Y464149D01*
X395348Y464181D01*
X395330Y464204D01*
X395316Y464218D01*
X395311Y464223D01*
X395247Y464301D01*
X395182Y464375D01*
X395126Y464449D01*
X395075Y464519D01*
X394983Y464653D01*
X394946Y464713D01*
X394914Y464768D01*
X394881Y464819D01*
X394858Y464865D01*
X394835Y464907D01*
X394821Y464939D01*
X394807Y464967D01*
X394798Y464986D01*
X394789Y464999D01*
Y465004D01*
X394738Y465143D01*
X394697Y465277D01*
X394669Y465406D01*
X394650Y465522D01*
X394646Y465573D01*
X394641Y465619D01*
X394636Y465656D01*
X394632Y465693D01*
Y465720D01*
Y465739D01*
Y465753D01*
Y465757D01*
X394636Y465896D01*
X394655Y466030D01*
X394683Y466155D01*
X394715Y466275D01*
X394757Y466386D01*
X394803Y466493D01*
X394854Y466590D01*
X394900Y466677D01*
X394951Y466756D01*
X395002Y466825D01*
X395048Y466885D01*
X395089Y466932D01*
X395122Y466973D01*
X395149Y467001D01*
X395168Y467020D01*
X395173Y467024D01*
X395279Y467117D01*
X395390Y467195D01*
X395505Y467260D01*
X395626Y467320D01*
X395746Y467371D01*
X395871Y467412D01*
X395986Y467445D01*
X396102Y467472D01*
X396208Y467496D01*
X396310Y467509D01*
X396398Y467523D01*
X396476Y467528D01*
X396541Y467533D01*
X396587Y467537D01*
X396629D01*
X396795Y467533D01*
D02*
G37*
G36*
X402269Y467621D02*
X402421Y467607D01*
X402569Y467588D01*
X402712Y467565D01*
X402846Y467537D01*
X402976Y467500D01*
X403096Y467468D01*
X403207Y467431D01*
X403304Y467394D01*
X403397Y467362D01*
X403475Y467329D01*
X403540Y467297D01*
X403595Y467274D01*
X403632Y467255D01*
X403656Y467241D01*
X403665Y467237D01*
X403794Y467158D01*
X403914Y467075D01*
X404025Y466987D01*
X404132Y466895D01*
X404229Y466802D01*
X404316Y466710D01*
X404400Y466613D01*
X404469Y466525D01*
X404534Y466442D01*
X404594Y466358D01*
X404640Y466289D01*
X404682Y466229D01*
X404710Y466174D01*
X404733Y466137D01*
X404746Y466113D01*
X404751Y466104D01*
X404816Y465961D01*
X404876Y465818D01*
X404927Y465670D01*
X404968Y465522D01*
X405005Y465374D01*
X405038Y465226D01*
X405061Y465087D01*
X405084Y464958D01*
X405098Y464833D01*
X405112Y464717D01*
X405116Y464616D01*
X405126Y464528D01*
Y464459D01*
X405130Y464431D01*
Y464408D01*
Y464389D01*
Y464375D01*
Y464366D01*
Y464361D01*
X405126Y464190D01*
X405116Y464024D01*
X405098Y463862D01*
X405079Y463710D01*
X405051Y463557D01*
X405024Y463418D01*
X404991Y463284D01*
X404959Y463159D01*
X404931Y463049D01*
X404899Y462947D01*
X404871Y462859D01*
X404843Y462785D01*
X404825Y462725D01*
X404807Y462683D01*
X404797Y462656D01*
X404793Y462651D01*
Y462646D01*
X404728Y462503D01*
X404654Y462364D01*
X404575Y462239D01*
X404497Y462119D01*
X404414Y462013D01*
X404330Y461911D01*
X404252Y461824D01*
X404173Y461740D01*
X404099Y461666D01*
X404030Y461606D01*
X403970Y461551D01*
X403914Y461509D01*
X403868Y461477D01*
X403836Y461449D01*
X403817Y461435D01*
X403808Y461431D01*
X403683Y461357D01*
X403549Y461292D01*
X403410Y461236D01*
X403272Y461185D01*
X403133Y461149D01*
X402990Y461112D01*
X402856Y461084D01*
X402722Y461061D01*
X402602Y461047D01*
X402486Y461033D01*
X402384Y461024D01*
X402296Y461015D01*
X402227D01*
X402195Y461010D01*
X402125D01*
X401940Y461015D01*
X401765Y461033D01*
X401598Y461061D01*
X401437Y461093D01*
X401289Y461135D01*
X401150Y461181D01*
X401021Y461232D01*
X400905Y461283D01*
X400799Y461334D01*
X400706Y461384D01*
X400623Y461431D01*
X400558Y461472D01*
X400503Y461505D01*
X400466Y461532D01*
X400443Y461551D01*
X400433Y461555D01*
X400308Y461666D01*
X400193Y461782D01*
X400087Y461907D01*
X399990Y462036D01*
X399902Y462170D01*
X399823Y462300D01*
X399754Y462429D01*
X399694Y462559D01*
X399638Y462679D01*
X399592Y462790D01*
X399555Y462887D01*
X399523Y462975D01*
X399500Y463044D01*
X399490Y463076D01*
X399486Y463099D01*
X399481Y463118D01*
X399476Y463132D01*
X399472Y463141D01*
Y463146D01*
X400318Y463358D01*
X400355Y463210D01*
X400396Y463076D01*
X400443Y462947D01*
X400498Y462831D01*
X400549Y462720D01*
X400609Y462619D01*
X400664Y462531D01*
X400720Y462448D01*
X400771Y462378D01*
X400822Y462313D01*
X400868Y462263D01*
X400910Y462221D01*
X400942Y462184D01*
X400965Y462161D01*
X400984Y462147D01*
X400988Y462142D01*
X401085Y462073D01*
X401182Y462008D01*
X401284Y461953D01*
X401386Y461907D01*
X401487Y461870D01*
X401589Y461837D01*
X401686Y461810D01*
X401779Y461786D01*
X401862Y461768D01*
X401945Y461759D01*
X402014Y461749D01*
X402075Y461740D01*
X402125D01*
X402162Y461736D01*
X402195D01*
X402301Y461740D01*
X402407Y461749D01*
X402509Y461763D01*
X402611Y461782D01*
X402703Y461805D01*
X402796Y461833D01*
X402879Y461856D01*
X402957Y461888D01*
X403027Y461916D01*
X403092Y461939D01*
X403147Y461967D01*
X403193Y461990D01*
X403230Y462008D01*
X403258Y462022D01*
X403276Y462032D01*
X403281Y462036D01*
X403373Y462096D01*
X403457Y462161D01*
X403535Y462230D01*
X403609Y462304D01*
X403674Y462378D01*
X403734Y462457D01*
X403789Y462531D01*
X403840Y462600D01*
X403882Y462669D01*
X403919Y462734D01*
X403951Y462794D01*
X403974Y462845D01*
X403997Y462887D01*
X404011Y462915D01*
X404016Y462938D01*
X404021Y462942D01*
X404062Y463058D01*
X404099Y463178D01*
X404132Y463298D01*
X404155Y463423D01*
X404201Y463659D01*
X404215Y463774D01*
X404229Y463885D01*
X404238Y463982D01*
X404243Y464075D01*
X404247Y464158D01*
X404252Y464227D01*
X404256Y464287D01*
Y464329D01*
Y464357D01*
Y464366D01*
X404252Y464486D01*
X404247Y464602D01*
X404224Y464824D01*
X404210Y464930D01*
X404192Y465032D01*
X404173Y465129D01*
X404155Y465217D01*
X404136Y465300D01*
X404122Y465374D01*
X404104Y465438D01*
X404090Y465494D01*
X404076Y465536D01*
X404067Y465568D01*
X404058Y465591D01*
Y465596D01*
X404016Y465707D01*
X403970Y465808D01*
X403919Y465905D01*
X403863Y465993D01*
X403808Y466081D01*
X403753Y466160D01*
X403692Y466229D01*
X403637Y466294D01*
X403582Y466349D01*
X403531Y466400D01*
X403484Y466442D01*
X403443Y466479D01*
X403410Y466506D01*
X403387Y466530D01*
X403369Y466539D01*
X403364Y466543D01*
X403267Y466608D01*
X403165Y466659D01*
X403064Y466710D01*
X402962Y466751D01*
X402856Y466784D01*
X402754Y466811D01*
X402657Y466835D01*
X402560Y466853D01*
X402472Y466872D01*
X402389Y466881D01*
X402315Y466890D01*
X402250Y466895D01*
X402199Y466899D01*
X402130D01*
X402010Y466895D01*
X401899Y466885D01*
X401792Y466872D01*
X401691Y466848D01*
X401598Y466825D01*
X401511Y466798D01*
X401432Y466770D01*
X401358Y466742D01*
X401293Y466710D01*
X401233Y466682D01*
X401182Y466654D01*
X401141Y466631D01*
X401108Y466608D01*
X401085Y466594D01*
X401071Y466585D01*
X401067Y466580D01*
X400988Y466516D01*
X400914Y466446D01*
X400849Y466368D01*
X400785Y466289D01*
X400725Y466201D01*
X400674Y466118D01*
X400623Y466035D01*
X400581Y465952D01*
X400544Y465873D01*
X400507Y465799D01*
X400480Y465734D01*
X400457Y465679D01*
X400438Y465628D01*
X400424Y465596D01*
X400420Y465573D01*
X400415Y465563D01*
X399583Y465757D01*
X399634Y465919D01*
X399698Y466072D01*
X399763Y466215D01*
X399837Y466349D01*
X399911Y466469D01*
X399985Y466585D01*
X400064Y466687D01*
X400137Y466779D01*
X400211Y466862D01*
X400276Y466932D01*
X400336Y466996D01*
X400392Y467043D01*
X400433Y467084D01*
X400470Y467112D01*
X400489Y467131D01*
X400498Y467135D01*
X400623Y467223D01*
X400752Y467297D01*
X400891Y467362D01*
X401025Y467417D01*
X401159Y467468D01*
X401293Y467505D01*
X401423Y467537D01*
X401548Y467565D01*
X401668Y467584D01*
X401774Y467597D01*
X401866Y467611D01*
X401950Y467616D01*
X402019Y467621D01*
X402047Y467625D01*
X402111D01*
X402269Y467621D01*
D02*
G37*
%LPC*%
G36*
X308207Y407242D02*
X308184D01*
X308083Y407238D01*
X307990Y407224D01*
X307898Y407205D01*
X307810Y407182D01*
X307731Y407154D01*
X307657Y407122D01*
X307588Y407090D01*
X307523Y407053D01*
X307468Y407016D01*
X307417Y406983D01*
X307375Y406951D01*
X307338Y406923D01*
X307311Y406900D01*
X307292Y406877D01*
X307278Y406868D01*
X307274Y406863D01*
X307209Y406789D01*
X307153Y406711D01*
X307102Y406627D01*
X307061Y406544D01*
X307029Y406461D01*
X306996Y406378D01*
X306973Y406299D01*
X306954Y406221D01*
X306941Y406151D01*
X306927Y406082D01*
X306917Y406022D01*
X306913Y405971D01*
Y405929D01*
X306908Y405897D01*
Y405874D01*
Y405869D01*
X306913Y405745D01*
X306927Y405624D01*
X306945Y405513D01*
X306968Y405412D01*
X306996Y405310D01*
X307029Y405222D01*
X307066Y405139D01*
X307102Y405060D01*
X307135Y404996D01*
X307172Y404935D01*
X307204Y404885D01*
X307232Y404843D01*
X307255Y404806D01*
X307274Y404783D01*
X307287Y404769D01*
X307292Y404764D01*
X307366Y404691D01*
X307444Y404621D01*
X307519Y404566D01*
X307597Y404515D01*
X307676Y404473D01*
X307754Y404441D01*
X307824Y404413D01*
X307898Y404390D01*
X307962Y404371D01*
X308022Y404358D01*
X308073Y404348D01*
X308119Y404339D01*
X308156D01*
X308184Y404334D01*
X308207D01*
X308300Y404339D01*
X308388Y404353D01*
X308475Y404371D01*
X308554Y404395D01*
X308633Y404427D01*
X308702Y404459D01*
X308767Y404496D01*
X308827Y404533D01*
X308882Y404570D01*
X308933Y404607D01*
X308975Y404640D01*
X309007Y404672D01*
X309035Y404695D01*
X309053Y404714D01*
X309067Y404727D01*
X309072Y404732D01*
X309137Y404811D01*
X309192Y404894D01*
X309238Y404977D01*
X309280Y405065D01*
X309317Y405157D01*
X309345Y405245D01*
X309368Y405333D01*
X309386Y405416D01*
X309400Y405495D01*
X309414Y405569D01*
X309423Y405634D01*
X309428Y405694D01*
X309432Y405740D01*
Y405777D01*
Y405795D01*
Y405804D01*
X309428Y405929D01*
X309419Y406045D01*
X309400Y406151D01*
X309377Y406253D01*
X309349Y406350D01*
X309321Y406438D01*
X309289Y406516D01*
X309257Y406586D01*
X309224Y406651D01*
X309192Y406706D01*
X309164Y406752D01*
X309137Y406794D01*
X309113Y406822D01*
X309095Y406845D01*
X309086Y406858D01*
X309081Y406863D01*
X309012Y406928D01*
X308942Y406988D01*
X308868Y407039D01*
X308794Y407080D01*
X308716Y407117D01*
X308642Y407150D01*
X308573Y407173D01*
X308503Y407196D01*
X308434Y407210D01*
X308374Y407224D01*
X308323Y407228D01*
X308277Y407238D01*
X308235D01*
X308207Y407242D01*
D02*
G37*
G36*
X281949Y357052D02*
X279942D01*
X281949Y354168D01*
Y357052D01*
D02*
G37*
G36*
X279081Y487033D02*
X279057D01*
X278933Y487024D01*
X278812Y487005D01*
X278701Y486973D01*
X278604Y486936D01*
X278558Y486922D01*
X278521Y486903D01*
X278489Y486885D01*
X278461Y486871D01*
X278438Y486862D01*
X278419Y486853D01*
X278410Y486843D01*
X278406D01*
X278299Y486765D01*
X278202Y486672D01*
X278119Y486580D01*
X278054Y486487D01*
X277999Y486404D01*
X277980Y486372D01*
X277962Y486339D01*
X277948Y486316D01*
X277939Y486293D01*
X277929Y486284D01*
Y486279D01*
X277874Y486136D01*
X277832Y485997D01*
X277800Y485868D01*
X277782Y485748D01*
X277772Y485697D01*
X277768Y485646D01*
X277763Y485604D01*
Y485568D01*
X277758Y485540D01*
Y485517D01*
Y485503D01*
Y485498D01*
X277763Y485387D01*
X277772Y485281D01*
X277791Y485179D01*
X277819Y485082D01*
X277846Y484994D01*
X277874Y484911D01*
X277911Y484837D01*
X277943Y484768D01*
X277976Y484708D01*
X278013Y484652D01*
X278040Y484606D01*
X278073Y484569D01*
X278096Y484541D01*
X278114Y484518D01*
X278124Y484504D01*
X278128Y484500D01*
X278197Y484430D01*
X278272Y484375D01*
X278350Y484319D01*
X278424Y484278D01*
X278503Y484241D01*
X278577Y484208D01*
X278651Y484185D01*
X278720Y484162D01*
X278785Y484148D01*
X278840Y484134D01*
X278896Y484130D01*
X278942Y484120D01*
X278979D01*
X279007Y484116D01*
X279030D01*
X279127Y484120D01*
X279224Y484134D01*
X279312Y484153D01*
X279395Y484176D01*
X279473Y484204D01*
X279547Y484236D01*
X279612Y484273D01*
X279677Y484305D01*
X279728Y484342D01*
X279778Y484379D01*
X279820Y484412D01*
X279853Y484440D01*
X279880Y484463D01*
X279903Y484481D01*
X279913Y484495D01*
X279917Y484500D01*
X279982Y484574D01*
X280033Y484657D01*
X280084Y484740D01*
X280125Y484823D01*
X280158Y484911D01*
X280185Y484999D01*
X280208Y485082D01*
X280227Y485165D01*
X280245Y485244D01*
X280255Y485313D01*
X280264Y485378D01*
X280269Y485433D01*
X280273Y485480D01*
Y485517D01*
Y485535D01*
Y485544D01*
X280269Y485669D01*
X280259Y485789D01*
X280241Y485900D01*
X280218Y486007D01*
X280190Y486104D01*
X280158Y486191D01*
X280125Y486275D01*
X280093Y486349D01*
X280061Y486413D01*
X280028Y486474D01*
X279996Y486520D01*
X279968Y486561D01*
X279945Y486594D01*
X279926Y486617D01*
X279917Y486631D01*
X279913Y486635D01*
X279843Y486705D01*
X279774Y486765D01*
X279700Y486820D01*
X279631Y486866D01*
X279557Y486903D01*
X279487Y486936D01*
X279418Y486964D01*
X279353Y486982D01*
X279289Y487001D01*
X279233Y487010D01*
X279182Y487019D01*
X279141Y487028D01*
X279108D01*
X279081Y487033D01*
D02*
G37*
%LPD*%
D14*
X354450Y353530D02*
X369450D01*
X354450D02*
Y380530D01*
X369450D01*
Y353530D02*
Y380530D01*
X416090Y350640D02*
Y365640D01*
X389090Y350640D02*
X416090D01*
X389090D02*
Y365640D01*
X416090D01*
X286220Y402710D02*
X313220D01*
Y417710D01*
X286220D02*
X313220D01*
X286220Y402710D02*
Y417710D01*
X259550Y351910D02*
X286550D01*
Y366910D01*
X259550D02*
X286550D01*
X259550Y351910D02*
Y366910D01*
X257010Y480180D02*
X284010D01*
Y495180D01*
X257010D02*
X284010D01*
X257010Y480180D02*
Y495180D01*
Y453510D02*
X284010D01*
Y468510D01*
X257010D02*
X284010D01*
X257010Y453510D02*
Y468510D01*
X391630D02*
X418630D01*
X391630Y453510D02*
Y468510D01*
Y453510D02*
X418630D01*
Y468510D01*
M02*
