G04*
G04 #@! TF.GenerationSoftware,Altium Limited,Altium Designer,25.4.2 (15)*
G04*
G04 Layer_Color=2752767*
%FSLAX44Y44*%
%MOMM*%
G71*
G04*
G04 #@! TF.SameCoordinates,3376916D-7717-44A7-936A-FC15E23AF39E*
G04*
G04*
G04 #@! TF.FilePolarity,Positive*
G04*
G01*
G75*
%ADD15C,0.1270*%
%ADD41C,0.1693*%
D15*
X368300Y9960D02*
X363220Y20120D01*
X373380D01*
X368300Y9960D01*
Y60960D02*
X363220Y71120D01*
X373380D01*
X368300Y60960D01*
X419300Y9960D02*
X414220Y20120D01*
X424380D01*
X419300Y9960D01*
Y60960D02*
X414220Y71120D01*
X424380D01*
X419300Y60960D01*
X391260Y38000D02*
Y35460D01*
X396340D01*
Y38000D01*
X398880D01*
Y43080D01*
X396340D01*
Y45620D01*
X391260D01*
Y43080D01*
X388720D01*
Y38000D01*
X391260D01*
X511810Y10160D02*
X506730Y20320D01*
X516890D01*
X511810Y10160D01*
Y61160D02*
X506730Y71320D01*
X516890D01*
X511810Y61160D01*
X562810Y10160D02*
X557730Y20320D01*
X567890D01*
X562810Y10160D01*
Y61160D02*
X557730Y71320D01*
X567890D01*
X562810Y61160D01*
X534770Y38200D02*
Y35660D01*
X539850D01*
Y38200D01*
X542390D01*
Y43280D01*
X539850D01*
Y45820D01*
X534770D01*
Y43280D01*
X532230D01*
Y38200D01*
X534770D01*
X408270Y430530D02*
Y440690D01*
X418430D01*
Y430530D01*
X408270D01*
Y405130D02*
Y415290D01*
X418430D01*
Y405130D01*
X408270D01*
Y379730D02*
Y389890D01*
X418430D01*
Y379730D01*
X408270D01*
X205070Y532130D02*
Y542290D01*
X215230D01*
Y532130D01*
X205070D01*
X230470D02*
Y542290D01*
X240630D01*
Y532130D01*
X230470D01*
X255870D02*
Y542290D01*
X266030D01*
Y532130D01*
X255870D01*
X281270D02*
Y542290D01*
X291430D01*
Y532130D01*
X281270D01*
X306670D02*
Y542290D01*
X316830D01*
Y532130D01*
X306670D01*
X332070D02*
Y542290D01*
X342230D01*
Y532130D01*
X332070D01*
X357470D02*
Y542290D01*
X367630D01*
Y532130D01*
X357470D01*
X382870D02*
Y542290D01*
X393030D01*
Y532130D01*
X382870D01*
X408270D02*
Y542290D01*
X418430D01*
Y532130D01*
X408270D01*
X433670D02*
Y542290D01*
X443830D01*
Y532130D01*
X433670D01*
X205070Y506730D02*
Y516890D01*
X215230D01*
Y506730D01*
X205070D01*
X230470D02*
Y516890D01*
X240630D01*
Y506730D01*
X230470D01*
X255870D02*
Y516890D01*
X266030D01*
Y506730D01*
X255870D01*
X281270D02*
Y516890D01*
X291430D01*
Y506730D01*
X281270D01*
X306670D02*
Y516890D01*
X316830D01*
Y506730D01*
X306670D01*
X332070D02*
Y516890D01*
X342230D01*
Y506730D01*
X332070D01*
X357470D02*
Y516890D01*
X367630D01*
Y506730D01*
X357470D01*
X382870D02*
Y516890D01*
X393030D01*
Y506730D01*
X382870D01*
X408270D02*
Y516890D01*
X418430D01*
Y506730D01*
X408270D01*
X433670D02*
Y516890D01*
X443830D01*
Y506730D01*
X433670D01*
X205070Y481330D02*
Y491490D01*
X215230D01*
Y481330D01*
X205070D01*
X230470D02*
Y491490D01*
X240630D01*
Y481330D01*
X230470D01*
X306670D02*
Y491490D01*
X316830D01*
Y481330D01*
X306670D01*
X332070D02*
Y491490D01*
X342230D01*
Y481330D01*
X332070D01*
X357470D02*
Y491490D01*
X367630D01*
Y481330D01*
X357470D01*
X433670D02*
Y491490D01*
X443830D01*
Y481330D01*
X433670D01*
X205070Y455930D02*
Y466090D01*
X215230D01*
Y455930D01*
X205070D01*
X230470D02*
Y466090D01*
X240630D01*
Y455930D01*
X230470D01*
X433670D02*
Y466090D01*
X443830D01*
Y455930D01*
X433670D01*
X205070Y430530D02*
Y440690D01*
X215230D01*
Y430530D01*
X205070D01*
X230470D02*
Y440690D01*
X240630D01*
Y430530D01*
X230470D01*
X255870D02*
Y440690D01*
X266030D01*
Y430530D01*
X255870D01*
X433670D02*
Y440690D01*
X443830D01*
Y430530D01*
X433670D01*
X205070Y405130D02*
Y415290D01*
X215230D01*
Y405130D01*
X205070D01*
X230470D02*
Y415290D01*
X240630D01*
Y405130D01*
X230470D01*
X255870D02*
Y415290D01*
X266030D01*
Y405130D01*
X255870D01*
X433670D02*
Y415290D01*
X443830D01*
Y405130D01*
X433670D01*
X205070Y379730D02*
Y389890D01*
X215230D01*
Y379730D01*
X205070D01*
X230470D02*
Y389890D01*
X240630D01*
Y379730D01*
X230470D01*
X255870D02*
Y389890D01*
X266030D01*
Y379730D01*
X255870D01*
X433670D02*
Y389890D01*
X443830D01*
Y379730D01*
X433670D01*
X205070Y354330D02*
Y364490D01*
X215230D01*
Y354330D01*
X205070D01*
X230470D02*
Y364490D01*
X240630D01*
Y354330D01*
X230470D01*
X433670D02*
Y364490D01*
X443830D01*
Y354330D01*
X433670D01*
X205070Y328930D02*
Y339090D01*
X215230D01*
Y328930D01*
X205070D01*
X230470D02*
Y339090D01*
X240630D01*
Y328930D01*
X230470D01*
X306670D02*
Y339090D01*
X316830D01*
Y328930D01*
X306670D01*
X332070D02*
Y339090D01*
X342230D01*
Y328930D01*
X332070D01*
X357470D02*
Y339090D01*
X367630D01*
Y328930D01*
X357470D01*
X433670D02*
Y339090D01*
X443830D01*
Y328930D01*
X433670D01*
X205070Y303530D02*
Y313690D01*
X215230D01*
Y303530D01*
X205070D01*
X230470D02*
Y313690D01*
X240630D01*
Y303530D01*
X230470D01*
X255870D02*
Y313690D01*
X266030D01*
Y303530D01*
X255870D01*
X281270D02*
Y313690D01*
X291430D01*
Y303530D01*
X281270D01*
X306670D02*
Y313690D01*
X316830D01*
Y303530D01*
X306670D01*
X332070D02*
Y313690D01*
X342230D01*
Y303530D01*
X332070D01*
X357470D02*
Y313690D01*
X367630D01*
Y303530D01*
X357470D01*
X382870D02*
Y313690D01*
X393030D01*
Y303530D01*
X382870D01*
X408270D02*
Y313690D01*
X418430D01*
Y303530D01*
X408270D01*
X433670D02*
Y313690D01*
X443830D01*
Y303530D01*
X433670D01*
X459070Y532130D02*
Y542290D01*
X469230D01*
Y532130D01*
X459070D01*
Y506730D02*
Y516890D01*
X469230D01*
Y506730D01*
X459070D01*
Y481330D02*
Y491490D01*
X469230D01*
Y481330D01*
X459070D01*
Y455930D02*
Y466090D01*
X469230D01*
Y455930D01*
X459070D01*
Y430530D02*
Y440690D01*
X469230D01*
Y430530D01*
X459070D01*
Y405130D02*
Y415290D01*
X469230D01*
Y405130D01*
X459070D01*
Y379730D02*
Y389890D01*
X469230D01*
Y379730D01*
X459070D01*
Y354330D02*
Y364490D01*
X469230D01*
Y354330D01*
X459070D01*
Y328930D02*
Y339090D01*
X469230D01*
Y328930D01*
X459070D01*
Y303530D02*
Y313690D01*
X469230D01*
Y303530D01*
X459070D01*
X205070Y278130D02*
Y288290D01*
X215230D01*
Y278130D01*
X205070D01*
X230470D02*
Y288290D01*
X240630D01*
Y278130D01*
X230470D01*
X255870D02*
Y288290D01*
X266030D01*
Y278130D01*
X255870D01*
X281270D02*
Y288290D01*
X291430D01*
Y278130D01*
X281270D01*
X306670D02*
Y288290D01*
X316830D01*
Y278130D01*
X306670D01*
X459070D02*
Y288290D01*
X469230D01*
Y278130D01*
X459070D01*
X433670D02*
Y288290D01*
X443830D01*
Y278130D01*
X433670D01*
X408270D02*
Y288290D01*
X418430D01*
Y278130D01*
X408270D01*
X382870D02*
Y288290D01*
X393030D01*
Y278130D01*
X382870D01*
X357470D02*
Y288290D01*
X367630D01*
Y278130D01*
X357470D01*
X332070D02*
Y288290D01*
X342230D01*
Y278130D01*
X332070D01*
X169310Y681990D02*
Y692150D01*
X179470D01*
Y681990D01*
X169310D01*
X219310D02*
Y692150D01*
X229470D01*
Y681990D01*
X219310D01*
X244310D02*
Y692150D01*
X254470D01*
Y681990D01*
X244310D01*
X194310D02*
Y692150D01*
X204470D01*
Y681990D01*
X194310D01*
X777240Y655320D02*
X779780Y657860D01*
X782320D01*
X779780Y660400D01*
X782320Y662940D01*
X779780D01*
X777240Y665480D01*
X774700Y662940D01*
X772160D01*
X774700Y660400D01*
X772160Y657860D01*
X774700D01*
X777240Y655320D01*
X802640D02*
X805180Y657860D01*
X807720D01*
X805180Y660400D01*
X807720Y662940D01*
X805180D01*
X802640Y665480D01*
X800100Y662940D01*
X797560D01*
X800100Y660400D01*
X797560Y657860D01*
X800100D01*
X802640Y655320D01*
X777240Y629920D02*
X779780Y632460D01*
X782320D01*
X779780Y635000D01*
X782320Y637540D01*
X779780D01*
X777240Y640080D01*
X774700Y637540D01*
X772160D01*
X774700Y635000D01*
X772160Y632460D01*
X774700D01*
X777240Y629920D01*
X802640D02*
X805180Y632460D01*
X807720D01*
X805180Y635000D01*
X807720Y637540D01*
X805180D01*
X802640Y640080D01*
X800100Y637540D01*
X797560D01*
X800100Y635000D01*
X797560Y632460D01*
X800100D01*
X802640Y629920D01*
X777240Y604520D02*
X779780Y607060D01*
X782320D01*
X779780Y609600D01*
X782320Y612140D01*
X779780D01*
X777240Y614680D01*
X774700Y612140D01*
X772160D01*
X774700Y609600D01*
X772160Y607060D01*
X774700D01*
X777240Y604520D01*
X802640D02*
X805180Y607060D01*
X807720D01*
X805180Y609600D01*
X807720Y612140D01*
X805180D01*
X802640Y614680D01*
X800100Y612140D01*
X797560D01*
X800100Y609600D01*
X797560Y607060D01*
X800100D01*
X802640Y604520D01*
X777240Y579120D02*
X779780Y581660D01*
X782320D01*
X779780Y584200D01*
X782320Y586740D01*
X779780D01*
X777240Y589280D01*
X774700Y586740D01*
X772160D01*
X774700Y584200D01*
X772160Y581660D01*
X774700D01*
X777240Y579120D01*
X802640D02*
X805180Y581660D01*
X807720D01*
X805180Y584200D01*
X807720Y586740D01*
X805180D01*
X802640Y589280D01*
X800100Y586740D01*
X797560D01*
X800100Y584200D01*
X797560Y581660D01*
X800100D01*
X802640Y579120D01*
X777240Y553720D02*
X779780Y556260D01*
X782320D01*
X779780Y558800D01*
X782320Y561340D01*
X779780D01*
X777240Y563880D01*
X774700Y561340D01*
X772160D01*
X774700Y558800D01*
X772160Y556260D01*
X774700D01*
X777240Y553720D01*
X802640D02*
X805180Y556260D01*
X807720D01*
X805180Y558800D01*
X807720Y561340D01*
X805180D01*
X802640Y563880D01*
X800100Y561340D01*
X797560D01*
X800100Y558800D01*
X797560Y556260D01*
X800100D01*
X802640Y553720D01*
X777240Y528320D02*
X779780Y530860D01*
X782320D01*
X779780Y533400D01*
X782320Y535940D01*
X779780D01*
X777240Y538480D01*
X774700Y535940D01*
X772160D01*
X774700Y533400D01*
X772160Y530860D01*
X774700D01*
X777240Y528320D01*
X802640D02*
X805180Y530860D01*
X807720D01*
X805180Y533400D01*
X807720Y535940D01*
X805180D01*
X802640Y538480D01*
X800100Y535940D01*
X797560D01*
X800100Y533400D01*
X797560Y530860D01*
X800100D01*
X802640Y528320D01*
X777240Y502920D02*
X779780Y505460D01*
X782320D01*
X779780Y508000D01*
X782320Y510540D01*
X779780D01*
X777240Y513080D01*
X774700Y510540D01*
X772160D01*
X774700Y508000D01*
X772160Y505460D01*
X774700D01*
X777240Y502920D01*
X802640D02*
X805180Y505460D01*
X807720D01*
X805180Y508000D01*
X807720Y510540D01*
X805180D01*
X802640Y513080D01*
X800100Y510540D01*
X797560D01*
X800100Y508000D01*
X797560Y505460D01*
X800100D01*
X802640Y502920D01*
X777240Y477520D02*
X779780Y480060D01*
X782320D01*
X779780Y482600D01*
X782320Y485140D01*
X779780D01*
X777240Y487680D01*
X774700Y485140D01*
X772160D01*
X774700Y482600D01*
X772160Y480060D01*
X774700D01*
X777240Y477520D01*
X802640D02*
X805180Y480060D01*
X807720D01*
X805180Y482600D01*
X807720Y485140D01*
X805180D01*
X802640Y487680D01*
X800100Y485140D01*
X797560D01*
X800100Y482600D01*
X797560Y480060D01*
X800100D01*
X802640Y477520D01*
X777240Y452120D02*
X779780Y454660D01*
X782320D01*
X779780Y457200D01*
X782320Y459740D01*
X779780D01*
X777240Y462280D01*
X774700Y459740D01*
X772160D01*
X774700Y457200D01*
X772160Y454660D01*
X774700D01*
X777240Y452120D01*
X802640D02*
X805180Y454660D01*
X807720D01*
X805180Y457200D01*
X807720Y459740D01*
X805180D01*
X802640Y462280D01*
X800100Y459740D01*
X797560D01*
X800100Y457200D01*
X797560Y454660D01*
X800100D01*
X802640Y452120D01*
X777240Y426720D02*
X779780Y429260D01*
X782320D01*
X779780Y431800D01*
X782320Y434340D01*
X779780D01*
X777240Y436880D01*
X774700Y434340D01*
X772160D01*
X774700Y431800D01*
X772160Y429260D01*
X774700D01*
X777240Y426720D01*
X802640D02*
X805180Y429260D01*
X807720D01*
X805180Y431800D01*
X807720Y434340D01*
X805180D01*
X802640Y436880D01*
X800100Y434340D01*
X797560D01*
X800100Y431800D01*
X797560Y429260D01*
X800100D01*
X802640Y426720D01*
X777240Y401320D02*
X779780Y403860D01*
X782320D01*
X779780Y406400D01*
X782320Y408940D01*
X779780D01*
X777240Y411480D01*
X774700Y408940D01*
X772160D01*
X774700Y406400D01*
X772160Y403860D01*
X774700D01*
X777240Y401320D01*
X802640D02*
X805180Y403860D01*
X807720D01*
X805180Y406400D01*
X807720Y408940D01*
X805180D01*
X802640Y411480D01*
X800100Y408940D01*
X797560D01*
X800100Y406400D01*
X797560Y403860D01*
X800100D01*
X802640Y401320D01*
X777240Y375920D02*
X779780Y378460D01*
X782320D01*
X779780Y381000D01*
X782320Y383540D01*
X779780D01*
X777240Y386080D01*
X774700Y383540D01*
X772160D01*
X774700Y381000D01*
X772160Y378460D01*
X774700D01*
X777240Y375920D01*
X802640D02*
X805180Y378460D01*
X807720D01*
X805180Y381000D01*
X807720Y383540D01*
X805180D01*
X802640Y386080D01*
X800100Y383540D01*
X797560D01*
X800100Y381000D01*
X797560Y378460D01*
X800100D01*
X802640Y375920D01*
X777240Y350520D02*
X779780Y353060D01*
X782320D01*
X779780Y355600D01*
X782320Y358140D01*
X779780D01*
X777240Y360680D01*
X774700Y358140D01*
X772160D01*
X774700Y355600D01*
X772160Y353060D01*
X774700D01*
X777240Y350520D01*
X802640D02*
X805180Y353060D01*
X807720D01*
X805180Y355600D01*
X807720Y358140D01*
X805180D01*
X802640Y360680D01*
X800100Y358140D01*
X797560D01*
X800100Y355600D01*
X797560Y353060D01*
X800100D01*
X802640Y350520D01*
X777240Y325120D02*
X779780Y327660D01*
X782320D01*
X779780Y330200D01*
X782320Y332740D01*
X779780D01*
X777240Y335280D01*
X774700Y332740D01*
X772160D01*
X774700Y330200D01*
X772160Y327660D01*
X774700D01*
X777240Y325120D01*
X802640D02*
X805180Y327660D01*
X807720D01*
X805180Y330200D01*
X807720Y332740D01*
X805180D01*
X802640Y335280D01*
X800100Y332740D01*
X797560D01*
X800100Y330200D01*
X797560Y327660D01*
X800100D01*
X802640Y325120D01*
X777240Y299720D02*
X779780Y302260D01*
X782320D01*
X779780Y304800D01*
X782320Y307340D01*
X779780D01*
X777240Y309880D01*
X774700Y307340D01*
X772160D01*
X774700Y304800D01*
X772160Y302260D01*
X774700D01*
X777240Y299720D01*
X802640D02*
X805180Y302260D01*
X807720D01*
X805180Y304800D01*
X807720Y307340D01*
X805180D01*
X802640Y309880D01*
X800100Y307340D01*
X797560D01*
X800100Y304800D01*
X797560Y302260D01*
X800100D01*
X802640Y299720D01*
X777240Y274320D02*
X779780Y276860D01*
X782320D01*
X779780Y279400D01*
X782320Y281940D01*
X779780D01*
X777240Y284480D01*
X774700Y281940D01*
X772160D01*
X774700Y279400D01*
X772160Y276860D01*
X774700D01*
X777240Y274320D01*
X802640D02*
X805180Y276860D01*
X807720D01*
X805180Y279400D01*
X807720Y281940D01*
X805180D01*
X802640Y284480D01*
X800100Y281940D01*
X797560D01*
X800100Y279400D01*
X797560Y276860D01*
X800100D01*
X802640Y274320D01*
X777240Y248920D02*
X779780Y251460D01*
X782320D01*
X779780Y254000D01*
X782320Y256540D01*
X779780D01*
X777240Y259080D01*
X774700Y256540D01*
X772160D01*
X774700Y254000D01*
X772160Y251460D01*
X774700D01*
X777240Y248920D01*
X802640D02*
X805180Y251460D01*
X807720D01*
X805180Y254000D01*
X807720Y256540D01*
X805180D01*
X802640Y259080D01*
X800100Y256540D01*
X797560D01*
X800100Y254000D01*
X797560Y251460D01*
X800100D01*
X802640Y248920D01*
X777240Y223520D02*
X779780Y226060D01*
X782320D01*
X779780Y228600D01*
X782320Y231140D01*
X779780D01*
X777240Y233680D01*
X774700Y231140D01*
X772160D01*
X774700Y228600D01*
X772160Y226060D01*
X774700D01*
X777240Y223520D01*
X802640D02*
X805180Y226060D01*
X807720D01*
X805180Y228600D01*
X807720Y231140D01*
X805180D01*
X802640Y233680D01*
X800100Y231140D01*
X797560D01*
X800100Y228600D01*
X797560Y226060D01*
X800100D01*
X802640Y223520D01*
X777240Y198120D02*
X779780Y200660D01*
X782320D01*
X779780Y203200D01*
X782320Y205740D01*
X779780D01*
X777240Y208280D01*
X774700Y205740D01*
X772160D01*
X774700Y203200D01*
X772160Y200660D01*
X774700D01*
X777240Y198120D01*
X802640D02*
X805180Y200660D01*
X807720D01*
X805180Y203200D01*
X807720Y205740D01*
X805180D01*
X802640Y208280D01*
X800100Y205740D01*
X797560D01*
X800100Y203200D01*
X797560Y200660D01*
X800100D01*
X802640Y198120D01*
X777240Y172720D02*
X779780Y175260D01*
X782320D01*
X779780Y177800D01*
X782320Y180340D01*
X779780D01*
X777240Y182880D01*
X774700Y180340D01*
X772160D01*
X774700Y177800D01*
X772160Y175260D01*
X774700D01*
X777240Y172720D01*
X802640D02*
X805180Y175260D01*
X807720D01*
X805180Y177800D01*
X807720Y180340D01*
X805180D01*
X802640Y182880D01*
X800100Y180340D01*
X797560D01*
X800100Y177800D01*
X797560Y175260D01*
X800100D01*
X802640Y172720D01*
X27940Y744220D02*
X30480Y749300D01*
X27940Y754380D01*
X33020Y751840D01*
X38100Y754380D01*
X35560Y749300D01*
X38100Y744220D01*
X33020Y746760D01*
X27940Y744220D01*
X26670Y26670D02*
X29210Y31750D01*
X26670Y36830D01*
X31750Y34290D01*
X36830Y36830D01*
X34290Y31750D01*
X36830Y26670D01*
X31750Y29210D01*
X26670Y26670D01*
X731520Y24130D02*
X726440Y34290D01*
X736600D01*
X731520Y24130D01*
X806450Y27940D02*
X808990Y33020D01*
X806450Y38100D01*
X811530Y35560D01*
X816610Y38100D01*
X814070Y33020D01*
X816610Y27940D01*
X811530Y30480D01*
X806450Y27940D01*
Y745490D02*
X808990Y750570D01*
X806450Y755650D01*
X811530Y753110D01*
X816610Y755650D01*
X814070Y750570D01*
X816610Y745490D01*
X811530Y748030D01*
X806450Y745490D01*
X679450Y732790D02*
X674370Y742950D01*
X684530D01*
X679450Y732790D01*
X613410D02*
X608330Y742950D01*
X618490D01*
X613410Y732790D01*
X665480Y24130D02*
X660400Y34290D01*
X670560D01*
X665480Y24130D01*
X522101Y371867D02*
X524641D01*
X527181Y374407D01*
X529721Y371867D01*
X532261D01*
Y374407D01*
X529721Y376947D01*
X532261Y379487D01*
Y382027D01*
X529721D01*
X527181Y379487D01*
X524641Y382027D01*
X522101D01*
Y379487D01*
X524641Y376947D01*
X522101Y374407D01*
Y371867D01*
Y359167D02*
X524641D01*
X527181Y361707D01*
X529721Y359167D01*
X532261D01*
Y361707D01*
X529721Y364247D01*
X532261Y366787D01*
Y369327D01*
X529721D01*
X527181Y366787D01*
X524641Y369327D01*
X522101D01*
Y366787D01*
X524641Y364247D01*
X522101Y361707D01*
Y359167D01*
Y346467D02*
X524641D01*
X527181Y349007D01*
X529721Y346467D01*
X532261D01*
Y349007D01*
X529721Y351547D01*
X532261Y354087D01*
Y356627D01*
X529721D01*
X527181Y354087D01*
X524641Y356627D01*
X522101D01*
Y354087D01*
X524641Y351547D01*
X522101Y349007D01*
Y346467D01*
X523371Y282967D02*
X525911D01*
X528451Y285507D01*
X530991Y282967D01*
X533531D01*
Y285507D01*
X530991Y288047D01*
X533531Y290587D01*
Y293127D01*
X530991D01*
X528451Y290587D01*
X525911Y293127D01*
X523371D01*
Y290587D01*
X525911Y288047D01*
X523371Y285507D01*
Y282967D01*
X521970Y237490D02*
X524510D01*
X527050Y240030D01*
X529590Y237490D01*
X532130D01*
Y240030D01*
X529590Y242570D01*
X532130Y245110D01*
Y247650D01*
X529590D01*
X527050Y245110D01*
X524510Y247650D01*
X521970D01*
Y245110D01*
X524510Y242570D01*
X521970Y240030D01*
Y237490D01*
Y209550D02*
X524510D01*
X527050Y212090D01*
X529590Y209550D01*
X532130D01*
Y212090D01*
X529590Y214630D01*
X532130Y217170D01*
Y219710D01*
X529590D01*
X527050Y217170D01*
X524510Y219710D01*
X521970D01*
Y217170D01*
X524510Y214630D01*
X521970Y212090D01*
Y209550D01*
X477520Y68580D02*
X480060D01*
X482600Y71120D01*
X485140Y68580D01*
X487680D01*
Y71120D01*
X485140Y73660D01*
X487680Y76200D01*
Y78740D01*
X485140D01*
X482600Y76200D01*
X480060Y78740D01*
X477520D01*
Y76200D01*
X480060Y73660D01*
X477520Y71120D01*
Y68580D01*
X446542Y70424D02*
X449082D01*
X451622Y72964D01*
X454162Y70424D01*
X456702D01*
Y72964D01*
X454162Y75504D01*
X456702Y78044D01*
Y80584D01*
X454162D01*
X451622Y78044D01*
X449082Y80584D01*
X446542D01*
Y78044D01*
X449082Y75504D01*
X446542Y72964D01*
Y70424D01*
X436382Y61534D02*
X438922D01*
X441462Y64074D01*
X444002Y61534D01*
X446542D01*
Y64074D01*
X444002Y66614D01*
X446542Y69154D01*
Y71694D01*
X444002D01*
X441462Y69154D01*
X438922Y71694D01*
X436382D01*
Y69154D01*
X438922Y66614D01*
X436382Y64074D01*
Y61534D01*
X469402Y60264D02*
X471942D01*
X474482Y62804D01*
X477022Y60264D01*
X479562D01*
Y62804D01*
X477022Y65344D01*
X479562Y67884D01*
Y70424D01*
X477022D01*
X474482Y67884D01*
X471942Y70424D01*
X469402D01*
Y67884D01*
X471942Y65344D01*
X469402Y62804D01*
Y60264D01*
X459242Y51374D02*
X461782D01*
X464322Y53914D01*
X466862Y51374D01*
X469402D01*
Y53914D01*
X466862Y56454D01*
X469402Y58994D01*
Y61534D01*
X466862D01*
X464322Y58994D01*
X461782Y61534D01*
X459242D01*
Y58994D01*
X461782Y56454D01*
X459242Y53914D01*
Y51374D01*
X744220Y78740D02*
X746760D01*
X749300Y81280D01*
X751840Y78740D01*
X754380D01*
Y81280D01*
X751840Y83820D01*
X754380Y86360D01*
Y88900D01*
X751840D01*
X749300Y86360D01*
X746760Y88900D01*
X744220D01*
Y86360D01*
X746760Y83820D01*
X744220Y81280D01*
Y78740D01*
X209550Y87590D02*
X212090D01*
X214630Y90130D01*
X217170Y87590D01*
X219710D01*
Y90130D01*
X217170Y92670D01*
X219710Y95210D01*
Y97750D01*
X217170D01*
X214630Y95210D01*
X212090Y97750D01*
X209550D01*
Y95210D01*
X212090Y92670D01*
X209550Y90130D01*
Y87590D01*
X762000Y83820D02*
X764540D01*
X767080Y86360D01*
X769620Y83820D01*
X772160D01*
Y86360D01*
X769620Y88900D01*
X772160Y91440D01*
Y93980D01*
X769620D01*
X767080Y91440D01*
X764540Y93980D01*
X762000D01*
Y91440D01*
X764540Y88900D01*
X762000Y86360D01*
Y83820D01*
X232410Y92710D02*
X234950D01*
X237490Y95250D01*
X240030Y92710D01*
X242570D01*
Y95250D01*
X240030Y97790D01*
X242570Y100330D01*
Y102870D01*
X240030D01*
X237490Y100330D01*
X234950Y102870D01*
X232410D01*
Y100330D01*
X234950Y97790D01*
X232410Y95250D01*
Y92710D01*
X787400D02*
X789940D01*
X792480Y95250D01*
X795020Y92710D01*
X797560D01*
Y95250D01*
X795020Y97790D01*
X797560Y100330D01*
Y102870D01*
X795020D01*
X792480Y100330D01*
X789940Y102870D01*
X787400D01*
Y100330D01*
X789940Y97790D01*
X787400Y95250D01*
Y92710D01*
X821690Y100330D02*
X824230D01*
X826770Y102870D01*
X829310Y100330D01*
X831850D01*
Y102870D01*
X829310Y105410D01*
X831850Y107950D01*
Y110490D01*
X829310D01*
X826770Y107950D01*
X824230Y110490D01*
X821690D01*
Y107950D01*
X824230Y105410D01*
X821690Y102870D01*
Y100330D01*
X394702Y100290D02*
X397243D01*
X399782Y102830D01*
X402323Y100290D01*
X404863D01*
Y102830D01*
X402323Y105370D01*
X404863Y107910D01*
Y110450D01*
X402323D01*
X399782Y107910D01*
X397243Y110450D01*
X394702D01*
Y107910D01*
X397243Y105370D01*
X394702Y102830D01*
Y100290D01*
X439420Y33020D02*
X441960D01*
X444500Y35560D01*
X447040Y33020D01*
X449580D01*
Y35560D01*
X447040Y38100D01*
X449580Y40640D01*
Y43180D01*
X447040D01*
X444500Y40640D01*
X441960Y43180D01*
X439420D01*
Y40640D01*
X441960Y38100D01*
X439420Y35560D01*
Y33020D01*
X449580Y41910D02*
X452120D01*
X454660Y44450D01*
X457200Y41910D01*
X459740D01*
Y44450D01*
X457200Y46990D01*
X459740Y49530D01*
Y52070D01*
X457200D01*
X454660Y49530D01*
X452120Y52070D01*
X449580D01*
Y49530D01*
X452120Y46990D01*
X449580Y44450D01*
Y41910D01*
X506730Y143510D02*
X509270D01*
X511810Y146050D01*
X514350Y143510D01*
X516890D01*
Y146050D01*
X514350Y148590D01*
X516890Y151130D01*
Y153670D01*
X514350D01*
X511810Y151130D01*
X509270Y153670D01*
X506730D01*
Y151130D01*
X509270Y148590D01*
X506730Y146050D01*
Y143510D01*
X486410Y116840D02*
X488950D01*
X491490Y119380D01*
X494030Y116840D01*
X496570D01*
Y119380D01*
X494030Y121920D01*
X496570Y124460D01*
Y127000D01*
X494030D01*
X491490Y124460D01*
X488950Y127000D01*
X486410D01*
Y124460D01*
X488950Y121920D01*
X486410Y119380D01*
Y116840D01*
X542290Y393700D02*
X544830D01*
X547370Y396240D01*
X549910Y393700D01*
X552450D01*
Y396240D01*
X549910Y398780D01*
X552450Y401320D01*
Y403860D01*
X549910D01*
X547370Y401320D01*
X544830Y403860D01*
X542290D01*
Y401320D01*
X544830Y398780D01*
X542290Y396240D01*
Y393700D01*
X515620D02*
X518160D01*
X520700Y396240D01*
X523240Y393700D01*
X525780D01*
Y396240D01*
X523240Y398780D01*
X525780Y401320D01*
Y403860D01*
X523240D01*
X520700Y401320D01*
X518160Y403860D01*
X515620D01*
Y401320D01*
X518160Y398780D01*
X515620Y396240D01*
Y393700D01*
X502920D02*
X505460D01*
X508000Y396240D01*
X510540Y393700D01*
X513080D01*
Y396240D01*
X510540Y398780D01*
X513080Y401320D01*
Y403860D01*
X510540D01*
X508000Y401320D01*
X505460Y403860D01*
X502920D01*
Y401320D01*
X505460Y398780D01*
X502920Y396240D01*
Y393700D01*
X490220D02*
X492760D01*
X495300Y396240D01*
X497840Y393700D01*
X500380D01*
Y396240D01*
X497840Y398780D01*
X500380Y401320D01*
Y403860D01*
X497840D01*
X495300Y401320D01*
X492760Y403860D01*
X490220D01*
Y401320D01*
X492760Y398780D01*
X490220Y396240D01*
Y393700D01*
X477520D02*
X480060D01*
X482600Y396240D01*
X485140Y393700D01*
X487680D01*
Y396240D01*
X485140Y398780D01*
X487680Y401320D01*
Y403860D01*
X485140D01*
X482600Y401320D01*
X480060Y403860D01*
X477520D01*
Y401320D01*
X480060Y398780D01*
X477520Y396240D01*
Y393700D01*
X478790Y370840D02*
X481330D01*
X483870Y373380D01*
X486410Y370840D01*
X488950D01*
Y373380D01*
X486410Y375920D01*
X488950Y378460D01*
Y381000D01*
X486410D01*
X483870Y378460D01*
X481330Y381000D01*
X478790D01*
Y378460D01*
X481330Y375920D01*
X478790Y373380D01*
Y370840D01*
X488950Y360680D02*
X491490D01*
X494030Y363220D01*
X496570Y360680D01*
X499110D01*
Y363220D01*
X496570Y365760D01*
X499110Y368300D01*
Y370840D01*
X496570D01*
X494030Y368300D01*
X491490Y370840D01*
X488950D01*
Y368300D01*
X491490Y365760D01*
X488950Y363220D01*
Y360680D01*
X499110Y350520D02*
X501650D01*
X504190Y353060D01*
X506730Y350520D01*
X509270D01*
Y353060D01*
X506730Y355600D01*
X509270Y358140D01*
Y360680D01*
X506730D01*
X504190Y358140D01*
X501650Y360680D01*
X499110D01*
Y358140D01*
X501650Y355600D01*
X499110Y353060D01*
Y350520D01*
X519430Y118110D02*
X521970D01*
X524510Y120650D01*
X527050Y118110D01*
X529590D01*
Y120650D01*
X527050Y123190D01*
X529590Y125730D01*
Y128270D01*
X527050D01*
X524510Y125730D01*
X521970Y128270D01*
X519430D01*
Y125730D01*
X521970Y123190D01*
X519430Y120650D01*
Y118110D01*
X543560D02*
X546100D01*
X548640Y120650D01*
X551180Y118110D01*
X553720D01*
Y120650D01*
X551180Y123190D01*
X553720Y125730D01*
Y128270D01*
X551180D01*
X548640Y125730D01*
X546100Y128270D01*
X543560D01*
Y125730D01*
X546100Y123190D01*
X543560Y120650D01*
Y118110D01*
X506730Y116840D02*
X509270D01*
X511810Y119380D01*
X514350Y116840D01*
X516890D01*
Y119380D01*
X514350Y121920D01*
X516890Y124460D01*
Y127000D01*
X514350D01*
X511810Y124460D01*
X509270Y127000D01*
X506730D01*
Y124460D01*
X509270Y121920D01*
X506730Y119380D01*
Y116840D01*
X488950Y143510D02*
X491490D01*
X494030Y146050D01*
X496570Y143510D01*
X499110D01*
Y146050D01*
X496570Y148590D01*
X499110Y151130D01*
Y153670D01*
X496570D01*
X494030Y151130D01*
X491490Y153670D01*
X488950D01*
Y151130D01*
X491490Y148590D01*
X488950Y146050D01*
Y143510D01*
X519430Y138430D02*
X521970D01*
X524510Y140970D01*
X527050Y138430D01*
X529590D01*
Y140970D01*
X527050Y143510D01*
X529590Y146050D01*
Y148590D01*
X527050D01*
X524510Y146050D01*
X521970Y148590D01*
X519430D01*
Y146050D01*
X521970Y143510D01*
X519430Y140970D01*
Y138430D01*
X543560D02*
X546100D01*
X548640Y140970D01*
X551180Y138430D01*
X553720D01*
Y140970D01*
X551180Y143510D01*
X553720Y146050D01*
Y148590D01*
X551180D01*
X548640Y146050D01*
X546100Y148590D01*
X543560D01*
Y146050D01*
X546100Y143510D01*
X543560Y140970D01*
Y138430D01*
Y148590D02*
X546100D01*
X548640Y151130D01*
X551180Y148590D01*
X553720D01*
Y151130D01*
X551180Y153670D01*
X553720Y156210D01*
Y158750D01*
X551180D01*
X548640Y156210D01*
X546100Y158750D01*
X543560D01*
Y156210D01*
X546100Y153670D01*
X543560Y151130D01*
Y148590D01*
X486410Y237490D02*
X488950D01*
X491490Y240030D01*
X494030Y237490D01*
X496570D01*
Y240030D01*
X494030Y242570D01*
X496570Y245110D01*
Y247650D01*
X494030D01*
X491490Y245110D01*
X488950Y247650D01*
X486410D01*
Y245110D01*
X488950Y242570D01*
X486410Y240030D01*
Y237490D01*
Y220980D02*
X488950D01*
X491490Y223520D01*
X494030Y220980D01*
X496570D01*
Y223520D01*
X494030Y226060D01*
X496570Y228600D01*
Y231140D01*
X494030D01*
X491490Y228600D01*
X488950Y231140D01*
X486410D01*
Y228600D01*
X488950Y226060D01*
X486410Y223520D01*
Y220980D01*
Y209550D02*
X488950D01*
X491490Y212090D01*
X494030Y209550D01*
X496570D01*
Y212090D01*
X494030Y214630D01*
X496570Y217170D01*
Y219710D01*
X494030D01*
X491490Y217170D01*
X488950Y219710D01*
X486410D01*
Y217170D01*
X488950Y214630D01*
X486410Y212090D01*
Y209550D01*
X509270D02*
X511810D01*
X514350Y212090D01*
X516890Y209550D01*
X519430D01*
Y212090D01*
X516890Y214630D01*
X519430Y217170D01*
Y219710D01*
X516890D01*
X514350Y217170D01*
X511810Y219710D01*
X509270D01*
Y217170D01*
X511810Y214630D01*
X509270Y212090D01*
Y209550D01*
Y220980D02*
X511810D01*
X514350Y223520D01*
X516890Y220980D01*
X519430D01*
Y223520D01*
X516890Y226060D01*
X519430Y228600D01*
Y231140D01*
X516890D01*
X514350Y228600D01*
X511810Y231140D01*
X509270D01*
Y228600D01*
X511810Y226060D01*
X509270Y223520D01*
Y220980D01*
X510540Y237490D02*
X513080D01*
X515620Y240030D01*
X518160Y237490D01*
X520700D01*
Y240030D01*
X518160Y242570D01*
X520700Y245110D01*
Y247650D01*
X518160D01*
X515620Y245110D01*
X513080Y247650D01*
X510540D01*
Y245110D01*
X513080Y242570D01*
X510540Y240030D01*
Y237490D01*
X521970Y220980D02*
X524510D01*
X527050Y223520D01*
X529590Y220980D01*
X532130D01*
Y223520D01*
X529590Y226060D01*
X532130Y228600D01*
Y231140D01*
X529590D01*
X527050Y228600D01*
X524510Y231140D01*
X521970D01*
Y228600D01*
X524510Y226060D01*
X521970Y223520D01*
Y220980D01*
X542290Y209550D02*
X544830D01*
X547370Y212090D01*
X549910Y209550D01*
X552450D01*
Y212090D01*
X549910Y214630D01*
X552450Y217170D01*
Y219710D01*
X549910D01*
X547370Y217170D01*
X544830Y219710D01*
X542290D01*
Y217170D01*
X544830Y214630D01*
X542290Y212090D01*
Y209550D01*
Y220980D02*
X544830D01*
X547370Y223520D01*
X549910Y220980D01*
X552450D01*
Y223520D01*
X549910Y226060D01*
X552450Y228600D01*
Y231140D01*
X549910D01*
X547370Y228600D01*
X544830Y231140D01*
X542290D01*
Y228600D01*
X544830Y226060D01*
X542290Y223520D01*
Y220980D01*
Y237490D02*
X544830D01*
X547370Y240030D01*
X549910Y237490D01*
X552450D01*
Y240030D01*
X549910Y242570D01*
X552450Y245110D01*
Y247650D01*
X549910D01*
X547370Y245110D01*
X544830Y247650D01*
X542290D01*
Y245110D01*
X544830Y242570D01*
X542290Y240030D01*
Y237490D01*
X541020Y283210D02*
X543560D01*
X546100Y285750D01*
X548640Y283210D01*
X551180D01*
Y285750D01*
X548640Y288290D01*
X551180Y290830D01*
Y293370D01*
X548640D01*
X546100Y290830D01*
X543560Y293370D01*
X541020D01*
Y290830D01*
X543560Y288290D01*
X541020Y285750D01*
Y283210D01*
X534790Y403695D02*
X537330D01*
X539870Y406235D01*
X542410Y403695D01*
X544950D01*
Y406235D01*
X542410Y408775D01*
X544950Y411315D01*
Y413855D01*
X542410D01*
X539870Y411315D01*
X537330Y413855D01*
X534790D01*
Y411315D01*
X537330Y408775D01*
X534790Y406235D01*
Y403695D01*
X542421Y371867D02*
X544961D01*
X547501Y374407D01*
X550041Y371867D01*
X552581D01*
Y374407D01*
X550041Y376947D01*
X552581Y379487D01*
Y382027D01*
X550041D01*
X547501Y379487D01*
X544961Y382027D01*
X542421D01*
Y379487D01*
X544961Y376947D01*
X542421Y374407D01*
Y371867D01*
Y359167D02*
X544961D01*
X547501Y361707D01*
X550041Y359167D01*
X552581D01*
Y361707D01*
X550041Y364247D01*
X552581Y366787D01*
Y369327D01*
X550041D01*
X547501Y366787D01*
X544961Y369327D01*
X542421D01*
Y366787D01*
X544961Y364247D01*
X542421Y361707D01*
Y359167D01*
Y346467D02*
X544961D01*
X547501Y349007D01*
X550041Y346467D01*
X552581D01*
Y349007D01*
X550041Y351547D01*
X552581Y354087D01*
Y356627D01*
X550041D01*
X547501Y354087D01*
X544961Y356627D01*
X542421D01*
Y354087D01*
X544961Y351547D01*
X542421Y349007D01*
Y346467D01*
X175260Y363220D02*
X177800D01*
X180340Y365760D01*
X182880Y363220D01*
X185420D01*
Y365760D01*
X182880Y368300D01*
X185420Y370840D01*
Y373380D01*
X182880D01*
X180340Y370840D01*
X177800Y373380D01*
X175260D01*
Y370840D01*
X177800Y368300D01*
X175260Y365760D01*
Y363220D01*
X191770Y102870D02*
X194310D01*
X196850Y105410D01*
X199390Y102870D01*
X201930D01*
Y105410D01*
X199390Y107950D01*
X201930Y110490D01*
Y113030D01*
X199390D01*
X196850Y110490D01*
X194310Y113030D01*
X191770D01*
Y110490D01*
X194310Y107950D01*
X191770Y105410D01*
Y102870D01*
X772160Y109220D02*
X774700D01*
X777240Y111760D01*
X779780Y109220D01*
X782320D01*
Y111760D01*
X779780Y114300D01*
X782320Y116840D01*
Y119380D01*
X779780D01*
X777240Y116840D01*
X774700Y119380D01*
X772160D01*
Y116840D01*
X774700Y114300D01*
X772160Y111760D01*
Y109220D01*
X383540Y581660D02*
X386080D01*
X388620Y584200D01*
X391160Y581660D01*
X393700D01*
Y584200D01*
X391160Y586740D01*
X393700Y589280D01*
Y591820D01*
X391160D01*
X388620Y589280D01*
X386080Y591820D01*
X383540D01*
Y589280D01*
X386080Y586740D01*
X383540Y584200D01*
Y581660D01*
X408940Y615950D02*
X411480D01*
X414020Y618490D01*
X416560Y615950D01*
X419100D01*
Y618490D01*
X416560Y621030D01*
X419100Y623570D01*
Y626110D01*
X416560D01*
X414020Y623570D01*
X411480Y626110D01*
X408940D01*
Y623570D01*
X411480Y621030D01*
X408940Y618490D01*
Y615950D01*
X297513Y579523D02*
X300053D01*
X302593Y582063D01*
X305133Y579523D01*
X307673D01*
Y582063D01*
X305133Y584603D01*
X307673Y587143D01*
Y589683D01*
X305133D01*
X302593Y587143D01*
X300053Y589683D01*
X297513D01*
Y587143D01*
X300053Y584603D01*
X297513Y582063D01*
Y579523D01*
X445770Y656590D02*
X448310D01*
X450850Y659130D01*
X453390Y656590D01*
X455930D01*
Y659130D01*
X453390Y661670D01*
X455930Y664210D01*
Y666750D01*
X453390D01*
X450850Y664210D01*
X448310Y666750D01*
X445770D01*
Y664210D01*
X448310Y661670D01*
X445770Y659130D01*
Y656590D01*
X585788Y565150D02*
X588327D01*
X590868Y567690D01*
X593408Y565150D01*
X595947D01*
Y567690D01*
X593408Y570230D01*
X595947Y572770D01*
Y575310D01*
X593408D01*
X590868Y572770D01*
X588327Y575310D01*
X585788D01*
Y572770D01*
X588327Y570230D01*
X585788Y567690D01*
Y565150D01*
X614680Y566420D02*
X617220D01*
X619760Y568960D01*
X622300Y566420D01*
X624840D01*
Y568960D01*
X622300Y571500D01*
X624840Y574040D01*
Y576580D01*
X622300D01*
X619760Y574040D01*
X617220Y576580D01*
X614680D01*
Y574040D01*
X617220Y571500D01*
X614680Y568960D01*
Y566420D01*
X491490Y626110D02*
X494030D01*
X496570Y628650D01*
X499110Y626110D01*
X501650D01*
Y628650D01*
X499110Y631190D01*
X501650Y633730D01*
Y636270D01*
X499110D01*
X496570Y633730D01*
X494030Y636270D01*
X491490D01*
Y633730D01*
X494030Y631190D01*
X491490Y628650D01*
Y626110D01*
X574040Y502920D02*
X576580D01*
X579120Y505460D01*
X581660Y502920D01*
X584200D01*
Y505460D01*
X581660Y508000D01*
X584200Y510540D01*
Y513080D01*
X581660D01*
X579120Y510540D01*
X576580Y513080D01*
X574040D01*
Y510540D01*
X576580Y508000D01*
X574040Y505460D01*
Y502920D01*
X557530Y579329D02*
X560070D01*
X562610Y581869D01*
X565150Y579329D01*
X567690D01*
Y581869D01*
X565150Y584409D01*
X567690Y586949D01*
Y589489D01*
X565150D01*
X562610Y586949D01*
X560070Y589489D01*
X557530D01*
Y586949D01*
X560070Y584409D01*
X557530Y581869D01*
Y579329D01*
X532130Y565150D02*
X534670D01*
X537210Y567690D01*
X539750Y565150D01*
X542290D01*
Y567690D01*
X539750Y570230D01*
X542290Y572770D01*
Y575310D01*
X539750D01*
X537210Y572770D01*
X534670Y575310D01*
X532130D01*
Y572770D01*
X534670Y570230D01*
X532130Y567690D01*
Y565150D01*
X344170Y557530D02*
X346710D01*
X349250Y560070D01*
X351790Y557530D01*
X354330D01*
Y560070D01*
X351790Y562610D01*
X354330Y565150D01*
Y567690D01*
X351790D01*
X349250Y565150D01*
X346710Y567690D01*
X344170D01*
Y565150D01*
X346710Y562610D01*
X344170Y560070D01*
Y557530D01*
X491490Y509270D02*
X494030D01*
X496570Y511810D01*
X499110Y509270D01*
X501650D01*
Y511810D01*
X499110Y514350D01*
X501650Y516890D01*
Y519430D01*
X499110D01*
X496570Y516890D01*
X494030Y519430D01*
X491490D01*
Y516890D01*
X494030Y514350D01*
X491490Y511810D01*
Y509270D01*
X357470Y604907D02*
X360010D01*
X362550Y607447D01*
X365090Y604907D01*
X367630D01*
Y607447D01*
X365090Y609987D01*
X367630Y612527D01*
Y615067D01*
X365090D01*
X362550Y612527D01*
X360010Y615067D01*
X357470D01*
Y612527D01*
X360010Y609987D01*
X357470Y607447D01*
Y604907D01*
X666750Y266700D02*
X669290D01*
X671830Y269240D01*
X674370Y266700D01*
X676910D01*
Y269240D01*
X674370Y271780D01*
X676910Y274320D01*
Y276860D01*
X674370D01*
X671830Y274320D01*
X669290Y276860D01*
X666750D01*
Y274320D01*
X669290Y271780D01*
X666750Y269240D01*
Y266700D01*
X488950Y417830D02*
X491490D01*
X494030Y420370D01*
X496570Y417830D01*
X499110D01*
Y420370D01*
X496570Y422910D01*
X499110Y425450D01*
Y427990D01*
X496570D01*
X494030Y425450D01*
X491490Y427990D01*
X488950D01*
Y425450D01*
X491490Y422910D01*
X488950Y420370D01*
Y417830D01*
X486410Y440690D02*
X488950D01*
X491490Y443230D01*
X494030Y440690D01*
X496570D01*
Y443230D01*
X494030Y445770D01*
X496570Y448310D01*
Y450850D01*
X494030D01*
X491490Y448310D01*
X488950Y450850D01*
X486410D01*
Y448310D01*
X488950Y445770D01*
X486410Y443230D01*
Y440690D01*
X613410Y426720D02*
X615950D01*
X618490Y429260D01*
X621030Y426720D01*
X623570D01*
Y429260D01*
X621030Y431800D01*
X623570Y434340D01*
Y436880D01*
X621030D01*
X618490Y434340D01*
X615950Y436880D01*
X613410D01*
Y434340D01*
X615950Y431800D01*
X613410Y429260D01*
Y426720D01*
Y224790D02*
X615950D01*
X618490Y227330D01*
X621030Y224790D01*
X623570D01*
Y227330D01*
X621030Y229870D01*
X623570Y232410D01*
Y234950D01*
X621030D01*
X618490Y232410D01*
X615950Y234950D01*
X613410D01*
Y232410D01*
X615950Y229870D01*
X613410Y227330D01*
Y224790D01*
X712470Y252730D02*
X715010D01*
X717550Y255270D01*
X720090Y252730D01*
X722630D01*
Y255270D01*
X720090Y257810D01*
X722630Y260350D01*
Y262890D01*
X720090D01*
X717550Y260350D01*
X715010Y262890D01*
X712470D01*
Y260350D01*
X715010Y257810D01*
X712470Y255270D01*
Y252730D01*
X701040Y298450D02*
X703580D01*
X706120Y300990D01*
X708660Y298450D01*
X711200D01*
Y300990D01*
X708660Y303530D01*
X711200Y306070D01*
Y308610D01*
X708660D01*
X706120Y306070D01*
X703580Y308610D01*
X701040D01*
Y306070D01*
X703580Y303530D01*
X701040Y300990D01*
Y298450D01*
X657860Y381000D02*
X660400D01*
X662940Y383540D01*
X665480Y381000D01*
X668020D01*
Y383540D01*
X665480Y386080D01*
X668020Y388620D01*
Y391160D01*
X665480D01*
X662940Y388620D01*
X660400Y391160D01*
X657860D01*
Y388620D01*
X660400Y386080D01*
X657860Y383540D01*
Y381000D01*
X635000Y406400D02*
X637540D01*
X640080Y408940D01*
X642620Y406400D01*
X645160D01*
Y408940D01*
X642620Y411480D01*
X645160Y414020D01*
Y416560D01*
X642620D01*
X640080Y414020D01*
X637540Y416560D01*
X635000D01*
Y414020D01*
X637540Y411480D01*
X635000Y408940D01*
Y406400D01*
Y292100D02*
X637540D01*
X640080Y294640D01*
X642620Y292100D01*
X645160D01*
Y294640D01*
X642620Y297180D01*
X645160Y299720D01*
Y302260D01*
X642620D01*
X640080Y299720D01*
X637540Y302260D01*
X635000D01*
Y299720D01*
X637540Y297180D01*
X635000Y294640D01*
Y292100D01*
X656590Y314960D02*
X659130D01*
X661670Y317500D01*
X664210Y314960D01*
X666750D01*
Y317500D01*
X664210Y320040D01*
X666750Y322580D01*
Y325120D01*
X664210D01*
X661670Y322580D01*
X659130Y325120D01*
X656590D01*
Y322580D01*
X659130Y320040D01*
X656590Y317500D01*
Y314960D01*
X410210Y128270D02*
X412750D01*
X415290Y130810D01*
X417830Y128270D01*
X420370D01*
Y130810D01*
X417830Y133350D01*
X420370Y135890D01*
Y138430D01*
X417830D01*
X415290Y135890D01*
X412750Y138430D01*
X410210D01*
Y135890D01*
X412750Y133350D01*
X410210Y130810D01*
Y128270D01*
X807720Y127000D02*
X810260D01*
X812800Y129540D01*
X815340Y127000D01*
X817880D01*
Y129540D01*
X815340Y132080D01*
X817880Y134620D01*
Y137160D01*
X815340D01*
X812800Y134620D01*
X810260Y137160D01*
X807720D01*
Y134620D01*
X810260Y132080D01*
X807720Y129540D01*
Y127000D01*
X681990Y364490D02*
X684530D01*
X687070Y367030D01*
X689610Y364490D01*
X692150D01*
Y367030D01*
X689610Y369570D01*
X692150Y372110D01*
Y374650D01*
X689610D01*
X687070Y372110D01*
X684530Y374650D01*
X681990D01*
Y372110D01*
X684530Y369570D01*
X681990Y367030D01*
Y364490D01*
X680720Y191770D02*
X683260D01*
X685800Y194310D01*
X688340Y191770D01*
X690880D01*
Y194310D01*
X688340Y196850D01*
X690880Y199390D01*
Y201930D01*
X688340D01*
X685800Y199390D01*
X683260Y201930D01*
X680720D01*
Y199390D01*
X683260Y196850D01*
X680720Y194310D01*
Y191770D01*
X358140Y190500D02*
X360680D01*
X363220Y193040D01*
X365760Y190500D01*
X368300D01*
Y193040D01*
X365760Y195580D01*
X368300Y198120D01*
Y200660D01*
X365760D01*
X363220Y198120D01*
X360680Y200660D01*
X358140D01*
Y198120D01*
X360680Y195580D01*
X358140Y193040D01*
Y190500D01*
X726440Y326390D02*
X728980D01*
X731520Y328930D01*
X734060Y326390D01*
X736600D01*
Y328930D01*
X734060Y331470D01*
X736600Y334010D01*
Y336550D01*
X734060D01*
X731520Y334010D01*
X728980Y336550D01*
X726440D01*
Y334010D01*
X728980Y331470D01*
X726440Y328930D01*
Y326390D01*
Y173990D02*
X728980D01*
X731520Y176530D01*
X734060Y173990D01*
X736600D01*
Y176530D01*
X734060Y179070D01*
X736600Y181610D01*
Y184150D01*
X734060D01*
X731520Y181610D01*
X728980Y184150D01*
X726440D01*
Y181610D01*
X728980Y179070D01*
X726440Y176530D01*
Y173990D01*
X382270D02*
X384810D01*
X387350Y176530D01*
X389890Y173990D01*
X392430D01*
Y176530D01*
X389890Y179070D01*
X392430Y181610D01*
Y184150D01*
X389890D01*
X387350Y181610D01*
X384810Y184150D01*
X382270D01*
Y181610D01*
X384810Y179070D01*
X382270Y176530D01*
Y173990D01*
X701040Y153670D02*
X703580D01*
X706120Y156210D01*
X708660Y153670D01*
X711200D01*
Y156210D01*
X708660Y158750D01*
X711200Y161290D01*
Y163830D01*
X708660D01*
X706120Y161290D01*
X703580Y163830D01*
X701040D01*
Y161290D01*
X703580Y158750D01*
X701040Y156210D01*
Y153670D01*
X458470Y154940D02*
X461010D01*
X463550Y157480D01*
X466090Y154940D01*
X468630D01*
Y157480D01*
X466090Y160020D01*
X468630Y162560D01*
Y165100D01*
X466090D01*
X463550Y162560D01*
X461010Y165100D01*
X458470D01*
Y162560D01*
X461010Y160020D01*
X458470Y157480D01*
Y154940D01*
D41*
X164230Y537210D02*
G03*
X164230Y537210I-5080J0D01*
G01*
Y283210D02*
G03*
X164230Y283210I-5080J0D01*
G01*
X570230Y537210D02*
G03*
X570230Y537210I-5080J0D01*
G01*
Y283210D02*
G03*
X570230Y283210I-5080J0D01*
G01*
M02*
