M48
;Layer_Color=9474304
;FILE_FORMAT=4:4
METRIC,LZ
;TYPE=PLATED
T01F00S00C0.2000
T02F00S00C0.9000
T03F00S00C1.0922
T04F00S00C1.5000
T05F00S00C1.6000
T06F00S00C3.5000
;TYPE=NON_PLATED
T07F00S00C1.7800
%
T01
X007493Y0008382
X0076708Y000889
X0079248Y0009779
X0077724Y001143
X008128Y0013208
X0082677Y0010541
X0073152Y0017907
X0070612Y0015875
X006858Y0019685
X0067183Y0027178
X0071755Y0025781
X0070612Y0030353
X0064008Y0029718
X0061849Y0022987
X0054737Y0022606
Y0021463
X0052705
Y0022606
X0051435
Y0021463
X0049149
Y0022606
Y0024257
X0051562
X0052705
X0054737
X005461Y0028829
X00528451Y00288047
X0052451Y0014351
X0051181Y0014859
X0049403
X0049149Y0012192
X0051181
X0052451Y0012319
X0054864
Y0014351
Y0015367
X0046355Y0016002
X0041529Y0013335
X00399782Y0010537
X00441462Y00066614
X00451622Y00075504
X0045466Y0004699
X004445Y000381
X00464322Y00056454
X00474482Y00065344
X004826Y0007366
X0038735Y0017907
X0036322Y0019558
X0023749Y0009779
X0021463Y0009267
X0019685Y0010795
X0018034Y003683
X0048387Y0037592
X0049403Y0036576
X0050419Y003556
X00527181Y00351547
Y00364247
Y00376947
X00547501
Y00364247
Y00351547
X0054737Y0039878
X0053987Y00408775
X005207Y0039878
X00508
X004953
X004826
X0049403Y0042291
X0049149Y0044577
X0049657Y0051435
X0057912Y00508
X00590868Y0057023
X0061976Y005715
X0056261Y00584409
X0053721Y0057023
X0049657Y0063119
X0045085Y0066167
X0041402Y0062103
X0038862Y0058674
X0036255Y00609987
X0034925Y0056261
X00302593Y00584603
X0061849Y004318
X0064008Y0041148
X0066294Y0038608
X0068707Y0036957
X0066167Y0032004
X0073152Y0033147
T02
X0026095Y0028321
X0028635
X0031175
X0033715
X0036255
X0038795
X0041335
X0043875
X0046415
X0023555
X0021015
Y0030861
Y0033401
Y0035941
Y0038481
Y0041021
Y0043561
Y0046101
Y0048641
Y0051181
Y0053721
X0023555
Y0051181
Y0048641
Y0046101
Y0043561
Y0041021
Y0038481
Y0035941
Y0033401
Y0030861
X0022439Y0068707
X0024939
X0019939
X0017439
X0026095Y0053721
X0028635
X0031175
X0033715
X0036255
X0038795
X0041335
X0043875
Y0051181
X0041335
X0038795
X0036255
X0033715
X0031175
X0028635
X0026095
X0031175Y0048641
X0033715
X0036255
X0043875
Y0046101
Y0043561
X0041335
Y0041021
Y0038481
X0043875
Y0041021
X0046415
Y0043561
Y0046101
Y0048641
Y0051181
Y0053721
Y0038481
Y0035941
X0043875
Y0033401
Y0030861
X0041335
X0038795
X0036255
Y0033401
X0033715
X0031175
Y0030861
X0028635
X0026095
Y0038481
Y0041021
Y0043561
X0033715Y0030861
X0046415
Y0033401
T03
X0077724Y001778
Y002032
Y002286
Y00254
Y002794
Y003048
X0080264
Y002794
Y00254
Y002286
Y002032
Y001778
Y003302
Y003556
Y00381
Y004064
Y004318
Y004572
Y004826
Y00508
Y005334
Y005588
Y005842
Y006096
Y00635
Y006604
X0077724
Y00635
Y006096
Y005842
Y005588
Y005334
Y00508
Y004826
Y004572
Y004318
Y004064
Y00381
Y003556
Y003302
T04
X003938Y0004054
X0053731Y0004074
T05
X0066548Y0002921
X0073152
X0056281Y0001524
X0051181
Y0006624
X0056281
X004193Y0006604
X003683
Y0001504
X004193
X0067945Y0073787
X0061341
T06
X0081153Y0003302
X0003175Y0003175
X0081153Y0075057
X0003302Y007493
T07
X0056515Y0028321
X0015915
Y0053721
X0056515
M30
