G04*
G04 #@! TF.GenerationSoftware,Altium Limited,Altium Designer,25.4.2 (15)*
G04*
G04 Layer_Physical_Order=3*
G04 Layer_Color=16440176*
%FSLAX44Y44*%
%MOMM*%
G71*
G04*
G04 #@! TF.SameCoordinates,3376916D-7717-44A7-936A-FC15E23AF39E*
G04*
G04*
G04 #@! TF.FilePolarity,Positive*
G04*
G01*
G75*
%ADD12C,0.5080*%
%ADD20C,2.4500*%
%ADD21R,2.3000X2.3000*%
%ADD29C,1.4080*%
%ADD30C,1.7800*%
%ADD31R,1.4080X1.4080*%
%ADD32C,1.4000*%
%ADD33R,1.4000X1.4000*%
%ADD35C,6.0000*%
%ADD36C,0.5000*%
%ADD37C,1.5240*%
G36*
X844550Y758219D02*
X843280Y758119D01*
X843269Y758190D01*
X841686Y763061D01*
X839361Y767625D01*
X836350Y771768D01*
X832728Y775390D01*
X828585Y778401D01*
X824021Y780726D01*
X823024Y781050D01*
X823225Y782320D01*
X844550D01*
Y758219D01*
D02*
G37*
G36*
X25471Y781050D02*
X25400Y781039D01*
X20529Y779456D01*
X15965Y777131D01*
X11822Y774120D01*
X8200Y770498D01*
X5189Y766355D01*
X2864Y761791D01*
X1281Y756920D01*
X1270Y756849D01*
X0Y756949D01*
Y782320D01*
X25371D01*
X25471Y781050D01*
D02*
G37*
G36*
X800036D02*
X799039Y780726D01*
X794475Y778401D01*
X790332Y775390D01*
X786710Y771768D01*
X783699Y767625D01*
X781374Y763061D01*
X779791Y758190D01*
X778990Y753131D01*
Y748009D01*
X779791Y742950D01*
X781374Y738079D01*
X783699Y733515D01*
X786710Y729372D01*
X790332Y725750D01*
X794475Y722739D01*
X799039Y720414D01*
X803910Y718831D01*
X808969Y718030D01*
X814091D01*
X819150Y718831D01*
X824021Y720414D01*
X828585Y722739D01*
X832728Y725750D01*
X836350Y729372D01*
X839361Y733515D01*
X841686Y738079D01*
X843269Y742950D01*
X843280Y743021D01*
X844550Y742921D01*
Y193090D01*
X690827D01*
X690224Y194360D01*
X690840Y195847D01*
Y197852D01*
X690073Y199705D01*
X688655Y201123D01*
X686803Y201890D01*
X684798D01*
X682945Y201123D01*
X681527Y199705D01*
X680760Y197852D01*
Y195847D01*
X681376Y194360D01*
X680773Y193090D01*
X456049D01*
Y273630D01*
X473730D01*
Y292790D01*
X457451D01*
X456925Y294060D01*
X462105Y299240D01*
X462889Y299030D01*
X465411D01*
X467848Y299683D01*
X470032Y300944D01*
X471816Y302728D01*
X473077Y304912D01*
X473730Y307349D01*
Y309871D01*
X473077Y312308D01*
X471816Y314492D01*
X470032Y316276D01*
X467848Y317537D01*
X465411Y318190D01*
X462889D01*
X462105Y317980D01*
X456629Y323456D01*
Y326323D01*
X457803Y326809D01*
X458268Y326344D01*
X460452Y325083D01*
X462889Y324430D01*
X465411D01*
X467848Y325083D01*
X470032Y326344D01*
X471816Y328128D01*
X473077Y330312D01*
X473730Y332749D01*
Y335271D01*
X473077Y337708D01*
X471816Y339892D01*
X470032Y341676D01*
X467848Y342937D01*
X465411Y343590D01*
X462889D01*
X460452Y342937D01*
X458268Y341676D01*
X457803Y341211D01*
X456629Y341697D01*
Y346710D01*
X456235Y348692D01*
X455112Y350373D01*
X448120Y357365D01*
X448330Y358149D01*
Y360671D01*
X448120Y361455D01*
X454532Y367868D01*
X455655Y369548D01*
X456049Y371530D01*
X456049Y371530D01*
Y377566D01*
X457319Y378092D01*
X458268Y377144D01*
X460452Y375883D01*
X462889Y375230D01*
X465411D01*
X467848Y375883D01*
X470032Y377144D01*
X471816Y378928D01*
X473077Y381112D01*
X473730Y383549D01*
Y386071D01*
X473077Y388508D01*
X471816Y390692D01*
X470032Y392476D01*
X467848Y393737D01*
X465411Y394390D01*
X462889D01*
X460452Y393737D01*
X458268Y392476D01*
X457319Y391528D01*
X456049Y392054D01*
Y402966D01*
X457319Y403492D01*
X458268Y402544D01*
X460452Y401283D01*
X462889Y400630D01*
X465411D01*
X467848Y401283D01*
X470032Y402544D01*
X471816Y404328D01*
X473077Y406512D01*
X473730Y408949D01*
Y411471D01*
X473077Y413908D01*
X471816Y416092D01*
X470032Y417876D01*
X467848Y419137D01*
X465411Y419790D01*
X462889D01*
X460452Y419137D01*
X458268Y417876D01*
X457319Y416928D01*
X456049Y417454D01*
Y428366D01*
X457319Y428892D01*
X458268Y427944D01*
X460452Y426683D01*
X462889Y426030D01*
X465411D01*
X467848Y426683D01*
X470032Y427944D01*
X471816Y429728D01*
X473077Y431912D01*
X473730Y434349D01*
Y436871D01*
X473077Y439308D01*
X471816Y441492D01*
X470032Y443276D01*
X467848Y444537D01*
X465411Y445190D01*
X462889D01*
X460452Y444537D01*
X458268Y443276D01*
X457319Y442328D01*
X456049Y442854D01*
Y448890D01*
X456049Y448890D01*
X455655Y450872D01*
X454532Y452552D01*
X448120Y458965D01*
X448330Y459749D01*
Y462271D01*
X448120Y463055D01*
X455112Y470047D01*
X456235Y471728D01*
X456629Y473710D01*
Y478723D01*
X457803Y479209D01*
X458268Y478744D01*
X460452Y477483D01*
X462889Y476830D01*
X465411D01*
X467848Y477483D01*
X470032Y478744D01*
X471816Y480528D01*
X473077Y482712D01*
X473730Y485149D01*
Y487671D01*
X473077Y490108D01*
X471816Y492292D01*
X470032Y494076D01*
X467848Y495337D01*
X465411Y495990D01*
X462889D01*
X460452Y495337D01*
X458268Y494076D01*
X457803Y493611D01*
X456629Y494097D01*
Y496965D01*
X462105Y502440D01*
X462889Y502230D01*
X465411D01*
X467848Y502883D01*
X470032Y504144D01*
X471816Y505928D01*
X473077Y508112D01*
X473730Y510549D01*
Y513071D01*
X473077Y515508D01*
X471816Y517692D01*
X470032Y519476D01*
X467848Y520737D01*
X465411Y521390D01*
X462889D01*
X460452Y520737D01*
X458268Y519476D01*
X456484Y517692D01*
X455223Y515508D01*
X454570Y513071D01*
Y510549D01*
X454780Y509765D01*
X447788Y502772D01*
X446665Y501092D01*
X446270Y499110D01*
Y475855D01*
X440795Y470380D01*
X440011Y470590D01*
X437489D01*
X435052Y469937D01*
X432868Y468676D01*
X431084Y466892D01*
X429823Y464708D01*
X429170Y462271D01*
Y459749D01*
X429823Y457312D01*
X431084Y455128D01*
X432868Y453344D01*
X435052Y452083D01*
X437489Y451430D01*
X440011D01*
X440795Y451640D01*
X445690Y446744D01*
Y418424D01*
X444420Y417998D01*
X442448Y419137D01*
X440011Y419790D01*
X437489D01*
X435052Y419137D01*
X432868Y417876D01*
X431084Y416092D01*
X429823Y413908D01*
X429170Y411471D01*
Y408949D01*
X429823Y406512D01*
X431084Y404328D01*
X432868Y402544D01*
X435052Y401283D01*
X437489Y400630D01*
X440011D01*
X442448Y401283D01*
X444420Y402422D01*
X445690Y401996D01*
Y373675D01*
X440795Y368780D01*
X440011Y368990D01*
X437489D01*
X435052Y368337D01*
X432868Y367076D01*
X431084Y365292D01*
X429823Y363108D01*
X429170Y360671D01*
Y358149D01*
X429823Y355712D01*
X431084Y353528D01*
X432868Y351744D01*
X435052Y350483D01*
X437489Y349830D01*
X440011D01*
X440795Y350040D01*
X446270Y344565D01*
Y321310D01*
X446665Y319328D01*
X447787Y317647D01*
X454780Y310655D01*
X454570Y309871D01*
Y307349D01*
X454780Y306565D01*
X447207Y298993D01*
X446085Y297312D01*
X445690Y295330D01*
Y291424D01*
X444420Y290998D01*
X442448Y292137D01*
X440011Y292790D01*
X437489D01*
X435052Y292137D01*
X432868Y290876D01*
X431084Y289092D01*
X429823Y286908D01*
X429170Y284471D01*
Y281949D01*
X429823Y279512D01*
X431084Y277328D01*
X432868Y275544D01*
X435052Y274283D01*
X437489Y273630D01*
X440011D01*
X442448Y274283D01*
X444420Y275422D01*
X445690Y274996D01*
Y193090D01*
X368787D01*
X368081Y194146D01*
X368260Y194578D01*
Y196583D01*
X367493Y198435D01*
X366075Y199853D01*
X364222Y200620D01*
X362217D01*
X360365Y199853D01*
X358947Y198435D01*
X358180Y196583D01*
Y194578D01*
X358359Y194146D01*
X357653Y193090D01*
X227449D01*
Y275966D01*
X228720Y276492D01*
X229668Y275544D01*
X231852Y274283D01*
X234289Y273630D01*
X236811D01*
X239248Y274283D01*
X241432Y275544D01*
X243216Y277328D01*
X244477Y279512D01*
X245130Y281949D01*
Y284471D01*
X244477Y286908D01*
X243216Y289092D01*
X241432Y290876D01*
X239248Y292137D01*
X236811Y292790D01*
X234289D01*
X231852Y292137D01*
X229668Y290876D01*
X228720Y289928D01*
X227449Y290454D01*
Y296490D01*
X227449Y296490D01*
X227055Y298472D01*
X225932Y300152D01*
X219520Y306565D01*
X219730Y307349D01*
Y309871D01*
X219520Y310655D01*
X226513Y317647D01*
X227635Y319328D01*
X228029Y321310D01*
Y326323D01*
X229203Y326809D01*
X229668Y326344D01*
X231852Y325083D01*
X234289Y324430D01*
X236811D01*
X239248Y325083D01*
X241432Y326344D01*
X243216Y328128D01*
X244477Y330312D01*
X245130Y332749D01*
Y335271D01*
X244477Y337708D01*
X243216Y339892D01*
X241432Y341676D01*
X239248Y342937D01*
X236811Y343590D01*
X234289D01*
X231852Y342937D01*
X229668Y341676D01*
X229203Y341211D01*
X228029Y341697D01*
Y344565D01*
X233505Y350040D01*
X234289Y349830D01*
X236811D01*
X239248Y350483D01*
X241432Y351744D01*
X243216Y353528D01*
X244477Y355712D01*
X245130Y358149D01*
Y360671D01*
X244477Y363108D01*
X243216Y365292D01*
X241432Y367076D01*
X239248Y368337D01*
X236811Y368990D01*
X234289D01*
X233505Y368780D01*
X228609Y373675D01*
Y376596D01*
X229879Y377022D01*
X231852Y375883D01*
X234289Y375230D01*
X236811D01*
X239248Y375883D01*
X241432Y377144D01*
X243216Y378928D01*
X244477Y381112D01*
X245130Y383549D01*
Y386071D01*
X244477Y388508D01*
X243216Y390692D01*
X241432Y392476D01*
X239248Y393737D01*
X236811Y394390D01*
X234289D01*
X231852Y393737D01*
X229879Y392598D01*
X228609Y393024D01*
Y401996D01*
X229879Y402422D01*
X231852Y401283D01*
X234289Y400630D01*
X236811D01*
X239248Y401283D01*
X241432Y402544D01*
X243216Y404328D01*
X244477Y406512D01*
X245130Y408949D01*
Y411471D01*
X244477Y413908D01*
X243216Y416092D01*
X241432Y417876D01*
X239248Y419137D01*
X236811Y419790D01*
X234289D01*
X231852Y419137D01*
X229879Y417998D01*
X228609Y418424D01*
Y427396D01*
X229879Y427822D01*
X231852Y426683D01*
X234289Y426030D01*
X236811D01*
X239248Y426683D01*
X241432Y427944D01*
X243216Y429728D01*
X244477Y431912D01*
X245130Y434349D01*
Y436871D01*
X244477Y439308D01*
X243216Y441492D01*
X241432Y443276D01*
X239248Y444537D01*
X236811Y445190D01*
X234289D01*
X231852Y444537D01*
X229879Y443398D01*
X228609Y443824D01*
Y446744D01*
X233505Y451640D01*
X234289Y451430D01*
X236811D01*
X239248Y452083D01*
X241432Y453344D01*
X243216Y455128D01*
X244477Y457312D01*
X245130Y459749D01*
Y462271D01*
X244477Y464708D01*
X243216Y466892D01*
X241432Y468676D01*
X239248Y469937D01*
X236811Y470590D01*
X234289D01*
X233505Y470380D01*
X228029Y475855D01*
Y499110D01*
X227635Y501092D01*
X226512Y502772D01*
X219520Y509765D01*
X219730Y510549D01*
Y513071D01*
X219077Y515508D01*
X217816Y517692D01*
X216032Y519476D01*
X213848Y520737D01*
X211411Y521390D01*
X208889D01*
X206452Y520737D01*
X204268Y519476D01*
X202484Y517692D01*
X201223Y515508D01*
X200570Y513071D01*
Y510549D01*
X201223Y508112D01*
X202484Y505928D01*
X204268Y504144D01*
X206452Y502883D01*
X208889Y502230D01*
X211411D01*
X212195Y502440D01*
X217670Y496965D01*
Y494097D01*
X216497Y493611D01*
X216032Y494076D01*
X213848Y495337D01*
X211411Y495990D01*
X208889D01*
X206452Y495337D01*
X204268Y494076D01*
X202484Y492292D01*
X201223Y490108D01*
X200570Y487671D01*
Y485149D01*
X201223Y482712D01*
X202484Y480528D01*
X204268Y478744D01*
X206452Y477483D01*
X208889Y476830D01*
X211411D01*
X213848Y477483D01*
X216032Y478744D01*
X216497Y479209D01*
X217670Y478723D01*
Y473710D01*
X218065Y471728D01*
X219188Y470047D01*
X226180Y463055D01*
X225970Y462271D01*
Y459749D01*
X226180Y458965D01*
X219767Y452552D01*
X218645Y450872D01*
X218250Y448890D01*
Y442854D01*
X216980Y442328D01*
X216032Y443276D01*
X213848Y444537D01*
X211411Y445190D01*
X208889D01*
X206452Y444537D01*
X204268Y443276D01*
X202484Y441492D01*
X201223Y439308D01*
X200570Y436871D01*
Y434349D01*
X201223Y431912D01*
X202484Y429728D01*
X204268Y427944D01*
X206452Y426683D01*
X208889Y426030D01*
X211411D01*
X213848Y426683D01*
X216032Y427944D01*
X216980Y428892D01*
X218250Y428366D01*
Y417454D01*
X216980Y416928D01*
X216032Y417876D01*
X213848Y419137D01*
X211411Y419790D01*
X208889D01*
X206452Y419137D01*
X204268Y417876D01*
X202484Y416092D01*
X201223Y413908D01*
X200570Y411471D01*
Y408949D01*
X201223Y406512D01*
X202484Y404328D01*
X204268Y402544D01*
X206452Y401283D01*
X208889Y400630D01*
X211411D01*
X213848Y401283D01*
X216032Y402544D01*
X216980Y403492D01*
X218250Y402966D01*
Y371530D01*
X218645Y369548D01*
X219767Y367868D01*
X226180Y361455D01*
X225970Y360671D01*
Y358149D01*
X226180Y357365D01*
X219188Y350373D01*
X218065Y348692D01*
X217670Y346710D01*
Y341697D01*
X216497Y341211D01*
X216032Y341676D01*
X213848Y342937D01*
X211411Y343590D01*
X208889D01*
X206452Y342937D01*
X204268Y341676D01*
X202484Y339892D01*
X201223Y337708D01*
X200570Y335271D01*
Y332749D01*
X201223Y330312D01*
X202484Y328128D01*
X204268Y326344D01*
X206452Y325083D01*
X208889Y324430D01*
X211411D01*
X213848Y325083D01*
X216032Y326344D01*
X216497Y326809D01*
X217670Y326323D01*
Y323456D01*
X212195Y317980D01*
X211411Y318190D01*
X208889D01*
X206452Y317537D01*
X204268Y316276D01*
X202484Y314492D01*
X201223Y312308D01*
X200570Y309871D01*
Y307349D01*
X201223Y304912D01*
X202484Y302728D01*
X204268Y300944D01*
X206452Y299683D01*
X208889Y299030D01*
X211411D01*
X212195Y299240D01*
X217090Y294345D01*
Y291424D01*
X215820Y290998D01*
X213848Y292137D01*
X211411Y292790D01*
X208889D01*
X206452Y292137D01*
X204268Y290876D01*
X202484Y289092D01*
X201223Y286908D01*
X200570Y284471D01*
Y281949D01*
X201223Y279512D01*
X202484Y277328D01*
X204268Y275544D01*
X206452Y274283D01*
X208889Y273630D01*
X211411D01*
X213848Y274283D01*
X215820Y275422D01*
X217090Y274996D01*
Y193090D01*
X0D01*
Y741651D01*
X1270Y741751D01*
X1281Y741680D01*
X2864Y736809D01*
X5189Y732245D01*
X8200Y728102D01*
X11822Y724480D01*
X15965Y721469D01*
X20529Y719144D01*
X25400Y717561D01*
X30459Y716760D01*
X35581D01*
X40640Y717561D01*
X45511Y719144D01*
X50075Y721469D01*
X54218Y724480D01*
X57840Y728102D01*
X60851Y732245D01*
X63176Y736809D01*
X64759Y741680D01*
X65560Y746739D01*
Y751861D01*
X64759Y756920D01*
X63176Y761791D01*
X60851Y766355D01*
X57840Y770498D01*
X54218Y774120D01*
X50075Y777131D01*
X45511Y779456D01*
X40640Y781039D01*
X40569Y781050D01*
X40669Y782320D01*
X799835D01*
X800036Y781050D01*
D02*
G37*
G36*
X845814Y189599D02*
X844810Y39026D01*
X843540Y38930D01*
X843269Y40640D01*
X841686Y45511D01*
X839361Y50075D01*
X836350Y54218D01*
X832728Y57840D01*
X828585Y60851D01*
X824021Y63176D01*
X819150Y64759D01*
X814091Y65560D01*
X808969D01*
X803910Y64759D01*
X799039Y63176D01*
X794475Y60851D01*
X790332Y57840D01*
X786710Y54218D01*
X783699Y50075D01*
X781374Y45511D01*
X779791Y40640D01*
X778990Y35581D01*
Y30459D01*
X779791Y25400D01*
X781374Y20529D01*
X783699Y15965D01*
X786710Y11822D01*
X790332Y8200D01*
X794475Y5189D01*
X799039Y2864D01*
X803910Y1281D01*
X803981Y1270D01*
X803881Y0D01*
X567984D01*
X567732Y1270D01*
X569816Y2133D01*
X572238Y3752D01*
X574298Y5812D01*
X575917Y8234D01*
X577032Y10926D01*
X577600Y13783D01*
Y16697D01*
X577032Y19554D01*
X575917Y22246D01*
X574298Y24668D01*
X572238Y26728D01*
X569816Y28347D01*
X567124Y29462D01*
X564267Y30030D01*
X561353D01*
X558496Y29462D01*
X555804Y28347D01*
X553382Y26728D01*
X551322Y24668D01*
X549703Y22246D01*
X548588Y19554D01*
X548020Y16697D01*
Y13783D01*
X548588Y10926D01*
X549703Y8234D01*
X551322Y5812D01*
X553382Y3752D01*
X555804Y2133D01*
X557888Y1270D01*
X557636Y0D01*
X516984D01*
X516731Y1270D01*
X518816Y2133D01*
X521238Y3752D01*
X523298Y5812D01*
X524917Y8234D01*
X526032Y10926D01*
X526600Y13783D01*
Y16697D01*
X526032Y19554D01*
X524917Y22246D01*
X523298Y24668D01*
X521238Y26728D01*
X518816Y28347D01*
X516124Y29462D01*
X513267Y30030D01*
X510353D01*
X507496Y29462D01*
X504804Y28347D01*
X502382Y26728D01*
X500322Y24668D01*
X498703Y22246D01*
X497588Y19554D01*
X497020Y16697D01*
Y13783D01*
X497588Y10926D01*
X498703Y8234D01*
X500322Y5812D01*
X502382Y3752D01*
X504804Y2133D01*
X506889Y1270D01*
X506636Y0D01*
X424957D01*
X424704Y1270D01*
X426306Y1933D01*
X428728Y3552D01*
X430788Y5612D01*
X432407Y8034D01*
X433522Y10726D01*
X434090Y13583D01*
Y16497D01*
X433522Y19354D01*
X432407Y22046D01*
X430788Y24468D01*
X428728Y26528D01*
X426306Y28147D01*
X423614Y29262D01*
X420757Y29830D01*
X417843D01*
X414986Y29262D01*
X412294Y28147D01*
X409872Y26528D01*
X407812Y24468D01*
X406193Y22046D01*
X405078Y19354D01*
X404510Y16497D01*
Y13583D01*
X405078Y10726D01*
X406193Y8034D01*
X407812Y5612D01*
X409872Y3552D01*
X412294Y1933D01*
X413896Y1270D01*
X413643Y0D01*
X373957D01*
X373704Y1270D01*
X375306Y1933D01*
X377728Y3552D01*
X379788Y5612D01*
X381407Y8034D01*
X382522Y10726D01*
X383090Y13583D01*
Y16497D01*
X382522Y19354D01*
X381407Y22046D01*
X379788Y24468D01*
X377728Y26528D01*
X375306Y28147D01*
X372614Y29262D01*
X369757Y29830D01*
X366843D01*
X363986Y29262D01*
X361294Y28147D01*
X358872Y26528D01*
X356812Y24468D01*
X355193Y22046D01*
X354078Y19354D01*
X353510Y16497D01*
Y13583D01*
X354078Y10726D01*
X355193Y8034D01*
X356812Y5612D01*
X358872Y3552D01*
X361294Y1933D01*
X362896Y1270D01*
X362643Y0D01*
X43445D01*
X43244Y1270D01*
X44241Y1594D01*
X48805Y3919D01*
X52948Y6930D01*
X56570Y10552D01*
X59581Y14695D01*
X61906Y19259D01*
X63489Y24130D01*
X64290Y29189D01*
Y34311D01*
X63489Y39370D01*
X61906Y44241D01*
X59581Y48805D01*
X56570Y52948D01*
X52948Y56570D01*
X48805Y59581D01*
X44241Y61906D01*
X39370Y63489D01*
X34311Y64290D01*
X29189D01*
X24130Y63489D01*
X19259Y61906D01*
X14695Y59581D01*
X10552Y56570D01*
X6930Y52948D01*
X3919Y48805D01*
X1594Y44241D01*
X1270Y43244D01*
X0Y43445D01*
Y190500D01*
X844919D01*
X845814Y189599D01*
D02*
G37*
G36*
X844727Y26486D02*
X844550Y0D01*
X819179D01*
X819079Y1270D01*
X819150Y1281D01*
X824021Y2864D01*
X828585Y5189D01*
X832728Y8200D01*
X836350Y11822D01*
X839361Y15965D01*
X841686Y20529D01*
X843269Y25400D01*
X843457Y26590D01*
X844727Y26486D01*
D02*
G37*
G36*
X1594Y19259D02*
X3919Y14695D01*
X6930Y10552D01*
X10552Y6930D01*
X14695Y3919D01*
X19259Y1594D01*
X20256Y1270D01*
X20055Y0D01*
X0D01*
Y20055D01*
X1270Y20256D01*
X1594Y19259D01*
D02*
G37*
%LPC*%
G36*
X680907Y752660D02*
X677993D01*
X675136Y752092D01*
X672444Y750977D01*
X670022Y749358D01*
X667962Y747298D01*
X666343Y744876D01*
X665229Y742184D01*
X664660Y739327D01*
Y736413D01*
X665229Y733556D01*
X666343Y730864D01*
X667962Y728442D01*
X670022Y726382D01*
X672444Y724763D01*
X675136Y723649D01*
X677993Y723080D01*
X680907D01*
X683764Y723649D01*
X686456Y724763D01*
X688878Y726382D01*
X690938Y728442D01*
X692557Y730864D01*
X693672Y733556D01*
X694240Y736413D01*
Y739327D01*
X693672Y742184D01*
X692557Y744876D01*
X690938Y747298D01*
X688878Y749358D01*
X686456Y750977D01*
X683764Y752092D01*
X680907Y752660D01*
D02*
G37*
G36*
X258930Y696610D02*
X239850D01*
Y677530D01*
X258930D01*
Y696610D01*
D02*
G37*
G36*
X225646D02*
X223134D01*
X220708Y695960D01*
X218532Y694704D01*
X216756Y692928D01*
X215500Y690752D01*
X214850Y688326D01*
Y685814D01*
X215500Y683388D01*
X216756Y681212D01*
X218532Y679436D01*
X220708Y678180D01*
X223134Y677530D01*
X225646D01*
X228072Y678180D01*
X230248Y679436D01*
X232024Y681212D01*
X233280Y683388D01*
X233930Y685814D01*
Y688326D01*
X233280Y690752D01*
X232024Y692928D01*
X230248Y694704D01*
X228072Y695960D01*
X225646Y696610D01*
D02*
G37*
G36*
X200646D02*
X198134D01*
X195708Y695960D01*
X193532Y694704D01*
X191756Y692928D01*
X190500Y690752D01*
X189850Y688326D01*
Y685814D01*
X190500Y683388D01*
X191756Y681212D01*
X193532Y679436D01*
X195708Y678180D01*
X198134Y677530D01*
X200646D01*
X203072Y678180D01*
X205248Y679436D01*
X207024Y681212D01*
X208280Y683388D01*
X208930Y685814D01*
Y688326D01*
X208280Y690752D01*
X207024Y692928D01*
X205248Y694704D01*
X203072Y695960D01*
X200646Y696610D01*
D02*
G37*
G36*
X175646D02*
X173134D01*
X170708Y695960D01*
X168532Y694704D01*
X166756Y692928D01*
X165500Y690752D01*
X164850Y688326D01*
Y685814D01*
X165500Y683388D01*
X166756Y681212D01*
X168532Y679436D01*
X170708Y678180D01*
X173134Y677530D01*
X175646D01*
X178072Y678180D01*
X180248Y679436D01*
X182024Y681212D01*
X183280Y683388D01*
X183930Y685814D01*
Y688326D01*
X183280Y690752D01*
X182024Y692928D01*
X180248Y694704D01*
X178072Y695960D01*
X175646Y696610D01*
D02*
G37*
G36*
X451852Y666710D02*
X449847D01*
X447995Y665943D01*
X446577Y664525D01*
X445810Y662673D01*
Y660667D01*
X446577Y658815D01*
X447995Y657397D01*
X449847Y656630D01*
X451852D01*
X453705Y657397D01*
X455123Y658815D01*
X455890Y660667D01*
Y662673D01*
X455123Y664525D01*
X453705Y665943D01*
X451852Y666710D01*
D02*
G37*
G36*
X803978Y670560D02*
X801302D01*
X798718Y669868D01*
X796402Y668530D01*
X794510Y666638D01*
X793172Y664322D01*
X792480Y661738D01*
Y659062D01*
X793172Y656478D01*
X794510Y654162D01*
X796402Y652270D01*
X798718Y650932D01*
X801302Y650240D01*
X803978D01*
X806562Y650932D01*
X808878Y652270D01*
X810770Y654162D01*
X812108Y656478D01*
X812800Y659062D01*
Y661738D01*
X812108Y664322D01*
X810770Y666638D01*
X808878Y668530D01*
X806562Y669868D01*
X803978Y670560D01*
D02*
G37*
G36*
X778578D02*
X775902D01*
X773318Y669868D01*
X771002Y668530D01*
X769110Y666638D01*
X767772Y664322D01*
X767080Y661738D01*
Y659062D01*
X767772Y656478D01*
X769110Y654162D01*
X771002Y652270D01*
X773318Y650932D01*
X775902Y650240D01*
X778578D01*
X781162Y650932D01*
X783478Y652270D01*
X785370Y654162D01*
X786708Y656478D01*
X787400Y659062D01*
Y661738D01*
X786708Y664322D01*
X785370Y666638D01*
X783478Y668530D01*
X781162Y669868D01*
X778578Y670560D01*
D02*
G37*
G36*
X497573Y636230D02*
X495568D01*
X493715Y635463D01*
X492297Y634045D01*
X491530Y632192D01*
Y630187D01*
X492297Y628335D01*
X493715Y626917D01*
X495568Y626150D01*
X497573D01*
X499425Y626917D01*
X500843Y628335D01*
X501610Y630187D01*
Y632192D01*
X500843Y634045D01*
X499425Y635463D01*
X497573Y636230D01*
D02*
G37*
G36*
X803978Y645160D02*
X801302D01*
X798718Y644468D01*
X796402Y643130D01*
X794510Y641238D01*
X793172Y638922D01*
X792480Y636338D01*
Y633662D01*
X793172Y631078D01*
X794510Y628762D01*
X796402Y626870D01*
X798718Y625532D01*
X801302Y624840D01*
X803978D01*
X806562Y625532D01*
X808878Y626870D01*
X810770Y628762D01*
X812108Y631078D01*
X812800Y633662D01*
Y636338D01*
X812108Y638922D01*
X810770Y641238D01*
X808878Y643130D01*
X806562Y644468D01*
X803978Y645160D01*
D02*
G37*
G36*
X778578D02*
X775902D01*
X773318Y644468D01*
X771002Y643130D01*
X769110Y641238D01*
X767772Y638922D01*
X767080Y636338D01*
Y633662D01*
X767772Y631078D01*
X769110Y628762D01*
X771002Y626870D01*
X773318Y625532D01*
X775902Y624840D01*
X778578D01*
X781162Y625532D01*
X783478Y626870D01*
X785370Y628762D01*
X786708Y631078D01*
X787400Y633662D01*
Y636338D01*
X786708Y638922D01*
X785370Y641238D01*
X783478Y643130D01*
X781162Y644468D01*
X778578Y645160D01*
D02*
G37*
G36*
X415023Y626070D02*
X413018D01*
X411165Y625303D01*
X409747Y623885D01*
X408980Y622033D01*
Y620028D01*
X409747Y618175D01*
X411165Y616757D01*
X413018Y615990D01*
X415023D01*
X416875Y616757D01*
X418293Y618175D01*
X419060Y620028D01*
Y622033D01*
X418293Y623885D01*
X416875Y625303D01*
X415023Y626070D01*
D02*
G37*
G36*
X363553Y615027D02*
X361547D01*
X359695Y614260D01*
X358277Y612842D01*
X357510Y610989D01*
Y608984D01*
X358277Y607132D01*
X359695Y605714D01*
X361547Y604947D01*
X363553D01*
X365405Y605714D01*
X366823Y607132D01*
X367590Y608984D01*
Y610989D01*
X366823Y612842D01*
X365405Y614260D01*
X363553Y615027D01*
D02*
G37*
G36*
X803978Y619760D02*
X801302D01*
X798718Y619068D01*
X796402Y617730D01*
X794510Y615838D01*
X793172Y613522D01*
X792480Y610938D01*
Y608262D01*
X793172Y605678D01*
X794510Y603362D01*
X796402Y601470D01*
X798718Y600132D01*
X801302Y599440D01*
X803978D01*
X806562Y600132D01*
X808878Y601470D01*
X810770Y603362D01*
X812108Y605678D01*
X812800Y608262D01*
Y610938D01*
X812108Y613522D01*
X810770Y615838D01*
X808878Y617730D01*
X806562Y619068D01*
X803978Y619760D01*
D02*
G37*
G36*
X778578D02*
X775902D01*
X773318Y619068D01*
X771002Y617730D01*
X769110Y615838D01*
X767772Y613522D01*
X767080Y610938D01*
Y608262D01*
X767772Y605678D01*
X769110Y603362D01*
X771002Y601470D01*
X773318Y600132D01*
X775902Y599440D01*
X778578D01*
X781162Y600132D01*
X783478Y601470D01*
X785370Y603362D01*
X786708Y605678D01*
X787400Y608262D01*
Y610938D01*
X786708Y613522D01*
X785370Y615838D01*
X783478Y617730D01*
X781162Y619068D01*
X778578Y619760D01*
D02*
G37*
G36*
X389622Y591780D02*
X387617D01*
X385765Y591013D01*
X384347Y589595D01*
X383580Y587743D01*
Y585737D01*
X384347Y583885D01*
X385765Y582467D01*
X387617Y581700D01*
X389622D01*
X391475Y582467D01*
X392893Y583885D01*
X393660Y585737D01*
Y587743D01*
X392893Y589595D01*
X391475Y591013D01*
X389622Y591780D01*
D02*
G37*
G36*
X303595Y589643D02*
X301590D01*
X299738Y588875D01*
X298320Y587458D01*
X297553Y585605D01*
Y583600D01*
X298320Y581748D01*
X299738Y580330D01*
X301590Y579563D01*
X303595D01*
X305448Y580330D01*
X306865Y581748D01*
X307633Y583600D01*
Y585605D01*
X306865Y587458D01*
X305448Y588875D01*
X303595Y589643D01*
D02*
G37*
G36*
X563613Y589449D02*
X561608D01*
X559755Y588682D01*
X558337Y587264D01*
X557570Y585412D01*
Y583407D01*
X558337Y581554D01*
X559755Y580136D01*
X561608Y579369D01*
X563613D01*
X565465Y580136D01*
X566883Y581554D01*
X567650Y583407D01*
Y585412D01*
X566883Y587264D01*
X565465Y588682D01*
X563613Y589449D01*
D02*
G37*
G36*
X803978Y594360D02*
X801302D01*
X798718Y593668D01*
X796402Y592330D01*
X794510Y590438D01*
X793172Y588122D01*
X792480Y585538D01*
Y582862D01*
X793172Y580278D01*
X794510Y577962D01*
X796402Y576070D01*
X798718Y574732D01*
X801302Y574040D01*
X803978D01*
X806562Y574732D01*
X808878Y576070D01*
X810770Y577962D01*
X812108Y580278D01*
X812800Y582862D01*
Y585538D01*
X812108Y588122D01*
X810770Y590438D01*
X808878Y592330D01*
X806562Y593668D01*
X803978Y594360D01*
D02*
G37*
G36*
X778578D02*
X775902D01*
X773318Y593668D01*
X771002Y592330D01*
X769110Y590438D01*
X767772Y588122D01*
X767080Y585538D01*
Y582862D01*
X767772Y580278D01*
X769110Y577962D01*
X771002Y576070D01*
X773318Y574732D01*
X775902Y574040D01*
X778578D01*
X781162Y574732D01*
X783478Y576070D01*
X785370Y577962D01*
X786708Y580278D01*
X787400Y582862D01*
Y585538D01*
X786708Y588122D01*
X785370Y590438D01*
X783478Y592330D01*
X781162Y593668D01*
X778578Y594360D01*
D02*
G37*
G36*
X620762Y576540D02*
X618758D01*
X616905Y575773D01*
X615487Y574355D01*
X614720Y572503D01*
Y570498D01*
X615487Y568645D01*
X616905Y567227D01*
X618758Y566460D01*
X620762D01*
X622615Y567227D01*
X624033Y568645D01*
X624800Y570498D01*
Y572503D01*
X624033Y574355D01*
X622615Y575773D01*
X620762Y576540D01*
D02*
G37*
G36*
X591870Y575270D02*
X589865D01*
X588013Y574503D01*
X586595Y573085D01*
X585827Y571232D01*
Y569227D01*
X586595Y567375D01*
X588013Y565957D01*
X589865Y565190D01*
X591870D01*
X593722Y565957D01*
X595140Y567375D01*
X595908Y569227D01*
Y571232D01*
X595140Y573085D01*
X593722Y574503D01*
X591870Y575270D01*
D02*
G37*
G36*
X538213D02*
X536208D01*
X534355Y574503D01*
X532937Y573085D01*
X532170Y571232D01*
Y569227D01*
X532937Y567375D01*
X534355Y565957D01*
X536208Y565190D01*
X538213D01*
X540065Y565957D01*
X541483Y567375D01*
X542250Y569227D01*
Y571232D01*
X541483Y573085D01*
X540065Y574503D01*
X538213Y575270D01*
D02*
G37*
G36*
X350252Y567650D02*
X348247D01*
X346395Y566883D01*
X344977Y565465D01*
X344210Y563613D01*
Y561608D01*
X344977Y559755D01*
X346395Y558337D01*
X348247Y557570D01*
X350252D01*
X352105Y558337D01*
X353523Y559755D01*
X354290Y561608D01*
Y563613D01*
X353523Y565465D01*
X352105Y566883D01*
X350252Y567650D01*
D02*
G37*
G36*
X803978Y568960D02*
X801302D01*
X798718Y568268D01*
X796402Y566930D01*
X794510Y565038D01*
X793172Y562722D01*
X792480Y560138D01*
Y557462D01*
X793172Y554878D01*
X794510Y552562D01*
X796402Y550670D01*
X798718Y549332D01*
X801302Y548640D01*
X803978D01*
X806562Y549332D01*
X808878Y550670D01*
X810770Y552562D01*
X812108Y554878D01*
X812800Y557462D01*
Y560138D01*
X812108Y562722D01*
X810770Y565038D01*
X808878Y566930D01*
X806562Y568268D01*
X803978Y568960D01*
D02*
G37*
G36*
X778578D02*
X775902D01*
X773318Y568268D01*
X771002Y566930D01*
X769110Y565038D01*
X767772Y562722D01*
X767080Y560138D01*
Y557462D01*
X767772Y554878D01*
X769110Y552562D01*
X771002Y550670D01*
X773318Y549332D01*
X775902Y548640D01*
X778578D01*
X781162Y549332D01*
X783478Y550670D01*
X785370Y552562D01*
X786708Y554878D01*
X787400Y557462D01*
Y560138D01*
X786708Y562722D01*
X785370Y565038D01*
X783478Y566930D01*
X781162Y568268D01*
X778578Y568960D01*
D02*
G37*
G36*
X465411Y546790D02*
X462889D01*
X460452Y546137D01*
X458268Y544876D01*
X456484Y543092D01*
X455223Y540908D01*
X454570Y538471D01*
Y535949D01*
X455223Y533512D01*
X456484Y531328D01*
X458268Y529544D01*
X460452Y528283D01*
X462889Y527630D01*
X465411D01*
X467848Y528283D01*
X470032Y529544D01*
X471816Y531328D01*
X473077Y533512D01*
X473730Y535949D01*
Y538471D01*
X473077Y540908D01*
X471816Y543092D01*
X470032Y544876D01*
X467848Y546137D01*
X465411Y546790D01*
D02*
G37*
G36*
X414611D02*
X412089D01*
X409652Y546137D01*
X407468Y544876D01*
X405684Y543092D01*
X404423Y540908D01*
X403770Y538471D01*
Y535949D01*
X404423Y533512D01*
X405684Y531328D01*
X407468Y529544D01*
X409652Y528283D01*
X412089Y527630D01*
X414611D01*
X417048Y528283D01*
X419232Y529544D01*
X421016Y531328D01*
X422277Y533512D01*
X422930Y535949D01*
Y538471D01*
X422277Y540908D01*
X421016Y543092D01*
X419232Y544876D01*
X417048Y546137D01*
X414611Y546790D01*
D02*
G37*
G36*
X389211D02*
X386689D01*
X384252Y546137D01*
X382068Y544876D01*
X380284Y543092D01*
X379023Y540908D01*
X378370Y538471D01*
Y535949D01*
X379023Y533512D01*
X380284Y531328D01*
X382068Y529544D01*
X384252Y528283D01*
X386689Y527630D01*
X389211D01*
X391648Y528283D01*
X393832Y529544D01*
X395616Y531328D01*
X396877Y533512D01*
X397530Y535949D01*
Y538471D01*
X396877Y540908D01*
X395616Y543092D01*
X393832Y544876D01*
X391648Y546137D01*
X389211Y546790D01*
D02*
G37*
G36*
X363811D02*
X361289D01*
X358852Y546137D01*
X356668Y544876D01*
X354884Y543092D01*
X353623Y540908D01*
X352970Y538471D01*
Y535949D01*
X353623Y533512D01*
X354884Y531328D01*
X356668Y529544D01*
X358852Y528283D01*
X361289Y527630D01*
X363811D01*
X366248Y528283D01*
X368432Y529544D01*
X370216Y531328D01*
X371477Y533512D01*
X372130Y535949D01*
Y538471D01*
X371477Y540908D01*
X370216Y543092D01*
X368432Y544876D01*
X366248Y546137D01*
X363811Y546790D01*
D02*
G37*
G36*
X313011D02*
X310489D01*
X308052Y546137D01*
X305868Y544876D01*
X304084Y543092D01*
X302823Y540908D01*
X302170Y538471D01*
Y535949D01*
X302823Y533512D01*
X304084Y531328D01*
X305868Y529544D01*
X308052Y528283D01*
X310489Y527630D01*
X313011D01*
X315448Y528283D01*
X317632Y529544D01*
X319416Y531328D01*
X320677Y533512D01*
X321330Y535949D01*
Y538471D01*
X320677Y540908D01*
X319416Y543092D01*
X317632Y544876D01*
X315448Y546137D01*
X313011Y546790D01*
D02*
G37*
G36*
X287611D02*
X285089D01*
X282652Y546137D01*
X280468Y544876D01*
X278684Y543092D01*
X277423Y540908D01*
X276770Y538471D01*
Y535949D01*
X277423Y533512D01*
X278684Y531328D01*
X280468Y529544D01*
X282652Y528283D01*
X285089Y527630D01*
X287611D01*
X290048Y528283D01*
X292232Y529544D01*
X294016Y531328D01*
X295277Y533512D01*
X295930Y535949D01*
Y538471D01*
X295277Y540908D01*
X294016Y543092D01*
X292232Y544876D01*
X290048Y546137D01*
X287611Y546790D01*
D02*
G37*
G36*
X262211D02*
X259689D01*
X257252Y546137D01*
X255068Y544876D01*
X253284Y543092D01*
X252023Y540908D01*
X251370Y538471D01*
Y535949D01*
X252023Y533512D01*
X253284Y531328D01*
X255068Y529544D01*
X257252Y528283D01*
X259689Y527630D01*
X262211D01*
X264648Y528283D01*
X266832Y529544D01*
X268616Y531328D01*
X269877Y533512D01*
X270530Y535949D01*
Y538471D01*
X269877Y540908D01*
X268616Y543092D01*
X266832Y544876D01*
X264648Y546137D01*
X262211Y546790D01*
D02*
G37*
G36*
X236811D02*
X234289D01*
X231852Y546137D01*
X229668Y544876D01*
X227884Y543092D01*
X226623Y540908D01*
X225970Y538471D01*
Y535949D01*
X226623Y533512D01*
X227884Y531328D01*
X229668Y529544D01*
X231852Y528283D01*
X234289Y527630D01*
X236811D01*
X239248Y528283D01*
X241432Y529544D01*
X243216Y531328D01*
X244477Y533512D01*
X245130Y535949D01*
Y538471D01*
X244477Y540908D01*
X243216Y543092D01*
X241432Y544876D01*
X239248Y546137D01*
X236811Y546790D01*
D02*
G37*
G36*
X211411D02*
X208889D01*
X206452Y546137D01*
X204268Y544876D01*
X202484Y543092D01*
X201223Y540908D01*
X200570Y538471D01*
Y535949D01*
X201223Y533512D01*
X202484Y531328D01*
X204268Y529544D01*
X206452Y528283D01*
X208889Y527630D01*
X211411D01*
X213848Y528283D01*
X216032Y529544D01*
X217816Y531328D01*
X219077Y533512D01*
X219730Y535949D01*
Y538471D01*
X219077Y540908D01*
X217816Y543092D01*
X216032Y544876D01*
X213848Y546137D01*
X211411Y546790D01*
D02*
G37*
G36*
X566656Y548650D02*
X563644D01*
X560734Y547870D01*
X558126Y546364D01*
X555996Y544234D01*
X554490Y541626D01*
X553710Y538716D01*
Y535704D01*
X554490Y532794D01*
X555996Y530186D01*
X558126Y528056D01*
X560734Y526550D01*
X563644Y525770D01*
X566656D01*
X569566Y526550D01*
X572174Y528056D01*
X574304Y530186D01*
X575810Y532794D01*
X576590Y535704D01*
Y538716D01*
X575810Y541626D01*
X574304Y544234D01*
X572174Y546364D01*
X569566Y547870D01*
X566656Y548650D01*
D02*
G37*
G36*
X160656D02*
X157644D01*
X154734Y547870D01*
X152126Y546364D01*
X149995Y544234D01*
X148489Y541626D01*
X147710Y538716D01*
Y535704D01*
X148489Y532794D01*
X149995Y530186D01*
X152126Y528056D01*
X154734Y526550D01*
X157644Y525770D01*
X160656D01*
X163566Y526550D01*
X166174Y528056D01*
X168304Y530186D01*
X169810Y532794D01*
X170590Y535704D01*
Y538716D01*
X169810Y541626D01*
X168304Y544234D01*
X166174Y546364D01*
X163566Y547870D01*
X160656Y548650D01*
D02*
G37*
G36*
X803978Y543560D02*
X801302D01*
X798718Y542868D01*
X796402Y541530D01*
X794510Y539638D01*
X793172Y537322D01*
X792480Y534738D01*
Y532062D01*
X793172Y529478D01*
X794510Y527162D01*
X796402Y525270D01*
X798718Y523932D01*
X801302Y523240D01*
X803978D01*
X806562Y523932D01*
X808878Y525270D01*
X810770Y527162D01*
X812108Y529478D01*
X812800Y532062D01*
Y534738D01*
X812108Y537322D01*
X810770Y539638D01*
X808878Y541530D01*
X806562Y542868D01*
X803978Y543560D01*
D02*
G37*
G36*
X778578D02*
X775902D01*
X773318Y542868D01*
X771002Y541530D01*
X769110Y539638D01*
X767772Y537322D01*
X767080Y534738D01*
Y532062D01*
X767772Y529478D01*
X769110Y527162D01*
X771002Y525270D01*
X773318Y523932D01*
X775902Y523240D01*
X778578D01*
X781162Y523932D01*
X783478Y525270D01*
X785370Y527162D01*
X786708Y529478D01*
X787400Y532062D01*
Y534738D01*
X786708Y537322D01*
X785370Y539638D01*
X783478Y541530D01*
X781162Y542868D01*
X778578Y543560D01*
D02*
G37*
G36*
X497573Y519390D02*
X495568D01*
X493715Y518623D01*
X492297Y517205D01*
X491530Y515353D01*
Y513348D01*
X492297Y511495D01*
X493715Y510077D01*
X495568Y509310D01*
X497573D01*
X499425Y510077D01*
X500843Y511495D01*
X501610Y513348D01*
Y515353D01*
X500843Y517205D01*
X499425Y518623D01*
X497573Y519390D01*
D02*
G37*
G36*
X580122Y513040D02*
X578117D01*
X576265Y512273D01*
X574847Y510855D01*
X574080Y509002D01*
Y506997D01*
X574847Y505145D01*
X576265Y503727D01*
X578117Y502960D01*
X580122D01*
X581975Y503727D01*
X583393Y505145D01*
X584160Y506997D01*
Y509002D01*
X583393Y510855D01*
X581975Y512273D01*
X580122Y513040D01*
D02*
G37*
G36*
X440011Y521390D02*
X437489D01*
X435052Y520737D01*
X432868Y519476D01*
X431084Y517692D01*
X429823Y515508D01*
X429170Y513071D01*
Y510549D01*
X429823Y508112D01*
X431084Y505928D01*
X432868Y504144D01*
X435052Y502883D01*
X437489Y502230D01*
X440011D01*
X442448Y502883D01*
X444632Y504144D01*
X446416Y505928D01*
X447677Y508112D01*
X448330Y510549D01*
Y513071D01*
X447677Y515508D01*
X446416Y517692D01*
X444632Y519476D01*
X442448Y520737D01*
X440011Y521390D01*
D02*
G37*
G36*
X389211D02*
X386689D01*
X384252Y520737D01*
X382068Y519476D01*
X380284Y517692D01*
X379023Y515508D01*
X378370Y513071D01*
Y510549D01*
X379023Y508112D01*
X380284Y505928D01*
X382068Y504144D01*
X384252Y502883D01*
X386689Y502230D01*
X389211D01*
X391648Y502883D01*
X393832Y504144D01*
X395616Y505928D01*
X396877Y508112D01*
X397530Y510549D01*
Y513071D01*
X396877Y515508D01*
X395616Y517692D01*
X393832Y519476D01*
X391648Y520737D01*
X389211Y521390D01*
D02*
G37*
G36*
X363811D02*
X361289D01*
X358852Y520737D01*
X356668Y519476D01*
X354884Y517692D01*
X353623Y515508D01*
X352970Y513071D01*
Y510549D01*
X353623Y508112D01*
X354884Y505928D01*
X356668Y504144D01*
X358852Y502883D01*
X361289Y502230D01*
X363811D01*
X366248Y502883D01*
X368432Y504144D01*
X370216Y505928D01*
X371477Y508112D01*
X372130Y510549D01*
Y513071D01*
X371477Y515508D01*
X370216Y517692D01*
X368432Y519476D01*
X366248Y520737D01*
X363811Y521390D01*
D02*
G37*
G36*
X338411D02*
X335889D01*
X333452Y520737D01*
X331268Y519476D01*
X329484Y517692D01*
X328223Y515508D01*
X327570Y513071D01*
Y510549D01*
X328223Y508112D01*
X329484Y505928D01*
X331268Y504144D01*
X333452Y502883D01*
X335889Y502230D01*
X338411D01*
X340848Y502883D01*
X343032Y504144D01*
X344816Y505928D01*
X346077Y508112D01*
X346730Y510549D01*
Y513071D01*
X346077Y515508D01*
X344816Y517692D01*
X343032Y519476D01*
X340848Y520737D01*
X338411Y521390D01*
D02*
G37*
G36*
X313011D02*
X310489D01*
X308052Y520737D01*
X305868Y519476D01*
X304084Y517692D01*
X302823Y515508D01*
X302170Y513071D01*
Y510549D01*
X302823Y508112D01*
X304084Y505928D01*
X305868Y504144D01*
X308052Y502883D01*
X310489Y502230D01*
X313011D01*
X315448Y502883D01*
X317632Y504144D01*
X319416Y505928D01*
X320677Y508112D01*
X321330Y510549D01*
Y513071D01*
X320677Y515508D01*
X319416Y517692D01*
X317632Y519476D01*
X315448Y520737D01*
X313011Y521390D01*
D02*
G37*
G36*
X287611D02*
X285089D01*
X282652Y520737D01*
X280468Y519476D01*
X278684Y517692D01*
X277423Y515508D01*
X276770Y513071D01*
Y510549D01*
X277423Y508112D01*
X278684Y505928D01*
X280468Y504144D01*
X282652Y502883D01*
X285089Y502230D01*
X287611D01*
X290048Y502883D01*
X292232Y504144D01*
X294016Y505928D01*
X295277Y508112D01*
X295930Y510549D01*
Y513071D01*
X295277Y515508D01*
X294016Y517692D01*
X292232Y519476D01*
X290048Y520737D01*
X287611Y521390D01*
D02*
G37*
G36*
X236811D02*
X234289D01*
X231852Y520737D01*
X229668Y519476D01*
X227884Y517692D01*
X226623Y515508D01*
X225970Y513071D01*
Y510549D01*
X226623Y508112D01*
X227884Y505928D01*
X229668Y504144D01*
X231852Y502883D01*
X234289Y502230D01*
X236811D01*
X239248Y502883D01*
X241432Y504144D01*
X243216Y505928D01*
X244477Y508112D01*
X245130Y510549D01*
Y513071D01*
X244477Y515508D01*
X243216Y517692D01*
X241432Y519476D01*
X239248Y520737D01*
X236811Y521390D01*
D02*
G37*
G36*
X803978Y518160D02*
X801302D01*
X798718Y517468D01*
X796402Y516130D01*
X794510Y514238D01*
X793172Y511922D01*
X792480Y509338D01*
Y506662D01*
X793172Y504078D01*
X794510Y501762D01*
X796402Y499870D01*
X798718Y498532D01*
X801302Y497840D01*
X803978D01*
X806562Y498532D01*
X808878Y499870D01*
X810770Y501762D01*
X812108Y504078D01*
X812800Y506662D01*
Y509338D01*
X812108Y511922D01*
X810770Y514238D01*
X808878Y516130D01*
X806562Y517468D01*
X803978Y518160D01*
D02*
G37*
G36*
X778578D02*
X775902D01*
X773318Y517468D01*
X771002Y516130D01*
X769110Y514238D01*
X767772Y511922D01*
X767080Y509338D01*
Y506662D01*
X767772Y504078D01*
X769110Y501762D01*
X771002Y499870D01*
X773318Y498532D01*
X775902Y497840D01*
X778578D01*
X781162Y498532D01*
X783478Y499870D01*
X785370Y501762D01*
X786708Y504078D01*
X787400Y506662D01*
Y509338D01*
X786708Y511922D01*
X785370Y514238D01*
X783478Y516130D01*
X781162Y517468D01*
X778578Y518160D01*
D02*
G37*
G36*
X363811Y495990D02*
X361289D01*
X358852Y495337D01*
X356668Y494076D01*
X354884Y492292D01*
X353623Y490108D01*
X352970Y487671D01*
Y485149D01*
X353623Y482712D01*
X354884Y480528D01*
X356668Y478744D01*
X358852Y477483D01*
X361289Y476830D01*
X363811D01*
X366248Y477483D01*
X368432Y478744D01*
X370216Y480528D01*
X371477Y482712D01*
X372130Y485149D01*
Y487671D01*
X371477Y490108D01*
X370216Y492292D01*
X368432Y494076D01*
X366248Y495337D01*
X363811Y495990D01*
D02*
G37*
G36*
X338411D02*
X335889D01*
X333452Y495337D01*
X331268Y494076D01*
X329484Y492292D01*
X328223Y490108D01*
X327570Y487671D01*
Y485149D01*
X328223Y482712D01*
X329484Y480528D01*
X331268Y478744D01*
X333452Y477483D01*
X335889Y476830D01*
X338411D01*
X340848Y477483D01*
X343032Y478744D01*
X344816Y480528D01*
X346077Y482712D01*
X346730Y485149D01*
Y487671D01*
X346077Y490108D01*
X344816Y492292D01*
X343032Y494076D01*
X340848Y495337D01*
X338411Y495990D01*
D02*
G37*
G36*
X313011D02*
X310489D01*
X308052Y495337D01*
X305868Y494076D01*
X304084Y492292D01*
X302823Y490108D01*
X302170Y487671D01*
Y485149D01*
X302823Y482712D01*
X304084Y480528D01*
X305868Y478744D01*
X308052Y477483D01*
X310489Y476830D01*
X313011D01*
X315448Y477483D01*
X317632Y478744D01*
X319416Y480528D01*
X320677Y482712D01*
X321330Y485149D01*
Y487671D01*
X320677Y490108D01*
X319416Y492292D01*
X317632Y494076D01*
X315448Y495337D01*
X313011Y495990D01*
D02*
G37*
G36*
X803978Y492760D02*
X801302D01*
X798718Y492068D01*
X796402Y490730D01*
X794510Y488838D01*
X793172Y486522D01*
X792480Y483938D01*
Y481262D01*
X793172Y478678D01*
X794510Y476362D01*
X796402Y474470D01*
X798718Y473132D01*
X801302Y472440D01*
X803978D01*
X806562Y473132D01*
X808878Y474470D01*
X810770Y476362D01*
X812108Y478678D01*
X812800Y481262D01*
Y483938D01*
X812108Y486522D01*
X810770Y488838D01*
X808878Y490730D01*
X806562Y492068D01*
X803978Y492760D01*
D02*
G37*
G36*
X778578D02*
X775902D01*
X773318Y492068D01*
X771002Y490730D01*
X769110Y488838D01*
X767772Y486522D01*
X767080Y483938D01*
Y481262D01*
X767772Y478678D01*
X769110Y476362D01*
X771002Y474470D01*
X773318Y473132D01*
X775902Y472440D01*
X778578D01*
X781162Y473132D01*
X783478Y474470D01*
X785370Y476362D01*
X786708Y478678D01*
X787400Y481262D01*
Y483938D01*
X786708Y486522D01*
X785370Y488838D01*
X783478Y490730D01*
X781162Y492068D01*
X778578Y492760D01*
D02*
G37*
G36*
X465411Y470590D02*
X462889D01*
X460452Y469937D01*
X458268Y468676D01*
X456484Y466892D01*
X455223Y464708D01*
X454570Y462271D01*
Y459749D01*
X455223Y457312D01*
X456484Y455128D01*
X458268Y453344D01*
X460452Y452083D01*
X462889Y451430D01*
X465411D01*
X467848Y452083D01*
X470032Y453344D01*
X471816Y455128D01*
X473077Y457312D01*
X473730Y459749D01*
Y462271D01*
X473077Y464708D01*
X471816Y466892D01*
X470032Y468676D01*
X467848Y469937D01*
X465411Y470590D01*
D02*
G37*
G36*
X211411D02*
X208889D01*
X206452Y469937D01*
X204268Y468676D01*
X202484Y466892D01*
X201223Y464708D01*
X200570Y462271D01*
Y459749D01*
X201223Y457312D01*
X202484Y455128D01*
X204268Y453344D01*
X206452Y452083D01*
X208889Y451430D01*
X211411D01*
X213848Y452083D01*
X216032Y453344D01*
X217816Y455128D01*
X219077Y457312D01*
X219730Y459749D01*
Y462271D01*
X219077Y464708D01*
X217816Y466892D01*
X216032Y468676D01*
X213848Y469937D01*
X211411Y470590D01*
D02*
G37*
G36*
X803978Y467360D02*
X801302D01*
X798718Y466668D01*
X796402Y465330D01*
X794510Y463438D01*
X793172Y461122D01*
X792480Y458538D01*
Y455862D01*
X793172Y453278D01*
X794510Y450962D01*
X796402Y449070D01*
X798718Y447732D01*
X801302Y447040D01*
X803978D01*
X806562Y447732D01*
X808878Y449070D01*
X810770Y450962D01*
X812108Y453278D01*
X812800Y455862D01*
Y458538D01*
X812108Y461122D01*
X810770Y463438D01*
X808878Y465330D01*
X806562Y466668D01*
X803978Y467360D01*
D02*
G37*
G36*
X778578D02*
X775902D01*
X773318Y466668D01*
X771002Y465330D01*
X769110Y463438D01*
X767772Y461122D01*
X767080Y458538D01*
Y455862D01*
X767772Y453278D01*
X769110Y450962D01*
X771002Y449070D01*
X773318Y447732D01*
X775902Y447040D01*
X778578D01*
X781162Y447732D01*
X783478Y449070D01*
X785370Y450962D01*
X786708Y453278D01*
X787400Y455862D01*
Y458538D01*
X786708Y461122D01*
X785370Y463438D01*
X783478Y465330D01*
X781162Y466668D01*
X778578Y467360D01*
D02*
G37*
G36*
X492492Y450810D02*
X490488D01*
X488635Y450043D01*
X487217Y448625D01*
X486450Y446772D01*
Y444767D01*
X487217Y442915D01*
X488635Y441497D01*
X490488Y440730D01*
X492492D01*
X494345Y441497D01*
X495763Y442915D01*
X496530Y444767D01*
Y446772D01*
X495763Y448625D01*
X494345Y450043D01*
X492492Y450810D01*
D02*
G37*
G36*
X619492Y436840D02*
X617487D01*
X615635Y436073D01*
X614217Y434655D01*
X613450Y432803D01*
Y430798D01*
X614217Y428945D01*
X615635Y427527D01*
X617487Y426760D01*
X619492D01*
X621345Y427527D01*
X622763Y428945D01*
X623530Y430798D01*
Y432803D01*
X622763Y434655D01*
X621345Y436073D01*
X619492Y436840D01*
D02*
G37*
G36*
X414611Y445190D02*
X412089D01*
X409652Y444537D01*
X407468Y443276D01*
X405684Y441492D01*
X404423Y439308D01*
X403770Y436871D01*
Y434349D01*
X404423Y431912D01*
X405684Y429728D01*
X407468Y427944D01*
X409652Y426683D01*
X412089Y426030D01*
X414611D01*
X417048Y426683D01*
X419232Y427944D01*
X421016Y429728D01*
X422277Y431912D01*
X422930Y434349D01*
Y436871D01*
X422277Y439308D01*
X421016Y441492D01*
X419232Y443276D01*
X417048Y444537D01*
X414611Y445190D01*
D02*
G37*
G36*
X262211D02*
X259689D01*
X257252Y444537D01*
X255068Y443276D01*
X253284Y441492D01*
X252023Y439308D01*
X251370Y436871D01*
Y434349D01*
X252023Y431912D01*
X253284Y429728D01*
X255068Y427944D01*
X257252Y426683D01*
X259689Y426030D01*
X262211D01*
X264648Y426683D01*
X266832Y427944D01*
X268616Y429728D01*
X269877Y431912D01*
X270530Y434349D01*
Y436871D01*
X269877Y439308D01*
X268616Y441492D01*
X266832Y443276D01*
X264648Y444537D01*
X262211Y445190D01*
D02*
G37*
G36*
X803978Y441960D02*
X801302D01*
X798718Y441268D01*
X796402Y439930D01*
X794510Y438038D01*
X793172Y435722D01*
X792480Y433138D01*
Y430462D01*
X793172Y427878D01*
X794510Y425562D01*
X796402Y423670D01*
X798718Y422332D01*
X801302Y421640D01*
X803978D01*
X806562Y422332D01*
X808878Y423670D01*
X810770Y425562D01*
X812108Y427878D01*
X812800Y430462D01*
Y433138D01*
X812108Y435722D01*
X810770Y438038D01*
X808878Y439930D01*
X806562Y441268D01*
X803978Y441960D01*
D02*
G37*
G36*
X778578D02*
X775902D01*
X773318Y441268D01*
X771002Y439930D01*
X769110Y438038D01*
X767772Y435722D01*
X767080Y433138D01*
Y430462D01*
X767772Y427878D01*
X769110Y425562D01*
X771002Y423670D01*
X773318Y422332D01*
X775902Y421640D01*
X778578D01*
X781162Y422332D01*
X783478Y423670D01*
X785370Y425562D01*
X786708Y427878D01*
X787400Y430462D01*
Y433138D01*
X786708Y435722D01*
X785370Y438038D01*
X783478Y439930D01*
X781162Y441268D01*
X778578Y441960D01*
D02*
G37*
G36*
X495033Y427950D02*
X493027D01*
X491175Y427183D01*
X489757Y425765D01*
X488990Y423913D01*
Y421908D01*
X489757Y420055D01*
X491175Y418637D01*
X493027Y417870D01*
X495033D01*
X496885Y418637D01*
X498303Y420055D01*
X499070Y421908D01*
Y423913D01*
X498303Y425765D01*
X496885Y427183D01*
X495033Y427950D01*
D02*
G37*
G36*
X641083Y416520D02*
X639077D01*
X637225Y415753D01*
X635807Y414335D01*
X635040Y412482D01*
Y410477D01*
X635807Y408625D01*
X637225Y407207D01*
X639077Y406440D01*
X641083D01*
X642935Y407207D01*
X644353Y408625D01*
X645120Y410477D01*
Y412482D01*
X644353Y414335D01*
X642935Y415753D01*
X641083Y416520D01*
D02*
G37*
G36*
X540873Y413815D02*
X538868D01*
X537015Y413047D01*
X535598Y411629D01*
X534830Y409777D01*
Y407772D01*
X535598Y405920D01*
X537015Y404502D01*
X538868Y403735D01*
X540873D01*
X542725Y404502D01*
X544143Y405920D01*
X544910Y407772D01*
Y409777D01*
X544143Y411629D01*
X542725Y413047D01*
X540873Y413815D01*
D02*
G37*
G36*
X414611Y419790D02*
X412089D01*
X409652Y419137D01*
X407468Y417876D01*
X405684Y416092D01*
X404423Y413908D01*
X403770Y411471D01*
Y408949D01*
X404423Y406512D01*
X405684Y404328D01*
X407468Y402544D01*
X409652Y401283D01*
X412089Y400630D01*
X414611D01*
X417048Y401283D01*
X419232Y402544D01*
X421016Y404328D01*
X422277Y406512D01*
X422930Y408949D01*
Y411471D01*
X422277Y413908D01*
X421016Y416092D01*
X419232Y417876D01*
X417048Y419137D01*
X414611Y419790D01*
D02*
G37*
G36*
X803978Y416560D02*
X801302D01*
X798718Y415868D01*
X796402Y414530D01*
X794510Y412638D01*
X793172Y410322D01*
X792480Y407738D01*
Y405062D01*
X793172Y402478D01*
X794510Y400162D01*
X796402Y398270D01*
X798718Y396932D01*
X801302Y396240D01*
X803978D01*
X806562Y396932D01*
X808878Y398270D01*
X810770Y400162D01*
X812108Y402478D01*
X812800Y405062D01*
Y407738D01*
X812108Y410322D01*
X810770Y412638D01*
X808878Y414530D01*
X806562Y415868D01*
X803978Y416560D01*
D02*
G37*
G36*
X778578D02*
X775902D01*
X773318Y415868D01*
X771002Y414530D01*
X769110Y412638D01*
X767772Y410322D01*
X767080Y407738D01*
Y405062D01*
X767772Y402478D01*
X769110Y400162D01*
X771002Y398270D01*
X773318Y396932D01*
X775902Y396240D01*
X778578D01*
X781162Y396932D01*
X783478Y398270D01*
X785370Y400162D01*
X786708Y402478D01*
X787400Y405062D01*
Y407738D01*
X786708Y410322D01*
X785370Y412638D01*
X783478Y414530D01*
X781162Y415868D01*
X778578Y416560D01*
D02*
G37*
G36*
X548372Y403820D02*
X546367D01*
X544515Y403053D01*
X543097Y401635D01*
X542330Y399782D01*
Y397777D01*
X543097Y395925D01*
X544515Y394507D01*
X546367Y393740D01*
X548372D01*
X550225Y394507D01*
X551643Y395925D01*
X552410Y397777D01*
Y399782D01*
X551643Y401635D01*
X550225Y403053D01*
X548372Y403820D01*
D02*
G37*
G36*
X521702D02*
X519697D01*
X517845Y403053D01*
X516427Y401635D01*
X515660Y399782D01*
Y397777D01*
X516427Y395925D01*
X517845Y394507D01*
X519697Y393740D01*
X521702D01*
X523555Y394507D01*
X524973Y395925D01*
X525740Y397777D01*
Y399782D01*
X524973Y401635D01*
X523555Y403053D01*
X521702Y403820D01*
D02*
G37*
G36*
X509002D02*
X506997D01*
X505145Y403053D01*
X503727Y401635D01*
X502960Y399782D01*
Y397777D01*
X503727Y395925D01*
X505145Y394507D01*
X506997Y393740D01*
X509002D01*
X510855Y394507D01*
X512273Y395925D01*
X513040Y397777D01*
Y399782D01*
X512273Y401635D01*
X510855Y403053D01*
X509002Y403820D01*
D02*
G37*
G36*
X496302D02*
X494297D01*
X492445Y403053D01*
X491027Y401635D01*
X490260Y399782D01*
Y397777D01*
X491027Y395925D01*
X492445Y394507D01*
X494297Y393740D01*
X496302D01*
X498155Y394507D01*
X499573Y395925D01*
X500340Y397777D01*
Y399782D01*
X499573Y401635D01*
X498155Y403053D01*
X496302Y403820D01*
D02*
G37*
G36*
X483602D02*
X481598D01*
X479745Y403053D01*
X478327Y401635D01*
X477560Y399782D01*
Y397777D01*
X478327Y395925D01*
X479745Y394507D01*
X481598Y393740D01*
X483602D01*
X485455Y394507D01*
X486873Y395925D01*
X487640Y397777D01*
Y399782D01*
X486873Y401635D01*
X485455Y403053D01*
X483602Y403820D01*
D02*
G37*
G36*
X663942Y391120D02*
X661937D01*
X660085Y390353D01*
X658667Y388935D01*
X657900Y387082D01*
Y385078D01*
X658667Y383225D01*
X660085Y381807D01*
X661937Y381040D01*
X663942D01*
X665795Y381807D01*
X667213Y383225D01*
X667980Y385078D01*
Y387082D01*
X667213Y388935D01*
X665795Y390353D01*
X663942Y391120D01*
D02*
G37*
G36*
X262211Y394390D02*
X259689D01*
X257252Y393737D01*
X255068Y392476D01*
X253284Y390692D01*
X252023Y388508D01*
X251370Y386071D01*
Y383549D01*
X252023Y381112D01*
X253284Y378928D01*
X255068Y377144D01*
X257252Y375883D01*
X259689Y375230D01*
X262211D01*
X264648Y375883D01*
X266832Y377144D01*
X268616Y378928D01*
X269877Y381112D01*
X270530Y383549D01*
Y386071D01*
X269877Y388508D01*
X268616Y390692D01*
X266832Y392476D01*
X264648Y393737D01*
X262211Y394390D01*
D02*
G37*
G36*
X548504Y381987D02*
X546499D01*
X544646Y381219D01*
X543229Y379802D01*
X542461Y377949D01*
Y375944D01*
X543229Y374092D01*
X544646Y372674D01*
X546499Y371907D01*
X548504D01*
X550356Y372674D01*
X551774Y374092D01*
X552541Y375944D01*
Y377949D01*
X551774Y379802D01*
X550356Y381219D01*
X548504Y381987D01*
D02*
G37*
G36*
X528184D02*
X526179D01*
X524326Y381219D01*
X522909Y379802D01*
X522141Y377949D01*
Y375944D01*
X522909Y374092D01*
X524326Y372674D01*
X526179Y371907D01*
X528184D01*
X530036Y372674D01*
X531454Y374092D01*
X532221Y375944D01*
Y377949D01*
X531454Y379802D01*
X530036Y381219D01*
X528184Y381987D01*
D02*
G37*
G36*
X484873Y380960D02*
X482868D01*
X481015Y380193D01*
X479597Y378775D01*
X478830Y376922D01*
Y374917D01*
X479597Y373065D01*
X481015Y371647D01*
X482868Y370880D01*
X484873D01*
X486725Y371647D01*
X488143Y373065D01*
X488910Y374917D01*
Y376922D01*
X488143Y378775D01*
X486725Y380193D01*
X484873Y380960D01*
D02*
G37*
G36*
X803978Y391160D02*
X801302D01*
X798718Y390468D01*
X796402Y389130D01*
X794510Y387238D01*
X793172Y384922D01*
X792480Y382338D01*
Y379662D01*
X793172Y377078D01*
X794510Y374762D01*
X796402Y372870D01*
X798718Y371532D01*
X801302Y370840D01*
X803978D01*
X806562Y371532D01*
X808878Y372870D01*
X810770Y374762D01*
X812108Y377078D01*
X812800Y379662D01*
Y382338D01*
X812108Y384922D01*
X810770Y387238D01*
X808878Y389130D01*
X806562Y390468D01*
X803978Y391160D01*
D02*
G37*
G36*
X778578D02*
X775902D01*
X773318Y390468D01*
X771002Y389130D01*
X769110Y387238D01*
X767772Y384922D01*
X767080Y382338D01*
Y379662D01*
X767772Y377078D01*
X769110Y374762D01*
X771002Y372870D01*
X773318Y371532D01*
X775902Y370840D01*
X778578D01*
X781162Y371532D01*
X783478Y372870D01*
X785370Y374762D01*
X786708Y377078D01*
X787400Y379662D01*
Y382338D01*
X786708Y384922D01*
X785370Y387238D01*
X783478Y389130D01*
X781162Y390468D01*
X778578Y391160D01*
D02*
G37*
G36*
X688073Y374610D02*
X686068D01*
X684215Y373843D01*
X682797Y372425D01*
X682030Y370573D01*
Y368568D01*
X682797Y366715D01*
X684215Y365297D01*
X686068Y364530D01*
X688073D01*
X689925Y365297D01*
X691343Y366715D01*
X692110Y368568D01*
Y370573D01*
X691343Y372425D01*
X689925Y373843D01*
X688073Y374610D01*
D02*
G37*
G36*
X181343Y373340D02*
X179338D01*
X177485Y372573D01*
X176067Y371155D01*
X175300Y369302D01*
Y367298D01*
X176067Y365445D01*
X177485Y364027D01*
X179338Y363260D01*
X181343D01*
X183195Y364027D01*
X184613Y365445D01*
X185380Y367298D01*
Y369302D01*
X184613Y371155D01*
X183195Y372573D01*
X181343Y373340D01*
D02*
G37*
G36*
X495033Y370800D02*
X493027D01*
X491175Y370033D01*
X489757Y368615D01*
X488990Y366763D01*
Y364757D01*
X489757Y362905D01*
X491175Y361487D01*
X493027Y360720D01*
X495033D01*
X496885Y361487D01*
X498303Y362905D01*
X499070Y364757D01*
Y366763D01*
X498303Y368615D01*
X496885Y370033D01*
X495033Y370800D01*
D02*
G37*
G36*
X548504Y369287D02*
X546499D01*
X544646Y368520D01*
X543229Y367102D01*
X542461Y365249D01*
Y363244D01*
X543229Y361392D01*
X544646Y359974D01*
X546499Y359207D01*
X548504D01*
X550356Y359974D01*
X551774Y361392D01*
X552541Y363244D01*
Y365249D01*
X551774Y367102D01*
X550356Y368520D01*
X548504Y369287D01*
D02*
G37*
G36*
X528184D02*
X526179D01*
X524326Y368520D01*
X522909Y367102D01*
X522141Y365249D01*
Y363244D01*
X522909Y361392D01*
X524326Y359974D01*
X526179Y359207D01*
X528184D01*
X530036Y359974D01*
X531454Y361392D01*
X532221Y363244D01*
Y365249D01*
X531454Y367102D01*
X530036Y368520D01*
X528184Y369287D01*
D02*
G37*
G36*
X505192Y360640D02*
X503187D01*
X501335Y359873D01*
X499917Y358455D01*
X499150Y356603D01*
Y354598D01*
X499917Y352745D01*
X501335Y351327D01*
X503187Y350560D01*
X505192D01*
X507045Y351327D01*
X508463Y352745D01*
X509230Y354598D01*
Y356603D01*
X508463Y358455D01*
X507045Y359873D01*
X505192Y360640D01*
D02*
G37*
G36*
X465411Y368990D02*
X462889D01*
X460452Y368337D01*
X458268Y367076D01*
X456484Y365292D01*
X455223Y363108D01*
X454570Y360671D01*
Y358149D01*
X455223Y355712D01*
X456484Y353528D01*
X458268Y351744D01*
X460452Y350483D01*
X462889Y349830D01*
X465411D01*
X467848Y350483D01*
X470032Y351744D01*
X471816Y353528D01*
X473077Y355712D01*
X473730Y358149D01*
Y360671D01*
X473077Y363108D01*
X471816Y365292D01*
X470032Y367076D01*
X467848Y368337D01*
X465411Y368990D01*
D02*
G37*
G36*
X211411D02*
X208889D01*
X206452Y368337D01*
X204268Y367076D01*
X202484Y365292D01*
X201223Y363108D01*
X200570Y360671D01*
Y358149D01*
X201223Y355712D01*
X202484Y353528D01*
X204268Y351744D01*
X206452Y350483D01*
X208889Y349830D01*
X211411D01*
X213848Y350483D01*
X216032Y351744D01*
X217816Y353528D01*
X219077Y355712D01*
X219730Y358149D01*
Y360671D01*
X219077Y363108D01*
X217816Y365292D01*
X216032Y367076D01*
X213848Y368337D01*
X211411Y368990D01*
D02*
G37*
G36*
X548504Y356587D02*
X546499D01*
X544646Y355820D01*
X543229Y354402D01*
X542461Y352549D01*
Y350544D01*
X543229Y348692D01*
X544646Y347274D01*
X546499Y346507D01*
X548504D01*
X550356Y347274D01*
X551774Y348692D01*
X552541Y350544D01*
Y352549D01*
X551774Y354402D01*
X550356Y355820D01*
X548504Y356587D01*
D02*
G37*
G36*
X528184D02*
X526179D01*
X524326Y355820D01*
X522909Y354402D01*
X522141Y352549D01*
Y350544D01*
X522909Y348692D01*
X524326Y347274D01*
X526179Y346507D01*
X528184D01*
X530036Y347274D01*
X531454Y348692D01*
X532221Y350544D01*
Y352549D01*
X531454Y354402D01*
X530036Y355820D01*
X528184Y356587D01*
D02*
G37*
G36*
X803978Y365760D02*
X801302D01*
X798718Y365068D01*
X796402Y363730D01*
X794510Y361838D01*
X793172Y359522D01*
X792480Y356938D01*
Y354262D01*
X793172Y351678D01*
X794510Y349362D01*
X796402Y347470D01*
X798718Y346132D01*
X801302Y345440D01*
X803978D01*
X806562Y346132D01*
X808878Y347470D01*
X810770Y349362D01*
X812108Y351678D01*
X812800Y354262D01*
Y356938D01*
X812108Y359522D01*
X810770Y361838D01*
X808878Y363730D01*
X806562Y365068D01*
X803978Y365760D01*
D02*
G37*
G36*
X778578D02*
X775902D01*
X773318Y365068D01*
X771002Y363730D01*
X769110Y361838D01*
X767772Y359522D01*
X767080Y356938D01*
Y354262D01*
X767772Y351678D01*
X769110Y349362D01*
X771002Y347470D01*
X773318Y346132D01*
X775902Y345440D01*
X778578D01*
X781162Y346132D01*
X783478Y347470D01*
X785370Y349362D01*
X786708Y351678D01*
X787400Y354262D01*
Y356938D01*
X786708Y359522D01*
X785370Y361838D01*
X783478Y363730D01*
X781162Y365068D01*
X778578Y365760D01*
D02*
G37*
G36*
X732523Y336510D02*
X730518D01*
X728665Y335743D01*
X727247Y334325D01*
X726480Y332472D01*
Y330467D01*
X727247Y328615D01*
X728665Y327197D01*
X730518Y326430D01*
X732523D01*
X734375Y327197D01*
X735793Y328615D01*
X736560Y330467D01*
Y332472D01*
X735793Y334325D01*
X734375Y335743D01*
X732523Y336510D01*
D02*
G37*
G36*
X338411Y343590D02*
X335889D01*
X333452Y342937D01*
X331268Y341676D01*
X329484Y339892D01*
X328223Y337708D01*
X327570Y335271D01*
Y332749D01*
X328223Y330312D01*
X329484Y328128D01*
X331268Y326344D01*
X333452Y325083D01*
X335889Y324430D01*
X338411D01*
X340848Y325083D01*
X343032Y326344D01*
X344816Y328128D01*
X346077Y330312D01*
X346730Y332749D01*
Y335271D01*
X346077Y337708D01*
X344816Y339892D01*
X343032Y341676D01*
X340848Y342937D01*
X338411Y343590D01*
D02*
G37*
G36*
X803978Y340360D02*
X801302D01*
X798718Y339668D01*
X796402Y338330D01*
X794510Y336438D01*
X793172Y334122D01*
X792480Y331538D01*
Y328862D01*
X793172Y326278D01*
X794510Y323962D01*
X796402Y322070D01*
X798718Y320732D01*
X801302Y320040D01*
X803978D01*
X806562Y320732D01*
X808878Y322070D01*
X810770Y323962D01*
X812108Y326278D01*
X812800Y328862D01*
Y331538D01*
X812108Y334122D01*
X810770Y336438D01*
X808878Y338330D01*
X806562Y339668D01*
X803978Y340360D01*
D02*
G37*
G36*
X778578D02*
X775902D01*
X773318Y339668D01*
X771002Y338330D01*
X769110Y336438D01*
X767772Y334122D01*
X767080Y331538D01*
Y328862D01*
X767772Y326278D01*
X769110Y323962D01*
X771002Y322070D01*
X773318Y320732D01*
X775902Y320040D01*
X778578D01*
X781162Y320732D01*
X783478Y322070D01*
X785370Y323962D01*
X786708Y326278D01*
X787400Y328862D01*
Y331538D01*
X786708Y334122D01*
X785370Y336438D01*
X783478Y338330D01*
X781162Y339668D01*
X778578Y340360D01*
D02*
G37*
G36*
X662673Y325080D02*
X660667D01*
X658815Y324313D01*
X657397Y322895D01*
X656630Y321043D01*
Y319037D01*
X657397Y317185D01*
X658815Y315767D01*
X660667Y315000D01*
X662673D01*
X664525Y315767D01*
X665943Y317185D01*
X666710Y319037D01*
Y321043D01*
X665943Y322895D01*
X664525Y324313D01*
X662673Y325080D01*
D02*
G37*
G36*
X440011Y318190D02*
X437489D01*
X435052Y317537D01*
X432868Y316276D01*
X431084Y314492D01*
X429823Y312308D01*
X429170Y309871D01*
Y307349D01*
X429823Y304912D01*
X431084Y302728D01*
X432868Y300944D01*
X435052Y299683D01*
X437489Y299030D01*
X440011D01*
X442448Y299683D01*
X444632Y300944D01*
X446416Y302728D01*
X447677Y304912D01*
X448330Y307349D01*
Y309871D01*
X447677Y312308D01*
X446416Y314492D01*
X444632Y316276D01*
X442448Y317537D01*
X440011Y318190D01*
D02*
G37*
G36*
X389211D02*
X386689D01*
X384252Y317537D01*
X382068Y316276D01*
X380284Y314492D01*
X379023Y312308D01*
X378370Y309871D01*
Y307349D01*
X379023Y304912D01*
X380284Y302728D01*
X382068Y300944D01*
X384252Y299683D01*
X386689Y299030D01*
X389211D01*
X391648Y299683D01*
X393832Y300944D01*
X395616Y302728D01*
X396877Y304912D01*
X397530Y307349D01*
Y309871D01*
X396877Y312308D01*
X395616Y314492D01*
X393832Y316276D01*
X391648Y317537D01*
X389211Y318190D01*
D02*
G37*
G36*
X363811D02*
X361289D01*
X358852Y317537D01*
X356668Y316276D01*
X354884Y314492D01*
X353623Y312308D01*
X352970Y309871D01*
Y307349D01*
X353623Y304912D01*
X354884Y302728D01*
X356668Y300944D01*
X358852Y299683D01*
X361289Y299030D01*
X363811D01*
X366248Y299683D01*
X368432Y300944D01*
X370216Y302728D01*
X371477Y304912D01*
X372130Y307349D01*
Y309871D01*
X371477Y312308D01*
X370216Y314492D01*
X368432Y316276D01*
X366248Y317537D01*
X363811Y318190D01*
D02*
G37*
G36*
X338411D02*
X335889D01*
X333452Y317537D01*
X331268Y316276D01*
X329484Y314492D01*
X328223Y312308D01*
X327570Y309871D01*
Y307349D01*
X328223Y304912D01*
X329484Y302728D01*
X331268Y300944D01*
X333452Y299683D01*
X335889Y299030D01*
X338411D01*
X340848Y299683D01*
X343032Y300944D01*
X344816Y302728D01*
X346077Y304912D01*
X346730Y307349D01*
Y309871D01*
X346077Y312308D01*
X344816Y314492D01*
X343032Y316276D01*
X340848Y317537D01*
X338411Y318190D01*
D02*
G37*
G36*
X313011D02*
X310489D01*
X308052Y317537D01*
X305868Y316276D01*
X304084Y314492D01*
X302823Y312308D01*
X302170Y309871D01*
Y307349D01*
X302823Y304912D01*
X304084Y302728D01*
X305868Y300944D01*
X308052Y299683D01*
X310489Y299030D01*
X313011D01*
X315448Y299683D01*
X317632Y300944D01*
X319416Y302728D01*
X320677Y304912D01*
X321330Y307349D01*
Y309871D01*
X320677Y312308D01*
X319416Y314492D01*
X317632Y316276D01*
X315448Y317537D01*
X313011Y318190D01*
D02*
G37*
G36*
X287611D02*
X285089D01*
X282652Y317537D01*
X280468Y316276D01*
X278684Y314492D01*
X277423Y312308D01*
X276770Y309871D01*
Y307349D01*
X277423Y304912D01*
X278684Y302728D01*
X280468Y300944D01*
X282652Y299683D01*
X285089Y299030D01*
X287611D01*
X290048Y299683D01*
X292232Y300944D01*
X294016Y302728D01*
X295277Y304912D01*
X295930Y307349D01*
Y309871D01*
X295277Y312308D01*
X294016Y314492D01*
X292232Y316276D01*
X290048Y317537D01*
X287611Y318190D01*
D02*
G37*
G36*
X236811D02*
X234289D01*
X231852Y317537D01*
X229668Y316276D01*
X227884Y314492D01*
X226623Y312308D01*
X225970Y309871D01*
Y307349D01*
X226623Y304912D01*
X227884Y302728D01*
X229668Y300944D01*
X231852Y299683D01*
X234289Y299030D01*
X236811D01*
X239248Y299683D01*
X241432Y300944D01*
X243216Y302728D01*
X244477Y304912D01*
X245130Y307349D01*
Y309871D01*
X244477Y312308D01*
X243216Y314492D01*
X241432Y316276D01*
X239248Y317537D01*
X236811Y318190D01*
D02*
G37*
G36*
X707122Y308570D02*
X705117D01*
X703265Y307803D01*
X701847Y306385D01*
X701080Y304533D01*
Y302528D01*
X701847Y300675D01*
X703265Y299257D01*
X705117Y298490D01*
X707122D01*
X708975Y299257D01*
X710393Y300675D01*
X711160Y302528D01*
Y304533D01*
X710393Y306385D01*
X708975Y307803D01*
X707122Y308570D01*
D02*
G37*
G36*
X803978Y314960D02*
X801302D01*
X798718Y314268D01*
X796402Y312930D01*
X794510Y311038D01*
X793172Y308722D01*
X792480Y306138D01*
Y303462D01*
X793172Y300878D01*
X794510Y298562D01*
X796402Y296670D01*
X798718Y295332D01*
X801302Y294640D01*
X803978D01*
X806562Y295332D01*
X808878Y296670D01*
X810770Y298562D01*
X812108Y300878D01*
X812800Y303462D01*
Y306138D01*
X812108Y308722D01*
X810770Y311038D01*
X808878Y312930D01*
X806562Y314268D01*
X803978Y314960D01*
D02*
G37*
G36*
X778578D02*
X775902D01*
X773318Y314268D01*
X771002Y312930D01*
X769110Y311038D01*
X767772Y308722D01*
X767080Y306138D01*
Y303462D01*
X767772Y300878D01*
X769110Y298562D01*
X771002Y296670D01*
X773318Y295332D01*
X775902Y294640D01*
X778578D01*
X781162Y295332D01*
X783478Y296670D01*
X785370Y298562D01*
X786708Y300878D01*
X787400Y303462D01*
Y306138D01*
X786708Y308722D01*
X785370Y311038D01*
X783478Y312930D01*
X781162Y314268D01*
X778578Y314960D01*
D02*
G37*
G36*
X641083Y302220D02*
X639077D01*
X637225Y301453D01*
X635807Y300035D01*
X635040Y298183D01*
Y296178D01*
X635807Y294325D01*
X637225Y292907D01*
X639077Y292140D01*
X641083D01*
X642935Y292907D01*
X644353Y294325D01*
X645120Y296178D01*
Y298183D01*
X644353Y300035D01*
X642935Y301453D01*
X641083Y302220D01*
D02*
G37*
G36*
X547103Y293330D02*
X545098D01*
X543245Y292563D01*
X541827Y291145D01*
X541060Y289293D01*
Y287288D01*
X541827Y285435D01*
X543245Y284017D01*
X545098Y283250D01*
X547103D01*
X548955Y284017D01*
X550373Y285435D01*
X551140Y287288D01*
Y289293D01*
X550373Y291145D01*
X548955Y292563D01*
X547103Y293330D01*
D02*
G37*
G36*
X529454Y293087D02*
X527449D01*
X525596Y292320D01*
X524179Y290902D01*
X523411Y289049D01*
Y287044D01*
X524179Y285192D01*
X525596Y283774D01*
X527449Y283007D01*
X529454D01*
X531306Y283774D01*
X532724Y285192D01*
X533491Y287044D01*
Y289049D01*
X532724Y290902D01*
X531306Y292320D01*
X529454Y293087D01*
D02*
G37*
G36*
X414611Y292790D02*
X412089D01*
X409652Y292137D01*
X407468Y290876D01*
X405684Y289092D01*
X404423Y286908D01*
X403770Y284471D01*
Y281949D01*
X404423Y279512D01*
X405684Y277328D01*
X407468Y275544D01*
X409652Y274283D01*
X412089Y273630D01*
X414611D01*
X417048Y274283D01*
X419232Y275544D01*
X421016Y277328D01*
X422277Y279512D01*
X422930Y281949D01*
Y284471D01*
X422277Y286908D01*
X421016Y289092D01*
X419232Y290876D01*
X417048Y292137D01*
X414611Y292790D01*
D02*
G37*
G36*
X389211D02*
X386689D01*
X384252Y292137D01*
X382068Y290876D01*
X380284Y289092D01*
X379023Y286908D01*
X378370Y284471D01*
Y281949D01*
X379023Y279512D01*
X380284Y277328D01*
X382068Y275544D01*
X384252Y274283D01*
X386689Y273630D01*
X389211D01*
X391648Y274283D01*
X393832Y275544D01*
X395616Y277328D01*
X396877Y279512D01*
X397530Y281949D01*
Y284471D01*
X396877Y286908D01*
X395616Y289092D01*
X393832Y290876D01*
X391648Y292137D01*
X389211Y292790D01*
D02*
G37*
G36*
X363811D02*
X361289D01*
X358852Y292137D01*
X356668Y290876D01*
X354884Y289092D01*
X353623Y286908D01*
X352970Y284471D01*
Y281949D01*
X353623Y279512D01*
X354884Y277328D01*
X356668Y275544D01*
X358852Y274283D01*
X361289Y273630D01*
X363811D01*
X366248Y274283D01*
X368432Y275544D01*
X370216Y277328D01*
X371477Y279512D01*
X372130Y281949D01*
Y284471D01*
X371477Y286908D01*
X370216Y289092D01*
X368432Y290876D01*
X366248Y292137D01*
X363811Y292790D01*
D02*
G37*
G36*
X338411D02*
X335889D01*
X333452Y292137D01*
X331268Y290876D01*
X329484Y289092D01*
X328223Y286908D01*
X327570Y284471D01*
Y281949D01*
X328223Y279512D01*
X329484Y277328D01*
X331268Y275544D01*
X333452Y274283D01*
X335889Y273630D01*
X338411D01*
X340848Y274283D01*
X343032Y275544D01*
X344816Y277328D01*
X346077Y279512D01*
X346730Y281949D01*
Y284471D01*
X346077Y286908D01*
X344816Y289092D01*
X343032Y290876D01*
X340848Y292137D01*
X338411Y292790D01*
D02*
G37*
G36*
X313011D02*
X310489D01*
X308052Y292137D01*
X305868Y290876D01*
X304084Y289092D01*
X302823Y286908D01*
X302170Y284471D01*
Y281949D01*
X302823Y279512D01*
X304084Y277328D01*
X305868Y275544D01*
X308052Y274283D01*
X310489Y273630D01*
X313011D01*
X315448Y274283D01*
X317632Y275544D01*
X319416Y277328D01*
X320677Y279512D01*
X321330Y281949D01*
Y284471D01*
X320677Y286908D01*
X319416Y289092D01*
X317632Y290876D01*
X315448Y292137D01*
X313011Y292790D01*
D02*
G37*
G36*
X287611D02*
X285089D01*
X282652Y292137D01*
X280468Y290876D01*
X278684Y289092D01*
X277423Y286908D01*
X276770Y284471D01*
Y281949D01*
X277423Y279512D01*
X278684Y277328D01*
X280468Y275544D01*
X282652Y274283D01*
X285089Y273630D01*
X287611D01*
X290048Y274283D01*
X292232Y275544D01*
X294016Y277328D01*
X295277Y279512D01*
X295930Y281949D01*
Y284471D01*
X295277Y286908D01*
X294016Y289092D01*
X292232Y290876D01*
X290048Y292137D01*
X287611Y292790D01*
D02*
G37*
G36*
X262211D02*
X259689D01*
X257252Y292137D01*
X255068Y290876D01*
X253284Y289092D01*
X252023Y286908D01*
X251370Y284471D01*
Y281949D01*
X252023Y279512D01*
X253284Y277328D01*
X255068Y275544D01*
X257252Y274283D01*
X259689Y273630D01*
X262211D01*
X264648Y274283D01*
X266832Y275544D01*
X268616Y277328D01*
X269877Y279512D01*
X270530Y281949D01*
Y284471D01*
X269877Y286908D01*
X268616Y289092D01*
X266832Y290876D01*
X264648Y292137D01*
X262211Y292790D01*
D02*
G37*
G36*
X566656Y294650D02*
X563644D01*
X560734Y293870D01*
X558126Y292364D01*
X555996Y290234D01*
X554490Y287626D01*
X553710Y284716D01*
Y281704D01*
X554490Y278794D01*
X555996Y276186D01*
X558126Y274056D01*
X560734Y272550D01*
X563644Y271770D01*
X566656D01*
X569566Y272550D01*
X572174Y274056D01*
X574304Y276186D01*
X575810Y278794D01*
X576590Y281704D01*
Y284716D01*
X575810Y287626D01*
X574304Y290234D01*
X572174Y292364D01*
X569566Y293870D01*
X566656Y294650D01*
D02*
G37*
G36*
X160656D02*
X157644D01*
X154734Y293870D01*
X152126Y292364D01*
X149995Y290234D01*
X148489Y287626D01*
X147710Y284716D01*
Y281704D01*
X148489Y278794D01*
X149995Y276186D01*
X152126Y274056D01*
X154734Y272550D01*
X157644Y271770D01*
X160656D01*
X163566Y272550D01*
X166174Y274056D01*
X168304Y276186D01*
X169810Y278794D01*
X170590Y281704D01*
Y284716D01*
X169810Y287626D01*
X168304Y290234D01*
X166174Y292364D01*
X163566Y293870D01*
X160656Y294650D01*
D02*
G37*
G36*
X803978Y289560D02*
X801302D01*
X798718Y288868D01*
X796402Y287530D01*
X794510Y285638D01*
X793172Y283322D01*
X792480Y280738D01*
Y278062D01*
X793172Y275478D01*
X794510Y273162D01*
X796402Y271270D01*
X798718Y269932D01*
X801302Y269240D01*
X803978D01*
X806562Y269932D01*
X808878Y271270D01*
X810770Y273162D01*
X812108Y275478D01*
X812800Y278062D01*
Y280738D01*
X812108Y283322D01*
X810770Y285638D01*
X808878Y287530D01*
X806562Y288868D01*
X803978Y289560D01*
D02*
G37*
G36*
X778578D02*
X775902D01*
X773318Y288868D01*
X771002Y287530D01*
X769110Y285638D01*
X767772Y283322D01*
X767080Y280738D01*
Y278062D01*
X767772Y275478D01*
X769110Y273162D01*
X771002Y271270D01*
X773318Y269932D01*
X775902Y269240D01*
X778578D01*
X781162Y269932D01*
X783478Y271270D01*
X785370Y273162D01*
X786708Y275478D01*
X787400Y278062D01*
Y280738D01*
X786708Y283322D01*
X785370Y285638D01*
X783478Y287530D01*
X781162Y288868D01*
X778578Y289560D01*
D02*
G37*
G36*
X672832Y276820D02*
X670827D01*
X668975Y276053D01*
X667557Y274635D01*
X666790Y272782D01*
Y270777D01*
X667557Y268925D01*
X668975Y267507D01*
X670827Y266740D01*
X672832D01*
X674685Y267507D01*
X676103Y268925D01*
X676870Y270777D01*
Y272782D01*
X676103Y274635D01*
X674685Y276053D01*
X672832Y276820D01*
D02*
G37*
G36*
X718552Y262850D02*
X716547D01*
X714695Y262083D01*
X713277Y260665D01*
X712510Y258813D01*
Y256807D01*
X713277Y254955D01*
X714695Y253537D01*
X716547Y252770D01*
X718552D01*
X720405Y253537D01*
X721823Y254955D01*
X722590Y256807D01*
Y258813D01*
X721823Y260665D01*
X720405Y262083D01*
X718552Y262850D01*
D02*
G37*
G36*
X803978Y264160D02*
X801302D01*
X798718Y263468D01*
X796402Y262130D01*
X794510Y260238D01*
X793172Y257922D01*
X792480Y255338D01*
Y252662D01*
X793172Y250078D01*
X794510Y247762D01*
X796402Y245870D01*
X798718Y244532D01*
X801302Y243840D01*
X803978D01*
X806562Y244532D01*
X808878Y245870D01*
X810770Y247762D01*
X812108Y250078D01*
X812800Y252662D01*
Y255338D01*
X812108Y257922D01*
X810770Y260238D01*
X808878Y262130D01*
X806562Y263468D01*
X803978Y264160D01*
D02*
G37*
G36*
X778578D02*
X775902D01*
X773318Y263468D01*
X771002Y262130D01*
X769110Y260238D01*
X767772Y257922D01*
X767080Y255338D01*
Y252662D01*
X767772Y250078D01*
X769110Y247762D01*
X771002Y245870D01*
X773318Y244532D01*
X775902Y243840D01*
X778578D01*
X781162Y244532D01*
X783478Y245870D01*
X785370Y247762D01*
X786708Y250078D01*
X787400Y252662D01*
Y255338D01*
X786708Y257922D01*
X785370Y260238D01*
X783478Y262130D01*
X781162Y263468D01*
X778578Y264160D01*
D02*
G37*
G36*
X548372Y247610D02*
X546367D01*
X544515Y246843D01*
X543097Y245425D01*
X542330Y243573D01*
Y241567D01*
X543097Y239715D01*
X544515Y238297D01*
X546367Y237530D01*
X548372D01*
X550225Y238297D01*
X551643Y239715D01*
X552410Y241567D01*
Y243573D01*
X551643Y245425D01*
X550225Y246843D01*
X548372Y247610D01*
D02*
G37*
G36*
X528052D02*
X526048D01*
X524195Y246843D01*
X522777Y245425D01*
X522010Y243573D01*
Y241567D01*
X522777Y239715D01*
X524195Y238297D01*
X526048Y237530D01*
X528052D01*
X529905Y238297D01*
X531323Y239715D01*
X532090Y241567D01*
Y243573D01*
X531323Y245425D01*
X529905Y246843D01*
X528052Y247610D01*
D02*
G37*
G36*
X516623D02*
X514618D01*
X512765Y246843D01*
X511347Y245425D01*
X510580Y243573D01*
Y241567D01*
X511347Y239715D01*
X512765Y238297D01*
X514618Y237530D01*
X516623D01*
X518475Y238297D01*
X519893Y239715D01*
X520660Y241567D01*
Y243573D01*
X519893Y245425D01*
X518475Y246843D01*
X516623Y247610D01*
D02*
G37*
G36*
X492492D02*
X490488D01*
X488635Y246843D01*
X487217Y245425D01*
X486450Y243573D01*
Y241567D01*
X487217Y239715D01*
X488635Y238297D01*
X490488Y237530D01*
X492492D01*
X494345Y238297D01*
X495763Y239715D01*
X496530Y241567D01*
Y243573D01*
X495763Y245425D01*
X494345Y246843D01*
X492492Y247610D01*
D02*
G37*
G36*
X619492Y234910D02*
X617487D01*
X615635Y234143D01*
X614217Y232725D01*
X613450Y230872D01*
Y228867D01*
X614217Y227015D01*
X615635Y225597D01*
X617487Y224830D01*
X619492D01*
X621345Y225597D01*
X622763Y227015D01*
X623530Y228867D01*
Y230872D01*
X622763Y232725D01*
X621345Y234143D01*
X619492Y234910D01*
D02*
G37*
G36*
X548372Y231100D02*
X546367D01*
X544515Y230333D01*
X543097Y228915D01*
X542330Y227062D01*
Y225058D01*
X543097Y223205D01*
X544515Y221787D01*
X546367Y221020D01*
X548372D01*
X550225Y221787D01*
X551643Y223205D01*
X552410Y225058D01*
Y227062D01*
X551643Y228915D01*
X550225Y230333D01*
X548372Y231100D01*
D02*
G37*
G36*
X528052D02*
X526048D01*
X524195Y230333D01*
X522777Y228915D01*
X522010Y227062D01*
Y225058D01*
X522777Y223205D01*
X524195Y221787D01*
X526048Y221020D01*
X528052D01*
X529905Y221787D01*
X531323Y223205D01*
X532090Y225058D01*
Y227062D01*
X531323Y228915D01*
X529905Y230333D01*
X528052Y231100D01*
D02*
G37*
G36*
X515353D02*
X513348D01*
X511495Y230333D01*
X510077Y228915D01*
X509310Y227062D01*
Y225058D01*
X510077Y223205D01*
X511495Y221787D01*
X513348Y221020D01*
X515353D01*
X517205Y221787D01*
X518623Y223205D01*
X519390Y225058D01*
Y227062D01*
X518623Y228915D01*
X517205Y230333D01*
X515353Y231100D01*
D02*
G37*
G36*
X492492D02*
X490488D01*
X488635Y230333D01*
X487217Y228915D01*
X486450Y227062D01*
Y225058D01*
X487217Y223205D01*
X488635Y221787D01*
X490488Y221020D01*
X492492D01*
X494345Y221787D01*
X495763Y223205D01*
X496530Y225058D01*
Y227062D01*
X495763Y228915D01*
X494345Y230333D01*
X492492Y231100D01*
D02*
G37*
G36*
X803978Y238760D02*
X801302D01*
X798718Y238068D01*
X796402Y236730D01*
X794510Y234838D01*
X793172Y232522D01*
X792480Y229938D01*
Y227262D01*
X793172Y224678D01*
X794510Y222362D01*
X796402Y220470D01*
X798718Y219132D01*
X801302Y218440D01*
X803978D01*
X806562Y219132D01*
X808878Y220470D01*
X810770Y222362D01*
X812108Y224678D01*
X812800Y227262D01*
Y229938D01*
X812108Y232522D01*
X810770Y234838D01*
X808878Y236730D01*
X806562Y238068D01*
X803978Y238760D01*
D02*
G37*
G36*
X778578D02*
X775902D01*
X773318Y238068D01*
X771002Y236730D01*
X769110Y234838D01*
X767772Y232522D01*
X767080Y229938D01*
Y227262D01*
X767772Y224678D01*
X769110Y222362D01*
X771002Y220470D01*
X773318Y219132D01*
X775902Y218440D01*
X778578D01*
X781162Y219132D01*
X783478Y220470D01*
X785370Y222362D01*
X786708Y224678D01*
X787400Y227262D01*
Y229938D01*
X786708Y232522D01*
X785370Y234838D01*
X783478Y236730D01*
X781162Y238068D01*
X778578Y238760D01*
D02*
G37*
G36*
X548372Y219670D02*
X546367D01*
X544515Y218903D01*
X543097Y217485D01*
X542330Y215632D01*
Y213627D01*
X543097Y211775D01*
X544515Y210357D01*
X546367Y209590D01*
X548372D01*
X550225Y210357D01*
X551643Y211775D01*
X552410Y213627D01*
Y215632D01*
X551643Y217485D01*
X550225Y218903D01*
X548372Y219670D01*
D02*
G37*
G36*
X528052D02*
X526048D01*
X524195Y218903D01*
X522777Y217485D01*
X522010Y215632D01*
Y213627D01*
X522777Y211775D01*
X524195Y210357D01*
X526048Y209590D01*
X528052D01*
X529905Y210357D01*
X531323Y211775D01*
X532090Y213627D01*
Y215632D01*
X531323Y217485D01*
X529905Y218903D01*
X528052Y219670D01*
D02*
G37*
G36*
X515353D02*
X513348D01*
X511495Y218903D01*
X510077Y217485D01*
X509310Y215632D01*
Y213627D01*
X510077Y211775D01*
X511495Y210357D01*
X513348Y209590D01*
X515353D01*
X517205Y210357D01*
X518623Y211775D01*
X519390Y213627D01*
Y215632D01*
X518623Y217485D01*
X517205Y218903D01*
X515353Y219670D01*
D02*
G37*
G36*
X492492D02*
X490488D01*
X488635Y218903D01*
X487217Y217485D01*
X486450Y215632D01*
Y213627D01*
X487217Y211775D01*
X488635Y210357D01*
X490488Y209590D01*
X492492D01*
X494345Y210357D01*
X495763Y211775D01*
X496530Y213627D01*
Y215632D01*
X495763Y217485D01*
X494345Y218903D01*
X492492Y219670D01*
D02*
G37*
G36*
X732523Y184110D02*
X730518D01*
X728665Y183343D01*
X727247Y181925D01*
X726480Y180072D01*
Y178067D01*
X727247Y176215D01*
X728665Y174797D01*
X730518Y174030D01*
X732523D01*
X734375Y174797D01*
X735793Y176215D01*
X736560Y178067D01*
Y180072D01*
X735793Y181925D01*
X734375Y183343D01*
X732523Y184110D01*
D02*
G37*
G36*
X388353D02*
X386348D01*
X384495Y183343D01*
X383077Y181925D01*
X382310Y180072D01*
Y178067D01*
X383077Y176215D01*
X384495Y174797D01*
X386348Y174030D01*
X388353D01*
X390205Y174797D01*
X391623Y176215D01*
X392390Y178067D01*
Y180072D01*
X391623Y181925D01*
X390205Y183343D01*
X388353Y184110D01*
D02*
G37*
G36*
X464552Y165060D02*
X462547D01*
X460695Y164293D01*
X459277Y162875D01*
X458510Y161022D01*
Y159017D01*
X459277Y157165D01*
X460695Y155747D01*
X462547Y154980D01*
X464552D01*
X466405Y155747D01*
X467823Y157165D01*
X468590Y159017D01*
Y161022D01*
X467823Y162875D01*
X466405Y164293D01*
X464552Y165060D01*
D02*
G37*
G36*
X707122Y163790D02*
X705117D01*
X703265Y163023D01*
X701847Y161605D01*
X701080Y159753D01*
Y157747D01*
X701847Y155895D01*
X703265Y154477D01*
X705117Y153710D01*
X707122D01*
X708975Y154477D01*
X710393Y155895D01*
X711160Y157747D01*
Y159753D01*
X710393Y161605D01*
X708975Y163023D01*
X707122Y163790D01*
D02*
G37*
G36*
X512812Y153630D02*
X510807D01*
X508955Y152863D01*
X507537Y151445D01*
X506770Y149593D01*
Y147587D01*
X507537Y145735D01*
X508955Y144317D01*
X510807Y143550D01*
X512812D01*
X514665Y144317D01*
X516083Y145735D01*
X516850Y147587D01*
Y149593D01*
X516083Y151445D01*
X514665Y152863D01*
X512812Y153630D01*
D02*
G37*
G36*
X495033D02*
X493027D01*
X491175Y152863D01*
X489757Y151445D01*
X488990Y149593D01*
Y147587D01*
X489757Y145735D01*
X491175Y144317D01*
X493027Y143550D01*
X495033D01*
X496885Y144317D01*
X498303Y145735D01*
X499070Y147587D01*
Y149593D01*
X498303Y151445D01*
X496885Y152863D01*
X495033Y153630D01*
D02*
G37*
G36*
X549642Y158710D02*
X547637D01*
X545785Y157943D01*
X544367Y156525D01*
X543600Y154672D01*
Y152668D01*
X544367Y150815D01*
X545785Y149397D01*
X546075Y149277D01*
Y147903D01*
X545785Y147783D01*
X544367Y146365D01*
X543600Y144513D01*
Y142507D01*
X544367Y140655D01*
X545785Y139237D01*
X547637Y138470D01*
X549642D01*
X551495Y139237D01*
X552913Y140655D01*
X553680Y142507D01*
Y144513D01*
X552913Y146365D01*
X551495Y147783D01*
X551205Y147903D01*
Y149277D01*
X551495Y149397D01*
X552913Y150815D01*
X553680Y152668D01*
Y154672D01*
X552913Y156525D01*
X551495Y157943D01*
X549642Y158710D01*
D02*
G37*
G36*
X525513Y148550D02*
X523507D01*
X521655Y147783D01*
X520237Y146365D01*
X519470Y144513D01*
Y142507D01*
X520237Y140655D01*
X521655Y139237D01*
X523507Y138470D01*
X525513D01*
X527365Y139237D01*
X528783Y140655D01*
X529550Y142507D01*
Y144513D01*
X528783Y146365D01*
X527365Y147783D01*
X525513Y148550D01*
D02*
G37*
G36*
X416292Y138390D02*
X414287D01*
X412435Y137623D01*
X411017Y136205D01*
X410250Y134353D01*
Y132347D01*
X411017Y130495D01*
X412435Y129077D01*
X414287Y128310D01*
X416292D01*
X418145Y129077D01*
X419563Y130495D01*
X420330Y132347D01*
Y134353D01*
X419563Y136205D01*
X418145Y137623D01*
X416292Y138390D01*
D02*
G37*
G36*
X813802Y137120D02*
X811797D01*
X809945Y136353D01*
X808527Y134935D01*
X807760Y133083D01*
Y131077D01*
X808527Y129225D01*
X809945Y127807D01*
X811797Y127040D01*
X813802D01*
X815655Y127807D01*
X817073Y129225D01*
X817840Y131077D01*
Y133083D01*
X817073Y134935D01*
X815655Y136353D01*
X813802Y137120D01*
D02*
G37*
G36*
X549642Y128230D02*
X547637D01*
X545785Y127463D01*
X544367Y126045D01*
X543600Y124192D01*
Y122188D01*
X544367Y120335D01*
X545785Y118917D01*
X547637Y118150D01*
X549642D01*
X551495Y118917D01*
X552913Y120335D01*
X553680Y122188D01*
Y124192D01*
X552913Y126045D01*
X551495Y127463D01*
X549642Y128230D01*
D02*
G37*
G36*
X525513D02*
X523507D01*
X521655Y127463D01*
X520237Y126045D01*
X519470Y124192D01*
Y122188D01*
X520237Y120335D01*
X521655Y118917D01*
X523507Y118150D01*
X525513D01*
X527365Y118917D01*
X528783Y120335D01*
X529550Y122188D01*
Y124192D01*
X528783Y126045D01*
X527365Y127463D01*
X525513Y128230D01*
D02*
G37*
G36*
X512812Y126960D02*
X510807D01*
X508955Y126193D01*
X507537Y124775D01*
X506770Y122922D01*
Y120918D01*
X507537Y119065D01*
X508955Y117647D01*
X510807Y116880D01*
X512812D01*
X514665Y117647D01*
X516083Y119065D01*
X516850Y120918D01*
Y122922D01*
X516083Y124775D01*
X514665Y126193D01*
X512812Y126960D01*
D02*
G37*
G36*
X492492D02*
X490488D01*
X488635Y126193D01*
X487217Y124775D01*
X486450Y122922D01*
Y120918D01*
X487217Y119065D01*
X488635Y117647D01*
X490488Y116880D01*
X492492D01*
X494345Y117647D01*
X495763Y119065D01*
X496530Y120918D01*
Y122922D01*
X495763Y124775D01*
X494345Y126193D01*
X492492Y126960D01*
D02*
G37*
G36*
X778242Y119340D02*
X776237D01*
X774385Y118573D01*
X772967Y117155D01*
X772200Y115302D01*
Y113298D01*
X772967Y111445D01*
X774385Y110027D01*
X776237Y109260D01*
X778242D01*
X780095Y110027D01*
X781513Y111445D01*
X782280Y113298D01*
Y115302D01*
X781513Y117155D01*
X780095Y118573D01*
X778242Y119340D01*
D02*
G37*
G36*
X197852Y112990D02*
X195847D01*
X193995Y112223D01*
X192577Y110805D01*
X191810Y108953D01*
Y106947D01*
X192577Y105095D01*
X193995Y103677D01*
X195847Y102910D01*
X197852D01*
X199705Y103677D01*
X201123Y105095D01*
X201890Y106947D01*
Y108953D01*
X201123Y110805D01*
X199705Y112223D01*
X197852Y112990D01*
D02*
G37*
G36*
X827773Y110450D02*
X825768D01*
X823915Y109683D01*
X822497Y108265D01*
X821730Y106412D01*
Y104408D01*
X822497Y102555D01*
X823915Y101137D01*
X825768Y100370D01*
X827773D01*
X829625Y101137D01*
X831043Y102555D01*
X831810Y104408D01*
Y106412D01*
X831043Y108265D01*
X829625Y109683D01*
X827773Y110450D01*
D02*
G37*
G36*
X400785Y110410D02*
X398780D01*
X396928Y109643D01*
X395510Y108225D01*
X394743Y106372D01*
Y104368D01*
X395510Y102515D01*
X396928Y101097D01*
X398780Y100330D01*
X400785D01*
X402637Y101097D01*
X404055Y102515D01*
X404823Y104368D01*
Y106372D01*
X404055Y108225D01*
X402637Y109643D01*
X400785Y110410D01*
D02*
G37*
G36*
X793483Y102830D02*
X791478D01*
X789625Y102063D01*
X788207Y100645D01*
X787440Y98792D01*
Y96788D01*
X788207Y94935D01*
X789625Y93517D01*
X791478Y92750D01*
X793483D01*
X795335Y93517D01*
X796753Y94935D01*
X797520Y96788D01*
Y98792D01*
X796753Y100645D01*
X795335Y102063D01*
X793483Y102830D01*
D02*
G37*
G36*
X238493D02*
X236488D01*
X234635Y102063D01*
X233217Y100645D01*
X232450Y98792D01*
Y96788D01*
X233217Y94935D01*
X234635Y93517D01*
X236488Y92750D01*
X238493D01*
X240345Y93517D01*
X241763Y94935D01*
X242530Y96788D01*
Y98792D01*
X241763Y100645D01*
X240345Y102063D01*
X238493Y102830D01*
D02*
G37*
G36*
X215632Y97710D02*
X213627D01*
X211775Y96943D01*
X210357Y95525D01*
X209590Y93673D01*
Y91667D01*
X210357Y89815D01*
X211775Y88397D01*
X213627Y87630D01*
X215632D01*
X217485Y88397D01*
X218903Y89815D01*
X219670Y91667D01*
Y93673D01*
X218903Y95525D01*
X217485Y96943D01*
X215632Y97710D01*
D02*
G37*
G36*
X768083Y93940D02*
X766077D01*
X764225Y93173D01*
X762807Y91755D01*
X762040Y89902D01*
Y87898D01*
X762807Y86045D01*
X764225Y84627D01*
X766077Y83860D01*
X768083D01*
X769935Y84627D01*
X771353Y86045D01*
X772120Y87898D01*
Y89902D01*
X771353Y91755D01*
X769935Y93173D01*
X768083Y93940D01*
D02*
G37*
G36*
X750303Y88860D02*
X748298D01*
X746445Y88093D01*
X745027Y86675D01*
X744260Y84823D01*
Y82817D01*
X745027Y80965D01*
X746445Y79547D01*
X748298Y78780D01*
X750303D01*
X752155Y79547D01*
X753573Y80965D01*
X754340Y82817D01*
Y84823D01*
X753573Y86675D01*
X752155Y88093D01*
X750303Y88860D01*
D02*
G37*
G36*
X452624Y80544D02*
X450619D01*
X448767Y79777D01*
X447349Y78359D01*
X446582Y76506D01*
Y74501D01*
X447349Y72649D01*
X448767Y71231D01*
X450619Y70464D01*
X452624D01*
X454477Y71231D01*
X455895Y72649D01*
X456662Y74501D01*
Y76506D01*
X455895Y78359D01*
X454477Y79777D01*
X452624Y80544D01*
D02*
G37*
G36*
X483602Y78700D02*
X481598D01*
X479745Y77933D01*
X478327Y76515D01*
X477560Y74662D01*
Y72657D01*
X478327Y70805D01*
X479745Y69387D01*
X481598Y68620D01*
X483602D01*
X485455Y69387D01*
X486873Y70805D01*
X487640Y72657D01*
Y74662D01*
X486873Y76515D01*
X485455Y77933D01*
X483602Y78700D01*
D02*
G37*
G36*
X442464Y71654D02*
X440459D01*
X438607Y70887D01*
X437189Y69469D01*
X436422Y67616D01*
Y65611D01*
X437189Y63759D01*
X438607Y62341D01*
X440459Y61574D01*
X442464D01*
X444317Y62341D01*
X445734Y63759D01*
X446502Y65611D01*
Y67616D01*
X445734Y69469D01*
X444317Y70887D01*
X442464Y71654D01*
D02*
G37*
G36*
X475484Y70384D02*
X473479D01*
X471627Y69616D01*
X470209Y68199D01*
X469442Y66346D01*
Y64341D01*
X470209Y62489D01*
X471627Y61071D01*
X473479Y60304D01*
X475484D01*
X477337Y61071D01*
X478755Y62489D01*
X479522Y64341D01*
Y66346D01*
X478755Y68199D01*
X477337Y69616D01*
X475484Y70384D01*
D02*
G37*
G36*
X564267Y81030D02*
X561353D01*
X558496Y80462D01*
X555804Y79347D01*
X553382Y77728D01*
X551322Y75668D01*
X549703Y73246D01*
X548588Y70554D01*
X548020Y67697D01*
Y64783D01*
X548588Y61926D01*
X549703Y59234D01*
X551322Y56812D01*
X553382Y54752D01*
X555804Y53133D01*
X558496Y52018D01*
X561353Y51450D01*
X564267D01*
X567124Y52018D01*
X569816Y53133D01*
X572238Y54752D01*
X574298Y56812D01*
X575917Y59234D01*
X577032Y61926D01*
X577600Y64783D01*
Y67697D01*
X577032Y70554D01*
X575917Y73246D01*
X574298Y75668D01*
X572238Y77728D01*
X569816Y79347D01*
X567124Y80462D01*
X564267Y81030D01*
D02*
G37*
G36*
X513267D02*
X510353D01*
X507496Y80462D01*
X504804Y79347D01*
X502382Y77728D01*
X500322Y75668D01*
X498703Y73246D01*
X497588Y70554D01*
X497020Y67697D01*
Y64783D01*
X497588Y61926D01*
X498703Y59234D01*
X500322Y56812D01*
X502382Y54752D01*
X504804Y53133D01*
X507496Y52018D01*
X510353Y51450D01*
X513267D01*
X516124Y52018D01*
X518816Y53133D01*
X521238Y54752D01*
X523298Y56812D01*
X524917Y59234D01*
X526032Y61926D01*
X526600Y64783D01*
Y67697D01*
X526032Y70554D01*
X524917Y73246D01*
X523298Y75668D01*
X521238Y77728D01*
X518816Y79347D01*
X516124Y80462D01*
X513267Y81030D01*
D02*
G37*
G36*
X465324Y61494D02*
X463319D01*
X461467Y60726D01*
X460049Y59309D01*
X459282Y57456D01*
Y55451D01*
X460049Y53599D01*
X461467Y52181D01*
X463319Y51414D01*
X465324D01*
X467177Y52181D01*
X468595Y53599D01*
X469362Y55451D01*
Y57456D01*
X468595Y59309D01*
X467177Y60726D01*
X465324Y61494D01*
D02*
G37*
G36*
X420757Y80830D02*
X417843D01*
X414986Y80262D01*
X412294Y79147D01*
X409872Y77528D01*
X407812Y75468D01*
X406193Y73046D01*
X405078Y70354D01*
X404510Y67497D01*
Y64583D01*
X405078Y61726D01*
X406193Y59034D01*
X407812Y56612D01*
X409872Y54552D01*
X412294Y52933D01*
X414986Y51818D01*
X417843Y51250D01*
X420757D01*
X423614Y51818D01*
X426306Y52933D01*
X428728Y54552D01*
X430788Y56612D01*
X432407Y59034D01*
X433522Y61726D01*
X434090Y64583D01*
Y67497D01*
X433522Y70354D01*
X432407Y73046D01*
X430788Y75468D01*
X428728Y77528D01*
X426306Y79147D01*
X423614Y80262D01*
X420757Y80830D01*
D02*
G37*
G36*
X369757D02*
X366843D01*
X363986Y80262D01*
X361294Y79147D01*
X358872Y77528D01*
X356812Y75468D01*
X355193Y73046D01*
X354078Y70354D01*
X353510Y67497D01*
Y64583D01*
X354078Y61726D01*
X355193Y59034D01*
X356812Y56612D01*
X358872Y54552D01*
X361294Y52933D01*
X363986Y51818D01*
X366843Y51250D01*
X369757D01*
X372614Y51818D01*
X375306Y52933D01*
X377728Y54552D01*
X379788Y56612D01*
X381407Y59034D01*
X382522Y61726D01*
X383090Y64583D01*
Y67497D01*
X382522Y70354D01*
X381407Y73046D01*
X379788Y75468D01*
X377728Y77528D01*
X375306Y79147D01*
X372614Y80262D01*
X369757Y80830D01*
D02*
G37*
G36*
X455662Y52030D02*
X453657D01*
X451805Y51263D01*
X450387Y49845D01*
X449620Y47993D01*
Y45988D01*
X450387Y44135D01*
X451805Y42717D01*
X453657Y41950D01*
X455662D01*
X457515Y42717D01*
X458933Y44135D01*
X459700Y45988D01*
Y47993D01*
X458933Y49845D01*
X457515Y51263D01*
X455662Y52030D01*
D02*
G37*
G36*
X445503Y43140D02*
X443498D01*
X441645Y42373D01*
X440227Y40955D01*
X439460Y39102D01*
Y37097D01*
X440227Y35245D01*
X441645Y33827D01*
X443498Y33060D01*
X445503D01*
X447355Y33827D01*
X448773Y35245D01*
X449540Y37097D01*
Y39102D01*
X448773Y40955D01*
X447355Y42373D01*
X445503Y43140D01*
D02*
G37*
G36*
X551350Y54780D02*
X523270D01*
Y26700D01*
X551350D01*
Y54780D01*
D02*
G37*
G36*
X407840Y54580D02*
X379760D01*
Y26500D01*
X407840D01*
Y54580D01*
D02*
G37*
G36*
X732977Y44000D02*
X730063D01*
X727206Y43432D01*
X724514Y42317D01*
X722092Y40698D01*
X720032Y38638D01*
X718413Y36216D01*
X717298Y33524D01*
X716730Y30667D01*
Y27753D01*
X717298Y24896D01*
X718413Y22204D01*
X720032Y19782D01*
X722092Y17722D01*
X724514Y16103D01*
X727206Y14988D01*
X730063Y14420D01*
X732977D01*
X735834Y14988D01*
X738526Y16103D01*
X740948Y17722D01*
X743008Y19782D01*
X744627Y22204D01*
X745742Y24896D01*
X746310Y27753D01*
Y30667D01*
X745742Y33524D01*
X744627Y36216D01*
X743008Y38638D01*
X740948Y40698D01*
X738526Y42317D01*
X735834Y43432D01*
X732977Y44000D01*
D02*
G37*
%LPD*%
D12*
X451450Y499110D02*
X464150Y511810D01*
X451450Y473710D02*
Y499110D01*
X438750Y461010D02*
X451450Y473710D01*
X210150Y511810D02*
X222850Y499110D01*
Y473710D02*
Y499110D01*
Y473710D02*
X235550Y461010D01*
X223430Y448890D02*
X235550Y461010D01*
X223430Y371530D02*
Y448890D01*
Y371530D02*
X235550Y359410D01*
X222850Y346710D02*
X235550Y359410D01*
X222850Y321310D02*
Y346710D01*
X210150Y308610D02*
X222850Y321310D01*
X210150Y308610D02*
X222270Y296490D01*
Y170160D02*
Y296490D01*
Y170160D02*
X226060Y166370D01*
X438750Y461010D02*
X450870Y448890D01*
Y371530D02*
Y448890D01*
X438750Y359410D02*
X450870Y371530D01*
X438750Y359410D02*
X451450Y346710D01*
Y321310D02*
Y346710D01*
Y321310D02*
X464150Y308610D01*
X450870Y295330D02*
X464150Y308610D01*
X450870Y187980D02*
Y295330D01*
X435610Y172720D02*
X450870Y187980D01*
D20*
X368300Y15040D02*
D03*
Y66040D02*
D03*
X419300Y15040D02*
D03*
Y66040D02*
D03*
X511810Y15240D02*
D03*
Y66240D02*
D03*
X562810Y15240D02*
D03*
Y66240D02*
D03*
X731520Y29210D02*
D03*
X679450Y737870D02*
D03*
X613410D02*
D03*
X665480Y29210D02*
D03*
D21*
X393800Y40540D02*
D03*
X537310Y40740D02*
D03*
D29*
X413350Y435610D02*
D03*
Y410210D02*
D03*
Y384810D02*
D03*
X210150Y537210D02*
D03*
X235550D02*
D03*
X260950D02*
D03*
X286350D02*
D03*
X311750D02*
D03*
X337150D02*
D03*
X362550D02*
D03*
X387950D02*
D03*
X413350D02*
D03*
X438750D02*
D03*
X210150Y511810D02*
D03*
X235550D02*
D03*
X260950D02*
D03*
X286350D02*
D03*
X311750D02*
D03*
X337150D02*
D03*
X362550D02*
D03*
X387950D02*
D03*
X413350D02*
D03*
X438750D02*
D03*
X210150Y486410D02*
D03*
X235550D02*
D03*
X311750D02*
D03*
X337150D02*
D03*
X362550D02*
D03*
X438750D02*
D03*
X210150Y461010D02*
D03*
X235550D02*
D03*
X438750D02*
D03*
X210150Y435610D02*
D03*
X235550D02*
D03*
X260950D02*
D03*
X438750D02*
D03*
X210150Y410210D02*
D03*
X235550D02*
D03*
X260950D02*
D03*
X438750D02*
D03*
X210150Y384810D02*
D03*
X235550D02*
D03*
X260950D02*
D03*
X438750D02*
D03*
X210150Y359410D02*
D03*
X235550D02*
D03*
X438750D02*
D03*
X210150Y334010D02*
D03*
X235550D02*
D03*
X311750D02*
D03*
X337150D02*
D03*
X362550D02*
D03*
X438750D02*
D03*
X210150Y308610D02*
D03*
X235550D02*
D03*
X260950D02*
D03*
X286350D02*
D03*
X311750D02*
D03*
X337150D02*
D03*
X362550D02*
D03*
X387950D02*
D03*
X413350D02*
D03*
X438750D02*
D03*
X464150Y537210D02*
D03*
Y511810D02*
D03*
Y486410D02*
D03*
Y461010D02*
D03*
Y435610D02*
D03*
Y410210D02*
D03*
Y384810D02*
D03*
Y359410D02*
D03*
Y334010D02*
D03*
Y308610D02*
D03*
X210150Y283210D02*
D03*
X235550D02*
D03*
X260950D02*
D03*
X286350D02*
D03*
X311750D02*
D03*
X438750D02*
D03*
X413350D02*
D03*
X387950D02*
D03*
X362550D02*
D03*
X337150D02*
D03*
D30*
X159150Y537210D02*
D03*
Y283210D02*
D03*
X565150Y537210D02*
D03*
Y283210D02*
D03*
D31*
X464150D02*
D03*
D32*
X174390Y687070D02*
D03*
X224390D02*
D03*
X199390D02*
D03*
D33*
X249390D02*
D03*
D35*
X33020Y749300D02*
D03*
X31750Y31750D02*
D03*
X811530Y33020D02*
D03*
Y750570D02*
D03*
D36*
X527181Y376947D02*
D03*
Y364247D02*
D03*
Y351547D02*
D03*
X528451Y288047D02*
D03*
X527050Y242570D02*
D03*
Y214630D02*
D03*
X482600Y73660D02*
D03*
X451622Y75504D02*
D03*
X441462Y66614D02*
D03*
X474482Y65344D02*
D03*
X464322Y56454D02*
D03*
X749300Y83820D02*
D03*
X214630Y92670D02*
D03*
X767080Y88900D02*
D03*
X237490Y97790D02*
D03*
X792480D02*
D03*
X826770Y105410D02*
D03*
X399782Y105370D02*
D03*
X444500Y38100D02*
D03*
X454660Y46990D02*
D03*
X511810Y148590D02*
D03*
X491490Y121920D02*
D03*
X547370Y398780D02*
D03*
X520700D02*
D03*
X508000D02*
D03*
X495300D02*
D03*
X482600D02*
D03*
X483870Y375920D02*
D03*
X494030Y365760D02*
D03*
X504190Y355600D02*
D03*
X524510Y123190D02*
D03*
X548640D02*
D03*
X511810Y121920D02*
D03*
X494030Y148590D02*
D03*
X524510Y143510D02*
D03*
X548640D02*
D03*
Y153670D02*
D03*
X491490Y242570D02*
D03*
Y226060D02*
D03*
Y214630D02*
D03*
X514350D02*
D03*
Y226060D02*
D03*
X515620Y242570D02*
D03*
X527050Y226060D02*
D03*
X547370Y214630D02*
D03*
Y226060D02*
D03*
Y242570D02*
D03*
X546100Y288290D02*
D03*
X539870Y408775D02*
D03*
X547501Y376947D02*
D03*
Y364247D02*
D03*
Y351547D02*
D03*
X180340Y368300D02*
D03*
X196850Y107950D02*
D03*
X777240Y114300D02*
D03*
X388620Y586740D02*
D03*
X414020Y621030D02*
D03*
X302593Y584603D02*
D03*
X450850Y661670D02*
D03*
X590868Y570230D02*
D03*
X619760Y571500D02*
D03*
X496570Y631190D02*
D03*
X579120Y508000D02*
D03*
X562610Y584409D02*
D03*
X537210Y570230D02*
D03*
X349250Y562610D02*
D03*
X496570Y514350D02*
D03*
X362550Y609987D02*
D03*
X671830Y271780D02*
D03*
X494030Y422910D02*
D03*
X491490Y445770D02*
D03*
X618490Y431800D02*
D03*
Y229870D02*
D03*
X717550Y257810D02*
D03*
X706120Y303530D02*
D03*
X662940Y386080D02*
D03*
X640080Y411480D02*
D03*
Y297180D02*
D03*
X661670Y320040D02*
D03*
X415290Y133350D02*
D03*
X812800Y132080D02*
D03*
X687070Y369570D02*
D03*
X685800Y196850D02*
D03*
X363220Y195580D02*
D03*
X731520Y331470D02*
D03*
Y179070D02*
D03*
X387350D02*
D03*
X706120Y158750D02*
D03*
X463550Y160020D02*
D03*
D37*
X777240Y660400D02*
D03*
X802640D02*
D03*
X777240Y635000D02*
D03*
X802640D02*
D03*
X777240Y609600D02*
D03*
X802640D02*
D03*
X777240Y584200D02*
D03*
X802640D02*
D03*
X777240Y558800D02*
D03*
X802640D02*
D03*
X777240Y533400D02*
D03*
X802640D02*
D03*
X777240Y508000D02*
D03*
X802640D02*
D03*
X777240Y482600D02*
D03*
X802640D02*
D03*
X777240Y457200D02*
D03*
X802640D02*
D03*
X777240Y431800D02*
D03*
X802640D02*
D03*
X777240Y406400D02*
D03*
X802640D02*
D03*
X777240Y381000D02*
D03*
X802640D02*
D03*
X777240Y355600D02*
D03*
X802640D02*
D03*
X777240Y330200D02*
D03*
X802640D02*
D03*
X777240Y304800D02*
D03*
X802640D02*
D03*
X777240Y279400D02*
D03*
X802640D02*
D03*
X777240Y254000D02*
D03*
X802640D02*
D03*
X777240Y228600D02*
D03*
X802640D02*
D03*
X777240Y203200D02*
D03*
X802640D02*
D03*
X777240Y177800D02*
D03*
X802640D02*
D03*
M02*
