M48
;Layer_Color=9474304
;FILE_FORMAT=4:4
METRIC,LZ
;TYPE=PLATED
T01F00S00C0.2000
T02F00S00C0.4000
T04F00S00C0.7800
T05F00S00C0.8000
T07F00S00C0.9000
T08F00S00C1.0922
T09F00S00C1.5000
T10F00S00C1.6000
T11F00S00C3.5000
%
T01
X00015767Y00139254
Y00152883
Y00166512
Y00180141
Y00193771
Y002074
X0016637Y00176517
X0018288Y0018796
X0016002Y00127
X0016764Y0011811
X0017653Y0010922
X00158067Y00105287
X0014732Y0010287
X001397Y0009525
X0012954Y0010287
X0013716Y0011049
X0012065Y0009398
X0016637Y0009652
X0017399Y000889
X0018161Y0008128
X0018923Y0007366
X0019685Y0006604
X0020701Y0005715
X00214443Y00048107
X0021844Y0006858
X0020955Y000762
X0020066Y0008509
X0019304Y0009271
X0018542Y0010033
X0040513Y0007874
Y0006858
Y0005842
X0046355
Y0006858
Y0007874
X0052324
Y0006858
Y0005842
X0051181Y000127
X0045212
X005715
X0058293Y0005842
Y0006858
Y0007874
X0064135
Y0006858
Y0005842
X0063119Y000127
X0068961
X0069977Y0005842
Y0006858
Y0007874
X0075946
Y0006858
Y0005842
X0074676Y000127
X0080772
X008636
X0090551Y0005842
Y0006858
Y0007874
X0092329Y0008763
X0096774Y0007874
Y0006858
Y0005842
X0081915
Y0006858
Y0007874
X00992886Y002159
X0098679Y0051943
Y0053086
Y0054229
X0097536
Y0053086
Y0051943
X0096393
X0095377
Y0053086
X0096393
Y0054229
X0095377
X0091313Y0056134
X009017
X0089027
Y0057404
X009017
X0091313
Y0059182
X0090297
Y0060325
X0091313
X0092329
X00933027
X00942763
X009525
Y0061468
X00942763
X00933027
X0092329
X0091313
X0090297
X0087249Y005969
X0086106
X008509
Y0058674
X0084074
Y0057658
X008509
Y0056642
X0083816Y0054599
X00826814Y00544278
X0083693Y0052324
X00836426Y00512612
X00809244Y00512064
X00804781Y00502357
X00795334Y00495947
X00795782Y005232
X00788225Y00517652
X007747Y00518454
X0076327Y0051943
X0076073Y0053086
X0076835
Y0053848
Y005461
X0076073
Y0055372
Y0053848
X0074803Y0053721
Y0052705
Y0054737
X0078105Y005461
Y0053848
Y0053086
X00793496Y00538016
X00794258Y0054864
X0078867Y0059182
X00803333Y00592083
X0077851Y0060198
X0083185Y0058166
X00888402Y00527722
X00895814Y00498646
X00874978Y00504138
X0086995Y0046101
X00862076Y00444246
X0084455Y0043053
X0084328Y0041656
X0081153Y0042799
X00802894Y00407924
X0075705Y00484041
X00735375Y00477475
X00724548Y0048768
X0073025Y00509983
X00717377Y00512774
X00703927Y00510921
X00690533Y00531099
X0067437Y0052578
X0066675Y0053848
X0068199Y0054737
X0070104Y005455
X00695408Y0055499
X0070485Y005588
X0071501
X0071628Y00571754
X00726948Y00567309
X0068961Y0056261
X0068453Y0049403
X0070993Y0046482
X005969Y0048641
X0062357Y0055118
X005842Y0061341
X00636488Y00402273
X0091821Y004318
X00945174Y00436967
X0095377Y004318
X009779Y0040894
X0091948Y0046736
X00887374Y0027051
X0091059Y0024511
X0044958Y0025273
X0054823Y0038862
X005334Y004826
Y0049276
X0050038
X0048514Y0049784
X0046736
X0038989Y004826
X0027559Y0050292
X0024765Y00527304
X0023622Y0051816
X0019431Y00517442
X0019939Y00508
X00201789Y00496356
X002032Y0048641
X0019558Y0047498
X00194546Y00462133
X0020828Y0047117
X0019304Y0043942
X0020447Y0042164
X002159Y0042418
X0019558Y0039751
X00191489Y0037771
X00197358Y00341416
X0019872Y0031369
X00201504Y00286176
X0019935Y00528868
X0019812Y0057277
X0018923
X00201716Y0058039
X00193881Y0060381
X0025759Y00603649
X00268915Y00583255
X0028067Y0058547
X00302955Y00586165
X00294722Y00603464
X0031369Y0061595
X00244039Y00579057
X0023368Y0057912
X00253973Y00549415
X005334Y005334
X0056388Y0061341
X0057404
X00162624Y00614362
X00153797Y00599694
X00142621Y00592836
X0014097Y0058293
X00131318Y0059731
X00082498Y00606044
X00053086Y00594614
X00015767Y00589019
Y0057539
Y00561761
Y00548131
Y00534502
Y00520873
Y00507244
Y00493615
Y00479985
Y00466356
Y00452727
Y00439097
Y00425468
Y00411839
Y00398209
Y0038458
Y00370951
Y00357322
Y00343693
Y00330063
Y00316434
Y00302805
Y00289175
Y00275546
Y00261917
Y00248288
Y00234658
Y00221029
X0014097Y0025654
X00144212Y00267268
X00155154Y0028702
Y0029718
Y0030734
X00149031Y00342126
X0014859Y0035687
X0016002Y0037973
X0016159Y0041671
X0018288Y004445
X0015621Y0048387
Y0049403
X00153416Y00542036
X0010795Y0055118
X00105333Y00521593
X00097917Y0050617
X0008128Y0050927
X00082042Y0052197
X00106625Y00466792
X0009906Y0045593
X00103632Y0042799
X00097028Y0041671
X0009525Y00381
X0010541Y0034925
X00177428Y00348878
X00028702Y00396875
X00015767Y00602649
Y00616278
Y00629907
Y00643537
Y00657166
Y00670795
Y00684424
Y00698054
X0010668Y0065786
X0010541Y0063627
X0009525Y0061976
X00136873Y0062331
X0016133Y00627723
X0012065Y0076835
X0018669Y0074803
Y0070358
X00203213Y0071165
X0022606Y007112
X0024384Y0071628
X00246143Y00708288
X0026289Y0070231
X0027432Y0070358
X0029972Y006858
X00314505Y00659627
X0034671Y0065913
Y006858
Y0071501
X0034544Y0073406
X0032766Y0072263
X0036703Y0071374
X0038354Y0072517
X00405763Y00725275
X00392942Y00743462
X00399091Y00757231
X0041529Y0074803
X0045085Y0074041
X0047117Y0075565
X0049403Y0074041
X0046355Y0065151
X0056388Y0062611
X0057404
X0038227Y007747
X0028575Y0074803
X0026797Y0074295
X0022098Y0073279
X0022733Y0067691
X00220853Y00665028
X00230759Y00656804
X0020955Y0065786
X00198628Y00661162
X00197906Y0067415
X00187442Y00642437
X0019304Y00633017
X00203607Y00629692
X0024892Y0066294
X005842Y0062611
X0059436
X0060452
X0060198Y00703834
X00613743Y00698833
X00629158Y00693928
X00648673Y00685292
X00648208Y00744728
X0065659Y0075692
X00662033Y0077216
X00650966
X00639899
X00628831
X00617764
X00606697
X0059563
X00602742Y00743966
X00613743Y00744303
X0062611Y00744728
X006731Y0077216
X0072517Y0076454
X0076073Y0074295
X0077216
X0078359
X0079502
X0080645
X0079502Y0067564
Y0066675
Y0065786
Y006477
X0077216
Y0065659
Y0066675
Y0067564
X0073533Y0067691
X007239Y0068199
X00712252Y00712252
X0083947Y0068834
X0088392Y0071628
X0090424
X0090297Y0063627
X0091313
X0091287Y0062529
X0090271
X0092329Y0062484
X00933027
X00942763
X009525
T02
X0075384Y0069127
X0076234
X0077084
X0077934
X0078784
X0079634
X0080484
X0081334
Y0070477
X0080484
X0079634
X0078784
X0077934
X0077084
X0076234
X0075384
T04
X0022606Y0014351
Y0016891
X0083566
Y0019431
Y0021971
Y0014351
Y0024511
Y0027051
Y0029591
Y0032131
Y0034671
Y0037211
X0022606
Y0034671
T05
X0032639Y0048641
Y0051181
Y0053721
Y0056261
Y0058801
Y0061341
X0040259
Y0058801
Y0056261
Y0053721
Y0051181
Y0048641
T07
X0102997Y0009946
Y0012446
Y0014946
Y0017446
Y0023027
Y0025527
Y0028027
Y0030527
X0102997Y0036743
Y0039243
Y0041743
Y0044243
Y0046743
Y0049243
Y0055706
Y0058206
Y0060706
Y0063206
Y0065706
Y0068206
T08
X0003937Y0017907
Y0020447
X0006477
Y0017907
Y0022987
Y0025527
Y0028067
Y0030607
Y0033147
Y0035687
Y0038227
Y0040767
Y0043307
Y0045847
Y0048387
Y0050927
Y0053467
Y0056007
Y0058547
Y0061087
X0003937
Y0058547
Y0056007
Y0053467
Y0050927
Y0048387
Y0045847
Y0043307
Y0040767
Y0038227
Y0035687
Y0033147
Y0030607
Y0028067
Y0025527
Y0022987
Y0063627
Y0066167
X0006477
Y0063627
T09
X0012827Y0004064
X0027051
T10
X0010277Y0001514
Y0006614
X0015377
Y0001514
X0024501
Y0006614
X0029601
Y0001514
X0096393Y0075565
X0102743
T11
X0003302Y0003302
X0109474
X0003302Y007493
X0109474
M30
