G04*
G04 #@! TF.GenerationSoftware,Altium Limited,Altium Designer,25.4.2 (15)*
G04*
G04 Layer_Color=128*
%FSLAX44Y44*%
%MOMM*%
G71*
G04*
G04 #@! TF.SameCoordinates,F718CCC6-B2C0-4064-A14D-7761564938EA*
G04*
G04*
G04 #@! TF.FilePolarity,Positive*
G04*
G01*
G75*
%ADD17C,0.1270*%
D17*
X1025470Y682060D02*
X1034470D01*
X1029970Y677560D02*
Y686560D01*
X1025470Y657060D02*
X1034470D01*
X1029970Y652560D02*
Y661560D01*
X1025470Y632060D02*
X1034470D01*
X1029970Y627560D02*
Y636560D01*
X1025470Y607060D02*
X1034470D01*
X1029970Y602560D02*
Y611560D01*
X1025470Y582060D02*
X1034470D01*
X1029970Y577560D02*
Y586560D01*
X1025470Y557060D02*
X1034470D01*
X1029970Y552560D02*
Y561560D01*
X1025470Y492430D02*
X1034470D01*
X1029970Y487930D02*
Y496930D01*
X1025470Y467430D02*
X1034470D01*
X1029970Y462930D02*
Y471930D01*
X1025470Y442430D02*
X1034470D01*
X1029970Y437930D02*
Y446930D01*
X1025470Y417430D02*
X1034470D01*
X1029970Y412930D02*
Y421930D01*
X1025470Y392430D02*
X1034470D01*
X1029970Y387930D02*
Y396930D01*
X1025470Y367430D02*
X1034470D01*
X1029970Y362930D02*
Y371930D01*
X1025470Y305270D02*
X1034470D01*
X1029970Y300770D02*
Y309770D01*
X1025470Y255270D02*
X1034470D01*
X1029970Y250770D02*
Y259770D01*
X1025470Y230270D02*
X1034470D01*
X1029970Y225770D02*
Y234770D01*
X1025470Y280270D02*
X1034470D01*
X1029970Y275770D02*
Y284770D01*
X1025470Y174460D02*
X1034470D01*
X1029970Y169960D02*
Y178960D01*
X1025470Y124460D02*
X1034470D01*
X1029970Y119960D02*
Y128960D01*
X1025470Y99460D02*
X1034470D01*
X1029970Y94960D02*
Y103960D01*
X1025470Y149460D02*
X1034470D01*
X1029970Y144960D02*
Y153960D01*
X811340Y704770D02*
X815340D01*
X813340Y702770D02*
Y706770D01*
X802840Y704770D02*
X806840D01*
X804840Y702770D02*
Y706770D01*
X794340Y704770D02*
X798340D01*
X796340Y702770D02*
Y706770D01*
X785840Y704770D02*
X789840D01*
X787840Y702770D02*
Y706770D01*
X777340Y704770D02*
X781340D01*
X779340Y702770D02*
Y706770D01*
X768840Y704770D02*
X772840D01*
X770840Y702770D02*
Y706770D01*
X760340Y704770D02*
X764340D01*
X762340Y702770D02*
Y706770D01*
X751840Y704770D02*
X755840D01*
X753840Y702770D02*
Y706770D01*
X751840Y691270D02*
X755840D01*
X753840Y689270D02*
Y693270D01*
X760340Y691270D02*
X764340D01*
X762340Y689270D02*
Y693270D01*
X768840Y691270D02*
X772840D01*
X770840Y689270D02*
Y693270D01*
X777340Y691270D02*
X781340D01*
X779340Y689270D02*
Y693270D01*
X785840Y691270D02*
X789840D01*
X787840Y689270D02*
Y693270D01*
X794340Y691270D02*
X798340D01*
X796340Y689270D02*
Y693270D01*
X802840Y691270D02*
X806840D01*
X804840Y689270D02*
Y693270D01*
X811340Y691270D02*
X815340D01*
X813340Y689270D02*
Y693270D01*
X729840Y701070D02*
X750840D01*
X740340Y690570D02*
Y711570D01*
X816340Y701070D02*
X837340D01*
X826840Y690570D02*
Y711570D01*
X733340Y734870D02*
X747340D01*
X740340Y727870D02*
Y741870D01*
X819840Y734870D02*
X833840D01*
X826840Y727870D02*
Y741870D01*
X468370Y674323D02*
X476370D01*
X472370Y670323D02*
Y678323D01*
X520370Y674323D02*
X528370D01*
X524370Y670323D02*
Y678323D01*
X434370Y674323D02*
X442370D01*
X438370Y670323D02*
Y678323D01*
X529370Y747322D02*
X537370D01*
X533370Y743322D02*
Y751322D01*
X430370Y747322D02*
X438370D01*
X434370Y743322D02*
Y751322D01*
X33909Y661670D02*
X44831D01*
X39370Y656209D02*
Y667131D01*
X59309Y661670D02*
X70231D01*
X64770Y656209D02*
Y667131D01*
X33909Y636270D02*
X44831D01*
X39370Y630809D02*
Y641731D01*
X59309Y636270D02*
X70231D01*
X64770Y630809D02*
Y641731D01*
X33909Y610870D02*
X44831D01*
X39370Y605409D02*
Y616331D01*
X59309Y610870D02*
X70231D01*
X64770Y605409D02*
Y616331D01*
X33909Y585470D02*
X44831D01*
X39370Y580009D02*
Y590931D01*
X59309Y585470D02*
X70231D01*
X64770Y580009D02*
Y590931D01*
X33909Y560070D02*
X44831D01*
X39370Y554609D02*
Y565531D01*
X59309Y560070D02*
X70231D01*
X64770Y554609D02*
Y565531D01*
X33909Y534670D02*
X44831D01*
X39370Y529209D02*
Y540131D01*
X59309Y534670D02*
X70231D01*
X64770Y529209D02*
Y540131D01*
X33909Y509270D02*
X44831D01*
X39370Y503809D02*
Y514731D01*
X59309Y509270D02*
X70231D01*
X64770Y503809D02*
Y514731D01*
X33909Y483870D02*
X44831D01*
X39370Y478409D02*
Y489331D01*
X59309Y483870D02*
X70231D01*
X64770Y478409D02*
Y489331D01*
X33909Y458470D02*
X44831D01*
X39370Y453009D02*
Y463931D01*
X59309Y458470D02*
X70231D01*
X64770Y453009D02*
Y463931D01*
X33909Y433070D02*
X44831D01*
X39370Y427609D02*
Y438531D01*
X59309Y433070D02*
X70231D01*
X64770Y427609D02*
Y438531D01*
X33909Y407670D02*
X44831D01*
X39370Y402209D02*
Y413131D01*
X59309Y407670D02*
X70231D01*
X64770Y402209D02*
Y413131D01*
X33909Y382270D02*
X44831D01*
X39370Y376809D02*
Y387731D01*
X59309Y382270D02*
X70231D01*
X64770Y376809D02*
Y387731D01*
X33909Y356870D02*
X44831D01*
X39370Y351409D02*
Y362331D01*
X59309Y356870D02*
X70231D01*
X64770Y351409D02*
Y362331D01*
X33909Y331470D02*
X44831D01*
X39370Y326009D02*
Y336931D01*
X59309Y331470D02*
X70231D01*
X64770Y326009D02*
Y336931D01*
X33909Y306070D02*
X44831D01*
X39370Y300609D02*
Y311531D01*
X59309Y306070D02*
X70231D01*
X64770Y300609D02*
Y311531D01*
X33909Y280670D02*
X44831D01*
X39370Y275209D02*
Y286131D01*
X59309Y280670D02*
X70231D01*
X64770Y275209D02*
Y286131D01*
X33909Y255270D02*
X44831D01*
X39370Y249809D02*
Y260731D01*
X59309Y255270D02*
X70231D01*
X64770Y249809D02*
Y260731D01*
X33909Y229870D02*
X44831D01*
X39370Y224409D02*
Y235331D01*
X59309Y229870D02*
X70231D01*
X64770Y224409D02*
Y235331D01*
X33909Y204470D02*
X44831D01*
X39370Y199009D02*
Y209931D01*
X59309Y204470D02*
X70231D01*
X64770Y199009D02*
Y209931D01*
X33909Y179070D02*
X44831D01*
X39370Y173609D02*
Y184531D01*
X59309Y179070D02*
X70231D01*
X64770Y173609D02*
Y184531D01*
X94770Y15140D02*
X110770D01*
X102770Y7140D02*
Y23140D01*
X94770Y66140D02*
X110770D01*
X102770Y58140D02*
Y74140D01*
X145770Y15140D02*
X161770D01*
X153770Y7140D02*
Y23140D01*
X145770Y66140D02*
X161770D01*
X153770Y58140D02*
Y74140D01*
X120770Y40640D02*
X135770D01*
X128270Y33140D02*
Y48140D01*
X237010Y15140D02*
X253010D01*
X245010Y7140D02*
Y23140D01*
X237010Y66140D02*
X253010D01*
X245010Y58140D02*
Y74140D01*
X288010Y15140D02*
X304010D01*
X296010Y7140D02*
Y23140D01*
X288010Y66140D02*
X304010D01*
X296010Y58140D02*
Y74140D01*
X263010Y40640D02*
X278010D01*
X270510Y33140D02*
Y48140D01*
X1019430Y755650D02*
X1035430D01*
X1027430Y747650D02*
Y763650D01*
X955930Y755650D02*
X971930D01*
X963930Y747650D02*
Y763650D01*
X15520Y749300D02*
X50520D01*
X33020Y731800D02*
Y766800D01*
X1077240Y749300D02*
X1112240D01*
X1094740Y731800D02*
Y766800D01*
X15520Y33020D02*
X50520D01*
X33020Y15520D02*
Y50520D01*
X1077240Y33020D02*
X1112240D01*
X1094740Y15520D02*
Y50520D01*
X322390Y613410D02*
X330390D01*
X326390Y609410D02*
Y617410D01*
X398590Y613410D02*
X406590D01*
X402590Y609410D02*
Y617410D01*
X322390Y588010D02*
X330390D01*
X326390Y584010D02*
Y592010D01*
X398590Y588010D02*
X406590D01*
X402590Y584010D02*
Y592010D01*
X322390Y562610D02*
X330390D01*
X326390Y558610D02*
Y566610D01*
X398590Y562610D02*
X406590D01*
X402590Y558610D02*
Y566610D01*
X398590Y537210D02*
X406590D01*
X402590Y533210D02*
Y541210D01*
X322390Y537210D02*
X330390D01*
X326390Y533210D02*
Y541210D01*
X322390Y511810D02*
X330390D01*
X326390Y507810D02*
Y515810D01*
X398590Y511810D02*
X406590D01*
X402590Y507810D02*
Y515810D01*
X322390Y486410D02*
X330390D01*
X326390Y482410D02*
Y490410D01*
X398590Y486410D02*
X406590D01*
X402590Y482410D02*
Y490410D01*
X831760Y194310D02*
X839560D01*
X835660Y190410D02*
Y198210D01*
X831760Y219710D02*
X839560D01*
X835660Y215810D02*
Y223610D01*
X831760Y245110D02*
X839560D01*
X835660Y241210D02*
Y249010D01*
X831760Y270510D02*
X839560D01*
X835660Y266610D02*
Y274410D01*
X831760Y295910D02*
X839560D01*
X835660Y292010D02*
Y299810D01*
X831760Y321310D02*
X839560D01*
X835660Y317410D02*
Y325210D01*
X831760Y346710D02*
X839560D01*
X835660Y342810D02*
Y350610D01*
X222160Y372110D02*
X229960D01*
X226060Y368210D02*
Y376010D01*
X222160Y346710D02*
X229960D01*
X226060Y342810D02*
Y350610D01*
X222160Y143510D02*
X229960D01*
X226060Y139610D02*
Y147410D01*
X222160Y168910D02*
X229960D01*
X226060Y165010D02*
Y172810D01*
X831760Y372110D02*
X839560D01*
X835660Y368210D02*
Y376010D01*
X831760Y168910D02*
X839560D01*
X835660Y165010D02*
Y172810D01*
X831760Y143510D02*
X839560D01*
X835660Y139610D02*
Y147410D01*
X780050Y546100D02*
X782050D01*
X781050Y545100D02*
Y547100D01*
X780050Y538480D02*
X782050D01*
X781050Y537480D02*
Y539480D01*
X759730Y553720D02*
X761730D01*
X760730Y552720D02*
Y554720D01*
X759730Y546100D02*
X761730D01*
X760730Y545100D02*
Y547100D01*
X767350Y546100D02*
X769350D01*
X768350Y545100D02*
Y547100D01*
X767350Y538480D02*
X769350D01*
X768350Y537480D02*
Y539480D01*
X780050Y530860D02*
X782050D01*
X781050Y529860D02*
Y531860D01*
X792496Y538016D02*
X794496D01*
X793496Y537016D02*
Y539016D01*
X767350Y530860D02*
X769350D01*
X768350Y529860D02*
Y531860D01*
X759730Y530860D02*
X761730D01*
X760730Y529860D02*
Y531860D01*
X759730Y538480D02*
X761730D01*
X760730Y537480D02*
Y539480D01*
X747030Y537210D02*
X749030D01*
X748030Y536210D02*
Y538210D01*
X256590Y603649D02*
X258590D01*
X257590Y602649D02*
Y604649D01*
X267915Y583255D02*
X269915D01*
X268915Y582255D02*
Y584255D01*
X312690Y615950D02*
X314690D01*
X313690Y614950D02*
Y616950D01*
X301955Y586165D02*
X303955D01*
X302955Y585165D02*
Y587165D01*
X803781Y502357D02*
X805781D01*
X804781Y501357D02*
Y503358D01*
X202213Y711650D02*
X204213D01*
X203213Y710650D02*
Y712650D01*
X225060Y711200D02*
X227060D01*
X226060Y710200D02*
Y712200D01*
X245143Y708288D02*
X247143D01*
X246143Y707288D02*
Y709288D01*
X185690Y748030D02*
X187690D01*
X186690Y747030D02*
Y749030D01*
X242840Y716280D02*
X244840D01*
X243840Y715280D02*
Y717280D01*
X261890Y702310D02*
X263890D01*
X262890Y701310D02*
Y703310D01*
X219980Y732790D02*
X221980D01*
X220980Y731790D02*
Y733790D01*
X451120Y12700D02*
X453120D01*
X452120Y11700D02*
Y13700D01*
X510810Y12700D02*
X512810D01*
X511810Y11700D02*
Y13700D01*
X570500Y12700D02*
X572500D01*
X571500Y11700D02*
Y13700D01*
X630190Y12700D02*
X632190D01*
X631190Y11700D02*
Y13700D01*
X688610Y12700D02*
X690610D01*
X689610Y11700D02*
Y13700D01*
X745760Y12700D02*
X747760D01*
X746760Y11700D02*
Y13700D01*
X806720Y12700D02*
X808720D01*
X807720Y11700D02*
Y13700D01*
X862600Y12700D02*
X864600D01*
X863600Y11700D02*
Y13700D01*
X391942Y743462D02*
X393942D01*
X392942Y742462D02*
Y744462D01*
X381270Y774700D02*
X383270D01*
X382270Y773700D02*
Y775700D01*
X724170Y764540D02*
X726170D01*
X725170Y763540D02*
Y765540D01*
X711252Y712252D02*
X713252D01*
X712252Y711252D02*
Y713252D01*
X154154Y287020D02*
X156154D01*
X155154Y286020D02*
Y288020D01*
X154154Y297180D02*
X156154D01*
X155154Y296180D02*
Y298180D01*
X154154Y307340D02*
X156154D01*
X155154Y306340D02*
Y308340D01*
X139970Y256540D02*
X141970D01*
X140970Y255540D02*
Y257540D01*
X143212Y267268D02*
X145212D01*
X144212Y266268D02*
Y268268D01*
X466360Y497840D02*
X468360D01*
X467360Y496840D02*
Y498840D01*
X326660Y722630D02*
X328660D01*
X327660Y721630D02*
Y723630D01*
X266970Y742950D02*
X268970D01*
X267970Y741950D02*
Y743950D01*
X313505Y659627D02*
X315505D01*
X314505Y658627D02*
Y660627D01*
X273320Y703580D02*
X275320D01*
X274320Y702580D02*
Y704580D01*
X886374Y270510D02*
X888373D01*
X887374Y269510D02*
Y271510D01*
X655590Y756920D02*
X657590D01*
X656590Y755920D02*
Y757920D01*
X382540Y725170D02*
X384540D01*
X383540Y724170D02*
Y726170D01*
X605697Y772160D02*
X607697D01*
X606697Y771160D02*
Y773160D01*
X616764Y772160D02*
X618764D01*
X617764Y771160D02*
Y773160D01*
X398091Y757231D02*
X400091D01*
X399091Y756231D02*
Y758231D01*
X612743Y744303D02*
X614743D01*
X613743Y743303D02*
Y745303D01*
X601742Y743966D02*
X603742D01*
X602742Y742966D02*
Y744966D01*
X414290Y748030D02*
X416290D01*
X415290Y747030D02*
Y749030D01*
X470170Y755650D02*
X472170D01*
X471170Y754650D02*
Y756650D01*
X404763Y725275D02*
X406763D01*
X405763Y724275D02*
Y726275D01*
X625110Y744728D02*
X627110D01*
X626110Y743728D02*
Y745728D01*
X647208Y744728D02*
X649208D01*
X648208Y743728D02*
Y745728D01*
X600980Y703834D02*
X602980D01*
X601980Y702834D02*
Y704834D01*
X612743Y698833D02*
X614743D01*
X613743Y697833D02*
Y699833D01*
X628158Y693928D02*
X630158D01*
X629158Y692928D02*
Y694928D01*
X647673Y685292D02*
X649673D01*
X648673Y684292D02*
Y686292D01*
X493030Y740410D02*
X495030D01*
X494030Y739410D02*
Y741410D01*
X252973Y549415D02*
X254973D01*
X253973Y548415D02*
Y550415D01*
X573040Y626110D02*
X575040D01*
X574040Y625110D02*
Y627110D01*
X562880Y626110D02*
X564880D01*
X563880Y625110D02*
Y627110D01*
X583200Y626110D02*
X585200D01*
X584200Y625110D02*
Y627110D01*
X603520Y626110D02*
X605520D01*
X604520Y625110D02*
Y627110D01*
X593360Y626110D02*
X595360D01*
X594360Y625110D02*
Y627110D01*
X802333Y592083D02*
X804333D01*
X803333Y591083D02*
Y593083D01*
X771160Y666750D02*
X773160D01*
X772160Y665750D02*
Y667750D01*
X771160Y675640D02*
X773160D01*
X772160Y674640D02*
Y676640D01*
X794020Y675640D02*
X796020D01*
X795020Y674640D02*
Y676640D01*
X794020Y666750D02*
X796020D01*
X795020Y665750D02*
Y667750D01*
X794020Y647700D02*
X796020D01*
X795020Y646700D02*
Y648700D01*
X794020Y657860D02*
X796020D01*
X795020Y656860D02*
Y658860D01*
X771160Y656590D02*
X773160D01*
X772160Y655590D02*
Y657590D01*
X771160Y647700D02*
X773160D01*
X772160Y646700D02*
Y648700D01*
X793258Y548640D02*
X795258D01*
X794258Y547640D02*
Y549640D01*
X683530Y494030D02*
X685530D01*
X684530Y493030D02*
Y495030D01*
X830850Y581660D02*
X832850D01*
X831850Y580660D02*
Y582660D01*
X181880Y187960D02*
X183880D01*
X182880Y186960D02*
Y188960D01*
X165370Y176517D02*
X167370D01*
X166370Y175517D02*
Y177517D01*
X119650Y93980D02*
X121650D01*
X120650Y92980D02*
Y94980D01*
X128540Y102870D02*
X130540D01*
X129540Y101870D02*
Y103870D01*
X136160Y110490D02*
X138160D01*
X137160Y109490D02*
Y111490D01*
X138700Y95250D02*
X140700D01*
X139700Y94250D02*
Y96250D01*
X146320Y102870D02*
X148320D01*
X147320Y101870D02*
Y103870D01*
X159020Y127000D02*
X161020D01*
X160020Y126000D02*
Y128000D01*
X166640Y118110D02*
X168640D01*
X167640Y117110D02*
Y119110D01*
X157067Y105287D02*
X159067D01*
X158067Y104287D02*
Y106287D01*
X175530Y109220D02*
X177530D01*
X176530Y108220D02*
Y110220D01*
X213443Y48107D02*
X215443D01*
X214443Y47107D02*
Y49107D01*
X206010Y57150D02*
X208010D01*
X207010Y56150D02*
Y58150D01*
X188230Y73660D02*
X190230D01*
X189230Y72660D02*
Y74660D01*
X180610Y81280D02*
X182610D01*
X181610Y80280D02*
Y82280D01*
X172990Y88900D02*
X174990D01*
X173990Y87900D02*
Y89900D01*
X165370Y96520D02*
X167370D01*
X166370Y95520D02*
Y97520D01*
X217440Y68580D02*
X219440D01*
X218440Y67580D02*
Y69580D01*
X208550Y76200D02*
X210550D01*
X209550Y75200D02*
Y77200D01*
X279670Y585470D02*
X281670D01*
X280670Y584470D02*
Y586470D01*
X274590Y502920D02*
X276590D01*
X275590Y501920D02*
Y503920D01*
X284750Y748030D02*
X286750D01*
X285750Y747030D02*
Y749030D01*
X725948Y567309D02*
X727948D01*
X726948Y566309D02*
Y568309D01*
X152416Y542036D02*
X154416D01*
X153416Y541036D02*
Y543036D01*
X952770Y431800D02*
X954770D01*
X953770Y430800D02*
Y432800D01*
X246650Y527304D02*
X248650D01*
X247650Y526304D02*
Y528304D01*
X715280Y571754D02*
X717280D01*
X716280Y570754D02*
Y572754D01*
X922290Y87630D02*
X924290D01*
X923290Y86630D02*
Y88630D01*
X904510Y78740D02*
X906510D01*
X905510Y77740D02*
Y79740D01*
X904510Y68580D02*
X906510D01*
X905510Y67580D02*
Y69580D01*
X195850Y66040D02*
X197850D01*
X196850Y65040D02*
Y67040D01*
X199660Y85090D02*
X201660D01*
X200660Y84090D02*
Y86090D01*
X192040Y92710D02*
X194040D01*
X193040Y91710D02*
Y93710D01*
X184420Y100330D02*
X186420D01*
X185420Y99330D02*
Y101330D01*
X901970Y591820D02*
X903970D01*
X902970Y590820D02*
Y592820D01*
X912130Y591820D02*
X914130D01*
X913130Y590820D02*
Y592820D01*
X901710Y625290D02*
X903710D01*
X902710Y624290D02*
Y626290D01*
X911870Y625290D02*
X913870D01*
X912870Y624290D02*
Y626290D01*
X932027Y624840D02*
X934027D01*
X933027Y623840D02*
Y625840D01*
X922290Y624840D02*
X924290D01*
X923290Y623840D02*
Y625840D01*
X941763Y624840D02*
X943763D01*
X942763Y623840D02*
Y625840D01*
X951500Y624840D02*
X953500D01*
X952500Y623840D02*
Y625840D01*
X922290Y614680D02*
X924290D01*
X923290Y613680D02*
Y615680D01*
X941763Y614680D02*
X943763D01*
X942763Y613680D02*
Y615680D01*
X932027Y614680D02*
X934027D01*
X933027Y613680D02*
Y615680D01*
X912130Y614680D02*
X914130D01*
X913130Y613680D02*
Y615680D01*
X901970Y614680D02*
X903970D01*
X902970Y613680D02*
Y615680D01*
X951500Y614680D02*
X953500D01*
X952500Y613680D02*
Y615680D01*
X573040Y613410D02*
X575040D01*
X574040Y612410D02*
Y614410D01*
X562880Y613410D02*
X564880D01*
X563880Y612410D02*
Y614410D01*
X583200Y613410D02*
X585200D01*
X584200Y612410D02*
Y614410D01*
X951500Y603250D02*
X953500D01*
X952500Y602250D02*
Y604250D01*
X901970Y603250D02*
X903970D01*
X902970Y602250D02*
Y604250D01*
X912130Y603250D02*
X914130D01*
X913130Y602250D02*
Y604250D01*
X932027Y603250D02*
X934027D01*
X933027Y602250D02*
Y604250D01*
X941763Y603250D02*
X943763D01*
X942763Y602250D02*
Y604250D01*
X922290Y603250D02*
X924290D01*
X923290Y602250D02*
Y604250D01*
X901970Y636270D02*
X903970D01*
X902970Y635270D02*
Y637270D01*
X912130Y636270D02*
X914130D01*
X913130Y635270D02*
Y637270D01*
X188230Y572770D02*
X190230D01*
X189230Y571770D02*
Y573770D01*
X197120Y572770D02*
X199120D01*
X198120Y571770D02*
Y573770D01*
X243039Y579057D02*
X245039D01*
X244039Y578057D02*
Y580057D01*
X232680Y579120D02*
X234680D01*
X233680Y578120D02*
Y580120D01*
X894814Y498646D02*
X896814D01*
X895814Y497646D02*
Y499646D01*
X747030Y547370D02*
X749030D01*
X748030Y546370D02*
Y548370D01*
X119650Y768350D02*
X121650D01*
X120650Y767350D02*
Y769350D01*
X366030Y713740D02*
X368030D01*
X367030Y712740D02*
Y714740D01*
X837160Y545990D02*
X839160D01*
X838160Y544990D02*
Y546990D01*
X825814Y544278D02*
X827814D01*
X826814Y543278D02*
Y545278D01*
X873978Y504138D02*
X875978D01*
X874978Y503138D02*
Y505138D01*
X861076Y444246D02*
X863076D01*
X862076Y443246D02*
Y445246D01*
X139970Y582930D02*
X141970D01*
X140970Y581930D02*
Y583930D01*
X141621Y592836D02*
X143621D01*
X142621Y591836D02*
Y593836D01*
X161623Y614362D02*
X163624D01*
X162624Y613363D02*
Y615363D01*
X186442Y642437D02*
X188442D01*
X187442Y641437D02*
Y643437D01*
X843550Y430530D02*
X845550D01*
X844550Y429530D02*
Y431530D01*
X94250Y619760D02*
X96250D01*
X95250Y618760D02*
Y620760D01*
X200716Y580390D02*
X202716D01*
X201716Y579390D02*
Y581390D01*
X192881Y603810D02*
X194881D01*
X193881Y602810D02*
Y604810D01*
X198390Y508000D02*
X200390D01*
X199390Y507000D02*
Y509000D01*
X200789Y496356D02*
X202789D01*
X201789Y495356D02*
Y497356D01*
X193310Y517442D02*
X195310D01*
X194310Y516442D02*
Y518442D01*
X723548Y487680D02*
X725548D01*
X724548Y486680D02*
Y488680D01*
X708930Y464820D02*
X710930D01*
X709930Y463820D02*
Y465820D01*
X716377Y512774D02*
X718377D01*
X717377Y511774D02*
Y513774D01*
X176428Y348878D02*
X178428D01*
X177428Y347878D02*
Y349878D01*
X635488Y402273D02*
X637488D01*
X636488Y401273D02*
Y403274D01*
X202607Y629692D02*
X204607D01*
X203607Y628692D02*
Y630692D01*
X532400Y533400D02*
X534400D01*
X533400Y532400D02*
Y534400D01*
X673370Y525780D02*
X675370D01*
X674370Y524780D02*
Y526780D01*
X293722Y603464D02*
X295722D01*
X294722Y602464D02*
Y604464D01*
X680990Y547370D02*
X682990D01*
X681990Y546370D02*
Y548370D01*
X700040Y545500D02*
X702040D01*
X701040Y544500D02*
Y546500D01*
X689533Y531099D02*
X691533D01*
X690533Y530099D02*
Y532099D01*
X794334Y495947D02*
X796334D01*
X795334Y494947D02*
Y496947D01*
X912130Y574040D02*
X914130D01*
X913130Y573040D02*
Y575040D01*
X900700Y574040D02*
X902700D01*
X901700Y573040D02*
Y575040D01*
X912130Y561340D02*
X914130D01*
X913130Y560340D02*
Y562340D01*
X900700Y561340D02*
X902700D01*
X901700Y560340D02*
Y562340D01*
X889270Y561340D02*
X891270D01*
X890270Y560340D02*
Y562340D01*
X849900Y566420D02*
X851900D01*
X850900Y565420D02*
Y567420D01*
X155210Y483870D02*
X157210D01*
X156210Y482870D02*
Y484870D01*
X155210Y494030D02*
X157210D01*
X156210Y493030D02*
Y495030D01*
X404130Y78740D02*
X406130D01*
X405130Y77740D02*
Y79740D01*
X404130Y58420D02*
X406130D01*
X405130Y57420D02*
Y59420D01*
X404130Y68580D02*
X406130D01*
X405130Y67580D02*
Y69580D01*
X462550Y78740D02*
X464550D01*
X463550Y77740D02*
Y79740D01*
X462550Y58420D02*
X464550D01*
X463550Y57420D02*
Y59420D01*
X462550Y68580D02*
X464550D01*
X463550Y67580D02*
Y69580D01*
X522240Y78740D02*
X524240D01*
X523240Y77740D02*
Y79740D01*
X522240Y58420D02*
X524240D01*
X523240Y57420D02*
Y59420D01*
X522240Y68580D02*
X524240D01*
X523240Y67580D02*
Y69580D01*
X581930Y78740D02*
X583930D01*
X582930Y77740D02*
Y79740D01*
X581930Y58420D02*
X583930D01*
X582930Y57420D02*
Y59420D01*
X581930Y68580D02*
X583930D01*
X582930Y67580D02*
Y69580D01*
X640350Y78740D02*
X642350D01*
X641350Y77740D02*
Y79740D01*
X640350Y58420D02*
X642350D01*
X641350Y57420D02*
Y59420D01*
X640350Y68580D02*
X642350D01*
X641350Y67580D02*
Y69580D01*
X698770Y78740D02*
X700770D01*
X699770Y77740D02*
Y79740D01*
X698770Y58420D02*
X700770D01*
X699770Y57420D02*
Y59420D01*
X698770Y68580D02*
X700770D01*
X699770Y67580D02*
Y69580D01*
X758460Y78740D02*
X760460D01*
X759460Y77740D02*
Y79740D01*
X758460Y58420D02*
X760460D01*
X759460Y57420D02*
Y59420D01*
X758460Y68580D02*
X760460D01*
X759460Y67580D02*
Y69580D01*
X966740Y78740D02*
X968740D01*
X967740Y77740D02*
Y79740D01*
X966740Y58420D02*
X968740D01*
X967740Y57420D02*
Y59420D01*
X966740Y68580D02*
X968740D01*
X967740Y67580D02*
Y69580D01*
X904510Y58420D02*
X906510D01*
X905510Y57420D02*
Y59420D01*
X203470Y421640D02*
X205470D01*
X204470Y420640D02*
Y422640D01*
X104333Y521593D02*
X106333D01*
X105333Y520593D02*
Y522593D01*
X80280Y509270D02*
X82280D01*
X81280Y508270D02*
Y510270D01*
X193546Y462133D02*
X195546D01*
X194546Y461133D02*
Y463133D01*
X160330Y627723D02*
X162330D01*
X161330Y626723D02*
Y628723D01*
X192040Y633017D02*
X194040D01*
X193040Y632017D02*
Y634017D01*
X196906Y674150D02*
X198906D01*
X197906Y673150D02*
Y675150D01*
X202200Y486410D02*
X204200D01*
X203200Y485410D02*
Y487410D01*
X917210Y431800D02*
X919210D01*
X918210Y430800D02*
Y432800D01*
X773700Y518454D02*
X775700D01*
X774700Y517454D02*
Y519454D01*
X762270Y519430D02*
X764270D01*
X763270Y518430D02*
Y520430D01*
X747030Y527050D02*
X749030D01*
X748030Y526050D02*
Y528050D01*
X810530Y427990D02*
X812530D01*
X811530Y426990D02*
Y428990D01*
X226330Y676910D02*
X228330D01*
X227330Y675910D02*
Y677910D01*
X345710Y685800D02*
X347710D01*
X346710Y684800D02*
Y686800D01*
X344440Y734060D02*
X346440D01*
X345440Y733060D02*
Y735060D01*
X105625Y466792D02*
X107625D01*
X106625Y465792D02*
Y467792D01*
X835930Y523240D02*
X837930D01*
X836930Y522240D02*
Y524240D01*
X835426Y512612D02*
X837426D01*
X836426Y511612D02*
Y513612D01*
X194580Y474980D02*
X196580D01*
X195580Y473980D02*
Y475980D01*
X198350Y528868D02*
X200350D01*
X199350Y527868D02*
Y529868D01*
X235220Y518160D02*
X237220D01*
X236220Y517160D02*
Y519160D01*
X868950Y461010D02*
X870950D01*
X869950Y460010D02*
Y462010D01*
X703850Y558800D02*
X705850D01*
X704850Y557800D02*
Y559800D01*
X694408Y554990D02*
X696408D01*
X695408Y553990D02*
Y555990D01*
X688610Y562610D02*
X690610D01*
X689610Y561610D02*
Y563610D01*
X860060Y596900D02*
X862060D01*
X861060Y595900D02*
Y597900D01*
X839740Y576580D02*
X841740D01*
X840740Y575580D02*
Y577580D01*
X839740Y586740D02*
X841740D01*
X840740Y585740D02*
Y587740D01*
X849900Y576580D02*
X851900D01*
X850900Y575580D02*
Y577580D01*
X849900Y586740D02*
X851900D01*
X850900Y585740D02*
Y587740D01*
X849900Y596900D02*
X851900D01*
X850900Y595900D02*
Y597900D01*
X871490Y596900D02*
X873490D01*
X872490Y595900D02*
Y597900D01*
X98060Y455930D02*
X100060D01*
X99060Y454930D02*
Y456930D01*
X842280Y416560D02*
X844280D01*
X843280Y415560D02*
Y417560D01*
X918480Y467360D02*
X920480D01*
X919480Y466360D02*
Y468360D01*
X148032Y342126D02*
X150031D01*
X149031Y341126D02*
Y343126D01*
X622570Y551180D02*
X624570D01*
X623570Y550180D02*
Y552180D01*
X665750Y538480D02*
X667750D01*
X666750Y537480D02*
Y539480D01*
X787225Y517652D02*
X789225D01*
X788225Y516652D02*
Y518652D01*
X14767Y548131D02*
X16767D01*
X15767Y547132D02*
Y549132D01*
X14767Y452727D02*
X16767D01*
X15767Y451727D02*
Y453727D01*
X14767Y575390D02*
X16767D01*
X15767Y574390D02*
Y576390D01*
X14767Y561761D02*
X16767D01*
X15767Y560761D02*
Y562761D01*
X14767Y439097D02*
X16767D01*
X15767Y438097D02*
Y440097D01*
X14767Y398209D02*
X16767D01*
X15767Y397210D02*
Y399210D01*
X14767Y384580D02*
X16767D01*
X15767Y383580D02*
Y385580D01*
X14767Y425468D02*
X16767D01*
X15767Y424468D02*
Y426468D01*
X14767Y411839D02*
X16767D01*
X15767Y410839D02*
Y412839D01*
X14767Y670795D02*
X16767D01*
X15767Y669795D02*
Y671795D01*
X14767Y657166D02*
X16767D01*
X15767Y656166D02*
Y658166D01*
X14767Y698054D02*
X16767D01*
X15767Y697054D02*
Y699053D01*
X14767Y684424D02*
X16767D01*
X15767Y683424D02*
Y685424D01*
X14767Y643537D02*
X16767D01*
X15767Y642536D02*
Y644537D01*
X14767Y602649D02*
X16767D01*
X15767Y601649D02*
Y603649D01*
X14767Y589019D02*
X16767D01*
X15767Y588019D02*
Y590019D01*
X14767Y629907D02*
X16767D01*
X15767Y628907D02*
Y630907D01*
X14767Y616278D02*
X16767D01*
X15767Y615278D02*
Y617278D01*
X14767Y248288D02*
X16767D01*
X15767Y247288D02*
Y249288D01*
X14767Y234658D02*
X16767D01*
X15767Y233658D02*
Y235658D01*
X14767Y221029D02*
X16767D01*
X15767Y220029D02*
Y222029D01*
X14767Y289175D02*
X16767D01*
X15767Y288176D02*
Y290175D01*
X14767Y275546D02*
X16767D01*
X15767Y274546D02*
Y276546D01*
X14767Y261917D02*
X16767D01*
X15767Y260917D02*
Y262917D01*
X14767Y166512D02*
X16767D01*
X15767Y165512D02*
Y167512D01*
X14767Y152883D02*
X16767D01*
X15767Y151883D02*
Y153883D01*
X14767Y207400D02*
X16767D01*
X15767Y206400D02*
Y208400D01*
X14767Y193771D02*
X16767D01*
X15767Y192771D02*
Y194771D01*
X14767Y180141D02*
X16767D01*
X15767Y179141D02*
Y181141D01*
X14767Y330063D02*
X16767D01*
X15767Y329063D02*
Y331063D01*
X14767Y316434D02*
X16767D01*
X15767Y315434D02*
Y317434D01*
X14767Y302805D02*
X16767D01*
X15767Y301805D02*
Y303805D01*
X14767Y370951D02*
X16767D01*
X15767Y369951D02*
Y371951D01*
X14767Y357322D02*
X16767D01*
X15767Y356322D02*
Y358322D01*
X14767Y343693D02*
X16767D01*
X15767Y342692D02*
Y344692D01*
X14767Y466356D02*
X16767D01*
X15767Y465356D02*
Y467356D01*
X14767Y520873D02*
X16767D01*
X15767Y519873D02*
Y521873D01*
X14767Y534502D02*
X16767D01*
X15767Y533502D02*
Y535502D01*
X14767Y507244D02*
X16767D01*
X15767Y506244D02*
Y508244D01*
X14767Y479985D02*
X16767D01*
X15767Y478985D02*
Y480985D01*
X14767Y493615D02*
X16767D01*
X15767Y492615D02*
Y494614D01*
X14767Y139254D02*
X16767D01*
X15767Y138254D02*
Y140254D01*
X94250Y381000D02*
X96250D01*
X95250Y380000D02*
Y382000D01*
X192040Y439420D02*
X194040D01*
X193040Y438420D02*
Y440420D01*
X214900Y424180D02*
X216900D01*
X215900Y423180D02*
Y425180D01*
X194580Y397510D02*
X196580D01*
X195580Y396510D02*
Y398510D01*
X388890Y482600D02*
X390890D01*
X389890Y481600D02*
Y483600D01*
X805450Y742950D02*
X807450D01*
X806450Y741950D02*
Y743950D01*
X794020Y742950D02*
X796020D01*
X795020Y741950D02*
Y743950D01*
X782590Y742950D02*
X784590D01*
X783590Y741950D02*
Y743950D01*
X771160Y742950D02*
X773160D01*
X772160Y741950D02*
Y743950D01*
X759730Y742950D02*
X761730D01*
X760730Y741950D02*
Y743950D01*
X594630Y772160D02*
X596630D01*
X595630Y771160D02*
Y773160D01*
X627831Y772160D02*
X629831D01*
X628831Y771160D02*
Y773160D01*
X638899Y772160D02*
X640899D01*
X639899Y771160D02*
Y773160D01*
X649966Y772160D02*
X651966D01*
X650966Y771160D02*
Y773160D01*
X661033Y772160D02*
X663033D01*
X662033Y771160D02*
Y773160D01*
X449850Y740410D02*
X451850D01*
X450850Y739410D02*
Y741410D01*
X200504Y286176D02*
X202504D01*
X201504Y285176D02*
Y287176D01*
X448580Y252730D02*
X450580D01*
X449580Y251730D02*
Y253730D01*
X734330Y676910D02*
X736330D01*
X735330Y675910D02*
Y677910D01*
X462550Y651510D02*
X464550D01*
X463550Y650510D02*
Y652510D01*
X229759Y656804D02*
X231759D01*
X230759Y655804D02*
Y657804D01*
X903240Y716280D02*
X905240D01*
X904240Y715280D02*
Y717280D01*
X985790Y519430D02*
X987790D01*
X986790Y518430D02*
Y520430D01*
X974360Y519430D02*
X976360D01*
X975360Y518430D02*
Y520430D01*
X985790Y530860D02*
X987790D01*
X986790Y529860D02*
Y531860D01*
X962930Y519430D02*
X964930D01*
X963930Y518430D02*
Y520430D01*
X985790Y542290D02*
X987790D01*
X986790Y541290D02*
Y543290D01*
X974360Y530860D02*
X976360D01*
X975360Y529860D02*
Y531860D01*
X952770Y519430D02*
X954770D01*
X953770Y518430D02*
Y520430D01*
X887402Y527722D02*
X889402D01*
X888402Y526722D02*
Y528722D01*
X882920Y716280D02*
X884920D01*
X883920Y715280D02*
Y717280D01*
X794782Y523200D02*
X796782D01*
X795782Y522200D02*
Y524200D01*
X974360Y542290D02*
X976360D01*
X975360Y541290D02*
Y543290D01*
X962930Y530860D02*
X964930D01*
X963930Y529860D02*
Y531860D01*
X962930Y542290D02*
X964930D01*
X963930Y541290D02*
Y543290D01*
X952770Y530860D02*
X954770D01*
X953770Y529860D02*
Y531860D01*
X952770Y542290D02*
X954770D01*
X953770Y541290D02*
Y543290D01*
X104410Y636270D02*
X106410D01*
X105410Y635270D02*
Y637270D01*
X532400Y482600D02*
X534400D01*
X533400Y481600D02*
Y483600D01*
X532400Y492760D02*
X534400D01*
X533400Y491760D02*
Y493760D01*
X484140Y497840D02*
X486140D01*
X485140Y496840D02*
Y498840D01*
X499380Y492760D02*
X501380D01*
X500380Y491760D02*
Y493760D01*
X818150Y68580D02*
X820150D01*
X819150Y67580D02*
Y69580D01*
X818150Y58420D02*
X820150D01*
X819150Y57420D02*
Y59420D01*
X818150Y78740D02*
X820150D01*
X819150Y77740D02*
Y79740D01*
X159020Y379730D02*
X161020D01*
X160020Y378730D02*
Y380730D01*
X104410Y349250D02*
X106410D01*
X105410Y348250D02*
Y350250D01*
X147590Y356870D02*
X149590D01*
X148590Y355870D02*
Y357870D01*
X247920Y662940D02*
X249920D01*
X248920Y661940D02*
Y663940D01*
X208550Y657860D02*
X210550D01*
X209550Y656860D02*
Y658860D01*
X185690Y703580D02*
X187690D01*
X186690Y702580D02*
Y704580D01*
X672100Y772160D02*
X674100D01*
X673100Y771160D02*
Y773160D01*
X595900Y486410D02*
X597900D01*
X596900Y485410D02*
Y487410D01*
X909590Y245110D02*
X911590D01*
X910590Y244110D02*
Y246110D01*
X976900Y408940D02*
X978900D01*
X977900Y407940D02*
Y409940D01*
X889270Y574040D02*
X891270D01*
X890270Y573040D02*
Y575040D01*
X345710Y715010D02*
X347710D01*
X346710Y714010D02*
Y716010D01*
X298720Y685800D02*
X300720D01*
X299720Y684800D02*
Y686800D01*
X345710Y659130D02*
X347710D01*
X346710Y658130D02*
Y660130D01*
X105680Y657860D02*
X107680D01*
X106680Y656860D02*
Y658860D01*
X106950Y551180D02*
X108950D01*
X107950Y550180D02*
Y552180D01*
X181880Y444500D02*
X183880D01*
X182880Y443500D02*
Y445500D01*
X197628Y661162D02*
X199628D01*
X198628Y660162D02*
Y662162D01*
X547230Y388620D02*
X549230D01*
X548230Y387620D02*
Y389620D01*
X714010Y558800D02*
X716010D01*
X715010Y557800D02*
Y559800D01*
X135873Y623310D02*
X137873D01*
X136873Y622310D02*
Y624310D01*
X991886Y215900D02*
X993886D01*
X992886Y214900D02*
Y216900D01*
X130318Y597310D02*
X132318D01*
X131318Y596310D02*
Y598310D01*
X729250Y509983D02*
X731250D01*
X730250Y508983D02*
Y510983D01*
X96917Y506170D02*
X98917D01*
X97917Y505170D02*
Y507170D01*
X734375Y477475D02*
X736375D01*
X735375Y476475D02*
Y478475D01*
X756050Y484041D02*
X758050D01*
X757050Y483041D02*
Y485041D01*
X207280Y471170D02*
X209280D01*
X208280Y470170D02*
Y472170D01*
X808244Y512064D02*
X810244D01*
X809244Y511064D02*
Y513064D01*
X801894Y407924D02*
X803894D01*
X802894Y406924D02*
Y408924D01*
X197721Y313690D02*
X199720D01*
X198720Y312690D02*
Y314690D01*
X722900Y681990D02*
X724900D01*
X723900Y680990D02*
Y682990D01*
X219853Y665028D02*
X221853D01*
X220853Y664028D02*
Y666028D01*
X27702Y396875D02*
X29702D01*
X28702Y395875D02*
Y397875D01*
X160590Y416710D02*
X162590D01*
X161590Y415710D02*
Y417710D01*
X52086Y594614D02*
X54086D01*
X53086Y593614D02*
Y595614D01*
X81498Y606044D02*
X83498D01*
X82498Y605044D02*
Y607044D01*
X102632Y427990D02*
X104632D01*
X103632Y426990D02*
Y428990D01*
X96028Y416710D02*
X98028D01*
X97028Y415710D02*
Y417710D01*
X81042Y521970D02*
X83042D01*
X82042Y520970D02*
Y522970D01*
X152797Y599694D02*
X154797D01*
X153797Y598694D02*
Y600694D01*
X196358Y341416D02*
X198358D01*
X197358Y340416D02*
Y342416D01*
X777510Y601980D02*
X779510D01*
X778510Y600980D02*
Y602980D01*
X787670Y591820D02*
X789670D01*
X788670Y590820D02*
Y592820D01*
X944174Y436967D02*
X946174D01*
X945174Y435967D02*
Y437967D01*
X702927Y510921D02*
X704927D01*
X703927Y509921D02*
Y511921D01*
X190489Y377710D02*
X192489D01*
X191489Y376710D02*
Y378710D01*
X838470Y688340D02*
X840470D01*
X839470Y687340D02*
Y689340D01*
M02*
