G04*
G04 #@! TF.GenerationSoftware,Altium Limited,Altium Designer,25.4.2 (15)*
G04*
G04 Layer_Color=0*
%FSLAX44Y44*%
%MOMM*%
G71*
G04*
G04 #@! TF.SameCoordinates,F718CCC6-B2C0-4064-A14D-7761564938EA*
G04*
G04*
G04 #@! TF.FilePolarity,Positive*
G04*
G01*
G75*
%ADD10C,0.1000*%
%ADD124C,0.0500*%
D10*
X285830Y481330D02*
X295830D01*
X290830Y476330D02*
Y486330D01*
X222330Y731520D02*
X232330D01*
X227330Y726520D02*
Y736520D01*
X221060Y695960D02*
X231060D01*
X226060Y690960D02*
Y700960D01*
X871220Y316310D02*
Y326310D01*
X866220Y321310D02*
X876220D01*
X871220Y341710D02*
Y351710D01*
X866220Y346710D02*
X876220D01*
X170180Y182960D02*
Y192960D01*
X165180Y187960D02*
X175180D01*
X122000Y123190D02*
X132000D01*
X127000Y118190D02*
Y128190D01*
X250270Y481330D02*
X260270D01*
X255270Y476330D02*
Y486330D01*
X542290Y417910D02*
Y427910D01*
X537290Y422910D02*
X547290D01*
X509350Y516890D02*
X519350D01*
X514350Y511890D02*
Y521890D01*
X408940Y416640D02*
Y426640D01*
X403940Y421640D02*
X413940D01*
X509350Y481330D02*
X519350D01*
X514350Y476330D02*
Y486330D01*
X452200Y516890D02*
X462200D01*
X457200Y511890D02*
Y521890D01*
X490300Y516890D02*
X500300D01*
X495300Y511890D02*
Y521890D01*
X902970Y643970D02*
Y653970D01*
X897970Y648970D02*
X907970D01*
X493662Y596980D02*
Y606980D01*
X488662Y601980D02*
X498662D01*
X1059470Y619560D02*
X1069470D01*
X1064470Y614560D02*
Y624560D01*
X1059470Y429930D02*
X1069470D01*
X1064470Y424930D02*
Y434930D01*
X792560Y441960D02*
X802560D01*
X797560Y436960D02*
Y446960D01*
X727350Y454481D02*
X737350D01*
X732350Y449481D02*
Y459481D01*
X146050Y679530D02*
Y689530D01*
X141050Y684530D02*
X151050D01*
X146050Y721440D02*
Y731440D01*
X141050Y726440D02*
X151050D01*
X816690Y595630D02*
X826690D01*
X821690Y590630D02*
Y600630D01*
X800185Y605790D02*
X810185D01*
X805185Y600790D02*
Y610790D01*
X820420Y63580D02*
Y73580D01*
X815420Y68580D02*
X825420D01*
X759460Y63580D02*
Y73580D01*
X754460Y68580D02*
X764460D01*
X701181Y63580D02*
Y73580D01*
X696181Y68580D02*
X706181D01*
X642197Y63580D02*
Y73580D01*
X637197Y68580D02*
X647197D01*
X583212Y63580D02*
Y73580D01*
X578212Y68580D02*
X588212D01*
X524228Y63580D02*
Y73580D01*
X519228Y68580D02*
X529228D01*
X465243Y63580D02*
Y73580D01*
X460243Y68580D02*
X470243D01*
X406259Y63580D02*
Y73580D01*
X401259Y68580D02*
X411259D01*
X967740Y63580D02*
Y73580D01*
X962740Y68580D02*
X972740D01*
X905510Y63580D02*
Y73580D01*
X900510Y68580D02*
X910510D01*
X149674Y395460D02*
Y405460D01*
X144674Y400460D02*
X154674D01*
X149674Y296100D02*
Y306100D01*
X144674Y301100D02*
X154674D01*
X148590Y497920D02*
Y507920D01*
X143590Y502920D02*
X153590D01*
X148590Y602060D02*
Y612060D01*
X143590Y607060D02*
X153590D01*
X927180Y445770D02*
X937180D01*
X932180Y440770D02*
Y450770D01*
X119380Y646510D02*
Y656510D01*
X114380Y651510D02*
X124380D01*
X157560Y551180D02*
X167560D01*
X162560Y546180D02*
Y556180D01*
X118110Y348060D02*
Y358060D01*
X113110Y353060D02*
X123110D01*
X209550Y633810D02*
Y643810D01*
X204550Y638810D02*
X214550D01*
X330748Y733383D02*
X340748D01*
X335748Y728383D02*
Y738383D01*
X332211Y710369D02*
Y720368D01*
X327211Y715368D02*
X337211D01*
X116840Y556340D02*
Y566340D01*
X111840Y561340D02*
X121840D01*
X156290Y349250D02*
X166290D01*
X161290Y344250D02*
Y354250D01*
X116840Y452200D02*
Y462200D01*
X111840Y457200D02*
X121840D01*
X298530Y609600D02*
X308530D01*
X303530Y604600D02*
Y614600D01*
X295260Y536858D02*
X305260D01*
X300260Y531858D02*
Y541858D01*
X152480Y450850D02*
X162480D01*
X157480Y445850D02*
Y455850D01*
X332018Y687292D02*
X342018D01*
X337018Y682292D02*
Y692292D01*
X332211Y651206D02*
Y661206D01*
X327211Y656206D02*
X337211D01*
X833200Y601980D02*
X843200D01*
X838200Y596980D02*
Y606980D01*
X739728Y618490D02*
X749728D01*
X744728Y613490D02*
Y623490D01*
X758182Y612140D02*
X768181D01*
X763182Y607140D02*
Y617140D01*
X815340Y445838D02*
Y455838D01*
X810340Y450838D02*
X820340D01*
X826166Y527544D02*
Y537544D01*
X821166Y532544D02*
X831166D01*
X703580Y565230D02*
Y575230D01*
X698580Y570230D02*
X708580D01*
X707390Y522050D02*
Y532050D01*
X702390Y527050D02*
X712390D01*
X800180Y468630D02*
X810180D01*
X805180Y463630D02*
Y473630D01*
X817223Y468630D02*
X827223D01*
X822223Y463630D02*
Y473630D01*
X869950Y214710D02*
Y224710D01*
X864950Y219710D02*
X874950D01*
X607060Y585550D02*
Y595550D01*
X602060Y590550D02*
X612060D01*
X355600Y719638D02*
Y729638D01*
X350600Y724638D02*
X360600D01*
X355600Y736680D02*
Y746680D01*
X350600Y741680D02*
X360600D01*
X358140Y671910D02*
Y681910D01*
X353140Y676910D02*
X363140D01*
X358140Y689690D02*
Y699690D01*
X353140Y694690D02*
X363140D01*
X198200Y695070D02*
X208200D01*
X203200Y690070D02*
Y700070D01*
X198200Y736220D02*
X208200D01*
X203200Y731220D02*
Y741220D01*
X290418Y720170D02*
Y730170D01*
X285418Y725170D02*
X295418D01*
X290418Y675720D02*
Y685720D01*
X285418Y680720D02*
X295418D01*
X783590Y726520D02*
Y736520D01*
X778590Y731520D02*
X788590D01*
X137240Y163830D02*
X147240D01*
X142240Y158830D02*
Y168830D01*
X737344Y647066D02*
Y657066D01*
X732345Y652066D02*
X742345D01*
X961390Y562690D02*
Y572690D01*
X956390Y567690D02*
X966390D01*
X961390Y586820D02*
Y596820D01*
X956390Y591820D02*
X966390D01*
X123270Y40640D02*
X133270D01*
X128270Y35640D02*
Y45640D01*
X265510Y40640D02*
X275510D01*
X270510Y35640D02*
Y45640D01*
X1027430Y750650D02*
Y760650D01*
X1022430Y755650D02*
X1032430D01*
X963930Y750650D02*
Y760650D01*
X958930Y755650D02*
X968930D01*
D124*
X563880Y534750D02*
Y544750D01*
X558880Y539750D02*
X568880D01*
M02*
