G04*
G04 #@! TF.GenerationSoftware,Altium Limited,Altium Designer,25.4.2 (15)*
G04*
G04 Layer_Physical_Order=2*
G04 Layer_Color=36540*
%FSLAX44Y44*%
%MOMM*%
G71*
G04*
G04 #@! TF.SameCoordinates,F718CCC6-B2C0-4064-A14D-7761564938EA*
G04*
G04*
G04 #@! TF.FilePolarity,Positive*
G04*
G01*
G75*
%ADD91C,1.4000*%
%ADD92R,1.4000X1.4000*%
%ADD95C,0.6500*%
G04:AMPARAMS|DCode=96|XSize=0.9mm|YSize=2.4mm|CornerRadius=0.45mm|HoleSize=0mm|Usage=FLASHONLY|Rotation=180.000|XOffset=0mm|YOffset=0mm|HoleType=Round|Shape=RoundedRectangle|*
%AMROUNDEDRECTD96*
21,1,0.9000,1.5000,0,0,180.0*
21,1,0.0000,2.4000,0,0,180.0*
1,1,0.9000,0.0000,0.7500*
1,1,0.9000,0.0000,0.7500*
1,1,0.9000,0.0000,-0.7500*
1,1,0.9000,0.0000,-0.7500*
%
%ADD96ROUNDEDRECTD96*%
G04:AMPARAMS|DCode=97|XSize=0.9mm|YSize=1.7mm|CornerRadius=0.45mm|HoleSize=0mm|Usage=FLASHONLY|Rotation=180.000|XOffset=0mm|YOffset=0mm|HoleType=Round|Shape=RoundedRectangle|*
%AMROUNDEDRECTD97*
21,1,0.9000,0.8000,0,0,180.0*
21,1,0.0000,1.7000,0,0,180.0*
1,1,0.9000,0.0000,0.4000*
1,1,0.9000,0.0000,0.4000*
1,1,0.9000,0.0000,-0.4000*
1,1,0.9000,0.0000,-0.4000*
%
%ADD97ROUNDEDRECTD97*%
%ADD100C,2.4500*%
%ADD101R,2.3000X2.3000*%
%ADD112O,1.3080X2.6160*%
%ADD113O,1.6600X3.3200*%
%ADD115C,6.0000*%
%ADD116C,1.3080*%
%ADD118C,1.3370*%
%ADD119C,0.5000*%
%ADD120C,0.5500*%
%ADD121C,1.5240*%
G36*
X30342Y781050D02*
X25579Y780295D01*
X20821Y778750D01*
X16365Y776479D01*
X12318Y773539D01*
X8781Y770002D01*
X5841Y765955D01*
X3570Y761499D01*
X2025Y756741D01*
X1270Y751978D01*
X0Y752078D01*
Y782320D01*
X30242D01*
X30342Y781050D01*
D02*
G37*
G36*
X1127760Y752077D02*
X1126490Y751978D01*
X1125735Y756741D01*
X1124190Y761499D01*
X1121919Y765955D01*
X1118979Y770002D01*
X1115442Y773539D01*
X1111395Y776479D01*
X1106938Y778750D01*
X1102181Y780295D01*
X1097418Y781050D01*
X1097518Y782320D01*
X1127760D01*
Y752077D01*
D02*
G37*
G36*
X1092062Y781050D02*
X1087299Y780295D01*
X1082542Y778750D01*
X1078085Y776479D01*
X1074038Y773539D01*
X1070501Y770002D01*
X1067561Y765955D01*
X1065290Y761499D01*
X1063745Y756741D01*
X1062962Y751801D01*
Y746799D01*
X1063745Y741859D01*
X1065290Y737102D01*
X1067561Y732645D01*
X1070501Y728598D01*
X1074038Y725061D01*
X1078085Y722121D01*
X1082542Y719850D01*
X1087299Y718305D01*
X1092239Y717522D01*
X1097241D01*
X1102181Y718305D01*
X1106938Y719850D01*
X1111395Y722121D01*
X1115442Y725061D01*
X1118979Y728598D01*
X1121919Y732645D01*
X1124190Y737102D01*
X1125735Y741859D01*
X1126490Y746622D01*
X1127760Y746523D01*
Y35798D01*
X1126490Y35698D01*
X1125735Y40461D01*
X1124190Y45219D01*
X1121919Y49675D01*
X1118979Y53722D01*
X1115442Y57259D01*
X1111395Y60199D01*
X1106938Y62470D01*
X1102181Y64015D01*
X1097241Y64798D01*
X1092239D01*
X1087299Y64015D01*
X1082542Y62470D01*
X1078085Y60199D01*
X1074038Y57259D01*
X1070501Y53722D01*
X1067561Y49675D01*
X1065290Y45219D01*
X1063745Y40461D01*
X1062962Y35521D01*
Y30519D01*
X1063745Y25579D01*
X1065290Y20821D01*
X1067561Y16365D01*
X1070501Y12318D01*
X1074038Y8781D01*
X1078085Y5841D01*
X1082542Y3570D01*
X1087299Y2025D01*
X1092062Y1270D01*
X1091962Y0D01*
X35798D01*
X35698Y1270D01*
X40461Y2025D01*
X45219Y3570D01*
X49675Y5841D01*
X53722Y8781D01*
X57259Y12318D01*
X60199Y16365D01*
X62470Y20821D01*
X64015Y25579D01*
X64798Y30519D01*
Y35521D01*
X64015Y40461D01*
X62470Y45219D01*
X60199Y49675D01*
X57259Y53722D01*
X53722Y57259D01*
X49675Y60199D01*
X45219Y62470D01*
X40461Y64015D01*
X35521Y64798D01*
X30519D01*
X25579Y64015D01*
X20821Y62470D01*
X16365Y60199D01*
X12318Y57259D01*
X8781Y53722D01*
X5841Y49675D01*
X3570Y45219D01*
X2025Y40461D01*
X1270Y35698D01*
X0Y35798D01*
Y746522D01*
X1270Y746622D01*
X2025Y741859D01*
X3570Y737102D01*
X5841Y732645D01*
X8781Y728598D01*
X12318Y725061D01*
X16365Y722121D01*
X20821Y719850D01*
X25579Y718305D01*
X30519Y717522D01*
X35521D01*
X40461Y718305D01*
X45219Y719850D01*
X49675Y722121D01*
X53722Y725061D01*
X57259Y728598D01*
X60199Y732645D01*
X62470Y737102D01*
X64015Y741859D01*
X64798Y746799D01*
Y751801D01*
X64015Y756741D01*
X62470Y761499D01*
X60199Y765955D01*
X57259Y770002D01*
X53722Y773539D01*
X49675Y776479D01*
X45219Y778750D01*
X40461Y780295D01*
X35698Y781050D01*
X35798Y782320D01*
X1091962D01*
X1092062Y781050D01*
D02*
G37*
G36*
X1127760Y30243D02*
Y0D01*
X1097518D01*
X1097418Y1270D01*
X1102181Y2025D01*
X1106938Y3570D01*
X1111395Y5841D01*
X1115442Y8781D01*
X1118979Y12318D01*
X1121919Y16365D01*
X1124190Y20821D01*
X1125735Y25579D01*
X1126490Y30343D01*
X1127760Y30243D01*
D02*
G37*
G36*
X2025Y25579D02*
X3570Y20821D01*
X5841Y16365D01*
X8781Y12318D01*
X12318Y8781D01*
X16365Y5841D01*
X20821Y3570D01*
X25579Y2025D01*
X30342Y1270D01*
X30242Y0D01*
X0D01*
Y30242D01*
X1270Y30342D01*
X2025Y25579D01*
D02*
G37*
%LPC*%
G36*
X383171Y779228D02*
X381369D01*
X379705Y778539D01*
X378431Y777265D01*
X377742Y775601D01*
Y773799D01*
X378431Y772135D01*
X379705Y770861D01*
X381369Y770172D01*
X383171D01*
X384835Y770861D01*
X386109Y772135D01*
X386798Y773799D01*
Y775601D01*
X386109Y777265D01*
X384835Y778539D01*
X383171Y779228D01*
D02*
G37*
G36*
X726071Y769068D02*
X724269D01*
X722605Y768379D01*
X721331Y767105D01*
X720642Y765441D01*
Y763639D01*
X721331Y761975D01*
X722605Y760701D01*
X724269Y760012D01*
X726071D01*
X727735Y760701D01*
X729009Y761975D01*
X729698Y763639D01*
Y765441D01*
X729009Y767105D01*
X727735Y768379D01*
X726071Y769068D01*
D02*
G37*
G36*
X399992Y761759D02*
X398190D01*
X396526Y761070D01*
X395252Y759796D01*
X394563Y758132D01*
Y756330D01*
X395252Y754666D01*
X396526Y753392D01*
X398190Y752703D01*
X399992D01*
X401656Y753392D01*
X402930Y754666D01*
X403619Y756330D01*
Y758132D01*
X402930Y759796D01*
X401656Y761070D01*
X399992Y761759D01*
D02*
G37*
G36*
X657491Y761448D02*
X655689D01*
X654025Y760759D01*
X652751Y759485D01*
X652062Y757821D01*
Y756019D01*
X652751Y754355D01*
X654025Y753081D01*
X655689Y752392D01*
X657491D01*
X659155Y753081D01*
X660429Y754355D01*
X661118Y756019D01*
Y757821D01*
X660429Y759485D01*
X659155Y760759D01*
X657491Y761448D01*
D02*
G37*
G36*
X416191Y752558D02*
X414389D01*
X412725Y751869D01*
X411451Y750595D01*
X410762Y748931D01*
Y747129D01*
X411451Y745465D01*
X412725Y744191D01*
X414389Y743502D01*
X416191D01*
X417855Y744191D01*
X419129Y745465D01*
X419818Y747129D01*
Y748931D01*
X419129Y750595D01*
X417855Y751869D01*
X416191Y752558D01*
D02*
G37*
G36*
X965777Y769678D02*
X962083D01*
X958515Y768722D01*
X955317Y766875D01*
X952705Y764263D01*
X950858Y761065D01*
X949902Y757497D01*
Y753803D01*
X950858Y750235D01*
X952705Y747037D01*
X955317Y744425D01*
X958515Y742578D01*
X962083Y741622D01*
X965777D01*
X969345Y742578D01*
X972543Y744425D01*
X975155Y747037D01*
X977002Y750235D01*
X977958Y753803D01*
Y757497D01*
X977002Y761065D01*
X975155Y764263D01*
X972543Y766875D01*
X969345Y768722D01*
X965777Y769678D01*
D02*
G37*
G36*
X649109Y749256D02*
X647307D01*
X645643Y748567D01*
X644369Y747293D01*
X643680Y745629D01*
Y743827D01*
X644369Y742163D01*
X645643Y740889D01*
X647307Y740200D01*
X649109D01*
X650773Y740889D01*
X652047Y742163D01*
X652736Y743827D01*
Y745629D01*
X652047Y747293D01*
X650773Y748567D01*
X649109Y749256D01*
D02*
G37*
G36*
X627011D02*
X625209D01*
X623545Y748567D01*
X622271Y747293D01*
X621582Y745629D01*
Y743827D01*
X622271Y742163D01*
X623545Y740889D01*
X625209Y740200D01*
X627011D01*
X628675Y740889D01*
X629949Y742163D01*
X630638Y743827D01*
Y745629D01*
X629949Y747293D01*
X628675Y748567D01*
X627011Y749256D01*
D02*
G37*
G36*
X614644Y748831D02*
X612842D01*
X611178Y748142D01*
X609904Y746868D01*
X609215Y745204D01*
Y743402D01*
X609904Y741738D01*
X611178Y740465D01*
X612842Y739775D01*
X614644D01*
X616308Y740465D01*
X617581Y741738D01*
X618271Y743402D01*
Y745204D01*
X617581Y746868D01*
X616308Y748142D01*
X614644Y748831D01*
D02*
G37*
G36*
X603643Y748494D02*
X601841D01*
X600177Y747805D01*
X598903Y746531D01*
X598214Y744867D01*
Y743065D01*
X598903Y741401D01*
X600177Y740127D01*
X601841Y739438D01*
X603643D01*
X605307Y740127D01*
X606581Y741401D01*
X607270Y743065D01*
Y744867D01*
X606581Y746531D01*
X605307Y747805D01*
X603643Y748494D01*
D02*
G37*
G36*
X393842Y747990D02*
X392041D01*
X390377Y747300D01*
X389103Y746027D01*
X388414Y744362D01*
Y742561D01*
X389103Y740897D01*
X390377Y739623D01*
X392041Y738934D01*
X393842D01*
X395507Y739623D01*
X396780Y740897D01*
X397470Y742561D01*
Y744362D01*
X396780Y746027D01*
X395507Y747300D01*
X393842Y747990D01*
D02*
G37*
G36*
X268871Y747478D02*
X267069D01*
X265405Y746789D01*
X264131Y745515D01*
X263442Y743851D01*
Y742049D01*
X264131Y740385D01*
X265405Y739111D01*
X267069Y738422D01*
X268871D01*
X270535Y739111D01*
X271809Y740385D01*
X272498Y742049D01*
Y743851D01*
X271809Y745515D01*
X270535Y746789D01*
X268871Y747478D01*
D02*
G37*
G36*
X533370Y765787D02*
X530739Y765441D01*
X528288Y764426D01*
X526182Y762810D01*
X524567Y760705D01*
X523551Y758253D01*
X523205Y755622D01*
Y739022D01*
X523551Y736392D01*
X524567Y733940D01*
X526182Y731835D01*
X528288Y730219D01*
X530739Y729204D01*
X533370Y728857D01*
X536001Y729204D01*
X538452Y730219D01*
X540558Y731835D01*
X542173Y733940D01*
X543189Y736392D01*
X543535Y739022D01*
Y755622D01*
X543189Y758253D01*
X542173Y760705D01*
X540558Y762810D01*
X538452Y764426D01*
X536001Y765441D01*
X533370Y765787D01*
D02*
G37*
G36*
X434370D02*
X431739Y765441D01*
X429287Y764426D01*
X427182Y762810D01*
X425567Y760705D01*
X424551Y758253D01*
X424205Y755622D01*
Y739022D01*
X424551Y736392D01*
X425567Y733940D01*
X427182Y731835D01*
X429287Y730219D01*
X431739Y729204D01*
X434370Y728857D01*
X437001Y729204D01*
X439453Y730219D01*
X441558Y731835D01*
X443173Y733940D01*
X444189Y736392D01*
X444535Y739022D01*
Y755622D01*
X444189Y758253D01*
X443173Y760705D01*
X441558Y762810D01*
X439453Y764426D01*
X437001Y765441D01*
X434370Y765787D01*
D02*
G37*
G36*
X480370Y748135D02*
X462370D01*
X461676Y747997D01*
X461088Y747604D01*
X460695Y747016D01*
X460557Y746323D01*
Y728323D01*
X460695Y727629D01*
X461088Y727041D01*
X461676Y726648D01*
X462370Y726510D01*
X480370D01*
X481064Y726648D01*
X481652Y727041D01*
X482045Y727629D01*
X482183Y728323D01*
Y746323D01*
X482045Y747016D01*
X481652Y747604D01*
X481064Y747997D01*
X480370Y748135D01*
D02*
G37*
G36*
X406664Y729803D02*
X404863D01*
X403198Y729113D01*
X401925Y727840D01*
X401235Y726175D01*
Y724374D01*
X401925Y722710D01*
X403198Y721436D01*
X404863Y720747D01*
X406664D01*
X408328Y721436D01*
X409602Y722710D01*
X410291Y724374D01*
Y726175D01*
X409602Y727840D01*
X408328Y729113D01*
X406664Y729803D01*
D02*
G37*
G36*
X384441Y729698D02*
X382639D01*
X380975Y729009D01*
X379701Y727735D01*
X379012Y726071D01*
Y724269D01*
X379701Y722605D01*
X380975Y721331D01*
X382639Y720642D01*
X384441D01*
X386105Y721331D01*
X387379Y722605D01*
X388068Y724269D01*
Y726071D01*
X387379Y727735D01*
X386105Y729009D01*
X384441Y729698D01*
D02*
G37*
G36*
X328561Y727158D02*
X326759D01*
X325095Y726469D01*
X323821Y725195D01*
X323132Y723531D01*
Y721729D01*
X323821Y720065D01*
X325095Y718791D01*
X326759Y718102D01*
X328561D01*
X330225Y718791D01*
X331499Y720065D01*
X332188Y721729D01*
Y723531D01*
X331499Y725195D01*
X330225Y726469D01*
X328561Y727158D01*
D02*
G37*
G36*
X905091Y720558D02*
X903389D01*
X901817Y719907D01*
X900613Y718703D01*
X899962Y717131D01*
Y715429D01*
X900613Y713857D01*
X901817Y712653D01*
X903389Y712002D01*
X905091D01*
X906663Y712653D01*
X907867Y713857D01*
X908518Y715429D01*
Y717131D01*
X907867Y718703D01*
X906663Y719907D01*
X905091Y720558D01*
D02*
G37*
G36*
X884771D02*
X883069D01*
X881497Y719907D01*
X880293Y718703D01*
X879642Y717131D01*
Y715429D01*
X880293Y713857D01*
X881497Y712653D01*
X883069Y712002D01*
X884771D01*
X886343Y712653D01*
X887547Y713857D01*
X888198Y715429D01*
Y717131D01*
X887547Y718703D01*
X886343Y719907D01*
X884771Y720558D01*
D02*
G37*
G36*
X713152Y716780D02*
X711351D01*
X709687Y716090D01*
X708413Y714817D01*
X707724Y713152D01*
Y711351D01*
X708413Y709687D01*
X709687Y708413D01*
X711351Y707724D01*
X713152D01*
X714817Y708413D01*
X716090Y709687D01*
X716780Y711351D01*
Y713152D01*
X716090Y714817D01*
X714817Y716090D01*
X713152Y716780D01*
D02*
G37*
G36*
X805840Y709798D02*
X803840D01*
X801992Y709033D01*
X800590Y707631D01*
X799188Y709033D01*
X797340Y709798D01*
X795340D01*
X793492Y709033D01*
X792090Y707631D01*
X790688Y709033D01*
X788840Y709798D01*
X786840D01*
X784992Y709033D01*
X783590Y707631D01*
X782188Y709033D01*
X780340Y709798D01*
X778340D01*
X776492Y709033D01*
X775090Y707631D01*
X773688Y709033D01*
X771840Y709798D01*
X769840D01*
X767992Y709033D01*
X766590Y707631D01*
X765188Y709033D01*
X763340Y709798D01*
X761340D01*
X759492Y709033D01*
X758077Y707618D01*
X757312Y705770D01*
Y703770D01*
X758077Y701922D01*
X759492Y700508D01*
X761340Y699742D01*
X763340D01*
X765188Y700508D01*
X766590Y701909D01*
X767992Y700508D01*
X769840Y699742D01*
X771840D01*
X773688Y700508D01*
X775090Y701909D01*
X776492Y700508D01*
X778340Y699742D01*
X780340D01*
X782188Y700508D01*
X783590Y701909D01*
X784992Y700508D01*
X786840Y699742D01*
X788840D01*
X790688Y700508D01*
X792090Y701909D01*
X793492Y700508D01*
X795340Y699742D01*
X797340D01*
X799188Y700508D01*
X800590Y701909D01*
X801992Y700508D01*
X803840Y699742D01*
X805840D01*
X807688Y700508D01*
X809102Y701922D01*
X809868Y703770D01*
Y705770D01*
X809102Y707618D01*
X807688Y709033D01*
X805840Y709798D01*
D02*
G37*
G36*
X204114Y716178D02*
X202313D01*
X200648Y715489D01*
X199375Y714215D01*
X198685Y712551D01*
Y710750D01*
X199375Y709085D01*
X200648Y707812D01*
X202313Y707122D01*
X204114D01*
X205778Y707812D01*
X207052Y709085D01*
X207741Y710750D01*
Y712551D01*
X207052Y714215D01*
X205778Y715489D01*
X204114Y716178D01*
D02*
G37*
G36*
X247044Y712816D02*
X245243D01*
X243578Y712127D01*
X242305Y710853D01*
X241615Y709189D01*
Y707387D01*
X242305Y705723D01*
X243578Y704449D01*
X245243Y703760D01*
X247044D01*
X248708Y704449D01*
X249982Y705723D01*
X250671Y707387D01*
Y709189D01*
X249982Y710853D01*
X248708Y712127D01*
X247044Y712816D01*
D02*
G37*
G36*
X602881Y708362D02*
X601079D01*
X599415Y707673D01*
X598141Y706399D01*
X597452Y704735D01*
Y702933D01*
X598141Y701269D01*
X599415Y699995D01*
X601079Y699306D01*
X602881D01*
X604545Y699995D01*
X605819Y701269D01*
X606508Y702933D01*
Y704735D01*
X605819Y706399D01*
X604545Y707673D01*
X602881Y708362D01*
D02*
G37*
G36*
X275221Y708108D02*
X273419D01*
X271755Y707419D01*
X270481Y706145D01*
X269792Y704481D01*
Y702679D01*
X270481Y701015D01*
X271755Y699741D01*
X273419Y699052D01*
X275221D01*
X276885Y699741D01*
X278159Y701015D01*
X278848Y702679D01*
Y704481D01*
X278159Y706145D01*
X276885Y707419D01*
X275221Y708108D01*
D02*
G37*
G36*
X614644Y703361D02*
X612842D01*
X611178Y702672D01*
X609904Y701398D01*
X609215Y699734D01*
Y697932D01*
X609904Y696268D01*
X611178Y694994D01*
X612842Y694305D01*
X614644D01*
X616308Y694994D01*
X617581Y696268D01*
X618271Y697932D01*
Y699734D01*
X617581Y701398D01*
X616308Y702672D01*
X614644Y703361D01*
D02*
G37*
G36*
X805840Y696298D02*
X803840D01*
X801992Y695533D01*
X800590Y694131D01*
X799188Y695533D01*
X797340Y696298D01*
X795340D01*
X793492Y695533D01*
X792090Y694131D01*
X790688Y695533D01*
X788840Y696298D01*
X786840D01*
X784992Y695533D01*
X783590Y694131D01*
X782188Y695533D01*
X780340Y696298D01*
X778340D01*
X776492Y695533D01*
X775090Y694131D01*
X773688Y695533D01*
X771840Y696298D01*
X769840D01*
X767992Y695533D01*
X766590Y694131D01*
X765188Y695533D01*
X763340Y696298D01*
X761340D01*
X759492Y695533D01*
X758077Y694118D01*
X757312Y692270D01*
Y690270D01*
X758077Y688422D01*
X759492Y687008D01*
X761340Y686242D01*
X763340D01*
X765188Y687008D01*
X766590Y688409D01*
X767992Y687008D01*
X769840Y686242D01*
X771840D01*
X773688Y687008D01*
X775090Y688409D01*
X776492Y687008D01*
X778340Y686242D01*
X780340D01*
X782188Y687008D01*
X783590Y688409D01*
X784992Y687008D01*
X786840Y686242D01*
X788840D01*
X790688Y687008D01*
X792090Y688409D01*
X793492Y687008D01*
X795340Y686242D01*
X797340D01*
X799188Y687008D01*
X800590Y688409D01*
X801992Y687008D01*
X803840Y686242D01*
X805840D01*
X807688Y687008D01*
X809102Y688422D01*
X809868Y690270D01*
Y692270D01*
X809102Y694118D01*
X807688Y695533D01*
X805840Y696298D01*
D02*
G37*
G36*
X630059Y698456D02*
X628257D01*
X626593Y697767D01*
X625319Y696493D01*
X624630Y694829D01*
Y693027D01*
X625319Y691363D01*
X626593Y690089D01*
X628257Y689400D01*
X630059D01*
X631723Y690089D01*
X632997Y691363D01*
X633686Y693027D01*
Y694829D01*
X632997Y696493D01*
X631723Y697767D01*
X630059Y698456D01*
D02*
G37*
G36*
X840321Y692618D02*
X838619D01*
X837047Y691967D01*
X835843Y690763D01*
X835192Y689191D01*
Y687489D01*
X835843Y685917D01*
X837047Y684713D01*
X838619Y684062D01*
X840321D01*
X841893Y684713D01*
X843097Y685917D01*
X843748Y687489D01*
Y689191D01*
X843097Y690763D01*
X841893Y691967D01*
X840321Y692618D01*
D02*
G37*
G36*
X649574Y689820D02*
X647773D01*
X646108Y689131D01*
X644835Y687857D01*
X644145Y686193D01*
Y684391D01*
X644835Y682727D01*
X646108Y681453D01*
X647773Y680764D01*
X649574D01*
X651238Y681453D01*
X652512Y682727D01*
X653201Y684391D01*
Y686193D01*
X652512Y687857D01*
X651238Y689131D01*
X649574Y689820D01*
D02*
G37*
G36*
X724751Y686268D02*
X723049D01*
X721477Y685617D01*
X720273Y684413D01*
X719622Y682841D01*
Y681139D01*
X720273Y679567D01*
X721477Y678363D01*
X723049Y677712D01*
X724751D01*
X726323Y678363D01*
X727527Y679567D01*
X728178Y681139D01*
Y682841D01*
X727527Y684413D01*
X726323Y685617D01*
X724751Y686268D01*
D02*
G37*
G36*
X736181Y681188D02*
X734479D01*
X732907Y680537D01*
X731703Y679333D01*
X731052Y677761D01*
Y676059D01*
X731703Y674487D01*
X732907Y673283D01*
X734479Y672632D01*
X736181D01*
X737753Y673283D01*
X738957Y674487D01*
X739608Y676059D01*
Y677761D01*
X738957Y679333D01*
X737753Y680537D01*
X736181Y681188D01*
D02*
G37*
G36*
X228181D02*
X226479D01*
X224907Y680537D01*
X223703Y679333D01*
X223052Y677761D01*
Y676059D01*
X223703Y674487D01*
X224907Y673283D01*
X226479Y672632D01*
X228181D01*
X229753Y673283D01*
X230957Y674487D01*
X231608Y676059D01*
Y677761D01*
X230957Y679333D01*
X229753Y680537D01*
X228181Y681188D01*
D02*
G37*
G36*
X198757Y678428D02*
X197055D01*
X195483Y677777D01*
X194279Y676573D01*
X193628Y675001D01*
Y673299D01*
X194279Y671727D01*
X195483Y670523D01*
X197055Y669872D01*
X198757D01*
X200329Y670523D01*
X201533Y671727D01*
X202184Y673299D01*
Y675001D01*
X201533Y676573D01*
X200329Y677777D01*
X198757Y678428D01*
D02*
G37*
G36*
X221704Y669306D02*
X220002D01*
X218430Y668655D01*
X217226Y667452D01*
X216575Y665879D01*
Y664177D01*
X217226Y662605D01*
X218430Y661402D01*
X220002Y660750D01*
X221704D01*
X223276Y661402D01*
X224480Y662605D01*
X225131Y664177D01*
Y665879D01*
X224480Y667452D01*
X223276Y668655D01*
X221704Y669306D01*
D02*
G37*
G36*
X438370Y689252D02*
X436199Y688967D01*
X434175Y688129D01*
X432438Y686795D01*
X431104Y685058D01*
X430266Y683034D01*
X429980Y680863D01*
Y667783D01*
X430266Y665611D01*
X431104Y663588D01*
X432438Y661850D01*
X434175Y660517D01*
X436199Y659679D01*
X438370Y659393D01*
X440541Y659679D01*
X442565Y660517D01*
X444302Y661850D01*
X445636Y663588D01*
X446474Y665611D01*
X446760Y667783D01*
Y680863D01*
X446474Y683034D01*
X445636Y685058D01*
X444302Y686795D01*
X442565Y688129D01*
X440541Y688967D01*
X438370Y689252D01*
D02*
G37*
G36*
X199479Y665440D02*
X197777D01*
X196205Y664789D01*
X195001Y663585D01*
X194350Y662013D01*
Y660311D01*
X195001Y658739D01*
X196205Y657535D01*
X197777Y656884D01*
X199479D01*
X201051Y657535D01*
X202255Y658739D01*
X202906Y660311D01*
Y662013D01*
X202255Y663585D01*
X201051Y664789D01*
X199479Y665440D01*
D02*
G37*
G36*
X315405Y664155D02*
X313604D01*
X311940Y663465D01*
X310666Y662192D01*
X309977Y660527D01*
Y658726D01*
X310666Y657062D01*
X311940Y655788D01*
X313604Y655099D01*
X315405D01*
X317070Y655788D01*
X318343Y657062D01*
X319033Y658726D01*
Y660527D01*
X318343Y662192D01*
X317070Y663465D01*
X315405Y664155D01*
D02*
G37*
G36*
X231610Y661082D02*
X229908D01*
X228336Y660431D01*
X227132Y659227D01*
X226481Y657655D01*
Y655953D01*
X227132Y654381D01*
X228336Y653177D01*
X229908Y652526D01*
X231610D01*
X233182Y653177D01*
X234386Y654381D01*
X235037Y655953D01*
Y657655D01*
X234386Y659227D01*
X233182Y660431D01*
X231610Y661082D01*
D02*
G37*
G36*
X66007Y671068D02*
X63533D01*
X61143Y670428D01*
X59000Y669190D01*
X57250Y667440D01*
X56013Y665297D01*
X55372Y662907D01*
Y660433D01*
X56013Y658043D01*
X57250Y655900D01*
X59000Y654150D01*
X61143Y652913D01*
X63533Y652272D01*
X66007D01*
X68397Y652913D01*
X70540Y654150D01*
X72290Y655900D01*
X73527Y658043D01*
X74168Y660433D01*
Y662907D01*
X73527Y665297D01*
X72290Y667440D01*
X70540Y669190D01*
X68397Y670428D01*
X66007Y671068D01*
D02*
G37*
G36*
X40607D02*
X38133D01*
X35742Y670428D01*
X33600Y669190D01*
X31850Y667440D01*
X30612Y665297D01*
X29972Y662907D01*
Y660433D01*
X30612Y658043D01*
X31850Y655900D01*
X33600Y654150D01*
X35742Y652913D01*
X38133Y652272D01*
X40607D01*
X42997Y652913D01*
X45141Y654150D01*
X46890Y655900D01*
X48127Y658043D01*
X48768Y660433D01*
Y662907D01*
X48127Y665297D01*
X46890Y667440D01*
X45141Y669190D01*
X42997Y670428D01*
X40607Y671068D01*
D02*
G37*
G36*
X1031125Y665838D02*
X1028814D01*
X1026582Y665240D01*
X1024580Y664084D01*
X1022946Y662450D01*
X1021790Y660448D01*
X1021192Y658215D01*
Y655904D01*
X1021790Y653672D01*
X1022946Y651670D01*
X1024580Y650036D01*
X1026582Y648880D01*
X1028814Y648282D01*
X1031125D01*
X1033358Y648880D01*
X1035360Y650036D01*
X1036994Y651670D01*
X1038150Y653672D01*
X1038748Y655904D01*
Y658215D01*
X1038150Y660448D01*
X1036994Y662450D01*
X1035360Y664084D01*
X1033358Y665240D01*
X1031125Y665838D01*
D02*
G37*
G36*
X464401Y655788D02*
X462699D01*
X461127Y655137D01*
X459923Y653933D01*
X459272Y652361D01*
Y650659D01*
X459923Y649087D01*
X461127Y647883D01*
X462699Y647232D01*
X464401D01*
X465973Y647883D01*
X467177Y649087D01*
X467828Y650659D01*
Y652361D01*
X467177Y653933D01*
X465973Y655137D01*
X464401Y655788D01*
D02*
G37*
G36*
X688357Y676805D02*
X598310D01*
X597616Y676667D01*
X597028Y676274D01*
X596635Y675686D01*
X596497Y674992D01*
Y647020D01*
X596635Y646326D01*
X597028Y645738D01*
X597616Y645345D01*
X598310Y645207D01*
X688357D01*
X689051Y645345D01*
X689639Y645738D01*
X690032Y646326D01*
X690170Y647020D01*
Y674992D01*
X690032Y675686D01*
X689639Y676274D01*
X689051Y676667D01*
X688357Y676805D01*
D02*
G37*
G36*
X188293Y646715D02*
X186591D01*
X185019Y646063D01*
X183815Y644860D01*
X183164Y643288D01*
Y641586D01*
X183815Y640013D01*
X185019Y638810D01*
X186591Y638159D01*
X188293D01*
X189865Y638810D01*
X191069Y640013D01*
X191720Y641586D01*
Y643288D01*
X191069Y644860D01*
X189865Y646063D01*
X188293Y646715D01*
D02*
G37*
G36*
X913981Y640548D02*
X912279D01*
X910707Y639897D01*
X909503Y638693D01*
X908852Y637121D01*
Y635419D01*
X909503Y633847D01*
X910707Y632643D01*
X912279Y631992D01*
X913981D01*
X915553Y632643D01*
X916757Y633847D01*
X917408Y635419D01*
Y637121D01*
X916757Y638693D01*
X915553Y639897D01*
X913981Y640548D01*
D02*
G37*
G36*
X903821D02*
X902119D01*
X900547Y639897D01*
X899343Y638693D01*
X898692Y637121D01*
Y635419D01*
X899343Y633847D01*
X900547Y632643D01*
X902119Y631992D01*
X903821D01*
X905393Y632643D01*
X906597Y633847D01*
X907248Y635419D01*
Y637121D01*
X906597Y638693D01*
X905393Y639897D01*
X903821Y640548D01*
D02*
G37*
G36*
X106261D02*
X104559D01*
X102987Y639897D01*
X101783Y638693D01*
X101132Y637121D01*
Y635419D01*
X101783Y633847D01*
X102987Y632643D01*
X104559Y631992D01*
X106261D01*
X107833Y632643D01*
X109037Y633847D01*
X109688Y635419D01*
Y637121D01*
X109037Y638693D01*
X107833Y639897D01*
X106261Y640548D01*
D02*
G37*
G36*
X193891Y637295D02*
X192189D01*
X190617Y636643D01*
X189413Y635440D01*
X188762Y633868D01*
Y632166D01*
X189413Y630593D01*
X190617Y629390D01*
X192189Y628739D01*
X193891D01*
X195463Y629390D01*
X196667Y630593D01*
X197318Y632166D01*
Y633868D01*
X196667Y635440D01*
X195463Y636643D01*
X193891Y637295D01*
D02*
G37*
G36*
X66007Y645668D02*
X63533D01*
X61143Y645028D01*
X59000Y643790D01*
X57250Y642040D01*
X56013Y639897D01*
X55372Y637507D01*
Y635033D01*
X56013Y632643D01*
X57250Y630499D01*
X59000Y628750D01*
X61143Y627513D01*
X63533Y626872D01*
X66007D01*
X68397Y627513D01*
X70540Y628750D01*
X72290Y630499D01*
X73527Y632643D01*
X74168Y635033D01*
Y637507D01*
X73527Y639897D01*
X72290Y642040D01*
X70540Y643790D01*
X68397Y645028D01*
X66007Y645668D01*
D02*
G37*
G36*
X40607D02*
X38133D01*
X35742Y645028D01*
X33600Y643790D01*
X31850Y642040D01*
X30612Y639897D01*
X29972Y637507D01*
Y635033D01*
X30612Y632643D01*
X31850Y630499D01*
X33600Y628750D01*
X35742Y627513D01*
X38133Y626872D01*
X40607D01*
X42997Y627513D01*
X45141Y628750D01*
X46890Y630499D01*
X48127Y632643D01*
X48768Y635033D01*
Y637507D01*
X48127Y639897D01*
X46890Y642040D01*
X45141Y643790D01*
X42997Y645028D01*
X40607Y645668D01*
D02*
G37*
G36*
X953351Y629118D02*
X951649D01*
X950077Y628467D01*
X948873Y627263D01*
X948222Y625691D01*
X947041D01*
X946390Y627263D01*
X945186Y628467D01*
X943614Y629118D01*
X941912D01*
X940340Y628467D01*
X939137Y627263D01*
X938485Y625691D01*
X937305D01*
X936654Y627263D01*
X935450Y628467D01*
X933878Y629118D01*
X932176D01*
X930603Y628467D01*
X929400Y627263D01*
X928749Y625691D01*
X927568D01*
X926917Y627263D01*
X925713Y628467D01*
X924141Y629118D01*
X922439D01*
X920867Y628467D01*
X919663Y627263D01*
X919012Y625691D01*
Y623989D01*
X919663Y622417D01*
X920867Y621213D01*
X922439Y620562D01*
X924141D01*
X925713Y621213D01*
X926917Y622417D01*
X927568Y623989D01*
X928749D01*
X929400Y622417D01*
X930603Y621213D01*
X932176Y620562D01*
X933878D01*
X935450Y621213D01*
X936654Y622417D01*
X937305Y623989D01*
X938485D01*
X939137Y622417D01*
X940340Y621213D01*
X941912Y620562D01*
X943614D01*
X945186Y621213D01*
X946390Y622417D01*
X947041Y623989D01*
X948222D01*
X948873Y622417D01*
X950077Y621213D01*
X951649Y620562D01*
X953351D01*
X954923Y621213D01*
X956127Y622417D01*
X956778Y623989D01*
Y625691D01*
X956127Y627263D01*
X954923Y628467D01*
X953351Y629118D01*
D02*
G37*
G36*
X204458Y633970D02*
X202757D01*
X201184Y633319D01*
X199981Y632116D01*
X199329Y630543D01*
Y628842D01*
X199981Y627269D01*
X201184Y626066D01*
X202757Y625414D01*
X204458D01*
X206031Y626066D01*
X207234Y627269D01*
X207885Y628842D01*
Y630543D01*
X207234Y632116D01*
X206031Y633319D01*
X204458Y633970D01*
D02*
G37*
G36*
X162181Y632001D02*
X160479D01*
X158907Y631350D01*
X157703Y630146D01*
X157052Y628574D01*
Y626872D01*
X157703Y625300D01*
X158907Y624096D01*
X160479Y623445D01*
X162181D01*
X163753Y624096D01*
X164957Y625300D01*
X165608Y626872D01*
Y628574D01*
X164957Y630146D01*
X163753Y631350D01*
X162181Y632001D01*
D02*
G37*
G36*
X1031125Y640838D02*
X1028814D01*
X1026582Y640240D01*
X1024580Y639084D01*
X1022946Y637450D01*
X1021790Y635448D01*
X1021192Y633215D01*
Y630904D01*
X1021790Y628672D01*
X1022946Y626670D01*
X1024580Y625036D01*
X1026582Y623880D01*
X1028814Y623282D01*
X1031125D01*
X1033358Y623880D01*
X1035360Y625036D01*
X1036994Y626670D01*
X1038150Y628672D01*
X1038748Y630904D01*
Y633215D01*
X1038150Y635448D01*
X1036994Y637450D01*
X1035360Y639084D01*
X1033358Y640240D01*
X1031125Y640838D01*
D02*
G37*
G36*
X605371Y630388D02*
X603669D01*
X602097Y629737D01*
X600893Y628533D01*
X600242Y626961D01*
Y625259D01*
X600893Y623687D01*
X602097Y622483D01*
X603669Y621832D01*
X605371D01*
X606943Y622483D01*
X608147Y623687D01*
X608798Y625259D01*
Y626961D01*
X608147Y628533D01*
X606943Y629737D01*
X605371Y630388D01*
D02*
G37*
G36*
X595211D02*
X593509D01*
X591937Y629737D01*
X590733Y628533D01*
X590082Y626961D01*
Y625259D01*
X590733Y623687D01*
X591937Y622483D01*
X593509Y621832D01*
X595211D01*
X596783Y622483D01*
X597987Y623687D01*
X598638Y625259D01*
Y626961D01*
X597987Y628533D01*
X596783Y629737D01*
X595211Y630388D01*
D02*
G37*
G36*
X585051D02*
X583349D01*
X581777Y629737D01*
X580573Y628533D01*
X579922Y626961D01*
Y625259D01*
X580573Y623687D01*
X581777Y622483D01*
X583349Y621832D01*
X585051D01*
X586623Y622483D01*
X587827Y623687D01*
X588478Y625259D01*
Y626961D01*
X587827Y628533D01*
X586623Y629737D01*
X585051Y630388D01*
D02*
G37*
G36*
X574891D02*
X573189D01*
X571617Y629737D01*
X570413Y628533D01*
X569762Y626961D01*
Y625259D01*
X570413Y623687D01*
X571617Y622483D01*
X573189Y621832D01*
X574891D01*
X576463Y622483D01*
X577667Y623687D01*
X578318Y625259D01*
Y626961D01*
X577667Y628533D01*
X576463Y629737D01*
X574891Y630388D01*
D02*
G37*
G36*
X564731D02*
X563029D01*
X561457Y629737D01*
X560253Y628533D01*
X559602Y626961D01*
Y625259D01*
X560253Y623687D01*
X561457Y622483D01*
X563029Y621832D01*
X564731D01*
X566303Y622483D01*
X567507Y623687D01*
X568158Y625259D01*
Y626961D01*
X567507Y628533D01*
X566303Y629737D01*
X564731Y630388D01*
D02*
G37*
G36*
X913721Y629568D02*
X912020D01*
X910447Y628917D01*
X909244Y627713D01*
X908592Y626141D01*
Y624439D01*
X909244Y622867D01*
X910447Y621663D01*
X912020Y621012D01*
X913721D01*
X915294Y621663D01*
X916497Y622867D01*
X917148Y624439D01*
Y626141D01*
X916497Y627713D01*
X915294Y628917D01*
X913721Y629568D01*
D02*
G37*
G36*
X903561D02*
X901860D01*
X900287Y628917D01*
X899084Y627713D01*
X898432Y626141D01*
Y624439D01*
X899084Y622867D01*
X900287Y621663D01*
X901860Y621012D01*
X903561D01*
X905134Y621663D01*
X906337Y622867D01*
X906988Y624439D01*
Y626141D01*
X906337Y627713D01*
X905134Y628917D01*
X903561Y629568D01*
D02*
G37*
G36*
X137724Y627588D02*
X136022D01*
X134450Y626937D01*
X133246Y625733D01*
X132595Y624161D01*
Y622459D01*
X133246Y620887D01*
X134450Y619683D01*
X136022Y619032D01*
X137724D01*
X139296Y619683D01*
X140500Y620887D01*
X141151Y622459D01*
Y624161D01*
X140500Y625733D01*
X139296Y626937D01*
X137724Y627588D01*
D02*
G37*
G36*
X327485Y621728D02*
X325295D01*
X323179Y621161D01*
X321283Y620066D01*
X319734Y618517D01*
X319250Y617679D01*
X317837Y617771D01*
X317529Y618515D01*
X316255Y619789D01*
X314591Y620478D01*
X312789D01*
X311125Y619789D01*
X309851Y618515D01*
X309162Y616851D01*
Y615049D01*
X309851Y613385D01*
X311125Y612111D01*
X312789Y611422D01*
X314591D01*
X316255Y612111D01*
X316802Y612659D01*
X317637Y612433D01*
X318111Y612171D01*
X318639Y610199D01*
X319734Y608303D01*
X321283Y606754D01*
X323179Y605659D01*
X325295Y605092D01*
X327485D01*
X329601Y605659D01*
X331497Y606754D01*
X333046Y608303D01*
X334141Y610199D01*
X334708Y612315D01*
Y614505D01*
X334141Y616621D01*
X333046Y618517D01*
X331497Y620066D01*
X329601Y621161D01*
X327485Y621728D01*
D02*
G37*
G36*
X953351Y618958D02*
X951649D01*
X950077Y618307D01*
X948873Y617103D01*
X948222Y615531D01*
X947041D01*
X946390Y617103D01*
X945186Y618307D01*
X943614Y618958D01*
X941912D01*
X940340Y618307D01*
X939137Y617103D01*
X938485Y615531D01*
X937305D01*
X936654Y617103D01*
X935450Y618307D01*
X933878Y618958D01*
X932176D01*
X930603Y618307D01*
X929400Y617103D01*
X928749Y615531D01*
X927568D01*
X926917Y617103D01*
X925713Y618307D01*
X924141Y618958D01*
X922439D01*
X920867Y618307D01*
X919663Y617103D01*
X919012Y615531D01*
Y613829D01*
X919663Y612257D01*
X920867Y611053D01*
X922439Y610402D01*
X924141D01*
X925713Y611053D01*
X926917Y612257D01*
X927568Y613829D01*
X928749D01*
X929400Y612257D01*
X930603Y611053D01*
X932176Y610402D01*
X933878D01*
X935450Y611053D01*
X936654Y612257D01*
X937305Y613829D01*
X938485D01*
X939137Y612257D01*
X940340Y611053D01*
X941912Y610402D01*
X943614D01*
X945186Y611053D01*
X946390Y612257D01*
X947041Y613829D01*
X948222D01*
X948873Y612257D01*
X950077Y611053D01*
X951649Y610402D01*
X953351D01*
X954923Y611053D01*
X956127Y612257D01*
X956778Y613829D01*
Y615531D01*
X956127Y617103D01*
X954923Y618307D01*
X953351Y618958D01*
D02*
G37*
G36*
X96101Y624038D02*
X94399D01*
X92827Y623387D01*
X91623Y622183D01*
X90972Y620611D01*
Y618909D01*
X91623Y617337D01*
X92827Y616133D01*
X94399Y615482D01*
X96101D01*
X97673Y616133D01*
X98877Y617337D01*
X99528Y618909D01*
Y620611D01*
X98877Y622183D01*
X97673Y623387D01*
X96101Y624038D01*
D02*
G37*
G36*
X913981Y618958D02*
X912279D01*
X910707Y618307D01*
X909503Y617103D01*
X908852Y615531D01*
Y613829D01*
X909503Y612257D01*
X910707Y611053D01*
X912279Y610402D01*
X913981D01*
X915553Y611053D01*
X916757Y612257D01*
X917408Y613829D01*
Y615531D01*
X916757Y617103D01*
X915553Y618307D01*
X913981Y618958D01*
D02*
G37*
G36*
X903821D02*
X902119D01*
X900547Y618307D01*
X899343Y617103D01*
X898692Y615531D01*
Y613829D01*
X899343Y612257D01*
X900547Y611053D01*
X902119Y610402D01*
X903821D01*
X905393Y611053D01*
X906597Y612257D01*
X907248Y613829D01*
Y615531D01*
X906597Y617103D01*
X905393Y618307D01*
X903821Y618958D01*
D02*
G37*
G36*
X163475Y618641D02*
X161772D01*
X160200Y617989D01*
X158997Y616786D01*
X158345Y615214D01*
Y613512D01*
X158997Y611939D01*
X160200Y610736D01*
X161772Y610084D01*
X163475D01*
X165047Y610736D01*
X166250Y611939D01*
X166901Y613512D01*
Y615214D01*
X166250Y616786D01*
X165047Y617989D01*
X163475Y618641D01*
D02*
G37*
G36*
X585051Y617688D02*
X583349D01*
X581777Y617037D01*
X580573Y615833D01*
X579922Y614261D01*
Y612559D01*
X580573Y610987D01*
X581777Y609783D01*
X583349Y609132D01*
X585051D01*
X586623Y609783D01*
X587827Y610987D01*
X588478Y612559D01*
Y614261D01*
X587827Y615833D01*
X586623Y617037D01*
X585051Y617688D01*
D02*
G37*
G36*
X574891D02*
X573189D01*
X571617Y617037D01*
X570413Y615833D01*
X569762Y614261D01*
Y612559D01*
X570413Y610987D01*
X571617Y609783D01*
X573189Y609132D01*
X574891D01*
X576463Y609783D01*
X577667Y610987D01*
X578318Y612559D01*
Y614261D01*
X577667Y615833D01*
X576463Y617037D01*
X574891Y617688D01*
D02*
G37*
G36*
X564731D02*
X563029D01*
X561457Y617037D01*
X560253Y615833D01*
X559602Y614261D01*
Y612559D01*
X560253Y610987D01*
X561457Y609783D01*
X563029Y609132D01*
X564731D01*
X566303Y609783D01*
X567507Y610987D01*
X568158Y612559D01*
Y614261D01*
X567507Y615833D01*
X566303Y617037D01*
X564731Y617688D01*
D02*
G37*
G36*
X403685Y621728D02*
X401495D01*
X399379Y621161D01*
X397483Y620066D01*
X395934Y618517D01*
X394839Y616621D01*
X394272Y614505D01*
Y612315D01*
X394839Y610199D01*
X395934Y608303D01*
X397483Y606754D01*
X399379Y605659D01*
X401495Y605092D01*
X403685D01*
X405801Y605659D01*
X407697Y606754D01*
X409246Y608303D01*
X410341Y610199D01*
X410908Y612315D01*
Y614505D01*
X410341Y616621D01*
X409246Y618517D01*
X407697Y620066D01*
X405801Y621161D01*
X403685Y621728D01*
D02*
G37*
G36*
X953351Y607528D02*
X951649D01*
X950077Y606877D01*
X948873Y605673D01*
X948222Y604101D01*
X947041D01*
X946390Y605673D01*
X945186Y606877D01*
X943614Y607528D01*
X941912D01*
X940340Y606877D01*
X939137Y605673D01*
X938485Y604101D01*
X937305D01*
X936654Y605673D01*
X935450Y606877D01*
X933878Y607528D01*
X932176D01*
X930603Y606877D01*
X929400Y605673D01*
X928749Y604101D01*
X927568D01*
X926917Y605673D01*
X925713Y606877D01*
X924141Y607528D01*
X922439D01*
X920867Y606877D01*
X919663Y605673D01*
X919012Y604101D01*
Y602399D01*
X919663Y600827D01*
X920867Y599623D01*
X922439Y598972D01*
X924141D01*
X925713Y599623D01*
X926917Y600827D01*
X927568Y602399D01*
X928749D01*
X929400Y600827D01*
X930603Y599623D01*
X932176Y598972D01*
X933878D01*
X935450Y599623D01*
X936654Y600827D01*
X937305Y602399D01*
X938485D01*
X939137Y600827D01*
X940340Y599623D01*
X941912Y598972D01*
X943614D01*
X945186Y599623D01*
X946390Y600827D01*
X947041Y602399D01*
X948222D01*
X948873Y600827D01*
X950077Y599623D01*
X951649Y598972D01*
X953351D01*
X954923Y599623D01*
X956127Y600827D01*
X956778Y602399D01*
Y604101D01*
X956127Y605673D01*
X954923Y606877D01*
X953351Y607528D01*
D02*
G37*
G36*
X83349Y610322D02*
X81647D01*
X80075Y609671D01*
X78871Y608467D01*
X78220Y606895D01*
Y605193D01*
X78871Y603621D01*
X80075Y602417D01*
X81647Y601766D01*
X83349D01*
X84922Y602417D01*
X86125Y603621D01*
X86776Y605193D01*
Y606895D01*
X86125Y608467D01*
X84922Y609671D01*
X83349Y610322D01*
D02*
G37*
G36*
X194732Y608088D02*
X193030D01*
X191458Y607437D01*
X190254Y606233D01*
X189603Y604661D01*
Y602959D01*
X190254Y601387D01*
X191458Y600183D01*
X193030Y599532D01*
X194732D01*
X196304Y600183D01*
X197508Y601387D01*
X198159Y602959D01*
Y604661D01*
X197508Y606233D01*
X196304Y607437D01*
X194732Y608088D01*
D02*
G37*
G36*
X258441Y607927D02*
X256739D01*
X255167Y607276D01*
X253964Y606073D01*
X253312Y604500D01*
Y602798D01*
X253964Y601226D01*
X255167Y600023D01*
X256739Y599371D01*
X258441D01*
X260014Y600023D01*
X261217Y601226D01*
X261868Y602798D01*
Y604500D01*
X261217Y606073D01*
X260014Y607276D01*
X258441Y607927D01*
D02*
G37*
G36*
X295573Y607742D02*
X293871D01*
X292299Y607091D01*
X291096Y605887D01*
X290444Y604315D01*
Y602613D01*
X291096Y601041D01*
X292299Y599837D01*
X293871Y599186D01*
X295573D01*
X297146Y599837D01*
X298349Y601041D01*
X299000Y602613D01*
Y604315D01*
X298349Y605887D01*
X297146Y607091D01*
X295573Y607742D01*
D02*
G37*
G36*
X913981Y607528D02*
X912279D01*
X910707Y606877D01*
X909503Y605673D01*
X908852Y604101D01*
Y602399D01*
X909503Y600827D01*
X910707Y599623D01*
X912279Y598972D01*
X913981D01*
X915553Y599623D01*
X916757Y600827D01*
X917408Y602399D01*
Y604101D01*
X916757Y605673D01*
X915553Y606877D01*
X913981Y607528D01*
D02*
G37*
G36*
X903821D02*
X902119D01*
X900547Y606877D01*
X899343Y605673D01*
X898692Y604101D01*
Y602399D01*
X899343Y600827D01*
X900547Y599623D01*
X902119Y598972D01*
X903821D01*
X905393Y599623D01*
X906597Y600827D01*
X907248Y602399D01*
Y604101D01*
X906597Y605673D01*
X905393Y606877D01*
X903821Y607528D01*
D02*
G37*
G36*
X1031125Y615838D02*
X1028814D01*
X1026582Y615240D01*
X1024580Y614084D01*
X1022946Y612450D01*
X1021790Y610448D01*
X1021192Y608215D01*
Y605904D01*
X1021790Y603672D01*
X1022946Y601670D01*
X1024580Y600036D01*
X1026582Y598880D01*
X1028814Y598282D01*
X1031125D01*
X1033358Y598880D01*
X1035360Y600036D01*
X1036994Y601670D01*
X1038150Y603672D01*
X1038748Y605904D01*
Y608215D01*
X1038150Y610448D01*
X1036994Y612450D01*
X1035360Y614084D01*
X1033358Y615240D01*
X1031125Y615838D01*
D02*
G37*
G36*
X779361Y606258D02*
X777659D01*
X776087Y605607D01*
X774883Y604403D01*
X774232Y602831D01*
Y601129D01*
X774883Y599557D01*
X776087Y598353D01*
X777659Y597702D01*
X779361D01*
X780933Y598353D01*
X782137Y599557D01*
X782788Y601129D01*
Y602831D01*
X782137Y604403D01*
X780933Y605607D01*
X779361Y606258D01*
D02*
G37*
G36*
X154648Y603972D02*
X152946D01*
X151374Y603321D01*
X150170Y602117D01*
X149519Y600545D01*
Y598843D01*
X150170Y597271D01*
X151374Y596067D01*
X152946Y595416D01*
X154648D01*
X156220Y596067D01*
X157424Y597271D01*
X158075Y598843D01*
Y600545D01*
X157424Y602117D01*
X156220Y603321D01*
X154648Y603972D01*
D02*
G37*
G36*
X132169Y601588D02*
X130467D01*
X128895Y600937D01*
X127691Y599733D01*
X127040Y598161D01*
Y596459D01*
X127691Y594887D01*
X128895Y593683D01*
X130467Y593032D01*
X132169D01*
X133741Y593683D01*
X134945Y594887D01*
X135596Y596459D01*
Y598161D01*
X134945Y599733D01*
X133741Y600937D01*
X132169Y601588D01*
D02*
G37*
G36*
X873341Y601178D02*
X871639D01*
X870067Y600527D01*
X868863Y599323D01*
X868212Y597751D01*
Y596049D01*
X868863Y594477D01*
X870067Y593273D01*
X871639Y592622D01*
X873341D01*
X874913Y593273D01*
X876117Y594477D01*
X876768Y596049D01*
Y597751D01*
X876117Y599323D01*
X874913Y600527D01*
X873341Y601178D01*
D02*
G37*
G36*
X861911D02*
X860209D01*
X858637Y600527D01*
X857433Y599323D01*
X856782Y597751D01*
Y596049D01*
X857433Y594477D01*
X858637Y593273D01*
X860209Y592622D01*
X861911D01*
X863483Y593273D01*
X864687Y594477D01*
X865338Y596049D01*
Y597751D01*
X864687Y599323D01*
X863483Y600527D01*
X861911Y601178D01*
D02*
G37*
G36*
X851751D02*
X850049D01*
X848477Y600527D01*
X847273Y599323D01*
X846622Y597751D01*
Y596049D01*
X847273Y594477D01*
X848477Y593273D01*
X850049Y592622D01*
X851751D01*
X853323Y593273D01*
X854527Y594477D01*
X855178Y596049D01*
Y597751D01*
X854527Y599323D01*
X853323Y600527D01*
X851751Y601178D01*
D02*
G37*
G36*
X143472Y597114D02*
X141770D01*
X140198Y596463D01*
X138994Y595259D01*
X138343Y593687D01*
Y591985D01*
X138994Y590413D01*
X140198Y589209D01*
X141770Y588558D01*
X143472D01*
X145044Y589209D01*
X146248Y590413D01*
X146899Y591985D01*
Y593687D01*
X146248Y595259D01*
X145044Y596463D01*
X143472Y597114D01*
D02*
G37*
G36*
X804184Y596361D02*
X802483D01*
X800910Y595709D01*
X799707Y594506D01*
X799055Y592934D01*
Y591232D01*
X799707Y589659D01*
X800910Y588456D01*
X802483Y587805D01*
X804184D01*
X805757Y588456D01*
X806960Y589659D01*
X807611Y591232D01*
Y592934D01*
X806960Y594506D01*
X805757Y595709D01*
X804184Y596361D01*
D02*
G37*
G36*
X913981Y596098D02*
X912279D01*
X910707Y595447D01*
X909503Y594243D01*
X908852Y592671D01*
Y590969D01*
X909503Y589397D01*
X910707Y588193D01*
X912279Y587542D01*
X913981D01*
X915553Y588193D01*
X916757Y589397D01*
X917408Y590969D01*
Y592671D01*
X916757Y594243D01*
X915553Y595447D01*
X913981Y596098D01*
D02*
G37*
G36*
X903821D02*
X902119D01*
X900547Y595447D01*
X899343Y594243D01*
X898692Y592671D01*
Y590969D01*
X899343Y589397D01*
X900547Y588193D01*
X902119Y587542D01*
X903821D01*
X905393Y588193D01*
X906597Y589397D01*
X907248Y590969D01*
Y592671D01*
X906597Y594243D01*
X905393Y595447D01*
X903821Y596098D01*
D02*
G37*
G36*
X789521D02*
X787819D01*
X786247Y595447D01*
X785043Y594243D01*
X784392Y592671D01*
Y590969D01*
X785043Y589397D01*
X786247Y588193D01*
X787819Y587542D01*
X789521D01*
X791093Y588193D01*
X792297Y589397D01*
X792948Y590969D01*
Y592671D01*
X792297Y594243D01*
X791093Y595447D01*
X789521Y596098D01*
D02*
G37*
G36*
X851751Y591018D02*
X850049D01*
X848477Y590367D01*
X847273Y589163D01*
X846622Y587591D01*
Y585889D01*
X847273Y584317D01*
X848477Y583113D01*
X850049Y582462D01*
X851751D01*
X853323Y583113D01*
X854527Y584317D01*
X855178Y585889D01*
Y587591D01*
X854527Y589163D01*
X853323Y590367D01*
X851751Y591018D01*
D02*
G37*
G36*
X841591D02*
X839889D01*
X838317Y590367D01*
X837113Y589163D01*
X836462Y587591D01*
Y585889D01*
X837113Y584317D01*
X838317Y583113D01*
X839889Y582462D01*
X841591D01*
X843163Y583113D01*
X844367Y584317D01*
X845018Y585889D01*
Y587591D01*
X844367Y589163D01*
X843163Y590367D01*
X841591Y591018D01*
D02*
G37*
G36*
X403685Y596328D02*
X401495D01*
X399379Y595761D01*
X397483Y594666D01*
X395934Y593117D01*
X394839Y591221D01*
X394272Y589105D01*
Y586915D01*
X394839Y584799D01*
X395934Y582903D01*
X397483Y581354D01*
X399379Y580259D01*
X401495Y579692D01*
X403685D01*
X405801Y580259D01*
X407697Y581354D01*
X409246Y582903D01*
X410341Y584799D01*
X410908Y586915D01*
Y589105D01*
X410341Y591221D01*
X409246Y593117D01*
X407697Y594666D01*
X405801Y595761D01*
X403685Y596328D01*
D02*
G37*
G36*
X327485D02*
X325295D01*
X323179Y595761D01*
X321283Y594666D01*
X319734Y593117D01*
X318639Y591221D01*
X318072Y589105D01*
Y586915D01*
X318639Y584799D01*
X319734Y582903D01*
X321283Y581354D01*
X323179Y580259D01*
X325295Y579692D01*
X327485D01*
X329601Y580259D01*
X331497Y581354D01*
X333046Y582903D01*
X334141Y584799D01*
X334708Y586915D01*
Y589105D01*
X334141Y591221D01*
X333046Y593117D01*
X331497Y594666D01*
X329601Y595761D01*
X327485Y596328D01*
D02*
G37*
G36*
X269815Y587783D02*
X268014D01*
X266350Y587094D01*
X265076Y585820D01*
X264387Y584156D01*
Y582355D01*
X265076Y580690D01*
X266350Y579417D01*
X268014Y578727D01*
X269815D01*
X271480Y579417D01*
X272753Y580690D01*
X273443Y582355D01*
Y584156D01*
X272753Y585820D01*
X271480Y587094D01*
X269815Y587783D01*
D02*
G37*
G36*
X141821Y587208D02*
X140119D01*
X138547Y586557D01*
X137343Y585353D01*
X136692Y583781D01*
Y582079D01*
X137343Y580507D01*
X138547Y579303D01*
X140119Y578652D01*
X141821D01*
X143393Y579303D01*
X144597Y580507D01*
X145248Y582079D01*
Y583781D01*
X144597Y585353D01*
X143393Y586557D01*
X141821Y587208D01*
D02*
G37*
G36*
X832701Y585938D02*
X830999D01*
X829427Y585287D01*
X828223Y584083D01*
X827572Y582511D01*
Y580809D01*
X828223Y579237D01*
X829427Y578033D01*
X830999Y577382D01*
X832701D01*
X834273Y578033D01*
X835477Y579237D01*
X836128Y580809D01*
Y582511D01*
X835477Y584083D01*
X834273Y585287D01*
X832701Y585938D01*
D02*
G37*
G36*
X53937Y598892D02*
X52235D01*
X50663Y598241D01*
X49459Y597037D01*
X48808Y595465D01*
Y593763D01*
X49459Y592191D01*
X50663Y590987D01*
X52235Y590336D01*
X53937D01*
X55509Y590987D01*
X55812Y591290D01*
X56828Y590510D01*
X56013Y589098D01*
X55372Y586707D01*
Y584233D01*
X56013Y581842D01*
X57250Y579700D01*
X59000Y577950D01*
X61143Y576712D01*
X63533Y576072D01*
X66007D01*
X68397Y576712D01*
X70540Y577950D01*
X72290Y579700D01*
X73527Y581842D01*
X74168Y584233D01*
Y586707D01*
X73527Y589098D01*
X72290Y591241D01*
X70540Y592990D01*
X68397Y594228D01*
X66007Y594868D01*
X63533D01*
X61143Y594228D01*
X59000Y592990D01*
X58008Y591999D01*
X56931Y592718D01*
X57364Y593763D01*
Y595465D01*
X56713Y597037D01*
X55509Y598241D01*
X53937Y598892D01*
D02*
G37*
G36*
X40607Y594868D02*
X38133D01*
X35742Y594228D01*
X33600Y592990D01*
X31850Y591241D01*
X30612Y589098D01*
X29972Y586707D01*
Y584233D01*
X30612Y581842D01*
X31850Y579700D01*
X33600Y577950D01*
X35742Y576712D01*
X38133Y576072D01*
X40607D01*
X42997Y576712D01*
X45141Y577950D01*
X46890Y579700D01*
X48127Y581842D01*
X48768Y584233D01*
Y586707D01*
X48127Y589098D01*
X46890Y591241D01*
X45141Y592990D01*
X42997Y594228D01*
X40607Y594868D01*
D02*
G37*
G36*
X202567Y584668D02*
X200865D01*
X199293Y584017D01*
X198089Y582813D01*
X197438Y581241D01*
Y579539D01*
X197944Y578318D01*
X197437Y577236D01*
X197269Y577048D01*
X195697Y576397D01*
X194493Y575193D01*
X194362Y574877D01*
X192988D01*
X192857Y575193D01*
X191653Y576397D01*
X190081Y577048D01*
X188379D01*
X186807Y576397D01*
X185603Y575193D01*
X184952Y573621D01*
Y571919D01*
X185603Y570347D01*
X186807Y569143D01*
X188379Y568492D01*
X190081D01*
X191653Y569143D01*
X192857Y570347D01*
X192988Y570663D01*
X194362D01*
X194493Y570347D01*
X195697Y569143D01*
X197269Y568492D01*
X198971D01*
X200543Y569143D01*
X201747Y570347D01*
X202398Y571919D01*
Y573621D01*
X201892Y574842D01*
X202399Y575924D01*
X202567Y576112D01*
X204139Y576763D01*
X205343Y577967D01*
X205994Y579539D01*
Y581241D01*
X205343Y582813D01*
X204139Y584017D01*
X202567Y584668D01*
D02*
G37*
G36*
X244890Y583335D02*
X243188D01*
X241616Y582684D01*
X240412Y581480D01*
X239761Y579908D01*
Y578206D01*
X240412Y576634D01*
X241616Y575430D01*
X243188Y574779D01*
X244890D01*
X246462Y575430D01*
X247666Y576634D01*
X248317Y578206D01*
Y579908D01*
X247666Y581480D01*
X246462Y582684D01*
X244890Y583335D01*
D02*
G37*
G36*
X1031125Y590838D02*
X1028814D01*
X1026582Y590240D01*
X1024580Y589084D01*
X1022946Y587450D01*
X1021790Y585448D01*
X1021192Y583215D01*
Y580904D01*
X1021790Y578672D01*
X1022946Y576670D01*
X1024580Y575036D01*
X1026582Y573880D01*
X1028814Y573282D01*
X1031125D01*
X1033358Y573880D01*
X1035360Y575036D01*
X1036994Y576670D01*
X1038150Y578672D01*
X1038748Y580904D01*
Y583215D01*
X1038150Y585448D01*
X1036994Y587450D01*
X1035360Y589084D01*
X1033358Y590240D01*
X1031125Y590838D01*
D02*
G37*
G36*
X851751Y580858D02*
X850049D01*
X848477Y580207D01*
X847273Y579003D01*
X846622Y577431D01*
Y575729D01*
X847273Y574157D01*
X848477Y572953D01*
X850049Y572302D01*
X851751D01*
X853323Y572953D01*
X854527Y574157D01*
X855178Y575729D01*
Y577431D01*
X854527Y579003D01*
X853323Y580207D01*
X851751Y580858D01*
D02*
G37*
G36*
X841591D02*
X839889D01*
X838317Y580207D01*
X837113Y579003D01*
X836462Y577431D01*
Y575729D01*
X837113Y574157D01*
X838317Y572953D01*
X839889Y572302D01*
X841591D01*
X843163Y572953D01*
X844367Y574157D01*
X845018Y575729D01*
Y577431D01*
X844367Y579003D01*
X843163Y580207D01*
X841591Y580858D01*
D02*
G37*
G36*
X913981Y578318D02*
X912279D01*
X910707Y577667D01*
X909503Y576463D01*
X908852Y574891D01*
Y573189D01*
X909503Y571617D01*
X910707Y570413D01*
X912279Y569762D01*
X913981D01*
X915553Y570413D01*
X916757Y571617D01*
X917408Y573189D01*
Y574891D01*
X916757Y576463D01*
X915553Y577667D01*
X913981Y578318D01*
D02*
G37*
G36*
X902551D02*
X900849D01*
X899277Y577667D01*
X898073Y576463D01*
X897422Y574891D01*
Y573189D01*
X898073Y571617D01*
X899277Y570413D01*
X900849Y569762D01*
X902551D01*
X904123Y570413D01*
X905327Y571617D01*
X905978Y573189D01*
Y574891D01*
X905327Y576463D01*
X904123Y577667D01*
X902551Y578318D01*
D02*
G37*
G36*
X891121D02*
X889419D01*
X887847Y577667D01*
X886643Y576463D01*
X885992Y574891D01*
Y573189D01*
X886643Y571617D01*
X887847Y570413D01*
X889419Y569762D01*
X891121D01*
X892693Y570413D01*
X893897Y571617D01*
X894548Y573189D01*
Y574891D01*
X893897Y576463D01*
X892693Y577667D01*
X891121Y578318D01*
D02*
G37*
G36*
X717131Y576032D02*
X715429D01*
X713857Y575381D01*
X712653Y574177D01*
X712002Y572605D01*
Y570903D01*
X712653Y569331D01*
X713857Y568127D01*
X715429Y567476D01*
X717131D01*
X718703Y568127D01*
X719907Y569331D01*
X720558Y570903D01*
Y572605D01*
X719907Y574177D01*
X718703Y575381D01*
X717131Y576032D01*
D02*
G37*
G36*
X727799Y571587D02*
X726097D01*
X724525Y570936D01*
X723321Y569732D01*
X722670Y568160D01*
Y566458D01*
X723321Y564886D01*
X724525Y563682D01*
X726097Y563031D01*
X727799D01*
X729371Y563682D01*
X730575Y564886D01*
X731226Y566458D01*
Y568160D01*
X730575Y569732D01*
X729371Y570936D01*
X727799Y571587D01*
D02*
G37*
G36*
X851751Y570698D02*
X850049D01*
X848477Y570047D01*
X847273Y568843D01*
X846622Y567271D01*
Y565569D01*
X847273Y563997D01*
X848477Y562793D01*
X850049Y562142D01*
X851751D01*
X853323Y562793D01*
X854527Y563997D01*
X855178Y565569D01*
Y567271D01*
X854527Y568843D01*
X853323Y570047D01*
X851751Y570698D01*
D02*
G37*
G36*
X913981Y565618D02*
X912279D01*
X910707Y564967D01*
X909503Y563763D01*
X908852Y562191D01*
Y560489D01*
X909503Y558917D01*
X910707Y557713D01*
X912279Y557062D01*
X913981D01*
X915553Y557713D01*
X916757Y558917D01*
X917408Y560489D01*
Y562191D01*
X916757Y563763D01*
X915553Y564967D01*
X913981Y565618D01*
D02*
G37*
G36*
X902551D02*
X900849D01*
X899277Y564967D01*
X898073Y563763D01*
X897422Y562191D01*
Y560489D01*
X898073Y558917D01*
X899277Y557713D01*
X900849Y557062D01*
X902551D01*
X904123Y557713D01*
X905327Y558917D01*
X905978Y560489D01*
Y562191D01*
X905327Y563763D01*
X904123Y564967D01*
X902551Y565618D01*
D02*
G37*
G36*
X891121D02*
X889419D01*
X887847Y564967D01*
X886643Y563763D01*
X885992Y562191D01*
Y560489D01*
X886643Y558917D01*
X887847Y557713D01*
X889419Y557062D01*
X891121D01*
X892693Y557713D01*
X893897Y558917D01*
X894548Y560489D01*
Y562191D01*
X893897Y563763D01*
X892693Y564967D01*
X891121Y565618D01*
D02*
G37*
G36*
X715861Y563078D02*
X714159D01*
X712587Y562427D01*
X711383Y561223D01*
X710732Y559651D01*
Y557949D01*
X711383Y556377D01*
X712587Y555173D01*
X714159Y554522D01*
X715861D01*
X717433Y555173D01*
X718637Y556377D01*
X719288Y557949D01*
Y559651D01*
X718637Y561223D01*
X717433Y562427D01*
X715861Y563078D01*
D02*
G37*
G36*
X705701D02*
X703999D01*
X702427Y562427D01*
X701223Y561223D01*
X700572Y559651D01*
Y557949D01*
X701223Y556377D01*
X702427Y555173D01*
X703999Y554522D01*
X705701D01*
X707273Y555173D01*
X708477Y556377D01*
X709128Y557949D01*
Y559651D01*
X708477Y561223D01*
X707273Y562427D01*
X705701Y563078D01*
D02*
G37*
G36*
X403685Y570928D02*
X401495D01*
X399379Y570361D01*
X397483Y569266D01*
X395934Y567717D01*
X394839Y565821D01*
X394272Y563705D01*
Y561515D01*
X394839Y559399D01*
X395934Y557503D01*
X397483Y555954D01*
X399379Y554859D01*
X401495Y554292D01*
X403685D01*
X405801Y554859D01*
X407697Y555954D01*
X409246Y557503D01*
X410341Y559399D01*
X410908Y561515D01*
Y563705D01*
X410341Y565821D01*
X409246Y567717D01*
X407697Y569266D01*
X405801Y570361D01*
X403685Y570928D01*
D02*
G37*
G36*
X327485D02*
X325295D01*
X323179Y570361D01*
X321283Y569266D01*
X319734Y567717D01*
X318639Y565821D01*
X318072Y563705D01*
Y561515D01*
X318639Y559399D01*
X319734Y557503D01*
X321283Y555954D01*
X323179Y554859D01*
X325295Y554292D01*
X327485D01*
X329601Y554859D01*
X331497Y555954D01*
X333046Y557503D01*
X334141Y559399D01*
X334708Y561515D01*
Y563705D01*
X334141Y565821D01*
X333046Y567717D01*
X331497Y569266D01*
X329601Y570361D01*
X327485Y570928D01*
D02*
G37*
G36*
X696259Y559268D02*
X694557D01*
X692985Y558617D01*
X691782Y557413D01*
X691130Y555841D01*
Y554139D01*
X691782Y552567D01*
X692985Y551363D01*
X694557Y550712D01*
X696259D01*
X697832Y551363D01*
X699035Y552567D01*
X699686Y554139D01*
Y555841D01*
X699035Y557413D01*
X697832Y558617D01*
X696259Y559268D01*
D02*
G37*
G36*
X66007Y569468D02*
X63533D01*
X61143Y568828D01*
X59000Y567590D01*
X57250Y565840D01*
X56013Y563698D01*
X55372Y561307D01*
Y558833D01*
X56013Y556442D01*
X57250Y554300D01*
X59000Y552550D01*
X61143Y551312D01*
X63533Y550672D01*
X66007D01*
X68397Y551312D01*
X70540Y552550D01*
X72290Y554300D01*
X73527Y556442D01*
X74168Y558833D01*
Y561307D01*
X73527Y563698D01*
X72290Y565840D01*
X70540Y567590D01*
X68397Y568828D01*
X66007Y569468D01*
D02*
G37*
G36*
X40607D02*
X38133D01*
X35742Y568828D01*
X33600Y567590D01*
X31850Y565840D01*
X30612Y563698D01*
X29972Y561307D01*
Y558833D01*
X30612Y556442D01*
X31850Y554300D01*
X33600Y552550D01*
X35742Y551312D01*
X38133Y550672D01*
X40607D01*
X42997Y551312D01*
X45141Y552550D01*
X46890Y554300D01*
X48127Y556442D01*
X48768Y558833D01*
Y561307D01*
X48127Y563698D01*
X46890Y565840D01*
X45141Y567590D01*
X42997Y568828D01*
X40607Y569468D01*
D02*
G37*
G36*
X1038748Y565838D02*
X1021192D01*
Y548282D01*
X1038748D01*
Y565838D01*
D02*
G37*
G36*
X254824Y553693D02*
X253122D01*
X251550Y553041D01*
X250346Y551838D01*
X249695Y550266D01*
Y548564D01*
X250346Y546991D01*
X251550Y545788D01*
X253122Y545137D01*
X254824D01*
X256396Y545788D01*
X257600Y546991D01*
X258251Y548564D01*
Y550266D01*
X257600Y551838D01*
X256396Y553041D01*
X254824Y553693D01*
D02*
G37*
G36*
X795109Y552918D02*
X793407D01*
X791835Y552267D01*
X790631Y551063D01*
X789980Y549491D01*
Y547789D01*
X790631Y546217D01*
X791835Y545013D01*
X793407Y544362D01*
X795109D01*
X796681Y545013D01*
X797885Y546217D01*
X798536Y547789D01*
Y549491D01*
X797885Y551063D01*
X796681Y552267D01*
X795109Y552918D01*
D02*
G37*
G36*
X748881Y551648D02*
X747179D01*
X745607Y550997D01*
X744403Y549793D01*
X743752Y548221D01*
Y546519D01*
X744403Y544947D01*
X745607Y543743D01*
X747179Y543092D01*
X748881D01*
X750453Y543743D01*
X751657Y544947D01*
X752308Y546519D01*
Y548221D01*
X751657Y549793D01*
X750453Y550997D01*
X748881Y551648D01*
D02*
G37*
G36*
X682841D02*
X681139D01*
X679567Y550997D01*
X678363Y549793D01*
X677712Y548221D01*
Y546519D01*
X678363Y544947D01*
X679567Y543743D01*
X681139Y543092D01*
X682841D01*
X684413Y543743D01*
X685617Y544947D01*
X686268Y546519D01*
Y548221D01*
X685617Y549793D01*
X684413Y550997D01*
X682841Y551648D01*
D02*
G37*
G36*
X839011Y550268D02*
X837309D01*
X835737Y549617D01*
X834533Y548413D01*
X833882Y546841D01*
Y545139D01*
X834533Y543567D01*
X835737Y542363D01*
X837309Y541712D01*
X839011D01*
X840583Y542363D01*
X841787Y543567D01*
X842438Y545139D01*
Y546841D01*
X841787Y548413D01*
X840583Y549617D01*
X839011Y550268D01*
D02*
G37*
G36*
X701891Y549778D02*
X700189D01*
X698617Y549126D01*
X697413Y547923D01*
X696762Y546351D01*
Y544649D01*
X697413Y543076D01*
X698617Y541873D01*
X700189Y541222D01*
X701891D01*
X703463Y541873D01*
X704667Y543076D01*
X705318Y544649D01*
Y546351D01*
X704667Y547923D01*
X703463Y549126D01*
X701891Y549778D01*
D02*
G37*
G36*
X827665Y548556D02*
X825963D01*
X824390Y547905D01*
X823187Y546702D01*
X822536Y545129D01*
Y543427D01*
X823187Y541855D01*
X824390Y540652D01*
X825963Y540000D01*
X827665D01*
X829237Y540652D01*
X830440Y541855D01*
X831092Y543427D01*
Y545129D01*
X830440Y546702D01*
X829237Y547905D01*
X827665Y548556D01*
D02*
G37*
G36*
X154267Y546314D02*
X152565D01*
X150993Y545663D01*
X149789Y544459D01*
X149138Y542887D01*
Y541185D01*
X149789Y539613D01*
X150993Y538409D01*
X152565Y537758D01*
X154267D01*
X155839Y538409D01*
X157043Y539613D01*
X157694Y541185D01*
Y542887D01*
X157043Y544459D01*
X155839Y545663D01*
X154267Y546314D01*
D02*
G37*
G36*
X794347Y542294D02*
X792645D01*
X791073Y541642D01*
X789869Y540439D01*
X789218Y538867D01*
Y537165D01*
X789869Y535592D01*
X791073Y534389D01*
X792645Y533738D01*
X794347D01*
X795919Y534389D01*
X797123Y535592D01*
X797774Y537165D01*
Y538867D01*
X797123Y540439D01*
X795919Y541642D01*
X794347Y542294D01*
D02*
G37*
G36*
X403685Y545528D02*
X401495D01*
X399379Y544961D01*
X397483Y543866D01*
X395934Y542317D01*
X394839Y540421D01*
X394272Y538305D01*
Y536115D01*
X394839Y533999D01*
X395934Y532103D01*
X397483Y530554D01*
X399379Y529459D01*
X401495Y528892D01*
X403685D01*
X405801Y529459D01*
X407697Y530554D01*
X409246Y532103D01*
X410341Y533999D01*
X410908Y536115D01*
Y538305D01*
X410341Y540421D01*
X409246Y542317D01*
X407697Y543866D01*
X405801Y544961D01*
X403685Y545528D01*
D02*
G37*
G36*
X327485D02*
X325295D01*
X323179Y544961D01*
X321283Y543866D01*
X319734Y542317D01*
X318639Y540421D01*
X318072Y538305D01*
Y536115D01*
X318639Y533999D01*
X319734Y532103D01*
X321283Y530554D01*
X323179Y529459D01*
X325295Y528892D01*
X327485D01*
X329601Y529459D01*
X331497Y530554D01*
X333046Y532103D01*
X334141Y533999D01*
X334708Y536115D01*
Y538305D01*
X334141Y540421D01*
X333046Y542317D01*
X331497Y543866D01*
X329601Y544961D01*
X327485Y545528D01*
D02*
G37*
G36*
X691384Y535377D02*
X689682D01*
X688110Y534726D01*
X686906Y533523D01*
X686255Y531950D01*
Y530248D01*
X686906Y528676D01*
X688110Y527473D01*
X689682Y526821D01*
X691384D01*
X692956Y527473D01*
X694160Y528676D01*
X694811Y530248D01*
Y531950D01*
X694160Y533523D01*
X692956Y534726D01*
X691384Y535377D01*
D02*
G37*
G36*
X66007Y544068D02*
X63533D01*
X61143Y543428D01*
X59000Y542190D01*
X57250Y540440D01*
X56013Y538298D01*
X55372Y535907D01*
Y533433D01*
X56013Y531043D01*
X57250Y528899D01*
X59000Y527150D01*
X61143Y525913D01*
X63533Y525272D01*
X66007D01*
X68397Y525913D01*
X70540Y527150D01*
X72290Y528899D01*
X73527Y531043D01*
X74168Y533433D01*
Y535907D01*
X73527Y538298D01*
X72290Y540440D01*
X70540Y542190D01*
X68397Y543428D01*
X66007Y544068D01*
D02*
G37*
G36*
X40607D02*
X38133D01*
X35742Y543428D01*
X33600Y542190D01*
X31850Y540440D01*
X30612Y538298D01*
X29972Y535907D01*
Y533433D01*
X30612Y531043D01*
X31850Y528899D01*
X33600Y527150D01*
X35742Y525913D01*
X38133Y525272D01*
X40607D01*
X42997Y525913D01*
X45141Y527150D01*
X46890Y528899D01*
X48127Y531043D01*
X48768Y533433D01*
Y535907D01*
X48127Y538298D01*
X46890Y540440D01*
X45141Y542190D01*
X42997Y543428D01*
X40607Y544068D01*
D02*
G37*
G36*
X200201Y533146D02*
X198499D01*
X196927Y532495D01*
X195723Y531291D01*
X195072Y529719D01*
Y528017D01*
X195723Y526445D01*
X196927Y525241D01*
X198499Y524590D01*
X200201D01*
X201773Y525241D01*
X202977Y526445D01*
X203628Y528017D01*
Y529719D01*
X202977Y531291D01*
X201773Y532495D01*
X200201Y533146D01*
D02*
G37*
G36*
X889253Y532000D02*
X887551D01*
X885979Y531349D01*
X884775Y530145D01*
X884124Y528573D01*
Y526871D01*
X884775Y525299D01*
X885979Y524095D01*
X887551Y523444D01*
X889253D01*
X890825Y524095D01*
X892029Y525299D01*
X892680Y526871D01*
Y528573D01*
X892029Y530145D01*
X890825Y531349D01*
X889253Y532000D01*
D02*
G37*
G36*
X248501Y531582D02*
X246799D01*
X245227Y530931D01*
X244023Y529727D01*
X243372Y528155D01*
Y526453D01*
X244023Y524881D01*
X245227Y523677D01*
X246799Y523026D01*
X248501D01*
X250073Y523677D01*
X251277Y524881D01*
X251928Y526453D01*
Y528155D01*
X251277Y529727D01*
X250073Y530931D01*
X248501Y531582D01*
D02*
G37*
G36*
X748881Y531328D02*
X747179D01*
X745607Y530677D01*
X744403Y529473D01*
X743752Y527901D01*
Y526199D01*
X744403Y524627D01*
X745607Y523423D01*
X747179Y522772D01*
X748881D01*
X750453Y523423D01*
X751657Y524627D01*
X752308Y526199D01*
Y527901D01*
X751657Y529473D01*
X750453Y530677D01*
X748881Y531328D01*
D02*
G37*
G36*
X675221Y530058D02*
X673519D01*
X671947Y529407D01*
X670743Y528203D01*
X670092Y526631D01*
Y524929D01*
X670743Y523357D01*
X671947Y522153D01*
X673519Y521502D01*
X675221D01*
X676793Y522153D01*
X677997Y523357D01*
X678648Y524929D01*
Y526631D01*
X677997Y528203D01*
X676793Y529407D01*
X675221Y530058D01*
D02*
G37*
G36*
X796633Y527478D02*
X794931D01*
X793359Y526827D01*
X792155Y525623D01*
X791504Y524051D01*
Y522349D01*
X791596Y522127D01*
X790866Y521474D01*
X790557Y521317D01*
X789076Y521930D01*
X787374D01*
X785802Y521279D01*
X784598Y520075D01*
X783947Y518503D01*
Y516801D01*
X784598Y515229D01*
X785802Y514025D01*
X787374Y513374D01*
X789076D01*
X790648Y514025D01*
X791852Y515229D01*
X792503Y516801D01*
Y518503D01*
X792411Y518725D01*
X793141Y519378D01*
X793450Y519535D01*
X794931Y518922D01*
X796633D01*
X798205Y519573D01*
X799409Y520777D01*
X800060Y522349D01*
Y524051D01*
X799409Y525623D01*
X798205Y526827D01*
X796633Y527478D01*
D02*
G37*
G36*
X837781Y527518D02*
X836079D01*
X834507Y526867D01*
X833303Y525663D01*
X832652Y524091D01*
Y522389D01*
X833303Y520817D01*
X834507Y519613D01*
X836079Y518962D01*
X837781D01*
X839353Y519613D01*
X840557Y520817D01*
X841208Y522389D01*
Y524091D01*
X840557Y525663D01*
X839353Y526867D01*
X837781Y527518D01*
D02*
G37*
G36*
X82893Y526248D02*
X81191D01*
X79619Y525597D01*
X78415Y524393D01*
X77764Y522821D01*
Y521119D01*
X78415Y519547D01*
X79619Y518343D01*
X81191Y517692D01*
X82893D01*
X84465Y518343D01*
X85669Y519547D01*
X86320Y521119D01*
Y522821D01*
X85669Y524393D01*
X84465Y525597D01*
X82893Y526248D01*
D02*
G37*
G36*
X106184Y525871D02*
X104482D01*
X102910Y525220D01*
X101707Y524016D01*
X101055Y522444D01*
Y520742D01*
X101707Y519170D01*
X102910Y517966D01*
X104482Y517315D01*
X106184D01*
X107757Y517966D01*
X108960Y519170D01*
X109611Y520742D01*
Y522444D01*
X108960Y524016D01*
X107757Y525220D01*
X106184Y525871D01*
D02*
G37*
G36*
X764121Y523708D02*
X762419D01*
X760847Y523057D01*
X759643Y521853D01*
X758992Y520281D01*
Y518579D01*
X759643Y517007D01*
X760847Y515803D01*
X762419Y515152D01*
X764121D01*
X765693Y515803D01*
X766897Y517007D01*
X767548Y518579D01*
Y520281D01*
X766897Y521853D01*
X765693Y523057D01*
X764121Y523708D01*
D02*
G37*
G36*
X775551Y522732D02*
X773849D01*
X772277Y522081D01*
X771073Y520877D01*
X770422Y519305D01*
Y517603D01*
X771073Y516031D01*
X772277Y514827D01*
X773849Y514176D01*
X775551D01*
X777123Y514827D01*
X778327Y516031D01*
X778978Y517603D01*
Y519305D01*
X778327Y520877D01*
X777123Y522081D01*
X775551Y522732D01*
D02*
G37*
G36*
X195161Y521720D02*
X193459D01*
X191887Y521068D01*
X190683Y519865D01*
X190032Y518293D01*
Y516591D01*
X190683Y515018D01*
X191887Y513815D01*
X193459Y513164D01*
X195161D01*
X196733Y513815D01*
X197937Y515018D01*
X198588Y516591D01*
Y518293D01*
X197937Y519865D01*
X196733Y521068D01*
X195161Y521720D01*
D02*
G37*
G36*
X718228Y517052D02*
X716526D01*
X714954Y516400D01*
X713751Y515197D01*
X713099Y513625D01*
Y511923D01*
X713751Y510350D01*
X714954Y509147D01*
X716526Y508496D01*
X718228D01*
X719801Y509147D01*
X721004Y510350D01*
X721655Y511923D01*
Y513625D01*
X721004Y515197D01*
X719801Y516400D01*
X718228Y517052D01*
D02*
G37*
G36*
X837277Y516890D02*
X835575D01*
X834002Y516239D01*
X832799Y515035D01*
X832148Y513463D01*
Y511761D01*
X832799Y510189D01*
X834002Y508985D01*
X835575Y508334D01*
X837277D01*
X838849Y508985D01*
X840052Y510189D01*
X840704Y511761D01*
Y513463D01*
X840052Y515035D01*
X838849Y516239D01*
X837277Y516890D01*
D02*
G37*
G36*
X810095Y516342D02*
X808393D01*
X806821Y515691D01*
X805617Y514487D01*
X804966Y512915D01*
Y511213D01*
X805617Y509641D01*
X806821Y508437D01*
X808393Y507786D01*
X810095D01*
X811667Y508437D01*
X812871Y509641D01*
X813522Y511213D01*
Y512915D01*
X812871Y514487D01*
X811667Y515691D01*
X810095Y516342D01*
D02*
G37*
G36*
X704778Y515199D02*
X703076D01*
X701504Y514548D01*
X700300Y513344D01*
X699649Y511772D01*
Y510070D01*
X700300Y508498D01*
X701504Y507294D01*
X703076Y506643D01*
X704778D01*
X706350Y507294D01*
X707554Y508498D01*
X708205Y510070D01*
Y511772D01*
X707554Y513344D01*
X706350Y514548D01*
X704778Y515199D01*
D02*
G37*
G36*
X731101Y514261D02*
X729399D01*
X727827Y513610D01*
X726623Y512406D01*
X725972Y510834D01*
Y509132D01*
X726623Y507560D01*
X727827Y506356D01*
X729399Y505705D01*
X731101D01*
X732673Y506356D01*
X733877Y507560D01*
X734528Y509132D01*
Y510834D01*
X733877Y512406D01*
X732673Y513610D01*
X731101Y514261D01*
D02*
G37*
G36*
X82131Y513548D02*
X80429D01*
X78857Y512897D01*
X77653Y511693D01*
X77002Y510121D01*
Y508419D01*
X77653Y506847D01*
X78857Y505643D01*
X80429Y504992D01*
X82131D01*
X83703Y505643D01*
X84907Y506847D01*
X85558Y508419D01*
Y510121D01*
X84907Y511693D01*
X83703Y512897D01*
X82131Y513548D01*
D02*
G37*
G36*
X200241Y512278D02*
X198539D01*
X196967Y511627D01*
X195763Y510423D01*
X195112Y508851D01*
Y507149D01*
X195763Y505577D01*
X196967Y504373D01*
X198539Y503722D01*
X200241D01*
X201813Y504373D01*
X203017Y505577D01*
X203668Y507149D01*
Y508851D01*
X203017Y510423D01*
X201813Y511627D01*
X200241Y512278D01*
D02*
G37*
G36*
X403685Y520128D02*
X401495D01*
X399379Y519561D01*
X397483Y518466D01*
X395934Y516917D01*
X394839Y515021D01*
X394272Y512905D01*
Y510715D01*
X394839Y508599D01*
X395934Y506703D01*
X397483Y505154D01*
X399379Y504059D01*
X401495Y503492D01*
X403685D01*
X405801Y504059D01*
X407697Y505154D01*
X409246Y506703D01*
X410341Y508599D01*
X410908Y510715D01*
Y512905D01*
X410341Y515021D01*
X409246Y516917D01*
X407697Y518466D01*
X405801Y519561D01*
X403685Y520128D01*
D02*
G37*
G36*
X327485D02*
X325295D01*
X323179Y519561D01*
X321283Y518466D01*
X319734Y516917D01*
X318639Y515021D01*
X318072Y512905D01*
Y510715D01*
X318639Y508599D01*
X319734Y506703D01*
X321283Y505154D01*
X323179Y504059D01*
X325295Y503492D01*
X327485D01*
X329601Y504059D01*
X331497Y505154D01*
X333046Y506703D01*
X334141Y508599D01*
X334708Y510715D01*
Y512905D01*
X334141Y515021D01*
X333046Y516917D01*
X331497Y518466D01*
X329601Y519561D01*
X327485Y520128D01*
D02*
G37*
G36*
X98768Y510448D02*
X97066D01*
X95494Y509797D01*
X94290Y508593D01*
X93639Y507021D01*
Y505319D01*
X94290Y503747D01*
X95494Y502543D01*
X97066Y501892D01*
X98768D01*
X100340Y502543D01*
X101544Y503747D01*
X102195Y505319D01*
Y507021D01*
X101544Y508593D01*
X100340Y509797D01*
X98768Y510448D01*
D02*
G37*
G36*
X66007Y518668D02*
X63533D01*
X61143Y518028D01*
X59000Y516790D01*
X57250Y515041D01*
X56013Y512897D01*
X55372Y510507D01*
Y508033D01*
X56013Y505643D01*
X57250Y503499D01*
X59000Y501750D01*
X61143Y500513D01*
X63533Y499872D01*
X66007D01*
X68397Y500513D01*
X70540Y501750D01*
X72290Y503499D01*
X73527Y505643D01*
X74168Y508033D01*
Y510507D01*
X73527Y512897D01*
X72290Y515041D01*
X70540Y516790D01*
X68397Y518028D01*
X66007Y518668D01*
D02*
G37*
G36*
X40607D02*
X38133D01*
X35742Y518028D01*
X33600Y516790D01*
X31850Y515041D01*
X30612Y512897D01*
X29972Y510507D01*
Y508033D01*
X30612Y505643D01*
X31850Y503499D01*
X33600Y501750D01*
X35742Y500513D01*
X38133Y499872D01*
X40607D01*
X42997Y500513D01*
X45141Y501750D01*
X46890Y503499D01*
X48127Y505643D01*
X48768Y508033D01*
Y510507D01*
X48127Y512897D01*
X46890Y515041D01*
X45141Y516790D01*
X42997Y518028D01*
X40607Y518668D01*
D02*
G37*
G36*
X875829Y508416D02*
X874127D01*
X872554Y507764D01*
X871351Y506561D01*
X870700Y504989D01*
Y503287D01*
X871351Y501714D01*
X872554Y500511D01*
X874127Y499860D01*
X875829D01*
X877401Y500511D01*
X878604Y501714D01*
X879256Y503287D01*
Y504989D01*
X878604Y506561D01*
X877401Y507764D01*
X875829Y508416D01*
D02*
G37*
G36*
X805632Y506636D02*
X803930D01*
X802357Y505984D01*
X801154Y504781D01*
X800503Y503208D01*
Y501507D01*
X801154Y499934D01*
X802357Y498731D01*
X803930Y498079D01*
X805632D01*
X807204Y498731D01*
X808408Y499934D01*
X809059Y501507D01*
Y503208D01*
X808408Y504781D01*
X807204Y505984D01*
X805632Y506636D01*
D02*
G37*
G36*
X896665Y502924D02*
X894963D01*
X893391Y502273D01*
X892187Y501069D01*
X891536Y499497D01*
Y497795D01*
X892187Y496223D01*
X893391Y495019D01*
X894963Y494368D01*
X896665D01*
X898237Y495019D01*
X899441Y496223D01*
X900092Y497795D01*
Y499497D01*
X899441Y501069D01*
X898237Y502273D01*
X896665Y502924D01*
D02*
G37*
G36*
X202640Y500634D02*
X200938D01*
X199366Y499983D01*
X198162Y498779D01*
X197511Y497207D01*
Y495505D01*
X198162Y493933D01*
X199366Y492729D01*
X200938Y492078D01*
X202640D01*
X204212Y492729D01*
X205415Y493933D01*
X206067Y495505D01*
Y497207D01*
X205415Y498779D01*
X204212Y499983D01*
X202640Y500634D01*
D02*
G37*
G36*
X796185Y500225D02*
X794483D01*
X792911Y499573D01*
X791707Y498370D01*
X791056Y496798D01*
Y495096D01*
X791707Y493523D01*
X792911Y492320D01*
X794483Y491669D01*
X796185D01*
X797757Y492320D01*
X798961Y493523D01*
X799612Y495096D01*
Y496798D01*
X798961Y498370D01*
X797757Y499573D01*
X796185Y500225D01*
D02*
G37*
G36*
X685381Y498308D02*
X683679D01*
X682107Y497657D01*
X680903Y496453D01*
X680252Y494881D01*
Y493179D01*
X680903Y491607D01*
X682107Y490403D01*
X683679Y489752D01*
X685381D01*
X686953Y490403D01*
X688157Y491607D01*
X688808Y493179D01*
Y494881D01*
X688157Y496453D01*
X686953Y497657D01*
X685381Y498308D01*
D02*
G37*
G36*
X725399Y491958D02*
X723697D01*
X722125Y491307D01*
X720921Y490103D01*
X720270Y488531D01*
Y486829D01*
X720921Y485257D01*
X722125Y484053D01*
X723697Y483402D01*
X725399D01*
X726972Y484053D01*
X728175Y485257D01*
X728826Y486829D01*
Y488531D01*
X728175Y490103D01*
X726972Y491307D01*
X725399Y491958D01*
D02*
G37*
G36*
X597751Y490688D02*
X596049D01*
X594477Y490037D01*
X593273Y488833D01*
X592622Y487261D01*
Y485559D01*
X593273Y483987D01*
X594477Y482783D01*
X596049Y482132D01*
X597751D01*
X599323Y482783D01*
X600527Y483987D01*
X601178Y485559D01*
Y487261D01*
X600527Y488833D01*
X599323Y490037D01*
X597751Y490688D01*
D02*
G37*
G36*
X204051D02*
X202349D01*
X200777Y490037D01*
X199573Y488833D01*
X198922Y487261D01*
Y485559D01*
X199573Y483987D01*
X200777Y482783D01*
X202349Y482132D01*
X204051D01*
X205623Y482783D01*
X206827Y483987D01*
X207478Y485559D01*
Y487261D01*
X206827Y488833D01*
X205623Y490037D01*
X204051Y490688D01*
D02*
G37*
G36*
X757901Y488319D02*
X756199D01*
X754627Y487667D01*
X753423Y486464D01*
X752772Y484892D01*
Y483190D01*
X753423Y481617D01*
X754627Y480414D01*
X756199Y479763D01*
X757901D01*
X759473Y480414D01*
X760677Y481617D01*
X761328Y483190D01*
Y484892D01*
X760677Y486464D01*
X759473Y487667D01*
X757901Y488319D01*
D02*
G37*
G36*
X403685Y494728D02*
X401495D01*
X399379Y494161D01*
X397483Y493066D01*
X395934Y491517D01*
X394839Y489621D01*
X394272Y487505D01*
Y485315D01*
X394839Y483199D01*
X395934Y481303D01*
X397483Y479754D01*
X399379Y478659D01*
X401495Y478092D01*
X403685D01*
X405801Y478659D01*
X407697Y479754D01*
X409246Y481303D01*
X410341Y483199D01*
X410908Y485315D01*
Y487505D01*
X410341Y489621D01*
X409246Y491517D01*
X407697Y493066D01*
X405801Y494161D01*
X403685Y494728D01*
D02*
G37*
G36*
X327485D02*
X325295D01*
X323179Y494161D01*
X321283Y493066D01*
X319734Y491517D01*
X318639Y489621D01*
X318072Y487505D01*
Y485315D01*
X318639Y483199D01*
X319734Y481303D01*
X321283Y479754D01*
X323179Y478659D01*
X325295Y478092D01*
X327485D01*
X329601Y478659D01*
X331497Y479754D01*
X333046Y481303D01*
X334141Y483199D01*
X334708Y485315D01*
Y487505D01*
X334141Y489621D01*
X333046Y491517D01*
X331497Y493066D01*
X329601Y494161D01*
X327485Y494728D01*
D02*
G37*
G36*
X66007Y493268D02*
X63533D01*
X61143Y492628D01*
X59000Y491390D01*
X57250Y489641D01*
X56013Y487497D01*
X55372Y485107D01*
Y482633D01*
X56013Y480243D01*
X57250Y478100D01*
X59000Y476350D01*
X61143Y475112D01*
X63533Y474472D01*
X66007D01*
X68397Y475112D01*
X70540Y476350D01*
X72290Y478100D01*
X73527Y480243D01*
X74168Y482633D01*
Y485107D01*
X73527Y487497D01*
X72290Y489641D01*
X70540Y491390D01*
X68397Y492628D01*
X66007Y493268D01*
D02*
G37*
G36*
X40607D02*
X38133D01*
X35742Y492628D01*
X33600Y491390D01*
X31850Y489641D01*
X30612Y487497D01*
X29972Y485107D01*
Y482633D01*
X30612Y480243D01*
X31850Y478100D01*
X33600Y476350D01*
X35742Y475112D01*
X38133Y474472D01*
X40607D01*
X42997Y475112D01*
X45141Y476350D01*
X46890Y478100D01*
X48127Y480243D01*
X48768Y482633D01*
Y485107D01*
X48127Y487497D01*
X46890Y489641D01*
X45141Y491390D01*
X42997Y492628D01*
X40607Y493268D01*
D02*
G37*
G36*
X736226Y481753D02*
X734524D01*
X732951Y481102D01*
X731748Y479899D01*
X731097Y478326D01*
Y476624D01*
X731748Y475052D01*
X732951Y473849D01*
X734524Y473197D01*
X736226D01*
X737798Y473849D01*
X739001Y475052D01*
X739653Y476624D01*
Y478326D01*
X739001Y479899D01*
X737798Y481102D01*
X736226Y481753D01*
D02*
G37*
G36*
X196431Y479258D02*
X194729D01*
X193157Y478607D01*
X191953Y477403D01*
X191302Y475831D01*
Y474129D01*
X191953Y472557D01*
X193157Y471353D01*
X194729Y470702D01*
X196431D01*
X198003Y471353D01*
X199207Y472557D01*
X199858Y474129D01*
Y475831D01*
X199207Y477403D01*
X198003Y478607D01*
X196431Y479258D01*
D02*
G37*
G36*
X209131Y475448D02*
X207429D01*
X205857Y474797D01*
X204653Y473593D01*
X204002Y472021D01*
Y470319D01*
X204653Y468747D01*
X205857Y467543D01*
X207429Y466892D01*
X209131D01*
X210703Y467543D01*
X211907Y468747D01*
X212558Y470319D01*
Y472021D01*
X211907Y473593D01*
X210703Y474797D01*
X209131Y475448D01*
D02*
G37*
G36*
X920331Y471638D02*
X918629D01*
X917057Y470987D01*
X915853Y469783D01*
X915202Y468211D01*
Y466509D01*
X915853Y464937D01*
X917057Y463733D01*
X918629Y463082D01*
X920331D01*
X921903Y463733D01*
X923107Y464937D01*
X923758Y466509D01*
Y468211D01*
X923107Y469783D01*
X921903Y470987D01*
X920331Y471638D01*
D02*
G37*
G36*
X107476Y471070D02*
X105774D01*
X104202Y470418D01*
X102998Y469215D01*
X102347Y467643D01*
Y465941D01*
X102998Y464368D01*
X104202Y463165D01*
X105774Y462514D01*
X107476D01*
X109048Y463165D01*
X110252Y464368D01*
X110903Y465941D01*
Y467643D01*
X110252Y469215D01*
X109048Y470418D01*
X107476Y471070D01*
D02*
G37*
G36*
X710781Y469098D02*
X709079D01*
X707507Y468447D01*
X706303Y467243D01*
X705652Y465671D01*
Y463969D01*
X706303Y462397D01*
X707507Y461193D01*
X709079Y460542D01*
X710781D01*
X712353Y461193D01*
X713557Y462397D01*
X714208Y463969D01*
Y465671D01*
X713557Y467243D01*
X712353Y468447D01*
X710781Y469098D01*
D02*
G37*
G36*
X1031125Y476208D02*
X1028814D01*
X1026582Y475610D01*
X1024580Y474454D01*
X1022946Y472820D01*
X1021790Y470818D01*
X1021192Y468586D01*
Y466274D01*
X1021790Y464042D01*
X1022946Y462040D01*
X1024580Y460406D01*
X1026582Y459250D01*
X1028814Y458652D01*
X1031125D01*
X1033358Y459250D01*
X1035360Y460406D01*
X1036994Y462040D01*
X1038150Y464042D01*
X1038748Y466274D01*
Y468586D01*
X1038150Y470818D01*
X1036994Y472820D01*
X1035360Y474454D01*
X1033358Y475610D01*
X1031125Y476208D01*
D02*
G37*
G36*
X195397Y466411D02*
X193695D01*
X192123Y465759D01*
X190919Y464556D01*
X190268Y462984D01*
Y461282D01*
X190919Y459709D01*
X192123Y458506D01*
X193695Y457855D01*
X195397D01*
X196970Y458506D01*
X198173Y459709D01*
X198824Y461282D01*
Y462984D01*
X198173Y464556D01*
X196970Y465759D01*
X195397Y466411D01*
D02*
G37*
G36*
X870801Y465288D02*
X869099D01*
X867527Y464637D01*
X866323Y463433D01*
X865672Y461861D01*
Y460159D01*
X866323Y458587D01*
X867527Y457383D01*
X869099Y456732D01*
X870801D01*
X872373Y457383D01*
X873577Y458587D01*
X874228Y460159D01*
Y461861D01*
X873577Y463433D01*
X872373Y464637D01*
X870801Y465288D01*
D02*
G37*
G36*
X66007Y467868D02*
X63533D01*
X61143Y467228D01*
X59000Y465990D01*
X57250Y464240D01*
X56013Y462098D01*
X55372Y459707D01*
Y457233D01*
X56013Y454842D01*
X57250Y452700D01*
X59000Y450950D01*
X61143Y449712D01*
X63533Y449072D01*
X66007D01*
X68397Y449712D01*
X70540Y450950D01*
X72290Y452700D01*
X73527Y454842D01*
X74168Y457233D01*
Y459707D01*
X73527Y462098D01*
X72290Y464240D01*
X70540Y465990D01*
X68397Y467228D01*
X66007Y467868D01*
D02*
G37*
G36*
X40607D02*
X38133D01*
X35742Y467228D01*
X33600Y465990D01*
X31850Y464240D01*
X30612Y462098D01*
X29972Y459707D01*
Y457233D01*
X30612Y454842D01*
X31850Y452700D01*
X33600Y450950D01*
X35742Y449712D01*
X38133Y449072D01*
X40607D01*
X42997Y449712D01*
X45141Y450950D01*
X46890Y452700D01*
X48127Y454842D01*
X48768Y457233D01*
Y459707D01*
X48127Y462098D01*
X46890Y464240D01*
X45141Y465990D01*
X42997Y467228D01*
X40607Y467868D01*
D02*
G37*
G36*
X862927Y448524D02*
X861225D01*
X859653Y447873D01*
X858449Y446669D01*
X857798Y445097D01*
Y443395D01*
X858449Y441823D01*
X859653Y440619D01*
X861225Y439968D01*
X862927D01*
X864499Y440619D01*
X865703Y441823D01*
X866354Y443395D01*
Y445097D01*
X865703Y446669D01*
X864499Y447873D01*
X862927Y448524D01*
D02*
G37*
G36*
X1031125Y451208D02*
X1028814D01*
X1026582Y450610D01*
X1024580Y449454D01*
X1022946Y447820D01*
X1021790Y445818D01*
X1021192Y443586D01*
Y441274D01*
X1021790Y439042D01*
X1022946Y437040D01*
X1024580Y435406D01*
X1026582Y434250D01*
X1028814Y433652D01*
X1031125D01*
X1033358Y434250D01*
X1035360Y435406D01*
X1036994Y437040D01*
X1038150Y439042D01*
X1038748Y441274D01*
Y443586D01*
X1038150Y445818D01*
X1036994Y447820D01*
X1035360Y449454D01*
X1033358Y450610D01*
X1031125Y451208D01*
D02*
G37*
G36*
X946025Y441245D02*
X944323D01*
X942750Y440594D01*
X941547Y439391D01*
X940896Y437818D01*
Y436116D01*
X941547Y434544D01*
X942750Y433341D01*
X944323Y432689D01*
X946025D01*
X947597Y433341D01*
X948800Y434544D01*
X949452Y436116D01*
Y437818D01*
X948800Y439391D01*
X947597Y440594D01*
X946025Y441245D01*
D02*
G37*
G36*
X954621Y436078D02*
X952919D01*
X951347Y435427D01*
X950143Y434223D01*
X949492Y432651D01*
Y430949D01*
X950143Y429377D01*
X951347Y428173D01*
X952919Y427522D01*
X954621D01*
X956193Y428173D01*
X957397Y429377D01*
X958048Y430949D01*
Y432651D01*
X957397Y434223D01*
X956193Y435427D01*
X954621Y436078D01*
D02*
G37*
G36*
X845401Y434808D02*
X843699D01*
X842127Y434157D01*
X840923Y432953D01*
X840272Y431381D01*
Y429679D01*
X840923Y428107D01*
X842127Y426903D01*
X843699Y426252D01*
X845401D01*
X846973Y426903D01*
X848177Y428107D01*
X848828Y429679D01*
Y431381D01*
X848177Y432953D01*
X846973Y434157D01*
X845401Y434808D01*
D02*
G37*
G36*
X812381Y432268D02*
X810679D01*
X809107Y431617D01*
X807903Y430413D01*
X807252Y428841D01*
Y427139D01*
X807903Y425567D01*
X809107Y424363D01*
X810679Y423712D01*
X812381D01*
X813953Y424363D01*
X815157Y425567D01*
X815808Y427139D01*
Y428841D01*
X815157Y430413D01*
X813953Y431617D01*
X812381Y432268D01*
D02*
G37*
G36*
X104483D02*
X102781D01*
X101209Y431617D01*
X100005Y430413D01*
X99354Y428841D01*
Y427139D01*
X100005Y425567D01*
X101209Y424363D01*
X102781Y423712D01*
X104483D01*
X106055Y424363D01*
X107259Y425567D01*
X107910Y427139D01*
Y428841D01*
X107259Y430413D01*
X106055Y431617D01*
X104483Y432268D01*
D02*
G37*
G36*
X66007Y442468D02*
X63533D01*
X61143Y441828D01*
X59000Y440590D01*
X57250Y438840D01*
X56013Y436698D01*
X55372Y434307D01*
Y431833D01*
X56013Y429442D01*
X57250Y427299D01*
X59000Y425550D01*
X61143Y424313D01*
X63533Y423672D01*
X66007D01*
X68397Y424313D01*
X70540Y425550D01*
X72290Y427299D01*
X73527Y429442D01*
X74168Y431833D01*
Y434307D01*
X73527Y436698D01*
X72290Y438840D01*
X70540Y440590D01*
X68397Y441828D01*
X66007Y442468D01*
D02*
G37*
G36*
X40607D02*
X38133D01*
X35742Y441828D01*
X33600Y440590D01*
X31850Y438840D01*
X30612Y436698D01*
X29972Y434307D01*
Y431833D01*
X30612Y429442D01*
X31850Y427299D01*
X33600Y425550D01*
X35742Y424313D01*
X38133Y423672D01*
X40607D01*
X42997Y424313D01*
X45141Y425550D01*
X46890Y427299D01*
X48127Y429442D01*
X48768Y431833D01*
Y434307D01*
X48127Y436698D01*
X46890Y438840D01*
X45141Y440590D01*
X42997Y441828D01*
X40607Y442468D01*
D02*
G37*
G36*
X205321Y425918D02*
X203619D01*
X202047Y425267D01*
X200843Y424063D01*
X200192Y422491D01*
Y420789D01*
X200843Y419217D01*
X202047Y418013D01*
X203619Y417362D01*
X205321D01*
X206893Y418013D01*
X208097Y419217D01*
X208748Y420789D01*
Y422491D01*
X208097Y424063D01*
X206893Y425267D01*
X205321Y425918D01*
D02*
G37*
G36*
X162441Y420988D02*
X160739D01*
X159166Y420337D01*
X157963Y419133D01*
X157312Y417561D01*
Y415859D01*
X157963Y414287D01*
X159166Y413083D01*
X160739Y412432D01*
X162441D01*
X164013Y413083D01*
X165216Y414287D01*
X165868Y415859D01*
Y417561D01*
X165216Y419133D01*
X164013Y420337D01*
X162441Y420988D01*
D02*
G37*
G36*
X97879D02*
X96177D01*
X94605Y420337D01*
X93401Y419133D01*
X92750Y417561D01*
Y415859D01*
X93401Y414287D01*
X94605Y413083D01*
X96177Y412432D01*
X97879D01*
X99451Y413083D01*
X100655Y414287D01*
X101306Y415859D01*
Y417561D01*
X100655Y419133D01*
X99451Y420337D01*
X97879Y420988D01*
D02*
G37*
G36*
X844131Y420838D02*
X842429D01*
X840857Y420187D01*
X839653Y418983D01*
X839002Y417411D01*
Y415709D01*
X839653Y414137D01*
X840857Y412933D01*
X842429Y412282D01*
X844131D01*
X845703Y412933D01*
X846907Y414137D01*
X847558Y415709D01*
Y417411D01*
X846907Y418983D01*
X845703Y420187D01*
X844131Y420838D01*
D02*
G37*
G36*
X1031125Y426208D02*
X1028814D01*
X1026582Y425610D01*
X1024580Y424454D01*
X1022946Y422820D01*
X1021790Y420818D01*
X1021192Y418586D01*
Y416274D01*
X1021790Y414042D01*
X1022946Y412040D01*
X1024580Y410406D01*
X1026582Y409250D01*
X1028814Y408652D01*
X1031125D01*
X1033358Y409250D01*
X1035360Y410406D01*
X1036994Y412040D01*
X1038150Y414042D01*
X1038748Y416274D01*
Y418586D01*
X1038150Y420818D01*
X1036994Y422820D01*
X1035360Y424454D01*
X1033358Y425610D01*
X1031125Y426208D01*
D02*
G37*
G36*
X978751Y413218D02*
X977049D01*
X975477Y412567D01*
X974273Y411363D01*
X973622Y409791D01*
Y408089D01*
X974273Y406517D01*
X975477Y405313D01*
X977049Y404662D01*
X978751D01*
X980323Y405313D01*
X981527Y406517D01*
X982178Y408089D01*
Y409791D01*
X981527Y411363D01*
X980323Y412567D01*
X978751Y413218D01*
D02*
G37*
G36*
X803745Y412202D02*
X802043D01*
X800471Y411551D01*
X799267Y410347D01*
X798616Y408775D01*
Y407073D01*
X799267Y405501D01*
X800471Y404297D01*
X802043Y403646D01*
X803745D01*
X805317Y404297D01*
X806521Y405501D01*
X807172Y407073D01*
Y408775D01*
X806521Y410347D01*
X805317Y411551D01*
X803745Y412202D01*
D02*
G37*
G36*
X66007Y417068D02*
X63533D01*
X61143Y416428D01*
X59000Y415190D01*
X57250Y413441D01*
X56013Y411297D01*
X55372Y408907D01*
Y406433D01*
X56013Y404043D01*
X57250Y401899D01*
X59000Y400150D01*
X61143Y398913D01*
X63533Y398272D01*
X66007D01*
X68397Y398913D01*
X70540Y400150D01*
X72290Y401899D01*
X73527Y404043D01*
X74168Y406433D01*
Y408907D01*
X73527Y411297D01*
X72290Y413441D01*
X70540Y415190D01*
X68397Y416428D01*
X66007Y417068D01*
D02*
G37*
G36*
X40607D02*
X38133D01*
X35742Y416428D01*
X33600Y415190D01*
X31850Y413441D01*
X30612Y411297D01*
X29972Y408907D01*
Y406433D01*
X30612Y404043D01*
X31850Y401899D01*
X33600Y400150D01*
X35742Y398913D01*
X38133Y398272D01*
X40607D01*
X42997Y398913D01*
X45141Y400150D01*
X46890Y401899D01*
X48127Y404043D01*
X48768Y406433D01*
Y408907D01*
X48127Y411297D01*
X46890Y413441D01*
X45141Y415190D01*
X42997Y416428D01*
X40607Y417068D01*
D02*
G37*
G36*
X637339Y406552D02*
X635637D01*
X634065Y405900D01*
X632861Y404697D01*
X632210Y403125D01*
Y401423D01*
X632861Y399850D01*
X634065Y398647D01*
X635637Y397995D01*
X637339D01*
X638911Y398647D01*
X640115Y399850D01*
X640766Y401423D01*
Y403125D01*
X640115Y404697D01*
X638911Y405900D01*
X637339Y406552D01*
D02*
G37*
G36*
X29553Y401153D02*
X27851D01*
X26279Y400502D01*
X25075Y399298D01*
X24424Y397726D01*
Y396024D01*
X25075Y394452D01*
X26279Y393248D01*
X27851Y392597D01*
X29553D01*
X31125Y393248D01*
X32329Y394452D01*
X32980Y396024D01*
Y397726D01*
X32329Y399298D01*
X31125Y400502D01*
X29553Y401153D01*
D02*
G37*
G36*
X549081Y392898D02*
X547379D01*
X545807Y392247D01*
X544603Y391043D01*
X543952Y389471D01*
Y387769D01*
X544603Y386197D01*
X545807Y384993D01*
X547379Y384342D01*
X549081D01*
X550653Y384993D01*
X551857Y386197D01*
X552508Y387769D01*
Y389471D01*
X551857Y391043D01*
X550653Y392247D01*
X549081Y392898D01*
D02*
G37*
G36*
X1031125Y401208D02*
X1028814D01*
X1026582Y400610D01*
X1024580Y399454D01*
X1022946Y397820D01*
X1021790Y395818D01*
X1021192Y393586D01*
Y391274D01*
X1021790Y389042D01*
X1022946Y387040D01*
X1024580Y385406D01*
X1026582Y384250D01*
X1028814Y383652D01*
X1031125D01*
X1033358Y384250D01*
X1035360Y385406D01*
X1036994Y387040D01*
X1038150Y389042D01*
X1038748Y391274D01*
Y393586D01*
X1038150Y395818D01*
X1036994Y397820D01*
X1035360Y399454D01*
X1033358Y400610D01*
X1031125Y401208D01*
D02*
G37*
G36*
X192340Y381988D02*
X190638D01*
X189066Y381337D01*
X187862Y380134D01*
X187211Y378561D01*
Y376859D01*
X187862Y375287D01*
X189066Y374084D01*
X190638Y373432D01*
X192340D01*
X193912Y374084D01*
X195116Y375287D01*
X195767Y376859D01*
Y378561D01*
X195116Y380134D01*
X193912Y381337D01*
X192340Y381988D01*
D02*
G37*
G36*
X66007Y391668D02*
X63533D01*
X61143Y391028D01*
X59000Y389790D01*
X57250Y388041D01*
X56013Y385897D01*
X55372Y383507D01*
Y381033D01*
X56013Y378643D01*
X57250Y376499D01*
X59000Y374750D01*
X61143Y373512D01*
X63533Y372872D01*
X66007D01*
X68397Y373512D01*
X70540Y374750D01*
X72290Y376499D01*
X73527Y378643D01*
X74168Y381033D01*
Y383507D01*
X73527Y385897D01*
X72290Y388041D01*
X70540Y389790D01*
X68397Y391028D01*
X66007Y391668D01*
D02*
G37*
G36*
X40607D02*
X38133D01*
X35742Y391028D01*
X33600Y389790D01*
X31850Y388041D01*
X30612Y385897D01*
X29972Y383507D01*
Y381033D01*
X30612Y378643D01*
X31850Y376499D01*
X33600Y374750D01*
X35742Y373512D01*
X38133Y372872D01*
X40607D01*
X42997Y373512D01*
X45141Y374750D01*
X46890Y376499D01*
X48127Y378643D01*
X48768Y381033D01*
Y383507D01*
X48127Y385897D01*
X46890Y388041D01*
X45141Y389790D01*
X42997Y391028D01*
X40607Y391668D01*
D02*
G37*
G36*
X227174Y380573D02*
X224946D01*
X222793Y379996D01*
X220864Y378882D01*
X219288Y377306D01*
X218174Y375377D01*
X217597Y373224D01*
Y370996D01*
X218174Y368843D01*
X219288Y366914D01*
X220864Y365338D01*
X222793Y364224D01*
X224946Y363647D01*
X227174D01*
X229327Y364224D01*
X231256Y365338D01*
X232832Y366914D01*
X233946Y368843D01*
X234523Y370996D01*
Y373224D01*
X233946Y375377D01*
X232832Y377306D01*
X231256Y378882D01*
X229327Y379996D01*
X227174Y380573D01*
D02*
G37*
G36*
X66007Y366268D02*
X63533D01*
X61143Y365628D01*
X59000Y364390D01*
X57250Y362640D01*
X56013Y360498D01*
X55372Y358107D01*
Y355633D01*
X56013Y353242D01*
X57250Y351100D01*
X59000Y349350D01*
X61143Y348112D01*
X63533Y347472D01*
X66007D01*
X68397Y348112D01*
X70540Y349350D01*
X72290Y351100D01*
X73527Y353242D01*
X74168Y355633D01*
Y358107D01*
X73527Y360498D01*
X72290Y362640D01*
X70540Y364390D01*
X68397Y365628D01*
X66007Y366268D01*
D02*
G37*
G36*
X40607D02*
X38133D01*
X35742Y365628D01*
X33600Y364390D01*
X31850Y362640D01*
X30612Y360498D01*
X29972Y358107D01*
Y355633D01*
X30612Y353242D01*
X31850Y351100D01*
X33600Y349350D01*
X35742Y348112D01*
X38133Y347472D01*
X40607D01*
X42997Y348112D01*
X45141Y349350D01*
X46890Y351100D01*
X48127Y353242D01*
X48768Y355633D01*
Y358107D01*
X48127Y360498D01*
X46890Y362640D01*
X45141Y364390D01*
X42997Y365628D01*
X40607Y366268D01*
D02*
G37*
G36*
X178279Y353156D02*
X176577D01*
X175004Y352504D01*
X173801Y351301D01*
X173150Y349729D01*
Y348027D01*
X173801Y346454D01*
X175004Y345251D01*
X176577Y344600D01*
X178279D01*
X179851Y345251D01*
X181054Y346454D01*
X181706Y348027D01*
Y349729D01*
X181054Y351301D01*
X179851Y352504D01*
X178279Y353156D01*
D02*
G37*
G36*
X836774Y355173D02*
X834546D01*
X832393Y354596D01*
X830464Y353482D01*
X828888Y351906D01*
X827774Y349977D01*
X827197Y347824D01*
Y345596D01*
X827774Y343443D01*
X828888Y341514D01*
X830464Y339938D01*
X832393Y338824D01*
X834546Y338247D01*
X836774D01*
X838927Y338824D01*
X840856Y339938D01*
X842432Y341514D01*
X843546Y343443D01*
X844123Y345596D01*
Y347824D01*
X843546Y349977D01*
X842432Y351906D01*
X840856Y353482D01*
X838927Y354596D01*
X836774Y355173D01*
D02*
G37*
G36*
X227174D02*
X224946D01*
X222793Y354596D01*
X220864Y353482D01*
X219288Y351906D01*
X218174Y349977D01*
X217597Y347824D01*
Y345596D01*
X218174Y343443D01*
X219288Y341514D01*
X220864Y339938D01*
X222793Y338824D01*
X224946Y338247D01*
X227174D01*
X229327Y338824D01*
X231256Y339938D01*
X232832Y341514D01*
X233946Y343443D01*
X234523Y345596D01*
Y347824D01*
X233946Y349977D01*
X232832Y351906D01*
X231256Y353482D01*
X229327Y354596D01*
X227174Y355173D01*
D02*
G37*
G36*
X149882Y346404D02*
X148181D01*
X146608Y345753D01*
X145405Y344550D01*
X144754Y342977D01*
Y341275D01*
X145405Y339703D01*
X146608Y338500D01*
X148181Y337848D01*
X149882D01*
X151455Y338500D01*
X152658Y339703D01*
X153309Y341275D01*
Y342977D01*
X152658Y344550D01*
X151455Y345753D01*
X149882Y346404D01*
D02*
G37*
G36*
X198209Y345694D02*
X196507D01*
X194935Y345043D01*
X193731Y343839D01*
X193080Y342267D01*
Y340565D01*
X193731Y338993D01*
X194935Y337789D01*
X196507Y337138D01*
X198209D01*
X199781Y337789D01*
X200985Y338993D01*
X201636Y340565D01*
Y342267D01*
X200985Y343839D01*
X199781Y345043D01*
X198209Y345694D01*
D02*
G37*
G36*
X66007Y340868D02*
X63533D01*
X61143Y340228D01*
X59000Y338990D01*
X57250Y337240D01*
X56013Y335098D01*
X55372Y332707D01*
Y330233D01*
X56013Y327842D01*
X57250Y325700D01*
X59000Y323950D01*
X61143Y322713D01*
X63533Y322072D01*
X66007D01*
X68397Y322713D01*
X70540Y323950D01*
X72290Y325700D01*
X73527Y327842D01*
X74168Y330233D01*
Y332707D01*
X73527Y335098D01*
X72290Y337240D01*
X70540Y338990D01*
X68397Y340228D01*
X66007Y340868D01*
D02*
G37*
G36*
X40607D02*
X38133D01*
X35742Y340228D01*
X33600Y338990D01*
X31850Y337240D01*
X30612Y335098D01*
X29972Y332707D01*
Y330233D01*
X30612Y327842D01*
X31850Y325700D01*
X33600Y323950D01*
X35742Y322713D01*
X38133Y322072D01*
X40607D01*
X42997Y322713D01*
X45141Y323950D01*
X46890Y325700D01*
X48127Y327842D01*
X48768Y330233D01*
Y332707D01*
X48127Y335098D01*
X46890Y337240D01*
X45141Y338990D01*
X42997Y340228D01*
X40607Y340868D01*
D02*
G37*
G36*
X836774Y329773D02*
X834546D01*
X832393Y329196D01*
X830464Y328082D01*
X828888Y326506D01*
X827774Y324577D01*
X827197Y322424D01*
Y320196D01*
X827774Y318043D01*
X828888Y316114D01*
X830464Y314538D01*
X832393Y313424D01*
X834546Y312847D01*
X836774D01*
X838927Y313424D01*
X840856Y314538D01*
X842432Y316114D01*
X843546Y318043D01*
X844123Y320196D01*
Y322424D01*
X843546Y324577D01*
X842432Y326506D01*
X840856Y328082D01*
X838927Y329196D01*
X836774Y329773D01*
D02*
G37*
G36*
X199571Y317968D02*
X197869D01*
X196297Y317317D01*
X195094Y316113D01*
X194443Y314541D01*
Y312839D01*
X195094Y311267D01*
X196297Y310063D01*
X197869Y309412D01*
X199571D01*
X201144Y310063D01*
X202347Y311267D01*
X202999Y312839D01*
Y314541D01*
X202347Y316113D01*
X201144Y317317D01*
X199571Y317968D01*
D02*
G37*
G36*
X66007Y315468D02*
X63533D01*
X61143Y314828D01*
X59000Y313590D01*
X57250Y311840D01*
X56013Y309697D01*
X55372Y307307D01*
Y304833D01*
X56013Y302442D01*
X57250Y300299D01*
X59000Y298550D01*
X61143Y297313D01*
X63533Y296672D01*
X66007D01*
X68397Y297313D01*
X70540Y298550D01*
X72290Y300299D01*
X73527Y302442D01*
X74168Y304833D01*
Y307307D01*
X73527Y309697D01*
X72290Y311840D01*
X70540Y313590D01*
X68397Y314828D01*
X66007Y315468D01*
D02*
G37*
G36*
X40607D02*
X38133D01*
X35742Y314828D01*
X33600Y313590D01*
X31850Y311840D01*
X30612Y309697D01*
X29972Y307307D01*
Y304833D01*
X30612Y302442D01*
X31850Y300299D01*
X33600Y298550D01*
X35742Y297313D01*
X38133Y296672D01*
X40607D01*
X42997Y297313D01*
X45141Y298550D01*
X46890Y300299D01*
X48127Y302442D01*
X48768Y304833D01*
Y307307D01*
X48127Y309697D01*
X46890Y311840D01*
X45141Y313590D01*
X42997Y314828D01*
X40607Y315468D01*
D02*
G37*
G36*
X1031126Y314048D02*
X1028814D01*
X1026582Y313450D01*
X1024580Y312294D01*
X1022946Y310660D01*
X1021790Y308658D01*
X1021192Y306426D01*
Y304114D01*
X1021790Y301882D01*
X1022946Y299880D01*
X1024580Y298246D01*
X1026582Y297090D01*
X1028814Y296492D01*
X1031126D01*
X1033358Y297090D01*
X1035360Y298246D01*
X1036994Y299880D01*
X1038150Y301882D01*
X1038748Y304114D01*
Y306426D01*
X1038150Y308658D01*
X1036994Y310660D01*
X1035360Y312294D01*
X1033358Y313450D01*
X1031126Y314048D01*
D02*
G37*
G36*
X836774Y304373D02*
X834546D01*
X832393Y303796D01*
X830464Y302682D01*
X828888Y301106D01*
X827774Y299177D01*
X827197Y297024D01*
Y294796D01*
X827774Y292643D01*
X828888Y290714D01*
X830464Y289138D01*
X832393Y288024D01*
X834546Y287447D01*
X836774D01*
X838927Y288024D01*
X840856Y289138D01*
X842432Y290714D01*
X843546Y292643D01*
X844123Y294796D01*
Y297024D01*
X843546Y299177D01*
X842432Y301106D01*
X840856Y302682D01*
X838927Y303796D01*
X836774Y304373D01*
D02*
G37*
G36*
X202355Y290454D02*
X200653D01*
X199081Y289803D01*
X197877Y288599D01*
X197226Y287027D01*
Y285325D01*
X197877Y283753D01*
X199081Y282549D01*
X200653Y281898D01*
X202355D01*
X203927Y282549D01*
X205131Y283753D01*
X205782Y285325D01*
Y287027D01*
X205131Y288599D01*
X203927Y289803D01*
X202355Y290454D01*
D02*
G37*
G36*
X1031126Y289048D02*
X1028814D01*
X1026582Y288450D01*
X1024580Y287294D01*
X1022946Y285660D01*
X1021790Y283658D01*
X1021192Y281426D01*
Y279114D01*
X1021790Y276882D01*
X1022946Y274880D01*
X1024580Y273246D01*
X1026582Y272090D01*
X1028814Y271492D01*
X1031126D01*
X1033358Y272090D01*
X1035360Y273246D01*
X1036994Y274880D01*
X1038150Y276882D01*
X1038748Y279114D01*
Y281426D01*
X1038150Y283658D01*
X1036994Y285660D01*
X1035360Y287294D01*
X1033358Y288450D01*
X1031126Y289048D01*
D02*
G37*
G36*
X66007Y290068D02*
X63533D01*
X61143Y289428D01*
X59000Y288190D01*
X57250Y286441D01*
X56013Y284298D01*
X55372Y281907D01*
Y279433D01*
X56013Y277043D01*
X57250Y274900D01*
X59000Y273150D01*
X61143Y271912D01*
X63533Y271272D01*
X66007D01*
X68397Y271912D01*
X70540Y273150D01*
X72290Y274900D01*
X73527Y277043D01*
X74168Y279433D01*
Y281907D01*
X73527Y284298D01*
X72290Y286441D01*
X70540Y288190D01*
X68397Y289428D01*
X66007Y290068D01*
D02*
G37*
G36*
X40607D02*
X38133D01*
X35742Y289428D01*
X33600Y288190D01*
X31850Y286441D01*
X30612Y284298D01*
X29972Y281907D01*
Y279433D01*
X30612Y277043D01*
X31850Y274900D01*
X33600Y273150D01*
X35742Y271912D01*
X38133Y271272D01*
X40607D01*
X42997Y271912D01*
X45141Y273150D01*
X46890Y274900D01*
X48127Y277043D01*
X48768Y279433D01*
Y281907D01*
X48127Y284298D01*
X46890Y286441D01*
X45141Y288190D01*
X42997Y289428D01*
X40607Y290068D01*
D02*
G37*
G36*
X888274Y275038D02*
X886473D01*
X884809Y274349D01*
X883535Y273075D01*
X882846Y271411D01*
Y269609D01*
X883535Y267945D01*
X884809Y266671D01*
X886473Y265982D01*
X888274D01*
X889938Y266671D01*
X891212Y267945D01*
X891901Y269609D01*
Y271411D01*
X891212Y273075D01*
X889938Y274349D01*
X888274Y275038D01*
D02*
G37*
G36*
X145063Y271546D02*
X143361D01*
X141788Y270895D01*
X140585Y269692D01*
X139934Y268119D01*
Y266418D01*
X140585Y264845D01*
X141788Y263642D01*
X143361Y262990D01*
X145063D01*
X146635Y263642D01*
X147838Y264845D01*
X148490Y266418D01*
Y268119D01*
X147838Y269692D01*
X146635Y270895D01*
X145063Y271546D01*
D02*
G37*
G36*
X836774Y278973D02*
X834546D01*
X832393Y278396D01*
X830464Y277282D01*
X828888Y275706D01*
X827774Y273777D01*
X827197Y271624D01*
Y269396D01*
X827774Y267243D01*
X828888Y265314D01*
X830464Y263738D01*
X832393Y262624D01*
X834546Y262047D01*
X836774D01*
X838927Y262624D01*
X840856Y263738D01*
X842432Y265314D01*
X843546Y267243D01*
X844123Y269396D01*
Y271624D01*
X843546Y273777D01*
X842432Y275706D01*
X840856Y277282D01*
X838927Y278396D01*
X836774Y278973D01*
D02*
G37*
G36*
X141821Y260818D02*
X140119D01*
X138547Y260167D01*
X137343Y258963D01*
X136692Y257391D01*
Y255689D01*
X137343Y254117D01*
X138547Y252913D01*
X140119Y252262D01*
X141821D01*
X143393Y252913D01*
X144597Y254117D01*
X145248Y255689D01*
Y257391D01*
X144597Y258963D01*
X143393Y260167D01*
X141821Y260818D01*
D02*
G37*
G36*
X450431Y257008D02*
X448729D01*
X447157Y256357D01*
X445953Y255153D01*
X445302Y253581D01*
Y251879D01*
X445953Y250307D01*
X447157Y249103D01*
X448729Y248452D01*
X450431D01*
X452003Y249103D01*
X453207Y250307D01*
X453858Y251879D01*
Y253581D01*
X453207Y255153D01*
X452003Y256357D01*
X450431Y257008D01*
D02*
G37*
G36*
X1031126Y264048D02*
X1028814D01*
X1026582Y263450D01*
X1024580Y262294D01*
X1022946Y260660D01*
X1021790Y258658D01*
X1021192Y256426D01*
Y254114D01*
X1021790Y251882D01*
X1022946Y249880D01*
X1024580Y248246D01*
X1026582Y247090D01*
X1028814Y246492D01*
X1031126D01*
X1033358Y247090D01*
X1035360Y248246D01*
X1036994Y249880D01*
X1038150Y251882D01*
X1038748Y254114D01*
Y256426D01*
X1038150Y258658D01*
X1036994Y260660D01*
X1035360Y262294D01*
X1033358Y263450D01*
X1031126Y264048D01*
D02*
G37*
G36*
X66007Y264668D02*
X63533D01*
X61143Y264028D01*
X59000Y262790D01*
X57250Y261040D01*
X56013Y258897D01*
X55372Y256507D01*
Y254033D01*
X56013Y251642D01*
X57250Y249499D01*
X59000Y247750D01*
X61143Y246513D01*
X63533Y245872D01*
X66007D01*
X68397Y246513D01*
X70540Y247750D01*
X72290Y249499D01*
X73527Y251642D01*
X74168Y254033D01*
Y256507D01*
X73527Y258897D01*
X72290Y261040D01*
X70540Y262790D01*
X68397Y264028D01*
X66007Y264668D01*
D02*
G37*
G36*
X40607D02*
X38133D01*
X35742Y264028D01*
X33600Y262790D01*
X31850Y261040D01*
X30612Y258897D01*
X29972Y256507D01*
Y254033D01*
X30612Y251642D01*
X31850Y249499D01*
X33600Y247750D01*
X35742Y246513D01*
X38133Y245872D01*
X40607D01*
X42997Y246513D01*
X45141Y247750D01*
X46890Y249499D01*
X48127Y251642D01*
X48768Y254033D01*
Y256507D01*
X48127Y258897D01*
X46890Y261040D01*
X45141Y262790D01*
X42997Y264028D01*
X40607Y264668D01*
D02*
G37*
G36*
X836774Y253573D02*
X834546D01*
X832393Y252996D01*
X830464Y251882D01*
X828888Y250306D01*
X827774Y248377D01*
X827197Y246224D01*
Y243996D01*
X827774Y241843D01*
X828888Y239914D01*
X830464Y238338D01*
X832393Y237224D01*
X834546Y236647D01*
X836774D01*
X838927Y237224D01*
X840856Y238338D01*
X842432Y239914D01*
X843546Y241843D01*
X844123Y243996D01*
Y246224D01*
X843546Y248377D01*
X842432Y250306D01*
X840856Y251882D01*
X838927Y252996D01*
X836774Y253573D01*
D02*
G37*
G36*
X1038748Y239048D02*
X1021192D01*
Y221492D01*
X1038748D01*
Y239048D01*
D02*
G37*
G36*
X993737Y220178D02*
X992035D01*
X990463Y219527D01*
X989259Y218323D01*
X988608Y216751D01*
Y215049D01*
X989259Y213477D01*
X990463Y212273D01*
X992035Y211622D01*
X993737D01*
X995309Y212273D01*
X996513Y213477D01*
X997164Y215049D01*
Y216751D01*
X996513Y218323D01*
X995309Y219527D01*
X993737Y220178D01*
D02*
G37*
G36*
X836774Y228173D02*
X834546D01*
X832393Y227596D01*
X830464Y226482D01*
X828888Y224906D01*
X827774Y222977D01*
X827197Y220824D01*
Y218596D01*
X827774Y216443D01*
X828888Y214514D01*
X830464Y212938D01*
X832393Y211824D01*
X834546Y211247D01*
X836774D01*
X838927Y211824D01*
X840856Y212938D01*
X842432Y214514D01*
X843546Y216443D01*
X844123Y218596D01*
Y220824D01*
X843546Y222977D01*
X842432Y224906D01*
X840856Y226482D01*
X838927Y227596D01*
X836774Y228173D01*
D02*
G37*
G36*
Y202773D02*
X834546D01*
X832393Y202196D01*
X830464Y201082D01*
X828888Y199506D01*
X827774Y197577D01*
X827197Y195424D01*
Y193196D01*
X827774Y191043D01*
X828888Y189114D01*
X830464Y187538D01*
X832393Y186424D01*
X834546Y185847D01*
X836774D01*
X838927Y186424D01*
X840856Y187538D01*
X842432Y189114D01*
X843546Y191043D01*
X844123Y193196D01*
Y195424D01*
X843546Y197577D01*
X842432Y199506D01*
X840856Y201082D01*
X838927Y202196D01*
X836774Y202773D01*
D02*
G37*
G36*
X167271Y181045D02*
X165469D01*
X163805Y180355D01*
X162531Y179082D01*
X161842Y177418D01*
Y175616D01*
X162531Y173952D01*
X163805Y172678D01*
X165469Y171989D01*
X167271D01*
X168935Y172678D01*
X170209Y173952D01*
X170898Y175616D01*
Y177418D01*
X170209Y179082D01*
X168935Y180355D01*
X167271Y181045D01*
D02*
G37*
G36*
X1031126Y183238D02*
X1028814D01*
X1026582Y182640D01*
X1024580Y181484D01*
X1022946Y179850D01*
X1021790Y177848D01*
X1021192Y175616D01*
Y173304D01*
X1021790Y171072D01*
X1022946Y169070D01*
X1024580Y167436D01*
X1026582Y166280D01*
X1028814Y165682D01*
X1031126D01*
X1033358Y166280D01*
X1035360Y167436D01*
X1036994Y169070D01*
X1038150Y171072D01*
X1038748Y173304D01*
Y175616D01*
X1038150Y177848D01*
X1036994Y179850D01*
X1035360Y181484D01*
X1033358Y182640D01*
X1031126Y183238D01*
D02*
G37*
G36*
Y158238D02*
X1028814D01*
X1026582Y157640D01*
X1024580Y156484D01*
X1022946Y154850D01*
X1021790Y152848D01*
X1021192Y150616D01*
Y148304D01*
X1021790Y146072D01*
X1022946Y144070D01*
X1024580Y142436D01*
X1026582Y141280D01*
X1028814Y140682D01*
X1031126D01*
X1033358Y141280D01*
X1035360Y142436D01*
X1036994Y144070D01*
X1038150Y146072D01*
X1038748Y148304D01*
Y150616D01*
X1038150Y152848D01*
X1036994Y154850D01*
X1035360Y156484D01*
X1033358Y157640D01*
X1031126Y158238D01*
D02*
G37*
G36*
X227174Y151973D02*
X224946D01*
X222793Y151396D01*
X220864Y150282D01*
X219288Y148706D01*
X218174Y146777D01*
X217597Y144624D01*
Y142396D01*
X218174Y140243D01*
X219288Y138314D01*
X220864Y136738D01*
X222793Y135624D01*
X224946Y135047D01*
X227174D01*
X229327Y135624D01*
X231256Y136738D01*
X232832Y138314D01*
X233946Y140243D01*
X234523Y142396D01*
Y144624D01*
X233946Y146777D01*
X232832Y148706D01*
X231256Y150282D01*
X229327Y151396D01*
X227174Y151973D01*
D02*
G37*
G36*
X1031126Y133238D02*
X1028814D01*
X1026582Y132640D01*
X1024580Y131484D01*
X1022946Y129850D01*
X1021790Y127848D01*
X1021192Y125616D01*
Y123304D01*
X1021790Y121072D01*
X1022946Y119070D01*
X1024580Y117436D01*
X1026582Y116280D01*
X1028814Y115682D01*
X1031126D01*
X1033358Y116280D01*
X1035360Y117436D01*
X1036994Y119070D01*
X1038150Y121072D01*
X1038748Y123304D01*
Y125616D01*
X1038150Y127848D01*
X1036994Y129850D01*
X1035360Y131484D01*
X1033358Y132640D01*
X1031126Y133238D01*
D02*
G37*
G36*
X1038748Y108238D02*
X1021192D01*
Y90682D01*
X1038748D01*
Y108238D01*
D02*
G37*
G36*
X924141Y91908D02*
X922439D01*
X920867Y91257D01*
X919663Y90053D01*
X919012Y88481D01*
Y86779D01*
X919663Y85207D01*
X920867Y84003D01*
X922439Y83352D01*
X924141D01*
X925713Y84003D01*
X926917Y85207D01*
X927568Y86779D01*
Y88481D01*
X926917Y90053D01*
X925713Y91257D01*
X924141Y91908D01*
D02*
G37*
G36*
X283788Y53918D02*
X257232D01*
Y27362D01*
X283788D01*
Y53918D01*
D02*
G37*
G36*
X141548D02*
X114992D01*
Y27362D01*
X141548D01*
Y53918D01*
D02*
G37*
G36*
X864451Y16978D02*
X862749D01*
X861177Y16327D01*
X859973Y15123D01*
X859322Y13551D01*
Y11849D01*
X859973Y10277D01*
X861177Y9073D01*
X862749Y8422D01*
X864451D01*
X866023Y9073D01*
X867227Y10277D01*
X867878Y11849D01*
Y13551D01*
X867227Y15123D01*
X866023Y16327D01*
X864451Y16978D01*
D02*
G37*
G36*
X808571D02*
X806869D01*
X805297Y16327D01*
X804093Y15123D01*
X803442Y13551D01*
Y11849D01*
X804093Y10277D01*
X805297Y9073D01*
X806869Y8422D01*
X808571D01*
X810143Y9073D01*
X811347Y10277D01*
X811998Y11849D01*
Y13551D01*
X811347Y15123D01*
X810143Y16327D01*
X808571Y16978D01*
D02*
G37*
G36*
X747611D02*
X745909D01*
X744337Y16327D01*
X743133Y15123D01*
X742482Y13551D01*
Y11849D01*
X743133Y10277D01*
X744337Y9073D01*
X745909Y8422D01*
X747611D01*
X749183Y9073D01*
X750387Y10277D01*
X751038Y11849D01*
Y13551D01*
X750387Y15123D01*
X749183Y16327D01*
X747611Y16978D01*
D02*
G37*
G36*
X690461D02*
X688759D01*
X687187Y16327D01*
X685983Y15123D01*
X685332Y13551D01*
Y11849D01*
X685983Y10277D01*
X687187Y9073D01*
X688759Y8422D01*
X690461D01*
X692033Y9073D01*
X693237Y10277D01*
X693888Y11849D01*
Y13551D01*
X693237Y15123D01*
X692033Y16327D01*
X690461Y16978D01*
D02*
G37*
G36*
X632041D02*
X630339D01*
X628767Y16327D01*
X627563Y15123D01*
X626912Y13551D01*
Y11849D01*
X627563Y10277D01*
X628767Y9073D01*
X630339Y8422D01*
X632041D01*
X633613Y9073D01*
X634817Y10277D01*
X635468Y11849D01*
Y13551D01*
X634817Y15123D01*
X633613Y16327D01*
X632041Y16978D01*
D02*
G37*
G36*
X572351D02*
X570649D01*
X569077Y16327D01*
X567873Y15123D01*
X567222Y13551D01*
Y11849D01*
X567873Y10277D01*
X569077Y9073D01*
X570649Y8422D01*
X572351D01*
X573923Y9073D01*
X575127Y10277D01*
X575778Y11849D01*
Y13551D01*
X575127Y15123D01*
X573923Y16327D01*
X572351Y16978D01*
D02*
G37*
G36*
X512661D02*
X510959D01*
X509387Y16327D01*
X508183Y15123D01*
X507532Y13551D01*
Y11849D01*
X508183Y10277D01*
X509387Y9073D01*
X510959Y8422D01*
X512661D01*
X514233Y9073D01*
X515437Y10277D01*
X516088Y11849D01*
Y13551D01*
X515437Y15123D01*
X514233Y16327D01*
X512661Y16978D01*
D02*
G37*
G36*
X452971D02*
X451269D01*
X449697Y16327D01*
X448493Y15123D01*
X447842Y13551D01*
Y11849D01*
X448493Y10277D01*
X449697Y9073D01*
X451269Y8422D01*
X452971D01*
X454543Y9073D01*
X455747Y10277D01*
X456398Y11849D01*
Y13551D01*
X455747Y15123D01*
X454543Y16327D01*
X452971Y16978D01*
D02*
G37*
%LPD*%
D91*
X1029970Y682060D02*
D03*
Y657060D02*
D03*
Y632060D02*
D03*
Y607060D02*
D03*
Y582060D02*
D03*
Y492430D02*
D03*
Y467430D02*
D03*
Y442430D02*
D03*
Y417430D02*
D03*
Y392430D02*
D03*
X1029970Y305270D02*
D03*
Y255270D02*
D03*
Y280270D02*
D03*
Y174460D02*
D03*
Y124460D02*
D03*
Y149460D02*
D03*
D92*
X1029970Y557060D02*
D03*
Y367430D02*
D03*
X1029970Y230270D02*
D03*
Y99460D02*
D03*
D95*
X813340Y704770D02*
D03*
X804840D02*
D03*
X796340D02*
D03*
X787840D02*
D03*
X779340D02*
D03*
X770840D02*
D03*
X762340D02*
D03*
X753840D02*
D03*
Y691270D02*
D03*
X762340D02*
D03*
X770840D02*
D03*
X779340D02*
D03*
X787840D02*
D03*
X796340D02*
D03*
X804840D02*
D03*
X813340D02*
D03*
D96*
X740340Y701070D02*
D03*
X826840D02*
D03*
D97*
X740340Y734870D02*
D03*
X826840D02*
D03*
D100*
X102770Y15140D02*
D03*
Y66140D02*
D03*
X153770Y15140D02*
D03*
Y66140D02*
D03*
X245010Y15140D02*
D03*
Y66140D02*
D03*
X296010Y15140D02*
D03*
Y66140D02*
D03*
X1027430Y755650D02*
D03*
X963930D02*
D03*
D101*
X128270Y40640D02*
D03*
X270510D02*
D03*
D112*
X472370Y674323D02*
D03*
X524370D02*
D03*
X438370D02*
D03*
D113*
X533370Y747322D02*
D03*
X434370D02*
D03*
D115*
X33020Y749300D02*
D03*
X1094740D02*
D03*
X33020Y33020D02*
D03*
X1094740D02*
D03*
D116*
X326390Y613410D02*
D03*
X402590D02*
D03*
X326390Y588010D02*
D03*
X402590D02*
D03*
X326390Y562610D02*
D03*
X402590D02*
D03*
Y537210D02*
D03*
X326390D02*
D03*
Y511810D02*
D03*
X402590D02*
D03*
X326390Y486410D02*
D03*
X402590D02*
D03*
D118*
X835660Y194310D02*
D03*
Y219710D02*
D03*
Y245110D02*
D03*
Y270510D02*
D03*
Y295910D02*
D03*
Y321310D02*
D03*
Y346710D02*
D03*
X226060Y372110D02*
D03*
Y346710D02*
D03*
Y143510D02*
D03*
Y168910D02*
D03*
X835660Y372110D02*
D03*
Y168910D02*
D03*
Y143510D02*
D03*
D119*
X781050Y546100D02*
D03*
Y538480D02*
D03*
X760730Y553720D02*
D03*
Y546100D02*
D03*
X768350D02*
D03*
Y538480D02*
D03*
X781050Y530860D02*
D03*
X793496Y538016D02*
D03*
X768350Y530860D02*
D03*
X760730D02*
D03*
Y538480D02*
D03*
X748030Y537210D02*
D03*
X257590Y603649D02*
D03*
X302955Y586165D02*
D03*
X804781Y502357D02*
D03*
X226060Y711200D02*
D03*
X186690Y748030D02*
D03*
X243840Y716280D02*
D03*
X262890Y702310D02*
D03*
X220980Y732790D02*
D03*
X452120Y12700D02*
D03*
X511810D02*
D03*
X571500D02*
D03*
X631190D02*
D03*
X689610D02*
D03*
X746760D02*
D03*
X807720D02*
D03*
X863600D02*
D03*
X155154Y287020D02*
D03*
Y297180D02*
D03*
Y307340D02*
D03*
X140970Y256540D02*
D03*
X144212Y267268D02*
D03*
X467360Y497840D02*
D03*
X606697Y772160D02*
D03*
X617764D02*
D03*
X471170Y755650D02*
D03*
X494030Y740410D02*
D03*
X253973Y549415D02*
D03*
X574040Y626110D02*
D03*
X563880D02*
D03*
X584200D02*
D03*
X604520D02*
D03*
X594360D02*
D03*
X803333Y592083D02*
D03*
X772160Y666750D02*
D03*
Y675640D02*
D03*
X795020D02*
D03*
Y666750D02*
D03*
Y647700D02*
D03*
Y657860D02*
D03*
X772160Y656590D02*
D03*
Y647700D02*
D03*
X794258Y548640D02*
D03*
X684530Y494030D02*
D03*
X831850Y581660D02*
D03*
X182880Y187960D02*
D03*
X120650Y93980D02*
D03*
X129540Y102870D02*
D03*
X137160Y110490D02*
D03*
X139700Y95250D02*
D03*
X147320Y102870D02*
D03*
X160020Y127000D02*
D03*
X167640Y118110D02*
D03*
X158067Y105287D02*
D03*
X176530Y109220D02*
D03*
X214443Y48107D02*
D03*
X207010Y57150D02*
D03*
X189230Y73660D02*
D03*
X181610Y81280D02*
D03*
X173990Y88900D02*
D03*
X166370Y96520D02*
D03*
X218440Y68580D02*
D03*
X209550Y76200D02*
D03*
X280670Y585470D02*
D03*
X275590Y502920D02*
D03*
X285750Y748030D02*
D03*
X726948Y567309D02*
D03*
X153416Y542036D02*
D03*
X953770Y431800D02*
D03*
X247650Y527304D02*
D03*
X716280Y571754D02*
D03*
X923290Y87630D02*
D03*
X905510Y78740D02*
D03*
Y68580D02*
D03*
X196850Y66040D02*
D03*
X200660Y85090D02*
D03*
X193040Y92710D02*
D03*
X185420Y100330D02*
D03*
X902970Y591820D02*
D03*
X913130D02*
D03*
X902710Y625290D02*
D03*
X912870D02*
D03*
X933027Y624840D02*
D03*
X923290D02*
D03*
X942763D02*
D03*
X952500D02*
D03*
X923290Y614680D02*
D03*
X942763D02*
D03*
X933027D02*
D03*
X913130D02*
D03*
X902970D02*
D03*
X952500D02*
D03*
X574040Y613410D02*
D03*
X563880D02*
D03*
X584200D02*
D03*
X952500Y603250D02*
D03*
X902970D02*
D03*
X913130D02*
D03*
X933027D02*
D03*
X942763D02*
D03*
X923290D02*
D03*
X902970Y636270D02*
D03*
X913130D02*
D03*
X189230Y572770D02*
D03*
X198120D02*
D03*
X244039Y579057D02*
D03*
X233680Y579120D02*
D03*
X895814Y498646D02*
D03*
X748030Y547370D02*
D03*
X120650Y768350D02*
D03*
X367030Y713740D02*
D03*
X838160Y545990D02*
D03*
X826814Y544278D02*
D03*
X874978Y504138D02*
D03*
X862076Y444246D02*
D03*
X140970Y582930D02*
D03*
X142621Y592836D02*
D03*
X162624Y614362D02*
D03*
X187442Y642437D02*
D03*
X844550Y430530D02*
D03*
X95250Y619760D02*
D03*
X201716Y580390D02*
D03*
X193881Y603810D02*
D03*
X199390Y508000D02*
D03*
X201789Y496356D02*
D03*
X194310Y517442D02*
D03*
X724548Y487680D02*
D03*
X709930Y464820D02*
D03*
X717377Y512774D02*
D03*
X177428Y348878D02*
D03*
X636488Y402273D02*
D03*
X203607Y629692D02*
D03*
X533400Y533400D02*
D03*
X674370Y525780D02*
D03*
X294722Y603464D02*
D03*
X681990Y547370D02*
D03*
X701040Y545500D02*
D03*
X690533Y531099D02*
D03*
X795334Y495947D02*
D03*
X913130Y574040D02*
D03*
X901700D02*
D03*
X913130Y561340D02*
D03*
X901700D02*
D03*
X890270D02*
D03*
X850900Y566420D02*
D03*
X156210Y483870D02*
D03*
Y494030D02*
D03*
X405130Y78740D02*
D03*
Y58420D02*
D03*
Y68580D02*
D03*
X463550Y78740D02*
D03*
Y58420D02*
D03*
Y68580D02*
D03*
X523240Y78740D02*
D03*
Y58420D02*
D03*
Y68580D02*
D03*
X582930Y78740D02*
D03*
Y58420D02*
D03*
Y68580D02*
D03*
X641350Y78740D02*
D03*
Y58420D02*
D03*
Y68580D02*
D03*
X699770Y78740D02*
D03*
Y58420D02*
D03*
Y68580D02*
D03*
X759460Y78740D02*
D03*
Y58420D02*
D03*
Y68580D02*
D03*
X967740Y78740D02*
D03*
Y58420D02*
D03*
Y68580D02*
D03*
X905510Y58420D02*
D03*
X204470Y421640D02*
D03*
X105333Y521593D02*
D03*
X81280Y509270D02*
D03*
X194546Y462133D02*
D03*
X161330Y627723D02*
D03*
X193040Y633017D02*
D03*
X197906Y674150D02*
D03*
X203200Y486410D02*
D03*
X918210Y431800D02*
D03*
X774700Y518454D02*
D03*
X763270Y519430D02*
D03*
X748030Y527050D02*
D03*
X811530Y427990D02*
D03*
X227330Y676910D02*
D03*
X346710Y685800D02*
D03*
X345440Y734060D02*
D03*
X106625Y466792D02*
D03*
X836930Y523240D02*
D03*
X836426Y512612D02*
D03*
X195580Y474980D02*
D03*
X199350Y528868D02*
D03*
X236220Y518160D02*
D03*
X869950Y461010D02*
D03*
X704850Y558800D02*
D03*
X695408Y554990D02*
D03*
X689610Y562610D02*
D03*
X861060Y596900D02*
D03*
X840740Y576580D02*
D03*
Y586740D02*
D03*
X850900Y576580D02*
D03*
Y586740D02*
D03*
Y596900D02*
D03*
X872490D02*
D03*
X99060Y455930D02*
D03*
X843280Y416560D02*
D03*
X919480Y467360D02*
D03*
X149031Y342126D02*
D03*
X623570Y551180D02*
D03*
X666750Y538480D02*
D03*
X788225Y517652D02*
D03*
X15767Y548131D02*
D03*
Y452727D02*
D03*
Y575390D02*
D03*
Y561761D02*
D03*
Y439097D02*
D03*
Y398209D02*
D03*
Y384580D02*
D03*
Y425468D02*
D03*
Y411839D02*
D03*
Y670795D02*
D03*
Y657166D02*
D03*
Y698054D02*
D03*
Y684424D02*
D03*
Y643537D02*
D03*
Y602649D02*
D03*
Y589019D02*
D03*
Y629907D02*
D03*
Y616278D02*
D03*
Y248288D02*
D03*
Y234658D02*
D03*
Y221029D02*
D03*
Y289175D02*
D03*
Y275546D02*
D03*
Y261917D02*
D03*
Y166512D02*
D03*
Y152883D02*
D03*
Y207400D02*
D03*
Y193771D02*
D03*
Y180141D02*
D03*
Y330063D02*
D03*
Y316434D02*
D03*
Y302805D02*
D03*
Y370951D02*
D03*
Y357322D02*
D03*
Y343693D02*
D03*
Y466356D02*
D03*
Y520873D02*
D03*
Y534502D02*
D03*
Y507244D02*
D03*
Y479985D02*
D03*
Y493615D02*
D03*
Y139254D02*
D03*
X95250Y381000D02*
D03*
X193040Y439420D02*
D03*
X215900Y424180D02*
D03*
X195580Y397510D02*
D03*
X389890Y482600D02*
D03*
X806450Y742950D02*
D03*
X795020D02*
D03*
X783590D02*
D03*
X772160D02*
D03*
X760730D02*
D03*
X595630Y772160D02*
D03*
X628831D02*
D03*
X639899D02*
D03*
X650966D02*
D03*
X662033D02*
D03*
X450850Y740410D02*
D03*
X201504Y286176D02*
D03*
X449580Y252730D02*
D03*
X735330Y676910D02*
D03*
X463550Y651510D02*
D03*
X230759Y656804D02*
D03*
X904240Y716280D02*
D03*
X986790Y519430D02*
D03*
X975360D02*
D03*
X986790Y530860D02*
D03*
X963930Y519430D02*
D03*
X986790Y542290D02*
D03*
X975360Y530860D02*
D03*
X953770Y519430D02*
D03*
X888402Y527722D02*
D03*
X883920Y716280D02*
D03*
X795782Y523200D02*
D03*
X975360Y542290D02*
D03*
X963930Y530860D02*
D03*
Y542290D02*
D03*
X953770Y530860D02*
D03*
Y542290D02*
D03*
X105410Y636270D02*
D03*
X533400Y482600D02*
D03*
Y492760D02*
D03*
X485140Y497840D02*
D03*
X500380Y492760D02*
D03*
X819150Y68580D02*
D03*
Y58420D02*
D03*
Y78740D02*
D03*
X160020Y379730D02*
D03*
X105410Y349250D02*
D03*
X148590Y356870D02*
D03*
X248920Y662940D02*
D03*
X209550Y657860D02*
D03*
X186690Y703580D02*
D03*
X673100Y772160D02*
D03*
X596900Y486410D02*
D03*
X910590Y245110D02*
D03*
X977900Y408940D02*
D03*
X890270Y574040D02*
D03*
X346710Y715010D02*
D03*
X299720Y685800D02*
D03*
X346710Y659130D02*
D03*
X106680Y657860D02*
D03*
X107950Y551180D02*
D03*
X182880Y444500D02*
D03*
X198628Y661162D02*
D03*
X548230Y388620D02*
D03*
X715010Y558800D02*
D03*
X136873Y623310D02*
D03*
X992886Y215900D02*
D03*
X131318Y597310D02*
D03*
X730250Y509983D02*
D03*
X97917Y506170D02*
D03*
X735375Y477475D02*
D03*
X757050Y484041D02*
D03*
X208280Y471170D02*
D03*
X809244Y512064D02*
D03*
X802894Y407924D02*
D03*
X198720Y313690D02*
D03*
X723900Y681990D02*
D03*
X220853Y665028D02*
D03*
X28702Y396875D02*
D03*
X161590Y416710D02*
D03*
X53086Y594614D02*
D03*
X82498Y606044D02*
D03*
X103632Y427990D02*
D03*
X97028Y416710D02*
D03*
X82042Y521970D02*
D03*
X153797Y599694D02*
D03*
X197358Y341416D02*
D03*
X778510Y601980D02*
D03*
X788670Y591820D02*
D03*
X945174Y436967D02*
D03*
X703927Y510921D02*
D03*
X191489Y377710D02*
D03*
X839470Y688340D02*
D03*
D120*
X268915Y583255D02*
D03*
X313690Y615950D02*
D03*
X203213Y711650D02*
D03*
X246143Y708288D02*
D03*
X392942Y743462D02*
D03*
X382270Y774700D02*
D03*
X725170Y764540D02*
D03*
X712252Y712252D02*
D03*
X327660Y722630D02*
D03*
X267970Y742950D02*
D03*
X314505Y659627D02*
D03*
X274320Y703580D02*
D03*
X887374Y270510D02*
D03*
X656590Y756920D02*
D03*
X383540Y725170D02*
D03*
X399091Y757231D02*
D03*
X613743Y744303D02*
D03*
X602742Y743966D02*
D03*
X415290Y748030D02*
D03*
X405763Y725275D02*
D03*
X626110Y744728D02*
D03*
X648208D02*
D03*
X601980Y703834D02*
D03*
X613743Y698833D02*
D03*
X629158Y693928D02*
D03*
X648673Y685292D02*
D03*
X166370Y176517D02*
D03*
D121*
X39370Y661670D02*
D03*
X64770D02*
D03*
X39370Y636270D02*
D03*
X64770D02*
D03*
X39370Y610870D02*
D03*
X64770D02*
D03*
X39370Y585470D02*
D03*
X64770D02*
D03*
X39370Y560070D02*
D03*
X64770D02*
D03*
X39370Y534670D02*
D03*
X64770D02*
D03*
X39370Y509270D02*
D03*
X64770D02*
D03*
X39370Y483870D02*
D03*
X64770D02*
D03*
X39370Y458470D02*
D03*
X64770D02*
D03*
X39370Y433070D02*
D03*
X64770D02*
D03*
X39370Y407670D02*
D03*
X64770D02*
D03*
X39370Y382270D02*
D03*
X64770D02*
D03*
X39370Y356870D02*
D03*
X64770D02*
D03*
X39370Y331470D02*
D03*
X64770D02*
D03*
X39370Y306070D02*
D03*
X64770D02*
D03*
X39370Y280670D02*
D03*
X64770D02*
D03*
X39370Y255270D02*
D03*
X64770D02*
D03*
X39370Y229870D02*
D03*
X64770D02*
D03*
X39370Y204470D02*
D03*
X64770D02*
D03*
X39370Y179070D02*
D03*
X64770D02*
D03*
M02*
