G04*
G04 #@! TF.GenerationSoftware,Altium Limited,Altium Designer,25.4.2 (15)*
G04*
G04 Layer_Color=16711935*
%FSLAX44Y44*%
%MOMM*%
G71*
G04*
G04 #@! TF.SameCoordinates,C8064B0B-EDE6-4B3A-8A14-C26425D78004*
G04*
G04*
G04 #@! TF.FilePolarity,Positive*
G04*
G01*
G75*
%ADD10C,0.5080*%
%ADD12C,0.1500*%
%ADD15C,0.2000*%
%ADD16C,0.1270*%
%ADD39C,0.0254*%
%ADD40C,0.1000*%
D10*
X1318260Y179070D02*
G03*
X1318260Y179070I-3810J0D01*
G01*
D12*
X1252360Y30480D02*
G03*
X1252360Y30480I-16650J0D01*
G01*
X1186320D02*
G03*
X1186320Y30480I-16650J0D01*
G01*
X1124090Y745490D02*
G03*
X1124090Y745490I-16650J0D01*
G01*
X1190130D02*
G03*
X1190130Y745490I-16650J0D01*
G01*
D15*
X874903Y77597D02*
X948817D01*
X874903Y3683D02*
Y77597D01*
Y3683D02*
X948817D01*
Y77597D01*
X83058Y78232D02*
X156972D01*
X83058Y4318D02*
Y78232D01*
Y4318D02*
X156972D01*
Y78232D01*
X1018413Y77597D02*
X1092327D01*
X1018413Y3683D02*
Y77597D01*
Y3683D02*
X1092327D01*
Y77597D01*
X227203Y76327D02*
X301117D01*
X227203Y2413D02*
Y76327D01*
Y2413D02*
X301117D01*
Y76327D01*
X681300Y571890D02*
X690300D01*
Y588890D01*
X681300D02*
X690300D01*
X681300Y571890D02*
Y588890D01*
X386660Y575700D02*
X395660D01*
Y592700D01*
X386660D02*
X395660D01*
X386660Y575700D02*
Y592700D01*
X941650Y214550D02*
X950650D01*
X941650Y197550D02*
Y214550D01*
Y197550D02*
X950650D01*
Y214550D01*
X968320Y214240D02*
X977320D01*
X968320Y197240D02*
Y214240D01*
Y197240D02*
X977320D01*
Y214240D01*
X841320Y569350D02*
X850320D01*
Y586350D01*
X841320D02*
X850320D01*
X841320Y569350D02*
Y586350D01*
X714320Y212970D02*
X723320D01*
X714320Y195970D02*
Y212970D01*
Y195970D02*
X723320D01*
Y212970D01*
X293950Y225670D02*
X302950D01*
X293950Y208670D02*
Y225670D01*
Y208670D02*
X302950D01*
Y225670D01*
X942920Y568200D02*
X951920D01*
Y585200D01*
X942920D02*
X951920D01*
X942920Y568200D02*
Y585200D01*
X198700Y221860D02*
X207700D01*
X198700Y204860D02*
Y221860D01*
Y204860D02*
X207700D01*
Y221860D01*
X401900Y218050D02*
X410900D01*
X401900Y201050D02*
Y218050D01*
Y201050D02*
X410900D01*
Y218050D01*
X447620Y575700D02*
X456620D01*
Y592700D01*
X447620D02*
X456620D01*
X447620Y575700D02*
Y592700D01*
X147900Y566810D02*
X156900D01*
Y583810D01*
X147900D02*
X156900D01*
X147900Y566810D02*
Y583810D01*
D16*
X855596Y606968D02*
G03*
X856434Y558964I-839J-24024D01*
G01*
X1053520Y579970D02*
G03*
X1026520Y606970I-27000J0D01*
G01*
X1016520Y553970D02*
G03*
X1011520Y558970I-5000J0D01*
G01*
X295594Y182973D02*
G03*
X294756Y230976I839J24024D01*
G01*
X97670Y209970D02*
G03*
X124670Y182970I27000J0D01*
G01*
X134670Y235970D02*
G03*
X139670Y230970I5000J0D01*
G01*
X642020Y235970D02*
X1099020D01*
X642020D02*
Y553970D01*
X1016520D01*
X1053520D01*
X1099020D01*
Y235970D02*
Y553970D01*
X855520Y606970D02*
X1026520D01*
X856520Y558970D02*
X1011520D01*
X1053520Y553970D02*
Y579970D01*
X52170Y553970D02*
X509170D01*
Y235970D02*
Y553970D01*
X134670Y235970D02*
X509170D01*
X97670D02*
X134670D01*
X52170D02*
X97670D01*
X52170D02*
Y553970D01*
X124670Y182970D02*
X295670D01*
X139670Y230970D02*
X294670D01*
X97670Y209970D02*
Y235970D01*
D39*
X1238950Y128270D02*
X1326326D01*
X1238950D02*
Y712470D01*
X1326326D01*
Y128270D02*
Y712470D01*
D40*
X814900Y780340D02*
X938900D01*
X814900Y665340D02*
Y780340D01*
Y665340D02*
X938900D01*
Y780340D01*
X222280D02*
X346280D01*
X222280Y665340D02*
Y780340D01*
Y665340D02*
X346280D01*
Y780340D01*
M02*
