G04*
G04 #@! TF.GenerationSoftware,Altium Limited,Altium Designer,25.4.2 (15)*
G04*
G04 Layer_Color=32896*
%FSLAX44Y44*%
%MOMM*%
G71*
G04*
G04 #@! TF.SameCoordinates,C8064B0B-EDE6-4B3A-8A14-C26425D78004*
G04*
G04*
G04 #@! TF.FilePolarity,Positive*
G04*
G01*
G75*
%ADD10C,0.5080*%
%ADD15C,0.2000*%
G36*
X369303Y342601D02*
X369373Y342481D01*
X369535Y342249D01*
X369711Y342031D01*
X369802Y341925D01*
X369887Y341827D01*
X369971Y341743D01*
X370048Y341658D01*
X370119Y341588D01*
X370182Y341524D01*
X370231Y341475D01*
X370267Y341440D01*
X370295Y341419D01*
X370302Y341412D01*
X370590Y341173D01*
X370893Y340955D01*
X371188Y340757D01*
X371329Y340673D01*
X371463Y340589D01*
X371582Y340518D01*
X371695Y340455D01*
X371800Y340399D01*
X371885Y340356D01*
X371955Y340321D01*
X372011Y340293D01*
X372040Y340279D01*
X372054Y340272D01*
Y339118D01*
X371843Y339202D01*
X371624Y339301D01*
X371413Y339399D01*
X371216Y339498D01*
X371132Y339547D01*
X371048Y339590D01*
X370977Y339632D01*
X370921Y339667D01*
X370872Y339688D01*
X370829Y339709D01*
X370808Y339723D01*
X370801Y339730D01*
X370548Y339885D01*
X370435Y339962D01*
X370323Y340033D01*
X370224Y340110D01*
X370133Y340173D01*
X370048Y340244D01*
X369964Y340300D01*
X369901Y340356D01*
X369837Y340406D01*
X369781Y340455D01*
X369739Y340490D01*
X369704Y340518D01*
X369683Y340539D01*
X369669Y340553D01*
X369661Y340560D01*
Y332948D01*
X368465D01*
Y342720D01*
X369239D01*
X369303Y342601D01*
D02*
G37*
G36*
X378323Y342847D02*
X378555Y342826D01*
X378780Y342798D01*
X378998Y342763D01*
X379202Y342720D01*
X379399Y342664D01*
X379582Y342615D01*
X379751Y342559D01*
X379899Y342502D01*
X380039Y342453D01*
X380159Y342404D01*
X380257Y342355D01*
X380342Y342319D01*
X380398Y342291D01*
X380433Y342270D01*
X380447Y342263D01*
X380644Y342144D01*
X380827Y342017D01*
X380996Y341883D01*
X381158Y341743D01*
X381306Y341602D01*
X381439Y341461D01*
X381566Y341313D01*
X381672Y341180D01*
X381770Y341053D01*
X381862Y340926D01*
X381932Y340821D01*
X381995Y340729D01*
X382038Y340645D01*
X382073Y340589D01*
X382094Y340553D01*
X382101Y340539D01*
X382199Y340321D01*
X382291Y340103D01*
X382368Y339878D01*
X382431Y339653D01*
X382488Y339428D01*
X382537Y339202D01*
X382572Y338992D01*
X382607Y338795D01*
X382629Y338605D01*
X382650Y338429D01*
X382657Y338274D01*
X382671Y338140D01*
Y338035D01*
X382678Y337992D01*
Y337957D01*
Y337929D01*
Y337908D01*
Y337894D01*
Y337887D01*
X382671Y337626D01*
X382657Y337373D01*
X382629Y337127D01*
X382600Y336895D01*
X382558Y336663D01*
X382516Y336451D01*
X382467Y336247D01*
X382417Y336058D01*
X382375Y335889D01*
X382326Y335734D01*
X382284Y335600D01*
X382242Y335488D01*
X382213Y335396D01*
X382185Y335333D01*
X382171Y335291D01*
X382164Y335284D01*
Y335277D01*
X382066Y335059D01*
X381953Y334847D01*
X381833Y334657D01*
X381714Y334474D01*
X381587Y334313D01*
X381460Y334158D01*
X381341Y334024D01*
X381221Y333898D01*
X381109Y333785D01*
X381003Y333694D01*
X380912Y333609D01*
X380827Y333546D01*
X380757Y333497D01*
X380708Y333454D01*
X380680Y333433D01*
X380666Y333426D01*
X380476Y333314D01*
X380271Y333215D01*
X380060Y333131D01*
X379849Y333053D01*
X379638Y332997D01*
X379420Y332941D01*
X379216Y332898D01*
X379012Y332863D01*
X378829Y332842D01*
X378653Y332821D01*
X378498Y332807D01*
X378365Y332793D01*
X378259D01*
X378210Y332786D01*
X378105D01*
X377823Y332793D01*
X377556Y332821D01*
X377302Y332863D01*
X377056Y332912D01*
X376831Y332976D01*
X376620Y333046D01*
X376423Y333124D01*
X376247Y333201D01*
X376085Y333278D01*
X375945Y333356D01*
X375818Y333426D01*
X375719Y333489D01*
X375635Y333539D01*
X375579Y333581D01*
X375543Y333609D01*
X375529Y333616D01*
X375339Y333785D01*
X375163Y333961D01*
X375002Y334151D01*
X374854Y334348D01*
X374720Y334552D01*
X374601Y334749D01*
X374495Y334946D01*
X374404Y335143D01*
X374319Y335326D01*
X374249Y335495D01*
X374193Y335642D01*
X374143Y335776D01*
X374108Y335882D01*
X374094Y335931D01*
X374087Y335966D01*
X374080Y335994D01*
X374073Y336015D01*
X374066Y336029D01*
Y336036D01*
X375354Y336360D01*
X375410Y336135D01*
X375473Y335931D01*
X375543Y335734D01*
X375628Y335558D01*
X375705Y335389D01*
X375797Y335234D01*
X375881Y335101D01*
X375966Y334974D01*
X376043Y334869D01*
X376120Y334770D01*
X376191Y334693D01*
X376254Y334629D01*
X376303Y334573D01*
X376339Y334538D01*
X376367Y334517D01*
X376374Y334510D01*
X376521Y334404D01*
X376669Y334306D01*
X376824Y334221D01*
X376979Y334151D01*
X377133Y334095D01*
X377288Y334045D01*
X377436Y334003D01*
X377577Y333968D01*
X377703Y333940D01*
X377830Y333926D01*
X377936Y333912D01*
X378027Y333898D01*
X378105D01*
X378161Y333890D01*
X378210D01*
X378372Y333898D01*
X378534Y333912D01*
X378688Y333933D01*
X378843Y333961D01*
X378984Y333996D01*
X379125Y334038D01*
X379251Y334073D01*
X379371Y334123D01*
X379476Y334165D01*
X379575Y334200D01*
X379659Y334242D01*
X379730Y334277D01*
X379786Y334306D01*
X379828Y334327D01*
X379856Y334341D01*
X379863Y334348D01*
X380004Y334439D01*
X380131Y334538D01*
X380250Y334643D01*
X380363Y334756D01*
X380461Y334869D01*
X380553Y334988D01*
X380637Y335101D01*
X380715Y335206D01*
X380778Y335312D01*
X380834Y335410D01*
X380884Y335502D01*
X380919Y335579D01*
X380954Y335642D01*
X380975Y335685D01*
X380982Y335720D01*
X380989Y335727D01*
X381053Y335903D01*
X381109Y336086D01*
X381158Y336269D01*
X381193Y336459D01*
X381264Y336817D01*
X381285Y336993D01*
X381306Y337162D01*
X381320Y337310D01*
X381327Y337451D01*
X381334Y337577D01*
X381341Y337683D01*
X381348Y337774D01*
Y337838D01*
Y337880D01*
Y337894D01*
X381341Y338077D01*
X381334Y338253D01*
X381299Y338590D01*
X381278Y338752D01*
X381250Y338907D01*
X381221Y339055D01*
X381193Y339188D01*
X381165Y339315D01*
X381144Y339428D01*
X381116Y339526D01*
X381095Y339611D01*
X381074Y339674D01*
X381059Y339723D01*
X381045Y339758D01*
Y339765D01*
X380982Y339934D01*
X380912Y340089D01*
X380834Y340237D01*
X380750Y340370D01*
X380666Y340504D01*
X380581Y340624D01*
X380490Y340729D01*
X380405Y340828D01*
X380321Y340912D01*
X380243Y340990D01*
X380173Y341053D01*
X380110Y341109D01*
X380060Y341152D01*
X380025Y341187D01*
X379997Y341201D01*
X379990Y341208D01*
X379842Y341306D01*
X379688Y341384D01*
X379533Y341461D01*
X379378Y341524D01*
X379216Y341574D01*
X379061Y341616D01*
X378914Y341651D01*
X378766Y341679D01*
X378632Y341707D01*
X378506Y341721D01*
X378393Y341735D01*
X378294Y341743D01*
X378217Y341749D01*
X378111D01*
X377929Y341743D01*
X377760Y341728D01*
X377598Y341707D01*
X377443Y341672D01*
X377302Y341637D01*
X377169Y341595D01*
X377049Y341553D01*
X376936Y341510D01*
X376838Y341461D01*
X376746Y341419D01*
X376669Y341377D01*
X376606Y341341D01*
X376557Y341306D01*
X376521Y341285D01*
X376500Y341271D01*
X376493Y341264D01*
X376374Y341166D01*
X376261Y341060D01*
X376163Y340940D01*
X376064Y340821D01*
X375973Y340687D01*
X375895Y340560D01*
X375818Y340434D01*
X375755Y340307D01*
X375698Y340188D01*
X375642Y340075D01*
X375600Y339977D01*
X375564Y339892D01*
X375536Y339815D01*
X375515Y339765D01*
X375508Y339730D01*
X375501Y339716D01*
X374235Y340012D01*
X374312Y340258D01*
X374411Y340490D01*
X374509Y340708D01*
X374622Y340912D01*
X374734Y341095D01*
X374847Y341271D01*
X374967Y341426D01*
X375079Y341567D01*
X375192Y341693D01*
X375290Y341799D01*
X375382Y341897D01*
X375466Y341968D01*
X375529Y342031D01*
X375586Y342073D01*
X375614Y342101D01*
X375628Y342108D01*
X375818Y342242D01*
X376015Y342355D01*
X376226Y342453D01*
X376430Y342537D01*
X376634Y342615D01*
X376838Y342671D01*
X377035Y342720D01*
X377225Y342763D01*
X377408Y342791D01*
X377570Y342812D01*
X377710Y342833D01*
X377837Y342840D01*
X377943Y342847D01*
X377985Y342854D01*
X378083D01*
X378323Y342847D01*
D02*
G37*
G36*
X362464Y342713D02*
X362682Y342692D01*
X362893Y342657D01*
X363083Y342608D01*
X363266Y342552D01*
X363435Y342488D01*
X363590Y342425D01*
X363723Y342362D01*
X363850Y342291D01*
X363955Y342228D01*
X364047Y342165D01*
X364124Y342108D01*
X364188Y342066D01*
X364230Y342024D01*
X364258Y342003D01*
X364265Y341996D01*
X364399Y341855D01*
X364518Y341714D01*
X364617Y341559D01*
X364701Y341412D01*
X364779Y341257D01*
X364842Y341109D01*
X364891Y340969D01*
X364926Y340828D01*
X364962Y340701D01*
X364983Y340582D01*
X365004Y340476D01*
X365011Y340385D01*
X365018Y340314D01*
X365025Y340258D01*
Y340223D01*
Y340209D01*
X365018Y340082D01*
X365011Y339955D01*
X364969Y339723D01*
X364940Y339618D01*
X364912Y339519D01*
X364877Y339428D01*
X364842Y339343D01*
X364814Y339266D01*
X364779Y339196D01*
X364751Y339139D01*
X364722Y339090D01*
X364701Y339048D01*
X364680Y339020D01*
X364673Y339006D01*
X364666Y338998D01*
X364596Y338907D01*
X364518Y338823D01*
X364342Y338668D01*
X364160Y338534D01*
X363977Y338422D01*
X363892Y338379D01*
X363815Y338337D01*
X363744Y338302D01*
X363681Y338274D01*
X363632Y338253D01*
X363597Y338239D01*
X363568Y338225D01*
X363562D01*
X363723Y338175D01*
X363878Y338119D01*
X364019Y338056D01*
X364152Y337992D01*
X364279Y337922D01*
X364392Y337845D01*
X364490Y337774D01*
X364589Y337704D01*
X364666Y337634D01*
X364736Y337570D01*
X364800Y337507D01*
X364849Y337458D01*
X364891Y337416D01*
X364919Y337380D01*
X364933Y337359D01*
X364940Y337352D01*
X365025Y337225D01*
X365095Y337099D01*
X365159Y336965D01*
X365215Y336832D01*
X365264Y336698D01*
X365299Y336571D01*
X365335Y336437D01*
X365356Y336318D01*
X365377Y336205D01*
X365391Y336100D01*
X365405Y336001D01*
X365412Y335924D01*
X365419Y335854D01*
Y335804D01*
Y335776D01*
Y335762D01*
X365412Y335530D01*
X365384Y335305D01*
X365335Y335094D01*
X365278Y334890D01*
X365215Y334707D01*
X365137Y334531D01*
X365060Y334369D01*
X364976Y334221D01*
X364898Y334087D01*
X364821Y333975D01*
X364743Y333876D01*
X364673Y333792D01*
X364624Y333722D01*
X364575Y333679D01*
X364547Y333644D01*
X364539Y333637D01*
X364364Y333489D01*
X364188Y333356D01*
X363998Y333243D01*
X363801Y333145D01*
X363604Y333060D01*
X363414Y332997D01*
X363224Y332941D01*
X363041Y332891D01*
X362872Y332856D01*
X362710Y332828D01*
X362569Y332814D01*
X362450Y332800D01*
X362351Y332793D01*
X362274Y332786D01*
X362211D01*
X361950Y332793D01*
X361697Y332821D01*
X361465Y332863D01*
X361240Y332920D01*
X361036Y332983D01*
X360846Y333053D01*
X360670Y333131D01*
X360508Y333208D01*
X360367Y333285D01*
X360248Y333363D01*
X360135Y333433D01*
X360051Y333497D01*
X359980Y333553D01*
X359931Y333595D01*
X359896Y333623D01*
X359889Y333630D01*
X359734Y333792D01*
X359593Y333968D01*
X359481Y334137D01*
X359375Y334320D01*
X359291Y334496D01*
X359220Y334664D01*
X359157Y334833D01*
X359115Y334995D01*
X359080Y335150D01*
X359052Y335291D01*
X359030Y335410D01*
X359016Y335516D01*
X359009Y335607D01*
X359002Y335671D01*
Y335713D01*
Y335727D01*
X359009Y335896D01*
X359023Y336058D01*
X359044Y336205D01*
X359073Y336353D01*
X359115Y336487D01*
X359150Y336620D01*
X359192Y336733D01*
X359234Y336846D01*
X359284Y336944D01*
X359326Y337029D01*
X359361Y337106D01*
X359396Y337169D01*
X359431Y337219D01*
X359453Y337254D01*
X359467Y337275D01*
X359474Y337282D01*
X359565Y337401D01*
X359671Y337507D01*
X359776Y337612D01*
X359889Y337704D01*
X360001Y337788D01*
X360114Y337866D01*
X360227Y337936D01*
X360339Y337999D01*
X360438Y338056D01*
X360536Y338098D01*
X360620Y338140D01*
X360698Y338168D01*
X360761Y338196D01*
X360803Y338210D01*
X360839Y338225D01*
X360846D01*
X360712Y338281D01*
X360592Y338337D01*
X360480Y338400D01*
X360367Y338464D01*
X360276Y338527D01*
X360184Y338590D01*
X360107Y338654D01*
X360029Y338717D01*
X359966Y338773D01*
X359917Y338830D01*
X359868Y338872D01*
X359832Y338914D01*
X359797Y338949D01*
X359776Y338977D01*
X359769Y338992D01*
X359762Y338998D01*
X359699Y339097D01*
X359642Y339196D01*
X359593Y339294D01*
X359551Y339393D01*
X359488Y339590D01*
X359445Y339772D01*
X359431Y339857D01*
X359424Y339934D01*
X359417Y340005D01*
X359410Y340061D01*
X359403Y340110D01*
Y340145D01*
Y340167D01*
Y340173D01*
X359410Y340370D01*
X359439Y340553D01*
X359474Y340736D01*
X359523Y340905D01*
X359586Y341060D01*
X359650Y341208D01*
X359720Y341348D01*
X359790Y341475D01*
X359868Y341588D01*
X359938Y341686D01*
X360001Y341771D01*
X360065Y341841D01*
X360114Y341897D01*
X360149Y341940D01*
X360177Y341968D01*
X360184Y341975D01*
X360332Y342108D01*
X360494Y342221D01*
X360663Y342319D01*
X360832Y342404D01*
X361000Y342481D01*
X361169Y342537D01*
X361338Y342587D01*
X361500Y342629D01*
X361648Y342657D01*
X361788Y342678D01*
X361915Y342699D01*
X362021Y342706D01*
X362112Y342713D01*
X362175Y342720D01*
X362232D01*
X362464Y342713D01*
D02*
G37*
G36*
X907811Y474681D02*
X907881Y474561D01*
X908043Y474329D01*
X908219Y474111D01*
X908310Y474005D01*
X908395Y473907D01*
X908479Y473823D01*
X908557Y473738D01*
X908627Y473668D01*
X908690Y473604D01*
X908739Y473555D01*
X908775Y473520D01*
X908803Y473499D01*
X908810Y473492D01*
X909098Y473253D01*
X909401Y473035D01*
X909696Y472837D01*
X909837Y472753D01*
X909971Y472669D01*
X910090Y472598D01*
X910203Y472535D01*
X910309Y472479D01*
X910393Y472436D01*
X910463Y472401D01*
X910520Y472373D01*
X910548Y472359D01*
X910562Y472352D01*
Y471198D01*
X910351Y471283D01*
X910133Y471381D01*
X909921Y471479D01*
X909725Y471578D01*
X909640Y471627D01*
X909556Y471670D01*
X909485Y471712D01*
X909429Y471747D01*
X909380Y471768D01*
X909338Y471789D01*
X909316Y471803D01*
X909309Y471810D01*
X909056Y471965D01*
X908944Y472042D01*
X908831Y472113D01*
X908733Y472190D01*
X908641Y472253D01*
X908557Y472324D01*
X908472Y472380D01*
X908409Y472436D01*
X908345Y472486D01*
X908289Y472535D01*
X908247Y472570D01*
X908212Y472598D01*
X908191Y472619D01*
X908177Y472633D01*
X908170Y472640D01*
Y465028D01*
X906973D01*
Y474800D01*
X907747D01*
X907811Y474681D01*
D02*
G37*
G36*
X903702Y469636D02*
X902576Y469488D01*
X902471Y469636D01*
X902351Y469770D01*
X902231Y469882D01*
X902119Y469981D01*
X902013Y470058D01*
X901929Y470115D01*
X901894Y470136D01*
X901873Y470150D01*
X901859Y470164D01*
X901852D01*
X901676Y470255D01*
X901493Y470319D01*
X901317Y470368D01*
X901155Y470396D01*
X901077Y470410D01*
X901014Y470417D01*
X900951Y470424D01*
X900902D01*
X900859Y470431D01*
X900803D01*
X900634Y470424D01*
X900472Y470403D01*
X900318Y470375D01*
X900170Y470340D01*
X900036Y470298D01*
X899917Y470241D01*
X899804Y470192D01*
X899698Y470136D01*
X899607Y470079D01*
X899530Y470030D01*
X899459Y469981D01*
X899403Y469932D01*
X899354Y469897D01*
X899326Y469868D01*
X899305Y469847D01*
X899297Y469840D01*
X899199Y469728D01*
X899108Y469601D01*
X899030Y469474D01*
X898967Y469341D01*
X898911Y469200D01*
X898861Y469066D01*
X898826Y468940D01*
X898791Y468813D01*
X898770Y468686D01*
X898749Y468581D01*
X898735Y468475D01*
X898728Y468391D01*
Y468321D01*
X898721Y468264D01*
Y468236D01*
Y468222D01*
X898728Y468025D01*
X898749Y467842D01*
X898777Y467666D01*
X898812Y467497D01*
X898861Y467342D01*
X898911Y467202D01*
X898967Y467075D01*
X899016Y466955D01*
X899072Y466850D01*
X899129Y466758D01*
X899178Y466681D01*
X899227Y466618D01*
X899262Y466569D01*
X899290Y466526D01*
X899312Y466505D01*
X899319Y466498D01*
X899431Y466386D01*
X899551Y466287D01*
X899677Y466196D01*
X899797Y466125D01*
X899924Y466062D01*
X900043Y466006D01*
X900163Y465964D01*
X900275Y465935D01*
X900381Y465907D01*
X900480Y465886D01*
X900571Y465872D01*
X900641Y465858D01*
X900705D01*
X900747Y465851D01*
X900789D01*
X900923Y465858D01*
X901049Y465872D01*
X901169Y465893D01*
X901282Y465921D01*
X901394Y465956D01*
X901493Y465999D01*
X901591Y466034D01*
X901676Y466083D01*
X901753Y466125D01*
X901816Y466161D01*
X901880Y466203D01*
X901929Y466238D01*
X901971Y466266D01*
X901999Y466287D01*
X902013Y466301D01*
X902020Y466308D01*
X902112Y466400D01*
X902196Y466498D01*
X902267Y466604D01*
X902337Y466716D01*
X902393Y466829D01*
X902442Y466949D01*
X902527Y467167D01*
X902562Y467272D01*
X902590Y467371D01*
X902611Y467462D01*
X902633Y467539D01*
X902646Y467603D01*
X902654Y467645D01*
X902661Y467680D01*
Y467687D01*
X903913Y467582D01*
X903885Y467357D01*
X903836Y467146D01*
X903779Y466941D01*
X903716Y466752D01*
X903639Y466576D01*
X903554Y466414D01*
X903477Y466266D01*
X903392Y466132D01*
X903308Y466013D01*
X903231Y465907D01*
X903153Y465816D01*
X903090Y465738D01*
X903034Y465682D01*
X902991Y465640D01*
X902963Y465612D01*
X902956Y465605D01*
X902794Y465478D01*
X902625Y465358D01*
X902442Y465260D01*
X902267Y465176D01*
X902084Y465105D01*
X901901Y465049D01*
X901725Y465000D01*
X901556Y464957D01*
X901401Y464929D01*
X901253Y464908D01*
X901120Y464887D01*
X901007Y464880D01*
X900916Y464873D01*
X900845Y464866D01*
X900789D01*
X900494Y464880D01*
X900212Y464915D01*
X899952Y464978D01*
X899706Y465049D01*
X899473Y465140D01*
X899262Y465239D01*
X899072Y465344D01*
X898896Y465457D01*
X898742Y465569D01*
X898608Y465675D01*
X898495Y465774D01*
X898397Y465865D01*
X898326Y465942D01*
X898270Y465999D01*
X898242Y466034D01*
X898228Y466048D01*
X898094Y466231D01*
X897975Y466421D01*
X897869Y466611D01*
X897778Y466808D01*
X897707Y466998D01*
X897644Y467188D01*
X897595Y467371D01*
X897553Y467547D01*
X897517Y467708D01*
X897496Y467856D01*
X897475Y467990D01*
X897468Y468109D01*
X897461Y468201D01*
X897454Y468271D01*
Y468292D01*
Y468313D01*
Y468321D01*
Y468327D01*
X897461Y468581D01*
X897489Y468820D01*
X897539Y469052D01*
X897588Y469270D01*
X897658Y469467D01*
X897736Y469657D01*
X897813Y469826D01*
X897890Y469981D01*
X897975Y470122D01*
X898052Y470248D01*
X898130Y470354D01*
X898193Y470438D01*
X898249Y470509D01*
X898298Y470558D01*
X898326Y470593D01*
X898334Y470600D01*
X898502Y470755D01*
X898678Y470896D01*
X898861Y471008D01*
X899044Y471114D01*
X899227Y471198D01*
X899403Y471269D01*
X899579Y471332D01*
X899741Y471374D01*
X899895Y471409D01*
X900043Y471437D01*
X900170Y471458D01*
X900283Y471473D01*
X900367Y471479D01*
X900437Y471487D01*
X900494D01*
X900669Y471479D01*
X900852Y471458D01*
X901021Y471430D01*
X901190Y471388D01*
X901345Y471346D01*
X901500Y471297D01*
X901640Y471240D01*
X901774Y471184D01*
X901894Y471121D01*
X902006Y471072D01*
X902098Y471015D01*
X902175Y470973D01*
X902245Y470931D01*
X902288Y470903D01*
X902323Y470882D01*
X902330Y470874D01*
X901809Y473499D01*
X897911D01*
Y474639D01*
X902759D01*
X903702Y469636D01*
D02*
G37*
G36*
X916831Y474927D02*
X917063Y474906D01*
X917288Y474878D01*
X917506Y474843D01*
X917710Y474800D01*
X917907Y474744D01*
X918090Y474695D01*
X918259Y474639D01*
X918407Y474582D01*
X918547Y474533D01*
X918667Y474484D01*
X918765Y474435D01*
X918850Y474399D01*
X918906Y474371D01*
X918941Y474350D01*
X918956Y474343D01*
X919153Y474224D01*
X919335Y474097D01*
X919504Y473963D01*
X919666Y473823D01*
X919814Y473682D01*
X919948Y473541D01*
X920074Y473393D01*
X920180Y473260D01*
X920278Y473133D01*
X920370Y473006D01*
X920440Y472901D01*
X920503Y472809D01*
X920546Y472725D01*
X920581Y472669D01*
X920602Y472633D01*
X920609Y472619D01*
X920707Y472401D01*
X920799Y472183D01*
X920876Y471958D01*
X920940Y471733D01*
X920996Y471508D01*
X921045Y471283D01*
X921080Y471072D01*
X921115Y470874D01*
X921137Y470685D01*
X921158Y470509D01*
X921165Y470354D01*
X921179Y470220D01*
Y470115D01*
X921186Y470072D01*
Y470037D01*
Y470009D01*
Y469988D01*
Y469974D01*
Y469967D01*
X921179Y469706D01*
X921165Y469453D01*
X921137Y469207D01*
X921108Y468975D01*
X921066Y468743D01*
X921024Y468531D01*
X920975Y468327D01*
X920926Y468138D01*
X920883Y467969D01*
X920834Y467814D01*
X920792Y467680D01*
X920750Y467568D01*
X920722Y467476D01*
X920693Y467413D01*
X920679Y467371D01*
X920672Y467364D01*
Y467357D01*
X920574Y467138D01*
X920461Y466927D01*
X920342Y466737D01*
X920222Y466554D01*
X920095Y466393D01*
X919969Y466238D01*
X919849Y466104D01*
X919730Y465978D01*
X919617Y465865D01*
X919511Y465774D01*
X919420Y465689D01*
X919335Y465626D01*
X919265Y465577D01*
X919216Y465534D01*
X919188Y465513D01*
X919174Y465506D01*
X918984Y465394D01*
X918780Y465295D01*
X918568Y465211D01*
X918357Y465133D01*
X918146Y465077D01*
X917928Y465021D01*
X917724Y464978D01*
X917520Y464943D01*
X917337Y464922D01*
X917161Y464901D01*
X917007Y464887D01*
X916873Y464873D01*
X916767D01*
X916718Y464866D01*
X916613D01*
X916331Y464873D01*
X916064Y464901D01*
X915810Y464943D01*
X915564Y464992D01*
X915339Y465056D01*
X915128Y465126D01*
X914931Y465204D01*
X914755Y465281D01*
X914593Y465358D01*
X914453Y465436D01*
X914326Y465506D01*
X914228Y465569D01*
X914143Y465619D01*
X914087Y465661D01*
X914052Y465689D01*
X914037Y465696D01*
X913848Y465865D01*
X913672Y466041D01*
X913510Y466231D01*
X913362Y466428D01*
X913228Y466632D01*
X913109Y466829D01*
X913003Y467026D01*
X912912Y467223D01*
X912827Y467406D01*
X912757Y467575D01*
X912701Y467722D01*
X912651Y467856D01*
X912616Y467962D01*
X912602Y468011D01*
X912595Y468046D01*
X912588Y468074D01*
X912581Y468095D01*
X912574Y468109D01*
Y468116D01*
X913862Y468440D01*
X913918Y468215D01*
X913981Y468011D01*
X914052Y467814D01*
X914136Y467638D01*
X914213Y467469D01*
X914305Y467314D01*
X914389Y467181D01*
X914474Y467054D01*
X914551Y466949D01*
X914629Y466850D01*
X914699Y466773D01*
X914762Y466709D01*
X914811Y466653D01*
X914847Y466618D01*
X914875Y466597D01*
X914882Y466590D01*
X915030Y466484D01*
X915177Y466386D01*
X915332Y466301D01*
X915487Y466231D01*
X915642Y466175D01*
X915796Y466125D01*
X915944Y466083D01*
X916085Y466048D01*
X916212Y466020D01*
X916338Y466006D01*
X916444Y465992D01*
X916535Y465978D01*
X916613D01*
X916669Y465970D01*
X916718D01*
X916880Y465978D01*
X917042Y465992D01*
X917197Y466013D01*
X917351Y466041D01*
X917492Y466076D01*
X917633Y466118D01*
X917759Y466153D01*
X917879Y466203D01*
X917985Y466245D01*
X918083Y466280D01*
X918167Y466322D01*
X918238Y466357D01*
X918294Y466386D01*
X918336Y466407D01*
X918364Y466421D01*
X918372Y466428D01*
X918512Y466519D01*
X918639Y466618D01*
X918758Y466723D01*
X918871Y466836D01*
X918970Y466949D01*
X919061Y467068D01*
X919146Y467181D01*
X919223Y467286D01*
X919286Y467392D01*
X919342Y467490D01*
X919392Y467582D01*
X919427Y467659D01*
X919462Y467722D01*
X919483Y467765D01*
X919490Y467800D01*
X919497Y467807D01*
X919561Y467983D01*
X919617Y468166D01*
X919666Y468349D01*
X919701Y468539D01*
X919772Y468897D01*
X919793Y469073D01*
X919814Y469242D01*
X919828Y469390D01*
X919835Y469531D01*
X919842Y469657D01*
X919849Y469763D01*
X919856Y469854D01*
Y469918D01*
Y469960D01*
Y469974D01*
X919849Y470157D01*
X919842Y470333D01*
X919807Y470670D01*
X919786Y470832D01*
X919758Y470987D01*
X919730Y471135D01*
X919701Y471269D01*
X919673Y471395D01*
X919652Y471508D01*
X919624Y471606D01*
X919603Y471691D01*
X919582Y471754D01*
X919568Y471803D01*
X919554Y471838D01*
Y471845D01*
X919490Y472014D01*
X919420Y472169D01*
X919342Y472317D01*
X919258Y472450D01*
X919174Y472584D01*
X919089Y472704D01*
X918998Y472809D01*
X918913Y472908D01*
X918829Y472992D01*
X918752Y473070D01*
X918681Y473133D01*
X918618Y473189D01*
X918568Y473232D01*
X918533Y473267D01*
X918505Y473281D01*
X918498Y473288D01*
X918350Y473386D01*
X918196Y473464D01*
X918041Y473541D01*
X917886Y473604D01*
X917724Y473654D01*
X917570Y473696D01*
X917422Y473731D01*
X917274Y473759D01*
X917140Y473787D01*
X917014Y473801D01*
X916901Y473815D01*
X916803Y473823D01*
X916725Y473829D01*
X916620D01*
X916437Y473823D01*
X916268Y473808D01*
X916106Y473787D01*
X915951Y473752D01*
X915810Y473717D01*
X915677Y473675D01*
X915557Y473633D01*
X915445Y473590D01*
X915346Y473541D01*
X915255Y473499D01*
X915177Y473457D01*
X915114Y473421D01*
X915065Y473386D01*
X915030Y473365D01*
X915008Y473351D01*
X915001Y473344D01*
X914882Y473246D01*
X914769Y473140D01*
X914671Y473020D01*
X914572Y472901D01*
X914481Y472767D01*
X914403Y472640D01*
X914326Y472514D01*
X914263Y472387D01*
X914206Y472268D01*
X914150Y472155D01*
X914108Y472057D01*
X914073Y471972D01*
X914044Y471895D01*
X914023Y471845D01*
X914016Y471810D01*
X914009Y471796D01*
X912743Y472092D01*
X912820Y472338D01*
X912919Y472570D01*
X913017Y472788D01*
X913130Y472992D01*
X913242Y473175D01*
X913355Y473351D01*
X913475Y473506D01*
X913587Y473647D01*
X913700Y473773D01*
X913798Y473879D01*
X913890Y473977D01*
X913974Y474048D01*
X914037Y474111D01*
X914094Y474153D01*
X914122Y474181D01*
X914136Y474188D01*
X914326Y474322D01*
X914523Y474435D01*
X914734Y474533D01*
X914938Y474618D01*
X915142Y474695D01*
X915346Y474751D01*
X915543Y474800D01*
X915733Y474843D01*
X915916Y474871D01*
X916078Y474892D01*
X916219Y474913D01*
X916345Y474920D01*
X916451Y474927D01*
X916493Y474934D01*
X916591D01*
X916831Y474927D01*
D02*
G37*
G36*
X309307Y448257D02*
X309574Y448229D01*
X309827Y448187D01*
X310074Y448138D01*
X310299Y448074D01*
X310510Y448004D01*
X310707Y447926D01*
X310883Y447849D01*
X311045Y447772D01*
X311185Y447694D01*
X311312Y447624D01*
X311411Y447561D01*
X311495Y447511D01*
X311551Y447469D01*
X311586Y447441D01*
X311600Y447434D01*
X311790Y447265D01*
X311966Y447089D01*
X312128Y446899D01*
X312276Y446702D01*
X312410Y446498D01*
X312529Y446301D01*
X312635Y446104D01*
X312726Y445907D01*
X312811Y445724D01*
X312881Y445555D01*
X312937Y445408D01*
X312987Y445274D01*
X313022Y445168D01*
X313036Y445119D01*
X313043Y445084D01*
X313050Y445056D01*
X313057Y445035D01*
X313064Y445021D01*
Y445014D01*
X311776Y444690D01*
X311720Y444915D01*
X311657Y445119D01*
X311586Y445316D01*
X311502Y445492D01*
X311425Y445661D01*
X311333Y445816D01*
X311249Y445949D01*
X311164Y446076D01*
X311087Y446181D01*
X311009Y446280D01*
X310939Y446357D01*
X310876Y446421D01*
X310826Y446477D01*
X310791Y446512D01*
X310763Y446533D01*
X310756Y446540D01*
X310608Y446646D01*
X310461Y446744D01*
X310306Y446829D01*
X310151Y446899D01*
X309996Y446955D01*
X309841Y447005D01*
X309694Y447047D01*
X309553Y447082D01*
X309426Y447110D01*
X309300Y447124D01*
X309194Y447138D01*
X309103Y447152D01*
X309025D01*
X308969Y447160D01*
X308920D01*
X308758Y447152D01*
X308596Y447138D01*
X308441Y447117D01*
X308287Y447089D01*
X308146Y447054D01*
X308005Y447012D01*
X307878Y446977D01*
X307759Y446927D01*
X307653Y446885D01*
X307555Y446850D01*
X307470Y446808D01*
X307400Y446772D01*
X307344Y446744D01*
X307302Y446723D01*
X307273Y446709D01*
X307266Y446702D01*
X307126Y446611D01*
X306999Y446512D01*
X306879Y446407D01*
X306767Y446294D01*
X306668Y446181D01*
X306577Y446062D01*
X306493Y445949D01*
X306415Y445844D01*
X306352Y445738D01*
X306296Y445640D01*
X306246Y445548D01*
X306211Y445471D01*
X306176Y445408D01*
X306155Y445365D01*
X306148Y445330D01*
X306141Y445323D01*
X306077Y445147D01*
X306021Y444964D01*
X305972Y444781D01*
X305937Y444591D01*
X305866Y444233D01*
X305845Y444057D01*
X305824Y443888D01*
X305810Y443740D01*
X305803Y443599D01*
X305796Y443473D01*
X305789Y443367D01*
X305782Y443276D01*
Y443212D01*
Y443170D01*
Y443156D01*
X305789Y442973D01*
X305796Y442797D01*
X305831Y442460D01*
X305852Y442298D01*
X305880Y442143D01*
X305909Y441995D01*
X305937Y441861D01*
X305965Y441735D01*
X305986Y441622D01*
X306014Y441524D01*
X306035Y441439D01*
X306056Y441376D01*
X306070Y441327D01*
X306084Y441292D01*
Y441285D01*
X306148Y441116D01*
X306218Y440961D01*
X306296Y440813D01*
X306380Y440680D01*
X306464Y440546D01*
X306549Y440426D01*
X306640Y440321D01*
X306725Y440222D01*
X306809Y440138D01*
X306887Y440060D01*
X306957Y439997D01*
X307020Y439941D01*
X307069Y439898D01*
X307105Y439863D01*
X307133Y439849D01*
X307140Y439842D01*
X307288Y439744D01*
X307442Y439666D01*
X307597Y439589D01*
X307752Y439526D01*
X307914Y439476D01*
X308069Y439434D01*
X308216Y439399D01*
X308364Y439371D01*
X308498Y439343D01*
X308624Y439329D01*
X308737Y439315D01*
X308835Y439308D01*
X308913Y439300D01*
X309018D01*
X309201Y439308D01*
X309370Y439322D01*
X309532Y439343D01*
X309687Y439378D01*
X309827Y439413D01*
X309961Y439455D01*
X310081Y439497D01*
X310193Y439540D01*
X310292Y439589D01*
X310383Y439631D01*
X310461Y439673D01*
X310524Y439709D01*
X310573Y439744D01*
X310608Y439765D01*
X310630Y439779D01*
X310637Y439786D01*
X310756Y439884D01*
X310869Y439990D01*
X310967Y440110D01*
X311066Y440229D01*
X311157Y440363D01*
X311235Y440490D01*
X311312Y440616D01*
X311375Y440743D01*
X311432Y440862D01*
X311488Y440975D01*
X311530Y441073D01*
X311565Y441158D01*
X311593Y441235D01*
X311614Y441285D01*
X311622Y441320D01*
X311629Y441334D01*
X312895Y441038D01*
X312818Y440792D01*
X312719Y440560D01*
X312621Y440342D01*
X312508Y440138D01*
X312395Y439955D01*
X312283Y439779D01*
X312163Y439624D01*
X312051Y439483D01*
X311938Y439357D01*
X311840Y439251D01*
X311748Y439153D01*
X311664Y439082D01*
X311600Y439019D01*
X311544Y438977D01*
X311516Y438949D01*
X311502Y438942D01*
X311312Y438808D01*
X311115Y438695D01*
X310904Y438597D01*
X310700Y438512D01*
X310496Y438435D01*
X310292Y438379D01*
X310095Y438330D01*
X309905Y438287D01*
X309722Y438259D01*
X309560Y438238D01*
X309419Y438217D01*
X309293Y438210D01*
X309187Y438203D01*
X309145Y438196D01*
X309046D01*
X308807Y438203D01*
X308575Y438224D01*
X308350Y438252D01*
X308132Y438287D01*
X307928Y438330D01*
X307731Y438386D01*
X307548Y438435D01*
X307379Y438491D01*
X307231Y438548D01*
X307090Y438597D01*
X306971Y438646D01*
X306872Y438695D01*
X306788Y438731D01*
X306732Y438759D01*
X306696Y438780D01*
X306682Y438787D01*
X306485Y438907D01*
X306303Y439033D01*
X306134Y439167D01*
X305972Y439308D01*
X305824Y439448D01*
X305690Y439589D01*
X305564Y439737D01*
X305458Y439870D01*
X305360Y439997D01*
X305268Y440124D01*
X305198Y440229D01*
X305135Y440321D01*
X305092Y440405D01*
X305057Y440461D01*
X305036Y440497D01*
X305029Y440511D01*
X304930Y440729D01*
X304839Y440947D01*
X304762Y441172D01*
X304698Y441397D01*
X304642Y441622D01*
X304593Y441847D01*
X304558Y442058D01*
X304522Y442256D01*
X304501Y442445D01*
X304480Y442621D01*
X304473Y442776D01*
X304459Y442910D01*
Y443015D01*
X304452Y443058D01*
Y443093D01*
Y443121D01*
Y443142D01*
Y443156D01*
Y443163D01*
X304459Y443424D01*
X304473Y443677D01*
X304501Y443923D01*
X304529Y444155D01*
X304572Y444387D01*
X304614Y444599D01*
X304663Y444803D01*
X304712Y444992D01*
X304755Y445161D01*
X304804Y445316D01*
X304846Y445450D01*
X304888Y445562D01*
X304916Y445654D01*
X304945Y445717D01*
X304959Y445759D01*
X304966Y445766D01*
Y445773D01*
X305064Y445992D01*
X305177Y446203D01*
X305296Y446393D01*
X305416Y446576D01*
X305543Y446737D01*
X305669Y446892D01*
X305789Y447026D01*
X305909Y447152D01*
X306021Y447265D01*
X306127Y447356D01*
X306218Y447441D01*
X306303Y447504D01*
X306373Y447553D01*
X306422Y447596D01*
X306450Y447617D01*
X306464Y447624D01*
X306654Y447736D01*
X306858Y447835D01*
X307069Y447919D01*
X307281Y447997D01*
X307491Y448053D01*
X307710Y448109D01*
X307914Y448152D01*
X308118Y448187D01*
X308301Y448208D01*
X308477Y448229D01*
X308631Y448243D01*
X308765Y448257D01*
X308871D01*
X308920Y448264D01*
X309025D01*
X309307Y448257D01*
D02*
G37*
G36*
X318664Y438330D02*
X317890D01*
X317827Y438449D01*
X317757Y438569D01*
X317595Y438801D01*
X317419Y439019D01*
X317328Y439125D01*
X317243Y439223D01*
X317159Y439308D01*
X317081Y439392D01*
X317011Y439462D01*
X316948Y439526D01*
X316898Y439575D01*
X316863Y439610D01*
X316835Y439631D01*
X316828Y439638D01*
X316540Y439877D01*
X316237Y440095D01*
X315942Y440293D01*
X315801Y440377D01*
X315667Y440461D01*
X315548Y440532D01*
X315435Y440595D01*
X315329Y440651D01*
X315245Y440694D01*
X315175Y440729D01*
X315118Y440757D01*
X315090Y440771D01*
X315076Y440778D01*
Y441932D01*
X315287Y441847D01*
X315505Y441749D01*
X315716Y441651D01*
X315913Y441552D01*
X315998Y441503D01*
X316082Y441460D01*
X316153Y441418D01*
X316209Y441383D01*
X316258Y441362D01*
X316300Y441341D01*
X316322Y441327D01*
X316329Y441320D01*
X316582Y441165D01*
X316694Y441088D01*
X316807Y441017D01*
X316905Y440940D01*
X316997Y440877D01*
X317081Y440806D01*
X317166Y440750D01*
X317229Y440694D01*
X317292Y440644D01*
X317349Y440595D01*
X317391Y440560D01*
X317426Y440532D01*
X317447Y440511D01*
X317461Y440497D01*
X317468Y440490D01*
Y448102D01*
X318664D01*
Y438330D01*
D02*
G37*
G36*
X328008Y446955D02*
X323238D01*
X323315Y446836D01*
X323400Y446716D01*
X323484Y446611D01*
X323561Y446512D01*
X323632Y446435D01*
X323688Y446371D01*
X323723Y446329D01*
X323737Y446315D01*
X323801Y446245D01*
X323885Y446167D01*
X323976Y446083D01*
X324082Y445984D01*
X324194Y445886D01*
X324307Y445780D01*
X324546Y445576D01*
X324659Y445478D01*
X324764Y445387D01*
X324856Y445302D01*
X324947Y445232D01*
X325018Y445168D01*
X325067Y445126D01*
X325102Y445091D01*
X325116Y445084D01*
X325348Y444887D01*
X325566Y444697D01*
X325764Y444521D01*
X325946Y444359D01*
X326115Y444204D01*
X326263Y444064D01*
X326404Y443937D01*
X326523Y443825D01*
X326629Y443719D01*
X326713Y443628D01*
X326791Y443550D01*
X326854Y443487D01*
X326903Y443438D01*
X326931Y443402D01*
X326953Y443381D01*
X326960Y443374D01*
X327058Y443255D01*
X327157Y443142D01*
X327241Y443030D01*
X327318Y442924D01*
X327459Y442720D01*
X327515Y442628D01*
X327565Y442544D01*
X327614Y442467D01*
X327649Y442396D01*
X327684Y442333D01*
X327705Y442284D01*
X327727Y442242D01*
X327741Y442213D01*
X327755Y442192D01*
Y442185D01*
X327832Y441974D01*
X327895Y441770D01*
X327938Y441573D01*
X327966Y441397D01*
X327973Y441320D01*
X327980Y441249D01*
X327987Y441193D01*
X327994Y441137D01*
Y441095D01*
Y441067D01*
Y441045D01*
Y441038D01*
X327987Y440827D01*
X327959Y440623D01*
X327916Y440433D01*
X327867Y440250D01*
X327804Y440081D01*
X327733Y439920D01*
X327656Y439772D01*
X327586Y439638D01*
X327508Y439519D01*
X327431Y439413D01*
X327361Y439322D01*
X327297Y439251D01*
X327248Y439188D01*
X327206Y439146D01*
X327178Y439118D01*
X327171Y439110D01*
X327009Y438970D01*
X326840Y438850D01*
X326664Y438752D01*
X326481Y438660D01*
X326298Y438583D01*
X326108Y438520D01*
X325932Y438470D01*
X325756Y438428D01*
X325595Y438393D01*
X325440Y438372D01*
X325306Y438351D01*
X325187Y438344D01*
X325088Y438337D01*
X325018Y438330D01*
X324954D01*
X324701Y438337D01*
X324462Y438358D01*
X324237Y438393D01*
X324026Y438442D01*
X323829Y438498D01*
X323646Y438562D01*
X323484Y438625D01*
X323329Y438688D01*
X323195Y438759D01*
X323076Y438822D01*
X322977Y438885D01*
X322893Y438942D01*
X322830Y438984D01*
X322780Y439026D01*
X322752Y439047D01*
X322745Y439054D01*
X322597Y439195D01*
X322471Y439350D01*
X322351Y439512D01*
X322253Y439680D01*
X322161Y439856D01*
X322084Y440032D01*
X322020Y440201D01*
X321964Y440370D01*
X321922Y440525D01*
X321887Y440672D01*
X321859Y440806D01*
X321838Y440919D01*
X321816Y441010D01*
X321809Y441081D01*
Y441109D01*
X321802Y441130D01*
Y441137D01*
Y441144D01*
X323034Y441270D01*
X323041Y441102D01*
X323055Y440947D01*
X323083Y440799D01*
X323111Y440658D01*
X323153Y440532D01*
X323195Y440419D01*
X323245Y440307D01*
X323294Y440215D01*
X323336Y440131D01*
X323385Y440053D01*
X323428Y439990D01*
X323470Y439934D01*
X323498Y439898D01*
X323526Y439863D01*
X323540Y439849D01*
X323547Y439842D01*
X323646Y439751D01*
X323758Y439673D01*
X323871Y439603D01*
X323983Y439540D01*
X324103Y439491D01*
X324216Y439448D01*
X324328Y439413D01*
X324434Y439385D01*
X324539Y439364D01*
X324631Y439350D01*
X324715Y439336D01*
X324793Y439329D01*
X324849Y439322D01*
X324933D01*
X325081Y439329D01*
X325222Y439343D01*
X325355Y439364D01*
X325482Y439399D01*
X325595Y439434D01*
X325707Y439476D01*
X325806Y439519D01*
X325897Y439568D01*
X325975Y439610D01*
X326045Y439659D01*
X326108Y439701D01*
X326157Y439737D01*
X326200Y439772D01*
X326228Y439793D01*
X326242Y439807D01*
X326249Y439814D01*
X326340Y439906D01*
X326418Y440004D01*
X326488Y440103D01*
X326544Y440208D01*
X326594Y440307D01*
X326636Y440405D01*
X326671Y440504D01*
X326699Y440595D01*
X326720Y440680D01*
X326734Y440757D01*
X326749Y440827D01*
X326756Y440891D01*
X326763Y440940D01*
Y440975D01*
Y441003D01*
Y441010D01*
X326756Y441137D01*
X326741Y441264D01*
X326713Y441390D01*
X326678Y441517D01*
X326587Y441763D01*
X326530Y441876D01*
X326481Y441981D01*
X326432Y442080D01*
X326376Y442171D01*
X326333Y442248D01*
X326291Y442319D01*
X326249Y442368D01*
X326221Y442410D01*
X326207Y442439D01*
X326200Y442445D01*
X326087Y442593D01*
X325946Y442755D01*
X325799Y442917D01*
X325630Y443086D01*
X325461Y443262D01*
X325278Y443430D01*
X325102Y443599D01*
X324919Y443761D01*
X324750Y443916D01*
X324589Y444057D01*
X324448Y444190D01*
X324314Y444296D01*
X324209Y444387D01*
X324166Y444423D01*
X324131Y444458D01*
X324103Y444479D01*
X324082Y444500D01*
X324068Y444507D01*
X324061Y444514D01*
X323878Y444669D01*
X323702Y444817D01*
X323540Y444957D01*
X323385Y445091D01*
X323245Y445225D01*
X323118Y445344D01*
X323005Y445457D01*
X322900Y445562D01*
X322801Y445654D01*
X322724Y445738D01*
X322654Y445809D01*
X322597Y445872D01*
X322555Y445921D01*
X322527Y445956D01*
X322506Y445978D01*
X322499Y445984D01*
X322309Y446224D01*
X322147Y446456D01*
X322013Y446674D01*
X321950Y446772D01*
X321901Y446871D01*
X321859Y446955D01*
X321816Y447033D01*
X321781Y447103D01*
X321760Y447166D01*
X321739Y447216D01*
X321725Y447251D01*
X321711Y447272D01*
Y447279D01*
X321662Y447427D01*
X321627Y447575D01*
X321605Y447715D01*
X321591Y447835D01*
X321584Y447948D01*
X321577Y447990D01*
Y448032D01*
Y448060D01*
Y448081D01*
Y448095D01*
Y448102D01*
X328008D01*
Y446955D01*
D02*
G37*
G36*
X264769Y349197D02*
X265036Y349169D01*
X265289Y349127D01*
X265536Y349077D01*
X265761Y349014D01*
X265972Y348944D01*
X266169Y348866D01*
X266345Y348789D01*
X266507Y348712D01*
X266647Y348634D01*
X266774Y348564D01*
X266872Y348501D01*
X266957Y348451D01*
X267013Y348409D01*
X267048Y348381D01*
X267062Y348374D01*
X267252Y348205D01*
X267428Y348029D01*
X267590Y347839D01*
X267738Y347642D01*
X267871Y347438D01*
X267991Y347241D01*
X268097Y347044D01*
X268188Y346847D01*
X268272Y346664D01*
X268343Y346495D01*
X268399Y346348D01*
X268448Y346214D01*
X268484Y346108D01*
X268498Y346059D01*
X268505Y346024D01*
X268512Y345996D01*
X268519Y345975D01*
X268526Y345961D01*
Y345954D01*
X267238Y345630D01*
X267182Y345855D01*
X267119Y346059D01*
X267048Y346256D01*
X266964Y346432D01*
X266886Y346601D01*
X266795Y346756D01*
X266710Y346889D01*
X266626Y347016D01*
X266549Y347122D01*
X266471Y347220D01*
X266401Y347297D01*
X266338Y347361D01*
X266288Y347417D01*
X266253Y347452D01*
X266225Y347473D01*
X266218Y347480D01*
X266070Y347586D01*
X265923Y347684D01*
X265768Y347769D01*
X265613Y347839D01*
X265458Y347895D01*
X265303Y347945D01*
X265156Y347987D01*
X265015Y348022D01*
X264888Y348050D01*
X264762Y348064D01*
X264656Y348078D01*
X264565Y348092D01*
X264487D01*
X264431Y348100D01*
X264382D01*
X264220Y348092D01*
X264058Y348078D01*
X263903Y348057D01*
X263748Y348029D01*
X263608Y347994D01*
X263467Y347952D01*
X263340Y347917D01*
X263221Y347867D01*
X263115Y347825D01*
X263017Y347790D01*
X262932Y347748D01*
X262862Y347713D01*
X262806Y347684D01*
X262764Y347663D01*
X262735Y347649D01*
X262728Y347642D01*
X262588Y347551D01*
X262461Y347452D01*
X262341Y347347D01*
X262229Y347234D01*
X262130Y347122D01*
X262039Y347002D01*
X261954Y346889D01*
X261877Y346784D01*
X261814Y346678D01*
X261757Y346580D01*
X261708Y346488D01*
X261673Y346411D01*
X261638Y346348D01*
X261617Y346305D01*
X261610Y346270D01*
X261603Y346263D01*
X261539Y346087D01*
X261483Y345904D01*
X261434Y345721D01*
X261399Y345531D01*
X261328Y345173D01*
X261307Y344997D01*
X261286Y344828D01*
X261272Y344680D01*
X261265Y344539D01*
X261258Y344413D01*
X261251Y344307D01*
X261244Y344216D01*
Y344152D01*
Y344110D01*
Y344096D01*
X261251Y343913D01*
X261258Y343737D01*
X261293Y343400D01*
X261314Y343238D01*
X261342Y343083D01*
X261370Y342935D01*
X261399Y342802D01*
X261427Y342675D01*
X261448Y342562D01*
X261476Y342464D01*
X261497Y342379D01*
X261518Y342316D01*
X261532Y342267D01*
X261546Y342232D01*
Y342225D01*
X261610Y342056D01*
X261680Y341901D01*
X261757Y341753D01*
X261842Y341619D01*
X261926Y341486D01*
X262011Y341366D01*
X262102Y341261D01*
X262187Y341162D01*
X262271Y341078D01*
X262348Y341000D01*
X262419Y340937D01*
X262482Y340881D01*
X262531Y340839D01*
X262567Y340803D01*
X262595Y340789D01*
X262602Y340782D01*
X262749Y340684D01*
X262904Y340606D01*
X263059Y340529D01*
X263214Y340466D01*
X263376Y340416D01*
X263530Y340374D01*
X263678Y340339D01*
X263826Y340311D01*
X263960Y340283D01*
X264086Y340269D01*
X264199Y340255D01*
X264297Y340247D01*
X264375Y340241D01*
X264480D01*
X264663Y340247D01*
X264832Y340262D01*
X264994Y340283D01*
X265149Y340318D01*
X265289Y340353D01*
X265423Y340395D01*
X265543Y340438D01*
X265655Y340480D01*
X265754Y340529D01*
X265845Y340571D01*
X265923Y340613D01*
X265986Y340649D01*
X266035Y340684D01*
X266070Y340705D01*
X266091Y340719D01*
X266098Y340726D01*
X266218Y340825D01*
X266331Y340930D01*
X266429Y341050D01*
X266528Y341169D01*
X266619Y341303D01*
X266696Y341429D01*
X266774Y341556D01*
X266837Y341683D01*
X266894Y341802D01*
X266950Y341915D01*
X266992Y342014D01*
X267027Y342098D01*
X267055Y342175D01*
X267076Y342225D01*
X267083Y342260D01*
X267090Y342274D01*
X268357Y341978D01*
X268279Y341732D01*
X268181Y341500D01*
X268083Y341282D01*
X267970Y341078D01*
X267857Y340895D01*
X267745Y340719D01*
X267625Y340564D01*
X267513Y340423D01*
X267400Y340297D01*
X267302Y340191D01*
X267210Y340093D01*
X267126Y340022D01*
X267062Y339959D01*
X267006Y339917D01*
X266978Y339889D01*
X266964Y339882D01*
X266774Y339748D01*
X266577Y339635D01*
X266366Y339537D01*
X266162Y339453D01*
X265958Y339375D01*
X265754Y339319D01*
X265557Y339270D01*
X265367Y339227D01*
X265184Y339199D01*
X265022Y339178D01*
X264881Y339157D01*
X264755Y339150D01*
X264649Y339143D01*
X264607Y339136D01*
X264508D01*
X264269Y339143D01*
X264037Y339164D01*
X263812Y339192D01*
X263594Y339227D01*
X263390Y339270D01*
X263193Y339326D01*
X263010Y339375D01*
X262841Y339431D01*
X262693Y339488D01*
X262552Y339537D01*
X262433Y339586D01*
X262334Y339635D01*
X262250Y339671D01*
X262194Y339699D01*
X262158Y339720D01*
X262144Y339727D01*
X261947Y339846D01*
X261764Y339973D01*
X261595Y340107D01*
X261434Y340247D01*
X261286Y340388D01*
X261152Y340529D01*
X261026Y340677D01*
X260920Y340810D01*
X260822Y340937D01*
X260730Y341064D01*
X260660Y341169D01*
X260596Y341261D01*
X260554Y341345D01*
X260519Y341401D01*
X260498Y341437D01*
X260491Y341451D01*
X260392Y341669D01*
X260301Y341887D01*
X260224Y342112D01*
X260160Y342337D01*
X260104Y342562D01*
X260055Y342788D01*
X260019Y342999D01*
X259984Y343195D01*
X259963Y343386D01*
X259942Y343561D01*
X259935Y343716D01*
X259921Y343850D01*
Y343955D01*
X259914Y343998D01*
Y344033D01*
Y344061D01*
Y344082D01*
Y344096D01*
Y344103D01*
X259921Y344364D01*
X259935Y344617D01*
X259963Y344863D01*
X259991Y345095D01*
X260034Y345327D01*
X260076Y345538D01*
X260125Y345742D01*
X260174Y345933D01*
X260217Y346101D01*
X260266Y346256D01*
X260308Y346390D01*
X260350Y346502D01*
X260378Y346594D01*
X260406Y346657D01*
X260420Y346699D01*
X260428Y346706D01*
Y346713D01*
X260526Y346931D01*
X260639Y347143D01*
X260758Y347333D01*
X260878Y347515D01*
X261005Y347677D01*
X261131Y347832D01*
X261251Y347966D01*
X261370Y348092D01*
X261483Y348205D01*
X261588Y348297D01*
X261680Y348381D01*
X261764Y348444D01*
X261835Y348493D01*
X261884Y348536D01*
X261912Y348557D01*
X261926Y348564D01*
X262116Y348676D01*
X262320Y348775D01*
X262531Y348859D01*
X262742Y348937D01*
X262953Y348993D01*
X263172Y349049D01*
X263376Y349091D01*
X263580Y349127D01*
X263762Y349148D01*
X263938Y349169D01*
X264093Y349183D01*
X264227Y349197D01*
X264332D01*
X264382Y349204D01*
X264487D01*
X264769Y349197D01*
D02*
G37*
G36*
X273078D02*
X273331Y349169D01*
X273563Y349127D01*
X273789Y349070D01*
X273993Y349007D01*
X274183Y348937D01*
X274359Y348859D01*
X274520Y348782D01*
X274661Y348705D01*
X274781Y348627D01*
X274893Y348557D01*
X274978Y348493D01*
X275048Y348437D01*
X275097Y348395D01*
X275132Y348367D01*
X275139Y348360D01*
X275294Y348198D01*
X275435Y348022D01*
X275548Y347853D01*
X275653Y347670D01*
X275737Y347494D01*
X275808Y347326D01*
X275871Y347157D01*
X275913Y346995D01*
X275949Y346840D01*
X275977Y346699D01*
X275998Y346580D01*
X276012Y346474D01*
X276019Y346383D01*
X276026Y346319D01*
Y346277D01*
Y346263D01*
X276019Y346094D01*
X276005Y345933D01*
X275984Y345785D01*
X275956Y345637D01*
X275913Y345503D01*
X275878Y345370D01*
X275836Y345257D01*
X275794Y345144D01*
X275744Y345046D01*
X275702Y344962D01*
X275667Y344884D01*
X275632Y344821D01*
X275597Y344771D01*
X275576Y344736D01*
X275562Y344715D01*
X275555Y344708D01*
X275463Y344589D01*
X275357Y344483D01*
X275252Y344378D01*
X275139Y344286D01*
X275027Y344202D01*
X274914Y344124D01*
X274802Y344054D01*
X274689Y343991D01*
X274591Y343934D01*
X274492Y343892D01*
X274408Y343850D01*
X274330Y343822D01*
X274267Y343794D01*
X274225Y343779D01*
X274190Y343765D01*
X274183D01*
X274316Y343709D01*
X274436Y343653D01*
X274548Y343590D01*
X274661Y343526D01*
X274753Y343463D01*
X274844Y343400D01*
X274921Y343336D01*
X274999Y343273D01*
X275062Y343217D01*
X275111Y343160D01*
X275161Y343118D01*
X275196Y343076D01*
X275231Y343041D01*
X275252Y343013D01*
X275259Y342999D01*
X275266Y342991D01*
X275329Y342893D01*
X275386Y342794D01*
X275435Y342696D01*
X275477Y342598D01*
X275541Y342401D01*
X275583Y342218D01*
X275597Y342133D01*
X275604Y342056D01*
X275611Y341985D01*
X275618Y341929D01*
X275625Y341880D01*
Y341845D01*
Y341824D01*
Y341816D01*
X275618Y341619D01*
X275590Y341437D01*
X275555Y341254D01*
X275505Y341085D01*
X275442Y340930D01*
X275379Y340782D01*
X275308Y340642D01*
X275238Y340515D01*
X275161Y340402D01*
X275090Y340304D01*
X275027Y340219D01*
X274963Y340149D01*
X274914Y340093D01*
X274879Y340051D01*
X274851Y340022D01*
X274844Y340015D01*
X274696Y339882D01*
X274534Y339769D01*
X274366Y339671D01*
X274197Y339586D01*
X274028Y339509D01*
X273859Y339453D01*
X273690Y339403D01*
X273528Y339361D01*
X273381Y339333D01*
X273240Y339312D01*
X273113Y339291D01*
X273008Y339284D01*
X272916Y339277D01*
X272853Y339270D01*
X272796D01*
X272564Y339277D01*
X272346Y339298D01*
X272135Y339333D01*
X271945Y339382D01*
X271762Y339438D01*
X271593Y339502D01*
X271439Y339565D01*
X271305Y339628D01*
X271178Y339699D01*
X271073Y339762D01*
X270981Y339825D01*
X270904Y339882D01*
X270841Y339924D01*
X270798Y339966D01*
X270770Y339987D01*
X270763Y339994D01*
X270630Y340135D01*
X270510Y340276D01*
X270411Y340430D01*
X270327Y340578D01*
X270250Y340733D01*
X270186Y340881D01*
X270137Y341021D01*
X270102Y341162D01*
X270067Y341289D01*
X270046Y341408D01*
X270024Y341514D01*
X270017Y341605D01*
X270010Y341676D01*
X270003Y341732D01*
Y341767D01*
Y341781D01*
X270010Y341908D01*
X270017Y342035D01*
X270060Y342267D01*
X270088Y342372D01*
X270116Y342471D01*
X270151Y342562D01*
X270186Y342647D01*
X270214Y342724D01*
X270250Y342794D01*
X270278Y342851D01*
X270306Y342900D01*
X270327Y342942D01*
X270348Y342970D01*
X270355Y342985D01*
X270362Y342991D01*
X270432Y343083D01*
X270510Y343167D01*
X270686Y343322D01*
X270869Y343456D01*
X271052Y343568D01*
X271136Y343611D01*
X271213Y343653D01*
X271284Y343688D01*
X271347Y343716D01*
X271396Y343737D01*
X271432Y343751D01*
X271460Y343765D01*
X271467D01*
X271305Y343815D01*
X271150Y343871D01*
X271009Y343934D01*
X270876Y343998D01*
X270749Y344068D01*
X270637Y344145D01*
X270538Y344216D01*
X270439Y344286D01*
X270362Y344356D01*
X270292Y344420D01*
X270228Y344483D01*
X270179Y344532D01*
X270137Y344575D01*
X270109Y344610D01*
X270095Y344631D01*
X270088Y344638D01*
X270003Y344765D01*
X269933Y344891D01*
X269870Y345025D01*
X269813Y345159D01*
X269764Y345292D01*
X269729Y345419D01*
X269694Y345552D01*
X269673Y345672D01*
X269652Y345785D01*
X269637Y345890D01*
X269623Y345989D01*
X269616Y346066D01*
X269609Y346137D01*
Y346186D01*
Y346214D01*
Y346228D01*
X269616Y346460D01*
X269645Y346685D01*
X269694Y346896D01*
X269750Y347100D01*
X269813Y347283D01*
X269891Y347459D01*
X269968Y347621D01*
X270053Y347769D01*
X270130Y347902D01*
X270207Y348015D01*
X270285Y348114D01*
X270355Y348198D01*
X270404Y348268D01*
X270454Y348311D01*
X270482Y348346D01*
X270489Y348353D01*
X270665Y348501D01*
X270841Y348634D01*
X271031Y348747D01*
X271227Y348845D01*
X271425Y348930D01*
X271614Y348993D01*
X271805Y349049D01*
X271987Y349099D01*
X272156Y349134D01*
X272318Y349162D01*
X272459Y349176D01*
X272578Y349190D01*
X272677Y349197D01*
X272754Y349204D01*
X272818D01*
X273078Y349197D01*
D02*
G37*
G36*
X799449Y412690D02*
X799717Y412662D01*
X799970Y412620D01*
X800216Y412570D01*
X800441Y412507D01*
X800652Y412437D01*
X800849Y412359D01*
X801025Y412282D01*
X801187Y412205D01*
X801328Y412127D01*
X801454Y412057D01*
X801553Y411993D01*
X801637Y411944D01*
X801694Y411902D01*
X801729Y411874D01*
X801743Y411867D01*
X801933Y411698D01*
X802109Y411522D01*
X802271Y411332D01*
X802418Y411135D01*
X802552Y410931D01*
X802672Y410734D01*
X802777Y410537D01*
X802869Y410340D01*
X802953Y410157D01*
X803024Y409988D01*
X803080Y409841D01*
X803129Y409707D01*
X803164Y409601D01*
X803178Y409552D01*
X803185Y409517D01*
X803192Y409489D01*
X803199Y409468D01*
X803206Y409454D01*
Y409446D01*
X801919Y409123D01*
X801863Y409348D01*
X801799Y409552D01*
X801729Y409749D01*
X801644Y409925D01*
X801567Y410094D01*
X801476Y410249D01*
X801391Y410382D01*
X801307Y410509D01*
X801229Y410615D01*
X801152Y410713D01*
X801082Y410790D01*
X801018Y410854D01*
X800969Y410910D01*
X800934Y410945D01*
X800906Y410966D01*
X800899Y410973D01*
X800751Y411079D01*
X800603Y411177D01*
X800448Y411262D01*
X800294Y411332D01*
X800139Y411388D01*
X799984Y411438D01*
X799836Y411480D01*
X799696Y411515D01*
X799569Y411543D01*
X799442Y411557D01*
X799337Y411571D01*
X799245Y411585D01*
X799168D01*
X799112Y411592D01*
X799062D01*
X798901Y411585D01*
X798739Y411571D01*
X798584Y411550D01*
X798429Y411522D01*
X798288Y411487D01*
X798148Y411445D01*
X798021Y411409D01*
X797901Y411360D01*
X797796Y411318D01*
X797697Y411283D01*
X797613Y411241D01*
X797543Y411205D01*
X797486Y411177D01*
X797444Y411156D01*
X797416Y411142D01*
X797409Y411135D01*
X797268Y411044D01*
X797141Y410945D01*
X797022Y410840D01*
X796909Y410727D01*
X796811Y410615D01*
X796719Y410495D01*
X796635Y410382D01*
X796558Y410277D01*
X796494Y410171D01*
X796438Y410073D01*
X796389Y409981D01*
X796354Y409904D01*
X796318Y409841D01*
X796297Y409798D01*
X796290Y409763D01*
X796283Y409756D01*
X796220Y409580D01*
X796164Y409397D01*
X796114Y409214D01*
X796079Y409024D01*
X796009Y408666D01*
X795988Y408490D01*
X795967Y408321D01*
X795953Y408173D01*
X795945Y408032D01*
X795938Y407906D01*
X795931Y407800D01*
X795924Y407709D01*
Y407645D01*
Y407603D01*
Y407589D01*
X795931Y407406D01*
X795938Y407230D01*
X795974Y406893D01*
X795995Y406731D01*
X796023Y406576D01*
X796051Y406428D01*
X796079Y406295D01*
X796107Y406168D01*
X796128Y406055D01*
X796156Y405957D01*
X796178Y405872D01*
X796199Y405809D01*
X796213Y405760D01*
X796227Y405725D01*
Y405718D01*
X796290Y405549D01*
X796361Y405394D01*
X796438Y405246D01*
X796522Y405112D01*
X796607Y404979D01*
X796691Y404859D01*
X796783Y404754D01*
X796867Y404655D01*
X796952Y404571D01*
X797029Y404493D01*
X797099Y404430D01*
X797163Y404374D01*
X797212Y404332D01*
X797247Y404296D01*
X797275Y404282D01*
X797282Y404275D01*
X797430Y404177D01*
X797585Y404099D01*
X797740Y404022D01*
X797894Y403959D01*
X798056Y403909D01*
X798211Y403867D01*
X798359Y403832D01*
X798506Y403804D01*
X798640Y403776D01*
X798767Y403762D01*
X798879Y403747D01*
X798978Y403741D01*
X799055Y403733D01*
X799161D01*
X799344Y403741D01*
X799513Y403755D01*
X799674Y403776D01*
X799829Y403811D01*
X799970Y403846D01*
X800104Y403888D01*
X800223Y403931D01*
X800336Y403973D01*
X800434Y404022D01*
X800526Y404064D01*
X800603Y404106D01*
X800667Y404142D01*
X800716Y404177D01*
X800751Y404198D01*
X800772Y404212D01*
X800779Y404219D01*
X800899Y404317D01*
X801011Y404423D01*
X801110Y404543D01*
X801208Y404662D01*
X801300Y404796D01*
X801377Y404922D01*
X801454Y405049D01*
X801518Y405176D01*
X801574Y405295D01*
X801630Y405408D01*
X801673Y405507D01*
X801708Y405591D01*
X801736Y405668D01*
X801757Y405718D01*
X801764Y405753D01*
X801771Y405767D01*
X803037Y405471D01*
X802960Y405225D01*
X802862Y404993D01*
X802763Y404775D01*
X802651Y404571D01*
X802538Y404388D01*
X802425Y404212D01*
X802306Y404057D01*
X802193Y403916D01*
X802081Y403790D01*
X801982Y403684D01*
X801891Y403586D01*
X801806Y403515D01*
X801743Y403452D01*
X801687Y403410D01*
X801658Y403382D01*
X801644Y403375D01*
X801454Y403241D01*
X801257Y403128D01*
X801046Y403030D01*
X800842Y402945D01*
X800638Y402868D01*
X800434Y402812D01*
X800237Y402762D01*
X800047Y402720D01*
X799864Y402692D01*
X799703Y402671D01*
X799562Y402650D01*
X799435Y402643D01*
X799330Y402636D01*
X799287Y402629D01*
X799189D01*
X798950Y402636D01*
X798718Y402657D01*
X798492Y402685D01*
X798274Y402720D01*
X798070Y402762D01*
X797873Y402819D01*
X797690Y402868D01*
X797522Y402924D01*
X797374Y402981D01*
X797233Y403030D01*
X797113Y403079D01*
X797015Y403128D01*
X796930Y403164D01*
X796874Y403192D01*
X796839Y403213D01*
X796825Y403220D01*
X796628Y403340D01*
X796445Y403466D01*
X796276Y403600D01*
X796114Y403741D01*
X795967Y403881D01*
X795833Y404022D01*
X795706Y404170D01*
X795601Y404303D01*
X795502Y404430D01*
X795411Y404557D01*
X795340Y404662D01*
X795277Y404754D01*
X795235Y404838D01*
X795200Y404894D01*
X795179Y404930D01*
X795172Y404944D01*
X795073Y405162D01*
X794982Y405380D01*
X794904Y405605D01*
X794841Y405830D01*
X794784Y406055D01*
X794735Y406280D01*
X794700Y406492D01*
X794665Y406688D01*
X794644Y406879D01*
X794623Y407054D01*
X794616Y407209D01*
X794602Y407343D01*
Y407448D01*
X794595Y407491D01*
Y407526D01*
Y407554D01*
Y407575D01*
Y407589D01*
Y407596D01*
X794602Y407856D01*
X794616Y408110D01*
X794644Y408356D01*
X794672Y408588D01*
X794714Y408820D01*
X794756Y409031D01*
X794806Y409235D01*
X794855Y409425D01*
X794897Y409594D01*
X794946Y409749D01*
X794989Y409883D01*
X795031Y409995D01*
X795059Y410087D01*
X795087Y410150D01*
X795101Y410192D01*
X795108Y410199D01*
Y410206D01*
X795207Y410424D01*
X795319Y410636D01*
X795439Y410826D01*
X795558Y411008D01*
X795685Y411170D01*
X795812Y411325D01*
X795931Y411459D01*
X796051Y411585D01*
X796164Y411698D01*
X796269Y411789D01*
X796361Y411874D01*
X796445Y411937D01*
X796515Y411987D01*
X796565Y412029D01*
X796593Y412050D01*
X796607Y412057D01*
X796797Y412169D01*
X797001Y412268D01*
X797212Y412352D01*
X797423Y412430D01*
X797634Y412486D01*
X797852Y412542D01*
X798056Y412584D01*
X798260Y412620D01*
X798443Y412641D01*
X798619Y412662D01*
X798774Y412676D01*
X798907Y412690D01*
X799013D01*
X799062Y412697D01*
X799168D01*
X799449Y412690D01*
D02*
G37*
G36*
X807660Y412704D02*
X807906Y412676D01*
X808146Y412627D01*
X808364Y412570D01*
X808575Y412507D01*
X808765Y412430D01*
X808948Y412352D01*
X809109Y412268D01*
X809250Y412183D01*
X809384Y412106D01*
X809489Y412029D01*
X809581Y411965D01*
X809658Y411909D01*
X809707Y411860D01*
X809736Y411832D01*
X809750Y411825D01*
X809911Y411656D01*
X810059Y411480D01*
X810186Y411297D01*
X810291Y411114D01*
X810383Y410931D01*
X810460Y410748D01*
X810517Y410579D01*
X810566Y410410D01*
X810608Y410256D01*
X810636Y410115D01*
X810657Y409988D01*
X810671Y409876D01*
X810678Y409791D01*
X810686Y409721D01*
Y409679D01*
Y409665D01*
X810678Y409489D01*
X810664Y409327D01*
X810643Y409172D01*
X810608Y409024D01*
X810573Y408884D01*
X810538Y408757D01*
X810488Y408637D01*
X810446Y408525D01*
X810404Y408426D01*
X810362Y408342D01*
X810320Y408271D01*
X810284Y408208D01*
X810249Y408159D01*
X810228Y408124D01*
X810214Y408103D01*
X810207Y408096D01*
X810116Y407983D01*
X810010Y407878D01*
X809904Y407786D01*
X809799Y407702D01*
X809686Y407624D01*
X809574Y407561D01*
X809461Y407498D01*
X809356Y407448D01*
X809257Y407399D01*
X809166Y407364D01*
X809081Y407329D01*
X809004Y407308D01*
X808948Y407286D01*
X808898Y407272D01*
X808870Y407265D01*
X808863D01*
X808983Y407209D01*
X809095Y407146D01*
X809201Y407076D01*
X809299Y407012D01*
X809391Y406942D01*
X809468Y406871D01*
X809546Y406808D01*
X809609Y406745D01*
X809672Y406682D01*
X809722Y406625D01*
X809764Y406576D01*
X809799Y406534D01*
X809827Y406498D01*
X809848Y406470D01*
X809855Y406456D01*
X809862Y406449D01*
X809926Y406351D01*
X809975Y406252D01*
X810024Y406147D01*
X810059Y406048D01*
X810123Y405858D01*
X810165Y405675D01*
X810179Y405598D01*
X810186Y405521D01*
X810200Y405457D01*
Y405401D01*
X810207Y405359D01*
Y405323D01*
Y405302D01*
Y405295D01*
X810200Y405169D01*
X810193Y405049D01*
X810151Y404817D01*
X810094Y404606D01*
X810059Y404514D01*
X810031Y404423D01*
X809996Y404338D01*
X809961Y404268D01*
X809933Y404198D01*
X809904Y404149D01*
X809883Y404099D01*
X809862Y404071D01*
X809855Y404050D01*
X809848Y404043D01*
X809778Y403937D01*
X809700Y403832D01*
X809539Y403649D01*
X809370Y403487D01*
X809201Y403354D01*
X809124Y403297D01*
X809053Y403248D01*
X808990Y403206D01*
X808933Y403171D01*
X808884Y403142D01*
X808849Y403121D01*
X808828Y403114D01*
X808821Y403107D01*
X808694Y403044D01*
X808568Y402995D01*
X808441Y402945D01*
X808307Y402910D01*
X808061Y402847D01*
X807949Y402826D01*
X807836Y402805D01*
X807737Y402791D01*
X807646Y402784D01*
X807562Y402770D01*
X807491D01*
X807435Y402762D01*
X807357D01*
X807146Y402770D01*
X806942Y402791D01*
X806745Y402826D01*
X806562Y402868D01*
X806394Y402917D01*
X806239Y402974D01*
X806091Y403030D01*
X805957Y403093D01*
X805838Y403157D01*
X805732Y403213D01*
X805641Y403269D01*
X805563Y403318D01*
X805500Y403361D01*
X805458Y403396D01*
X805430Y403417D01*
X805423Y403424D01*
X805282Y403550D01*
X805155Y403691D01*
X805043Y403839D01*
X804944Y403994D01*
X804853Y404149D01*
X804768Y404303D01*
X804698Y404458D01*
X804635Y404606D01*
X804585Y404747D01*
X804543Y404873D01*
X804508Y404986D01*
X804480Y405091D01*
X804459Y405176D01*
X804445Y405232D01*
X804431Y405274D01*
Y405281D01*
Y405288D01*
X805627Y405499D01*
X805655Y405338D01*
X805690Y405190D01*
X805725Y405056D01*
X805775Y404930D01*
X805817Y404810D01*
X805873Y404704D01*
X805922Y404606D01*
X805972Y404514D01*
X806021Y404444D01*
X806063Y404374D01*
X806105Y404317D01*
X806140Y404275D01*
X806176Y404240D01*
X806197Y404212D01*
X806211Y404198D01*
X806218Y404191D01*
X806309Y404113D01*
X806401Y404043D01*
X806499Y403987D01*
X806598Y403937D01*
X806696Y403888D01*
X806788Y403853D01*
X806971Y403804D01*
X807055Y403783D01*
X807132Y403769D01*
X807203Y403762D01*
X807266Y403755D01*
X807308Y403747D01*
X807379D01*
X807505Y403755D01*
X807632Y403769D01*
X807745Y403790D01*
X807857Y403818D01*
X807956Y403846D01*
X808054Y403888D01*
X808139Y403923D01*
X808216Y403966D01*
X808286Y404008D01*
X808350Y404043D01*
X808399Y404085D01*
X808448Y404113D01*
X808483Y404142D01*
X808504Y404163D01*
X808518Y404177D01*
X808525Y404184D01*
X808603Y404268D01*
X808673Y404353D01*
X808736Y404444D01*
X808786Y404535D01*
X808828Y404627D01*
X808863Y404719D01*
X808920Y404887D01*
X808941Y404965D01*
X808955Y405035D01*
X808962Y405105D01*
X808969Y405155D01*
X808976Y405204D01*
Y405239D01*
Y405260D01*
Y405267D01*
X808969Y405415D01*
X808948Y405556D01*
X808920Y405689D01*
X808877Y405809D01*
X808835Y405922D01*
X808786Y406020D01*
X808729Y406112D01*
X808673Y406196D01*
X808610Y406266D01*
X808561Y406330D01*
X808504Y406379D01*
X808462Y406421D01*
X808420Y406456D01*
X808392Y406477D01*
X808371Y406492D01*
X808364Y406498D01*
X808251Y406569D01*
X808131Y406625D01*
X808012Y406682D01*
X807892Y406724D01*
X807660Y406794D01*
X807554Y406822D01*
X807449Y406843D01*
X807350Y406857D01*
X807266Y406871D01*
X807189Y406879D01*
X807118Y406885D01*
X807069Y406893D01*
X806935D01*
X806872Y406885D01*
X806844D01*
X806823Y406879D01*
X806802D01*
X806668Y407927D01*
X806851Y407885D01*
X807013Y407856D01*
X807153Y407828D01*
X807280Y407814D01*
X807379Y407807D01*
X807449Y407800D01*
X807512D01*
X807667Y407807D01*
X807808Y407821D01*
X807949Y407849D01*
X808075Y407885D01*
X808195Y407927D01*
X808307Y407969D01*
X808413Y408018D01*
X808504Y408068D01*
X808589Y408117D01*
X808666Y408166D01*
X808729Y408208D01*
X808779Y408250D01*
X808821Y408286D01*
X808856Y408314D01*
X808870Y408328D01*
X808877Y408335D01*
X808976Y408440D01*
X809053Y408546D01*
X809130Y408658D01*
X809194Y408771D01*
X809243Y408884D01*
X809285Y408996D01*
X809321Y409109D01*
X809349Y409214D01*
X809377Y409313D01*
X809391Y409404D01*
X809405Y409489D01*
X809412Y409552D01*
X809419Y409615D01*
Y409658D01*
Y409686D01*
Y409693D01*
X809412Y409848D01*
X809391Y410002D01*
X809363Y410143D01*
X809327Y410277D01*
X809285Y410410D01*
X809236Y410523D01*
X809180Y410636D01*
X809130Y410734D01*
X809074Y410826D01*
X809018Y410903D01*
X808969Y410973D01*
X808926Y411030D01*
X808891Y411079D01*
X808863Y411107D01*
X808842Y411128D01*
X808835Y411135D01*
X808723Y411241D01*
X808610Y411325D01*
X808490Y411403D01*
X808371Y411473D01*
X808251Y411529D01*
X808131Y411578D01*
X808012Y411614D01*
X807906Y411649D01*
X807801Y411670D01*
X807709Y411691D01*
X807625Y411698D01*
X807548Y411712D01*
X807491D01*
X807442Y411719D01*
X807407D01*
X807273Y411712D01*
X807153Y411698D01*
X807034Y411677D01*
X806921Y411649D01*
X806816Y411614D01*
X806717Y411578D01*
X806626Y411536D01*
X806541Y411494D01*
X806464Y411459D01*
X806401Y411417D01*
X806337Y411381D01*
X806295Y411346D01*
X806253Y411318D01*
X806225Y411297D01*
X806211Y411283D01*
X806204Y411276D01*
X806112Y411184D01*
X806035Y411086D01*
X805957Y410973D01*
X805887Y410854D01*
X805767Y410615D01*
X805669Y410368D01*
X805634Y410256D01*
X805599Y410150D01*
X805570Y410059D01*
X805549Y409974D01*
X805528Y409904D01*
X805514Y409848D01*
X805507Y409819D01*
Y409805D01*
X804311Y409967D01*
X804339Y410192D01*
X804381Y410403D01*
X804445Y410600D01*
X804508Y410790D01*
X804585Y410966D01*
X804663Y411128D01*
X804747Y411283D01*
X804832Y411417D01*
X804916Y411536D01*
X804994Y411642D01*
X805071Y411733D01*
X805134Y411811D01*
X805191Y411874D01*
X805233Y411916D01*
X805261Y411944D01*
X805268Y411951D01*
X805430Y412085D01*
X805606Y412205D01*
X805781Y412303D01*
X805957Y412388D01*
X806140Y412465D01*
X806316Y412528D01*
X806492Y412578D01*
X806654Y412613D01*
X806809Y412648D01*
X806949Y412669D01*
X807076Y412690D01*
X807189Y412697D01*
X807273Y412704D01*
X807343Y412711D01*
X807400D01*
X807660Y412704D01*
D02*
G37*
G36*
X372715Y450663D02*
X372947Y450628D01*
X373166Y450586D01*
X373370Y450530D01*
X373567Y450459D01*
X373750Y450382D01*
X373911Y450305D01*
X374066Y450220D01*
X374200Y450136D01*
X374319Y450051D01*
X374425Y449974D01*
X374509Y449903D01*
X374573Y449847D01*
X374622Y449805D01*
X374657Y449770D01*
X374664Y449763D01*
X374819Y449587D01*
X374953Y449404D01*
X375065Y449207D01*
X375171Y449010D01*
X375255Y448813D01*
X375326Y448616D01*
X375382Y448419D01*
X375424Y448236D01*
X375466Y448060D01*
X375487Y447898D01*
X375508Y447751D01*
X375522Y447624D01*
X375530Y447518D01*
Y447476D01*
X375537Y447441D01*
Y447413D01*
Y447392D01*
Y447385D01*
Y447378D01*
X375530Y447117D01*
X375501Y446871D01*
X375459Y446632D01*
X375410Y446414D01*
X375347Y446210D01*
X375276Y446020D01*
X375199Y445844D01*
X375121Y445689D01*
X375044Y445548D01*
X374967Y445422D01*
X374896Y445316D01*
X374833Y445232D01*
X374784Y445161D01*
X374742Y445112D01*
X374713Y445077D01*
X374706Y445070D01*
X374544Y444915D01*
X374376Y444781D01*
X374207Y444669D01*
X374031Y444563D01*
X373862Y444479D01*
X373693Y444409D01*
X373524Y444352D01*
X373370Y444310D01*
X373222Y444268D01*
X373088Y444247D01*
X372962Y444226D01*
X372863Y444212D01*
X372779Y444204D01*
X372715Y444198D01*
X372659D01*
X372525Y444204D01*
X372392Y444212D01*
X372145Y444254D01*
X371913Y444310D01*
X371815Y444338D01*
X371716Y444373D01*
X371625Y444409D01*
X371547Y444437D01*
X371484Y444465D01*
X371421Y444493D01*
X371378Y444514D01*
X371343Y444535D01*
X371322Y444542D01*
X371315Y444549D01*
X371090Y444690D01*
X370900Y444845D01*
X370808Y444922D01*
X370731Y445000D01*
X370654Y445070D01*
X370590Y445147D01*
X370527Y445211D01*
X370478Y445274D01*
X370436Y445330D01*
X370393Y445379D01*
X370365Y445422D01*
X370344Y445450D01*
X370337Y445471D01*
X370330Y445478D01*
Y445422D01*
Y445373D01*
Y445330D01*
Y445295D01*
Y445274D01*
Y445253D01*
Y445246D01*
Y445239D01*
X370337Y444964D01*
X370358Y444697D01*
X370386Y444451D01*
X370407Y444331D01*
X370422Y444226D01*
X370436Y444127D01*
X370457Y444043D01*
X370471Y443965D01*
X370485Y443902D01*
X370499Y443846D01*
X370506Y443811D01*
X370513Y443782D01*
Y443775D01*
X370548Y443649D01*
X370583Y443522D01*
X370619Y443410D01*
X370654Y443297D01*
X370696Y443198D01*
X370731Y443107D01*
X370766Y443022D01*
X370802Y442945D01*
X370830Y442875D01*
X370865Y442812D01*
X370886Y442762D01*
X370914Y442720D01*
X370928Y442685D01*
X370942Y442664D01*
X370956Y442650D01*
Y442643D01*
X371062Y442495D01*
X371174Y442361D01*
X371287Y442242D01*
X371393Y442150D01*
X371484Y442073D01*
X371561Y442016D01*
X371590Y441995D01*
X371611Y441981D01*
X371625Y441967D01*
X371632D01*
X371794Y441883D01*
X371955Y441826D01*
X372124Y441784D01*
X372272Y441749D01*
X372406Y441735D01*
X372462Y441728D01*
X372511D01*
X372546Y441721D01*
X372603D01*
X372722Y441728D01*
X372835Y441735D01*
X373039Y441777D01*
X373215Y441833D01*
X373299Y441869D01*
X373370Y441904D01*
X373433Y441932D01*
X373496Y441967D01*
X373545Y441995D01*
X373581Y442023D01*
X373616Y442045D01*
X373637Y442066D01*
X373651Y442073D01*
X373658Y442080D01*
X373735Y442150D01*
X373799Y442234D01*
X373918Y442417D01*
X374017Y442615D01*
X374094Y442812D01*
X374122Y442896D01*
X374151Y442987D01*
X374172Y443065D01*
X374186Y443128D01*
X374200Y443184D01*
X374207Y443227D01*
X374214Y443255D01*
Y443262D01*
X375361Y443156D01*
X375326Y442945D01*
X375283Y442748D01*
X375227Y442565D01*
X375164Y442389D01*
X375100Y442228D01*
X375023Y442087D01*
X374953Y441953D01*
X374875Y441833D01*
X374805Y441721D01*
X374734Y441629D01*
X374664Y441552D01*
X374608Y441489D01*
X374566Y441432D01*
X374523Y441397D01*
X374502Y441376D01*
X374495Y441369D01*
X374355Y441256D01*
X374207Y441158D01*
X374052Y441074D01*
X373897Y441003D01*
X373742Y440940D01*
X373588Y440891D01*
X373433Y440849D01*
X373285Y440813D01*
X373152Y440792D01*
X373025Y440771D01*
X372912Y440757D01*
X372814Y440743D01*
X372736D01*
X372673Y440736D01*
X372624D01*
X372427Y440743D01*
X372237Y440764D01*
X372054Y440792D01*
X371878Y440827D01*
X371709Y440870D01*
X371561Y440919D01*
X371414Y440968D01*
X371287Y441024D01*
X371167Y441081D01*
X371062Y441130D01*
X370970Y441179D01*
X370893Y441221D01*
X370830Y441256D01*
X370787Y441292D01*
X370759Y441306D01*
X370752Y441313D01*
X370605Y441425D01*
X370471Y441552D01*
X370344Y441686D01*
X370225Y441819D01*
X370119Y441960D01*
X370014Y442101D01*
X369929Y442234D01*
X369845Y442368D01*
X369774Y442495D01*
X369711Y442615D01*
X369662Y442720D01*
X369619Y442812D01*
X369584Y442889D01*
X369563Y442945D01*
X369549Y442980D01*
X369542Y442994D01*
X369472Y443213D01*
X369408Y443438D01*
X369352Y443677D01*
X369303Y443923D01*
X369268Y444169D01*
X369232Y444423D01*
X369204Y444662D01*
X369183Y444894D01*
X369169Y445112D01*
X369155Y445316D01*
X369148Y445499D01*
X369141Y445577D01*
Y445654D01*
Y445724D01*
X369134Y445788D01*
Y445837D01*
Y445879D01*
Y445914D01*
Y445942D01*
Y445956D01*
Y445964D01*
X369141Y446287D01*
X369155Y446597D01*
X369169Y446878D01*
X369197Y447146D01*
X369232Y447392D01*
X369268Y447610D01*
X369303Y447814D01*
X369338Y447997D01*
X369380Y448159D01*
X369415Y448299D01*
X369451Y448419D01*
X369486Y448517D01*
X369514Y448595D01*
X369528Y448651D01*
X369542Y448679D01*
X369549Y448693D01*
X369627Y448869D01*
X369718Y449031D01*
X369809Y449179D01*
X369908Y449320D01*
X370006Y449453D01*
X370105Y449573D01*
X370204Y449685D01*
X370302Y449784D01*
X370393Y449868D01*
X370471Y449946D01*
X370548Y450009D01*
X370619Y450065D01*
X370668Y450101D01*
X370710Y450136D01*
X370738Y450150D01*
X370745Y450157D01*
X370893Y450248D01*
X371041Y450326D01*
X371195Y450396D01*
X371343Y450452D01*
X371491Y450502D01*
X371639Y450544D01*
X371772Y450579D01*
X371906Y450607D01*
X372026Y450628D01*
X372131Y450642D01*
X372230Y450656D01*
X372314Y450663D01*
X372384Y450670D01*
X372476D01*
X372715Y450663D01*
D02*
G37*
G36*
X380891Y450797D02*
X381123Y450776D01*
X381348Y450748D01*
X381566Y450713D01*
X381770Y450670D01*
X381967Y450614D01*
X382150Y450565D01*
X382319Y450509D01*
X382467Y450452D01*
X382608Y450403D01*
X382727Y450354D01*
X382826Y450305D01*
X382910Y450269D01*
X382966Y450241D01*
X383002Y450220D01*
X383016Y450213D01*
X383213Y450093D01*
X383396Y449967D01*
X383564Y449833D01*
X383726Y449692D01*
X383874Y449552D01*
X384008Y449411D01*
X384134Y449263D01*
X384240Y449130D01*
X384338Y449003D01*
X384430Y448876D01*
X384500Y448771D01*
X384563Y448679D01*
X384606Y448595D01*
X384641Y448539D01*
X384662Y448503D01*
X384669Y448489D01*
X384768Y448271D01*
X384859Y448053D01*
X384936Y447828D01*
X385000Y447603D01*
X385056Y447378D01*
X385105Y447152D01*
X385140Y446941D01*
X385176Y446744D01*
X385197Y446554D01*
X385218Y446379D01*
X385225Y446224D01*
X385239Y446090D01*
Y445985D01*
X385246Y445942D01*
Y445907D01*
Y445879D01*
Y445858D01*
Y445844D01*
Y445837D01*
X385239Y445577D01*
X385225Y445323D01*
X385197Y445077D01*
X385169Y444845D01*
X385126Y444613D01*
X385084Y444402D01*
X385035Y444198D01*
X384986Y444007D01*
X384944Y443839D01*
X384894Y443684D01*
X384852Y443550D01*
X384810Y443438D01*
X384782Y443346D01*
X384753Y443283D01*
X384739Y443241D01*
X384732Y443234D01*
Y443227D01*
X384634Y443008D01*
X384521Y442797D01*
X384402Y442607D01*
X384282Y442425D01*
X384155Y442263D01*
X384029Y442108D01*
X383909Y441974D01*
X383790Y441848D01*
X383677Y441735D01*
X383572Y441643D01*
X383480Y441559D01*
X383396Y441496D01*
X383325Y441446D01*
X383276Y441404D01*
X383248Y441383D01*
X383234Y441376D01*
X383044Y441264D01*
X382840Y441165D01*
X382629Y441081D01*
X382418Y441003D01*
X382206Y440947D01*
X381988Y440891D01*
X381784Y440849D01*
X381580Y440813D01*
X381397Y440792D01*
X381222Y440771D01*
X381067Y440757D01*
X380933Y440743D01*
X380827D01*
X380778Y440736D01*
X380673D01*
X380391Y440743D01*
X380124Y440771D01*
X379871Y440813D01*
X379624Y440863D01*
X379399Y440926D01*
X379188Y440996D01*
X378991Y441074D01*
X378815Y441151D01*
X378653Y441228D01*
X378513Y441306D01*
X378386Y441376D01*
X378288Y441440D01*
X378203Y441489D01*
X378147Y441531D01*
X378112Y441559D01*
X378098Y441566D01*
X377908Y441735D01*
X377732Y441911D01*
X377570Y442101D01*
X377422Y442298D01*
X377289Y442502D01*
X377169Y442699D01*
X377063Y442896D01*
X376972Y443093D01*
X376888Y443276D01*
X376817Y443445D01*
X376761Y443592D01*
X376712Y443726D01*
X376676Y443832D01*
X376662Y443881D01*
X376655Y443916D01*
X376648Y443944D01*
X376641Y443965D01*
X376634Y443979D01*
Y443986D01*
X377922Y444310D01*
X377978Y444085D01*
X378041Y443881D01*
X378112Y443684D01*
X378196Y443508D01*
X378274Y443339D01*
X378365Y443184D01*
X378449Y443051D01*
X378534Y442924D01*
X378611Y442818D01*
X378689Y442720D01*
X378759Y442643D01*
X378822Y442579D01*
X378872Y442523D01*
X378907Y442488D01*
X378935Y442467D01*
X378942Y442460D01*
X379090Y442354D01*
X379237Y442256D01*
X379392Y442171D01*
X379547Y442101D01*
X379702Y442045D01*
X379857Y441995D01*
X380004Y441953D01*
X380145Y441918D01*
X380272Y441890D01*
X380398Y441876D01*
X380504Y441862D01*
X380595Y441848D01*
X380673D01*
X380729Y441841D01*
X380778D01*
X380940Y441848D01*
X381102Y441862D01*
X381257Y441883D01*
X381412Y441911D01*
X381552Y441946D01*
X381693Y441988D01*
X381820Y442023D01*
X381939Y442073D01*
X382045Y442115D01*
X382143Y442150D01*
X382228Y442192D01*
X382298Y442228D01*
X382354Y442256D01*
X382397Y442277D01*
X382425Y442291D01*
X382432Y442298D01*
X382572Y442389D01*
X382699Y442488D01*
X382819Y442593D01*
X382931Y442706D01*
X383030Y442818D01*
X383121Y442938D01*
X383206Y443051D01*
X383283Y443156D01*
X383346Y443262D01*
X383403Y443360D01*
X383452Y443452D01*
X383487Y443529D01*
X383522Y443592D01*
X383543Y443635D01*
X383550Y443670D01*
X383557Y443677D01*
X383621Y443853D01*
X383677Y444036D01*
X383726Y444219D01*
X383761Y444409D01*
X383832Y444767D01*
X383853Y444943D01*
X383874Y445112D01*
X383888Y445260D01*
X383895Y445401D01*
X383902Y445527D01*
X383909Y445633D01*
X383916Y445724D01*
Y445788D01*
Y445830D01*
Y445844D01*
X383909Y446027D01*
X383902Y446203D01*
X383867Y446540D01*
X383846Y446702D01*
X383818Y446857D01*
X383790Y447005D01*
X383761Y447138D01*
X383733Y447265D01*
X383712Y447378D01*
X383684Y447476D01*
X383663Y447561D01*
X383642Y447624D01*
X383628Y447673D01*
X383614Y447708D01*
Y447715D01*
X383550Y447884D01*
X383480Y448039D01*
X383403Y448187D01*
X383318Y448321D01*
X383234Y448454D01*
X383149Y448574D01*
X383058Y448679D01*
X382973Y448778D01*
X382889Y448862D01*
X382812Y448940D01*
X382741Y449003D01*
X382678Y449059D01*
X382629Y449101D01*
X382593Y449137D01*
X382565Y449151D01*
X382558Y449158D01*
X382411Y449256D01*
X382256Y449334D01*
X382101Y449411D01*
X381946Y449474D01*
X381784Y449524D01*
X381630Y449566D01*
X381482Y449601D01*
X381334Y449629D01*
X381200Y449657D01*
X381074Y449671D01*
X380961Y449685D01*
X380863Y449692D01*
X380785Y449700D01*
X380680D01*
X380497Y449692D01*
X380328Y449678D01*
X380166Y449657D01*
X380011Y449622D01*
X379871Y449587D01*
X379737Y449545D01*
X379617Y449502D01*
X379505Y449460D01*
X379406Y449411D01*
X379315Y449369D01*
X379237Y449327D01*
X379174Y449291D01*
X379125Y449256D01*
X379090Y449235D01*
X379069Y449221D01*
X379062Y449214D01*
X378942Y449115D01*
X378829Y449010D01*
X378731Y448890D01*
X378632Y448771D01*
X378541Y448637D01*
X378464Y448511D01*
X378386Y448384D01*
X378323Y448257D01*
X378266Y448138D01*
X378210Y448025D01*
X378168Y447926D01*
X378133Y447842D01*
X378105Y447765D01*
X378083Y447715D01*
X378077Y447680D01*
X378069Y447666D01*
X376803Y447962D01*
X376880Y448208D01*
X376979Y448440D01*
X377077Y448658D01*
X377190Y448862D01*
X377303Y449045D01*
X377415Y449221D01*
X377535Y449376D01*
X377647Y449517D01*
X377760Y449643D01*
X377858Y449749D01*
X377950Y449847D01*
X378034Y449918D01*
X378098Y449981D01*
X378154Y450023D01*
X378182Y450051D01*
X378196Y450058D01*
X378386Y450192D01*
X378583Y450305D01*
X378794Y450403D01*
X378998Y450488D01*
X379202Y450565D01*
X379406Y450621D01*
X379603Y450670D01*
X379793Y450713D01*
X379976Y450741D01*
X380138Y450762D01*
X380279Y450783D01*
X380405Y450790D01*
X380511Y450797D01*
X380553Y450804D01*
X380652D01*
X380891Y450797D01*
D02*
G37*
%LPC*%
G36*
X362281Y341735D02*
X362218D01*
X362091Y341728D01*
X361978Y341714D01*
X361866Y341693D01*
X361753Y341665D01*
X361655Y341630D01*
X361563Y341595D01*
X361479Y341553D01*
X361401Y341510D01*
X361331Y341468D01*
X361268Y341426D01*
X361218Y341391D01*
X361169Y341356D01*
X361141Y341327D01*
X361113Y341306D01*
X361099Y341292D01*
X361092Y341285D01*
X361015Y341201D01*
X360944Y341109D01*
X360881Y341018D01*
X360825Y340926D01*
X360782Y340828D01*
X360747Y340736D01*
X360691Y340568D01*
X360670Y340483D01*
X360656Y340413D01*
X360649Y340349D01*
X360642Y340293D01*
X360635Y340244D01*
Y340209D01*
Y340188D01*
Y340181D01*
X360642Y340068D01*
X360656Y339955D01*
X360677Y339850D01*
X360705Y339751D01*
X360775Y339568D01*
X360817Y339491D01*
X360853Y339414D01*
X360895Y339350D01*
X360937Y339287D01*
X360972Y339238D01*
X361007Y339196D01*
X361036Y339160D01*
X361057Y339139D01*
X361071Y339125D01*
X361078Y339118D01*
X361162Y339041D01*
X361254Y338977D01*
X361345Y338921D01*
X361437Y338872D01*
X361535Y338830D01*
X361627Y338795D01*
X361802Y338745D01*
X361887Y338724D01*
X361964Y338710D01*
X362028Y338703D01*
X362091Y338696D01*
X362140Y338689D01*
X362203D01*
X362330Y338696D01*
X362457Y338710D01*
X362576Y338731D01*
X362682Y338759D01*
X362788Y338787D01*
X362879Y338830D01*
X362970Y338865D01*
X363048Y338907D01*
X363118Y338949D01*
X363181Y338984D01*
X363231Y339027D01*
X363280Y339055D01*
X363308Y339083D01*
X363336Y339104D01*
X363350Y339118D01*
X363357Y339125D01*
X363435Y339210D01*
X363498Y339301D01*
X363562Y339393D01*
X363611Y339484D01*
X363653Y339582D01*
X363688Y339674D01*
X363737Y339850D01*
X363759Y339934D01*
X363773Y340012D01*
X363780Y340075D01*
X363787Y340138D01*
X363794Y340188D01*
Y340223D01*
Y340244D01*
Y340251D01*
X363787Y340364D01*
X363773Y340469D01*
X363751Y340574D01*
X363723Y340666D01*
X363653Y340849D01*
X363611Y340926D01*
X363568Y340997D01*
X363533Y341067D01*
X363491Y341123D01*
X363456Y341173D01*
X363421Y341215D01*
X363393Y341250D01*
X363372Y341271D01*
X363357Y341285D01*
X363350Y341292D01*
X363266Y341370D01*
X363175Y341440D01*
X363076Y341496D01*
X362985Y341545D01*
X362886Y341595D01*
X362794Y341630D01*
X362612Y341679D01*
X362534Y341700D01*
X362457Y341714D01*
X362387Y341721D01*
X362330Y341728D01*
X362281Y341735D01*
D02*
G37*
G36*
X362330Y337711D02*
X362246D01*
X362084Y337704D01*
X361936Y337690D01*
X361788Y337662D01*
X361655Y337620D01*
X361528Y337577D01*
X361409Y337528D01*
X361303Y337479D01*
X361204Y337430D01*
X361113Y337373D01*
X361036Y337324D01*
X360972Y337275D01*
X360916Y337233D01*
X360867Y337197D01*
X360839Y337169D01*
X360817Y337148D01*
X360811Y337141D01*
X360712Y337035D01*
X360620Y336916D01*
X360543Y336803D01*
X360480Y336684D01*
X360424Y336564D01*
X360374Y336445D01*
X360339Y336332D01*
X360304Y336219D01*
X360283Y336114D01*
X360262Y336022D01*
X360248Y335938D01*
X360241Y335860D01*
Y335804D01*
X360233Y335755D01*
Y335727D01*
Y335720D01*
X360241Y335565D01*
X360255Y335417D01*
X360283Y335277D01*
X360318Y335143D01*
X360360Y335016D01*
X360409Y334904D01*
X360459Y334798D01*
X360508Y334700D01*
X360564Y334615D01*
X360614Y334538D01*
X360663Y334474D01*
X360705Y334418D01*
X360740Y334376D01*
X360768Y334348D01*
X360782Y334327D01*
X360789Y334320D01*
X360895Y334221D01*
X361007Y334137D01*
X361127Y334066D01*
X361247Y334003D01*
X361366Y333947D01*
X361479Y333905D01*
X361599Y333869D01*
X361704Y333841D01*
X361810Y333820D01*
X361901Y333799D01*
X361985Y333785D01*
X362063Y333778D01*
X362119D01*
X362168Y333771D01*
X362203D01*
X362408Y333785D01*
X362598Y333813D01*
X362766Y333855D01*
X362921Y333905D01*
X362992Y333926D01*
X363048Y333947D01*
X363104Y333968D01*
X363146Y333989D01*
X363181Y334010D01*
X363210Y334017D01*
X363224Y334031D01*
X363231D01*
X363400Y334137D01*
X363547Y334256D01*
X363667Y334383D01*
X363765Y334496D01*
X363850Y334608D01*
X363878Y334650D01*
X363906Y334693D01*
X363920Y334728D01*
X363934Y334749D01*
X363948Y334763D01*
Y334770D01*
X364026Y334953D01*
X364089Y335129D01*
X364131Y335291D01*
X364160Y335445D01*
X364166Y335509D01*
X364174Y335572D01*
X364181Y335621D01*
Y335671D01*
X364188Y335706D01*
Y335734D01*
Y335748D01*
Y335755D01*
X364181Y335910D01*
X364166Y336058D01*
X364138Y336191D01*
X364103Y336325D01*
X364061Y336451D01*
X364012Y336564D01*
X363963Y336670D01*
X363913Y336768D01*
X363864Y336853D01*
X363815Y336930D01*
X363765Y336993D01*
X363723Y337050D01*
X363688Y337092D01*
X363660Y337120D01*
X363646Y337141D01*
X363639Y337148D01*
X363533Y337247D01*
X363421Y337331D01*
X363308Y337408D01*
X363189Y337472D01*
X363069Y337528D01*
X362956Y337577D01*
X362844Y337612D01*
X362738Y337641D01*
X362633Y337662D01*
X362541Y337683D01*
X362457Y337697D01*
X362387Y337704D01*
X362330Y337711D01*
D02*
G37*
G36*
X272860Y348219D02*
X272825D01*
X272621Y348205D01*
X272431Y348177D01*
X272262Y348135D01*
X272107Y348085D01*
X272037Y348064D01*
X271980Y348043D01*
X271924Y348022D01*
X271882Y348001D01*
X271847Y347980D01*
X271819Y347973D01*
X271805Y347959D01*
X271797D01*
X271629Y347853D01*
X271481Y347734D01*
X271361Y347607D01*
X271263Y347494D01*
X271178Y347382D01*
X271150Y347340D01*
X271122Y347297D01*
X271108Y347262D01*
X271094Y347241D01*
X271080Y347227D01*
Y347220D01*
X271002Y347037D01*
X270939Y346861D01*
X270897Y346699D01*
X270869Y346545D01*
X270862Y346481D01*
X270855Y346418D01*
X270848Y346369D01*
Y346319D01*
X270841Y346284D01*
Y346256D01*
Y346242D01*
Y346235D01*
X270848Y346080D01*
X270862Y345933D01*
X270890Y345799D01*
X270925Y345665D01*
X270967Y345538D01*
X271017Y345426D01*
X271066Y345320D01*
X271115Y345222D01*
X271164Y345137D01*
X271213Y345060D01*
X271263Y344997D01*
X271305Y344940D01*
X271340Y344898D01*
X271368Y344870D01*
X271382Y344849D01*
X271389Y344842D01*
X271495Y344743D01*
X271607Y344659D01*
X271720Y344582D01*
X271840Y344518D01*
X271959Y344462D01*
X272072Y344413D01*
X272184Y344378D01*
X272290Y344349D01*
X272395Y344328D01*
X272487Y344307D01*
X272571Y344293D01*
X272642Y344286D01*
X272698Y344279D01*
X272782D01*
X272944Y344286D01*
X273092Y344300D01*
X273240Y344328D01*
X273373Y344370D01*
X273500Y344413D01*
X273620Y344462D01*
X273725Y344511D01*
X273824Y344561D01*
X273915Y344617D01*
X273993Y344666D01*
X274056Y344715D01*
X274112Y344757D01*
X274161Y344793D01*
X274190Y344821D01*
X274211Y344842D01*
X274218Y344849D01*
X274316Y344954D01*
X274408Y345074D01*
X274485Y345187D01*
X274548Y345306D01*
X274605Y345426D01*
X274654Y345546D01*
X274689Y345658D01*
X274724Y345771D01*
X274745Y345876D01*
X274767Y345968D01*
X274781Y346052D01*
X274788Y346129D01*
Y346186D01*
X274795Y346235D01*
Y346263D01*
Y346270D01*
X274788Y346425D01*
X274774Y346573D01*
X274745Y346713D01*
X274710Y346847D01*
X274668Y346974D01*
X274619Y347086D01*
X274569Y347192D01*
X274520Y347290D01*
X274464Y347375D01*
X274415Y347452D01*
X274366Y347515D01*
X274323Y347572D01*
X274288Y347614D01*
X274260Y347642D01*
X274246Y347663D01*
X274239Y347670D01*
X274133Y347769D01*
X274021Y347853D01*
X273901Y347924D01*
X273782Y347987D01*
X273662Y348043D01*
X273549Y348085D01*
X273430Y348121D01*
X273324Y348149D01*
X273219Y348170D01*
X273127Y348191D01*
X273043Y348205D01*
X272965Y348212D01*
X272909D01*
X272860Y348219D01*
D02*
G37*
G36*
X272888Y343301D02*
X272825D01*
X272698Y343294D01*
X272571Y343280D01*
X272452Y343259D01*
X272346Y343231D01*
X272241Y343203D01*
X272149Y343160D01*
X272058Y343125D01*
X271980Y343083D01*
X271910Y343041D01*
X271847Y343006D01*
X271797Y342963D01*
X271748Y342935D01*
X271720Y342907D01*
X271692Y342886D01*
X271678Y342872D01*
X271671Y342865D01*
X271593Y342780D01*
X271530Y342689D01*
X271467Y342598D01*
X271418Y342506D01*
X271375Y342407D01*
X271340Y342316D01*
X271291Y342140D01*
X271270Y342056D01*
X271256Y341978D01*
X271249Y341915D01*
X271242Y341852D01*
X271235Y341802D01*
Y341767D01*
Y341746D01*
Y341739D01*
X271242Y341627D01*
X271256Y341521D01*
X271277Y341415D01*
X271305Y341324D01*
X271375Y341141D01*
X271418Y341064D01*
X271460Y340993D01*
X271495Y340923D01*
X271537Y340867D01*
X271572Y340817D01*
X271607Y340775D01*
X271636Y340740D01*
X271657Y340719D01*
X271671Y340705D01*
X271678Y340698D01*
X271762Y340620D01*
X271854Y340550D01*
X271952Y340494D01*
X272044Y340444D01*
X272142Y340395D01*
X272234Y340360D01*
X272417Y340311D01*
X272494Y340290D01*
X272571Y340276D01*
X272642Y340269D01*
X272698Y340262D01*
X272747Y340255D01*
X272811D01*
X272937Y340262D01*
X273050Y340276D01*
X273162Y340297D01*
X273275Y340325D01*
X273373Y340360D01*
X273465Y340395D01*
X273549Y340438D01*
X273627Y340480D01*
X273697Y340522D01*
X273760Y340564D01*
X273810Y340599D01*
X273859Y340634D01*
X273887Y340663D01*
X273915Y340684D01*
X273929Y340698D01*
X273936Y340705D01*
X274014Y340789D01*
X274084Y340881D01*
X274147Y340972D01*
X274204Y341064D01*
X274246Y341162D01*
X274281Y341254D01*
X274337Y341423D01*
X274359Y341507D01*
X274373Y341577D01*
X274380Y341641D01*
X274387Y341697D01*
X274394Y341746D01*
Y341781D01*
Y341802D01*
Y341810D01*
X274387Y341922D01*
X274373Y342035D01*
X274351Y342140D01*
X274323Y342239D01*
X274253Y342422D01*
X274211Y342499D01*
X274175Y342576D01*
X274133Y342640D01*
X274091Y342703D01*
X274056Y342752D01*
X274021Y342794D01*
X273993Y342830D01*
X273972Y342851D01*
X273957Y342865D01*
X273950Y342872D01*
X273866Y342949D01*
X273775Y343013D01*
X273683Y343069D01*
X273592Y343118D01*
X273493Y343160D01*
X273402Y343195D01*
X273226Y343245D01*
X273141Y343266D01*
X273064Y343280D01*
X273001Y343287D01*
X272937Y343294D01*
X272888Y343301D01*
D02*
G37*
G36*
X372363Y449678D02*
X372328D01*
X372188Y449671D01*
X372054Y449650D01*
X371920Y449622D01*
X371801Y449587D01*
X371681Y449538D01*
X371575Y449488D01*
X371477Y449432D01*
X371385Y449376D01*
X371301Y449320D01*
X371224Y449263D01*
X371160Y449214D01*
X371111Y449165D01*
X371069Y449130D01*
X371041Y449101D01*
X371020Y449080D01*
X371013Y449073D01*
X370914Y448954D01*
X370830Y448827D01*
X370759Y448700D01*
X370696Y448567D01*
X370640Y448426D01*
X370597Y448292D01*
X370562Y448159D01*
X370534Y448032D01*
X370513Y447912D01*
X370492Y447800D01*
X370478Y447701D01*
X370471Y447610D01*
X370464Y447539D01*
Y447483D01*
Y447455D01*
Y447441D01*
X370471Y447251D01*
X370485Y447075D01*
X370513Y446913D01*
X370548Y446758D01*
X370590Y446611D01*
X370633Y446477D01*
X370682Y446357D01*
X370731Y446252D01*
X370780Y446153D01*
X370830Y446069D01*
X370872Y445999D01*
X370914Y445935D01*
X370949Y445893D01*
X370977Y445858D01*
X370992Y445837D01*
X370998Y445830D01*
X371104Y445731D01*
X371210Y445640D01*
X371322Y445563D01*
X371435Y445499D01*
X371554Y445443D01*
X371667Y445394D01*
X371772Y445358D01*
X371878Y445323D01*
X371983Y445302D01*
X372075Y445281D01*
X372152Y445274D01*
X372223Y445260D01*
X372286D01*
X372328Y445253D01*
X372363D01*
X372518Y445260D01*
X372659Y445281D01*
X372800Y445309D01*
X372933Y445344D01*
X373053Y445387D01*
X373166Y445436D01*
X373271Y445485D01*
X373370Y445541D01*
X373454Y445598D01*
X373531Y445647D01*
X373595Y445696D01*
X373651Y445738D01*
X373693Y445774D01*
X373721Y445809D01*
X373742Y445823D01*
X373750Y445830D01*
X373848Y445942D01*
X373932Y446062D01*
X374010Y446189D01*
X374073Y446315D01*
X374122Y446442D01*
X374172Y446569D01*
X374207Y446688D01*
X374235Y446808D01*
X374256Y446913D01*
X374277Y447019D01*
X374291Y447110D01*
X374298Y447188D01*
Y447251D01*
X374305Y447300D01*
Y447336D01*
Y447342D01*
X374298Y447533D01*
X374277Y447715D01*
X374249Y447884D01*
X374214Y448039D01*
X374172Y448194D01*
X374122Y448327D01*
X374066Y448454D01*
X374010Y448574D01*
X373961Y448672D01*
X373904Y448764D01*
X373855Y448841D01*
X373813Y448904D01*
X373778Y448961D01*
X373750Y448996D01*
X373728Y449017D01*
X373721Y449024D01*
X373609Y449137D01*
X373489Y449242D01*
X373377Y449327D01*
X373257Y449404D01*
X373137Y449467D01*
X373018Y449517D01*
X372912Y449559D01*
X372800Y449594D01*
X372701Y449622D01*
X372610Y449643D01*
X372532Y449657D01*
X372462Y449671D01*
X372406D01*
X372363Y449678D01*
D02*
G37*
%LPD*%
D10*
X1299210Y120650D02*
G03*
X1299210Y120650I-3810J0D01*
G01*
D15*
X363610Y326000D02*
X380610D01*
X363610Y309000D02*
X380610D01*
X234070Y335670D02*
X251070D01*
X234070Y352670D02*
X251070D01*
X343290Y454270D02*
X360290D01*
X343290Y437270D02*
X360290D01*
X278520Y434730D02*
X295520D01*
X278520Y451730D02*
X295520D01*
X900820Y456810D02*
X917820D01*
X900820Y439810D02*
X917820D01*
X795410Y416950D02*
X812410D01*
X795410Y433950D02*
X812410D01*
M02*
