G04*
G04 #@! TF.GenerationSoftware,Altium Limited,Altium Designer,25.4.2 (15)*
G04*
G04 Layer_Color=128*
%FSLAX44Y44*%
%MOMM*%
G71*
G04*
G04 #@! TF.SameCoordinates,C8064B0B-EDE6-4B3A-8A14-C26425D78004*
G04*
G04*
G04 #@! TF.FilePolarity,Positive*
G04*
G01*
G75*
%ADD16C,0.1270*%
D16*
X1264539Y661670D02*
X1275461D01*
X1270000Y656209D02*
Y667131D01*
X1289939Y661670D02*
X1300861D01*
X1295400Y656209D02*
Y667131D01*
X1264539Y636270D02*
X1275461D01*
X1270000Y630809D02*
Y641731D01*
X1289939Y636270D02*
X1300861D01*
X1295400Y630809D02*
Y641731D01*
X1264539Y610870D02*
X1275461D01*
X1270000Y605409D02*
Y616331D01*
X1289939Y610870D02*
X1300861D01*
X1295400Y605409D02*
Y616331D01*
X1264539Y585470D02*
X1275461D01*
X1270000Y580009D02*
Y590931D01*
X1289939Y585470D02*
X1300861D01*
X1295400Y580009D02*
Y590931D01*
X1264539Y560070D02*
X1275461D01*
X1270000Y554609D02*
Y565531D01*
X1289939Y560070D02*
X1300861D01*
X1295400Y554609D02*
Y565531D01*
X1264539Y534670D02*
X1275461D01*
X1270000Y529209D02*
Y540131D01*
X1289939Y534670D02*
X1300861D01*
X1295400Y529209D02*
Y540131D01*
X1264539Y509270D02*
X1275461D01*
X1270000Y503809D02*
Y514731D01*
X1289939Y509270D02*
X1300861D01*
X1295400Y503809D02*
Y514731D01*
X1264539Y483870D02*
X1275461D01*
X1270000Y478409D02*
Y489331D01*
X1289939Y483870D02*
X1300861D01*
X1295400Y478409D02*
Y489331D01*
X1264539Y458470D02*
X1275461D01*
X1270000Y453009D02*
Y463931D01*
X1289939Y458470D02*
X1300861D01*
X1295400Y453009D02*
Y463931D01*
X1264539Y433070D02*
X1275461D01*
X1270000Y427609D02*
Y438531D01*
X1289939Y433070D02*
X1300861D01*
X1295400Y427609D02*
Y438531D01*
X1264539Y407670D02*
X1275461D01*
X1270000Y402209D02*
Y413131D01*
X1289939Y407670D02*
X1300861D01*
X1295400Y402209D02*
Y413131D01*
X1264539Y382270D02*
X1275461D01*
X1270000Y376809D02*
Y387731D01*
X1289939Y382270D02*
X1300861D01*
X1295400Y376809D02*
Y387731D01*
X1264539Y356870D02*
X1275461D01*
X1270000Y351409D02*
Y362331D01*
X1289939Y356870D02*
X1300861D01*
X1295400Y351409D02*
Y362331D01*
X1264539Y331470D02*
X1275461D01*
X1270000Y326009D02*
Y336931D01*
X1289939Y331470D02*
X1300861D01*
X1295400Y326009D02*
Y336931D01*
X1264539Y306070D02*
X1275461D01*
X1270000Y300609D02*
Y311531D01*
X1289939Y306070D02*
X1300861D01*
X1295400Y300609D02*
Y311531D01*
X1264539Y280670D02*
X1275461D01*
X1270000Y275209D02*
Y286131D01*
X1289939Y280670D02*
X1300861D01*
X1295400Y275209D02*
Y286131D01*
X1264539Y255270D02*
X1275461D01*
X1270000Y249809D02*
Y260731D01*
X1289939Y255270D02*
X1300861D01*
X1295400Y249809D02*
Y260731D01*
X1264539Y229870D02*
X1275461D01*
X1270000Y224409D02*
Y235331D01*
X1289939Y229870D02*
X1300861D01*
X1295400Y224409D02*
Y235331D01*
X1264539Y204470D02*
X1275461D01*
X1270000Y199009D02*
Y209931D01*
X1289939Y204470D02*
X1300861D01*
X1295400Y199009D02*
Y209931D01*
X1264539Y179070D02*
X1275461D01*
X1270000Y173609D02*
Y184531D01*
X1289939Y179070D02*
X1300861D01*
X1295400Y173609D02*
Y184531D01*
X878360Y15140D02*
X894360D01*
X886360Y7140D02*
Y23140D01*
X878360Y66140D02*
X894360D01*
X886360Y58140D02*
Y74140D01*
X929360Y15140D02*
X945360D01*
X937360Y7140D02*
Y23140D01*
X929360Y66140D02*
X945360D01*
X937360Y58140D02*
Y74140D01*
X904360Y40640D02*
X919360D01*
X911860Y33140D02*
Y48140D01*
X86515Y15775D02*
X102515D01*
X94515Y7775D02*
Y23775D01*
X86515Y66775D02*
X102515D01*
X94515Y58775D02*
Y74775D01*
X137515Y15775D02*
X153515D01*
X145515Y7775D02*
Y23775D01*
X137515Y66775D02*
X153515D01*
X145515Y58775D02*
Y74775D01*
X112515Y41275D02*
X127515D01*
X120015Y33775D02*
Y48775D01*
X1021870Y15140D02*
X1037870D01*
X1029870Y7140D02*
Y23140D01*
X1021870Y66140D02*
X1037870D01*
X1029870Y58140D02*
Y74140D01*
X1072870Y15140D02*
X1088870D01*
X1080870Y7140D02*
Y23140D01*
X1072870Y66140D02*
X1088870D01*
X1080870Y58140D02*
Y74140D01*
X1047870Y40640D02*
X1062870D01*
X1055370Y33140D02*
Y48140D01*
X230660Y13870D02*
X246660D01*
X238660Y5870D02*
Y21870D01*
X230660Y64870D02*
X246660D01*
X238660Y56870D02*
Y72870D01*
X281660Y13870D02*
X297660D01*
X289660Y5870D02*
Y21870D01*
X281660Y64870D02*
X297660D01*
X289660Y56870D02*
Y72870D01*
X256660Y39370D02*
X271660D01*
X264160Y31870D02*
Y46870D01*
X1227710Y30480D02*
X1243710D01*
X1235710Y22480D02*
Y38480D01*
X841520Y267970D02*
X850520D01*
X846020Y263470D02*
Y272470D01*
X866920Y267970D02*
X875920D01*
X871420Y263470D02*
Y272470D01*
X892320Y267970D02*
X901320D01*
X896820Y263470D02*
Y272470D01*
X917720Y267970D02*
X926720D01*
X922220Y263470D02*
Y272470D01*
X943120Y267970D02*
X952120D01*
X947620Y263470D02*
Y272470D01*
X968520Y267970D02*
X977520D01*
X973020Y263470D02*
Y272470D01*
X816120Y267970D02*
X825120D01*
X820620Y263470D02*
Y272470D01*
X790720Y267970D02*
X799720D01*
X795220Y263470D02*
Y272470D01*
X765320Y267970D02*
X774320D01*
X769820Y263470D02*
Y272470D01*
X739920Y267970D02*
X748920D01*
X744420Y263470D02*
Y272470D01*
X714520Y267970D02*
X723520D01*
X719020Y263470D02*
Y272470D01*
X968520Y293370D02*
X977520D01*
X973020Y288870D02*
Y297870D01*
X968520Y318770D02*
X977520D01*
X973020Y314270D02*
Y323270D01*
X968520Y344170D02*
X977520D01*
X973020Y339670D02*
Y348670D01*
X968520Y369570D02*
X977520D01*
X973020Y365070D02*
Y374070D01*
X968520Y394970D02*
X977520D01*
X973020Y390470D02*
Y399470D01*
X968520Y420370D02*
X977520D01*
X973020Y415870D02*
Y424870D01*
X968520Y445770D02*
X977520D01*
X973020Y441270D02*
Y450270D01*
X968520Y471170D02*
X977520D01*
X973020Y466670D02*
Y475670D01*
X968520Y496570D02*
X977520D01*
X973020Y492070D02*
Y501070D01*
X968520Y521970D02*
X977520D01*
X973020Y517470D02*
Y526470D01*
X943120Y293370D02*
X952120D01*
X947620Y288870D02*
Y297870D01*
X917720Y293370D02*
X926720D01*
X922220Y288870D02*
Y297870D01*
X892320Y293370D02*
X901320D01*
X896820Y288870D02*
Y297870D01*
X866920Y293370D02*
X875920D01*
X871420Y288870D02*
Y297870D01*
X841520Y293370D02*
X850520D01*
X846020Y288870D02*
Y297870D01*
X816120Y293370D02*
X825120D01*
X820620Y288870D02*
Y297870D01*
X790720Y293370D02*
X799720D01*
X795220Y288870D02*
Y297870D01*
X765320Y293370D02*
X774320D01*
X769820Y288870D02*
Y297870D01*
X739920Y293370D02*
X748920D01*
X744420Y288870D02*
Y297870D01*
X714520Y293370D02*
X723520D01*
X719020Y288870D02*
Y297870D01*
X943120Y318770D02*
X952120D01*
X947620Y314270D02*
Y323270D01*
X866920Y318770D02*
X875920D01*
X871420Y314270D02*
Y323270D01*
X841520Y318770D02*
X850520D01*
X846020Y314270D02*
Y323270D01*
X816120Y318770D02*
X825120D01*
X820620Y314270D02*
Y323270D01*
X739920Y318770D02*
X748920D01*
X744420Y314270D02*
Y323270D01*
X714520Y318770D02*
X723520D01*
X719020Y314270D02*
Y323270D01*
X943120Y344170D02*
X952120D01*
X947620Y339670D02*
Y348670D01*
X739920Y344170D02*
X748920D01*
X744420Y339670D02*
Y348670D01*
X714520Y344170D02*
X723520D01*
X719020Y339670D02*
Y348670D01*
X943120Y369570D02*
X952120D01*
X947620Y365070D02*
Y374070D01*
X765320Y369570D02*
X774320D01*
X769820Y365070D02*
Y374070D01*
X739920Y369570D02*
X748920D01*
X744420Y365070D02*
Y374070D01*
X714520Y369570D02*
X723520D01*
X719020Y365070D02*
Y374070D01*
X943120Y394970D02*
X952120D01*
X947620Y390470D02*
Y399470D01*
X765320Y394970D02*
X774320D01*
X769820Y390470D02*
Y399470D01*
X739920Y394970D02*
X748920D01*
X744420Y390470D02*
Y399470D01*
X714520Y394970D02*
X723520D01*
X719020Y390470D02*
Y399470D01*
X943120Y420370D02*
X952120D01*
X947620Y415870D02*
Y424870D01*
X765320Y420370D02*
X774320D01*
X769820Y415870D02*
Y424870D01*
X739920Y420370D02*
X748920D01*
X744420Y415870D02*
Y424870D01*
X714520Y420370D02*
X723520D01*
X719020Y415870D02*
Y424870D01*
X943120Y445770D02*
X952120D01*
X947620Y441270D02*
Y450270D01*
X739920Y445770D02*
X748920D01*
X744420Y441270D02*
Y450270D01*
X714520Y445770D02*
X723520D01*
X719020Y441270D02*
Y450270D01*
X943120Y471170D02*
X952120D01*
X947620Y466670D02*
Y475670D01*
X866920Y471170D02*
X875920D01*
X871420Y466670D02*
Y475670D01*
X841520Y471170D02*
X850520D01*
X846020Y466670D02*
Y475670D01*
X816120Y471170D02*
X825120D01*
X820620Y466670D02*
Y475670D01*
X739920Y471170D02*
X748920D01*
X744420Y466670D02*
Y475670D01*
X714520Y471170D02*
X723520D01*
X719020Y466670D02*
Y475670D01*
X943120Y496570D02*
X952120D01*
X947620Y492070D02*
Y501070D01*
X917720Y496570D02*
X926720D01*
X922220Y492070D02*
Y501070D01*
X892320Y496570D02*
X901320D01*
X896820Y492070D02*
Y501070D01*
X866920Y496570D02*
X875920D01*
X871420Y492070D02*
Y501070D01*
X841520Y496570D02*
X850520D01*
X846020Y492070D02*
Y501070D01*
X816120Y496570D02*
X825120D01*
X820620Y492070D02*
Y501070D01*
X790720Y496570D02*
X799720D01*
X795220Y492070D02*
Y501070D01*
X765320Y496570D02*
X774320D01*
X769820Y492070D02*
Y501070D01*
X739920Y496570D02*
X748920D01*
X744420Y492070D02*
Y501070D01*
X714520Y496570D02*
X723520D01*
X719020Y492070D02*
Y501070D01*
X943120Y521970D02*
X952120D01*
X947620Y517470D02*
Y526470D01*
X917720Y521970D02*
X926720D01*
X922220Y517470D02*
Y526470D01*
X892320Y521970D02*
X901320D01*
X896820Y517470D02*
Y526470D01*
X866920Y521970D02*
X875920D01*
X871420Y517470D02*
Y526470D01*
X841520Y521970D02*
X850520D01*
X846020Y517470D02*
Y526470D01*
X816120Y521970D02*
X825120D01*
X820620Y517470D02*
Y526470D01*
X790720Y521970D02*
X799720D01*
X795220Y517470D02*
Y526470D01*
X765320Y521970D02*
X774320D01*
X769820Y517470D02*
Y526470D01*
X739920Y521970D02*
X748920D01*
X744420Y517470D02*
Y526470D01*
X714520Y521970D02*
X723520D01*
X719020Y517470D02*
Y526470D01*
X1065120Y267970D02*
X1082920D01*
X1074020Y259070D02*
Y276870D01*
X1065120Y521970D02*
X1082920D01*
X1074020Y513070D02*
Y530870D01*
X659120Y267970D02*
X676920D01*
X668020Y259070D02*
Y276870D01*
X659120Y521970D02*
X676920D01*
X668020Y513070D02*
Y530870D01*
X917720Y369570D02*
X926720D01*
X922220Y365070D02*
Y374070D01*
X917720Y394970D02*
X926720D01*
X922220Y390470D02*
Y399470D01*
X917720Y420370D02*
X926720D01*
X922220Y415870D02*
Y424870D01*
X300670Y521970D02*
X309670D01*
X305170Y517470D02*
Y526470D01*
X275270Y521970D02*
X284270D01*
X279770Y517470D02*
Y526470D01*
X249870Y521970D02*
X258870D01*
X254370Y517470D02*
Y526470D01*
X224470Y521970D02*
X233470D01*
X228970Y517470D02*
Y526470D01*
X199070Y521970D02*
X208070D01*
X203570Y517470D02*
Y526470D01*
X173670Y521970D02*
X182670D01*
X178170Y517470D02*
Y526470D01*
X326070Y521970D02*
X335070D01*
X330570Y517470D02*
Y526470D01*
X351470Y521970D02*
X360470D01*
X355970Y517470D02*
Y526470D01*
X376870Y521970D02*
X385870D01*
X381370Y517470D02*
Y526470D01*
X402270Y521970D02*
X411270D01*
X406770Y517470D02*
Y526470D01*
X427670Y521970D02*
X436670D01*
X432170Y517470D02*
Y526470D01*
X173670Y496570D02*
X182670D01*
X178170Y492070D02*
Y501070D01*
X173670Y471170D02*
X182670D01*
X178170Y466670D02*
Y475670D01*
X173670Y445770D02*
X182670D01*
X178170Y441270D02*
Y450270D01*
X173670Y420370D02*
X182670D01*
X178170Y415870D02*
Y424870D01*
X173670Y394970D02*
X182670D01*
X178170Y390470D02*
Y399470D01*
X173670Y369570D02*
X182670D01*
X178170Y365070D02*
Y374070D01*
X173670Y344170D02*
X182670D01*
X178170Y339670D02*
Y348670D01*
X173670Y318770D02*
X182670D01*
X178170Y314270D02*
Y323270D01*
X173670Y293370D02*
X182670D01*
X178170Y288870D02*
Y297870D01*
X173670Y267970D02*
X182670D01*
X178170Y263470D02*
Y272470D01*
X199070Y496570D02*
X208070D01*
X203570Y492070D02*
Y501070D01*
X224470Y496570D02*
X233470D01*
X228970Y492070D02*
Y501070D01*
X249870Y496570D02*
X258870D01*
X254370Y492070D02*
Y501070D01*
X275270Y496570D02*
X284270D01*
X279770Y492070D02*
Y501070D01*
X300670Y496570D02*
X309670D01*
X305170Y492070D02*
Y501070D01*
X326070Y496570D02*
X335070D01*
X330570Y492070D02*
Y501070D01*
X351470Y496570D02*
X360470D01*
X355970Y492070D02*
Y501070D01*
X376870Y496570D02*
X385870D01*
X381370Y492070D02*
Y501070D01*
X402270Y496570D02*
X411270D01*
X406770Y492070D02*
Y501070D01*
X427670Y496570D02*
X436670D01*
X432170Y492070D02*
Y501070D01*
X199070Y471170D02*
X208070D01*
X203570Y466670D02*
Y475670D01*
X275270Y471170D02*
X284270D01*
X279770Y466670D02*
Y475670D01*
X300670Y471170D02*
X309670D01*
X305170Y466670D02*
Y475670D01*
X326070Y471170D02*
X335070D01*
X330570Y466670D02*
Y475670D01*
X402270Y471170D02*
X411270D01*
X406770Y466670D02*
Y475670D01*
X427670Y471170D02*
X436670D01*
X432170Y466670D02*
Y475670D01*
X199070Y445770D02*
X208070D01*
X203570Y441270D02*
Y450270D01*
X402270Y445770D02*
X411270D01*
X406770Y441270D02*
Y450270D01*
X427670Y445770D02*
X436670D01*
X432170Y441270D02*
Y450270D01*
X199070Y420370D02*
X208070D01*
X203570Y415870D02*
Y424870D01*
X376870Y420370D02*
X385870D01*
X381370Y415870D02*
Y424870D01*
X402270Y420370D02*
X411270D01*
X406770Y415870D02*
Y424870D01*
X427670Y420370D02*
X436670D01*
X432170Y415870D02*
Y424870D01*
X199070Y394970D02*
X208070D01*
X203570Y390470D02*
Y399470D01*
X376870Y394970D02*
X385870D01*
X381370Y390470D02*
Y399470D01*
X402270Y394970D02*
X411270D01*
X406770Y390470D02*
Y399470D01*
X427670Y394970D02*
X436670D01*
X432170Y390470D02*
Y399470D01*
X199070Y369570D02*
X208070D01*
X203570Y365070D02*
Y374070D01*
X376870Y369570D02*
X385870D01*
X381370Y365070D02*
Y374070D01*
X402270Y369570D02*
X411270D01*
X406770Y365070D02*
Y374070D01*
X427670Y369570D02*
X436670D01*
X432170Y365070D02*
Y374070D01*
X199070Y344170D02*
X208070D01*
X203570Y339670D02*
Y348670D01*
X402270Y344170D02*
X411270D01*
X406770Y339670D02*
Y348670D01*
X427670Y344170D02*
X436670D01*
X432170Y339670D02*
Y348670D01*
X199070Y318770D02*
X208070D01*
X203570Y314270D02*
Y323270D01*
X275270Y318770D02*
X284270D01*
X279770Y314270D02*
Y323270D01*
X300670Y318770D02*
X309670D01*
X305170Y314270D02*
Y323270D01*
X326070Y318770D02*
X335070D01*
X330570Y314270D02*
Y323270D01*
X402270Y318770D02*
X411270D01*
X406770Y314270D02*
Y323270D01*
X427670Y318770D02*
X436670D01*
X432170Y314270D02*
Y323270D01*
X199070Y293370D02*
X208070D01*
X203570Y288870D02*
Y297870D01*
X224470Y293370D02*
X233470D01*
X228970Y288870D02*
Y297870D01*
X249870Y293370D02*
X258870D01*
X254370Y288870D02*
Y297870D01*
X275270Y293370D02*
X284270D01*
X279770Y288870D02*
Y297870D01*
X300670Y293370D02*
X309670D01*
X305170Y288870D02*
Y297870D01*
X326070Y293370D02*
X335070D01*
X330570Y288870D02*
Y297870D01*
X351470Y293370D02*
X360470D01*
X355970Y288870D02*
Y297870D01*
X376870Y293370D02*
X385870D01*
X381370Y288870D02*
Y297870D01*
X402270Y293370D02*
X411270D01*
X406770Y288870D02*
Y297870D01*
X427670Y293370D02*
X436670D01*
X432170Y288870D02*
Y297870D01*
X199070Y267970D02*
X208070D01*
X203570Y263470D02*
Y272470D01*
X224470Y267970D02*
X233470D01*
X228970Y263470D02*
Y272470D01*
X249870Y267970D02*
X258870D01*
X254370Y263470D02*
Y272470D01*
X275270Y267970D02*
X284270D01*
X279770Y263470D02*
Y272470D01*
X300670Y267970D02*
X309670D01*
X305170Y263470D02*
Y272470D01*
X326070Y267970D02*
X335070D01*
X330570Y263470D02*
Y272470D01*
X351470Y267970D02*
X360470D01*
X355970Y263470D02*
Y272470D01*
X376870Y267970D02*
X385870D01*
X381370Y263470D02*
Y272470D01*
X402270Y267970D02*
X411270D01*
X406770Y263470D02*
Y272470D01*
X427670Y267970D02*
X436670D01*
X432170Y263470D02*
Y272470D01*
X68270Y521970D02*
X86070D01*
X77170Y513070D02*
Y530870D01*
X68270Y267970D02*
X86070D01*
X77170Y259070D02*
Y276870D01*
X474270Y521970D02*
X492070D01*
X483170Y513070D02*
Y530870D01*
X474270Y267970D02*
X492070D01*
X483170Y259070D02*
Y276870D01*
X224470Y420370D02*
X233470D01*
X228970Y415870D02*
Y424870D01*
X224470Y394970D02*
X233470D01*
X228970Y390470D02*
Y399470D01*
X224470Y369570D02*
X233470D01*
X228970Y365070D02*
Y374070D01*
X1161670Y30480D02*
X1177670D01*
X1169670Y22480D02*
Y38480D01*
X1099440Y745490D02*
X1115440D01*
X1107440Y737490D02*
Y753490D01*
X1165480Y745490D02*
X1181480D01*
X1173480Y737490D02*
Y753490D01*
X859900Y688340D02*
X868900D01*
X864400Y683840D02*
Y692840D01*
X909900Y688340D02*
X918900D01*
X914400Y683840D02*
Y692840D01*
X884900Y688340D02*
X893900D01*
X889400Y683840D02*
Y692840D01*
X834900Y688340D02*
X843900D01*
X839400Y683840D02*
Y692840D01*
X267280Y688340D02*
X276280D01*
X271780Y683840D02*
Y692840D01*
X317280Y688340D02*
X326280D01*
X321780Y683840D02*
Y692840D01*
X292280Y688340D02*
X301280D01*
X296780Y683840D02*
Y692840D01*
X242280Y688340D02*
X251280D01*
X246780Y683840D02*
Y692840D01*
X15297Y750022D02*
X50297D01*
X32797Y732522D02*
Y767522D01*
X15297Y32472D02*
X50297D01*
X32797Y14972D02*
Y49972D01*
X1285297Y32472D02*
X1320297D01*
X1302797Y14972D02*
Y49972D01*
X1285520Y750570D02*
X1320520D01*
X1303020Y733070D02*
Y768070D01*
X987060Y557530D02*
X989060D01*
X988060Y556530D02*
Y558530D01*
X997220Y571500D02*
X999220D01*
X998220Y570500D02*
Y572500D01*
X1007380Y599440D02*
X1009380D01*
X1008380Y598440D02*
Y600440D01*
X1122950Y676910D02*
X1124950D01*
X1123950Y675910D02*
Y677910D01*
X1224550Y690880D02*
X1226550D01*
X1225550Y689880D02*
Y691880D01*
X1182640Y702310D02*
X1184640D01*
X1183640Y701310D02*
Y703310D01*
X1162320Y715010D02*
X1164320D01*
X1163320Y714010D02*
Y716010D01*
X1122950Y382270D02*
X1124950D01*
X1123950Y381270D02*
Y383270D01*
X1122950Y495300D02*
X1124950D01*
X1123950Y494300D02*
Y496300D01*
X1145810Y430530D02*
X1147810D01*
X1146810Y429530D02*
Y431530D01*
X993410Y429260D02*
X995410D01*
X994410Y428260D02*
Y430260D01*
X1224550Y461010D02*
X1226550D01*
X1225550Y460010D02*
Y462010D01*
X1224550Y356870D02*
X1226550D01*
X1225550Y355870D02*
Y357870D01*
X1145810Y585470D02*
X1147810D01*
X1146810Y584470D02*
Y586470D01*
X1162320Y443230D02*
X1164320D01*
X1163320Y442230D02*
Y444230D01*
X1162320Y332740D02*
X1164320D01*
X1163320Y331740D02*
Y333740D01*
X1182640Y483870D02*
X1184640D01*
X1183640Y482870D02*
Y484870D01*
X1182640Y306070D02*
X1184640D01*
X1183640Y305070D02*
Y307070D01*
X1199150Y407670D02*
X1201150D01*
X1200150Y406670D02*
Y408670D01*
X1199150Y514350D02*
X1201150D01*
X1200150Y513350D02*
Y515350D01*
X1213120Y530860D02*
X1215120D01*
X1214120Y529860D02*
Y531860D01*
X1213120Y204470D02*
X1215120D01*
X1214120Y203470D02*
Y205470D01*
X922428Y99321D02*
X924428D01*
X923428Y98322D02*
Y100322D01*
X167910Y146897D02*
X169910D01*
X168910Y145897D02*
Y147897D01*
X167910Y133773D02*
X169910D01*
X168910Y132773D02*
Y134773D01*
X167910Y120650D02*
X169910D01*
X168910Y119650D02*
Y121650D01*
X196307Y51927D02*
X198307D01*
X197307Y50928D02*
Y52927D01*
X205197Y43038D02*
X207197D01*
X206197Y42038D02*
Y44037D01*
X214087Y34148D02*
X216087D01*
X215087Y33147D02*
Y35148D01*
X145050Y106680D02*
X147050D01*
X146050Y105680D02*
Y107680D01*
X145050Y119380D02*
X147050D01*
X146050Y118380D02*
Y120380D01*
X188230Y59690D02*
X190230D01*
X189230Y58690D02*
Y60690D01*
X179340Y68580D02*
X181340D01*
X180340Y67580D02*
Y69580D01*
X170450Y77470D02*
X172450D01*
X171450Y76470D02*
Y78470D01*
X161560Y86360D02*
X163560D01*
X162560Y85360D02*
Y87360D01*
X152670Y95250D02*
X154670D01*
X153670Y94250D02*
Y96250D01*
X1041670Y92242D02*
X1043670D01*
X1042670Y91242D02*
Y93242D01*
X1041670Y131345D02*
X1043670D01*
X1042670Y130345D02*
Y132345D01*
X1041670Y157413D02*
X1043670D01*
X1042670Y156413D02*
Y158413D01*
X1041670Y183482D02*
X1043670D01*
X1042670Y182482D02*
Y184482D01*
X132350Y92710D02*
X134350D01*
X133350Y91710D02*
Y93710D01*
X132350Y105833D02*
X134350D01*
X133350Y104833D02*
Y106833D01*
X132350Y118957D02*
X134350D01*
X133350Y117957D02*
Y119957D01*
X132350Y132080D02*
X134350D01*
X133350Y131080D02*
Y133080D01*
X132350Y146050D02*
X134350D01*
X133350Y145050D02*
Y147050D01*
X132350Y172297D02*
X134350D01*
X133350Y171297D02*
Y173297D01*
X132350Y185420D02*
X134350D01*
X133350Y184420D02*
Y186420D01*
X132350Y198543D02*
X134350D01*
X133350Y197543D02*
Y199543D01*
X132350Y224790D02*
X134350D01*
X133350Y223790D02*
Y225790D01*
X132350Y211667D02*
X134350D01*
X133350Y210667D02*
Y212667D01*
X132350Y319617D02*
X134350D01*
X133350Y318617D02*
Y320617D01*
X183150Y689650D02*
X185150D01*
X184150Y688650D02*
Y690650D01*
X181880Y723900D02*
X183880D01*
X182880Y722900D02*
Y724900D01*
X197120Y699770D02*
X199120D01*
X198120Y698770D02*
Y700770D01*
X216170Y712470D02*
X218170D01*
X217170Y711470D02*
Y713470D01*
X715547Y679490D02*
X717548D01*
X716547Y678490D02*
Y680490D01*
X177803Y679490D02*
X179802D01*
X178803Y678490D02*
Y680490D01*
X162925Y393561D02*
X164925D01*
X163925Y392561D02*
Y394561D01*
X155305Y385941D02*
X157305D01*
X156305Y384941D02*
Y386941D01*
X146415Y374511D02*
X148415D01*
X147415Y373511D02*
Y375511D01*
X156480Y415290D02*
X158480D01*
X157480Y414290D02*
Y416290D01*
X148860Y407670D02*
X150860D01*
X149860Y406670D02*
Y408670D01*
X139970Y398780D02*
X141970D01*
X140970Y397780D02*
Y399780D01*
X131175Y389751D02*
X133175D01*
X132175Y388751D02*
Y390751D01*
X122285Y382131D02*
X124285D01*
X123285Y381131D02*
Y383131D01*
X113395Y373241D02*
X115395D01*
X114395Y372241D02*
Y374241D01*
X145050Y306493D02*
X147050D01*
X146050Y305493D02*
Y307493D01*
X145050Y319617D02*
X147050D01*
X146050Y318617D02*
Y320617D01*
X145050Y360680D02*
X147050D01*
X146050Y359680D02*
Y361680D01*
X145050Y347557D02*
X147050D01*
X146050Y346557D02*
Y348557D01*
X145050Y267123D02*
X147050D01*
X146050Y266123D02*
Y268123D01*
X145050Y280247D02*
X147050D01*
X146050Y279247D02*
Y281247D01*
X145050Y293370D02*
X147050D01*
X146050Y292370D02*
Y294370D01*
X145050Y332740D02*
X147050D01*
X146050Y331740D02*
Y333740D01*
X132350Y306493D02*
X134350D01*
X133350Y305493D02*
Y307493D01*
X132350Y360680D02*
X134350D01*
X133350Y359680D02*
Y361680D01*
X132350Y347557D02*
X134350D01*
X133350Y346557D02*
Y348557D01*
X132350Y267123D02*
X134350D01*
X133350Y266123D02*
Y268123D01*
X132350Y280247D02*
X134350D01*
X133350Y279247D02*
Y281247D01*
X132350Y293370D02*
X134350D01*
X133350Y292370D02*
Y294370D01*
X132350Y332740D02*
X134350D01*
X133350Y331740D02*
Y333740D01*
X106950Y306493D02*
X108950D01*
X107950Y305493D02*
Y307493D01*
X106950Y319617D02*
X108950D01*
X107950Y318617D02*
Y320617D01*
X106950Y360680D02*
X108950D01*
X107950Y359680D02*
Y361680D01*
X106950Y347557D02*
X108950D01*
X107950Y346557D02*
Y348557D01*
X106950Y267123D02*
X108950D01*
X107950Y266123D02*
Y268123D01*
X106950Y280247D02*
X108950D01*
X107950Y279247D02*
Y281247D01*
X106950Y293370D02*
X108950D01*
X107950Y292370D02*
Y294370D01*
X106950Y332740D02*
X108950D01*
X107950Y331740D02*
Y333740D01*
X168177Y199523D02*
X170177D01*
X169177Y198523D02*
Y200523D01*
X168177Y212646D02*
X170177D01*
X169177Y211646D02*
Y213646D01*
X168177Y253709D02*
X170177D01*
X169177Y252709D02*
Y254709D01*
X168177Y240586D02*
X170177D01*
X169177Y239586D02*
Y241586D01*
X168177Y160153D02*
X170177D01*
X169177Y159153D02*
Y161153D01*
X168177Y173276D02*
X170177D01*
X169177Y172276D02*
Y174276D01*
X168177Y186399D02*
X170177D01*
X169177Y185399D02*
Y187399D01*
X168177Y225769D02*
X170177D01*
X169177Y224769D02*
Y226769D01*
X170450Y106680D02*
X172450D01*
X171450Y105680D02*
Y107680D01*
X179340Y96520D02*
X181340D01*
X180340Y95520D02*
Y97520D01*
X188230Y87630D02*
X190230D01*
X189230Y86630D02*
Y88630D01*
X197120Y78740D02*
X199120D01*
X198120Y77740D02*
Y79740D01*
X206010Y69850D02*
X208010D01*
X207010Y68850D02*
Y70850D01*
X214900Y60960D02*
X216900D01*
X215900Y59960D02*
Y61960D01*
X145050Y132080D02*
X147050D01*
X146050Y131080D02*
Y133080D01*
X145050Y224790D02*
X147050D01*
X146050Y223790D02*
Y225790D01*
X145050Y185420D02*
X147050D01*
X146050Y184420D02*
Y186420D01*
X145050Y172297D02*
X147050D01*
X146050Y171297D02*
Y173297D01*
X145050Y159173D02*
X147050D01*
X146050Y158173D02*
Y160173D01*
X145050Y146050D02*
X147050D01*
X146050Y145050D02*
Y147050D01*
X145050Y239607D02*
X147050D01*
X146050Y238607D02*
Y240607D01*
X145050Y252730D02*
X147050D01*
X146050Y251730D02*
Y253730D01*
X145050Y211667D02*
X147050D01*
X146050Y210667D02*
Y212667D01*
X145050Y198543D02*
X147050D01*
X146050Y197543D02*
Y199543D01*
X132350Y159173D02*
X134350D01*
X133350Y158173D02*
Y160173D01*
X132350Y239607D02*
X134350D01*
X133350Y238607D02*
Y240607D01*
X132350Y252730D02*
X134350D01*
X133350Y251730D02*
Y253730D01*
X106950Y92710D02*
X108950D01*
X107950Y91710D02*
Y93710D01*
X106950Y105833D02*
X108950D01*
X107950Y104833D02*
Y106833D01*
X106950Y118957D02*
X108950D01*
X107950Y117957D02*
Y119957D01*
X106950Y132080D02*
X108950D01*
X107950Y131080D02*
Y133080D01*
X106950Y224790D02*
X108950D01*
X107950Y223790D02*
Y225790D01*
X106950Y185420D02*
X108950D01*
X107950Y184420D02*
Y186420D01*
X106950Y172297D02*
X108950D01*
X107950Y171297D02*
Y173297D01*
X106950Y159173D02*
X108950D01*
X107950Y158173D02*
Y160173D01*
X106950Y146050D02*
X108950D01*
X107950Y145050D02*
Y147050D01*
X106950Y239607D02*
X108950D01*
X107950Y238607D02*
Y240607D01*
X106950Y252730D02*
X108950D01*
X107950Y251730D02*
Y253730D01*
X106950Y211667D02*
X108950D01*
X107950Y210667D02*
Y212667D01*
X106950Y198543D02*
X108950D01*
X107950Y197543D02*
Y199543D01*
X985928Y162822D02*
X987928D01*
X986928Y161821D02*
Y163822D01*
X978308Y155202D02*
X980308D01*
X979308Y154201D02*
Y156201D01*
X970688Y147582D02*
X972688D01*
X971688Y146581D02*
Y148581D01*
X963068Y139962D02*
X965068D01*
X964068Y138961D02*
Y140962D01*
X955448Y132341D02*
X957448D01*
X956448Y131341D02*
Y133342D01*
X947828Y124721D02*
X949828D01*
X948828Y123722D02*
Y125722D01*
X938938Y115831D02*
X940938D01*
X939938Y114831D02*
Y116832D01*
X930048Y106941D02*
X932048D01*
X931048Y105941D02*
Y107942D01*
X913538Y90431D02*
X915538D01*
X914538Y89431D02*
Y91432D01*
X943880Y88900D02*
X945880D01*
X944880Y87900D02*
Y89900D01*
X951500Y96520D02*
X953500D01*
X952500Y95520D02*
Y97520D01*
X960390Y105410D02*
X962390D01*
X961390Y104410D02*
Y106410D01*
X969280Y114300D02*
X971280D01*
X970280Y113300D02*
Y115300D01*
X976900Y121920D02*
X978900D01*
X977900Y120920D02*
Y122920D01*
X984520Y129540D02*
X986520D01*
X985520Y128540D02*
Y130540D01*
X992140Y137160D02*
X994140D01*
X993140Y136160D02*
Y138160D01*
X999760Y144780D02*
X1001760D01*
X1000760Y143780D02*
Y145780D01*
X1007380Y152400D02*
X1009380D01*
X1008380Y151400D02*
Y153400D01*
X1013730Y160020D02*
X1015730D01*
X1014730Y159020D02*
Y161020D01*
X998490Y222584D02*
X1000490D01*
X999490Y221584D02*
Y223584D01*
X998490Y183482D02*
X1000490D01*
X999490Y182482D02*
Y184482D01*
X995950Y170180D02*
X997950D01*
X996950Y169180D02*
Y171180D01*
X998490Y235618D02*
X1000490D01*
X999490Y234618D02*
Y236618D01*
X998490Y248653D02*
X1000490D01*
X999490Y247653D02*
Y249653D01*
X998490Y209550D02*
X1000490D01*
X999490Y208550D02*
Y210550D01*
X998490Y195580D02*
X1000490D01*
X999490Y194580D02*
Y196580D01*
X998490Y261687D02*
X1000490D01*
X999490Y260687D02*
Y262687D01*
X998490Y274721D02*
X1000490D01*
X999490Y273721D02*
Y275721D01*
X998490Y287755D02*
X1000490D01*
X999490Y286755D02*
Y288755D01*
X998490Y298450D02*
X1000490D01*
X999490Y297450D02*
Y299450D01*
X1018810Y298650D02*
X1020810D01*
X1019810Y297650D02*
Y299650D01*
X1018810Y287955D02*
X1020810D01*
X1019810Y286955D02*
Y288955D01*
X1018810Y274921D02*
X1020810D01*
X1019810Y273921D02*
Y275921D01*
X1018810Y261887D02*
X1020810D01*
X1019810Y260887D02*
Y262887D01*
X1018810Y195580D02*
X1020810D01*
X1019810Y194580D02*
Y196580D01*
X1018810Y209750D02*
X1020810D01*
X1019810Y208750D02*
Y210750D01*
X1018810Y248853D02*
X1020810D01*
X1019810Y247853D02*
Y249853D01*
X1018810Y235819D02*
X1020810D01*
X1019810Y234819D02*
Y236819D01*
X1018810Y170648D02*
X1020810D01*
X1019810Y169648D02*
Y171648D01*
X1018810Y183682D02*
X1020810D01*
X1019810Y182682D02*
Y184682D01*
X1018810Y222784D02*
X1020810D01*
X1019810Y221784D02*
Y223784D01*
X997220Y317500D02*
X999220D01*
X998220Y316500D02*
Y318500D01*
X1018810Y317500D02*
X1020810D01*
X1019810Y316500D02*
Y318500D01*
X1011190Y340360D02*
X1013190D01*
X1012190Y339360D02*
Y341360D01*
X1003570Y347980D02*
X1005570D01*
X1004570Y346980D02*
Y348980D01*
X1041670Y105276D02*
X1043670D01*
X1042670Y104277D02*
Y106277D01*
X1041670Y118311D02*
X1043670D01*
X1042670Y117311D02*
Y119311D01*
X1041670Y222584D02*
X1043670D01*
X1042670Y221584D02*
Y223584D01*
X1041670Y170447D02*
X1043670D01*
X1042670Y169447D02*
Y171447D01*
X1041670Y144379D02*
X1043670D01*
X1042670Y143379D02*
Y145379D01*
X1041670Y235618D02*
X1043670D01*
X1042670Y234618D02*
Y236618D01*
X1041670Y248653D02*
X1043670D01*
X1042670Y247653D02*
Y249653D01*
X1041670Y209550D02*
X1043670D01*
X1042670Y208550D02*
Y210550D01*
X1041670Y195580D02*
X1043670D01*
X1042670Y194580D02*
Y196580D01*
X1064530Y195580D02*
X1066530D01*
X1065530Y194580D02*
Y196580D01*
X1064530Y209127D02*
X1066530D01*
X1065530Y208127D02*
Y210127D01*
X1041670Y261687D02*
X1043670D01*
X1042670Y260687D02*
Y262687D01*
X1041670Y274721D02*
X1043670D01*
X1042670Y273721D02*
Y275721D01*
X1041670Y287755D02*
X1043670D01*
X1042670Y286755D02*
Y288755D01*
X1041670Y298450D02*
X1043670D01*
X1042670Y297450D02*
Y299450D01*
X1041670Y317500D02*
X1043670D01*
X1042670Y316500D02*
Y318500D01*
X1027700Y339090D02*
X1029700D01*
X1028700Y338090D02*
Y340090D01*
X1018810Y346710D02*
X1020810D01*
X1019810Y345710D02*
Y347710D01*
X1002300Y363220D02*
X1004300D01*
X1003300Y362220D02*
Y364220D01*
X994680Y370840D02*
X996680D01*
X995680Y369840D02*
Y371840D01*
X998490Y398780D02*
X1000490D01*
X999490Y397780D02*
Y399780D01*
X1007380Y392430D02*
X1009380D01*
X1008380Y391430D02*
Y393430D01*
X1025160Y375920D02*
X1027160D01*
X1026160Y374920D02*
Y376920D01*
X1034050Y365760D02*
X1036050D01*
X1035050Y364760D02*
Y366760D01*
X1049290Y347980D02*
X1051290D01*
X1050290Y346980D02*
Y348980D01*
X1064530Y298450D02*
X1066530D01*
X1065530Y297450D02*
Y299450D01*
X1064530Y285327D02*
X1066530D01*
X1065530Y284327D02*
Y286327D01*
X1064530Y313267D02*
X1066530D01*
X1065530Y312267D02*
Y314267D01*
X1064530Y326390D02*
X1066530D01*
X1065530Y325390D02*
Y327390D01*
X1064530Y250190D02*
X1066530D01*
X1065530Y249190D02*
Y251190D01*
X1064530Y237067D02*
X1066530D01*
X1065530Y236067D02*
Y238067D01*
X1064530Y143510D02*
X1066530D01*
X1065530Y142510D02*
Y144510D01*
X1064530Y156633D02*
X1066530D01*
X1065530Y155633D02*
Y157633D01*
X1064530Y169757D02*
X1066530D01*
X1065530Y168757D02*
Y170757D01*
X1064530Y182880D02*
X1066530D01*
X1065530Y181880D02*
Y183880D01*
X1064530Y222250D02*
X1066530D01*
X1065530Y221250D02*
Y223250D01*
X1064530Y129540D02*
X1066530D01*
X1065530Y128540D02*
Y130540D01*
X1064530Y116417D02*
X1066530D01*
X1065530Y115417D02*
Y117417D01*
X1064530Y103293D02*
X1066530D01*
X1065530Y102293D02*
Y104293D01*
X1064530Y90170D02*
X1066530D01*
X1065530Y89170D02*
Y91170D01*
X270780Y162560D02*
X272780D01*
X271780Y161560D02*
Y163560D01*
X691670Y523990D02*
X693670D01*
X692670Y522990D02*
Y524990D01*
X451391Y525509D02*
X453391D01*
X452391Y524509D02*
Y526509D01*
X418809Y244549D02*
X420809D01*
X419809Y243549D02*
Y245549D01*
X694117Y258237D02*
X696117D01*
X695117Y257237D02*
Y259237D01*
X227970Y104510D02*
X229970D01*
X228970Y103510D02*
Y105510D01*
X331740Y585470D02*
X333740D01*
X332740Y584470D02*
Y586470D01*
X304170Y605420D02*
X306170D01*
X305170Y604420D02*
Y606420D01*
X278585Y619575D02*
X280585D01*
X279585Y618575D02*
Y620575D01*
X255540Y643890D02*
X257540D01*
X256540Y642890D02*
Y644890D01*
X227970Y662040D02*
X229970D01*
X228970Y661040D02*
Y663040D01*
X767450Y662840D02*
X769450D01*
X768450Y661840D02*
Y663840D01*
X802267Y605163D02*
X804267D01*
X803267Y604163D02*
Y606163D01*
X835295Y619125D02*
X837295D01*
X836295Y618125D02*
Y620125D01*
X868950Y585470D02*
X870950D01*
X869950Y584470D02*
Y586470D01*
X894350Y570230D02*
X896350D01*
X895350Y569230D02*
Y571230D01*
X919750Y542290D02*
X921750D01*
X920750Y541290D02*
Y543290D01*
X893450Y207910D02*
X895450D01*
X894450Y206910D02*
Y208910D01*
X844150Y147920D02*
X846150D01*
X845150Y146920D02*
Y148920D01*
X769890Y104140D02*
X771890D01*
X770890Y103140D02*
Y105140D01*
X380820Y227780D02*
X382820D01*
X381820Y226780D02*
Y228780D01*
X330020Y185870D02*
X332020D01*
X331020Y184870D02*
Y186870D01*
X315865Y146685D02*
X317865D01*
X316865Y145685D02*
Y147685D01*
X253820Y126180D02*
X255820D01*
X254820Y125180D02*
Y127180D01*
X819420Y162560D02*
X821420D01*
X820420Y161560D02*
Y163560D01*
X868950Y184150D02*
X870950D01*
X869950Y183150D02*
Y185150D01*
X354970Y207910D02*
X356970D01*
X355970Y206910D02*
Y208910D01*
X921020Y227330D02*
X923020D01*
X922020Y226330D02*
Y228330D01*
X791480Y643890D02*
X793480D01*
X792480Y642890D02*
Y644890D01*
X794020Y124460D02*
X796020D01*
X795020Y123460D02*
Y125460D01*
X354600Y570230D02*
X356600D01*
X355600Y569230D02*
Y571230D01*
X381270Y542290D02*
X383270D01*
X382270Y541290D02*
Y543290D01*
M02*
