G04*
G04 #@! TF.GenerationSoftware,Altium Limited,Altium Designer,25.4.2 (15)*
G04*
G04 Layer_Color=16711935*
%FSLAX44Y44*%
%MOMM*%
G71*
G04*
G04 #@! TF.SameCoordinates,C8064B0B-EDE6-4B3A-8A14-C26425D78004*
G04*
G04*
G04 #@! TF.FilePolarity,Negative*
G04*
G01*
G75*
%ADD19C,2.4500*%
%ADD20R,2.3000X2.3000*%
%ADD21C,1.6112*%
%ADD22R,1.6112X1.6112*%
%ADD23C,1.9832*%
%ADD24C,1.6032*%
%ADD25R,1.6032X1.6032*%
%ADD26C,6.2032*%
%ADD27C,0.7032*%
%ADD38R,0.8000X0.9000*%
D19*
X886360Y15140D02*
D03*
Y66140D02*
D03*
X937360Y15140D02*
D03*
Y66140D02*
D03*
X94515Y15775D02*
D03*
Y66775D02*
D03*
X145515Y15775D02*
D03*
Y66775D02*
D03*
X1029870Y15140D02*
D03*
Y66140D02*
D03*
X1080870Y15140D02*
D03*
Y66140D02*
D03*
X238660Y13870D02*
D03*
Y64870D02*
D03*
X289660Y13870D02*
D03*
Y64870D02*
D03*
X1235710Y30480D02*
D03*
X1169670D02*
D03*
X1107440Y745490D02*
D03*
X1173480D02*
D03*
D20*
X911860Y40640D02*
D03*
X120015Y41275D02*
D03*
X1055370Y40640D02*
D03*
X264160Y39370D02*
D03*
D21*
X846020Y267970D02*
D03*
X871420D02*
D03*
X896820D02*
D03*
X922220D02*
D03*
X947620D02*
D03*
X820620D02*
D03*
X795220D02*
D03*
X769820D02*
D03*
X744420D02*
D03*
X719020D02*
D03*
X973020Y293370D02*
D03*
Y318770D02*
D03*
Y344170D02*
D03*
Y369570D02*
D03*
Y394970D02*
D03*
Y420370D02*
D03*
Y445770D02*
D03*
Y471170D02*
D03*
Y496570D02*
D03*
Y521970D02*
D03*
X947620Y293370D02*
D03*
X922220D02*
D03*
X896820D02*
D03*
X871420D02*
D03*
X846020D02*
D03*
X820620D02*
D03*
X795220D02*
D03*
X769820D02*
D03*
X744420D02*
D03*
X719020D02*
D03*
X947620Y318770D02*
D03*
X871420D02*
D03*
X846020D02*
D03*
X820620D02*
D03*
X744420D02*
D03*
X719020D02*
D03*
X947620Y344170D02*
D03*
X744420D02*
D03*
X719020D02*
D03*
X947620Y369570D02*
D03*
X769820D02*
D03*
X744420D02*
D03*
X719020D02*
D03*
X947620Y394970D02*
D03*
X769820D02*
D03*
X744420D02*
D03*
X719020D02*
D03*
X947620Y420370D02*
D03*
X769820D02*
D03*
X744420D02*
D03*
X719020D02*
D03*
X947620Y445770D02*
D03*
X744420D02*
D03*
X719020D02*
D03*
X947620Y471170D02*
D03*
X871420D02*
D03*
X846020D02*
D03*
X820620D02*
D03*
X744420D02*
D03*
X719020D02*
D03*
X947620Y496570D02*
D03*
X922220D02*
D03*
X896820D02*
D03*
X871420D02*
D03*
X846020D02*
D03*
X820620D02*
D03*
X795220D02*
D03*
X769820D02*
D03*
X744420D02*
D03*
X719020D02*
D03*
X947620Y521970D02*
D03*
X922220D02*
D03*
X896820D02*
D03*
X871420D02*
D03*
X846020D02*
D03*
X820620D02*
D03*
X795220D02*
D03*
X769820D02*
D03*
X744420D02*
D03*
X719020D02*
D03*
X922220Y369570D02*
D03*
Y394970D02*
D03*
Y420370D02*
D03*
X305170Y521970D02*
D03*
X279770D02*
D03*
X254370D02*
D03*
X228970D02*
D03*
X203570D02*
D03*
X330570D02*
D03*
X355970D02*
D03*
X381370D02*
D03*
X406770D02*
D03*
X432170D02*
D03*
X178170Y496570D02*
D03*
Y471170D02*
D03*
Y445770D02*
D03*
Y420370D02*
D03*
Y394970D02*
D03*
Y369570D02*
D03*
Y344170D02*
D03*
Y318770D02*
D03*
Y293370D02*
D03*
Y267970D02*
D03*
X203570Y496570D02*
D03*
X228970D02*
D03*
X254370D02*
D03*
X279770D02*
D03*
X305170D02*
D03*
X330570D02*
D03*
X355970D02*
D03*
X381370D02*
D03*
X406770D02*
D03*
X432170D02*
D03*
X203570Y471170D02*
D03*
X279770D02*
D03*
X305170D02*
D03*
X330570D02*
D03*
X406770D02*
D03*
X432170D02*
D03*
X203570Y445770D02*
D03*
X406770D02*
D03*
X432170D02*
D03*
X203570Y420370D02*
D03*
X381370D02*
D03*
X406770D02*
D03*
X432170D02*
D03*
X203570Y394970D02*
D03*
X381370D02*
D03*
X406770D02*
D03*
X432170D02*
D03*
X203570Y369570D02*
D03*
X381370D02*
D03*
X406770D02*
D03*
X432170D02*
D03*
X203570Y344170D02*
D03*
X406770D02*
D03*
X432170D02*
D03*
X203570Y318770D02*
D03*
X279770D02*
D03*
X305170D02*
D03*
X330570D02*
D03*
X406770D02*
D03*
X432170D02*
D03*
X203570Y293370D02*
D03*
X228970D02*
D03*
X254370D02*
D03*
X279770D02*
D03*
X305170D02*
D03*
X330570D02*
D03*
X355970D02*
D03*
X381370D02*
D03*
X406770D02*
D03*
X432170D02*
D03*
X203570Y267970D02*
D03*
X228970D02*
D03*
X254370D02*
D03*
X279770D02*
D03*
X305170D02*
D03*
X330570D02*
D03*
X355970D02*
D03*
X381370D02*
D03*
X406770D02*
D03*
X432170D02*
D03*
X228970Y420370D02*
D03*
Y394970D02*
D03*
Y369570D02*
D03*
D22*
X973020Y267970D02*
D03*
X178170Y521970D02*
D03*
D23*
X1074020Y267970D02*
D03*
Y521970D02*
D03*
X668020Y267970D02*
D03*
Y521970D02*
D03*
X77170D02*
D03*
Y267970D02*
D03*
X483170Y521970D02*
D03*
Y267970D02*
D03*
D24*
X864400Y688340D02*
D03*
X889400D02*
D03*
X839400D02*
D03*
X271780D02*
D03*
X296780D02*
D03*
X246780D02*
D03*
D25*
X914400D02*
D03*
X321780D02*
D03*
D26*
X32797Y750022D02*
D03*
Y32472D02*
D03*
X1302797D02*
D03*
X1303020Y750570D02*
D03*
D27*
X988060Y557530D02*
D03*
X998220Y571500D02*
D03*
X1008380Y599440D02*
D03*
X1123950Y676910D02*
D03*
X1225550Y690880D02*
D03*
X1183640Y702310D02*
D03*
X1163320Y715010D02*
D03*
X1123950Y382270D02*
D03*
Y495300D02*
D03*
X1146810Y430530D02*
D03*
X994410Y429260D02*
D03*
X1225550Y461010D02*
D03*
Y356870D02*
D03*
X1146810Y585470D02*
D03*
X1163320Y443230D02*
D03*
Y332740D02*
D03*
X1183640Y483870D02*
D03*
Y306070D02*
D03*
X1200150Y407670D02*
D03*
Y514350D02*
D03*
X1214120Y530860D02*
D03*
Y204470D02*
D03*
X923428Y99321D02*
D03*
X168910Y146897D02*
D03*
Y133773D02*
D03*
Y120650D02*
D03*
X197307Y51927D02*
D03*
X206197Y43038D02*
D03*
X215087Y34148D02*
D03*
X146050Y106680D02*
D03*
Y119380D02*
D03*
X189230Y59690D02*
D03*
X180340Y68580D02*
D03*
X171450Y77470D02*
D03*
X162560Y86360D02*
D03*
X153670Y95250D02*
D03*
X1042670Y92242D02*
D03*
Y131345D02*
D03*
Y157413D02*
D03*
Y183482D02*
D03*
X133350Y92710D02*
D03*
Y105833D02*
D03*
Y118957D02*
D03*
Y132080D02*
D03*
Y146050D02*
D03*
Y172297D02*
D03*
Y185420D02*
D03*
Y198543D02*
D03*
Y224790D02*
D03*
Y211667D02*
D03*
Y319617D02*
D03*
X184150Y689650D02*
D03*
X182880Y723900D02*
D03*
X198120Y699770D02*
D03*
X217170Y712470D02*
D03*
X716547Y679490D02*
D03*
X178803D02*
D03*
X163925Y393561D02*
D03*
X156305Y385941D02*
D03*
X147415Y374511D02*
D03*
X157480Y415290D02*
D03*
X149860Y407670D02*
D03*
X140970Y398780D02*
D03*
X132175Y389751D02*
D03*
X123285Y382131D02*
D03*
X114395Y373241D02*
D03*
X146050Y306493D02*
D03*
Y319617D02*
D03*
Y360680D02*
D03*
Y347557D02*
D03*
Y267123D02*
D03*
Y280247D02*
D03*
Y293370D02*
D03*
Y332740D02*
D03*
X133350Y306493D02*
D03*
Y360680D02*
D03*
Y347557D02*
D03*
Y267123D02*
D03*
Y280247D02*
D03*
Y293370D02*
D03*
Y332740D02*
D03*
X107950Y306493D02*
D03*
Y319617D02*
D03*
Y360680D02*
D03*
Y347557D02*
D03*
Y267123D02*
D03*
Y280247D02*
D03*
Y293370D02*
D03*
Y332740D02*
D03*
X169177Y199523D02*
D03*
Y212646D02*
D03*
Y253709D02*
D03*
Y240586D02*
D03*
Y160153D02*
D03*
Y173276D02*
D03*
Y186399D02*
D03*
Y225769D02*
D03*
X171450Y106680D02*
D03*
X180340Y96520D02*
D03*
X189230Y87630D02*
D03*
X198120Y78740D02*
D03*
X207010Y69850D02*
D03*
X215900Y60960D02*
D03*
X146050Y132080D02*
D03*
Y224790D02*
D03*
Y185420D02*
D03*
Y172297D02*
D03*
Y159173D02*
D03*
Y146050D02*
D03*
Y239607D02*
D03*
Y252730D02*
D03*
Y211667D02*
D03*
Y198543D02*
D03*
X133350Y159173D02*
D03*
Y239607D02*
D03*
Y252730D02*
D03*
X107950Y92710D02*
D03*
Y105833D02*
D03*
Y118957D02*
D03*
Y132080D02*
D03*
Y224790D02*
D03*
Y185420D02*
D03*
Y172297D02*
D03*
Y159173D02*
D03*
Y146050D02*
D03*
Y239607D02*
D03*
Y252730D02*
D03*
Y211667D02*
D03*
Y198543D02*
D03*
X986928Y162822D02*
D03*
X979308Y155202D02*
D03*
X971688Y147582D02*
D03*
X964068Y139962D02*
D03*
X956448Y132341D02*
D03*
X948828Y124721D02*
D03*
X939938Y115831D02*
D03*
X931048Y106941D02*
D03*
X914538Y90431D02*
D03*
X944880Y88900D02*
D03*
X952500Y96520D02*
D03*
X961390Y105410D02*
D03*
X970280Y114300D02*
D03*
X977900Y121920D02*
D03*
X985520Y129540D02*
D03*
X993140Y137160D02*
D03*
X1000760Y144780D02*
D03*
X1008380Y152400D02*
D03*
X1014730Y160020D02*
D03*
X999490Y222584D02*
D03*
Y183482D02*
D03*
X996950Y170180D02*
D03*
X999490Y235618D02*
D03*
Y248653D02*
D03*
Y209550D02*
D03*
Y195580D02*
D03*
Y261687D02*
D03*
Y274721D02*
D03*
Y287755D02*
D03*
Y298450D02*
D03*
X1019810Y298650D02*
D03*
Y287955D02*
D03*
Y274921D02*
D03*
Y261887D02*
D03*
Y195580D02*
D03*
Y209750D02*
D03*
Y248853D02*
D03*
Y235819D02*
D03*
Y170648D02*
D03*
Y183682D02*
D03*
Y222784D02*
D03*
X998220Y317500D02*
D03*
X1019810D02*
D03*
X1012190Y340360D02*
D03*
X1004570Y347980D02*
D03*
X1042670Y105276D02*
D03*
Y118311D02*
D03*
Y222584D02*
D03*
Y170447D02*
D03*
Y144379D02*
D03*
Y235618D02*
D03*
Y248653D02*
D03*
Y209550D02*
D03*
Y195580D02*
D03*
X1065530D02*
D03*
Y209127D02*
D03*
X1042670Y261687D02*
D03*
Y274721D02*
D03*
Y287755D02*
D03*
Y298450D02*
D03*
Y317500D02*
D03*
X1028700Y339090D02*
D03*
X1019810Y346710D02*
D03*
X1003300Y363220D02*
D03*
X995680Y370840D02*
D03*
X999490Y398780D02*
D03*
X1008380Y392430D02*
D03*
X1026160Y375920D02*
D03*
X1035050Y365760D02*
D03*
X1050290Y347980D02*
D03*
X1065530Y298450D02*
D03*
Y285327D02*
D03*
Y313267D02*
D03*
Y326390D02*
D03*
Y250190D02*
D03*
Y237067D02*
D03*
Y143510D02*
D03*
Y156633D02*
D03*
Y169757D02*
D03*
Y182880D02*
D03*
Y222250D02*
D03*
Y129540D02*
D03*
Y116417D02*
D03*
Y103293D02*
D03*
Y90170D02*
D03*
X271780Y162560D02*
D03*
X692670Y523990D02*
D03*
X452391Y525509D02*
D03*
X419809Y244549D02*
D03*
X695117Y258237D02*
D03*
X228970Y104510D02*
D03*
X332740Y585470D02*
D03*
X305170Y605420D02*
D03*
X279585Y619575D02*
D03*
X256540Y643890D02*
D03*
X228970Y662040D02*
D03*
X768450Y662840D02*
D03*
X803267Y605163D02*
D03*
X836295Y619125D02*
D03*
X869950Y585470D02*
D03*
X895350Y570230D02*
D03*
X920750Y542290D02*
D03*
X894450Y207910D02*
D03*
X845150Y147920D02*
D03*
X770890Y104140D02*
D03*
X381820Y227780D02*
D03*
X331020Y185870D02*
D03*
X316865Y146685D02*
D03*
X254820Y126180D02*
D03*
X820420Y162560D02*
D03*
X869950Y184150D02*
D03*
X355970Y207910D02*
D03*
X922020Y227330D02*
D03*
X792480Y643890D02*
D03*
X795020Y124460D02*
D03*
X355600Y570230D02*
D03*
X382270Y542290D02*
D03*
D38*
X379610Y317500D02*
D03*
X364610D02*
D03*
X235070Y344170D02*
D03*
X250070D02*
D03*
X359290Y445770D02*
D03*
X344290D02*
D03*
X279520Y443230D02*
D03*
X294520D02*
D03*
X916820Y448310D02*
D03*
X901820D02*
D03*
X796410Y425450D02*
D03*
X811410D02*
D03*
M02*
