G04*
G04 #@! TF.GenerationSoftware,Altium Limited,Altium Designer,25.4.2 (15)*
G04*
G04 Layer_Color=32768*
%FSLAX44Y44*%
%MOMM*%
G71*
G04*
G04 #@! TF.SameCoordinates,C8064B0B-EDE6-4B3A-8A14-C26425D78004*
G04*
G04*
G04 #@! TF.FilePolarity,Positive*
G04*
G01*
G75*
%ADD14C,0.1524*%
%ADD15C,0.2000*%
%ADD40C,0.1000*%
%ADD41C,0.0500*%
G36*
X1236410Y715010D02*
Y125730D01*
X1328866D01*
Y715010D01*
X1236410D01*
D02*
G37*
D14*
X1236410Y125730D02*
Y715010D01*
X1328866D01*
Y125730D02*
Y715010D01*
X1236410Y125730D02*
X1328866D01*
D15*
X1218060Y30480D02*
G03*
X1253360Y30480I17650J0D01*
G01*
D02*
G03*
X1218060Y30480I-17650J0D01*
G01*
X1187320D02*
G03*
X1152020Y30480I-17650J0D01*
G01*
D02*
G03*
X1187320Y30480I17650J0D01*
G01*
X1125090Y745490D02*
G03*
X1089790Y745490I-17650J0D01*
G01*
D02*
G03*
X1125090Y745490I17650J0D01*
G01*
X1191130D02*
G03*
X1155830Y745490I-17650J0D01*
G01*
D02*
G03*
X1191130Y745490I17650J0D01*
G01*
X873110Y79390D02*
X950610D01*
X873110Y1890D02*
Y79390D01*
Y1890D02*
X950610D01*
Y79390D01*
X81265Y80025D02*
X158765D01*
X81265Y2525D02*
Y80025D01*
Y2525D02*
X158765D01*
Y80025D01*
X1016620Y79390D02*
X1094120D01*
X1016620Y1890D02*
Y79390D01*
Y1890D02*
X1094120D01*
Y79390D01*
X225410Y78120D02*
X302910D01*
X225410Y620D02*
Y78120D01*
Y620D02*
X302910D01*
Y78120D01*
X678300Y566890D02*
X693300D01*
Y593890D01*
X678300D02*
X693300D01*
X678300Y566890D02*
Y593890D01*
X383660Y570700D02*
X398660D01*
Y597700D01*
X383660D02*
X398660D01*
X383660Y570700D02*
Y597700D01*
X938650Y219550D02*
X953650D01*
X938650Y192550D02*
Y219550D01*
Y192550D02*
X953650D01*
Y219550D01*
X965320Y219240D02*
X980320D01*
X965320Y192240D02*
Y219240D01*
Y192240D02*
X980320D01*
Y219240D01*
X838320Y564350D02*
X853320D01*
Y591350D01*
X838320D02*
X853320D01*
X838320Y564350D02*
Y591350D01*
X711320Y217970D02*
X726320D01*
X711320Y190970D02*
Y217970D01*
Y190970D02*
X726320D01*
Y217970D01*
X290950Y230670D02*
X305950D01*
X290950Y203670D02*
Y230670D01*
Y203670D02*
X305950D01*
Y230670D01*
X939920Y563200D02*
X954920D01*
Y590200D01*
X939920D02*
X954920D01*
X939920Y563200D02*
Y590200D01*
X195700Y226860D02*
X210700D01*
X195700Y199860D02*
Y226860D01*
Y199860D02*
X210700D01*
Y226860D01*
X398900Y223050D02*
X413900D01*
X398900Y196050D02*
Y223050D01*
Y196050D02*
X413900D01*
Y223050D01*
X444620Y570700D02*
X459620D01*
Y597700D01*
X444620D02*
X459620D01*
X444620Y570700D02*
Y597700D01*
X144900Y561810D02*
X159900D01*
Y588810D01*
X144900D02*
X159900D01*
X144900Y561810D02*
Y588810D01*
D40*
X876900Y683340D02*
Y693340D01*
X871900Y688340D02*
X881900D01*
X284280Y683340D02*
Y693340D01*
X279280Y688340D02*
X289280D01*
D41*
X1056020Y580970D02*
G03*
X1027520Y609470I-28500J0D01*
G01*
X853552D02*
G03*
X847162Y557434I0J-26410D01*
G01*
X95170Y208970D02*
G03*
X123670Y180470I28500J0D01*
G01*
X297638D02*
G03*
X304028Y232506I0J26410D01*
G01*
X639520Y233470D02*
X1101520D01*
X639520D02*
Y556470D01*
X1101520Y233470D02*
Y556470D01*
X1056020D02*
X1101520D01*
X1056020D02*
Y580970D01*
X853520Y609470D02*
X1027520D01*
X847020Y556470D02*
Y557470D01*
X639520Y556470D02*
X847020D01*
X49670D02*
X511670D01*
Y233470D02*
Y556470D01*
X49670Y233470D02*
Y556470D01*
Y233470D02*
X95170D01*
Y208970D02*
Y233470D01*
X123670Y180470D02*
X297670D01*
X304170Y232470D02*
Y233470D01*
X511670D01*
X813900Y781340D02*
X939900D01*
X813900Y664340D02*
Y781340D01*
Y664340D02*
X939900D01*
Y664340D02*
Y781340D01*
X221280Y781340D02*
X347280D01*
X221280Y664340D02*
Y781340D01*
Y664340D02*
X347280D01*
Y664340D02*
Y781340D01*
M02*
