G04*
G04 #@! TF.GenerationSoftware,Altium Limited,Altium Designer,25.4.2 (15)*
G04*
G04 Layer_Color=2752767*
%FSLAX44Y44*%
%MOMM*%
G71*
G04*
G04 #@! TF.SameCoordinates,C8064B0B-EDE6-4B3A-8A14-C26425D78004*
G04*
G04*
G04 #@! TF.FilePolarity,Positive*
G04*
G01*
G75*
%ADD16C,0.1270*%
%ADD42C,0.1693*%
D16*
X1270000Y656590D02*
X1272540Y659130D01*
X1275080D01*
X1272540Y661670D01*
X1275080Y664210D01*
X1272540D01*
X1270000Y666750D01*
X1267460Y664210D01*
X1264920D01*
X1267460Y661670D01*
X1264920Y659130D01*
X1267460D01*
X1270000Y656590D01*
X1295400D02*
X1297940Y659130D01*
X1300480D01*
X1297940Y661670D01*
X1300480Y664210D01*
X1297940D01*
X1295400Y666750D01*
X1292860Y664210D01*
X1290320D01*
X1292860Y661670D01*
X1290320Y659130D01*
X1292860D01*
X1295400Y656590D01*
X1270000Y631190D02*
X1272540Y633730D01*
X1275080D01*
X1272540Y636270D01*
X1275080Y638810D01*
X1272540D01*
X1270000Y641350D01*
X1267460Y638810D01*
X1264920D01*
X1267460Y636270D01*
X1264920Y633730D01*
X1267460D01*
X1270000Y631190D01*
X1295400D02*
X1297940Y633730D01*
X1300480D01*
X1297940Y636270D01*
X1300480Y638810D01*
X1297940D01*
X1295400Y641350D01*
X1292860Y638810D01*
X1290320D01*
X1292860Y636270D01*
X1290320Y633730D01*
X1292860D01*
X1295400Y631190D01*
X1270000Y605790D02*
X1272540Y608330D01*
X1275080D01*
X1272540Y610870D01*
X1275080Y613410D01*
X1272540D01*
X1270000Y615950D01*
X1267460Y613410D01*
X1264920D01*
X1267460Y610870D01*
X1264920Y608330D01*
X1267460D01*
X1270000Y605790D01*
X1295400D02*
X1297940Y608330D01*
X1300480D01*
X1297940Y610870D01*
X1300480Y613410D01*
X1297940D01*
X1295400Y615950D01*
X1292860Y613410D01*
X1290320D01*
X1292860Y610870D01*
X1290320Y608330D01*
X1292860D01*
X1295400Y605790D01*
X1270000Y580390D02*
X1272540Y582930D01*
X1275080D01*
X1272540Y585470D01*
X1275080Y588010D01*
X1272540D01*
X1270000Y590550D01*
X1267460Y588010D01*
X1264920D01*
X1267460Y585470D01*
X1264920Y582930D01*
X1267460D01*
X1270000Y580390D01*
X1295400D02*
X1297940Y582930D01*
X1300480D01*
X1297940Y585470D01*
X1300480Y588010D01*
X1297940D01*
X1295400Y590550D01*
X1292860Y588010D01*
X1290320D01*
X1292860Y585470D01*
X1290320Y582930D01*
X1292860D01*
X1295400Y580390D01*
X1270000Y554990D02*
X1272540Y557530D01*
X1275080D01*
X1272540Y560070D01*
X1275080Y562610D01*
X1272540D01*
X1270000Y565150D01*
X1267460Y562610D01*
X1264920D01*
X1267460Y560070D01*
X1264920Y557530D01*
X1267460D01*
X1270000Y554990D01*
X1295400D02*
X1297940Y557530D01*
X1300480D01*
X1297940Y560070D01*
X1300480Y562610D01*
X1297940D01*
X1295400Y565150D01*
X1292860Y562610D01*
X1290320D01*
X1292860Y560070D01*
X1290320Y557530D01*
X1292860D01*
X1295400Y554990D01*
X1270000Y529590D02*
X1272540Y532130D01*
X1275080D01*
X1272540Y534670D01*
X1275080Y537210D01*
X1272540D01*
X1270000Y539750D01*
X1267460Y537210D01*
X1264920D01*
X1267460Y534670D01*
X1264920Y532130D01*
X1267460D01*
X1270000Y529590D01*
X1295400D02*
X1297940Y532130D01*
X1300480D01*
X1297940Y534670D01*
X1300480Y537210D01*
X1297940D01*
X1295400Y539750D01*
X1292860Y537210D01*
X1290320D01*
X1292860Y534670D01*
X1290320Y532130D01*
X1292860D01*
X1295400Y529590D01*
X1270000Y504190D02*
X1272540Y506730D01*
X1275080D01*
X1272540Y509270D01*
X1275080Y511810D01*
X1272540D01*
X1270000Y514350D01*
X1267460Y511810D01*
X1264920D01*
X1267460Y509270D01*
X1264920Y506730D01*
X1267460D01*
X1270000Y504190D01*
X1295400D02*
X1297940Y506730D01*
X1300480D01*
X1297940Y509270D01*
X1300480Y511810D01*
X1297940D01*
X1295400Y514350D01*
X1292860Y511810D01*
X1290320D01*
X1292860Y509270D01*
X1290320Y506730D01*
X1292860D01*
X1295400Y504190D01*
X1270000Y478790D02*
X1272540Y481330D01*
X1275080D01*
X1272540Y483870D01*
X1275080Y486410D01*
X1272540D01*
X1270000Y488950D01*
X1267460Y486410D01*
X1264920D01*
X1267460Y483870D01*
X1264920Y481330D01*
X1267460D01*
X1270000Y478790D01*
X1295400D02*
X1297940Y481330D01*
X1300480D01*
X1297940Y483870D01*
X1300480Y486410D01*
X1297940D01*
X1295400Y488950D01*
X1292860Y486410D01*
X1290320D01*
X1292860Y483870D01*
X1290320Y481330D01*
X1292860D01*
X1295400Y478790D01*
X1270000Y453390D02*
X1272540Y455930D01*
X1275080D01*
X1272540Y458470D01*
X1275080Y461010D01*
X1272540D01*
X1270000Y463550D01*
X1267460Y461010D01*
X1264920D01*
X1267460Y458470D01*
X1264920Y455930D01*
X1267460D01*
X1270000Y453390D01*
X1295400D02*
X1297940Y455930D01*
X1300480D01*
X1297940Y458470D01*
X1300480Y461010D01*
X1297940D01*
X1295400Y463550D01*
X1292860Y461010D01*
X1290320D01*
X1292860Y458470D01*
X1290320Y455930D01*
X1292860D01*
X1295400Y453390D01*
X1270000Y427990D02*
X1272540Y430530D01*
X1275080D01*
X1272540Y433070D01*
X1275080Y435610D01*
X1272540D01*
X1270000Y438150D01*
X1267460Y435610D01*
X1264920D01*
X1267460Y433070D01*
X1264920Y430530D01*
X1267460D01*
X1270000Y427990D01*
X1295400D02*
X1297940Y430530D01*
X1300480D01*
X1297940Y433070D01*
X1300480Y435610D01*
X1297940D01*
X1295400Y438150D01*
X1292860Y435610D01*
X1290320D01*
X1292860Y433070D01*
X1290320Y430530D01*
X1292860D01*
X1295400Y427990D01*
X1270000Y402590D02*
X1272540Y405130D01*
X1275080D01*
X1272540Y407670D01*
X1275080Y410210D01*
X1272540D01*
X1270000Y412750D01*
X1267460Y410210D01*
X1264920D01*
X1267460Y407670D01*
X1264920Y405130D01*
X1267460D01*
X1270000Y402590D01*
X1295400D02*
X1297940Y405130D01*
X1300480D01*
X1297940Y407670D01*
X1300480Y410210D01*
X1297940D01*
X1295400Y412750D01*
X1292860Y410210D01*
X1290320D01*
X1292860Y407670D01*
X1290320Y405130D01*
X1292860D01*
X1295400Y402590D01*
X1270000Y377190D02*
X1272540Y379730D01*
X1275080D01*
X1272540Y382270D01*
X1275080Y384810D01*
X1272540D01*
X1270000Y387350D01*
X1267460Y384810D01*
X1264920D01*
X1267460Y382270D01*
X1264920Y379730D01*
X1267460D01*
X1270000Y377190D01*
X1295400D02*
X1297940Y379730D01*
X1300480D01*
X1297940Y382270D01*
X1300480Y384810D01*
X1297940D01*
X1295400Y387350D01*
X1292860Y384810D01*
X1290320D01*
X1292860Y382270D01*
X1290320Y379730D01*
X1292860D01*
X1295400Y377190D01*
X1270000Y351790D02*
X1272540Y354330D01*
X1275080D01*
X1272540Y356870D01*
X1275080Y359410D01*
X1272540D01*
X1270000Y361950D01*
X1267460Y359410D01*
X1264920D01*
X1267460Y356870D01*
X1264920Y354330D01*
X1267460D01*
X1270000Y351790D01*
X1295400D02*
X1297940Y354330D01*
X1300480D01*
X1297940Y356870D01*
X1300480Y359410D01*
X1297940D01*
X1295400Y361950D01*
X1292860Y359410D01*
X1290320D01*
X1292860Y356870D01*
X1290320Y354330D01*
X1292860D01*
X1295400Y351790D01*
X1270000Y326390D02*
X1272540Y328930D01*
X1275080D01*
X1272540Y331470D01*
X1275080Y334010D01*
X1272540D01*
X1270000Y336550D01*
X1267460Y334010D01*
X1264920D01*
X1267460Y331470D01*
X1264920Y328930D01*
X1267460D01*
X1270000Y326390D01*
X1295400D02*
X1297940Y328930D01*
X1300480D01*
X1297940Y331470D01*
X1300480Y334010D01*
X1297940D01*
X1295400Y336550D01*
X1292860Y334010D01*
X1290320D01*
X1292860Y331470D01*
X1290320Y328930D01*
X1292860D01*
X1295400Y326390D01*
X1270000Y300990D02*
X1272540Y303530D01*
X1275080D01*
X1272540Y306070D01*
X1275080Y308610D01*
X1272540D01*
X1270000Y311150D01*
X1267460Y308610D01*
X1264920D01*
X1267460Y306070D01*
X1264920Y303530D01*
X1267460D01*
X1270000Y300990D01*
X1295400D02*
X1297940Y303530D01*
X1300480D01*
X1297940Y306070D01*
X1300480Y308610D01*
X1297940D01*
X1295400Y311150D01*
X1292860Y308610D01*
X1290320D01*
X1292860Y306070D01*
X1290320Y303530D01*
X1292860D01*
X1295400Y300990D01*
X1270000Y275590D02*
X1272540Y278130D01*
X1275080D01*
X1272540Y280670D01*
X1275080Y283210D01*
X1272540D01*
X1270000Y285750D01*
X1267460Y283210D01*
X1264920D01*
X1267460Y280670D01*
X1264920Y278130D01*
X1267460D01*
X1270000Y275590D01*
X1295400D02*
X1297940Y278130D01*
X1300480D01*
X1297940Y280670D01*
X1300480Y283210D01*
X1297940D01*
X1295400Y285750D01*
X1292860Y283210D01*
X1290320D01*
X1292860Y280670D01*
X1290320Y278130D01*
X1292860D01*
X1295400Y275590D01*
X1270000Y250190D02*
X1272540Y252730D01*
X1275080D01*
X1272540Y255270D01*
X1275080Y257810D01*
X1272540D01*
X1270000Y260350D01*
X1267460Y257810D01*
X1264920D01*
X1267460Y255270D01*
X1264920Y252730D01*
X1267460D01*
X1270000Y250190D01*
X1295400D02*
X1297940Y252730D01*
X1300480D01*
X1297940Y255270D01*
X1300480Y257810D01*
X1297940D01*
X1295400Y260350D01*
X1292860Y257810D01*
X1290320D01*
X1292860Y255270D01*
X1290320Y252730D01*
X1292860D01*
X1295400Y250190D01*
X1270000Y224790D02*
X1272540Y227330D01*
X1275080D01*
X1272540Y229870D01*
X1275080Y232410D01*
X1272540D01*
X1270000Y234950D01*
X1267460Y232410D01*
X1264920D01*
X1267460Y229870D01*
X1264920Y227330D01*
X1267460D01*
X1270000Y224790D01*
X1295400D02*
X1297940Y227330D01*
X1300480D01*
X1297940Y229870D01*
X1300480Y232410D01*
X1297940D01*
X1295400Y234950D01*
X1292860Y232410D01*
X1290320D01*
X1292860Y229870D01*
X1290320Y227330D01*
X1292860D01*
X1295400Y224790D01*
X1270000Y199390D02*
X1272540Y201930D01*
X1275080D01*
X1272540Y204470D01*
X1275080Y207010D01*
X1272540D01*
X1270000Y209550D01*
X1267460Y207010D01*
X1264920D01*
X1267460Y204470D01*
X1264920Y201930D01*
X1267460D01*
X1270000Y199390D01*
X1295400D02*
X1297940Y201930D01*
X1300480D01*
X1297940Y204470D01*
X1300480Y207010D01*
X1297940D01*
X1295400Y209550D01*
X1292860Y207010D01*
X1290320D01*
X1292860Y204470D01*
X1290320Y201930D01*
X1292860D01*
X1295400Y199390D01*
X1270000Y173990D02*
X1272540Y176530D01*
X1275080D01*
X1272540Y179070D01*
X1275080Y181610D01*
X1272540D01*
X1270000Y184150D01*
X1267460Y181610D01*
X1264920D01*
X1267460Y179070D01*
X1264920Y176530D01*
X1267460D01*
X1270000Y173990D01*
X1295400D02*
X1297940Y176530D01*
X1300480D01*
X1297940Y179070D01*
X1300480Y181610D01*
X1297940D01*
X1295400Y184150D01*
X1292860Y181610D01*
X1290320D01*
X1292860Y179070D01*
X1290320Y176530D01*
X1292860D01*
X1295400Y173990D01*
X909320Y38100D02*
Y35560D01*
X914400D01*
Y38100D01*
X916940D01*
Y43180D01*
X914400D01*
Y45720D01*
X909320D01*
Y43180D01*
X906780D01*
Y38100D01*
X909320D01*
X117475Y38735D02*
Y36195D01*
X122555D01*
Y38735D01*
X125095D01*
Y43815D01*
X122555D01*
Y46355D01*
X117475D01*
Y43815D01*
X114935D01*
Y38735D01*
X117475D01*
X1052830Y38100D02*
Y35560D01*
X1057910D01*
Y38100D01*
X1060450D01*
Y43180D01*
X1057910D01*
Y45720D01*
X1052830D01*
Y43180D01*
X1050290D01*
Y38100D01*
X1052830D01*
X261620Y36830D02*
Y34290D01*
X266700D01*
Y36830D01*
X269240D01*
Y41910D01*
X266700D01*
Y44450D01*
X261620D01*
Y41910D01*
X259080D01*
Y36830D01*
X261620D01*
X840940Y262890D02*
Y273050D01*
X851100D01*
Y262890D01*
X840940D01*
X866340D02*
Y273050D01*
X876500D01*
Y262890D01*
X866340D01*
X891740D02*
Y273050D01*
X901900D01*
Y262890D01*
X891740D01*
X917140D02*
Y273050D01*
X927300D01*
Y262890D01*
X917140D01*
X942540D02*
Y273050D01*
X952700D01*
Y262890D01*
X942540D01*
X967940D02*
Y273050D01*
X978100D01*
Y262890D01*
X967940D01*
X815540D02*
Y273050D01*
X825700D01*
Y262890D01*
X815540D01*
X790140D02*
Y273050D01*
X800300D01*
Y262890D01*
X790140D01*
X764740D02*
Y273050D01*
X774900D01*
Y262890D01*
X764740D01*
X739340D02*
Y273050D01*
X749500D01*
Y262890D01*
X739340D01*
X713940D02*
Y273050D01*
X724100D01*
Y262890D01*
X713940D01*
X967940Y288290D02*
Y298450D01*
X978100D01*
Y288290D01*
X967940D01*
Y313690D02*
Y323850D01*
X978100D01*
Y313690D01*
X967940D01*
Y339090D02*
Y349250D01*
X978100D01*
Y339090D01*
X967940D01*
Y364490D02*
Y374650D01*
X978100D01*
Y364490D01*
X967940D01*
Y389890D02*
Y400050D01*
X978100D01*
Y389890D01*
X967940D01*
Y415290D02*
Y425450D01*
X978100D01*
Y415290D01*
X967940D01*
Y440690D02*
Y450850D01*
X978100D01*
Y440690D01*
X967940D01*
Y466090D02*
Y476250D01*
X978100D01*
Y466090D01*
X967940D01*
Y491490D02*
Y501650D01*
X978100D01*
Y491490D01*
X967940D01*
Y516890D02*
Y527050D01*
X978100D01*
Y516890D01*
X967940D01*
X942540Y288290D02*
Y298450D01*
X952700D01*
Y288290D01*
X942540D01*
X917140D02*
Y298450D01*
X927300D01*
Y288290D01*
X917140D01*
X891740D02*
Y298450D01*
X901900D01*
Y288290D01*
X891740D01*
X866340D02*
Y298450D01*
X876500D01*
Y288290D01*
X866340D01*
X840940D02*
Y298450D01*
X851100D01*
Y288290D01*
X840940D01*
X815540D02*
Y298450D01*
X825700D01*
Y288290D01*
X815540D01*
X790140D02*
Y298450D01*
X800300D01*
Y288290D01*
X790140D01*
X764740D02*
Y298450D01*
X774900D01*
Y288290D01*
X764740D01*
X739340D02*
Y298450D01*
X749500D01*
Y288290D01*
X739340D01*
X713940D02*
Y298450D01*
X724100D01*
Y288290D01*
X713940D01*
X942540Y313690D02*
Y323850D01*
X952700D01*
Y313690D01*
X942540D01*
X866340D02*
Y323850D01*
X876500D01*
Y313690D01*
X866340D01*
X840940D02*
Y323850D01*
X851100D01*
Y313690D01*
X840940D01*
X815540D02*
Y323850D01*
X825700D01*
Y313690D01*
X815540D01*
X739340D02*
Y323850D01*
X749500D01*
Y313690D01*
X739340D01*
X713940D02*
Y323850D01*
X724100D01*
Y313690D01*
X713940D01*
X942540Y339090D02*
Y349250D01*
X952700D01*
Y339090D01*
X942540D01*
X739340D02*
Y349250D01*
X749500D01*
Y339090D01*
X739340D01*
X713940D02*
Y349250D01*
X724100D01*
Y339090D01*
X713940D01*
X942540Y364490D02*
Y374650D01*
X952700D01*
Y364490D01*
X942540D01*
X764740D02*
Y374650D01*
X774900D01*
Y364490D01*
X764740D01*
X739340D02*
Y374650D01*
X749500D01*
Y364490D01*
X739340D01*
X713940D02*
Y374650D01*
X724100D01*
Y364490D01*
X713940D01*
X942540Y389890D02*
Y400050D01*
X952700D01*
Y389890D01*
X942540D01*
X764740D02*
Y400050D01*
X774900D01*
Y389890D01*
X764740D01*
X739340D02*
Y400050D01*
X749500D01*
Y389890D01*
X739340D01*
X713940D02*
Y400050D01*
X724100D01*
Y389890D01*
X713940D01*
X942540Y415290D02*
Y425450D01*
X952700D01*
Y415290D01*
X942540D01*
X764740D02*
Y425450D01*
X774900D01*
Y415290D01*
X764740D01*
X739340D02*
Y425450D01*
X749500D01*
Y415290D01*
X739340D01*
X713940D02*
Y425450D01*
X724100D01*
Y415290D01*
X713940D01*
X942540Y440690D02*
Y450850D01*
X952700D01*
Y440690D01*
X942540D01*
X739340D02*
Y450850D01*
X749500D01*
Y440690D01*
X739340D01*
X713940D02*
Y450850D01*
X724100D01*
Y440690D01*
X713940D01*
X942540Y466090D02*
Y476250D01*
X952700D01*
Y466090D01*
X942540D01*
X866340D02*
Y476250D01*
X876500D01*
Y466090D01*
X866340D01*
X840940D02*
Y476250D01*
X851100D01*
Y466090D01*
X840940D01*
X815540D02*
Y476250D01*
X825700D01*
Y466090D01*
X815540D01*
X739340D02*
Y476250D01*
X749500D01*
Y466090D01*
X739340D01*
X713940D02*
Y476250D01*
X724100D01*
Y466090D01*
X713940D01*
X942540Y491490D02*
Y501650D01*
X952700D01*
Y491490D01*
X942540D01*
X917140D02*
Y501650D01*
X927300D01*
Y491490D01*
X917140D01*
X891740D02*
Y501650D01*
X901900D01*
Y491490D01*
X891740D01*
X866340D02*
Y501650D01*
X876500D01*
Y491490D01*
X866340D01*
X840940D02*
Y501650D01*
X851100D01*
Y491490D01*
X840940D01*
X815540D02*
Y501650D01*
X825700D01*
Y491490D01*
X815540D01*
X790140D02*
Y501650D01*
X800300D01*
Y491490D01*
X790140D01*
X764740D02*
Y501650D01*
X774900D01*
Y491490D01*
X764740D01*
X739340D02*
Y501650D01*
X749500D01*
Y491490D01*
X739340D01*
X713940D02*
Y501650D01*
X724100D01*
Y491490D01*
X713940D01*
X942540Y516890D02*
Y527050D01*
X952700D01*
Y516890D01*
X942540D01*
X917140D02*
Y527050D01*
X927300D01*
Y516890D01*
X917140D01*
X891740D02*
Y527050D01*
X901900D01*
Y516890D01*
X891740D01*
X866340D02*
Y527050D01*
X876500D01*
Y516890D01*
X866340D01*
X840940D02*
Y527050D01*
X851100D01*
Y516890D01*
X840940D01*
X815540D02*
Y527050D01*
X825700D01*
Y516890D01*
X815540D01*
X790140D02*
Y527050D01*
X800300D01*
Y516890D01*
X790140D01*
X764740D02*
Y527050D01*
X774900D01*
Y516890D01*
X764740D01*
X739340D02*
Y527050D01*
X749500D01*
Y516890D01*
X739340D01*
X713940D02*
Y527050D01*
X724100D01*
Y516890D01*
X713940D01*
X1074020Y262890D02*
X1068940Y273050D01*
X1079100D01*
X1074020Y262890D01*
Y516890D02*
X1068940Y527050D01*
X1079100D01*
X1074020Y516890D01*
X668020Y262890D02*
X662940Y273050D01*
X673100D01*
X668020Y262890D01*
Y516890D02*
X662940Y527050D01*
X673100D01*
X668020Y516890D01*
X917140Y364490D02*
Y374650D01*
X927300D01*
Y364490D01*
X917140D01*
Y389890D02*
Y400050D01*
X927300D01*
Y389890D01*
X917140D01*
Y415290D02*
Y425450D01*
X927300D01*
Y415290D01*
X917140D01*
X300090Y516890D02*
Y527050D01*
X310250D01*
Y516890D01*
X300090D01*
X274690D02*
Y527050D01*
X284850D01*
Y516890D01*
X274690D01*
X249290D02*
Y527050D01*
X259450D01*
Y516890D01*
X249290D01*
X223890D02*
Y527050D01*
X234050D01*
Y516890D01*
X223890D01*
X198490D02*
Y527050D01*
X208650D01*
Y516890D01*
X198490D01*
X173090D02*
Y527050D01*
X183250D01*
Y516890D01*
X173090D01*
X325490D02*
Y527050D01*
X335650D01*
Y516890D01*
X325490D01*
X350890D02*
Y527050D01*
X361050D01*
Y516890D01*
X350890D01*
X376290D02*
Y527050D01*
X386450D01*
Y516890D01*
X376290D01*
X401690D02*
Y527050D01*
X411850D01*
Y516890D01*
X401690D01*
X427090D02*
Y527050D01*
X437250D01*
Y516890D01*
X427090D01*
X173090Y491490D02*
Y501650D01*
X183250D01*
Y491490D01*
X173090D01*
Y466090D02*
Y476250D01*
X183250D01*
Y466090D01*
X173090D01*
Y440690D02*
Y450850D01*
X183250D01*
Y440690D01*
X173090D01*
Y415290D02*
Y425450D01*
X183250D01*
Y415290D01*
X173090D01*
Y389890D02*
Y400050D01*
X183250D01*
Y389890D01*
X173090D01*
Y364490D02*
Y374650D01*
X183250D01*
Y364490D01*
X173090D01*
Y339090D02*
Y349250D01*
X183250D01*
Y339090D01*
X173090D01*
Y313690D02*
Y323850D01*
X183250D01*
Y313690D01*
X173090D01*
Y288290D02*
Y298450D01*
X183250D01*
Y288290D01*
X173090D01*
Y262890D02*
Y273050D01*
X183250D01*
Y262890D01*
X173090D01*
X198490Y491490D02*
Y501650D01*
X208650D01*
Y491490D01*
X198490D01*
X223890D02*
Y501650D01*
X234050D01*
Y491490D01*
X223890D01*
X249290D02*
Y501650D01*
X259450D01*
Y491490D01*
X249290D01*
X274690D02*
Y501650D01*
X284850D01*
Y491490D01*
X274690D01*
X300090D02*
Y501650D01*
X310250D01*
Y491490D01*
X300090D01*
X325490D02*
Y501650D01*
X335650D01*
Y491490D01*
X325490D01*
X350890D02*
Y501650D01*
X361050D01*
Y491490D01*
X350890D01*
X376290D02*
Y501650D01*
X386450D01*
Y491490D01*
X376290D01*
X401690D02*
Y501650D01*
X411850D01*
Y491490D01*
X401690D01*
X427090D02*
Y501650D01*
X437250D01*
Y491490D01*
X427090D01*
X198490Y466090D02*
Y476250D01*
X208650D01*
Y466090D01*
X198490D01*
X274690D02*
Y476250D01*
X284850D01*
Y466090D01*
X274690D01*
X300090D02*
Y476250D01*
X310250D01*
Y466090D01*
X300090D01*
X325490D02*
Y476250D01*
X335650D01*
Y466090D01*
X325490D01*
X401690D02*
Y476250D01*
X411850D01*
Y466090D01*
X401690D01*
X427090D02*
Y476250D01*
X437250D01*
Y466090D01*
X427090D01*
X198490Y440690D02*
Y450850D01*
X208650D01*
Y440690D01*
X198490D01*
X401690D02*
Y450850D01*
X411850D01*
Y440690D01*
X401690D01*
X427090D02*
Y450850D01*
X437250D01*
Y440690D01*
X427090D01*
X198490Y415290D02*
Y425450D01*
X208650D01*
Y415290D01*
X198490D01*
X376290D02*
Y425450D01*
X386450D01*
Y415290D01*
X376290D01*
X401690D02*
Y425450D01*
X411850D01*
Y415290D01*
X401690D01*
X427090D02*
Y425450D01*
X437250D01*
Y415290D01*
X427090D01*
X198490Y389890D02*
Y400050D01*
X208650D01*
Y389890D01*
X198490D01*
X376290D02*
Y400050D01*
X386450D01*
Y389890D01*
X376290D01*
X401690D02*
Y400050D01*
X411850D01*
Y389890D01*
X401690D01*
X427090D02*
Y400050D01*
X437250D01*
Y389890D01*
X427090D01*
X198490Y364490D02*
Y374650D01*
X208650D01*
Y364490D01*
X198490D01*
X376290D02*
Y374650D01*
X386450D01*
Y364490D01*
X376290D01*
X401690D02*
Y374650D01*
X411850D01*
Y364490D01*
X401690D01*
X427090D02*
Y374650D01*
X437250D01*
Y364490D01*
X427090D01*
X198490Y339090D02*
Y349250D01*
X208650D01*
Y339090D01*
X198490D01*
X401690D02*
Y349250D01*
X411850D01*
Y339090D01*
X401690D01*
X427090D02*
Y349250D01*
X437250D01*
Y339090D01*
X427090D01*
X198490Y313690D02*
Y323850D01*
X208650D01*
Y313690D01*
X198490D01*
X274690D02*
Y323850D01*
X284850D01*
Y313690D01*
X274690D01*
X300090D02*
Y323850D01*
X310250D01*
Y313690D01*
X300090D01*
X325490D02*
Y323850D01*
X335650D01*
Y313690D01*
X325490D01*
X401690D02*
Y323850D01*
X411850D01*
Y313690D01*
X401690D01*
X427090D02*
Y323850D01*
X437250D01*
Y313690D01*
X427090D01*
X198490Y288290D02*
Y298450D01*
X208650D01*
Y288290D01*
X198490D01*
X223890D02*
Y298450D01*
X234050D01*
Y288290D01*
X223890D01*
X249290D02*
Y298450D01*
X259450D01*
Y288290D01*
X249290D01*
X274690D02*
Y298450D01*
X284850D01*
Y288290D01*
X274690D01*
X300090D02*
Y298450D01*
X310250D01*
Y288290D01*
X300090D01*
X325490D02*
Y298450D01*
X335650D01*
Y288290D01*
X325490D01*
X350890D02*
Y298450D01*
X361050D01*
Y288290D01*
X350890D01*
X376290D02*
Y298450D01*
X386450D01*
Y288290D01*
X376290D01*
X401690D02*
Y298450D01*
X411850D01*
Y288290D01*
X401690D01*
X427090D02*
Y298450D01*
X437250D01*
Y288290D01*
X427090D01*
X198490Y262890D02*
Y273050D01*
X208650D01*
Y262890D01*
X198490D01*
X223890D02*
Y273050D01*
X234050D01*
Y262890D01*
X223890D01*
X249290D02*
Y273050D01*
X259450D01*
Y262890D01*
X249290D01*
X274690D02*
Y273050D01*
X284850D01*
Y262890D01*
X274690D01*
X300090D02*
Y273050D01*
X310250D01*
Y262890D01*
X300090D01*
X325490D02*
Y273050D01*
X335650D01*
Y262890D01*
X325490D01*
X350890D02*
Y273050D01*
X361050D01*
Y262890D01*
X350890D01*
X376290D02*
Y273050D01*
X386450D01*
Y262890D01*
X376290D01*
X401690D02*
Y273050D01*
X411850D01*
Y262890D01*
X401690D01*
X427090D02*
Y273050D01*
X437250D01*
Y262890D01*
X427090D01*
X77170Y516890D02*
X72090Y527050D01*
X82250D01*
X77170Y516890D01*
Y262890D02*
X72090Y273050D01*
X82250D01*
X77170Y262890D01*
X483170Y516890D02*
X478090Y527050D01*
X488250D01*
X483170Y516890D01*
Y262890D02*
X478090Y273050D01*
X488250D01*
X483170Y262890D01*
X223890Y415290D02*
Y425450D01*
X234050D01*
Y415290D01*
X223890D01*
Y389890D02*
Y400050D01*
X234050D01*
Y389890D01*
X223890D01*
Y364490D02*
Y374650D01*
X234050D01*
Y364490D01*
X223890D01*
X859320Y683260D02*
Y693420D01*
X869480D01*
Y683260D01*
X859320D01*
X909320D02*
Y693420D01*
X919480D01*
Y683260D01*
X909320D01*
X884320D02*
Y693420D01*
X894480D01*
Y683260D01*
X884320D01*
X834320D02*
Y693420D01*
X844480D01*
Y683260D01*
X834320D01*
X266700D02*
Y693420D01*
X276860D01*
Y683260D01*
X266700D01*
X316700D02*
Y693420D01*
X326860D01*
Y683260D01*
X316700D01*
X291700D02*
Y693420D01*
X301860D01*
Y683260D01*
X291700D01*
X241700D02*
Y693420D01*
X251860D01*
Y683260D01*
X241700D01*
X27717Y744942D02*
X30257Y750022D01*
X27717Y755102D01*
X32797Y752562D01*
X37877Y755102D01*
X35337Y750022D01*
X37877Y744942D01*
X32797Y747482D01*
X27717Y744942D01*
Y27392D02*
X30257Y32472D01*
X27717Y37552D01*
X32797Y35012D01*
X37877Y37552D01*
X35337Y32472D01*
X37877Y27392D01*
X32797Y29932D01*
X27717Y27392D01*
X1297717D02*
X1300257Y32472D01*
X1297717Y37552D01*
X1302797Y35012D01*
X1307877Y37552D01*
X1305337Y32472D01*
X1307877Y27392D01*
X1302797Y29932D01*
X1297717Y27392D01*
X1297940Y745490D02*
X1300480Y750570D01*
X1297940Y755650D01*
X1303020Y753110D01*
X1308100Y755650D01*
X1305560Y750570D01*
X1308100Y745490D01*
X1303020Y748030D01*
X1297940Y745490D01*
X982980Y552450D02*
X985520D01*
X988060Y554990D01*
X990600Y552450D01*
X993140D01*
Y554990D01*
X990600Y557530D01*
X993140Y560070D01*
Y562610D01*
X990600D01*
X988060Y560070D01*
X985520Y562610D01*
X982980D01*
Y560070D01*
X985520Y557530D01*
X982980Y554990D01*
Y552450D01*
X993140Y566420D02*
X995680D01*
X998220Y568960D01*
X1000760Y566420D01*
X1003300D01*
Y568960D01*
X1000760Y571500D01*
X1003300Y574040D01*
Y576580D01*
X1000760D01*
X998220Y574040D01*
X995680Y576580D01*
X993140D01*
Y574040D01*
X995680Y571500D01*
X993140Y568960D01*
Y566420D01*
X1003300Y594360D02*
X1005840D01*
X1008380Y596900D01*
X1010920Y594360D01*
X1013460D01*
Y596900D01*
X1010920Y599440D01*
X1013460Y601980D01*
Y604520D01*
X1010920D01*
X1008380Y601980D01*
X1005840Y604520D01*
X1003300D01*
Y601980D01*
X1005840Y599440D01*
X1003300Y596900D01*
Y594360D01*
X1118870Y671830D02*
X1121410D01*
X1123950Y674370D01*
X1126490Y671830D01*
X1129030D01*
Y674370D01*
X1126490Y676910D01*
X1129030Y679450D01*
Y681990D01*
X1126490D01*
X1123950Y679450D01*
X1121410Y681990D01*
X1118870D01*
Y679450D01*
X1121410Y676910D01*
X1118870Y674370D01*
Y671830D01*
X1220470Y685800D02*
X1223010D01*
X1225550Y688340D01*
X1228090Y685800D01*
X1230630D01*
Y688340D01*
X1228090Y690880D01*
X1230630Y693420D01*
Y695960D01*
X1228090D01*
X1225550Y693420D01*
X1223010Y695960D01*
X1220470D01*
Y693420D01*
X1223010Y690880D01*
X1220470Y688340D01*
Y685800D01*
X1178560Y697230D02*
X1181100D01*
X1183640Y699770D01*
X1186180Y697230D01*
X1188720D01*
Y699770D01*
X1186180Y702310D01*
X1188720Y704850D01*
Y707390D01*
X1186180D01*
X1183640Y704850D01*
X1181100Y707390D01*
X1178560D01*
Y704850D01*
X1181100Y702310D01*
X1178560Y699770D01*
Y697230D01*
X1158240Y709930D02*
X1160780D01*
X1163320Y712470D01*
X1165860Y709930D01*
X1168400D01*
Y712470D01*
X1165860Y715010D01*
X1168400Y717550D01*
Y720090D01*
X1165860D01*
X1163320Y717550D01*
X1160780Y720090D01*
X1158240D01*
Y717550D01*
X1160780Y715010D01*
X1158240Y712470D01*
Y709930D01*
X1118870Y377190D02*
X1121410D01*
X1123950Y379730D01*
X1126490Y377190D01*
X1129030D01*
Y379730D01*
X1126490Y382270D01*
X1129030Y384810D01*
Y387350D01*
X1126490D01*
X1123950Y384810D01*
X1121410Y387350D01*
X1118870D01*
Y384810D01*
X1121410Y382270D01*
X1118870Y379730D01*
Y377190D01*
Y490220D02*
X1121410D01*
X1123950Y492760D01*
X1126490Y490220D01*
X1129030D01*
Y492760D01*
X1126490Y495300D01*
X1129030Y497840D01*
Y500380D01*
X1126490D01*
X1123950Y497840D01*
X1121410Y500380D01*
X1118870D01*
Y497840D01*
X1121410Y495300D01*
X1118870Y492760D01*
Y490220D01*
X1141730Y425450D02*
X1144270D01*
X1146810Y427990D01*
X1149350Y425450D01*
X1151890D01*
Y427990D01*
X1149350Y430530D01*
X1151890Y433070D01*
Y435610D01*
X1149350D01*
X1146810Y433070D01*
X1144270Y435610D01*
X1141730D01*
Y433070D01*
X1144270Y430530D01*
X1141730Y427990D01*
Y425450D01*
X989330Y424180D02*
X991870D01*
X994410Y426720D01*
X996950Y424180D01*
X999490D01*
Y426720D01*
X996950Y429260D01*
X999490Y431800D01*
Y434340D01*
X996950D01*
X994410Y431800D01*
X991870Y434340D01*
X989330D01*
Y431800D01*
X991870Y429260D01*
X989330Y426720D01*
Y424180D01*
X1220470Y455930D02*
X1223010D01*
X1225550Y458470D01*
X1228090Y455930D01*
X1230630D01*
Y458470D01*
X1228090Y461010D01*
X1230630Y463550D01*
Y466090D01*
X1228090D01*
X1225550Y463550D01*
X1223010Y466090D01*
X1220470D01*
Y463550D01*
X1223010Y461010D01*
X1220470Y458470D01*
Y455930D01*
Y351790D02*
X1223010D01*
X1225550Y354330D01*
X1228090Y351790D01*
X1230630D01*
Y354330D01*
X1228090Y356870D01*
X1230630Y359410D01*
Y361950D01*
X1228090D01*
X1225550Y359410D01*
X1223010Y361950D01*
X1220470D01*
Y359410D01*
X1223010Y356870D01*
X1220470Y354330D01*
Y351790D01*
X1141730Y580390D02*
X1144270D01*
X1146810Y582930D01*
X1149350Y580390D01*
X1151890D01*
Y582930D01*
X1149350Y585470D01*
X1151890Y588010D01*
Y590550D01*
X1149350D01*
X1146810Y588010D01*
X1144270Y590550D01*
X1141730D01*
Y588010D01*
X1144270Y585470D01*
X1141730Y582930D01*
Y580390D01*
X1158240Y438150D02*
X1160780D01*
X1163320Y440690D01*
X1165860Y438150D01*
X1168400D01*
Y440690D01*
X1165860Y443230D01*
X1168400Y445770D01*
Y448310D01*
X1165860D01*
X1163320Y445770D01*
X1160780Y448310D01*
X1158240D01*
Y445770D01*
X1160780Y443230D01*
X1158240Y440690D01*
Y438150D01*
Y327660D02*
X1160780D01*
X1163320Y330200D01*
X1165860Y327660D01*
X1168400D01*
Y330200D01*
X1165860Y332740D01*
X1168400Y335280D01*
Y337820D01*
X1165860D01*
X1163320Y335280D01*
X1160780Y337820D01*
X1158240D01*
Y335280D01*
X1160780Y332740D01*
X1158240Y330200D01*
Y327660D01*
X1178560Y478790D02*
X1181100D01*
X1183640Y481330D01*
X1186180Y478790D01*
X1188720D01*
Y481330D01*
X1186180Y483870D01*
X1188720Y486410D01*
Y488950D01*
X1186180D01*
X1183640Y486410D01*
X1181100Y488950D01*
X1178560D01*
Y486410D01*
X1181100Y483870D01*
X1178560Y481330D01*
Y478790D01*
Y300990D02*
X1181100D01*
X1183640Y303530D01*
X1186180Y300990D01*
X1188720D01*
Y303530D01*
X1186180Y306070D01*
X1188720Y308610D01*
Y311150D01*
X1186180D01*
X1183640Y308610D01*
X1181100Y311150D01*
X1178560D01*
Y308610D01*
X1181100Y306070D01*
X1178560Y303530D01*
Y300990D01*
X1195070Y402590D02*
X1197610D01*
X1200150Y405130D01*
X1202690Y402590D01*
X1205230D01*
Y405130D01*
X1202690Y407670D01*
X1205230Y410210D01*
Y412750D01*
X1202690D01*
X1200150Y410210D01*
X1197610Y412750D01*
X1195070D01*
Y410210D01*
X1197610Y407670D01*
X1195070Y405130D01*
Y402590D01*
Y509270D02*
X1197610D01*
X1200150Y511810D01*
X1202690Y509270D01*
X1205230D01*
Y511810D01*
X1202690Y514350D01*
X1205230Y516890D01*
Y519430D01*
X1202690D01*
X1200150Y516890D01*
X1197610Y519430D01*
X1195070D01*
Y516890D01*
X1197610Y514350D01*
X1195070Y511810D01*
Y509270D01*
X1209040Y525780D02*
X1211580D01*
X1214120Y528320D01*
X1216660Y525780D01*
X1219200D01*
Y528320D01*
X1216660Y530860D01*
X1219200Y533400D01*
Y535940D01*
X1216660D01*
X1214120Y533400D01*
X1211580Y535940D01*
X1209040D01*
Y533400D01*
X1211580Y530860D01*
X1209040Y528320D01*
Y525780D01*
Y199390D02*
X1211580D01*
X1214120Y201930D01*
X1216660Y199390D01*
X1219200D01*
Y201930D01*
X1216660Y204470D01*
X1219200Y207010D01*
Y209550D01*
X1216660D01*
X1214120Y207010D01*
X1211580Y209550D01*
X1209040D01*
Y207010D01*
X1211580Y204470D01*
X1209040Y201930D01*
Y199390D01*
X918348Y94242D02*
X920888D01*
X923428Y96782D01*
X925968Y94242D01*
X928508D01*
Y96782D01*
X925968Y99321D01*
X928508Y101861D01*
Y104402D01*
X925968D01*
X923428Y101861D01*
X920888Y104402D01*
X918348D01*
Y101861D01*
X920888Y99321D01*
X918348Y96782D01*
Y94242D01*
X163830Y141817D02*
X166370D01*
X168910Y144357D01*
X171450Y141817D01*
X173990D01*
Y144357D01*
X171450Y146897D01*
X173990Y149437D01*
Y151977D01*
X171450D01*
X168910Y149437D01*
X166370Y151977D01*
X163830D01*
Y149437D01*
X166370Y146897D01*
X163830Y144357D01*
Y141817D01*
Y128693D02*
X166370D01*
X168910Y131233D01*
X171450Y128693D01*
X173990D01*
Y131233D01*
X171450Y133773D01*
X173990Y136313D01*
Y138853D01*
X171450D01*
X168910Y136313D01*
X166370Y138853D01*
X163830D01*
Y136313D01*
X166370Y133773D01*
X163830Y131233D01*
Y128693D01*
Y115570D02*
X166370D01*
X168910Y118110D01*
X171450Y115570D01*
X173990D01*
Y118110D01*
X171450Y120650D01*
X173990Y123190D01*
Y125730D01*
X171450D01*
X168910Y123190D01*
X166370Y125730D01*
X163830D01*
Y123190D01*
X166370Y120650D01*
X163830Y118110D01*
Y115570D01*
X192227Y46848D02*
X194767D01*
X197307Y49387D01*
X199847Y46848D01*
X202387D01*
Y49387D01*
X199847Y51927D01*
X202387Y54468D01*
Y57007D01*
X199847D01*
X197307Y54468D01*
X194767Y57007D01*
X192227D01*
Y54468D01*
X194767Y51927D01*
X192227Y49387D01*
Y46848D01*
X201117Y37957D02*
X203657D01*
X206197Y40497D01*
X208737Y37957D01*
X211277D01*
Y40497D01*
X208737Y43038D01*
X211277Y45578D01*
Y48117D01*
X208737D01*
X206197Y45578D01*
X203657Y48117D01*
X201117D01*
Y45578D01*
X203657Y43038D01*
X201117Y40497D01*
Y37957D01*
X210007Y29067D02*
X212547D01*
X215087Y31607D01*
X217627Y29067D01*
X220167D01*
Y31607D01*
X217627Y34148D01*
X220167Y36688D01*
Y39227D01*
X217627D01*
X215087Y36688D01*
X212547Y39227D01*
X210007D01*
Y36688D01*
X212547Y34148D01*
X210007Y31607D01*
Y29067D01*
X140970Y101600D02*
X143510D01*
X146050Y104140D01*
X148590Y101600D01*
X151130D01*
Y104140D01*
X148590Y106680D01*
X151130Y109220D01*
Y111760D01*
X148590D01*
X146050Y109220D01*
X143510Y111760D01*
X140970D01*
Y109220D01*
X143510Y106680D01*
X140970Y104140D01*
Y101600D01*
Y114300D02*
X143510D01*
X146050Y116840D01*
X148590Y114300D01*
X151130D01*
Y116840D01*
X148590Y119380D01*
X151130Y121920D01*
Y124460D01*
X148590D01*
X146050Y121920D01*
X143510Y124460D01*
X140970D01*
Y121920D01*
X143510Y119380D01*
X140970Y116840D01*
Y114300D01*
X184150Y54610D02*
X186690D01*
X189230Y57150D01*
X191770Y54610D01*
X194310D01*
Y57150D01*
X191770Y59690D01*
X194310Y62230D01*
Y64770D01*
X191770D01*
X189230Y62230D01*
X186690Y64770D01*
X184150D01*
Y62230D01*
X186690Y59690D01*
X184150Y57150D01*
Y54610D01*
X175260Y63500D02*
X177800D01*
X180340Y66040D01*
X182880Y63500D01*
X185420D01*
Y66040D01*
X182880Y68580D01*
X185420Y71120D01*
Y73660D01*
X182880D01*
X180340Y71120D01*
X177800Y73660D01*
X175260D01*
Y71120D01*
X177800Y68580D01*
X175260Y66040D01*
Y63500D01*
X166370Y72390D02*
X168910D01*
X171450Y74930D01*
X173990Y72390D01*
X176530D01*
Y74930D01*
X173990Y77470D01*
X176530Y80010D01*
Y82550D01*
X173990D01*
X171450Y80010D01*
X168910Y82550D01*
X166370D01*
Y80010D01*
X168910Y77470D01*
X166370Y74930D01*
Y72390D01*
X157480Y81280D02*
X160020D01*
X162560Y83820D01*
X165100Y81280D01*
X167640D01*
Y83820D01*
X165100Y86360D01*
X167640Y88900D01*
Y91440D01*
X165100D01*
X162560Y88900D01*
X160020Y91440D01*
X157480D01*
Y88900D01*
X160020Y86360D01*
X157480Y83820D01*
Y81280D01*
X148590Y90170D02*
X151130D01*
X153670Y92710D01*
X156210Y90170D01*
X158750D01*
Y92710D01*
X156210Y95250D01*
X158750Y97790D01*
Y100330D01*
X156210D01*
X153670Y97790D01*
X151130Y100330D01*
X148590D01*
Y97790D01*
X151130Y95250D01*
X148590Y92710D01*
Y90170D01*
X1037590Y87162D02*
X1040130D01*
X1042670Y89702D01*
X1045210Y87162D01*
X1047750D01*
Y89702D01*
X1045210Y92242D01*
X1047750Y94782D01*
Y97322D01*
X1045210D01*
X1042670Y94782D01*
X1040130Y97322D01*
X1037590D01*
Y94782D01*
X1040130Y92242D01*
X1037590Y89702D01*
Y87162D01*
Y126265D02*
X1040130D01*
X1042670Y128805D01*
X1045210Y126265D01*
X1047750D01*
Y128805D01*
X1045210Y131345D01*
X1047750Y133885D01*
Y136425D01*
X1045210D01*
X1042670Y133885D01*
X1040130Y136425D01*
X1037590D01*
Y133885D01*
X1040130Y131345D01*
X1037590Y128805D01*
Y126265D01*
Y152333D02*
X1040130D01*
X1042670Y154873D01*
X1045210Y152333D01*
X1047750D01*
Y154873D01*
X1045210Y157413D01*
X1047750Y159953D01*
Y162493D01*
X1045210D01*
X1042670Y159953D01*
X1040130Y162493D01*
X1037590D01*
Y159953D01*
X1040130Y157413D01*
X1037590Y154873D01*
Y152333D01*
Y178402D02*
X1040130D01*
X1042670Y180942D01*
X1045210Y178402D01*
X1047750D01*
Y180942D01*
X1045210Y183482D01*
X1047750Y186022D01*
Y188562D01*
X1045210D01*
X1042670Y186022D01*
X1040130Y188562D01*
X1037590D01*
Y186022D01*
X1040130Y183482D01*
X1037590Y180942D01*
Y178402D01*
X128270Y87630D02*
X130810D01*
X133350Y90170D01*
X135890Y87630D01*
X138430D01*
Y90170D01*
X135890Y92710D01*
X138430Y95250D01*
Y97790D01*
X135890D01*
X133350Y95250D01*
X130810Y97790D01*
X128270D01*
Y95250D01*
X130810Y92710D01*
X128270Y90170D01*
Y87630D01*
Y100753D02*
X130810D01*
X133350Y103293D01*
X135890Y100753D01*
X138430D01*
Y103293D01*
X135890Y105833D01*
X138430Y108373D01*
Y110913D01*
X135890D01*
X133350Y108373D01*
X130810Y110913D01*
X128270D01*
Y108373D01*
X130810Y105833D01*
X128270Y103293D01*
Y100753D01*
Y113877D02*
X130810D01*
X133350Y116417D01*
X135890Y113877D01*
X138430D01*
Y116417D01*
X135890Y118957D01*
X138430Y121497D01*
Y124037D01*
X135890D01*
X133350Y121497D01*
X130810Y124037D01*
X128270D01*
Y121497D01*
X130810Y118957D01*
X128270Y116417D01*
Y113877D01*
Y127000D02*
X130810D01*
X133350Y129540D01*
X135890Y127000D01*
X138430D01*
Y129540D01*
X135890Y132080D01*
X138430Y134620D01*
Y137160D01*
X135890D01*
X133350Y134620D01*
X130810Y137160D01*
X128270D01*
Y134620D01*
X130810Y132080D01*
X128270Y129540D01*
Y127000D01*
Y140970D02*
X130810D01*
X133350Y143510D01*
X135890Y140970D01*
X138430D01*
Y143510D01*
X135890Y146050D01*
X138430Y148590D01*
Y151130D01*
X135890D01*
X133350Y148590D01*
X130810Y151130D01*
X128270D01*
Y148590D01*
X130810Y146050D01*
X128270Y143510D01*
Y140970D01*
Y167217D02*
X130810D01*
X133350Y169757D01*
X135890Y167217D01*
X138430D01*
Y169757D01*
X135890Y172297D01*
X138430Y174837D01*
Y177377D01*
X135890D01*
X133350Y174837D01*
X130810Y177377D01*
X128270D01*
Y174837D01*
X130810Y172297D01*
X128270Y169757D01*
Y167217D01*
Y180340D02*
X130810D01*
X133350Y182880D01*
X135890Y180340D01*
X138430D01*
Y182880D01*
X135890Y185420D01*
X138430Y187960D01*
Y190500D01*
X135890D01*
X133350Y187960D01*
X130810Y190500D01*
X128270D01*
Y187960D01*
X130810Y185420D01*
X128270Y182880D01*
Y180340D01*
Y193463D02*
X130810D01*
X133350Y196003D01*
X135890Y193463D01*
X138430D01*
Y196003D01*
X135890Y198543D01*
X138430Y201083D01*
Y203623D01*
X135890D01*
X133350Y201083D01*
X130810Y203623D01*
X128270D01*
Y201083D01*
X130810Y198543D01*
X128270Y196003D01*
Y193463D01*
Y219710D02*
X130810D01*
X133350Y222250D01*
X135890Y219710D01*
X138430D01*
Y222250D01*
X135890Y224790D01*
X138430Y227330D01*
Y229870D01*
X135890D01*
X133350Y227330D01*
X130810Y229870D01*
X128270D01*
Y227330D01*
X130810Y224790D01*
X128270Y222250D01*
Y219710D01*
Y206587D02*
X130810D01*
X133350Y209127D01*
X135890Y206587D01*
X138430D01*
Y209127D01*
X135890Y211667D01*
X138430Y214207D01*
Y216747D01*
X135890D01*
X133350Y214207D01*
X130810Y216747D01*
X128270D01*
Y214207D01*
X130810Y211667D01*
X128270Y209127D01*
Y206587D01*
Y314537D02*
X130810D01*
X133350Y317077D01*
X135890Y314537D01*
X138430D01*
Y317077D01*
X135890Y319617D01*
X138430Y322157D01*
Y324697D01*
X135890D01*
X133350Y322157D01*
X130810Y324697D01*
X128270D01*
Y322157D01*
X130810Y319617D01*
X128270Y317077D01*
Y314537D01*
X179070Y684570D02*
X181610D01*
X184150Y687110D01*
X186690Y684570D01*
X189230D01*
Y687110D01*
X186690Y689650D01*
X189230Y692190D01*
Y694730D01*
X186690D01*
X184150Y692190D01*
X181610Y694730D01*
X179070D01*
Y692190D01*
X181610Y689650D01*
X179070Y687110D01*
Y684570D01*
X177800Y718820D02*
X180340D01*
X182880Y721360D01*
X185420Y718820D01*
X187960D01*
Y721360D01*
X185420Y723900D01*
X187960Y726440D01*
Y728980D01*
X185420D01*
X182880Y726440D01*
X180340Y728980D01*
X177800D01*
Y726440D01*
X180340Y723900D01*
X177800Y721360D01*
Y718820D01*
X193040Y694690D02*
X195580D01*
X198120Y697230D01*
X200660Y694690D01*
X203200D01*
Y697230D01*
X200660Y699770D01*
X203200Y702310D01*
Y704850D01*
X200660D01*
X198120Y702310D01*
X195580Y704850D01*
X193040D01*
Y702310D01*
X195580Y699770D01*
X193040Y697230D01*
Y694690D01*
X212090Y707390D02*
X214630D01*
X217170Y709930D01*
X219710Y707390D01*
X222250D01*
Y709930D01*
X219710Y712470D01*
X222250Y715010D01*
Y717550D01*
X219710D01*
X217170Y715010D01*
X214630Y717550D01*
X212090D01*
Y715010D01*
X214630Y712470D01*
X212090Y709930D01*
Y707390D01*
X711468Y674410D02*
X714007D01*
X716547Y676950D01*
X719088Y674410D01*
X721628D01*
Y676950D01*
X719088Y679490D01*
X721628Y682030D01*
Y684570D01*
X719088D01*
X716547Y682030D01*
X714007Y684570D01*
X711468D01*
Y682030D01*
X714007Y679490D01*
X711468Y676950D01*
Y674410D01*
X173722D02*
X176262D01*
X178803Y676950D01*
X181343Y674410D01*
X183883D01*
Y676950D01*
X181343Y679490D01*
X183883Y682030D01*
Y684570D01*
X181343D01*
X178803Y682030D01*
X176262Y684570D01*
X173722D01*
Y682030D01*
X176262Y679490D01*
X173722Y676950D01*
Y674410D01*
X158845Y388481D02*
X161385D01*
X163925Y391021D01*
X166465Y388481D01*
X169005D01*
Y391021D01*
X166465Y393561D01*
X169005Y396101D01*
Y398641D01*
X166465D01*
X163925Y396101D01*
X161385Y398641D01*
X158845D01*
Y396101D01*
X161385Y393561D01*
X158845Y391021D01*
Y388481D01*
X151225Y380861D02*
X153765D01*
X156305Y383401D01*
X158845Y380861D01*
X161385D01*
Y383401D01*
X158845Y385941D01*
X161385Y388481D01*
Y391021D01*
X158845D01*
X156305Y388481D01*
X153765Y391021D01*
X151225D01*
Y388481D01*
X153765Y385941D01*
X151225Y383401D01*
Y380861D01*
X142335Y369431D02*
X144875D01*
X147415Y371971D01*
X149955Y369431D01*
X152495D01*
Y371971D01*
X149955Y374511D01*
X152495Y377051D01*
Y379591D01*
X149955D01*
X147415Y377051D01*
X144875Y379591D01*
X142335D01*
Y377051D01*
X144875Y374511D01*
X142335Y371971D01*
Y369431D01*
X152400Y410210D02*
X154940D01*
X157480Y412750D01*
X160020Y410210D01*
X162560D01*
Y412750D01*
X160020Y415290D01*
X162560Y417830D01*
Y420370D01*
X160020D01*
X157480Y417830D01*
X154940Y420370D01*
X152400D01*
Y417830D01*
X154940Y415290D01*
X152400Y412750D01*
Y410210D01*
X144780Y402590D02*
X147320D01*
X149860Y405130D01*
X152400Y402590D01*
X154940D01*
Y405130D01*
X152400Y407670D01*
X154940Y410210D01*
Y412750D01*
X152400D01*
X149860Y410210D01*
X147320Y412750D01*
X144780D01*
Y410210D01*
X147320Y407670D01*
X144780Y405130D01*
Y402590D01*
X135890Y393700D02*
X138430D01*
X140970Y396240D01*
X143510Y393700D01*
X146050D01*
Y396240D01*
X143510Y398780D01*
X146050Y401320D01*
Y403860D01*
X143510D01*
X140970Y401320D01*
X138430Y403860D01*
X135890D01*
Y401320D01*
X138430Y398780D01*
X135890Y396240D01*
Y393700D01*
X127095Y384671D02*
X129635D01*
X132175Y387211D01*
X134715Y384671D01*
X137255D01*
Y387211D01*
X134715Y389751D01*
X137255Y392291D01*
Y394831D01*
X134715D01*
X132175Y392291D01*
X129635Y394831D01*
X127095D01*
Y392291D01*
X129635Y389751D01*
X127095Y387211D01*
Y384671D01*
X118205Y377051D02*
X120745D01*
X123285Y379591D01*
X125825Y377051D01*
X128365D01*
Y379591D01*
X125825Y382131D01*
X128365Y384671D01*
Y387211D01*
X125825D01*
X123285Y384671D01*
X120745Y387211D01*
X118205D01*
Y384671D01*
X120745Y382131D01*
X118205Y379591D01*
Y377051D01*
X109315Y368161D02*
X111855D01*
X114395Y370701D01*
X116935Y368161D01*
X119475D01*
Y370701D01*
X116935Y373241D01*
X119475Y375781D01*
Y378321D01*
X116935D01*
X114395Y375781D01*
X111855Y378321D01*
X109315D01*
Y375781D01*
X111855Y373241D01*
X109315Y370701D01*
Y368161D01*
X140970Y301413D02*
X143510D01*
X146050Y303953D01*
X148590Y301413D01*
X151130D01*
Y303953D01*
X148590Y306493D01*
X151130Y309033D01*
Y311573D01*
X148590D01*
X146050Y309033D01*
X143510Y311573D01*
X140970D01*
Y309033D01*
X143510Y306493D01*
X140970Y303953D01*
Y301413D01*
Y314537D02*
X143510D01*
X146050Y317077D01*
X148590Y314537D01*
X151130D01*
Y317077D01*
X148590Y319617D01*
X151130Y322157D01*
Y324697D01*
X148590D01*
X146050Y322157D01*
X143510Y324697D01*
X140970D01*
Y322157D01*
X143510Y319617D01*
X140970Y317077D01*
Y314537D01*
Y355600D02*
X143510D01*
X146050Y358140D01*
X148590Y355600D01*
X151130D01*
Y358140D01*
X148590Y360680D01*
X151130Y363220D01*
Y365760D01*
X148590D01*
X146050Y363220D01*
X143510Y365760D01*
X140970D01*
Y363220D01*
X143510Y360680D01*
X140970Y358140D01*
Y355600D01*
Y342477D02*
X143510D01*
X146050Y345017D01*
X148590Y342477D01*
X151130D01*
Y345017D01*
X148590Y347557D01*
X151130Y350097D01*
Y352637D01*
X148590D01*
X146050Y350097D01*
X143510Y352637D01*
X140970D01*
Y350097D01*
X143510Y347557D01*
X140970Y345017D01*
Y342477D01*
Y262043D02*
X143510D01*
X146050Y264583D01*
X148590Y262043D01*
X151130D01*
Y264583D01*
X148590Y267123D01*
X151130Y269663D01*
Y272203D01*
X148590D01*
X146050Y269663D01*
X143510Y272203D01*
X140970D01*
Y269663D01*
X143510Y267123D01*
X140970Y264583D01*
Y262043D01*
Y275167D02*
X143510D01*
X146050Y277707D01*
X148590Y275167D01*
X151130D01*
Y277707D01*
X148590Y280247D01*
X151130Y282787D01*
Y285327D01*
X148590D01*
X146050Y282787D01*
X143510Y285327D01*
X140970D01*
Y282787D01*
X143510Y280247D01*
X140970Y277707D01*
Y275167D01*
Y288290D02*
X143510D01*
X146050Y290830D01*
X148590Y288290D01*
X151130D01*
Y290830D01*
X148590Y293370D01*
X151130Y295910D01*
Y298450D01*
X148590D01*
X146050Y295910D01*
X143510Y298450D01*
X140970D01*
Y295910D01*
X143510Y293370D01*
X140970Y290830D01*
Y288290D01*
Y327660D02*
X143510D01*
X146050Y330200D01*
X148590Y327660D01*
X151130D01*
Y330200D01*
X148590Y332740D01*
X151130Y335280D01*
Y337820D01*
X148590D01*
X146050Y335280D01*
X143510Y337820D01*
X140970D01*
Y335280D01*
X143510Y332740D01*
X140970Y330200D01*
Y327660D01*
X128270Y301413D02*
X130810D01*
X133350Y303953D01*
X135890Y301413D01*
X138430D01*
Y303953D01*
X135890Y306493D01*
X138430Y309033D01*
Y311573D01*
X135890D01*
X133350Y309033D01*
X130810Y311573D01*
X128270D01*
Y309033D01*
X130810Y306493D01*
X128270Y303953D01*
Y301413D01*
Y355600D02*
X130810D01*
X133350Y358140D01*
X135890Y355600D01*
X138430D01*
Y358140D01*
X135890Y360680D01*
X138430Y363220D01*
Y365760D01*
X135890D01*
X133350Y363220D01*
X130810Y365760D01*
X128270D01*
Y363220D01*
X130810Y360680D01*
X128270Y358140D01*
Y355600D01*
Y342477D02*
X130810D01*
X133350Y345017D01*
X135890Y342477D01*
X138430D01*
Y345017D01*
X135890Y347557D01*
X138430Y350097D01*
Y352637D01*
X135890D01*
X133350Y350097D01*
X130810Y352637D01*
X128270D01*
Y350097D01*
X130810Y347557D01*
X128270Y345017D01*
Y342477D01*
Y262043D02*
X130810D01*
X133350Y264583D01*
X135890Y262043D01*
X138430D01*
Y264583D01*
X135890Y267123D01*
X138430Y269663D01*
Y272203D01*
X135890D01*
X133350Y269663D01*
X130810Y272203D01*
X128270D01*
Y269663D01*
X130810Y267123D01*
X128270Y264583D01*
Y262043D01*
Y275167D02*
X130810D01*
X133350Y277707D01*
X135890Y275167D01*
X138430D01*
Y277707D01*
X135890Y280247D01*
X138430Y282787D01*
Y285327D01*
X135890D01*
X133350Y282787D01*
X130810Y285327D01*
X128270D01*
Y282787D01*
X130810Y280247D01*
X128270Y277707D01*
Y275167D01*
Y288290D02*
X130810D01*
X133350Y290830D01*
X135890Y288290D01*
X138430D01*
Y290830D01*
X135890Y293370D01*
X138430Y295910D01*
Y298450D01*
X135890D01*
X133350Y295910D01*
X130810Y298450D01*
X128270D01*
Y295910D01*
X130810Y293370D01*
X128270Y290830D01*
Y288290D01*
Y327660D02*
X130810D01*
X133350Y330200D01*
X135890Y327660D01*
X138430D01*
Y330200D01*
X135890Y332740D01*
X138430Y335280D01*
Y337820D01*
X135890D01*
X133350Y335280D01*
X130810Y337820D01*
X128270D01*
Y335280D01*
X130810Y332740D01*
X128270Y330200D01*
Y327660D01*
X102870Y301413D02*
X105410D01*
X107950Y303953D01*
X110490Y301413D01*
X113030D01*
Y303953D01*
X110490Y306493D01*
X113030Y309033D01*
Y311573D01*
X110490D01*
X107950Y309033D01*
X105410Y311573D01*
X102870D01*
Y309033D01*
X105410Y306493D01*
X102870Y303953D01*
Y301413D01*
Y314537D02*
X105410D01*
X107950Y317077D01*
X110490Y314537D01*
X113030D01*
Y317077D01*
X110490Y319617D01*
X113030Y322157D01*
Y324697D01*
X110490D01*
X107950Y322157D01*
X105410Y324697D01*
X102870D01*
Y322157D01*
X105410Y319617D01*
X102870Y317077D01*
Y314537D01*
Y355600D02*
X105410D01*
X107950Y358140D01*
X110490Y355600D01*
X113030D01*
Y358140D01*
X110490Y360680D01*
X113030Y363220D01*
Y365760D01*
X110490D01*
X107950Y363220D01*
X105410Y365760D01*
X102870D01*
Y363220D01*
X105410Y360680D01*
X102870Y358140D01*
Y355600D01*
Y342477D02*
X105410D01*
X107950Y345017D01*
X110490Y342477D01*
X113030D01*
Y345017D01*
X110490Y347557D01*
X113030Y350097D01*
Y352637D01*
X110490D01*
X107950Y350097D01*
X105410Y352637D01*
X102870D01*
Y350097D01*
X105410Y347557D01*
X102870Y345017D01*
Y342477D01*
Y262043D02*
X105410D01*
X107950Y264583D01*
X110490Y262043D01*
X113030D01*
Y264583D01*
X110490Y267123D01*
X113030Y269663D01*
Y272203D01*
X110490D01*
X107950Y269663D01*
X105410Y272203D01*
X102870D01*
Y269663D01*
X105410Y267123D01*
X102870Y264583D01*
Y262043D01*
Y275167D02*
X105410D01*
X107950Y277707D01*
X110490Y275167D01*
X113030D01*
Y277707D01*
X110490Y280247D01*
X113030Y282787D01*
Y285327D01*
X110490D01*
X107950Y282787D01*
X105410Y285327D01*
X102870D01*
Y282787D01*
X105410Y280247D01*
X102870Y277707D01*
Y275167D01*
Y288290D02*
X105410D01*
X107950Y290830D01*
X110490Y288290D01*
X113030D01*
Y290830D01*
X110490Y293370D01*
X113030Y295910D01*
Y298450D01*
X110490D01*
X107950Y295910D01*
X105410Y298450D01*
X102870D01*
Y295910D01*
X105410Y293370D01*
X102870Y290830D01*
Y288290D01*
Y327660D02*
X105410D01*
X107950Y330200D01*
X110490Y327660D01*
X113030D01*
Y330200D01*
X110490Y332740D01*
X113030Y335280D01*
Y337820D01*
X110490D01*
X107950Y335280D01*
X105410Y337820D01*
X102870D01*
Y335280D01*
X105410Y332740D01*
X102870Y330200D01*
Y327660D01*
X164097Y194443D02*
X166637D01*
X169177Y196983D01*
X171717Y194443D01*
X174257D01*
Y196983D01*
X171717Y199523D01*
X174257Y202063D01*
Y204603D01*
X171717D01*
X169177Y202063D01*
X166637Y204603D01*
X164097D01*
Y202063D01*
X166637Y199523D01*
X164097Y196983D01*
Y194443D01*
Y207566D02*
X166637D01*
X169177Y210106D01*
X171717Y207566D01*
X174257D01*
Y210106D01*
X171717Y212646D01*
X174257Y215186D01*
Y217726D01*
X171717D01*
X169177Y215186D01*
X166637Y217726D01*
X164097D01*
Y215186D01*
X166637Y212646D01*
X164097Y210106D01*
Y207566D01*
Y248629D02*
X166637D01*
X169177Y251169D01*
X171717Y248629D01*
X174257D01*
Y251169D01*
X171717Y253709D01*
X174257Y256249D01*
Y258789D01*
X171717D01*
X169177Y256249D01*
X166637Y258789D01*
X164097D01*
Y256249D01*
X166637Y253709D01*
X164097Y251169D01*
Y248629D01*
Y235506D02*
X166637D01*
X169177Y238046D01*
X171717Y235506D01*
X174257D01*
Y238046D01*
X171717Y240586D01*
X174257Y243126D01*
Y245666D01*
X171717D01*
X169177Y243126D01*
X166637Y245666D01*
X164097D01*
Y243126D01*
X166637Y240586D01*
X164097Y238046D01*
Y235506D01*
Y155073D02*
X166637D01*
X169177Y157613D01*
X171717Y155073D01*
X174257D01*
Y157613D01*
X171717Y160153D01*
X174257Y162693D01*
Y165233D01*
X171717D01*
X169177Y162693D01*
X166637Y165233D01*
X164097D01*
Y162693D01*
X166637Y160153D01*
X164097Y157613D01*
Y155073D01*
Y168196D02*
X166637D01*
X169177Y170736D01*
X171717Y168196D01*
X174257D01*
Y170736D01*
X171717Y173276D01*
X174257Y175816D01*
Y178356D01*
X171717D01*
X169177Y175816D01*
X166637Y178356D01*
X164097D01*
Y175816D01*
X166637Y173276D01*
X164097Y170736D01*
Y168196D01*
Y181319D02*
X166637D01*
X169177Y183859D01*
X171717Y181319D01*
X174257D01*
Y183859D01*
X171717Y186399D01*
X174257Y188939D01*
Y191479D01*
X171717D01*
X169177Y188939D01*
X166637Y191479D01*
X164097D01*
Y188939D01*
X166637Y186399D01*
X164097Y183859D01*
Y181319D01*
Y220689D02*
X166637D01*
X169177Y223229D01*
X171717Y220689D01*
X174257D01*
Y223229D01*
X171717Y225769D01*
X174257Y228309D01*
Y230849D01*
X171717D01*
X169177Y228309D01*
X166637Y230849D01*
X164097D01*
Y228309D01*
X166637Y225769D01*
X164097Y223229D01*
Y220689D01*
X166370Y101600D02*
X168910D01*
X171450Y104140D01*
X173990Y101600D01*
X176530D01*
Y104140D01*
X173990Y106680D01*
X176530Y109220D01*
Y111760D01*
X173990D01*
X171450Y109220D01*
X168910Y111760D01*
X166370D01*
Y109220D01*
X168910Y106680D01*
X166370Y104140D01*
Y101600D01*
X175260Y91440D02*
X177800D01*
X180340Y93980D01*
X182880Y91440D01*
X185420D01*
Y93980D01*
X182880Y96520D01*
X185420Y99060D01*
Y101600D01*
X182880D01*
X180340Y99060D01*
X177800Y101600D01*
X175260D01*
Y99060D01*
X177800Y96520D01*
X175260Y93980D01*
Y91440D01*
X184150Y82550D02*
X186690D01*
X189230Y85090D01*
X191770Y82550D01*
X194310D01*
Y85090D01*
X191770Y87630D01*
X194310Y90170D01*
Y92710D01*
X191770D01*
X189230Y90170D01*
X186690Y92710D01*
X184150D01*
Y90170D01*
X186690Y87630D01*
X184150Y85090D01*
Y82550D01*
X193040Y73660D02*
X195580D01*
X198120Y76200D01*
X200660Y73660D01*
X203200D01*
Y76200D01*
X200660Y78740D01*
X203200Y81280D01*
Y83820D01*
X200660D01*
X198120Y81280D01*
X195580Y83820D01*
X193040D01*
Y81280D01*
X195580Y78740D01*
X193040Y76200D01*
Y73660D01*
X201930Y64770D02*
X204470D01*
X207010Y67310D01*
X209550Y64770D01*
X212090D01*
Y67310D01*
X209550Y69850D01*
X212090Y72390D01*
Y74930D01*
X209550D01*
X207010Y72390D01*
X204470Y74930D01*
X201930D01*
Y72390D01*
X204470Y69850D01*
X201930Y67310D01*
Y64770D01*
X210820Y55880D02*
X213360D01*
X215900Y58420D01*
X218440Y55880D01*
X220980D01*
Y58420D01*
X218440Y60960D01*
X220980Y63500D01*
Y66040D01*
X218440D01*
X215900Y63500D01*
X213360Y66040D01*
X210820D01*
Y63500D01*
X213360Y60960D01*
X210820Y58420D01*
Y55880D01*
X140970Y127000D02*
X143510D01*
X146050Y129540D01*
X148590Y127000D01*
X151130D01*
Y129540D01*
X148590Y132080D01*
X151130Y134620D01*
Y137160D01*
X148590D01*
X146050Y134620D01*
X143510Y137160D01*
X140970D01*
Y134620D01*
X143510Y132080D01*
X140970Y129540D01*
Y127000D01*
Y219710D02*
X143510D01*
X146050Y222250D01*
X148590Y219710D01*
X151130D01*
Y222250D01*
X148590Y224790D01*
X151130Y227330D01*
Y229870D01*
X148590D01*
X146050Y227330D01*
X143510Y229870D01*
X140970D01*
Y227330D01*
X143510Y224790D01*
X140970Y222250D01*
Y219710D01*
Y180340D02*
X143510D01*
X146050Y182880D01*
X148590Y180340D01*
X151130D01*
Y182880D01*
X148590Y185420D01*
X151130Y187960D01*
Y190500D01*
X148590D01*
X146050Y187960D01*
X143510Y190500D01*
X140970D01*
Y187960D01*
X143510Y185420D01*
X140970Y182880D01*
Y180340D01*
Y167217D02*
X143510D01*
X146050Y169757D01*
X148590Y167217D01*
X151130D01*
Y169757D01*
X148590Y172297D01*
X151130Y174837D01*
Y177377D01*
X148590D01*
X146050Y174837D01*
X143510Y177377D01*
X140970D01*
Y174837D01*
X143510Y172297D01*
X140970Y169757D01*
Y167217D01*
Y154093D02*
X143510D01*
X146050Y156633D01*
X148590Y154093D01*
X151130D01*
Y156633D01*
X148590Y159173D01*
X151130Y161713D01*
Y164253D01*
X148590D01*
X146050Y161713D01*
X143510Y164253D01*
X140970D01*
Y161713D01*
X143510Y159173D01*
X140970Y156633D01*
Y154093D01*
Y140970D02*
X143510D01*
X146050Y143510D01*
X148590Y140970D01*
X151130D01*
Y143510D01*
X148590Y146050D01*
X151130Y148590D01*
Y151130D01*
X148590D01*
X146050Y148590D01*
X143510Y151130D01*
X140970D01*
Y148590D01*
X143510Y146050D01*
X140970Y143510D01*
Y140970D01*
Y234527D02*
X143510D01*
X146050Y237067D01*
X148590Y234527D01*
X151130D01*
Y237067D01*
X148590Y239607D01*
X151130Y242147D01*
Y244687D01*
X148590D01*
X146050Y242147D01*
X143510Y244687D01*
X140970D01*
Y242147D01*
X143510Y239607D01*
X140970Y237067D01*
Y234527D01*
Y247650D02*
X143510D01*
X146050Y250190D01*
X148590Y247650D01*
X151130D01*
Y250190D01*
X148590Y252730D01*
X151130Y255270D01*
Y257810D01*
X148590D01*
X146050Y255270D01*
X143510Y257810D01*
X140970D01*
Y255270D01*
X143510Y252730D01*
X140970Y250190D01*
Y247650D01*
Y206587D02*
X143510D01*
X146050Y209127D01*
X148590Y206587D01*
X151130D01*
Y209127D01*
X148590Y211667D01*
X151130Y214207D01*
Y216747D01*
X148590D01*
X146050Y214207D01*
X143510Y216747D01*
X140970D01*
Y214207D01*
X143510Y211667D01*
X140970Y209127D01*
Y206587D01*
Y193463D02*
X143510D01*
X146050Y196003D01*
X148590Y193463D01*
X151130D01*
Y196003D01*
X148590Y198543D01*
X151130Y201083D01*
Y203623D01*
X148590D01*
X146050Y201083D01*
X143510Y203623D01*
X140970D01*
Y201083D01*
X143510Y198543D01*
X140970Y196003D01*
Y193463D01*
X128270Y154093D02*
X130810D01*
X133350Y156633D01*
X135890Y154093D01*
X138430D01*
Y156633D01*
X135890Y159173D01*
X138430Y161713D01*
Y164253D01*
X135890D01*
X133350Y161713D01*
X130810Y164253D01*
X128270D01*
Y161713D01*
X130810Y159173D01*
X128270Y156633D01*
Y154093D01*
Y234527D02*
X130810D01*
X133350Y237067D01*
X135890Y234527D01*
X138430D01*
Y237067D01*
X135890Y239607D01*
X138430Y242147D01*
Y244687D01*
X135890D01*
X133350Y242147D01*
X130810Y244687D01*
X128270D01*
Y242147D01*
X130810Y239607D01*
X128270Y237067D01*
Y234527D01*
Y247650D02*
X130810D01*
X133350Y250190D01*
X135890Y247650D01*
X138430D01*
Y250190D01*
X135890Y252730D01*
X138430Y255270D01*
Y257810D01*
X135890D01*
X133350Y255270D01*
X130810Y257810D01*
X128270D01*
Y255270D01*
X130810Y252730D01*
X128270Y250190D01*
Y247650D01*
X102870Y87630D02*
X105410D01*
X107950Y90170D01*
X110490Y87630D01*
X113030D01*
Y90170D01*
X110490Y92710D01*
X113030Y95250D01*
Y97790D01*
X110490D01*
X107950Y95250D01*
X105410Y97790D01*
X102870D01*
Y95250D01*
X105410Y92710D01*
X102870Y90170D01*
Y87630D01*
Y100753D02*
X105410D01*
X107950Y103293D01*
X110490Y100753D01*
X113030D01*
Y103293D01*
X110490Y105833D01*
X113030Y108373D01*
Y110913D01*
X110490D01*
X107950Y108373D01*
X105410Y110913D01*
X102870D01*
Y108373D01*
X105410Y105833D01*
X102870Y103293D01*
Y100753D01*
Y113877D02*
X105410D01*
X107950Y116417D01*
X110490Y113877D01*
X113030D01*
Y116417D01*
X110490Y118957D01*
X113030Y121497D01*
Y124037D01*
X110490D01*
X107950Y121497D01*
X105410Y124037D01*
X102870D01*
Y121497D01*
X105410Y118957D01*
X102870Y116417D01*
Y113877D01*
Y127000D02*
X105410D01*
X107950Y129540D01*
X110490Y127000D01*
X113030D01*
Y129540D01*
X110490Y132080D01*
X113030Y134620D01*
Y137160D01*
X110490D01*
X107950Y134620D01*
X105410Y137160D01*
X102870D01*
Y134620D01*
X105410Y132080D01*
X102870Y129540D01*
Y127000D01*
Y219710D02*
X105410D01*
X107950Y222250D01*
X110490Y219710D01*
X113030D01*
Y222250D01*
X110490Y224790D01*
X113030Y227330D01*
Y229870D01*
X110490D01*
X107950Y227330D01*
X105410Y229870D01*
X102870D01*
Y227330D01*
X105410Y224790D01*
X102870Y222250D01*
Y219710D01*
Y180340D02*
X105410D01*
X107950Y182880D01*
X110490Y180340D01*
X113030D01*
Y182880D01*
X110490Y185420D01*
X113030Y187960D01*
Y190500D01*
X110490D01*
X107950Y187960D01*
X105410Y190500D01*
X102870D01*
Y187960D01*
X105410Y185420D01*
X102870Y182880D01*
Y180340D01*
Y167217D02*
X105410D01*
X107950Y169757D01*
X110490Y167217D01*
X113030D01*
Y169757D01*
X110490Y172297D01*
X113030Y174837D01*
Y177377D01*
X110490D01*
X107950Y174837D01*
X105410Y177377D01*
X102870D01*
Y174837D01*
X105410Y172297D01*
X102870Y169757D01*
Y167217D01*
Y154093D02*
X105410D01*
X107950Y156633D01*
X110490Y154093D01*
X113030D01*
Y156633D01*
X110490Y159173D01*
X113030Y161713D01*
Y164253D01*
X110490D01*
X107950Y161713D01*
X105410Y164253D01*
X102870D01*
Y161713D01*
X105410Y159173D01*
X102870Y156633D01*
Y154093D01*
Y140970D02*
X105410D01*
X107950Y143510D01*
X110490Y140970D01*
X113030D01*
Y143510D01*
X110490Y146050D01*
X113030Y148590D01*
Y151130D01*
X110490D01*
X107950Y148590D01*
X105410Y151130D01*
X102870D01*
Y148590D01*
X105410Y146050D01*
X102870Y143510D01*
Y140970D01*
Y234527D02*
X105410D01*
X107950Y237067D01*
X110490Y234527D01*
X113030D01*
Y237067D01*
X110490Y239607D01*
X113030Y242147D01*
Y244687D01*
X110490D01*
X107950Y242147D01*
X105410Y244687D01*
X102870D01*
Y242147D01*
X105410Y239607D01*
X102870Y237067D01*
Y234527D01*
Y247650D02*
X105410D01*
X107950Y250190D01*
X110490Y247650D01*
X113030D01*
Y250190D01*
X110490Y252730D01*
X113030Y255270D01*
Y257810D01*
X110490D01*
X107950Y255270D01*
X105410Y257810D01*
X102870D01*
Y255270D01*
X105410Y252730D01*
X102870Y250190D01*
Y247650D01*
Y206587D02*
X105410D01*
X107950Y209127D01*
X110490Y206587D01*
X113030D01*
Y209127D01*
X110490Y211667D01*
X113030Y214207D01*
Y216747D01*
X110490D01*
X107950Y214207D01*
X105410Y216747D01*
X102870D01*
Y214207D01*
X105410Y211667D01*
X102870Y209127D01*
Y206587D01*
Y193463D02*
X105410D01*
X107950Y196003D01*
X110490Y193463D01*
X113030D01*
Y196003D01*
X110490Y198543D01*
X113030Y201083D01*
Y203623D01*
X110490D01*
X107950Y201083D01*
X105410Y203623D01*
X102870D01*
Y201083D01*
X105410Y198543D01*
X102870Y196003D01*
Y193463D01*
X981848Y157741D02*
X984388D01*
X986928Y160282D01*
X989468Y157741D01*
X992008D01*
Y160282D01*
X989468Y162822D01*
X992008Y165361D01*
Y167901D01*
X989468D01*
X986928Y165361D01*
X984388Y167901D01*
X981848D01*
Y165361D01*
X984388Y162822D01*
X981848Y160282D01*
Y157741D01*
X974228Y150121D02*
X976768D01*
X979308Y152662D01*
X981848Y150121D01*
X984388D01*
Y152662D01*
X981848Y155202D01*
X984388Y157741D01*
Y160282D01*
X981848D01*
X979308Y157741D01*
X976768Y160282D01*
X974228D01*
Y157741D01*
X976768Y155202D01*
X974228Y152662D01*
Y150121D01*
X966608Y142501D02*
X969148D01*
X971688Y145042D01*
X974228Y142501D01*
X976768D01*
Y145042D01*
X974228Y147582D01*
X976768Y150121D01*
Y152662D01*
X974228D01*
X971688Y150121D01*
X969148Y152662D01*
X966608D01*
Y150121D01*
X969148Y147582D01*
X966608Y145042D01*
Y142501D01*
X958988Y134881D02*
X961528D01*
X964068Y137422D01*
X966608Y134881D01*
X969148D01*
Y137422D01*
X966608Y139962D01*
X969148Y142501D01*
Y145042D01*
X966608D01*
X964068Y142501D01*
X961528Y145042D01*
X958988D01*
Y142501D01*
X961528Y139962D01*
X958988Y137422D01*
Y134881D01*
X951368Y127261D02*
X953908D01*
X956448Y129802D01*
X958988Y127261D01*
X961528D01*
Y129802D01*
X958988Y132341D01*
X961528Y134881D01*
Y137422D01*
X958988D01*
X956448Y134881D01*
X953908Y137422D01*
X951368D01*
Y134881D01*
X953908Y132341D01*
X951368Y129802D01*
Y127261D01*
X943748Y119642D02*
X946288D01*
X948828Y122182D01*
X951368Y119642D01*
X953908D01*
Y122182D01*
X951368Y124721D01*
X953908Y127261D01*
Y129802D01*
X951368D01*
X948828Y127261D01*
X946288Y129802D01*
X943748D01*
Y127261D01*
X946288Y124721D01*
X943748Y122182D01*
Y119642D01*
X934858Y110751D02*
X937398D01*
X939938Y113292D01*
X942478Y110751D01*
X945018D01*
Y113292D01*
X942478Y115831D01*
X945018Y118371D01*
Y120912D01*
X942478D01*
X939938Y118371D01*
X937398Y120912D01*
X934858D01*
Y118371D01*
X937398Y115831D01*
X934858Y113292D01*
Y110751D01*
X925968Y101861D02*
X928508D01*
X931048Y104402D01*
X933588Y101861D01*
X936128D01*
Y104402D01*
X933588Y106941D01*
X936128Y109481D01*
Y112022D01*
X933588D01*
X931048Y109481D01*
X928508Y112022D01*
X925968D01*
Y109481D01*
X928508Y106941D01*
X925968Y104402D01*
Y101861D01*
X909458Y85351D02*
X911998D01*
X914538Y87892D01*
X917078Y85351D01*
X919618D01*
Y87892D01*
X917078Y90431D01*
X919618Y92971D01*
Y95512D01*
X917078D01*
X914538Y92971D01*
X911998Y95512D01*
X909458D01*
Y92971D01*
X911998Y90431D01*
X909458Y87892D01*
Y85351D01*
X939800Y83820D02*
X942340D01*
X944880Y86360D01*
X947420Y83820D01*
X949960D01*
Y86360D01*
X947420Y88900D01*
X949960Y91440D01*
Y93980D01*
X947420D01*
X944880Y91440D01*
X942340Y93980D01*
X939800D01*
Y91440D01*
X942340Y88900D01*
X939800Y86360D01*
Y83820D01*
X947420Y91440D02*
X949960D01*
X952500Y93980D01*
X955040Y91440D01*
X957580D01*
Y93980D01*
X955040Y96520D01*
X957580Y99060D01*
Y101600D01*
X955040D01*
X952500Y99060D01*
X949960Y101600D01*
X947420D01*
Y99060D01*
X949960Y96520D01*
X947420Y93980D01*
Y91440D01*
X956310Y100330D02*
X958850D01*
X961390Y102870D01*
X963930Y100330D01*
X966470D01*
Y102870D01*
X963930Y105410D01*
X966470Y107950D01*
Y110490D01*
X963930D01*
X961390Y107950D01*
X958850Y110490D01*
X956310D01*
Y107950D01*
X958850Y105410D01*
X956310Y102870D01*
Y100330D01*
X965200Y109220D02*
X967740D01*
X970280Y111760D01*
X972820Y109220D01*
X975360D01*
Y111760D01*
X972820Y114300D01*
X975360Y116840D01*
Y119380D01*
X972820D01*
X970280Y116840D01*
X967740Y119380D01*
X965200D01*
Y116840D01*
X967740Y114300D01*
X965200Y111760D01*
Y109220D01*
X972820Y116840D02*
X975360D01*
X977900Y119380D01*
X980440Y116840D01*
X982980D01*
Y119380D01*
X980440Y121920D01*
X982980Y124460D01*
Y127000D01*
X980440D01*
X977900Y124460D01*
X975360Y127000D01*
X972820D01*
Y124460D01*
X975360Y121920D01*
X972820Y119380D01*
Y116840D01*
X980440Y124460D02*
X982980D01*
X985520Y127000D01*
X988060Y124460D01*
X990600D01*
Y127000D01*
X988060Y129540D01*
X990600Y132080D01*
Y134620D01*
X988060D01*
X985520Y132080D01*
X982980Y134620D01*
X980440D01*
Y132080D01*
X982980Y129540D01*
X980440Y127000D01*
Y124460D01*
X988060Y132080D02*
X990600D01*
X993140Y134620D01*
X995680Y132080D01*
X998220D01*
Y134620D01*
X995680Y137160D01*
X998220Y139700D01*
Y142240D01*
X995680D01*
X993140Y139700D01*
X990600Y142240D01*
X988060D01*
Y139700D01*
X990600Y137160D01*
X988060Y134620D01*
Y132080D01*
X995680Y139700D02*
X998220D01*
X1000760Y142240D01*
X1003300Y139700D01*
X1005840D01*
Y142240D01*
X1003300Y144780D01*
X1005840Y147320D01*
Y149860D01*
X1003300D01*
X1000760Y147320D01*
X998220Y149860D01*
X995680D01*
Y147320D01*
X998220Y144780D01*
X995680Y142240D01*
Y139700D01*
X1003300Y147320D02*
X1005840D01*
X1008380Y149860D01*
X1010920Y147320D01*
X1013460D01*
Y149860D01*
X1010920Y152400D01*
X1013460Y154940D01*
Y157480D01*
X1010920D01*
X1008380Y154940D01*
X1005840Y157480D01*
X1003300D01*
Y154940D01*
X1005840Y152400D01*
X1003300Y149860D01*
Y147320D01*
X1009650Y154940D02*
X1012190D01*
X1014730Y157480D01*
X1017270Y154940D01*
X1019810D01*
Y157480D01*
X1017270Y160020D01*
X1019810Y162560D01*
Y165100D01*
X1017270D01*
X1014730Y162560D01*
X1012190Y165100D01*
X1009650D01*
Y162560D01*
X1012190Y160020D01*
X1009650Y157480D01*
Y154940D01*
X994410Y217504D02*
X996950D01*
X999490Y220044D01*
X1002030Y217504D01*
X1004570D01*
Y220044D01*
X1002030Y222584D01*
X1004570Y225124D01*
Y227664D01*
X1002030D01*
X999490Y225124D01*
X996950Y227664D01*
X994410D01*
Y225124D01*
X996950Y222584D01*
X994410Y220044D01*
Y217504D01*
Y178402D02*
X996950D01*
X999490Y180942D01*
X1002030Y178402D01*
X1004570D01*
Y180942D01*
X1002030Y183482D01*
X1004570Y186022D01*
Y188562D01*
X1002030D01*
X999490Y186022D01*
X996950Y188562D01*
X994410D01*
Y186022D01*
X996950Y183482D01*
X994410Y180942D01*
Y178402D01*
X991870Y165100D02*
X994410D01*
X996950Y167640D01*
X999490Y165100D01*
X1002030D01*
Y167640D01*
X999490Y170180D01*
X1002030Y172720D01*
Y175260D01*
X999490D01*
X996950Y172720D01*
X994410Y175260D01*
X991870D01*
Y172720D01*
X994410Y170180D01*
X991870Y167640D01*
Y165100D01*
X994410Y230538D02*
X996950D01*
X999490Y233078D01*
X1002030Y230538D01*
X1004570D01*
Y233078D01*
X1002030Y235618D01*
X1004570Y238158D01*
Y240698D01*
X1002030D01*
X999490Y238158D01*
X996950Y240698D01*
X994410D01*
Y238158D01*
X996950Y235618D01*
X994410Y233078D01*
Y230538D01*
Y243573D02*
X996950D01*
X999490Y246113D01*
X1002030Y243573D01*
X1004570D01*
Y246113D01*
X1002030Y248653D01*
X1004570Y251193D01*
Y253733D01*
X1002030D01*
X999490Y251193D01*
X996950Y253733D01*
X994410D01*
Y251193D01*
X996950Y248653D01*
X994410Y246113D01*
Y243573D01*
Y204470D02*
X996950D01*
X999490Y207010D01*
X1002030Y204470D01*
X1004570D01*
Y207010D01*
X1002030Y209550D01*
X1004570Y212090D01*
Y214630D01*
X1002030D01*
X999490Y212090D01*
X996950Y214630D01*
X994410D01*
Y212090D01*
X996950Y209550D01*
X994410Y207010D01*
Y204470D01*
Y190500D02*
X996950D01*
X999490Y193040D01*
X1002030Y190500D01*
X1004570D01*
Y193040D01*
X1002030Y195580D01*
X1004570Y198120D01*
Y200660D01*
X1002030D01*
X999490Y198120D01*
X996950Y200660D01*
X994410D01*
Y198120D01*
X996950Y195580D01*
X994410Y193040D01*
Y190500D01*
Y256607D02*
X996950D01*
X999490Y259147D01*
X1002030Y256607D01*
X1004570D01*
Y259147D01*
X1002030Y261687D01*
X1004570Y264227D01*
Y266767D01*
X1002030D01*
X999490Y264227D01*
X996950Y266767D01*
X994410D01*
Y264227D01*
X996950Y261687D01*
X994410Y259147D01*
Y256607D01*
Y269641D02*
X996950D01*
X999490Y272181D01*
X1002030Y269641D01*
X1004570D01*
Y272181D01*
X1002030Y274721D01*
X1004570Y277261D01*
Y279801D01*
X1002030D01*
X999490Y277261D01*
X996950Y279801D01*
X994410D01*
Y277261D01*
X996950Y274721D01*
X994410Y272181D01*
Y269641D01*
Y282675D02*
X996950D01*
X999490Y285215D01*
X1002030Y282675D01*
X1004570D01*
Y285215D01*
X1002030Y287755D01*
X1004570Y290295D01*
Y292835D01*
X1002030D01*
X999490Y290295D01*
X996950Y292835D01*
X994410D01*
Y290295D01*
X996950Y287755D01*
X994410Y285215D01*
Y282675D01*
Y293370D02*
X996950D01*
X999490Y295910D01*
X1002030Y293370D01*
X1004570D01*
Y295910D01*
X1002030Y298450D01*
X1004570Y300990D01*
Y303530D01*
X1002030D01*
X999490Y300990D01*
X996950Y303530D01*
X994410D01*
Y300990D01*
X996950Y298450D01*
X994410Y295910D01*
Y293370D01*
X1014730Y293570D02*
X1017270D01*
X1019810Y296110D01*
X1022350Y293570D01*
X1024890D01*
Y296110D01*
X1022350Y298650D01*
X1024890Y301190D01*
Y303730D01*
X1022350D01*
X1019810Y301190D01*
X1017270Y303730D01*
X1014730D01*
Y301190D01*
X1017270Y298650D01*
X1014730Y296110D01*
Y293570D01*
Y282875D02*
X1017270D01*
X1019810Y285415D01*
X1022350Y282875D01*
X1024890D01*
Y285415D01*
X1022350Y287955D01*
X1024890Y290495D01*
Y293035D01*
X1022350D01*
X1019810Y290495D01*
X1017270Y293035D01*
X1014730D01*
Y290495D01*
X1017270Y287955D01*
X1014730Y285415D01*
Y282875D01*
Y269841D02*
X1017270D01*
X1019810Y272381D01*
X1022350Y269841D01*
X1024890D01*
Y272381D01*
X1022350Y274921D01*
X1024890Y277461D01*
Y280001D01*
X1022350D01*
X1019810Y277461D01*
X1017270Y280001D01*
X1014730D01*
Y277461D01*
X1017270Y274921D01*
X1014730Y272381D01*
Y269841D01*
Y256807D02*
X1017270D01*
X1019810Y259347D01*
X1022350Y256807D01*
X1024890D01*
Y259347D01*
X1022350Y261887D01*
X1024890Y264427D01*
Y266967D01*
X1022350D01*
X1019810Y264427D01*
X1017270Y266967D01*
X1014730D01*
Y264427D01*
X1017270Y261887D01*
X1014730Y259347D01*
Y256807D01*
Y190500D02*
X1017270D01*
X1019810Y193040D01*
X1022350Y190500D01*
X1024890D01*
Y193040D01*
X1022350Y195580D01*
X1024890Y198120D01*
Y200660D01*
X1022350D01*
X1019810Y198120D01*
X1017270Y200660D01*
X1014730D01*
Y198120D01*
X1017270Y195580D01*
X1014730Y193040D01*
Y190500D01*
Y204670D02*
X1017270D01*
X1019810Y207210D01*
X1022350Y204670D01*
X1024890D01*
Y207210D01*
X1022350Y209750D01*
X1024890Y212290D01*
Y214830D01*
X1022350D01*
X1019810Y212290D01*
X1017270Y214830D01*
X1014730D01*
Y212290D01*
X1017270Y209750D01*
X1014730Y207210D01*
Y204670D01*
Y243773D02*
X1017270D01*
X1019810Y246313D01*
X1022350Y243773D01*
X1024890D01*
Y246313D01*
X1022350Y248853D01*
X1024890Y251393D01*
Y253933D01*
X1022350D01*
X1019810Y251393D01*
X1017270Y253933D01*
X1014730D01*
Y251393D01*
X1017270Y248853D01*
X1014730Y246313D01*
Y243773D01*
Y230739D02*
X1017270D01*
X1019810Y233279D01*
X1022350Y230739D01*
X1024890D01*
Y233279D01*
X1022350Y235819D01*
X1024890Y238359D01*
Y240899D01*
X1022350D01*
X1019810Y238359D01*
X1017270Y240899D01*
X1014730D01*
Y238359D01*
X1017270Y235819D01*
X1014730Y233279D01*
Y230739D01*
Y165568D02*
X1017270D01*
X1019810Y168108D01*
X1022350Y165568D01*
X1024890D01*
Y168108D01*
X1022350Y170648D01*
X1024890Y173188D01*
Y175728D01*
X1022350D01*
X1019810Y173188D01*
X1017270Y175728D01*
X1014730D01*
Y173188D01*
X1017270Y170648D01*
X1014730Y168108D01*
Y165568D01*
Y178602D02*
X1017270D01*
X1019810Y181142D01*
X1022350Y178602D01*
X1024890D01*
Y181142D01*
X1022350Y183682D01*
X1024890Y186222D01*
Y188762D01*
X1022350D01*
X1019810Y186222D01*
X1017270Y188762D01*
X1014730D01*
Y186222D01*
X1017270Y183682D01*
X1014730Y181142D01*
Y178602D01*
Y217704D02*
X1017270D01*
X1019810Y220244D01*
X1022350Y217704D01*
X1024890D01*
Y220244D01*
X1022350Y222784D01*
X1024890Y225324D01*
Y227864D01*
X1022350D01*
X1019810Y225324D01*
X1017270Y227864D01*
X1014730D01*
Y225324D01*
X1017270Y222784D01*
X1014730Y220244D01*
Y217704D01*
X993140Y312420D02*
X995680D01*
X998220Y314960D01*
X1000760Y312420D01*
X1003300D01*
Y314960D01*
X1000760Y317500D01*
X1003300Y320040D01*
Y322580D01*
X1000760D01*
X998220Y320040D01*
X995680Y322580D01*
X993140D01*
Y320040D01*
X995680Y317500D01*
X993140Y314960D01*
Y312420D01*
X1014730D02*
X1017270D01*
X1019810Y314960D01*
X1022350Y312420D01*
X1024890D01*
Y314960D01*
X1022350Y317500D01*
X1024890Y320040D01*
Y322580D01*
X1022350D01*
X1019810Y320040D01*
X1017270Y322580D01*
X1014730D01*
Y320040D01*
X1017270Y317500D01*
X1014730Y314960D01*
Y312420D01*
X1007110Y335280D02*
X1009650D01*
X1012190Y337820D01*
X1014730Y335280D01*
X1017270D01*
Y337820D01*
X1014730Y340360D01*
X1017270Y342900D01*
Y345440D01*
X1014730D01*
X1012190Y342900D01*
X1009650Y345440D01*
X1007110D01*
Y342900D01*
X1009650Y340360D01*
X1007110Y337820D01*
Y335280D01*
X999490Y342900D02*
X1002030D01*
X1004570Y345440D01*
X1007110Y342900D01*
X1009650D01*
Y345440D01*
X1007110Y347980D01*
X1009650Y350520D01*
Y353060D01*
X1007110D01*
X1004570Y350520D01*
X1002030Y353060D01*
X999490D01*
Y350520D01*
X1002030Y347980D01*
X999490Y345440D01*
Y342900D01*
X1037590Y100197D02*
X1040130D01*
X1042670Y102737D01*
X1045210Y100197D01*
X1047750D01*
Y102737D01*
X1045210Y105276D01*
X1047750Y107816D01*
Y110357D01*
X1045210D01*
X1042670Y107816D01*
X1040130Y110357D01*
X1037590D01*
Y107816D01*
X1040130Y105276D01*
X1037590Y102737D01*
Y100197D01*
Y113231D02*
X1040130D01*
X1042670Y115771D01*
X1045210Y113231D01*
X1047750D01*
Y115771D01*
X1045210Y118311D01*
X1047750Y120851D01*
Y123391D01*
X1045210D01*
X1042670Y120851D01*
X1040130Y123391D01*
X1037590D01*
Y120851D01*
X1040130Y118311D01*
X1037590Y115771D01*
Y113231D01*
Y217504D02*
X1040130D01*
X1042670Y220044D01*
X1045210Y217504D01*
X1047750D01*
Y220044D01*
X1045210Y222584D01*
X1047750Y225124D01*
Y227664D01*
X1045210D01*
X1042670Y225124D01*
X1040130Y227664D01*
X1037590D01*
Y225124D01*
X1040130Y222584D01*
X1037590Y220044D01*
Y217504D01*
Y165367D02*
X1040130D01*
X1042670Y167907D01*
X1045210Y165367D01*
X1047750D01*
Y167907D01*
X1045210Y170447D01*
X1047750Y172987D01*
Y175527D01*
X1045210D01*
X1042670Y172987D01*
X1040130Y175527D01*
X1037590D01*
Y172987D01*
X1040130Y170447D01*
X1037590Y167907D01*
Y165367D01*
Y139299D02*
X1040130D01*
X1042670Y141839D01*
X1045210Y139299D01*
X1047750D01*
Y141839D01*
X1045210Y144379D01*
X1047750Y146919D01*
Y149459D01*
X1045210D01*
X1042670Y146919D01*
X1040130Y149459D01*
X1037590D01*
Y146919D01*
X1040130Y144379D01*
X1037590Y141839D01*
Y139299D01*
Y230538D02*
X1040130D01*
X1042670Y233078D01*
X1045210Y230538D01*
X1047750D01*
Y233078D01*
X1045210Y235618D01*
X1047750Y238158D01*
Y240698D01*
X1045210D01*
X1042670Y238158D01*
X1040130Y240698D01*
X1037590D01*
Y238158D01*
X1040130Y235618D01*
X1037590Y233078D01*
Y230538D01*
Y243573D02*
X1040130D01*
X1042670Y246113D01*
X1045210Y243573D01*
X1047750D01*
Y246113D01*
X1045210Y248653D01*
X1047750Y251193D01*
Y253733D01*
X1045210D01*
X1042670Y251193D01*
X1040130Y253733D01*
X1037590D01*
Y251193D01*
X1040130Y248653D01*
X1037590Y246113D01*
Y243573D01*
Y204470D02*
X1040130D01*
X1042670Y207010D01*
X1045210Y204470D01*
X1047750D01*
Y207010D01*
X1045210Y209550D01*
X1047750Y212090D01*
Y214630D01*
X1045210D01*
X1042670Y212090D01*
X1040130Y214630D01*
X1037590D01*
Y212090D01*
X1040130Y209550D01*
X1037590Y207010D01*
Y204470D01*
Y190500D02*
X1040130D01*
X1042670Y193040D01*
X1045210Y190500D01*
X1047750D01*
Y193040D01*
X1045210Y195580D01*
X1047750Y198120D01*
Y200660D01*
X1045210D01*
X1042670Y198120D01*
X1040130Y200660D01*
X1037590D01*
Y198120D01*
X1040130Y195580D01*
X1037590Y193040D01*
Y190500D01*
X1060450D02*
X1062990D01*
X1065530Y193040D01*
X1068070Y190500D01*
X1070610D01*
Y193040D01*
X1068070Y195580D01*
X1070610Y198120D01*
Y200660D01*
X1068070D01*
X1065530Y198120D01*
X1062990Y200660D01*
X1060450D01*
Y198120D01*
X1062990Y195580D01*
X1060450Y193040D01*
Y190500D01*
Y204047D02*
X1062990D01*
X1065530Y206587D01*
X1068070Y204047D01*
X1070610D01*
Y206587D01*
X1068070Y209127D01*
X1070610Y211667D01*
Y214207D01*
X1068070D01*
X1065530Y211667D01*
X1062990Y214207D01*
X1060450D01*
Y211667D01*
X1062990Y209127D01*
X1060450Y206587D01*
Y204047D01*
X1037590Y256607D02*
X1040130D01*
X1042670Y259147D01*
X1045210Y256607D01*
X1047750D01*
Y259147D01*
X1045210Y261687D01*
X1047750Y264227D01*
Y266767D01*
X1045210D01*
X1042670Y264227D01*
X1040130Y266767D01*
X1037590D01*
Y264227D01*
X1040130Y261687D01*
X1037590Y259147D01*
Y256607D01*
Y269641D02*
X1040130D01*
X1042670Y272181D01*
X1045210Y269641D01*
X1047750D01*
Y272181D01*
X1045210Y274721D01*
X1047750Y277261D01*
Y279801D01*
X1045210D01*
X1042670Y277261D01*
X1040130Y279801D01*
X1037590D01*
Y277261D01*
X1040130Y274721D01*
X1037590Y272181D01*
Y269641D01*
Y282675D02*
X1040130D01*
X1042670Y285215D01*
X1045210Y282675D01*
X1047750D01*
Y285215D01*
X1045210Y287755D01*
X1047750Y290295D01*
Y292835D01*
X1045210D01*
X1042670Y290295D01*
X1040130Y292835D01*
X1037590D01*
Y290295D01*
X1040130Y287755D01*
X1037590Y285215D01*
Y282675D01*
Y293370D02*
X1040130D01*
X1042670Y295910D01*
X1045210Y293370D01*
X1047750D01*
Y295910D01*
X1045210Y298450D01*
X1047750Y300990D01*
Y303530D01*
X1045210D01*
X1042670Y300990D01*
X1040130Y303530D01*
X1037590D01*
Y300990D01*
X1040130Y298450D01*
X1037590Y295910D01*
Y293370D01*
Y312420D02*
X1040130D01*
X1042670Y314960D01*
X1045210Y312420D01*
X1047750D01*
Y314960D01*
X1045210Y317500D01*
X1047750Y320040D01*
Y322580D01*
X1045210D01*
X1042670Y320040D01*
X1040130Y322580D01*
X1037590D01*
Y320040D01*
X1040130Y317500D01*
X1037590Y314960D01*
Y312420D01*
X1023620Y334010D02*
X1026160D01*
X1028700Y336550D01*
X1031240Y334010D01*
X1033780D01*
Y336550D01*
X1031240Y339090D01*
X1033780Y341630D01*
Y344170D01*
X1031240D01*
X1028700Y341630D01*
X1026160Y344170D01*
X1023620D01*
Y341630D01*
X1026160Y339090D01*
X1023620Y336550D01*
Y334010D01*
X1014730Y341630D02*
X1017270D01*
X1019810Y344170D01*
X1022350Y341630D01*
X1024890D01*
Y344170D01*
X1022350Y346710D01*
X1024890Y349250D01*
Y351790D01*
X1022350D01*
X1019810Y349250D01*
X1017270Y351790D01*
X1014730D01*
Y349250D01*
X1017270Y346710D01*
X1014730Y344170D01*
Y341630D01*
X998220Y358140D02*
X1000760D01*
X1003300Y360680D01*
X1005840Y358140D01*
X1008380D01*
Y360680D01*
X1005840Y363220D01*
X1008380Y365760D01*
Y368300D01*
X1005840D01*
X1003300Y365760D01*
X1000760Y368300D01*
X998220D01*
Y365760D01*
X1000760Y363220D01*
X998220Y360680D01*
Y358140D01*
X990600Y365760D02*
X993140D01*
X995680Y368300D01*
X998220Y365760D01*
X1000760D01*
Y368300D01*
X998220Y370840D01*
X1000760Y373380D01*
Y375920D01*
X998220D01*
X995680Y373380D01*
X993140Y375920D01*
X990600D01*
Y373380D01*
X993140Y370840D01*
X990600Y368300D01*
Y365760D01*
X994410Y393700D02*
X996950D01*
X999490Y396240D01*
X1002030Y393700D01*
X1004570D01*
Y396240D01*
X1002030Y398780D01*
X1004570Y401320D01*
Y403860D01*
X1002030D01*
X999490Y401320D01*
X996950Y403860D01*
X994410D01*
Y401320D01*
X996950Y398780D01*
X994410Y396240D01*
Y393700D01*
X1003300Y387350D02*
X1005840D01*
X1008380Y389890D01*
X1010920Y387350D01*
X1013460D01*
Y389890D01*
X1010920Y392430D01*
X1013460Y394970D01*
Y397510D01*
X1010920D01*
X1008380Y394970D01*
X1005840Y397510D01*
X1003300D01*
Y394970D01*
X1005840Y392430D01*
X1003300Y389890D01*
Y387350D01*
X1021080Y370840D02*
X1023620D01*
X1026160Y373380D01*
X1028700Y370840D01*
X1031240D01*
Y373380D01*
X1028700Y375920D01*
X1031240Y378460D01*
Y381000D01*
X1028700D01*
X1026160Y378460D01*
X1023620Y381000D01*
X1021080D01*
Y378460D01*
X1023620Y375920D01*
X1021080Y373380D01*
Y370840D01*
X1029970Y360680D02*
X1032510D01*
X1035050Y363220D01*
X1037590Y360680D01*
X1040130D01*
Y363220D01*
X1037590Y365760D01*
X1040130Y368300D01*
Y370840D01*
X1037590D01*
X1035050Y368300D01*
X1032510Y370840D01*
X1029970D01*
Y368300D01*
X1032510Y365760D01*
X1029970Y363220D01*
Y360680D01*
X1045210Y342900D02*
X1047750D01*
X1050290Y345440D01*
X1052830Y342900D01*
X1055370D01*
Y345440D01*
X1052830Y347980D01*
X1055370Y350520D01*
Y353060D01*
X1052830D01*
X1050290Y350520D01*
X1047750Y353060D01*
X1045210D01*
Y350520D01*
X1047750Y347980D01*
X1045210Y345440D01*
Y342900D01*
X1060450Y293370D02*
X1062990D01*
X1065530Y295910D01*
X1068070Y293370D01*
X1070610D01*
Y295910D01*
X1068070Y298450D01*
X1070610Y300990D01*
Y303530D01*
X1068070D01*
X1065530Y300990D01*
X1062990Y303530D01*
X1060450D01*
Y300990D01*
X1062990Y298450D01*
X1060450Y295910D01*
Y293370D01*
Y280247D02*
X1062990D01*
X1065530Y282787D01*
X1068070Y280247D01*
X1070610D01*
Y282787D01*
X1068070Y285327D01*
X1070610Y287867D01*
Y290407D01*
X1068070D01*
X1065530Y287867D01*
X1062990Y290407D01*
X1060450D01*
Y287867D01*
X1062990Y285327D01*
X1060450Y282787D01*
Y280247D01*
Y308187D02*
X1062990D01*
X1065530Y310727D01*
X1068070Y308187D01*
X1070610D01*
Y310727D01*
X1068070Y313267D01*
X1070610Y315807D01*
Y318347D01*
X1068070D01*
X1065530Y315807D01*
X1062990Y318347D01*
X1060450D01*
Y315807D01*
X1062990Y313267D01*
X1060450Y310727D01*
Y308187D01*
Y321310D02*
X1062990D01*
X1065530Y323850D01*
X1068070Y321310D01*
X1070610D01*
Y323850D01*
X1068070Y326390D01*
X1070610Y328930D01*
Y331470D01*
X1068070D01*
X1065530Y328930D01*
X1062990Y331470D01*
X1060450D01*
Y328930D01*
X1062990Y326390D01*
X1060450Y323850D01*
Y321310D01*
Y245110D02*
X1062990D01*
X1065530Y247650D01*
X1068070Y245110D01*
X1070610D01*
Y247650D01*
X1068070Y250190D01*
X1070610Y252730D01*
Y255270D01*
X1068070D01*
X1065530Y252730D01*
X1062990Y255270D01*
X1060450D01*
Y252730D01*
X1062990Y250190D01*
X1060450Y247650D01*
Y245110D01*
Y231987D02*
X1062990D01*
X1065530Y234527D01*
X1068070Y231987D01*
X1070610D01*
Y234527D01*
X1068070Y237067D01*
X1070610Y239607D01*
Y242147D01*
X1068070D01*
X1065530Y239607D01*
X1062990Y242147D01*
X1060450D01*
Y239607D01*
X1062990Y237067D01*
X1060450Y234527D01*
Y231987D01*
Y138430D02*
X1062990D01*
X1065530Y140970D01*
X1068070Y138430D01*
X1070610D01*
Y140970D01*
X1068070Y143510D01*
X1070610Y146050D01*
Y148590D01*
X1068070D01*
X1065530Y146050D01*
X1062990Y148590D01*
X1060450D01*
Y146050D01*
X1062990Y143510D01*
X1060450Y140970D01*
Y138430D01*
Y151553D02*
X1062990D01*
X1065530Y154093D01*
X1068070Y151553D01*
X1070610D01*
Y154093D01*
X1068070Y156633D01*
X1070610Y159173D01*
Y161713D01*
X1068070D01*
X1065530Y159173D01*
X1062990Y161713D01*
X1060450D01*
Y159173D01*
X1062990Y156633D01*
X1060450Y154093D01*
Y151553D01*
Y164677D02*
X1062990D01*
X1065530Y167217D01*
X1068070Y164677D01*
X1070610D01*
Y167217D01*
X1068070Y169757D01*
X1070610Y172297D01*
Y174837D01*
X1068070D01*
X1065530Y172297D01*
X1062990Y174837D01*
X1060450D01*
Y172297D01*
X1062990Y169757D01*
X1060450Y167217D01*
Y164677D01*
Y177800D02*
X1062990D01*
X1065530Y180340D01*
X1068070Y177800D01*
X1070610D01*
Y180340D01*
X1068070Y182880D01*
X1070610Y185420D01*
Y187960D01*
X1068070D01*
X1065530Y185420D01*
X1062990Y187960D01*
X1060450D01*
Y185420D01*
X1062990Y182880D01*
X1060450Y180340D01*
Y177800D01*
Y217170D02*
X1062990D01*
X1065530Y219710D01*
X1068070Y217170D01*
X1070610D01*
Y219710D01*
X1068070Y222250D01*
X1070610Y224790D01*
Y227330D01*
X1068070D01*
X1065530Y224790D01*
X1062990Y227330D01*
X1060450D01*
Y224790D01*
X1062990Y222250D01*
X1060450Y219710D01*
Y217170D01*
Y124460D02*
X1062990D01*
X1065530Y127000D01*
X1068070Y124460D01*
X1070610D01*
Y127000D01*
X1068070Y129540D01*
X1070610Y132080D01*
Y134620D01*
X1068070D01*
X1065530Y132080D01*
X1062990Y134620D01*
X1060450D01*
Y132080D01*
X1062990Y129540D01*
X1060450Y127000D01*
Y124460D01*
Y111337D02*
X1062990D01*
X1065530Y113877D01*
X1068070Y111337D01*
X1070610D01*
Y113877D01*
X1068070Y116417D01*
X1070610Y118957D01*
Y121497D01*
X1068070D01*
X1065530Y118957D01*
X1062990Y121497D01*
X1060450D01*
Y118957D01*
X1062990Y116417D01*
X1060450Y113877D01*
Y111337D01*
Y98213D02*
X1062990D01*
X1065530Y100753D01*
X1068070Y98213D01*
X1070610D01*
Y100753D01*
X1068070Y103293D01*
X1070610Y105833D01*
Y108373D01*
X1068070D01*
X1065530Y105833D01*
X1062990Y108373D01*
X1060450D01*
Y105833D01*
X1062990Y103293D01*
X1060450Y100753D01*
Y98213D01*
Y85090D02*
X1062990D01*
X1065530Y87630D01*
X1068070Y85090D01*
X1070610D01*
Y87630D01*
X1068070Y90170D01*
X1070610Y92710D01*
Y95250D01*
X1068070D01*
X1065530Y92710D01*
X1062990Y95250D01*
X1060450D01*
Y92710D01*
X1062990Y90170D01*
X1060450Y87630D01*
Y85090D01*
X266700Y157480D02*
X269240D01*
X271780Y160020D01*
X274320Y157480D01*
X276860D01*
Y160020D01*
X274320Y162560D01*
X276860Y165100D01*
Y167640D01*
X274320D01*
X271780Y165100D01*
X269240Y167640D01*
X266700D01*
Y165100D01*
X269240Y162560D01*
X266700Y160020D01*
Y157480D01*
X687590Y518910D02*
X690130D01*
X692670Y521450D01*
X695210Y518910D01*
X697750D01*
Y521450D01*
X695210Y523990D01*
X697750Y526530D01*
Y529070D01*
X695210D01*
X692670Y526530D01*
X690130Y529070D01*
X687590D01*
Y526530D01*
X690130Y523990D01*
X687590Y521450D01*
Y518910D01*
X447311Y520429D02*
X449851D01*
X452391Y522969D01*
X454931Y520429D01*
X457471D01*
Y522969D01*
X454931Y525509D01*
X457471Y528049D01*
Y530589D01*
X454931D01*
X452391Y528049D01*
X449851Y530589D01*
X447311D01*
Y528049D01*
X449851Y525509D01*
X447311Y522969D01*
Y520429D01*
X414729Y239469D02*
X417269D01*
X419809Y242009D01*
X422349Y239469D01*
X424889D01*
Y242009D01*
X422349Y244549D01*
X424889Y247089D01*
Y249629D01*
X422349D01*
X419809Y247089D01*
X417269Y249629D01*
X414729D01*
Y247089D01*
X417269Y244549D01*
X414729Y242009D01*
Y239469D01*
X690037Y253157D02*
X692577D01*
X695117Y255697D01*
X697657Y253157D01*
X700197D01*
Y255697D01*
X697657Y258237D01*
X700197Y260777D01*
Y263317D01*
X697657D01*
X695117Y260777D01*
X692577Y263317D01*
X690037D01*
Y260777D01*
X692577Y258237D01*
X690037Y255697D01*
Y253157D01*
X223890Y99430D02*
X226430D01*
X228970Y101970D01*
X231510Y99430D01*
X234050D01*
Y101970D01*
X231510Y104510D01*
X234050Y107050D01*
Y109590D01*
X231510D01*
X228970Y107050D01*
X226430Y109590D01*
X223890D01*
Y107050D01*
X226430Y104510D01*
X223890Y101970D01*
Y99430D01*
X327660Y580390D02*
X330200D01*
X332740Y582930D01*
X335280Y580390D01*
X337820D01*
Y582930D01*
X335280Y585470D01*
X337820Y588010D01*
Y590550D01*
X335280D01*
X332740Y588010D01*
X330200Y590550D01*
X327660D01*
Y588010D01*
X330200Y585470D01*
X327660Y582930D01*
Y580390D01*
X300090Y600340D02*
X302630D01*
X305170Y602880D01*
X307710Y600340D01*
X310250D01*
Y602880D01*
X307710Y605420D01*
X310250Y607960D01*
Y610500D01*
X307710D01*
X305170Y607960D01*
X302630Y610500D01*
X300090D01*
Y607960D01*
X302630Y605420D01*
X300090Y602880D01*
Y600340D01*
X274505Y614495D02*
X277045D01*
X279585Y617035D01*
X282125Y614495D01*
X284665D01*
Y617035D01*
X282125Y619575D01*
X284665Y622115D01*
Y624655D01*
X282125D01*
X279585Y622115D01*
X277045Y624655D01*
X274505D01*
Y622115D01*
X277045Y619575D01*
X274505Y617035D01*
Y614495D01*
X251460Y638810D02*
X254000D01*
X256540Y641350D01*
X259080Y638810D01*
X261620D01*
Y641350D01*
X259080Y643890D01*
X261620Y646430D01*
Y648970D01*
X259080D01*
X256540Y646430D01*
X254000Y648970D01*
X251460D01*
Y646430D01*
X254000Y643890D01*
X251460Y641350D01*
Y638810D01*
X223890Y656960D02*
X226430D01*
X228970Y659500D01*
X231510Y656960D01*
X234050D01*
Y659500D01*
X231510Y662040D01*
X234050Y664580D01*
Y667120D01*
X231510D01*
X228970Y664580D01*
X226430Y667120D01*
X223890D01*
Y664580D01*
X226430Y662040D01*
X223890Y659500D01*
Y656960D01*
X763370Y657760D02*
X765910D01*
X768450Y660300D01*
X770990Y657760D01*
X773530D01*
Y660300D01*
X770990Y662840D01*
X773530Y665380D01*
Y667920D01*
X770990D01*
X768450Y665380D01*
X765910Y667920D01*
X763370D01*
Y665380D01*
X765910Y662840D01*
X763370Y660300D01*
Y657760D01*
X798187Y600083D02*
X800727D01*
X803267Y602623D01*
X805807Y600083D01*
X808347D01*
Y602623D01*
X805807Y605163D01*
X808347Y607703D01*
Y610243D01*
X805807D01*
X803267Y607703D01*
X800727Y610243D01*
X798187D01*
Y607703D01*
X800727Y605163D01*
X798187Y602623D01*
Y600083D01*
X831215Y614045D02*
X833755D01*
X836295Y616585D01*
X838835Y614045D01*
X841375D01*
Y616585D01*
X838835Y619125D01*
X841375Y621665D01*
Y624205D01*
X838835D01*
X836295Y621665D01*
X833755Y624205D01*
X831215D01*
Y621665D01*
X833755Y619125D01*
X831215Y616585D01*
Y614045D01*
X864870Y580390D02*
X867410D01*
X869950Y582930D01*
X872490Y580390D01*
X875030D01*
Y582930D01*
X872490Y585470D01*
X875030Y588010D01*
Y590550D01*
X872490D01*
X869950Y588010D01*
X867410Y590550D01*
X864870D01*
Y588010D01*
X867410Y585470D01*
X864870Y582930D01*
Y580390D01*
X890270Y565150D02*
X892810D01*
X895350Y567690D01*
X897890Y565150D01*
X900430D01*
Y567690D01*
X897890Y570230D01*
X900430Y572770D01*
Y575310D01*
X897890D01*
X895350Y572770D01*
X892810Y575310D01*
X890270D01*
Y572770D01*
X892810Y570230D01*
X890270Y567690D01*
Y565150D01*
X915670Y537210D02*
X918210D01*
X920750Y539750D01*
X923290Y537210D01*
X925830D01*
Y539750D01*
X923290Y542290D01*
X925830Y544830D01*
Y547370D01*
X923290D01*
X920750Y544830D01*
X918210Y547370D01*
X915670D01*
Y544830D01*
X918210Y542290D01*
X915670Y539750D01*
Y537210D01*
X889370Y202830D02*
X891910D01*
X894450Y205370D01*
X896990Y202830D01*
X899530D01*
Y205370D01*
X896990Y207910D01*
X899530Y210450D01*
Y212990D01*
X896990D01*
X894450Y210450D01*
X891910Y212990D01*
X889370D01*
Y210450D01*
X891910Y207910D01*
X889370Y205370D01*
Y202830D01*
X840070Y142840D02*
X842610D01*
X845150Y145380D01*
X847690Y142840D01*
X850230D01*
Y145380D01*
X847690Y147920D01*
X850230Y150460D01*
Y153000D01*
X847690D01*
X845150Y150460D01*
X842610Y153000D01*
X840070D01*
Y150460D01*
X842610Y147920D01*
X840070Y145380D01*
Y142840D01*
X765810Y99060D02*
X768350D01*
X770890Y101600D01*
X773430Y99060D01*
X775970D01*
Y101600D01*
X773430Y104140D01*
X775970Y106680D01*
Y109220D01*
X773430D01*
X770890Y106680D01*
X768350Y109220D01*
X765810D01*
Y106680D01*
X768350Y104140D01*
X765810Y101600D01*
Y99060D01*
X376740Y222700D02*
X379280D01*
X381820Y225240D01*
X384360Y222700D01*
X386900D01*
Y225240D01*
X384360Y227780D01*
X386900Y230320D01*
Y232860D01*
X384360D01*
X381820Y230320D01*
X379280Y232860D01*
X376740D01*
Y230320D01*
X379280Y227780D01*
X376740Y225240D01*
Y222700D01*
X325940Y180790D02*
X328480D01*
X331020Y183330D01*
X333560Y180790D01*
X336100D01*
Y183330D01*
X333560Y185870D01*
X336100Y188410D01*
Y190950D01*
X333560D01*
X331020Y188410D01*
X328480Y190950D01*
X325940D01*
Y188410D01*
X328480Y185870D01*
X325940Y183330D01*
Y180790D01*
X311785Y141605D02*
X314325D01*
X316865Y144145D01*
X319405Y141605D01*
X321945D01*
Y144145D01*
X319405Y146685D01*
X321945Y149225D01*
Y151765D01*
X319405D01*
X316865Y149225D01*
X314325Y151765D01*
X311785D01*
Y149225D01*
X314325Y146685D01*
X311785Y144145D01*
Y141605D01*
X249740Y121100D02*
X252280D01*
X254820Y123640D01*
X257360Y121100D01*
X259900D01*
Y123640D01*
X257360Y126180D01*
X259900Y128720D01*
Y131260D01*
X257360D01*
X254820Y128720D01*
X252280Y131260D01*
X249740D01*
Y128720D01*
X252280Y126180D01*
X249740Y123640D01*
Y121100D01*
X815340Y157480D02*
X817880D01*
X820420Y160020D01*
X822960Y157480D01*
X825500D01*
Y160020D01*
X822960Y162560D01*
X825500Y165100D01*
Y167640D01*
X822960D01*
X820420Y165100D01*
X817880Y167640D01*
X815340D01*
Y165100D01*
X817880Y162560D01*
X815340Y160020D01*
Y157480D01*
X864870Y179070D02*
X867410D01*
X869950Y181610D01*
X872490Y179070D01*
X875030D01*
Y181610D01*
X872490Y184150D01*
X875030Y186690D01*
Y189230D01*
X872490D01*
X869950Y186690D01*
X867410Y189230D01*
X864870D01*
Y186690D01*
X867410Y184150D01*
X864870Y181610D01*
Y179070D01*
X350890Y202830D02*
X353430D01*
X355970Y205370D01*
X358510Y202830D01*
X361050D01*
Y205370D01*
X358510Y207910D01*
X361050Y210450D01*
Y212990D01*
X358510D01*
X355970Y210450D01*
X353430Y212990D01*
X350890D01*
Y210450D01*
X353430Y207910D01*
X350890Y205370D01*
Y202830D01*
X916940Y222250D02*
X919480D01*
X922020Y224790D01*
X924560Y222250D01*
X927100D01*
Y224790D01*
X924560Y227330D01*
X927100Y229870D01*
Y232410D01*
X924560D01*
X922020Y229870D01*
X919480Y232410D01*
X916940D01*
Y229870D01*
X919480Y227330D01*
X916940Y224790D01*
Y222250D01*
X787400Y638810D02*
X789940D01*
X792480Y641350D01*
X795020Y638810D01*
X797560D01*
Y641350D01*
X795020Y643890D01*
X797560Y646430D01*
Y648970D01*
X795020D01*
X792480Y646430D01*
X789940Y648970D01*
X787400D01*
Y646430D01*
X789940Y643890D01*
X787400Y641350D01*
Y638810D01*
X789940Y119380D02*
X792480D01*
X795020Y121920D01*
X797560Y119380D01*
X800100D01*
Y121920D01*
X797560Y124460D01*
X800100Y127000D01*
Y129540D01*
X797560D01*
X795020Y127000D01*
X792480Y129540D01*
X789940D01*
Y127000D01*
X792480Y124460D01*
X789940Y121920D01*
Y119380D01*
X350520Y565150D02*
X353060D01*
X355600Y567690D01*
X358140Y565150D01*
X360680D01*
Y567690D01*
X358140Y570230D01*
X360680Y572770D01*
Y575310D01*
X358140D01*
X355600Y572770D01*
X353060Y575310D01*
X350520D01*
Y572770D01*
X353060Y570230D01*
X350520Y567690D01*
Y565150D01*
X377190Y537210D02*
X379730D01*
X382270Y539750D01*
X384810Y537210D01*
X387350D01*
Y539750D01*
X384810Y542290D01*
X387350Y544830D01*
Y547370D01*
X384810D01*
X382270Y544830D01*
X379730Y547370D01*
X377190D01*
Y544830D01*
X379730Y542290D01*
X377190Y539750D01*
Y537210D01*
D42*
X891440Y15140D02*
G03*
X891440Y15140I-5080J0D01*
G01*
Y66140D02*
G03*
X891440Y66140I-5080J0D01*
G01*
X942440Y15140D02*
G03*
X942440Y15140I-5080J0D01*
G01*
Y66140D02*
G03*
X942440Y66140I-5080J0D01*
G01*
X99595Y15775D02*
G03*
X99595Y15775I-5080J0D01*
G01*
Y66775D02*
G03*
X99595Y66775I-5080J0D01*
G01*
X150595Y15775D02*
G03*
X150595Y15775I-5080J0D01*
G01*
Y66775D02*
G03*
X150595Y66775I-5080J0D01*
G01*
X1034950Y15140D02*
G03*
X1034950Y15140I-5080J0D01*
G01*
Y66140D02*
G03*
X1034950Y66140I-5080J0D01*
G01*
X1085950Y15140D02*
G03*
X1085950Y15140I-5080J0D01*
G01*
Y66140D02*
G03*
X1085950Y66140I-5080J0D01*
G01*
X243740Y13870D02*
G03*
X243740Y13870I-5080J0D01*
G01*
Y64870D02*
G03*
X243740Y64870I-5080J0D01*
G01*
X294740Y13870D02*
G03*
X294740Y13870I-5080J0D01*
G01*
Y64870D02*
G03*
X294740Y64870I-5080J0D01*
G01*
X1240790Y30480D02*
G03*
X1240790Y30480I-5080J0D01*
G01*
X1174750D02*
G03*
X1174750Y30480I-5080J0D01*
G01*
X1112520Y745490D02*
G03*
X1112520Y745490I-5080J0D01*
G01*
X1178560D02*
G03*
X1178560Y745490I-5080J0D01*
G01*
M02*
