M48
;Layer_Color=9474304
;FILE_FORMAT=4:4
METRIC,LZ
;TYPE=PLATED
T01F00S00C0.2000
T02F00S00C0.9000
T03F00S00C1.0922
T04F00S00C1.5000
T05F00S00C1.6000
T06F00S00C3.5000
;TYPE=NON_PLATED
T07F00S00C1.7800
%
T01
X0121412Y0020447
X0106553Y00209127
Y0022225
Y00237067
Y0025019
X0104267Y00248653
Y00235618
Y00222584
Y0020955
Y0019558
Y00183482
Y00170447
Y00157413
Y00144379
Y00131345
Y00118311
Y00105276
Y00092242
X0106553Y0009017
Y00103293
Y00116417
Y0012954
Y0014351
Y00156633
Y00169757
Y0018288
Y0019558
X0101981
Y00183682
Y00170648
X0101473Y0016002
X0100838Y001524
X0100076Y0014478
X0099314Y0013716
X0098552Y0012954
X009779Y0012192
X0097028Y001143
X0096139Y0010541
X009525Y0009652
X0094488Y000889
X00923428Y00099321
X00931048Y00106941
X00939938Y00115831
X00948828Y00124721
X00956448Y00132341
X00964068Y00139962
X00971688Y00147582
X00979308Y00155202
X00986928Y00162822
X0099695Y0017018
X0099949Y00183482
Y0019558
Y0020955
Y00222584
Y00235618
Y00248653
Y00261687
Y00274721
Y00287755
Y0029845
X0101981Y0029865
Y00287955
Y00274921
Y00261887
Y00248853
Y00235819
Y00222784
Y0020975
X0104267Y00261687
Y00274721
Y00287755
Y0029845
X0106553
Y00285327
X0092202Y0022733
X0089445Y0020791
X0086995Y0018415
X0084515Y0014792
X0082042Y0016256
X0079502Y0012446
X0077089Y0010414
X00914538Y00090431
X00695117Y00258237
X00419809Y00244549
X0038182Y0022778
X0035597Y0020791
X0033102Y0018587
X00316865Y00146685
X0027178Y0016256
X0025482Y0012618
X0022897Y0010451
X0018034Y0009652
X0018923Y0008763
X0019812Y0007874
X0020701Y0006985
X002159Y0006096
X00197307Y00051927
X0018923Y0005969
X0018034Y0006858
X0017145Y0007747
X0016256Y0008636
X0015367Y0009525
X0014605Y0010668
Y0011938
Y0013208
X0013335
Y00118957
Y00105833
Y0009271
X0010795
Y00105833
Y00118957
Y0013208
Y0014605
Y00159173
Y00172297
Y0018542
Y00198543
Y00211667
Y0022479
Y00239607
Y0025273
Y00267123
Y00280247
Y0029337
X0013335
X0014605
Y00280247
X0013335
Y00267123
X0014605
Y0025273
X0013335
Y00239607
X0014605
Y0022479
X0013335
Y00211667
X0014605
Y00198543
X0013335
Y0018542
X0014605
Y00172297
X0013335
Y00159173
X0014605
Y0014605
X0013335
X0016891Y00146897
Y00133773
Y0012065
X0017145Y0010668
X00169177Y00160153
Y00173276
Y00186399
Y00199523
Y00212646
Y00225769
Y00240586
Y00253709
X00206197Y00043038
X00215087Y00034148
X0014605Y00306493
X0013335
Y00319617
X0014605
Y0033274
X0013335
Y00347557
X0014605
Y0036068
X0013335
X0010795
Y00347557
Y0033274
Y00319617
Y00306493
X00114395Y00373241
X00123285Y00382131
X00132175Y00389751
X0014097Y0039878
X0014986Y0040767
X0015748Y0041529
X00163925Y00393561
X00156305Y00385941
X00147415Y00374511
X00178803Y0067949
X0018415Y0068965
X0019812Y0069977
X0022897Y0066204
X0025654Y0064389
X00279585Y00619575
X0030517Y0060542
X0033274Y0058547
X003556Y0057023
X0038227Y0054229
X00452391Y00525509
X0069267Y0052399
X00716547Y0067949
X0076845Y0066284
X0079248Y0064389
X00803267Y00605163
X00836295Y00619125
X0086995Y0058547
X0089535Y0057023
X0092075Y0054229
X0098806Y0055753
X0099822Y005715
X0100838Y0059944
X0099441Y0042926
X0099949Y0039878
X0100838Y0039243
X010033Y0036322
X0099568Y0037084
X0100457Y0034798
X0101219Y0034036
X0101981Y0034671
X010287Y0033909
X0101981Y003175
X0099822
X0104267
X0106553Y00313267
Y0032639
X0105029Y0034798
X0103505Y0036576
X0102616Y0037592
X0112395Y0038227
Y004953
Y0067691
X0118364Y0070231
X0122555Y0069088
X0121412Y0053086
X0120015Y0051435
X0118364Y0048387
X0116332Y0044323
X0114681Y0043053
X0120015Y0040767
X0122555Y0035687
X0116332Y0033274
X0118364Y0030607
X0122555Y0046101
X0114681Y0058547
X0116332Y0071501
X0021717Y0071247
X0018288Y007239
T02
X0076982Y0026797
X0079522
X0082062
X0084602
X0087142
X0089682
X0092222
X0094762
X0097302
Y0029337
X0094762
X0092222
X0089682
X0087142
X0084602
X0082062
X0079522
X0076982
X0074442
Y0026797
X0071902
Y0029337
X0043217
X0040677
X0038137
X0035597
Y0026797
X0038137
X0040677
X0043217
X0033057
Y0029337
X0030517
X0027977
X0025437
X0022897
X0020357
X0017817
Y0026797
X0020357
X0022897
X0025437
X0027977
X0030517
Y0031877
X0027977
X0033057
X0020357
X0017817
Y0034417
Y0036957
Y0039497
Y0042037
Y0044577
Y0047117
Y0049657
Y0052197
X0020357
X0022897
X0025437
X0027977
X0030517
X0033057
Y0049657
X0030517
X0027977
X0025437
X0022897
X0020357
Y0047117
Y0044577
Y0042037
Y0039497
Y0036957
Y0034417
X0022897Y0036957
Y0039497
Y0042037
X0027977Y0047117
X0030517
X0033057
X0032178Y0068834
X0029678
X0027178
X0024678
X0035597Y0052197
X0038137
X0040677
X0043217
Y0049657
X0040677
X0038137
X0035597
X0040677Y0047117
X0043217
Y0044577
X0040677
Y0042037
X0038137
Y0039497
X0040677
X0043217
Y0042037
Y0036957
X0040677
X0038137
X0040677Y0034417
X0043217
Y0031877
X0040677
X0071902
X0074442
Y0034417
X0071902
Y0036957
X0074442
Y0039497
X0071902
Y0042037
X0074442
Y0044577
X0071902
Y0047117
X0074442
Y0049657
X0071902
Y0052197
X0074442
X0076982
Y0049657
X0079522
X0082062
Y0047117
X0084602
X0087142
Y0049657
X0089682
X0092222
X0094762
X0097302
Y0047117
Y0044577
Y0042037
Y0039497
Y0036957
Y0034417
Y0031877
X0094762
Y0034417
Y0036957
Y0039497
Y0042037
Y0044577
Y0047117
Y0052197
X0097302
X0092222
X0089682
X0087142
X0084602
Y0049657
X0082062Y0052197
X0079522
X0076982Y0042037
Y0039497
Y0036957
X0082062Y0031877
X0084602
X0087142
X0092222Y0036957
Y0039497
Y0042037
X009144Y0068834
X008894
X008644
X008394
T03
X0127Y0017907
Y0020447
Y0022987
Y0025527
Y0028067
X012954
Y0025527
Y0022987
Y0020447
Y0017907
Y0030607
Y0033147
Y0035687
Y0038227
Y0040767
Y0043307
Y0045847
Y0048387
Y0050927
Y0053467
Y0056007
Y0058547
Y0061087
Y0063627
Y0066167
X0127
Y0063627
Y0061087
Y0058547
Y0056007
Y0053467
Y0050927
Y0048387
Y0045847
Y0043307
Y0040767
Y0038227
Y0035687
Y0033147
Y0030607
T04
X0091186Y0004064
X0105537
X0026416Y0003937
X00120015Y00041275
T05
X0116967Y0003048
X0123571
X0108087Y0001514
X0102987
Y0006614
X0108087
X0093736
X0088636
Y0001514
X0093736
X0028966Y0001387
X0023866
Y0006487
X0028966
X00145515Y00066775
X00094515
Y00015775
X00145515
X0117348Y0074549
X0110744
T06
X01302797Y00032472
X00032797
X0130302Y0075057
X00032797Y00750022
T07
X0107402Y0026797
X0066802
X0048317
X0007717
Y0052197
X0048317
X0066802
X0107402
M30
