G04*
G04 #@! TF.GenerationSoftware,Altium Limited,Altium Designer,25.4.2 (15)*
G04*
G04 Layer_Color=255*
%FSLAX44Y44*%
%MOMM*%
G71*
G04*
G04 #@! TF.SameCoordinates,C8064B0B-EDE6-4B3A-8A14-C26425D78004*
G04*
G04*
G04 #@! TF.FilePolarity,Positive*
G04*
G01*
G75*
%ADD18R,0.9000X0.8000*%
%ADD19C,2.4500*%
%ADD20R,2.3000X2.3000*%
%ADD29C,1.6002*%
%ADD30C,1.4080*%
%ADD31R,1.4080X1.4080*%
%ADD32C,1.7800*%
%ADD33C,1.4000*%
%ADD34R,1.4000X1.4000*%
%ADD35C,6.0000*%
D18*
X685800Y587890D02*
D03*
Y572890D02*
D03*
X391160Y591700D02*
D03*
Y576700D02*
D03*
X946150Y198550D02*
D03*
Y213550D02*
D03*
X972820Y198240D02*
D03*
Y213240D02*
D03*
X845820Y585350D02*
D03*
Y570350D02*
D03*
X718820Y196970D02*
D03*
Y211970D02*
D03*
X298450Y209670D02*
D03*
Y224670D02*
D03*
X947420Y584200D02*
D03*
Y569200D02*
D03*
X203200Y205860D02*
D03*
Y220860D02*
D03*
X406400Y202050D02*
D03*
Y217050D02*
D03*
X452120Y591700D02*
D03*
Y576700D02*
D03*
X152400Y582810D02*
D03*
Y567810D02*
D03*
D19*
X886360Y15140D02*
D03*
Y66140D02*
D03*
X937360Y15140D02*
D03*
Y66140D02*
D03*
X94515Y15775D02*
D03*
Y66775D02*
D03*
X145515Y15775D02*
D03*
Y66775D02*
D03*
X1029870Y15140D02*
D03*
Y66140D02*
D03*
X1080870Y15140D02*
D03*
Y66140D02*
D03*
X238660Y13870D02*
D03*
Y64870D02*
D03*
X289660Y13870D02*
D03*
Y64870D02*
D03*
X1235710Y30480D02*
D03*
X1169670D02*
D03*
X1107440Y745490D02*
D03*
X1173480D02*
D03*
D20*
X911860Y40640D02*
D03*
X120015Y41275D02*
D03*
X1055370Y40640D02*
D03*
X264160Y39370D02*
D03*
D29*
X1270000Y661670D02*
D03*
X1295400D02*
D03*
X1270000Y636270D02*
D03*
X1295400D02*
D03*
X1270000Y610870D02*
D03*
X1295400D02*
D03*
X1270000Y585470D02*
D03*
X1295400D02*
D03*
X1270000Y560070D02*
D03*
X1295400D02*
D03*
X1270000Y534670D02*
D03*
X1295400D02*
D03*
X1270000Y509270D02*
D03*
X1295400D02*
D03*
X1270000Y483870D02*
D03*
X1295400D02*
D03*
X1270000Y458470D02*
D03*
X1295400D02*
D03*
X1270000Y433070D02*
D03*
X1295400D02*
D03*
X1270000Y407670D02*
D03*
X1295400D02*
D03*
X1270000Y382270D02*
D03*
X1295400D02*
D03*
X1270000Y356870D02*
D03*
X1295400D02*
D03*
X1270000Y331470D02*
D03*
X1295400D02*
D03*
X1270000Y306070D02*
D03*
X1295400D02*
D03*
X1270000Y280670D02*
D03*
X1295400D02*
D03*
X1270000Y255270D02*
D03*
X1295400D02*
D03*
X1270000Y229870D02*
D03*
X1295400D02*
D03*
X1270000Y204470D02*
D03*
X1295400D02*
D03*
X1270000Y179070D02*
D03*
X1295400D02*
D03*
D30*
X846020Y267970D02*
D03*
X871420D02*
D03*
X896820D02*
D03*
X922220D02*
D03*
X947620D02*
D03*
X820620D02*
D03*
X795220D02*
D03*
X769820D02*
D03*
X744420D02*
D03*
X719020D02*
D03*
X973020Y293370D02*
D03*
Y318770D02*
D03*
Y344170D02*
D03*
Y369570D02*
D03*
Y394970D02*
D03*
Y420370D02*
D03*
Y445770D02*
D03*
Y471170D02*
D03*
Y496570D02*
D03*
Y521970D02*
D03*
X947620Y293370D02*
D03*
X922220D02*
D03*
X896820D02*
D03*
X871420D02*
D03*
X846020D02*
D03*
X820620D02*
D03*
X795220D02*
D03*
X769820D02*
D03*
X744420D02*
D03*
X719020D02*
D03*
X947620Y318770D02*
D03*
X871420D02*
D03*
X846020D02*
D03*
X820620D02*
D03*
X744420D02*
D03*
X719020D02*
D03*
X947620Y344170D02*
D03*
X744420D02*
D03*
X719020D02*
D03*
X947620Y369570D02*
D03*
X769820D02*
D03*
X744420D02*
D03*
X719020D02*
D03*
X947620Y394970D02*
D03*
X769820D02*
D03*
X744420D02*
D03*
X719020D02*
D03*
X947620Y420370D02*
D03*
X769820D02*
D03*
X744420D02*
D03*
X719020D02*
D03*
X947620Y445770D02*
D03*
X744420D02*
D03*
X719020D02*
D03*
X947620Y471170D02*
D03*
X871420D02*
D03*
X846020D02*
D03*
X820620D02*
D03*
X744420D02*
D03*
X719020D02*
D03*
X947620Y496570D02*
D03*
X922220D02*
D03*
X896820D02*
D03*
X871420D02*
D03*
X846020D02*
D03*
X820620D02*
D03*
X795220D02*
D03*
X769820D02*
D03*
X744420D02*
D03*
X719020D02*
D03*
X947620Y521970D02*
D03*
X922220D02*
D03*
X896820D02*
D03*
X871420D02*
D03*
X846020D02*
D03*
X820620D02*
D03*
X795220D02*
D03*
X769820D02*
D03*
X744420D02*
D03*
X719020D02*
D03*
X922220Y369570D02*
D03*
Y394970D02*
D03*
Y420370D02*
D03*
X305170Y521970D02*
D03*
X279770D02*
D03*
X254370D02*
D03*
X228970D02*
D03*
X203570D02*
D03*
X330570D02*
D03*
X355970D02*
D03*
X381370D02*
D03*
X406770D02*
D03*
X432170D02*
D03*
X178170Y496570D02*
D03*
Y471170D02*
D03*
Y445770D02*
D03*
Y420370D02*
D03*
Y394970D02*
D03*
Y369570D02*
D03*
Y344170D02*
D03*
Y318770D02*
D03*
Y293370D02*
D03*
Y267970D02*
D03*
X203570Y496570D02*
D03*
X228970D02*
D03*
X254370D02*
D03*
X279770D02*
D03*
X305170D02*
D03*
X330570D02*
D03*
X355970D02*
D03*
X381370D02*
D03*
X406770D02*
D03*
X432170D02*
D03*
X203570Y471170D02*
D03*
X279770D02*
D03*
X305170D02*
D03*
X330570D02*
D03*
X406770D02*
D03*
X432170D02*
D03*
X203570Y445770D02*
D03*
X406770D02*
D03*
X432170D02*
D03*
X203570Y420370D02*
D03*
X381370D02*
D03*
X406770D02*
D03*
X432170D02*
D03*
X203570Y394970D02*
D03*
X381370D02*
D03*
X406770D02*
D03*
X432170D02*
D03*
X203570Y369570D02*
D03*
X381370D02*
D03*
X406770D02*
D03*
X432170D02*
D03*
X203570Y344170D02*
D03*
X406770D02*
D03*
X432170D02*
D03*
X203570Y318770D02*
D03*
X279770D02*
D03*
X305170D02*
D03*
X330570D02*
D03*
X406770D02*
D03*
X432170D02*
D03*
X203570Y293370D02*
D03*
X228970D02*
D03*
X254370D02*
D03*
X279770D02*
D03*
X305170D02*
D03*
X330570D02*
D03*
X355970D02*
D03*
X381370D02*
D03*
X406770D02*
D03*
X432170D02*
D03*
X203570Y267970D02*
D03*
X228970D02*
D03*
X254370D02*
D03*
X279770D02*
D03*
X305170D02*
D03*
X330570D02*
D03*
X355970D02*
D03*
X381370D02*
D03*
X406770D02*
D03*
X432170D02*
D03*
X228970Y420370D02*
D03*
Y394970D02*
D03*
Y369570D02*
D03*
D31*
X973020Y267970D02*
D03*
X178170Y521970D02*
D03*
D32*
X1074020Y267970D02*
D03*
Y521970D02*
D03*
X668020Y267970D02*
D03*
Y521970D02*
D03*
X77170D02*
D03*
Y267970D02*
D03*
X483170Y521970D02*
D03*
Y267970D02*
D03*
D33*
X864400Y688340D02*
D03*
X889400D02*
D03*
X839400D02*
D03*
X271780D02*
D03*
X296780D02*
D03*
X246780D02*
D03*
D34*
X914400D02*
D03*
X321780D02*
D03*
D35*
X32797Y750022D02*
D03*
Y32472D02*
D03*
X1302797D02*
D03*
X1303020Y750570D02*
D03*
M02*
