G04*
G04 #@! TF.GenerationSoftware,Altium Limited,Altium Designer,25.4.2 (15)*
G04*
G04 Layer_Physical_Order=1*
G04 Layer_Color=255*
%FSLAX44Y44*%
%MOMM*%
G71*
G04*
G04 #@! TF.SameCoordinates,C8064B0B-EDE6-4B3A-8A14-C26425D78004*
G04*
G04*
G04 #@! TF.FilePolarity,Positive*
G04*
G01*
G75*
%ADD10C,0.5080*%
%ADD17C,0.2540*%
%ADD18R,0.9000X0.8000*%
%ADD19C,2.4500*%
%ADD20R,2.3000X2.3000*%
%ADD28C,0.3810*%
%ADD29C,1.6002*%
%ADD30C,1.4080*%
%ADD31R,1.4080X1.4080*%
%ADD32C,1.7800*%
%ADD33C,1.4000*%
%ADD34R,1.4000X1.4000*%
%ADD35C,6.0000*%
%ADD36C,0.5000*%
G36*
X1334770Y762265D02*
X1333500Y762064D01*
X1333176Y763061D01*
X1330851Y767625D01*
X1327840Y771768D01*
X1324218Y775390D01*
X1320075Y778401D01*
X1315511Y780726D01*
X1314514Y781050D01*
X1314715Y782320D01*
X1334770D01*
Y762265D01*
D02*
G37*
G36*
X22989Y781050D02*
X20306Y780178D01*
X15742Y777853D01*
X11599Y774843D01*
X7977Y771221D01*
X4966Y767077D01*
X2641Y762513D01*
X1270Y758294D01*
X0Y758495D01*
Y782320D01*
X22787D01*
X22989Y781050D01*
D02*
G37*
G36*
X1291526D02*
X1290529Y780726D01*
X1285965Y778401D01*
X1281822Y775390D01*
X1278200Y771768D01*
X1275189Y767625D01*
X1272864Y763061D01*
X1271281Y758190D01*
X1270480Y753131D01*
Y748009D01*
X1271281Y742950D01*
X1272864Y738079D01*
X1275189Y733515D01*
X1278200Y729372D01*
X1281822Y725750D01*
X1285965Y722739D01*
X1290529Y720414D01*
X1295400Y718831D01*
X1300459Y718030D01*
X1305581D01*
X1310640Y718831D01*
X1315511Y720414D01*
X1320075Y722739D01*
X1324218Y725750D01*
X1327840Y729372D01*
X1330851Y733515D01*
X1333176Y738079D01*
X1333500Y739076D01*
X1334770Y738875D01*
Y43481D01*
X1333500Y43280D01*
X1332953Y44963D01*
X1330628Y49527D01*
X1327617Y53671D01*
X1323995Y57292D01*
X1319852Y60303D01*
X1315288Y62628D01*
X1310417Y64211D01*
X1305358Y65012D01*
X1300236D01*
X1295177Y64211D01*
X1290306Y62628D01*
X1285742Y60303D01*
X1281599Y57292D01*
X1277977Y53671D01*
X1274966Y49527D01*
X1272641Y44963D01*
X1271058Y40092D01*
X1270257Y35033D01*
Y29911D01*
X1271058Y24853D01*
X1272641Y19981D01*
X1274966Y15418D01*
X1277977Y11274D01*
X1281599Y7652D01*
X1285742Y4642D01*
X1290306Y2316D01*
X1293526Y1270D01*
X1293325Y0D01*
X42269D01*
X42068Y1270D01*
X45288Y2316D01*
X49852Y4642D01*
X53995Y7652D01*
X57617Y11274D01*
X60628Y15418D01*
X62953Y19981D01*
X64536Y24853D01*
X65337Y29911D01*
Y35033D01*
X64536Y40092D01*
X62953Y44963D01*
X60628Y49527D01*
X57617Y53671D01*
X53995Y57292D01*
X49852Y60303D01*
X45288Y62628D01*
X40417Y64211D01*
X35358Y65012D01*
X30236D01*
X25177Y64211D01*
X20306Y62628D01*
X15742Y60303D01*
X11599Y57292D01*
X7977Y53671D01*
X4966Y49527D01*
X2641Y44963D01*
X1270Y40744D01*
X0Y40945D01*
Y741550D01*
X1270Y741751D01*
X2641Y737531D01*
X4966Y732968D01*
X7977Y728824D01*
X11599Y725202D01*
X15742Y722192D01*
X20306Y719866D01*
X25177Y718284D01*
X30236Y717482D01*
X35358D01*
X40417Y718284D01*
X45288Y719866D01*
X49852Y722192D01*
X53995Y725202D01*
X57617Y728824D01*
X60628Y732968D01*
X62953Y737531D01*
X64536Y742403D01*
X65337Y747461D01*
Y752583D01*
X64536Y757642D01*
X62953Y762513D01*
X60628Y767077D01*
X57617Y771221D01*
X53995Y774843D01*
X49852Y777853D01*
X45288Y780178D01*
X42605Y781050D01*
X42807Y782320D01*
X1291325D01*
X1291526Y781050D01*
D02*
G37*
G36*
X1334770Y21464D02*
Y0D01*
X1312269D01*
X1312068Y1270D01*
X1315288Y2316D01*
X1319852Y4642D01*
X1323995Y7652D01*
X1327617Y11274D01*
X1330628Y15418D01*
X1332953Y19981D01*
X1333500Y21665D01*
X1334770Y21464D01*
D02*
G37*
G36*
X2641Y19981D02*
X4966Y15418D01*
X7977Y11274D01*
X11599Y7652D01*
X15742Y4642D01*
X20306Y2316D01*
X23526Y1270D01*
X23325Y0D01*
X0D01*
Y24000D01*
X1270Y24201D01*
X2641Y19981D01*
D02*
G37*
%LPC*%
G36*
X1108897Y760280D02*
X1105983D01*
X1103126Y759712D01*
X1100434Y758597D01*
X1098012Y756978D01*
X1095952Y754918D01*
X1094333Y752496D01*
X1093218Y749804D01*
X1092650Y746947D01*
Y744033D01*
X1093218Y741176D01*
X1094333Y738484D01*
X1095952Y736062D01*
X1098012Y734002D01*
X1100434Y732383D01*
X1103126Y731268D01*
X1105983Y730700D01*
X1108897D01*
X1111754Y731268D01*
X1114446Y732383D01*
X1116868Y734002D01*
X1118928Y736062D01*
X1120547Y738484D01*
X1121662Y741176D01*
X1122230Y744033D01*
Y746947D01*
X1121662Y749804D01*
X1120547Y752496D01*
X1118928Y754918D01*
X1116868Y756978D01*
X1114446Y758597D01*
X1111754Y759712D01*
X1108897Y760280D01*
D02*
G37*
G36*
X183883Y728940D02*
X181877D01*
X180025Y728173D01*
X178607Y726755D01*
X177840Y724902D01*
Y722897D01*
X178607Y721045D01*
X180025Y719627D01*
X180265Y719528D01*
Y692893D01*
X179877Y692505D01*
X179110Y690652D01*
Y688648D01*
X179877Y686795D01*
X181295Y685377D01*
X183148Y684610D01*
X185152D01*
X187005Y685377D01*
X188423Y686795D01*
X189190Y688648D01*
Y690652D01*
X188423Y692505D01*
X188035Y692893D01*
Y722630D01*
X187920Y723206D01*
Y724902D01*
X187153Y726755D01*
X185735Y728173D01*
X183883Y728940D01*
D02*
G37*
G36*
X923940Y697880D02*
X904860D01*
Y678800D01*
X923940D01*
Y697880D01*
D02*
G37*
G36*
X890656D02*
X888144D01*
X885717Y697230D01*
X883542Y695974D01*
X881766Y694198D01*
X880510Y692022D01*
X879860Y689596D01*
Y687084D01*
X880510Y684658D01*
X881766Y682482D01*
X883542Y680706D01*
X885717Y679450D01*
X888144Y678800D01*
X890656D01*
X893082Y679450D01*
X895257Y680706D01*
X897034Y682482D01*
X898290Y684658D01*
X898940Y687084D01*
Y689596D01*
X898290Y692022D01*
X897034Y694198D01*
X895257Y695974D01*
X893082Y697230D01*
X890656Y697880D01*
D02*
G37*
G36*
X865656D02*
X863144D01*
X860718Y697230D01*
X858542Y695974D01*
X856766Y694198D01*
X855510Y692022D01*
X854860Y689596D01*
Y687084D01*
X855510Y684658D01*
X856766Y682482D01*
X858542Y680706D01*
X860718Y679450D01*
X863144Y678800D01*
X865656D01*
X868082Y679450D01*
X870258Y680706D01*
X872034Y682482D01*
X873290Y684658D01*
X873940Y687084D01*
Y689596D01*
X873290Y692022D01*
X872034Y694198D01*
X870258Y695974D01*
X868082Y697230D01*
X865656Y697880D01*
D02*
G37*
G36*
X840656D02*
X838144D01*
X835718Y697230D01*
X833542Y695974D01*
X831766Y694198D01*
X830510Y692022D01*
X829860Y689596D01*
Y687084D01*
X830510Y684658D01*
X831766Y682482D01*
X833542Y680706D01*
X835718Y679450D01*
X838144Y678800D01*
X840656D01*
X843082Y679450D01*
X845258Y680706D01*
X847034Y682482D01*
X848290Y684658D01*
X848940Y687084D01*
Y689596D01*
X848290Y692022D01*
X847034Y694198D01*
X845258Y695974D01*
X843082Y697230D01*
X840656Y697880D01*
D02*
G37*
G36*
X331320D02*
X312240D01*
Y678800D01*
X331320D01*
Y697880D01*
D02*
G37*
G36*
X262490Y726515D02*
X212962D01*
X211475Y726219D01*
X210215Y725377D01*
X197317Y712479D01*
X196475Y711219D01*
X196179Y709732D01*
Y704421D01*
X195265Y704043D01*
X193847Y702625D01*
X193080Y700772D01*
Y698767D01*
X193847Y696915D01*
X195265Y695497D01*
X197118Y694730D01*
X199123D01*
X200975Y695497D01*
X202393Y696915D01*
X203160Y698767D01*
Y699490D01*
X203653Y700227D01*
X203949Y701714D01*
Y708123D01*
X211965Y716139D01*
X212897Y715325D01*
X212130Y713473D01*
Y711468D01*
X212897Y709615D01*
X214315Y708197D01*
X216168Y707430D01*
X216890D01*
X217627Y706937D01*
X219114Y706641D01*
X222985D01*
X237829Y691797D01*
X237240Y689596D01*
Y687084D01*
X237890Y684658D01*
X239146Y682482D01*
X240922Y680706D01*
X243097Y679450D01*
X245524Y678800D01*
X248036D01*
X250462Y679450D01*
X252638Y680706D01*
X254414Y682482D01*
X255670Y684658D01*
X256320Y687084D01*
Y689596D01*
X255670Y692022D01*
X254414Y694198D01*
X252638Y695974D01*
X250462Y697230D01*
X248036Y697880D01*
X245524D01*
X243323Y697290D01*
X227341Y713273D01*
X226080Y714115D01*
X224594Y714411D01*
X221821D01*
X221443Y715325D01*
X220025Y716743D01*
X218172Y717510D01*
X218256Y718745D01*
X260881D01*
X287829Y691797D01*
X287240Y689596D01*
Y687084D01*
X287890Y684658D01*
X289146Y682482D01*
X290922Y680706D01*
X293097Y679450D01*
X295524Y678800D01*
X298036D01*
X300462Y679450D01*
X302637Y680706D01*
X304414Y682482D01*
X305669Y684658D01*
X306320Y687084D01*
Y689596D01*
X305669Y692022D01*
X304414Y694198D01*
X302637Y695974D01*
X300462Y697230D01*
X298036Y697880D01*
X295524D01*
X293323Y697290D01*
X265237Y725377D01*
X263976Y726219D01*
X262490Y726515D01*
D02*
G37*
G36*
X273036Y697880D02*
X270524D01*
X268098Y697230D01*
X265922Y695974D01*
X264146Y694198D01*
X262890Y692022D01*
X262240Y689596D01*
Y687084D01*
X262890Y684658D01*
X264146Y682482D01*
X265922Y680706D01*
X268098Y679450D01*
X270524Y678800D01*
X273036D01*
X275462Y679450D01*
X277638Y680706D01*
X279414Y682482D01*
X280670Y684658D01*
X281320Y687084D01*
Y689596D01*
X280670Y692022D01*
X279414Y694198D01*
X277638Y695974D01*
X275462Y697230D01*
X273036Y697880D01*
D02*
G37*
G36*
X1296788Y672211D02*
X1294012D01*
X1291331Y671493D01*
X1288928Y670105D01*
X1286965Y668142D01*
X1285577Y665739D01*
X1284859Y663058D01*
Y660282D01*
X1285577Y657601D01*
X1286965Y655198D01*
X1288928Y653235D01*
X1291331Y651847D01*
X1294012Y651129D01*
X1296788D01*
X1299469Y651847D01*
X1301872Y653235D01*
X1303835Y655198D01*
X1305223Y657601D01*
X1305941Y660282D01*
Y663058D01*
X1305223Y665739D01*
X1303835Y668142D01*
X1301872Y670105D01*
X1299469Y671493D01*
X1296788Y672211D01*
D02*
G37*
G36*
X1271388D02*
X1268612D01*
X1265931Y671493D01*
X1263528Y670105D01*
X1261565Y668142D01*
X1260177Y665739D01*
X1259459Y663058D01*
Y660282D01*
X1260177Y657601D01*
X1261565Y655198D01*
X1263528Y653235D01*
X1265931Y651847D01*
X1268612Y651129D01*
X1271388D01*
X1274069Y651847D01*
X1276472Y653235D01*
X1278435Y655198D01*
X1279823Y657601D01*
X1280541Y660282D01*
Y663058D01*
X1279823Y665739D01*
X1278435Y668142D01*
X1276472Y670105D01*
X1274069Y671493D01*
X1271388Y672211D01*
D02*
G37*
G36*
X1296788Y646811D02*
X1294012D01*
X1291331Y646093D01*
X1288928Y644705D01*
X1286965Y642742D01*
X1285577Y640339D01*
X1284859Y637658D01*
Y634882D01*
X1285577Y632201D01*
X1286965Y629798D01*
X1288928Y627835D01*
X1291331Y626447D01*
X1294012Y625729D01*
X1296788D01*
X1299469Y626447D01*
X1301872Y627835D01*
X1303835Y629798D01*
X1305223Y632201D01*
X1305941Y634882D01*
Y637658D01*
X1305223Y640339D01*
X1303835Y642742D01*
X1301872Y644705D01*
X1299469Y646093D01*
X1296788Y646811D01*
D02*
G37*
G36*
X1271388D02*
X1268612D01*
X1265931Y646093D01*
X1263528Y644705D01*
X1261565Y642742D01*
X1260177Y640339D01*
X1259459Y637658D01*
Y634882D01*
X1260177Y632201D01*
X1261565Y629798D01*
X1263528Y627835D01*
X1265931Y626447D01*
X1268612Y625729D01*
X1271388D01*
X1274069Y626447D01*
X1276472Y627835D01*
X1278435Y629798D01*
X1279823Y632201D01*
X1280541Y634882D01*
Y637658D01*
X1279823Y640339D01*
X1278435Y642742D01*
X1276472Y644705D01*
X1274069Y646093D01*
X1271388Y646811D01*
D02*
G37*
G36*
X1296788Y596011D02*
X1294012D01*
X1291331Y595293D01*
X1288928Y593905D01*
X1286965Y591942D01*
X1285577Y589539D01*
X1284859Y586858D01*
Y584082D01*
X1285577Y581401D01*
X1286965Y578998D01*
X1288928Y577035D01*
X1291331Y575647D01*
X1294012Y574929D01*
X1296788D01*
X1299469Y575647D01*
X1301872Y577035D01*
X1303835Y578998D01*
X1305223Y581401D01*
X1305941Y584082D01*
Y586858D01*
X1305223Y589539D01*
X1303835Y591942D01*
X1301872Y593905D01*
X1299469Y595293D01*
X1296788Y596011D01*
D02*
G37*
G36*
X1271388D02*
X1268612D01*
X1265931Y595293D01*
X1263528Y593905D01*
X1261565Y591942D01*
X1260177Y589539D01*
X1259459Y586858D01*
Y584082D01*
X1260177Y581401D01*
X1261565Y578998D01*
X1263528Y577035D01*
X1265931Y575647D01*
X1268612Y574929D01*
X1271388D01*
X1274069Y575647D01*
X1276472Y577035D01*
X1278435Y578998D01*
X1279823Y581401D01*
X1280541Y584082D01*
Y586858D01*
X1279823Y589539D01*
X1278435Y591942D01*
X1276472Y593905D01*
X1274069Y595293D01*
X1271388Y596011D01*
D02*
G37*
G36*
X1296788Y570611D02*
X1294012D01*
X1291331Y569893D01*
X1288928Y568505D01*
X1286965Y566542D01*
X1285577Y564139D01*
X1284859Y561458D01*
Y558682D01*
X1285577Y556001D01*
X1286965Y553598D01*
X1288928Y551635D01*
X1291331Y550247D01*
X1294012Y549529D01*
X1296788D01*
X1299469Y550247D01*
X1301872Y551635D01*
X1303835Y553598D01*
X1305223Y556001D01*
X1305941Y558682D01*
Y561458D01*
X1305223Y564139D01*
X1303835Y566542D01*
X1301872Y568505D01*
X1299469Y569893D01*
X1296788Y570611D01*
D02*
G37*
G36*
X1271388D02*
X1268612D01*
X1265931Y569893D01*
X1263528Y568505D01*
X1261565Y566542D01*
X1260177Y564139D01*
X1259459Y561458D01*
Y558682D01*
X1260177Y556001D01*
X1261565Y553598D01*
X1263528Y551635D01*
X1265931Y550247D01*
X1268612Y549529D01*
X1271388D01*
X1274069Y550247D01*
X1276472Y551635D01*
X1278435Y553598D01*
X1279823Y556001D01*
X1280541Y558682D01*
Y561458D01*
X1279823Y564139D01*
X1278435Y566542D01*
X1276472Y568505D01*
X1274069Y569893D01*
X1271388Y570611D01*
D02*
G37*
G36*
X1296788Y545211D02*
X1294012D01*
X1291331Y544493D01*
X1288928Y543105D01*
X1286965Y541142D01*
X1285577Y538739D01*
X1284859Y536058D01*
Y533282D01*
X1285577Y530601D01*
X1286965Y528198D01*
X1288928Y526235D01*
X1291331Y524847D01*
X1294012Y524129D01*
X1296788D01*
X1299469Y524847D01*
X1301872Y526235D01*
X1303835Y528198D01*
X1305223Y530601D01*
X1305941Y533282D01*
Y536058D01*
X1305223Y538739D01*
X1303835Y541142D01*
X1301872Y543105D01*
X1299469Y544493D01*
X1296788Y545211D01*
D02*
G37*
G36*
X1271388D02*
X1268612D01*
X1265931Y544493D01*
X1263528Y543105D01*
X1261565Y541142D01*
X1260177Y538739D01*
X1259459Y536058D01*
Y533282D01*
X1260177Y530601D01*
X1261565Y528198D01*
X1263528Y526235D01*
X1265931Y524847D01*
X1268612Y524129D01*
X1271388D01*
X1274069Y524847D01*
X1276472Y526235D01*
X1278435Y528198D01*
X1279823Y530601D01*
X1280541Y533282D01*
Y536058D01*
X1279823Y538739D01*
X1278435Y541142D01*
X1276472Y543105D01*
X1274069Y544493D01*
X1271388Y545211D01*
D02*
G37*
G36*
X459160Y583240D02*
X445080D01*
Y570160D01*
X447723D01*
Y527411D01*
X447351Y526511D01*
Y524506D01*
X448118Y522654D01*
X449536Y521236D01*
X451389Y520469D01*
X453394D01*
X455246Y521236D01*
X456664Y522654D01*
X457431Y524506D01*
Y526511D01*
X456788Y528065D01*
Y570160D01*
X459160D01*
Y583240D01*
D02*
G37*
G36*
X692840Y579430D02*
X678760D01*
Y566350D01*
X680620D01*
Y530860D01*
X681015Y528878D01*
X682138Y527197D01*
X689007Y520327D01*
X689602Y519930D01*
X689815Y519717D01*
X690093Y519602D01*
X690688Y519205D01*
X691389Y519065D01*
X691667Y518950D01*
X691969D01*
X692670Y518811D01*
X693371Y518950D01*
X693672D01*
X693951Y519065D01*
X694652Y519205D01*
X695247Y519602D01*
X695525Y519717D01*
X695738Y519930D01*
X696332Y520327D01*
X696730Y520922D01*
X696943Y521135D01*
X697058Y521413D01*
X697455Y522008D01*
X697595Y522709D01*
X697710Y522988D01*
Y523289D01*
X697850Y523990D01*
X697710Y524692D01*
Y524992D01*
X697595Y525271D01*
X697455Y525972D01*
X697058Y526567D01*
X696943Y526845D01*
X696730Y527058D01*
X696332Y527653D01*
X690980Y533005D01*
Y566350D01*
X692840D01*
Y579430D01*
D02*
G37*
G36*
X179805Y684530D02*
X177800D01*
X175948Y683763D01*
X174530Y682345D01*
X173762Y680492D01*
Y678487D01*
X173955Y678022D01*
X173915Y677822D01*
Y531550D01*
X168590D01*
Y514219D01*
X167416Y513733D01*
X156932Y524217D01*
Y561270D01*
X159440D01*
Y574350D01*
X145360D01*
Y561270D01*
X147868D01*
Y522340D01*
X148213Y520606D01*
X149195Y519135D01*
X168993Y499337D01*
X168590Y497831D01*
Y495309D01*
X169243Y492872D01*
X170504Y490688D01*
X172288Y488904D01*
X174472Y487643D01*
X176909Y486990D01*
X179431D01*
X181868Y487643D01*
X184052Y488904D01*
X185836Y490688D01*
X187097Y492872D01*
X187750Y495309D01*
Y497831D01*
X187097Y500268D01*
X185836Y502452D01*
X184052Y504236D01*
X181868Y505497D01*
X179431Y506150D01*
X176909D01*
X175403Y505746D01*
X169932Y511217D01*
X170418Y512390D01*
X187750D01*
Y531550D01*
X181685D01*
Y675245D01*
X183075Y676635D01*
X183843Y678487D01*
Y680492D01*
X183075Y682345D01*
X181657Y683763D01*
X179805Y684530D01*
D02*
G37*
G36*
X954460Y575740D02*
X940380D01*
Y562660D01*
X942988D01*
Y530358D01*
X941738Y529636D01*
X939954Y527852D01*
X938693Y525668D01*
X938040Y523231D01*
Y520709D01*
X938444Y519203D01*
X924987Y505746D01*
X923481Y506150D01*
X920959D01*
X918522Y505497D01*
X916338Y504236D01*
X914554Y502452D01*
X913293Y500268D01*
X912640Y497831D01*
Y495309D01*
X913293Y492872D01*
X914554Y490688D01*
X916338Y488904D01*
X918522Y487643D01*
X920959Y486990D01*
X923481D01*
X925918Y487643D01*
X928102Y488904D01*
X929886Y490688D01*
X931147Y492872D01*
X931800Y495309D01*
Y497831D01*
X931397Y499337D01*
X944853Y512794D01*
X946359Y512390D01*
X948881D01*
X951318Y513043D01*
X953502Y514304D01*
X955286Y516088D01*
X956547Y518272D01*
X957200Y520709D01*
Y523231D01*
X956547Y525668D01*
X955286Y527852D01*
X953502Y529636D01*
X952052Y530473D01*
Y562660D01*
X954460D01*
Y575740D01*
D02*
G37*
G36*
X921752Y547330D02*
X919747D01*
X917895Y546563D01*
X916477Y545145D01*
X915710Y543293D01*
Y541287D01*
X916477Y539435D01*
X916965Y538947D01*
Y529998D01*
X916338Y529636D01*
X914554Y527852D01*
X913293Y525668D01*
X912640Y523231D01*
Y520709D01*
X913293Y518272D01*
X914554Y516088D01*
X916338Y514304D01*
X918522Y513043D01*
X920959Y512390D01*
X923481D01*
X925918Y513043D01*
X928102Y514304D01*
X929886Y516088D01*
X931147Y518272D01*
X931800Y520709D01*
Y523231D01*
X931147Y525668D01*
X929886Y527852D01*
X928102Y529636D01*
X925918Y530897D01*
X924735Y531214D01*
Y539147D01*
X925023Y539435D01*
X925790Y541287D01*
Y543293D01*
X925023Y545145D01*
X923605Y546563D01*
X921752Y547330D01*
D02*
G37*
G36*
X870953Y590510D02*
X868948D01*
X867095Y589743D01*
X865677Y588325D01*
X864910Y586473D01*
Y584468D01*
X865677Y582615D01*
X866366Y581927D01*
Y564824D01*
X866661Y563337D01*
X867503Y562077D01*
X868746Y560835D01*
X868398Y559724D01*
X868277Y559565D01*
X854563D01*
X853077Y559269D01*
X851816Y558427D01*
X850292Y556903D01*
X849450Y555642D01*
X849155Y554156D01*
Y549584D01*
X849450Y548097D01*
X850292Y546837D01*
X851816Y545313D01*
X853077Y544471D01*
X853116Y544463D01*
X853405Y543484D01*
X853414Y543109D01*
X851968Y541663D01*
X851126Y540402D01*
X850830Y538916D01*
Y534344D01*
X851126Y532857D01*
X851968Y531597D01*
X853492Y530073D01*
X854753Y529231D01*
X856239Y528935D01*
X863238D01*
X863646Y527665D01*
X862493Y525668D01*
X861840Y523231D01*
Y520709D01*
X862493Y518272D01*
X863754Y516088D01*
X865538Y514304D01*
X867722Y513043D01*
X870159Y512390D01*
X872681D01*
X875118Y513043D01*
X877302Y514304D01*
X879086Y516088D01*
X880347Y518272D01*
X881000Y520709D01*
Y523231D01*
X880347Y525668D01*
X879086Y527852D01*
X877302Y529636D01*
X875118Y530897D01*
X874135Y531161D01*
Y531296D01*
X873839Y532782D01*
X872997Y534043D01*
X871755Y535285D01*
X872103Y536396D01*
X872224Y536555D01*
X885099D01*
X886586Y536851D01*
X887846Y537693D01*
X889370Y539217D01*
X890212Y540477D01*
X890396Y541400D01*
X891665Y541275D01*
Y530056D01*
X890938Y529636D01*
X889154Y527852D01*
X887893Y525668D01*
X887240Y523231D01*
Y520709D01*
X887893Y518272D01*
X889154Y516088D01*
X890938Y514304D01*
X893122Y513043D01*
X895559Y512390D01*
X898081D01*
X900518Y513043D01*
X902702Y514304D01*
X904486Y516088D01*
X905747Y518272D01*
X906400Y520709D01*
Y523231D01*
X905747Y525668D01*
X904486Y527852D01*
X902702Y529636D01*
X900518Y530897D01*
X899435Y531187D01*
Y567187D01*
X899623Y567375D01*
X900390Y569227D01*
Y571232D01*
X899623Y573085D01*
X898205Y574503D01*
X896352Y575270D01*
X894348D01*
X892495Y574503D01*
X891077Y573085D01*
X890310Y571232D01*
Y569227D01*
X891077Y567375D01*
X891665Y566787D01*
Y562465D01*
X890396Y562340D01*
X890212Y563262D01*
X889370Y564523D01*
X887846Y566047D01*
X886586Y566889D01*
X885099Y567184D01*
X874135D01*
Y582527D01*
X874223Y582615D01*
X874990Y584468D01*
Y586473D01*
X874223Y588325D01*
X872805Y589743D01*
X870953Y590510D01*
D02*
G37*
G36*
X852860Y576890D02*
X838780D01*
Y569190D01*
X837823Y567757D01*
X837478Y566023D01*
Y528759D01*
X837823Y527025D01*
X837852Y526982D01*
X837093Y525668D01*
X836440Y523231D01*
Y520709D01*
X837093Y518272D01*
X838354Y516088D01*
X840138Y514304D01*
X842322Y513043D01*
X844759Y512390D01*
X847281D01*
X849718Y513043D01*
X851902Y514304D01*
X853686Y516088D01*
X854947Y518272D01*
X855600Y520709D01*
Y523231D01*
X854947Y525668D01*
X853686Y527852D01*
X851902Y529636D01*
X849718Y530897D01*
X847281Y531550D01*
X846542D01*
Y563810D01*
X852860D01*
Y576890D01*
D02*
G37*
G36*
X333742Y590510D02*
X331738D01*
X329885Y589743D01*
X328467Y588325D01*
X327700Y586473D01*
Y585639D01*
X327431Y585237D01*
X327135Y583750D01*
Y569904D01*
X327431Y568417D01*
X328273Y567157D01*
X329515Y565914D01*
X329167Y564804D01*
X329046Y564645D01*
X321599D01*
X320112Y564349D01*
X318852Y563507D01*
X317328Y561983D01*
X316486Y560722D01*
X316190Y559236D01*
Y554664D01*
X316486Y553177D01*
X317328Y551917D01*
X318852Y550393D01*
X319300Y550094D01*
Y548566D01*
X318852Y548267D01*
X317328Y546743D01*
X316486Y545482D01*
X316190Y543996D01*
Y539424D01*
X316486Y537937D01*
X317328Y536677D01*
X318852Y535153D01*
X320112Y534311D01*
X321599Y534015D01*
X327135D01*
Y530968D01*
X326872Y530897D01*
X324688Y529636D01*
X322904Y527852D01*
X321643Y525668D01*
X320990Y523231D01*
Y520709D01*
X321643Y518272D01*
X322904Y516088D01*
X324688Y514304D01*
X326872Y513043D01*
X329309Y512390D01*
X331831D01*
X334268Y513043D01*
X336452Y514304D01*
X338236Y516088D01*
X339497Y518272D01*
X340150Y520709D01*
Y523231D01*
X339497Y525668D01*
X338236Y527852D01*
X336452Y529636D01*
X334905Y530529D01*
Y536376D01*
X334609Y537862D01*
X333767Y539123D01*
X332524Y540365D01*
X332873Y541476D01*
X332993Y541635D01*
X340244D01*
X341695Y541924D01*
X341923Y541960D01*
X342965Y541241D01*
Y539424D01*
X343261Y537937D01*
X344103Y536677D01*
X345627Y535153D01*
X346887Y534311D01*
X348374Y534015D01*
X351900D01*
Y530682D01*
X350088Y529636D01*
X348304Y527852D01*
X347043Y525668D01*
X346390Y523231D01*
Y520709D01*
X347043Y518272D01*
X348304Y516088D01*
X350088Y514304D01*
X352272Y513043D01*
X354709Y512390D01*
X357231D01*
X359668Y513043D01*
X361852Y514304D01*
X363636Y516088D01*
X364897Y518272D01*
X365550Y520709D01*
Y523231D01*
X364897Y525668D01*
X363636Y527852D01*
X361852Y529636D01*
X359670Y530896D01*
Y536376D01*
X359374Y537862D01*
X358532Y539123D01*
X357008Y540647D01*
X356560Y540946D01*
Y542474D01*
X357008Y542773D01*
X358532Y544297D01*
X359374Y545557D01*
X359670Y547044D01*
Y567172D01*
X359873Y567375D01*
X360640Y569227D01*
Y571232D01*
X359873Y573085D01*
X358455Y574503D01*
X356603Y575270D01*
X354598D01*
X352745Y574503D01*
X351327Y573085D01*
X350560Y571232D01*
Y569227D01*
X351327Y567375D01*
X351900Y566802D01*
Y549404D01*
X348374D01*
X346922Y549116D01*
X346694Y549080D01*
X345652Y549799D01*
Y551616D01*
X345357Y553102D01*
X344515Y554363D01*
X342990Y555887D01*
X342542Y556186D01*
Y557714D01*
X342990Y558013D01*
X344515Y559537D01*
X345357Y560797D01*
X345652Y562284D01*
Y566856D01*
X345357Y568342D01*
X344515Y569603D01*
X342990Y571127D01*
X341730Y571969D01*
X340244Y572265D01*
X334905D01*
Y580911D01*
X335595Y581197D01*
X337013Y582615D01*
X337780Y584468D01*
Y586473D01*
X337013Y588325D01*
X335595Y589743D01*
X333742Y590510D01*
D02*
G37*
G36*
X306172Y610460D02*
X304167D01*
X302315Y609693D01*
X300897Y608275D01*
X300130Y606423D01*
Y604418D01*
X300897Y602565D01*
X301285Y602177D01*
Y530789D01*
X299288Y529636D01*
X297504Y527852D01*
X296243Y525668D01*
X295590Y523231D01*
Y520709D01*
X296243Y518272D01*
X297504Y516088D01*
X299288Y514304D01*
X301472Y513043D01*
X303909Y512390D01*
X306431D01*
X308868Y513043D01*
X311052Y514304D01*
X312836Y516088D01*
X314097Y518272D01*
X314750Y520709D01*
Y523231D01*
X314097Y525668D01*
X312836Y527852D01*
X311052Y529636D01*
X309055Y530789D01*
Y602177D01*
X309443Y602565D01*
X310210Y604418D01*
Y606423D01*
X309443Y608275D01*
X308025Y609693D01*
X306172Y610460D01*
D02*
G37*
G36*
X280587Y624615D02*
X278582D01*
X276730Y623848D01*
X275312Y622430D01*
X274545Y620578D01*
Y618573D01*
X275312Y616720D01*
X275700Y616332D01*
Y530682D01*
X273888Y529636D01*
X272104Y527852D01*
X270843Y525668D01*
X270190Y523231D01*
Y520709D01*
X270843Y518272D01*
X272104Y516088D01*
X273888Y514304D01*
X276072Y513043D01*
X278509Y512390D01*
X281031D01*
X283468Y513043D01*
X285652Y514304D01*
X287436Y516088D01*
X288697Y518272D01*
X289350Y520709D01*
Y523231D01*
X288697Y525668D01*
X287436Y527852D01*
X285652Y529636D01*
X283470Y530896D01*
Y616332D01*
X283858Y616720D01*
X284625Y618573D01*
Y620578D01*
X283858Y622430D01*
X282440Y623848D01*
X280587Y624615D01*
D02*
G37*
G36*
X255270Y649045D02*
X253783Y648749D01*
X252523Y647907D01*
X252073Y647457D01*
X251231Y646197D01*
X250935Y644710D01*
Y530968D01*
X250672Y530897D01*
X248488Y529636D01*
X246704Y527852D01*
X245443Y525668D01*
X244790Y523231D01*
Y520709D01*
X245443Y518272D01*
X246704Y516088D01*
X248488Y514304D01*
X250672Y513043D01*
X253109Y512390D01*
X255631D01*
X258068Y513043D01*
X260252Y514304D01*
X262036Y516088D01*
X263297Y518272D01*
X263950Y520709D01*
Y523231D01*
X263297Y525668D01*
X262036Y527852D01*
X260252Y529636D01*
X258705Y530529D01*
Y639331D01*
X259395Y639617D01*
X260813Y641035D01*
X261580Y642887D01*
Y644893D01*
X260813Y646745D01*
X259395Y648163D01*
X257542Y648930D01*
X255846D01*
X255270Y649045D01*
D02*
G37*
G36*
X229972Y667080D02*
X227967D01*
X226115Y666312D01*
X224697Y664895D01*
X223930Y663042D01*
Y661037D01*
X224697Y659185D01*
X225085Y658797D01*
Y640844D01*
X219988D01*
X218502Y640549D01*
X217241Y639707D01*
X215718Y638183D01*
X214875Y636922D01*
X214580Y635436D01*
Y539424D01*
X214875Y537937D01*
X215718Y536677D01*
X217241Y535153D01*
X218502Y534311D01*
X219988Y534015D01*
X225085D01*
Y530789D01*
X223088Y529636D01*
X221304Y527852D01*
X220043Y525668D01*
X219390Y523231D01*
Y520709D01*
X220043Y518272D01*
X221304Y516088D01*
X223088Y514304D01*
X225272Y513043D01*
X227709Y512390D01*
X230231D01*
X232668Y513043D01*
X234852Y514304D01*
X236636Y516088D01*
X237897Y518272D01*
X238550Y520709D01*
Y523231D01*
X237897Y525668D01*
X236636Y527852D01*
X234852Y529636D01*
X232854Y530789D01*
Y536376D01*
X232559Y537862D01*
X231717Y539123D01*
X230193Y540647D01*
X228932Y541489D01*
X227446Y541785D01*
X222349D01*
Y633075D01*
X227446D01*
X228932Y633371D01*
X230193Y634213D01*
X231717Y635737D01*
X232559Y636997D01*
X232854Y638484D01*
Y658797D01*
X233242Y659185D01*
X234010Y661037D01*
Y663042D01*
X233242Y664895D01*
X231825Y666312D01*
X229972Y667080D01*
D02*
G37*
G36*
X717550Y684530D02*
X715545D01*
X713693Y683763D01*
X712275Y682345D01*
X711507Y680492D01*
Y678487D01*
X712275Y676635D01*
X713133Y675776D01*
Y529632D01*
X711354Y527852D01*
X710093Y525668D01*
X709440Y523231D01*
Y520709D01*
X710093Y518272D01*
X711354Y516088D01*
X713138Y514304D01*
X715322Y513043D01*
X717070Y512575D01*
X716903Y511305D01*
X674967D01*
X674626Y512575D01*
X675044Y512816D01*
X677174Y514946D01*
X678680Y517554D01*
X679460Y520464D01*
Y523476D01*
X678680Y526386D01*
X677174Y528994D01*
X675044Y531124D01*
X672436Y532630D01*
X669526Y533410D01*
X666514D01*
X663604Y532630D01*
X660996Y531124D01*
X658866Y528994D01*
X657360Y526386D01*
X656580Y523476D01*
Y520464D01*
X657360Y517554D01*
X658866Y514946D01*
X660996Y512816D01*
X661413Y512575D01*
X661073Y511305D01*
X637404D01*
Y515836D01*
X637109Y517323D01*
X636267Y518583D01*
X634743Y520107D01*
X633482Y520949D01*
X631996Y521245D01*
X627424D01*
X625937Y520949D01*
X624677Y520107D01*
X623153Y518583D01*
X622853Y518135D01*
X621326D01*
X621026Y518583D01*
X619502Y520107D01*
X618242Y520949D01*
X616756Y521245D01*
X612184D01*
X610697Y520949D01*
X609437Y520107D01*
X607913Y518583D01*
X607613Y518135D01*
X606086D01*
X605787Y518583D01*
X604263Y520107D01*
X603002Y520949D01*
X601516Y521245D01*
X596944D01*
X595457Y520949D01*
X594197Y520107D01*
X592673Y518583D01*
X592373Y518135D01*
X590846D01*
X590546Y518583D01*
X589022Y520107D01*
X587762Y520949D01*
X586276Y521245D01*
X581704D01*
X580217Y520949D01*
X578957Y520107D01*
X577433Y518583D01*
X577133Y518135D01*
X575606D01*
X575307Y518583D01*
X573783Y520107D01*
X572522Y520949D01*
X571036Y521245D01*
X566464D01*
X564977Y520949D01*
X563717Y520107D01*
X562193Y518583D01*
X561893Y518135D01*
X560366D01*
X560066Y518583D01*
X558543Y520107D01*
X557282Y520949D01*
X555796Y521245D01*
X551224D01*
X549737Y520949D01*
X548477Y520107D01*
X546953Y518583D01*
X546653Y518135D01*
X545126D01*
X544827Y518583D01*
X543302Y520107D01*
X542042Y520949D01*
X540556Y521245D01*
X535984D01*
X534497Y520949D01*
X533237Y520107D01*
X531713Y518583D01*
X531413Y518135D01*
X529886D01*
X529586Y518583D01*
X528063Y520107D01*
X526802Y520949D01*
X525316Y521245D01*
X520744D01*
X519257Y520949D01*
X517997Y520107D01*
X516473Y518583D01*
X516173Y518135D01*
X514646D01*
X514347Y518583D01*
X512822Y520107D01*
X511562Y520949D01*
X510076Y521245D01*
X505504D01*
X504017Y520949D01*
X502757Y520107D01*
X501233Y518583D01*
X500391Y517323D01*
X500095Y515836D01*
Y503106D01*
X469764D01*
Y505896D01*
X469469Y507382D01*
X468627Y508643D01*
X467103Y510167D01*
X465842Y511009D01*
X464356Y511305D01*
X434287D01*
X434120Y512575D01*
X435868Y513043D01*
X438052Y514304D01*
X439836Y516088D01*
X441097Y518272D01*
X441750Y520709D01*
Y523231D01*
X441097Y525668D01*
X439836Y527852D01*
X438052Y529636D01*
X435868Y530897D01*
X433431Y531550D01*
X430909D01*
X428472Y530897D01*
X426288Y529636D01*
X424504Y527852D01*
X423243Y525668D01*
X422590Y523231D01*
Y520709D01*
X423243Y518272D01*
X424504Y516088D01*
X426288Y514304D01*
X428472Y513043D01*
X430220Y512575D01*
X430053Y511305D01*
X402276D01*
X400789Y511009D01*
X399521Y511689D01*
Y571864D01*
X399771Y573121D01*
X399426Y574855D01*
X398444Y576326D01*
X398200Y576569D01*
Y583240D01*
X384120D01*
Y570160D01*
X390457D01*
Y527931D01*
X389187Y527590D01*
X389036Y527852D01*
X387252Y529636D01*
X385705Y530529D01*
Y538597D01*
X386543Y539435D01*
X387310Y541287D01*
Y543293D01*
X386543Y545145D01*
X385125Y546563D01*
X383273Y547330D01*
X381268D01*
X379415Y546563D01*
X377997Y545145D01*
X377230Y543293D01*
Y541287D01*
X377935Y539585D01*
Y530968D01*
X377672Y530897D01*
X375488Y529636D01*
X373704Y527852D01*
X372443Y525668D01*
X371790Y523231D01*
Y520709D01*
X372443Y518272D01*
X373704Y516088D01*
X375488Y514304D01*
X377672Y513043D01*
X380109Y512390D01*
X382631D01*
X385068Y513043D01*
X387252Y514304D01*
X389036Y516088D01*
X389187Y516349D01*
X390457Y516009D01*
Y512066D01*
X384137Y505746D01*
X382631Y506150D01*
X380109D01*
X377672Y505497D01*
X375488Y504236D01*
X373704Y502452D01*
X372443Y500268D01*
X371790Y497831D01*
Y495309D01*
X372443Y492872D01*
X373596Y490875D01*
X373188Y489605D01*
X364152D01*
X363744Y490875D01*
X364897Y492872D01*
X365550Y495309D01*
Y497831D01*
X364897Y500268D01*
X363636Y502452D01*
X361852Y504236D01*
X359668Y505497D01*
X357231Y506150D01*
X354709D01*
X352272Y505497D01*
X350088Y504236D01*
X348304Y502452D01*
X347043Y500268D01*
X346390Y497831D01*
Y495309D01*
X347043Y492872D01*
X348196Y490875D01*
X347788Y489605D01*
X338752D01*
X338344Y490875D01*
X339497Y492872D01*
X340150Y495309D01*
Y497831D01*
X339497Y500268D01*
X338236Y502452D01*
X336452Y504236D01*
X334268Y505497D01*
X331831Y506150D01*
X329309D01*
X326872Y505497D01*
X324688Y504236D01*
X322904Y502452D01*
X321643Y500268D01*
X320990Y497831D01*
Y495309D01*
X321643Y492872D01*
X322796Y490875D01*
X322388Y489605D01*
X313352D01*
X312944Y490875D01*
X314097Y492872D01*
X314750Y495309D01*
Y497831D01*
X314097Y500268D01*
X312836Y502452D01*
X311052Y504236D01*
X308868Y505497D01*
X306431Y506150D01*
X303909D01*
X301472Y505497D01*
X299288Y504236D01*
X297504Y502452D01*
X296243Y500268D01*
X295590Y497831D01*
Y495309D01*
X296243Y492872D01*
X297396Y490875D01*
X296988Y489605D01*
X266829D01*
X263353Y493081D01*
X263950Y495309D01*
Y497831D01*
X263297Y500268D01*
X262036Y502452D01*
X260252Y504236D01*
X258068Y505497D01*
X255631Y506150D01*
X253109D01*
X250672Y505497D01*
X248488Y504236D01*
X246704Y502452D01*
X245443Y500268D01*
X244790Y497831D01*
Y495309D01*
X245443Y492872D01*
X246704Y490688D01*
X248488Y488904D01*
X250672Y487643D01*
X253109Y486990D01*
X255631D01*
X257859Y487587D01*
X262473Y482973D01*
X263733Y482131D01*
X265220Y481835D01*
X277652D01*
X277819Y480565D01*
X276072Y480097D01*
X273888Y478836D01*
X272104Y477052D01*
X270843Y474868D01*
X270190Y472431D01*
Y469909D01*
X270843Y467472D01*
X272104Y465288D01*
X273888Y463504D01*
X276072Y462243D01*
X278509Y461590D01*
X281031D01*
X283468Y462243D01*
X285652Y463504D01*
X287436Y465288D01*
X288697Y467472D01*
X289350Y469909D01*
Y472431D01*
X288697Y474868D01*
X287436Y477052D01*
X285652Y478836D01*
X283468Y480097D01*
X281720Y480565D01*
X281887Y481835D01*
X303052D01*
X303219Y480565D01*
X301472Y480097D01*
X299288Y478836D01*
X297504Y477052D01*
X296243Y474868D01*
X295590Y472431D01*
Y469909D01*
X296243Y467472D01*
X297504Y465288D01*
X299288Y463504D01*
X301472Y462243D01*
X303909Y461590D01*
X306431D01*
X308659Y462187D01*
X320203Y450643D01*
X321463Y449801D01*
X322950Y449505D01*
X331586D01*
X333072Y449801D01*
X334333Y450643D01*
X335857Y452167D01*
X336005Y452389D01*
X336064Y452411D01*
X337474Y452302D01*
X337983Y451540D01*
X339507Y450016D01*
X340767Y449174D01*
X342254Y448879D01*
X346826D01*
X348312Y449174D01*
X349573Y450016D01*
X351097Y451540D01*
X351396Y451988D01*
X352924D01*
X353223Y451540D01*
X354747Y450016D01*
X356007Y449174D01*
X357494Y448879D01*
X362066D01*
X363552Y449174D01*
X364813Y450016D01*
X366337Y451540D01*
X366846Y452302D01*
X368255Y452411D01*
X368315Y452389D01*
X368463Y452167D01*
X369987Y450643D01*
X371247Y449801D01*
X372734Y449505D01*
X387350D01*
X388837Y449801D01*
X390097Y450643D01*
X392769Y453315D01*
X399108D01*
X399594Y452142D01*
X399104Y451652D01*
X397843Y449468D01*
X397190Y447031D01*
Y444509D01*
X397843Y442072D01*
X399104Y439888D01*
X400888Y438104D01*
X403072Y436843D01*
X404820Y436375D01*
X404653Y435104D01*
X392220D01*
X390733Y434809D01*
X389473Y433967D01*
X384859Y429353D01*
X382631Y429950D01*
X380109D01*
X377672Y429297D01*
X375488Y428036D01*
X373704Y426252D01*
X372443Y424068D01*
X371790Y421631D01*
Y419109D01*
X372443Y416672D01*
X373704Y414488D01*
X375488Y412704D01*
X377672Y411443D01*
X380109Y410790D01*
X382631D01*
X385068Y411443D01*
X387252Y412704D01*
X389036Y414488D01*
X390297Y416672D01*
X390950Y419109D01*
Y421631D01*
X390353Y423859D01*
X393829Y427335D01*
X398588D01*
X398996Y426065D01*
X397843Y424068D01*
X397190Y421631D01*
Y419109D01*
X397843Y416672D01*
X399104Y414488D01*
X400888Y412704D01*
X403072Y411443D01*
X405509Y410790D01*
X408031D01*
X410259Y411387D01*
X418573Y403073D01*
X419833Y402231D01*
X421320Y401935D01*
X736238D01*
X736646Y400665D01*
X735493Y398668D01*
X734840Y396231D01*
Y393709D01*
X735493Y391272D01*
X736754Y389088D01*
X738538Y387304D01*
X740722Y386043D01*
X742470Y385574D01*
X742303Y384305D01*
X422929D01*
X415753Y391481D01*
X416350Y393709D01*
Y396231D01*
X415697Y398668D01*
X414436Y400852D01*
X412652Y402636D01*
X410468Y403897D01*
X408031Y404550D01*
X405509D01*
X403072Y403897D01*
X400888Y402636D01*
X399104Y400852D01*
X397843Y398668D01*
X397190Y396231D01*
Y393709D01*
X397843Y391272D01*
X399104Y389088D01*
X400888Y387304D01*
X403072Y386043D01*
X405509Y385390D01*
X408031D01*
X410259Y385987D01*
X418573Y377673D01*
X419833Y376831D01*
X421320Y376535D01*
X710838D01*
X711246Y375265D01*
X710093Y373268D01*
X709440Y370831D01*
Y368309D01*
X710093Y365872D01*
X711354Y363688D01*
X713138Y361904D01*
X715322Y360643D01*
X717070Y360174D01*
X716903Y358904D01*
X422929D01*
X415753Y366081D01*
X416350Y368309D01*
Y370831D01*
X415697Y373268D01*
X414436Y375452D01*
X412652Y377236D01*
X410468Y378497D01*
X408031Y379150D01*
X405509D01*
X403072Y378497D01*
X400888Y377236D01*
X399104Y375452D01*
X397843Y373268D01*
X397190Y370831D01*
Y368309D01*
X397843Y365872D01*
X399104Y363688D01*
X400888Y361904D01*
X403072Y360643D01*
X405509Y359990D01*
X408031D01*
X410259Y360587D01*
X418573Y352273D01*
X419833Y351431D01*
X421320Y351135D01*
X736238D01*
X736646Y349865D01*
X735493Y347868D01*
X734840Y345431D01*
Y342909D01*
X735493Y340472D01*
X736754Y338288D01*
X738417Y336625D01*
X738264Y335481D01*
X738230Y335355D01*
X674815D01*
Y337248D01*
X674519Y338735D01*
X673677Y339995D01*
X672153Y341519D01*
X670892Y342361D01*
X669406Y342657D01*
X664834D01*
X663347Y342361D01*
X662087Y341519D01*
X660563Y339995D01*
X660264Y339547D01*
X658736D01*
X658437Y339995D01*
X656913Y341519D01*
X655652Y342361D01*
X654166Y342657D01*
X649594D01*
X648107Y342361D01*
X646847Y341519D01*
X645323Y339995D01*
X645024Y339547D01*
X643496D01*
X643197Y339995D01*
X641673Y341519D01*
X640412Y342361D01*
X638926Y342657D01*
X634354D01*
X632867Y342361D01*
X631607Y341519D01*
X630083Y339995D01*
X629784Y339547D01*
X628256D01*
X627957Y339995D01*
X626433Y341519D01*
X625172Y342361D01*
X623686Y342657D01*
X619114D01*
X617627Y342361D01*
X616367Y341519D01*
X614843Y339995D01*
X614544Y339547D01*
X613016D01*
X612717Y339995D01*
X611193Y341519D01*
X609932Y342361D01*
X608446Y342657D01*
X603874D01*
X602387Y342361D01*
X601127Y341519D01*
X599603Y339995D01*
X599304Y339547D01*
X597776D01*
X597477Y339995D01*
X595953Y341519D01*
X594692Y342361D01*
X593206Y342657D01*
X588634D01*
X587147Y342361D01*
X585887Y341519D01*
X584363Y339995D01*
X584064Y339547D01*
X582536D01*
X582237Y339995D01*
X580713Y341519D01*
X579452Y342361D01*
X577966Y342657D01*
X573394D01*
X571907Y342361D01*
X570647Y341519D01*
X569123Y339995D01*
X568824Y339547D01*
X567296D01*
X566997Y339995D01*
X565473Y341519D01*
X564212Y342361D01*
X562726Y342657D01*
X558154D01*
X556667Y342361D01*
X555407Y341519D01*
X553883Y339995D01*
X553584Y339547D01*
X552056D01*
X551757Y339995D01*
X550233Y341519D01*
X548972Y342361D01*
X547486Y342657D01*
X542914D01*
X541427Y342361D01*
X540167Y341519D01*
X538643Y339995D01*
X538344Y339547D01*
X536816D01*
X536517Y339995D01*
X534993Y341519D01*
X533732Y342361D01*
X532246Y342657D01*
X527674D01*
X526187Y342361D01*
X524927Y341519D01*
X523403Y339995D01*
X523104Y339547D01*
X521576D01*
X521277Y339995D01*
X519753Y341519D01*
X518492Y342361D01*
X517006Y342657D01*
X512434D01*
X510947Y342361D01*
X509687Y341519D01*
X508163Y339995D01*
X507864Y339547D01*
X506336D01*
X506037Y339995D01*
X504513Y341519D01*
X503252Y342361D01*
X501766Y342657D01*
X497194D01*
X495707Y342361D01*
X494447Y341519D01*
X492923Y339995D01*
X492624Y339547D01*
X491096D01*
X490797Y339995D01*
X489273Y341519D01*
X488012Y342361D01*
X486526Y342657D01*
X481954D01*
X480467Y342361D01*
X479207Y341519D01*
X477683Y339995D01*
X477384Y339547D01*
X475856D01*
X475557Y339995D01*
X474033Y341519D01*
X472772Y342361D01*
X471286Y342657D01*
X466714D01*
X465227Y342361D01*
X463967Y341519D01*
X462443Y339995D01*
X462144Y339547D01*
X460616D01*
X460317Y339995D01*
X458793Y341519D01*
X457532Y342361D01*
X456046Y342657D01*
X451474D01*
X449987Y342361D01*
X448727Y341519D01*
X447203Y339995D01*
X446361Y338735D01*
X446065Y337248D01*
Y335355D01*
X412960D01*
X412926Y335481D01*
X412773Y336625D01*
X414436Y338288D01*
X415697Y340472D01*
X416350Y342909D01*
Y345431D01*
X415697Y347868D01*
X414436Y350052D01*
X412652Y351836D01*
X410468Y353097D01*
X408031Y353750D01*
X405509D01*
X403072Y353097D01*
X400888Y351836D01*
X399104Y350052D01*
X397843Y347868D01*
X397190Y345431D01*
Y342909D01*
X397843Y340472D01*
X399104Y338288D01*
X400767Y336625D01*
X400614Y335481D01*
X400580Y335355D01*
X317870D01*
X316383Y335059D01*
X315123Y334217D01*
X308659Y327753D01*
X306431Y328350D01*
X303909D01*
X301472Y327697D01*
X299288Y326436D01*
X297504Y324652D01*
X296243Y322468D01*
X295590Y320031D01*
Y317509D01*
X296243Y315072D01*
X297504Y312888D01*
X299288Y311104D01*
X301472Y309843D01*
X303220Y309375D01*
X303053Y308104D01*
X281887D01*
X281720Y309375D01*
X283468Y309843D01*
X285652Y311104D01*
X287436Y312888D01*
X288697Y315072D01*
X289350Y317509D01*
Y320031D01*
X288697Y322468D01*
X287436Y324652D01*
X285652Y326436D01*
X283468Y327697D01*
X281031Y328350D01*
X278509D01*
X276072Y327697D01*
X273888Y326436D01*
X272104Y324652D01*
X270843Y322468D01*
X270190Y320031D01*
Y317509D01*
X270843Y315072D01*
X272104Y312888D01*
X273888Y311104D01*
X276072Y309843D01*
X277820Y309375D01*
X277653Y308104D01*
X214420D01*
X212933Y307809D01*
X211673Y306967D01*
X207059Y302353D01*
X204831Y302950D01*
X202309D01*
X199872Y302297D01*
X197688Y301036D01*
X195904Y299252D01*
X194643Y297068D01*
X193990Y294631D01*
Y292109D01*
X194643Y289672D01*
X195904Y287488D01*
X197688Y285704D01*
X199872Y284443D01*
X202309Y283790D01*
X204831D01*
X207268Y284443D01*
X209452Y285704D01*
X211236Y287488D01*
X212497Y289672D01*
X213150Y292109D01*
Y294631D01*
X212553Y296859D01*
X216029Y300335D01*
X220788D01*
X221196Y299065D01*
X220043Y297068D01*
X219390Y294631D01*
Y292109D01*
X219793Y290603D01*
X206337Y277146D01*
X204831Y277550D01*
X202309D01*
X199872Y276897D01*
X197688Y275636D01*
X195904Y273852D01*
X194643Y271668D01*
X193990Y269231D01*
Y266709D01*
X194643Y264272D01*
X195904Y262088D01*
X197688Y260304D01*
X198853Y259631D01*
Y227400D01*
X196160D01*
Y214320D01*
X210240D01*
Y227400D01*
X207917D01*
Y259418D01*
X209452Y260304D01*
X211236Y262088D01*
X212497Y264272D01*
X213150Y266709D01*
Y269231D01*
X212746Y270737D01*
X226203Y284193D01*
X227709Y283790D01*
X230231D01*
X232668Y284443D01*
X234852Y285704D01*
X236636Y287488D01*
X237897Y289672D01*
X238550Y292109D01*
Y294631D01*
X237897Y297068D01*
X236744Y299065D01*
X237152Y300335D01*
X246188D01*
X246596Y299065D01*
X245443Y297068D01*
X244790Y294631D01*
Y292109D01*
X245443Y289672D01*
X246704Y287488D01*
X248488Y285704D01*
X250672Y284443D01*
X253109Y283790D01*
X255631D01*
X258068Y284443D01*
X260252Y285704D01*
X262036Y287488D01*
X263297Y289672D01*
X263950Y292109D01*
Y294631D01*
X263297Y297068D01*
X262144Y299065D01*
X262552Y300335D01*
X271588D01*
X271996Y299065D01*
X270843Y297068D01*
X270190Y294631D01*
Y292109D01*
X270843Y289672D01*
X272104Y287488D01*
X273888Y285704D01*
X276072Y284443D01*
X278509Y283790D01*
X281031D01*
X283468Y284443D01*
X285652Y285704D01*
X287436Y287488D01*
X288697Y289672D01*
X289350Y292109D01*
Y294631D01*
X288697Y297068D01*
X287544Y299065D01*
X287952Y300335D01*
X322388D01*
X322796Y299065D01*
X321643Y297068D01*
X320990Y294631D01*
Y292109D01*
X321587Y289881D01*
X313483Y281777D01*
X312641Y280517D01*
X312345Y279030D01*
Y276002D01*
X311172Y275516D01*
X311052Y275636D01*
X308868Y276897D01*
X306431Y277550D01*
X303909D01*
X301472Y276897D01*
X299288Y275636D01*
X297504Y273852D01*
X296243Y271668D01*
X295590Y269231D01*
Y266709D01*
X296243Y264272D01*
X296828Y263258D01*
X295245Y261676D01*
X294263Y260205D01*
X293918Y258471D01*
Y231210D01*
X291410D01*
Y218130D01*
X305490D01*
Y231210D01*
X302982D01*
Y256594D01*
X304778Y258390D01*
X306431D01*
X308868Y259043D01*
X311052Y260304D01*
X311172Y260424D01*
X312345Y259938D01*
Y188035D01*
X308403D01*
X306917Y187739D01*
X305656Y186897D01*
X304132Y185373D01*
X303290Y184113D01*
X302995Y182626D01*
Y178054D01*
X303290Y176567D01*
X304132Y175307D01*
X305375Y174065D01*
X305027Y172954D01*
X304906Y172795D01*
X297398D01*
X295911Y172499D01*
X294651Y171657D01*
X293163Y170169D01*
X292321Y168909D01*
X292025Y167422D01*
Y162778D01*
X292321Y161291D01*
X293163Y160031D01*
X294651Y158543D01*
X295911Y157701D01*
X297398Y157405D01*
X312345D01*
Y148944D01*
X311825Y147688D01*
Y145682D01*
X312592Y143830D01*
X314010Y142412D01*
X315863Y141645D01*
X317868D01*
X319720Y142412D01*
X321138Y143830D01*
X321905Y145682D01*
Y147688D01*
X321138Y149540D01*
X320115Y150563D01*
Y159766D01*
X319819Y161253D01*
X318977Y162513D01*
X317734Y163755D01*
X318083Y164866D01*
X318204Y165025D01*
X318552D01*
X320039Y165321D01*
X321299Y166163D01*
X322787Y167651D01*
X323629Y168911D01*
X323925Y170398D01*
Y175042D01*
X323629Y176529D01*
X322787Y177789D01*
X321299Y179277D01*
X320039Y180119D01*
X318552Y180415D01*
X318204D01*
X318083Y180574D01*
X317734Y181685D01*
X318977Y182927D01*
X319819Y184187D01*
X320115Y185674D01*
Y265068D01*
X321385Y265235D01*
X321643Y264272D01*
X322904Y262088D01*
X324688Y260304D01*
X326872Y259043D01*
X327135Y258972D01*
Y189113D01*
X326747Y188725D01*
X325980Y186873D01*
Y184868D01*
X326747Y183015D01*
X328165Y181597D01*
X330017Y180830D01*
X332022D01*
X333875Y181597D01*
X335293Y183015D01*
X336060Y184868D01*
Y186873D01*
X335293Y188725D01*
X334905Y189113D01*
Y259411D01*
X336452Y260304D01*
X338236Y262088D01*
X339497Y264272D01*
X340150Y266709D01*
Y269231D01*
X339497Y271668D01*
X338236Y273852D01*
X336452Y275636D01*
X334268Y276897D01*
X331831Y277550D01*
X329309D01*
X326872Y276897D01*
X324688Y275636D01*
X322904Y273852D01*
X321643Y271668D01*
X321385Y270705D01*
X320115Y270872D01*
Y277421D01*
X327080Y284387D01*
X329309Y283790D01*
X331831D01*
X334268Y284443D01*
X336452Y285704D01*
X338236Y287488D01*
X339497Y289672D01*
X340150Y292109D01*
Y294631D01*
X339497Y297068D01*
X338344Y299065D01*
X338752Y300335D01*
X347788D01*
X348196Y299065D01*
X347043Y297068D01*
X346390Y294631D01*
Y292109D01*
X347043Y289672D01*
X348304Y287488D01*
X350088Y285704D01*
X352272Y284443D01*
X354709Y283790D01*
X357231D01*
X359668Y284443D01*
X361852Y285704D01*
X363636Y287488D01*
X364104Y288298D01*
X365479Y288423D01*
X375969Y277933D01*
X376413Y277637D01*
X376364Y276142D01*
X375488Y275636D01*
X373704Y273852D01*
X372443Y271668D01*
X371790Y269231D01*
Y266709D01*
X372443Y264272D01*
X373704Y262088D01*
X375488Y260304D01*
X377672Y259043D01*
X377935Y258972D01*
Y231023D01*
X377547Y230635D01*
X376780Y228783D01*
Y226778D01*
X377547Y224925D01*
X378965Y223507D01*
X380817Y222740D01*
X382822D01*
X384675Y223507D01*
X386093Y224925D01*
X386860Y226778D01*
Y228783D01*
X386093Y230635D01*
X385705Y231023D01*
Y259411D01*
X387252Y260304D01*
X389036Y262088D01*
X390297Y264272D01*
X390950Y266709D01*
Y269231D01*
X390297Y271668D01*
X389036Y273852D01*
X387363Y275525D01*
X387481Y276491D01*
X387563Y276796D01*
X425977D01*
X426059Y276491D01*
X426177Y275525D01*
X424504Y273852D01*
X423243Y271668D01*
X422590Y269231D01*
Y266709D01*
X423243Y264272D01*
X424504Y262088D01*
X426288Y260304D01*
X428472Y259043D01*
X430909Y258390D01*
X433431D01*
X435868Y259043D01*
X438052Y260304D01*
X439836Y262088D01*
X441097Y264272D01*
X441750Y266709D01*
Y269231D01*
X441097Y271668D01*
X439836Y273852D01*
X438162Y275525D01*
X438281Y276491D01*
X438363Y276796D01*
X463551D01*
X465038Y277091D01*
X466298Y277933D01*
X467822Y279457D01*
X468122Y279905D01*
X469649D01*
X469949Y279457D01*
X471473Y277933D01*
X472733Y277091D01*
X474054Y276828D01*
X474564Y275963D01*
X474687Y275666D01*
X474016Y274994D01*
X472510Y272386D01*
X471730Y269476D01*
Y266464D01*
X472510Y263554D01*
X474016Y260946D01*
X476146Y258816D01*
X478754Y257310D01*
X481664Y256530D01*
X484676D01*
X487586Y257310D01*
X490194Y258816D01*
X492324Y260946D01*
X493830Y263554D01*
X494610Y266464D01*
Y269476D01*
X493830Y272386D01*
X492324Y274994D01*
X491696Y275622D01*
X492182Y276796D01*
X494031D01*
X495518Y277091D01*
X496778Y277933D01*
X498021Y279176D01*
X499132Y278828D01*
X499291Y278707D01*
Y278146D01*
X499587Y276660D01*
X500429Y275399D01*
X501953Y273875D01*
X503213Y273033D01*
X504700Y272738D01*
X509272D01*
X510758Y273033D01*
X512018Y273875D01*
X513542Y275399D01*
X513842Y275847D01*
X515369D01*
X515669Y275399D01*
X517193Y273875D01*
X518453Y273033D01*
X519939Y272738D01*
X524511D01*
X525998Y273033D01*
X527258Y273875D01*
X528782Y275399D01*
X529082Y275847D01*
X530609D01*
X530909Y275399D01*
X532433Y273875D01*
X533693Y273033D01*
X535179Y272738D01*
X539752D01*
X541238Y273033D01*
X542498Y273875D01*
X544022Y275399D01*
X544322Y275847D01*
X545849D01*
X546149Y275399D01*
X547673Y273875D01*
X548933Y273033D01*
X550420Y272738D01*
X554991D01*
X556478Y273033D01*
X557738Y273875D01*
X559262Y275399D01*
X559562Y275847D01*
X561089D01*
X561389Y275399D01*
X562913Y273875D01*
X564173Y273033D01*
X565659Y272738D01*
X570232D01*
X571718Y273033D01*
X572978Y273875D01*
X574502Y275399D01*
X574802Y275847D01*
X576329D01*
X576629Y275399D01*
X578153Y273875D01*
X579413Y273033D01*
X580900Y272738D01*
X585471D01*
X586958Y273033D01*
X588218Y273875D01*
X589742Y275399D01*
X590042Y275847D01*
X591569D01*
X591869Y275399D01*
X593393Y273875D01*
X594653Y273033D01*
X596139Y272738D01*
X600712D01*
X602198Y273033D01*
X603458Y273875D01*
X604982Y275399D01*
X605825Y276660D01*
X606120Y278146D01*
Y278707D01*
X606279Y278828D01*
X607390Y279176D01*
X608633Y277933D01*
X609893Y277091D01*
X611380Y276796D01*
X620185D01*
X622287Y274693D01*
X623547Y273851D01*
X625033Y273556D01*
X633670D01*
X635156Y273851D01*
X636416Y274693D01*
X637659Y275936D01*
X638770Y275588D01*
X638929Y275467D01*
Y271873D01*
X639225Y270386D01*
X640067Y269126D01*
X641591Y267602D01*
X642851Y266760D01*
X644337Y266464D01*
X648910D01*
X650396Y266760D01*
X651656Y267602D01*
X653180Y269126D01*
X654023Y270386D01*
X654318Y271873D01*
Y279930D01*
X654477Y280051D01*
X655588Y280399D01*
X656795Y279193D01*
X658055Y278351D01*
X659541Y278055D01*
X660178D01*
X660657Y276785D01*
X658866Y274994D01*
X657360Y272386D01*
X656580Y269476D01*
Y266464D01*
X657360Y263554D01*
X658866Y260946D01*
X660996Y258816D01*
X663604Y257310D01*
X666514Y256530D01*
X669526D01*
X672436Y257310D01*
X675044Y258816D01*
X677174Y260946D01*
X678680Y263554D01*
X679460Y266464D01*
Y269476D01*
X678680Y272386D01*
X677174Y274994D01*
X675383Y276785D01*
X675863Y278055D01*
X679426D01*
X680912Y278351D01*
X682172Y279193D01*
X683379Y280399D01*
X684490Y280051D01*
X684649Y279930D01*
Y275289D01*
X684945Y273803D01*
X685787Y272542D01*
X687311Y271018D01*
X688571Y270176D01*
X690058Y269881D01*
X694630D01*
X696116Y270176D01*
X697376Y271018D01*
X698900Y272542D01*
X699429Y273334D01*
X700707Y273409D01*
X701027Y273090D01*
X702287Y272247D01*
X703773Y271952D01*
X705900D01*
X707386Y272247D01*
X708647Y273090D01*
X710913Y275356D01*
X711037Y275331D01*
X711455Y273953D01*
X711354Y273852D01*
X710093Y271668D01*
X709440Y269231D01*
Y266709D01*
X710093Y264272D01*
X711354Y262088D01*
X713138Y260304D01*
X715322Y259043D01*
X717759Y258390D01*
X720281D01*
X722718Y259043D01*
X724902Y260304D01*
X726686Y262088D01*
X727947Y264272D01*
X728600Y266709D01*
Y269231D01*
X727947Y271668D01*
X727473Y272489D01*
X728370Y273476D01*
X732729D01*
X734216Y273771D01*
X735476Y274613D01*
X736378Y275515D01*
X748272D01*
X751245Y272542D01*
X752506Y271700D01*
X753992Y271405D01*
X757113D01*
X758600Y271700D01*
X759860Y272542D01*
X760384Y273326D01*
X761463Y272655D01*
X760893Y271668D01*
X760240Y269231D01*
Y266709D01*
X760893Y264272D01*
X762154Y262088D01*
X763938Y260304D01*
X766036Y259093D01*
Y105590D01*
X765850Y105142D01*
Y103138D01*
X766617Y101285D01*
X768035Y99867D01*
X769887Y99100D01*
X771892D01*
X773745Y99867D01*
X775163Y101285D01*
X775930Y103138D01*
Y105142D01*
X775163Y106995D01*
X773805Y108353D01*
Y259209D01*
X775702Y260304D01*
X777486Y262088D01*
X778747Y264272D01*
X779400Y266709D01*
Y269231D01*
X778747Y271668D01*
X777594Y273665D01*
X778002Y274935D01*
X785272D01*
X786758Y275231D01*
X787407Y275664D01*
X787513Y275607D01*
X787738Y274036D01*
X787554Y273852D01*
X786293Y271668D01*
X785640Y269231D01*
Y266709D01*
X786293Y264272D01*
X787554Y262088D01*
X789338Y260304D01*
X790465Y259653D01*
Y242645D01*
X787118D01*
X785631Y242349D01*
X784371Y241507D01*
X782847Y239983D01*
X782005Y238723D01*
X781709Y237236D01*
Y232664D01*
X782005Y231177D01*
X782847Y229917D01*
X784371Y228393D01*
X784819Y228094D01*
Y226566D01*
X784371Y226267D01*
X782847Y224743D01*
X782005Y223483D01*
X781709Y221996D01*
Y217424D01*
X782005Y215937D01*
X782847Y214677D01*
X784371Y213153D01*
X784819Y212854D01*
Y211326D01*
X784371Y211027D01*
X782847Y209503D01*
X782005Y208243D01*
X781709Y206756D01*
Y202184D01*
X782005Y200697D01*
X782847Y199437D01*
X784371Y197913D01*
X785631Y197071D01*
X787118Y196775D01*
X790465D01*
Y126634D01*
X789980Y125463D01*
Y123457D01*
X790747Y121605D01*
X792165Y120187D01*
X794017Y119420D01*
X796022D01*
X797875Y120187D01*
X799293Y121605D01*
X800060Y123457D01*
Y125463D01*
X799293Y127315D01*
X798235Y128373D01*
Y199136D01*
X797939Y200623D01*
X797097Y201883D01*
X795573Y203407D01*
X794313Y204249D01*
X794118Y204288D01*
X793833Y205129D01*
X793807Y205644D01*
X795220Y207057D01*
X796062Y208317D01*
X796358Y209804D01*
Y214376D01*
X796062Y215863D01*
X795220Y217123D01*
X793696Y218647D01*
X793248Y218946D01*
Y220474D01*
X793696Y220773D01*
X795220Y222297D01*
X796062Y223557D01*
X796358Y225044D01*
Y229616D01*
X796062Y231103D01*
X795220Y232363D01*
X793807Y233776D01*
X793833Y234291D01*
X794118Y235132D01*
X794313Y235171D01*
X795573Y236013D01*
X797097Y237537D01*
X797939Y238797D01*
X798235Y240284D01*
Y258860D01*
X798918Y259043D01*
X801102Y260304D01*
X802886Y262088D01*
X804147Y264272D01*
X804800Y266709D01*
Y269231D01*
X804147Y271668D01*
X803837Y272206D01*
X804570Y273476D01*
X811467D01*
X812102Y272376D01*
X811693Y271668D01*
X811040Y269231D01*
Y266709D01*
X811693Y264272D01*
X812954Y262088D01*
X814738Y260304D01*
X816201Y259460D01*
Y165468D01*
X816147Y165415D01*
X815380Y163563D01*
Y161558D01*
X816147Y159705D01*
X817565Y158287D01*
X819417Y157520D01*
X821423D01*
X823275Y158287D01*
X824693Y159705D01*
X825460Y161558D01*
Y163563D01*
X824693Y165415D01*
X823970Y166138D01*
Y258950D01*
X824318Y259043D01*
X826502Y260304D01*
X828286Y262088D01*
X829547Y264272D01*
X830200Y266709D01*
Y269231D01*
X829547Y271668D01*
X828858Y272861D01*
X829592Y274131D01*
X836816D01*
X837079Y274184D01*
X837891Y273050D01*
X837093Y271668D01*
X836440Y269231D01*
Y266709D01*
X837093Y264272D01*
X838354Y262088D01*
X840138Y260304D01*
X841265Y259653D01*
Y151163D01*
X840877Y150775D01*
X840110Y148923D01*
Y146917D01*
X840877Y145065D01*
X842295Y143647D01*
X844147Y142880D01*
X846152D01*
X848005Y143647D01*
X849423Y145065D01*
X850190Y146917D01*
Y148923D01*
X849423Y150775D01*
X849035Y151163D01*
Y258860D01*
X849718Y259043D01*
X851902Y260304D01*
X853686Y262088D01*
X854947Y264272D01*
X855600Y266709D01*
Y269231D01*
X854947Y271668D01*
X854926Y271705D01*
X855659Y272975D01*
X861781D01*
X862573Y271806D01*
X862493Y271668D01*
X861840Y269231D01*
Y266709D01*
X862493Y264272D01*
X863754Y262088D01*
X865538Y260304D01*
X866665Y259653D01*
Y246634D01*
X866961Y245147D01*
X867803Y243887D01*
X869046Y242645D01*
X868697Y241534D01*
X868576Y241375D01*
X862985D01*
X861498Y241079D01*
X860238Y240237D01*
X858714Y238713D01*
X857872Y237453D01*
X857576Y235966D01*
Y231394D01*
X857872Y229907D01*
X858714Y228647D01*
X860238Y227123D01*
X860686Y226824D01*
Y225296D01*
X860238Y224997D01*
X858714Y223473D01*
X857872Y222213D01*
X857576Y220726D01*
Y216154D01*
X857872Y214667D01*
X858714Y213407D01*
X860238Y211883D01*
X860686Y211584D01*
Y210056D01*
X860238Y209757D01*
X858714Y208233D01*
X857872Y206973D01*
X857576Y205486D01*
Y200914D01*
X857872Y199427D01*
X858714Y198167D01*
X860238Y196643D01*
X861498Y195801D01*
X862985Y195505D01*
X866665D01*
Y187993D01*
X865677Y187005D01*
X864910Y185152D01*
Y183148D01*
X865677Y181295D01*
X867095Y179877D01*
X868948Y179110D01*
X870953D01*
X872805Y179877D01*
X874223Y181295D01*
X874990Y183148D01*
Y185152D01*
X874435Y186493D01*
Y197866D01*
X874139Y199353D01*
X873297Y200613D01*
X872054Y201855D01*
X872402Y202966D01*
X872523Y203125D01*
X878114D01*
X879600Y203421D01*
X880860Y204263D01*
X882384Y205787D01*
X883226Y207047D01*
X883522Y208534D01*
Y213106D01*
X883226Y214593D01*
X882384Y215853D01*
X880860Y217377D01*
X880412Y217676D01*
Y219204D01*
X880860Y219503D01*
X882384Y221027D01*
X883226Y222287D01*
X883522Y223774D01*
Y228346D01*
X883226Y229833D01*
X882384Y231093D01*
X880860Y232617D01*
X880412Y232916D01*
Y234444D01*
X880860Y234743D01*
X882384Y236267D01*
X883226Y237527D01*
X883522Y239014D01*
Y243586D01*
X883226Y245073D01*
X882384Y246333D01*
X880860Y247857D01*
X879600Y248699D01*
X878114Y248995D01*
X874435D01*
Y258860D01*
X875118Y259043D01*
X877302Y260304D01*
X879086Y262088D01*
X880347Y264272D01*
X881000Y266709D01*
Y269231D01*
X880347Y271668D01*
X879991Y272285D01*
X880724Y273556D01*
X885100D01*
X886587Y273851D01*
X887847Y274693D01*
X896944Y283790D01*
X898081D01*
X900518Y284443D01*
X902702Y285704D01*
X904486Y287488D01*
X905747Y289672D01*
X906400Y292109D01*
Y294631D01*
X905747Y297068D01*
X904486Y299252D01*
X902702Y301036D01*
X900518Y302297D01*
X898081Y302950D01*
X895559D01*
X893122Y302297D01*
X890938Y301036D01*
X889154Y299252D01*
X887893Y297068D01*
X887240Y294631D01*
Y292109D01*
X887893Y289672D01*
X889154Y287488D01*
X889404Y287238D01*
X883491Y281325D01*
X881139D01*
X879047Y283417D01*
X877787Y284259D01*
X876300Y284555D01*
X866140D01*
X864653Y284259D01*
X863393Y283417D01*
X860721Y280745D01*
X856072D01*
X852824Y283992D01*
X852200Y284409D01*
X852080Y284932D01*
X852118Y285920D01*
X853686Y287488D01*
X854947Y289672D01*
X855600Y292109D01*
Y294631D01*
X854947Y297068D01*
X853686Y299252D01*
X851902Y301036D01*
X849718Y302297D01*
X847281Y302950D01*
X844759D01*
X842322Y302297D01*
X840138Y301036D01*
X838354Y299252D01*
X837093Y297068D01*
X836440Y294631D01*
Y292109D01*
X837093Y289672D01*
X838354Y287488D01*
X839521Y286320D01*
X839103Y284942D01*
X838558Y284834D01*
X837298Y283992D01*
X835207Y281901D01*
X829488D01*
X828534Y282854D01*
X827274Y283696D01*
X826003Y283949D01*
X825766Y284524D01*
X825736Y285262D01*
X826502Y285704D01*
X828286Y287488D01*
X829547Y289672D01*
X830200Y292109D01*
Y294631D01*
X829547Y297068D01*
X828286Y299252D01*
X826502Y301036D01*
X824318Y302297D01*
X821881Y302950D01*
X819359D01*
X816922Y302297D01*
X814738Y301036D01*
X812954Y299252D01*
X811693Y297068D01*
X811040Y294631D01*
Y292109D01*
X811693Y289672D01*
X812954Y287488D01*
X814738Y285704D01*
X815817Y285081D01*
X815596Y283742D01*
X815364Y283696D01*
X814104Y282854D01*
X812495Y281245D01*
X805019D01*
X803410Y282854D01*
X802149Y283696D01*
X800673Y283990D01*
X800657Y284014D01*
X800337Y285262D01*
X801102Y285704D01*
X802886Y287488D01*
X804147Y289672D01*
X804800Y292109D01*
Y294631D01*
X804147Y297068D01*
X802886Y299252D01*
X801102Y301036D01*
X798918Y302297D01*
X796481Y302950D01*
X793959D01*
X791522Y302297D01*
X789338Y301036D01*
X787554Y299252D01*
X786293Y297068D01*
X785640Y294631D01*
Y292109D01*
X786293Y289672D01*
X787554Y287488D01*
X789338Y285704D01*
X790104Y285262D01*
X789763Y283992D01*
X786559D01*
X785072Y283696D01*
X783812Y282854D01*
X783663Y282705D01*
X771938D01*
X771771Y283975D01*
X773518Y284443D01*
X775702Y285704D01*
X777486Y287488D01*
X778747Y289672D01*
X779400Y292109D01*
Y294631D01*
X778747Y297068D01*
X777486Y299252D01*
X775702Y301036D01*
X773518Y302297D01*
X771081Y302950D01*
X768559D01*
X766122Y302297D01*
X763938Y301036D01*
X762154Y299252D01*
X760893Y297068D01*
X760240Y294631D01*
Y292109D01*
X760893Y289672D01*
X762154Y287488D01*
X763938Y285704D01*
X766122Y284443D01*
X767870Y283975D01*
X767703Y282705D01*
X760097D01*
X758611Y282409D01*
X757350Y281567D01*
X755279Y279496D01*
X752628Y282147D01*
X751368Y282989D01*
X749881Y283285D01*
X749322D01*
X749100Y283543D01*
X749377Y285170D01*
X750302Y285704D01*
X752086Y287488D01*
X753347Y289672D01*
X754000Y292109D01*
Y294631D01*
X753347Y297068D01*
X752086Y299252D01*
X750302Y301036D01*
X748118Y302297D01*
X745681Y302950D01*
X743159D01*
X740931Y302353D01*
X737007Y306277D01*
X735747Y307119D01*
X734260Y307415D01*
X725813D01*
X723136Y310092D01*
X721876Y310934D01*
X720389Y311230D01*
X708615D01*
X708229Y311616D01*
X706969Y312458D01*
X705482Y312754D01*
X700910D01*
X699424Y312458D01*
X698164Y311616D01*
X696640Y310092D01*
X696340Y309644D01*
X694813D01*
X694513Y310092D01*
X692989Y311616D01*
X691729Y312458D01*
X690242Y312754D01*
X685670D01*
X684184Y312458D01*
X682924Y311616D01*
X681400Y310092D01*
X681100Y309644D01*
X679573D01*
X679273Y310092D01*
X677749Y311616D01*
X676489Y312458D01*
X675003Y312754D01*
X670431D01*
X668944Y312458D01*
X667684Y311616D01*
X666160Y310092D01*
X665860Y309644D01*
X664333D01*
X664033Y310092D01*
X662509Y311616D01*
X661249Y312458D01*
X659762Y312754D01*
X655191D01*
X653704Y312458D01*
X652444Y311616D01*
X650920Y310092D01*
X650620Y309644D01*
X649093D01*
X648793Y310092D01*
X647269Y311616D01*
X646009Y312458D01*
X644522Y312754D01*
X639950D01*
X638464Y312458D01*
X637204Y311616D01*
X635680Y310092D01*
X635380Y309644D01*
X633853D01*
X633553Y310092D01*
X632029Y311616D01*
X630769Y312458D01*
X629282Y312754D01*
X624711D01*
X623224Y312458D01*
X621964Y311616D01*
X620440Y310092D01*
X620140Y309644D01*
X618613D01*
X618313Y310092D01*
X616789Y311616D01*
X615529Y312458D01*
X614043Y312754D01*
X609470D01*
X607984Y312458D01*
X606724Y311616D01*
X605200Y310092D01*
X604900Y309644D01*
X603373D01*
X603073Y310092D01*
X601549Y311616D01*
X600289Y312458D01*
X598802Y312754D01*
X594230D01*
X592744Y312458D01*
X591484Y311616D01*
X589960Y310092D01*
X589660Y309644D01*
X588133D01*
X587833Y310092D01*
X586309Y311616D01*
X585049Y312458D01*
X583563Y312754D01*
X578991D01*
X577504Y312458D01*
X576244Y311616D01*
X574720Y310092D01*
X574420Y309644D01*
X572893D01*
X572593Y310092D01*
X571069Y311616D01*
X569809Y312458D01*
X568322Y312754D01*
X563750D01*
X562264Y312458D01*
X561004Y311616D01*
X559480Y310092D01*
X559180Y309644D01*
X557653D01*
X557353Y310092D01*
X555829Y311616D01*
X554569Y312458D01*
X553083Y312754D01*
X548511D01*
X547024Y312458D01*
X545764Y311616D01*
X544240Y310092D01*
X543940Y309644D01*
X542413D01*
X542113Y310092D01*
X540589Y311616D01*
X539329Y312458D01*
X537842Y312754D01*
X533270D01*
X531784Y312458D01*
X530524Y311616D01*
X529000Y310092D01*
X528700Y309644D01*
X527173D01*
X526873Y310092D01*
X525349Y311616D01*
X524089Y312458D01*
X522603Y312754D01*
X518031D01*
X516544Y312458D01*
X515284Y311616D01*
X513760Y310092D01*
X513460Y309644D01*
X511933D01*
X511633Y310092D01*
X510109Y311616D01*
X508849Y312458D01*
X507363Y312754D01*
X502790D01*
X501304Y312458D01*
X500044Y311616D01*
X498520Y310092D01*
X498220Y309644D01*
X496693D01*
X496393Y310092D01*
X494869Y311616D01*
X493609Y312458D01*
X492122Y312754D01*
X487551D01*
X486064Y312458D01*
X484804Y311616D01*
X483280Y310092D01*
X482438Y308832D01*
X482142Y307345D01*
Y306725D01*
X477475D01*
X477233Y306967D01*
X476590Y307397D01*
X475973Y307809D01*
X475973Y307809D01*
X475972Y307809D01*
X475212Y307960D01*
X474486Y308104D01*
X464684D01*
Y311497D01*
X464389Y312983D01*
X463546Y314243D01*
X462023Y315767D01*
X460762Y316609D01*
X459276Y316905D01*
X454704D01*
X453217Y316609D01*
X451957Y315767D01*
X450433Y314243D01*
X449591Y312983D01*
X449295Y311497D01*
Y306193D01*
X449136Y306072D01*
X448025Y305724D01*
X446782Y306967D01*
X445522Y307809D01*
X444036Y308104D01*
X408887D01*
X408720Y309375D01*
X410468Y309843D01*
X412652Y311104D01*
X414436Y312888D01*
X415697Y315072D01*
X416350Y317509D01*
Y320031D01*
X415697Y322468D01*
X414436Y324652D01*
X412773Y326315D01*
X412926Y327458D01*
X412960Y327585D01*
X448426D01*
X449912Y327881D01*
X451173Y328723D01*
X452415Y329966D01*
X453526Y329618D01*
X453685Y329496D01*
Y327316D01*
X453981Y325829D01*
X454823Y324569D01*
X456347Y323045D01*
X457607Y322203D01*
X459094Y321907D01*
X463666D01*
X465152Y322203D01*
X466413Y323045D01*
X467937Y324569D01*
X468236Y325017D01*
X469764D01*
X470063Y324569D01*
X471587Y323045D01*
X472847Y322203D01*
X474334Y321907D01*
X478906D01*
X480392Y322203D01*
X481653Y323045D01*
X483177Y324569D01*
X483476Y325017D01*
X485004D01*
X485303Y324569D01*
X486827Y323045D01*
X488087Y322203D01*
X489574Y321907D01*
X494146D01*
X495632Y322203D01*
X496893Y323045D01*
X498417Y324569D01*
X498716Y325017D01*
X500244D01*
X500543Y324569D01*
X502067Y323045D01*
X503327Y322203D01*
X504814Y321907D01*
X509386D01*
X510872Y322203D01*
X512133Y323045D01*
X513657Y324569D01*
X513956Y325017D01*
X515484D01*
X515783Y324569D01*
X517307Y323045D01*
X518567Y322203D01*
X520054Y321907D01*
X524626D01*
X526112Y322203D01*
X527373Y323045D01*
X528897Y324569D01*
X529196Y325017D01*
X530724D01*
X531023Y324569D01*
X532547Y323045D01*
X533807Y322203D01*
X535294Y321907D01*
X539866D01*
X541352Y322203D01*
X542613Y323045D01*
X544137Y324569D01*
X544436Y325017D01*
X545964D01*
X546263Y324569D01*
X547787Y323045D01*
X549047Y322203D01*
X550534Y321907D01*
X555106D01*
X556592Y322203D01*
X557853Y323045D01*
X559377Y324569D01*
X559676Y325017D01*
X561204D01*
X561503Y324569D01*
X563027Y323045D01*
X564287Y322203D01*
X565774Y321907D01*
X570346D01*
X571832Y322203D01*
X573093Y323045D01*
X574617Y324569D01*
X574916Y325017D01*
X576444D01*
X576743Y324569D01*
X578267Y323045D01*
X579527Y322203D01*
X581014Y321907D01*
X585586D01*
X587072Y322203D01*
X588333Y323045D01*
X589857Y324569D01*
X590156Y325017D01*
X591684D01*
X591983Y324569D01*
X593507Y323045D01*
X594767Y322203D01*
X596254Y321907D01*
X600826D01*
X602312Y322203D01*
X603573Y323045D01*
X605097Y324569D01*
X605396Y325017D01*
X606924D01*
X607223Y324569D01*
X608747Y323045D01*
X610007Y322203D01*
X611494Y321907D01*
X616066D01*
X617552Y322203D01*
X618813Y323045D01*
X620337Y324569D01*
X620636Y325017D01*
X622164D01*
X622463Y324569D01*
X623987Y323045D01*
X625247Y322203D01*
X626734Y321907D01*
X631306D01*
X632792Y322203D01*
X634053Y323045D01*
X635577Y324569D01*
X635876Y325017D01*
X637404D01*
X637703Y324569D01*
X639227Y323045D01*
X640487Y322203D01*
X641974Y321907D01*
X646546D01*
X648032Y322203D01*
X649293Y323045D01*
X650817Y324569D01*
X651116Y325017D01*
X652644D01*
X652943Y324569D01*
X654467Y323045D01*
X655727Y322203D01*
X657214Y321907D01*
X661786D01*
X663272Y322203D01*
X664533Y323045D01*
X666057Y324569D01*
X666899Y325829D01*
X667195Y327316D01*
Y329496D01*
X667354Y329618D01*
X668465Y329966D01*
X669707Y328723D01*
X670967Y327881D01*
X672454Y327585D01*
X814430D01*
X814464Y327458D01*
X814617Y326315D01*
X812954Y324652D01*
X811693Y322468D01*
X811040Y320031D01*
Y317509D01*
X811693Y315072D01*
X812954Y312888D01*
X814738Y311104D01*
X816922Y309843D01*
X819359Y309190D01*
X821881D01*
X824318Y309843D01*
X826502Y311104D01*
X828286Y312888D01*
X829547Y315072D01*
X830200Y317509D01*
Y320031D01*
X829717Y321833D01*
X830856Y322490D01*
X836661Y316685D01*
X837093Y315072D01*
X838354Y312888D01*
X840138Y311104D01*
X842322Y309843D01*
X844759Y309190D01*
X847281D01*
X849718Y309843D01*
X851902Y311104D01*
X853686Y312888D01*
X854947Y315072D01*
X855600Y317509D01*
Y320031D01*
X854947Y322468D01*
X853686Y324652D01*
X851902Y326436D01*
X849718Y327697D01*
X847281Y328350D01*
X844759D01*
X842322Y327697D01*
X840138Y326436D01*
X839018Y325316D01*
X830117Y334217D01*
X828857Y335059D01*
X827370Y335355D01*
X750610D01*
X750576Y335481D01*
X750423Y336625D01*
X752086Y338288D01*
X753347Y340472D01*
X754000Y342909D01*
Y345431D01*
X753347Y347868D01*
X752194Y349865D01*
X752602Y351135D01*
X859900D01*
X861386Y351431D01*
X862647Y352273D01*
X912889Y402515D01*
X939958D01*
X940444Y401342D01*
X939954Y400852D01*
X938693Y398668D01*
X938040Y396231D01*
Y393709D01*
X938693Y391272D01*
X939954Y389088D01*
X941738Y387304D01*
X943922Y386043D01*
X946359Y385390D01*
X948881D01*
X951318Y386043D01*
X953502Y387304D01*
X955286Y389088D01*
X956547Y391272D01*
X957200Y393709D01*
Y396231D01*
X956547Y398668D01*
X955286Y400852D01*
X954796Y401342D01*
X955282Y402515D01*
X965358D01*
X965844Y401342D01*
X965354Y400852D01*
X964093Y398668D01*
X963440Y396231D01*
Y393709D01*
X964093Y391272D01*
X965354Y389088D01*
X967138Y387304D01*
X969322Y386043D01*
X971759Y385390D01*
X974281D01*
X976718Y386043D01*
X978902Y387304D01*
X980686Y389088D01*
X981092Y389790D01*
X984645D01*
X1048921Y325515D01*
Y54680D01*
X1041330D01*
Y26600D01*
X1069410D01*
Y54680D01*
X1059279D01*
Y327660D01*
X1058885Y329642D01*
X1057763Y331323D01*
X990452Y398633D01*
X988772Y399755D01*
X986790Y400149D01*
X981092D01*
X980686Y400852D01*
X978902Y402636D01*
X978280Y402995D01*
X978071Y404583D01*
X997157Y423669D01*
X997999Y424929D01*
X998196Y425918D01*
X998683Y426405D01*
X999450Y428257D01*
Y430262D01*
X998683Y432115D01*
X997265Y433533D01*
X995413Y434300D01*
X993408D01*
X991555Y433533D01*
X990137Y432115D01*
X989370Y430262D01*
Y428257D01*
X989777Y427276D01*
X972785Y410285D01*
X952522D01*
X952300Y410543D01*
X952577Y412170D01*
X953502Y412704D01*
X955286Y414488D01*
X956547Y416672D01*
X957200Y419109D01*
Y421631D01*
X956547Y424068D01*
X955379Y426091D01*
X955768Y427361D01*
X973840D01*
X975327Y427657D01*
X976587Y428499D01*
X1011127Y463039D01*
X1011969Y464299D01*
X1012265Y465786D01*
Y596197D01*
X1012653Y596585D01*
X1013420Y598438D01*
Y600443D01*
X1012653Y602295D01*
X1011235Y603713D01*
X1009382Y604480D01*
X1007377D01*
X1005525Y603713D01*
X1004107Y602295D01*
X1003340Y600443D01*
Y598438D01*
X1004107Y596585D01*
X1004495Y596197D01*
Y572586D01*
X1003260Y572503D01*
X1002493Y574355D01*
X1001075Y575773D01*
X999222Y576540D01*
X997217D01*
X995365Y575773D01*
X993947Y574355D01*
X993180Y572503D01*
Y570498D01*
X993947Y568645D01*
X994335Y568257D01*
Y558616D01*
X993100Y558532D01*
X992333Y560385D01*
X990915Y561803D01*
X989062Y562570D01*
X987057D01*
X985205Y561803D01*
X983787Y560385D01*
X983020Y558532D01*
Y556527D01*
X983787Y554675D01*
X984175Y554287D01*
Y498630D01*
X983769Y498377D01*
X982298Y498960D01*
X981947Y500268D01*
X980686Y502452D01*
X978902Y504236D01*
X976718Y505497D01*
X974281Y506150D01*
X971759D01*
X969322Y505497D01*
X967138Y504236D01*
X965354Y502452D01*
X964093Y500268D01*
X963440Y497831D01*
Y495309D01*
X964093Y492872D01*
X965246Y490875D01*
X964838Y489605D01*
X955802D01*
X955394Y490875D01*
X956547Y492872D01*
X957200Y495309D01*
Y497831D01*
X956547Y500268D01*
X955286Y502452D01*
X953502Y504236D01*
X951318Y505497D01*
X948881Y506150D01*
X946359D01*
X943922Y505497D01*
X941738Y504236D01*
X939954Y502452D01*
X938693Y500268D01*
X938040Y497831D01*
Y495309D01*
X938369Y494082D01*
X926961Y482675D01*
X914986D01*
X914818Y483514D01*
X913976Y484774D01*
X912452Y486298D01*
X911192Y487140D01*
X909706Y487436D01*
X905134D01*
X903647Y487140D01*
X902387Y486298D01*
X900863Y484774D01*
X900021Y483514D01*
X899804Y482424D01*
X899438Y482188D01*
X898877Y482021D01*
X898455Y482018D01*
X897212Y483260D01*
X895952Y484102D01*
X894466Y484398D01*
X889894D01*
X888407Y484102D01*
X887147Y483260D01*
X885623Y481736D01*
X885236Y481157D01*
X883883D01*
X883496Y481736D01*
X881972Y483260D01*
X881770Y483396D01*
X878316Y486849D01*
X877374Y487479D01*
X877218Y488855D01*
X877302Y488904D01*
X879086Y490688D01*
X880347Y492872D01*
X881000Y495309D01*
Y497831D01*
X880347Y500268D01*
X879086Y502452D01*
X877302Y504236D01*
X875118Y505497D01*
X872681Y506150D01*
X870159D01*
X867722Y505497D01*
X865538Y504236D01*
X863754Y502452D01*
X862493Y500268D01*
X861840Y497831D01*
Y495309D01*
X862493Y492872D01*
X863754Y490688D01*
X865361Y489081D01*
X865286Y488301D01*
X865044Y487723D01*
X864885Y487691D01*
X863625Y486849D01*
X861991Y485215D01*
X854613D01*
X853821Y486007D01*
X852561Y486849D01*
X851074Y487145D01*
X841619D01*
X840132Y486849D01*
X838872Y486007D01*
X838149Y485284D01*
X833703D01*
X832980Y486007D01*
X831720Y486849D01*
X830233Y487145D01*
X825995D01*
X825655Y488415D01*
X826502Y488904D01*
X828286Y490688D01*
X829547Y492872D01*
X830200Y495309D01*
Y497831D01*
X829547Y500268D01*
X828286Y502452D01*
X826502Y504236D01*
X824318Y505497D01*
X821881Y506150D01*
X819713D01*
X811605Y514258D01*
Y515885D01*
X812875Y516226D01*
X812954Y516088D01*
X814738Y514304D01*
X816922Y513043D01*
X819359Y512390D01*
X821881D01*
X824318Y513043D01*
X826502Y514304D01*
X828286Y516088D01*
X829547Y518272D01*
X830200Y520709D01*
Y523231D01*
X829547Y525668D01*
X828286Y527852D01*
X826502Y529636D01*
X824318Y530897D01*
X823635Y531080D01*
Y585731D01*
X839042Y601138D01*
X839884Y602398D01*
X840180Y603885D01*
Y615882D01*
X840568Y616270D01*
X841335Y618122D01*
Y620127D01*
X840568Y621980D01*
X839150Y623398D01*
X837298Y624165D01*
X835293D01*
X833440Y623398D01*
X832022Y621980D01*
X831255Y620127D01*
Y618122D01*
X832022Y616270D01*
X832410Y615882D01*
Y605494D01*
X817003Y590087D01*
X816161Y588826D01*
X815865Y587340D01*
Y530287D01*
X814738Y529636D01*
X812954Y527852D01*
X812875Y527714D01*
X811605Y528055D01*
Y600710D01*
X811309Y602197D01*
X810467Y603457D01*
X808307Y605616D01*
Y606165D01*
X807540Y608018D01*
X806122Y609435D01*
X804270Y610203D01*
X802265D01*
X800412Y609435D01*
X798995Y608018D01*
X798227Y606165D01*
Y604160D01*
X798995Y602308D01*
X800412Y600890D01*
X802265Y600123D01*
X802814D01*
X803835Y599101D01*
Y528627D01*
X802565Y528173D01*
X801102Y529636D01*
X798918Y530897D01*
X796481Y531550D01*
X796365D01*
Y640647D01*
X796753Y641035D01*
X797520Y642887D01*
Y644893D01*
X796753Y646745D01*
X795335Y648163D01*
X793483Y648930D01*
X791478D01*
X789625Y648163D01*
X788207Y646745D01*
X787440Y644893D01*
Y642887D01*
X788207Y641035D01*
X788595Y640647D01*
Y528893D01*
X787554Y527852D01*
X786293Y525668D01*
X785640Y523231D01*
Y520709D01*
X786293Y518272D01*
X787554Y516088D01*
X789338Y514304D01*
X791522Y513043D01*
X793959Y512390D01*
X796481D01*
X798918Y513043D01*
X801102Y514304D01*
X802565Y515767D01*
X803835Y515313D01*
Y512649D01*
X804131Y511163D01*
X804973Y509902D01*
X812760Y502116D01*
X811693Y500268D01*
X811040Y497831D01*
Y495309D01*
X811693Y492872D01*
X812954Y490688D01*
X814738Y488904D01*
X815907Y488229D01*
X815686Y486890D01*
X815479Y486849D01*
X814219Y486007D01*
X809091Y480879D01*
X807820Y480953D01*
X807296Y481736D01*
X805772Y483260D01*
X804512Y484102D01*
X803026Y484398D01*
X798454D01*
X796967Y484102D01*
X795707Y483260D01*
X794183Y481736D01*
X793796Y481157D01*
X792443D01*
X792056Y481736D01*
X790532Y483260D01*
X789272Y484102D01*
X787786Y484398D01*
X783214D01*
X781727Y484102D01*
X780467Y483260D01*
X778943Y481736D01*
X778556Y481157D01*
X777203D01*
X776816Y481736D01*
X776816Y481736D01*
X772545Y486007D01*
X772481Y486050D01*
X772708Y487426D01*
X773518Y487643D01*
X775702Y488904D01*
X777486Y490688D01*
X778747Y492872D01*
X779400Y495309D01*
Y497831D01*
X778747Y500268D01*
X777594Y502265D01*
X778002Y503535D01*
X781491D01*
X785969Y499058D01*
X785640Y497831D01*
Y495309D01*
X786293Y492872D01*
X787554Y490688D01*
X789338Y488904D01*
X791522Y487643D01*
X793959Y486990D01*
X796481D01*
X798918Y487643D01*
X801102Y488904D01*
X802886Y490688D01*
X804147Y492872D01*
X804800Y495309D01*
Y497831D01*
X804147Y500268D01*
X802886Y502452D01*
X801102Y504236D01*
X798918Y505497D01*
X796481Y506150D01*
X793959D01*
X791522Y505497D01*
X790885Y505129D01*
X785847Y510167D01*
X784587Y511009D01*
X783100Y511305D01*
X771937D01*
X771770Y512575D01*
X773518Y513043D01*
X775702Y514304D01*
X777486Y516088D01*
X778747Y518272D01*
X779400Y520709D01*
Y523231D01*
X778747Y525668D01*
X777486Y527852D01*
X775702Y529636D01*
X773518Y530897D01*
X772335Y531214D01*
Y659597D01*
X772723Y659985D01*
X773490Y661837D01*
Y663842D01*
X772723Y665695D01*
X771305Y667113D01*
X769453Y667880D01*
X767448D01*
X765595Y667113D01*
X764177Y665695D01*
X763410Y663842D01*
Y661837D01*
X764177Y659985D01*
X764565Y659597D01*
Y529998D01*
X763938Y529636D01*
X762154Y527852D01*
X760893Y525668D01*
X760240Y523231D01*
Y520709D01*
X760893Y518272D01*
X762154Y516088D01*
X763938Y514304D01*
X766122Y513043D01*
X767870Y512575D01*
X767703Y511305D01*
X721137D01*
X720970Y512575D01*
X722718Y513043D01*
X724902Y514304D01*
X726686Y516088D01*
X727947Y518272D01*
X728600Y520709D01*
Y523231D01*
X727947Y525668D01*
X726686Y527852D01*
X724902Y529636D01*
X722718Y530897D01*
X720903Y531384D01*
Y676835D01*
X721588Y678487D01*
Y680492D01*
X720820Y682345D01*
X719402Y683763D01*
X717550Y684530D01*
D02*
G37*
G36*
X1075526Y533410D02*
X1072514D01*
X1069604Y532630D01*
X1066996Y531124D01*
X1064866Y528994D01*
X1063360Y526386D01*
X1062580Y523476D01*
Y520464D01*
X1063360Y517554D01*
X1064866Y514946D01*
X1066996Y512816D01*
X1069604Y511310D01*
X1072514Y510530D01*
X1075526D01*
X1078436Y511310D01*
X1081044Y512816D01*
X1083175Y514946D01*
X1084681Y517554D01*
X1085460Y520464D01*
Y523476D01*
X1084681Y526386D01*
X1083175Y528994D01*
X1081044Y531124D01*
X1078436Y532630D01*
X1075526Y533410D01*
D02*
G37*
G36*
X484676D02*
X481664D01*
X478754Y532630D01*
X476146Y531124D01*
X474016Y528994D01*
X472510Y526386D01*
X471730Y523476D01*
Y520464D01*
X472510Y517554D01*
X474016Y514946D01*
X476146Y512816D01*
X478754Y511310D01*
X481664Y510530D01*
X484676D01*
X487586Y511310D01*
X490194Y512816D01*
X492324Y514946D01*
X493830Y517554D01*
X494610Y520464D01*
Y523476D01*
X493830Y526386D01*
X492324Y528994D01*
X490194Y531124D01*
X487586Y532630D01*
X484676Y533410D01*
D02*
G37*
G36*
X78676D02*
X75664D01*
X72754Y532630D01*
X70146Y531124D01*
X68015Y528994D01*
X66509Y526386D01*
X65730Y523476D01*
Y520464D01*
X66509Y517554D01*
X68015Y514946D01*
X70146Y512816D01*
X72754Y511310D01*
X75664Y510530D01*
X78676D01*
X81585Y511310D01*
X84194Y512816D01*
X86324Y514946D01*
X87830Y517554D01*
X88610Y520464D01*
Y523476D01*
X87830Y526386D01*
X86324Y528994D01*
X84194Y531124D01*
X81585Y532630D01*
X78676Y533410D01*
D02*
G37*
G36*
X1296788Y519811D02*
X1294012D01*
X1291331Y519093D01*
X1288928Y517705D01*
X1286965Y515742D01*
X1285577Y513339D01*
X1284859Y510658D01*
Y507882D01*
X1285577Y505201D01*
X1286965Y502798D01*
X1288928Y500835D01*
X1291331Y499447D01*
X1294012Y498729D01*
X1296788D01*
X1299469Y499447D01*
X1301872Y500835D01*
X1303835Y502798D01*
X1305223Y505201D01*
X1305941Y507882D01*
Y510658D01*
X1305223Y513339D01*
X1303835Y515742D01*
X1301872Y517705D01*
X1299469Y519093D01*
X1296788Y519811D01*
D02*
G37*
G36*
X1271388D02*
X1268612D01*
X1265931Y519093D01*
X1263528Y517705D01*
X1261565Y515742D01*
X1260177Y513339D01*
X1259459Y510658D01*
Y507882D01*
X1260177Y505201D01*
X1261565Y502798D01*
X1263528Y500835D01*
X1265931Y499447D01*
X1268612Y498729D01*
X1271388D01*
X1274069Y499447D01*
X1276472Y500835D01*
X1278435Y502798D01*
X1279823Y505201D01*
X1280541Y507882D01*
Y510658D01*
X1279823Y513339D01*
X1278435Y515742D01*
X1276472Y517705D01*
X1274069Y519093D01*
X1271388Y519811D01*
D02*
G37*
G36*
X898081Y506150D02*
X895559D01*
X893122Y505497D01*
X890938Y504236D01*
X889154Y502452D01*
X887893Y500268D01*
X887240Y497831D01*
Y495309D01*
X887893Y492872D01*
X889154Y490688D01*
X890938Y488904D01*
X893122Y487643D01*
X895559Y486990D01*
X898081D01*
X900518Y487643D01*
X902702Y488904D01*
X904486Y490688D01*
X905747Y492872D01*
X906400Y495309D01*
Y497831D01*
X905747Y500268D01*
X904486Y502452D01*
X902702Y504236D01*
X900518Y505497D01*
X898081Y506150D01*
D02*
G37*
G36*
X230231D02*
X227709D01*
X225272Y505497D01*
X223088Y504236D01*
X221304Y502452D01*
X220043Y500268D01*
X219390Y497831D01*
Y495309D01*
X220043Y492872D01*
X221304Y490688D01*
X223088Y488904D01*
X225272Y487643D01*
X227709Y486990D01*
X230231D01*
X232668Y487643D01*
X234852Y488904D01*
X236636Y490688D01*
X237897Y492872D01*
X238550Y495309D01*
Y497831D01*
X237897Y500268D01*
X236636Y502452D01*
X234852Y504236D01*
X232668Y505497D01*
X230231Y506150D01*
D02*
G37*
G36*
X1296788Y494411D02*
X1294012D01*
X1291331Y493693D01*
X1288928Y492305D01*
X1286965Y490342D01*
X1285577Y487939D01*
X1284859Y485258D01*
Y482482D01*
X1285577Y479801D01*
X1286965Y477398D01*
X1288928Y475435D01*
X1291331Y474047D01*
X1294012Y473329D01*
X1296788D01*
X1299469Y474047D01*
X1301872Y475435D01*
X1303835Y477398D01*
X1305223Y479801D01*
X1305941Y482482D01*
Y485258D01*
X1305223Y487939D01*
X1303835Y490342D01*
X1301872Y492305D01*
X1299469Y493693D01*
X1296788Y494411D01*
D02*
G37*
G36*
X1271388D02*
X1268612D01*
X1265931Y493693D01*
X1263528Y492305D01*
X1261565Y490342D01*
X1260177Y487939D01*
X1259459Y485258D01*
Y482482D01*
X1260177Y479801D01*
X1261565Y477398D01*
X1263528Y475435D01*
X1265931Y474047D01*
X1268612Y473329D01*
X1271388D01*
X1274069Y474047D01*
X1276472Y475435D01*
X1278435Y477398D01*
X1279823Y479801D01*
X1280541Y482482D01*
Y485258D01*
X1279823Y487939D01*
X1278435Y490342D01*
X1276472Y492305D01*
X1274069Y493693D01*
X1271388Y494411D01*
D02*
G37*
G36*
X204831Y480750D02*
X202309D01*
X199872Y480097D01*
X197688Y478836D01*
X195904Y477052D01*
X194643Y474868D01*
X193990Y472431D01*
Y469909D01*
X194643Y467472D01*
X195904Y465288D01*
X197688Y463504D01*
X199872Y462243D01*
X202309Y461590D01*
X204831D01*
X207268Y462243D01*
X209452Y463504D01*
X211236Y465288D01*
X212497Y467472D01*
X213150Y469909D01*
Y472431D01*
X212497Y474868D01*
X211236Y477052D01*
X209452Y478836D01*
X207268Y480097D01*
X204831Y480750D01*
D02*
G37*
G36*
X1296788Y469011D02*
X1294012D01*
X1291331Y468293D01*
X1288928Y466905D01*
X1286965Y464942D01*
X1285577Y462539D01*
X1284859Y459858D01*
Y457082D01*
X1285577Y454401D01*
X1286965Y451998D01*
X1288928Y450035D01*
X1291331Y448647D01*
X1294012Y447929D01*
X1296788D01*
X1299469Y448647D01*
X1301872Y450035D01*
X1303835Y451998D01*
X1305223Y454401D01*
X1305941Y457082D01*
Y459858D01*
X1305223Y462539D01*
X1303835Y464942D01*
X1301872Y466905D01*
X1299469Y468293D01*
X1296788Y469011D01*
D02*
G37*
G36*
X1271388D02*
X1268612D01*
X1265931Y468293D01*
X1263528Y466905D01*
X1261565Y464942D01*
X1260177Y462539D01*
X1259459Y459858D01*
Y457082D01*
X1260177Y454401D01*
X1261565Y451998D01*
X1263528Y450035D01*
X1265931Y448647D01*
X1268612Y447929D01*
X1271388D01*
X1274069Y448647D01*
X1276472Y450035D01*
X1278435Y451998D01*
X1279823Y454401D01*
X1280541Y457082D01*
Y459858D01*
X1279823Y462539D01*
X1278435Y464942D01*
X1276472Y466905D01*
X1274069Y468293D01*
X1271388Y469011D01*
D02*
G37*
G36*
X204831Y455350D02*
X202309D01*
X199872Y454697D01*
X197688Y453436D01*
X195904Y451652D01*
X194643Y449468D01*
X193990Y447031D01*
Y444509D01*
X194643Y442072D01*
X195904Y439888D01*
X197688Y438104D01*
X199872Y436843D01*
X202309Y436190D01*
X204831D01*
X207268Y436843D01*
X209452Y438104D01*
X211236Y439888D01*
X212497Y442072D01*
X213150Y444509D01*
Y447031D01*
X212497Y449468D01*
X211236Y451652D01*
X209452Y453436D01*
X207268Y454697D01*
X204831Y455350D01*
D02*
G37*
G36*
X1147812Y590510D02*
X1145807D01*
X1143955Y589743D01*
X1142537Y588325D01*
X1141770Y586473D01*
Y584468D01*
X1142537Y582615D01*
X1142925Y582227D01*
Y433773D01*
X1142537Y433385D01*
X1141770Y431533D01*
Y429528D01*
X1142537Y427675D01*
X1143955Y426257D01*
X1145247Y425722D01*
X1145323Y425671D01*
X1145414Y425653D01*
X1145807Y425490D01*
X1146234D01*
X1146810Y425375D01*
X1147386Y425490D01*
X1147812D01*
X1148206Y425653D01*
X1148297Y425671D01*
X1148373Y425722D01*
X1149665Y426257D01*
X1151083Y427675D01*
X1151850Y429528D01*
Y431533D01*
X1151083Y433385D01*
X1150695Y433773D01*
Y582227D01*
X1151083Y582615D01*
X1151850Y584468D01*
Y586473D01*
X1151083Y588325D01*
X1149665Y589743D01*
X1147812Y590510D01*
D02*
G37*
G36*
X1296788Y443611D02*
X1294012D01*
X1291331Y442893D01*
X1288928Y441505D01*
X1286965Y439542D01*
X1285577Y437139D01*
X1284859Y434458D01*
Y431682D01*
X1285577Y429001D01*
X1286965Y426598D01*
X1288928Y424635D01*
X1291331Y423247D01*
X1294012Y422529D01*
X1296788D01*
X1299469Y423247D01*
X1301872Y424635D01*
X1303835Y426598D01*
X1305223Y429001D01*
X1305941Y431682D01*
Y434458D01*
X1305223Y437139D01*
X1303835Y439542D01*
X1301872Y441505D01*
X1299469Y442893D01*
X1296788Y443611D01*
D02*
G37*
G36*
X1271388D02*
X1268612D01*
X1265931Y442893D01*
X1263528Y441505D01*
X1261565Y439542D01*
X1260177Y437139D01*
X1259459Y434458D01*
Y431682D01*
X1260177Y429001D01*
X1261565Y426598D01*
X1263528Y424635D01*
X1265931Y423247D01*
X1268612Y422529D01*
X1271388D01*
X1274069Y423247D01*
X1276472Y424635D01*
X1278435Y426598D01*
X1279823Y429001D01*
X1280541Y431682D01*
Y434458D01*
X1279823Y437139D01*
X1278435Y439542D01*
X1276472Y441505D01*
X1274069Y442893D01*
X1271388Y443611D01*
D02*
G37*
G36*
X230231Y429950D02*
X227709D01*
X225272Y429297D01*
X223088Y428036D01*
X221304Y426252D01*
X220043Y424068D01*
X219390Y421631D01*
Y419109D01*
X220043Y416672D01*
X221304Y414488D01*
X223088Y412704D01*
X225272Y411443D01*
X227709Y410790D01*
X230231D01*
X232668Y411443D01*
X234852Y412704D01*
X236636Y414488D01*
X237897Y416672D01*
X238550Y419109D01*
Y421631D01*
X237897Y424068D01*
X236636Y426252D01*
X234852Y428036D01*
X232668Y429297D01*
X230231Y429950D01*
D02*
G37*
G36*
X204831D02*
X202309D01*
X199872Y429297D01*
X197688Y428036D01*
X195904Y426252D01*
X194643Y424068D01*
X193990Y421631D01*
Y419109D01*
X194643Y416672D01*
X195904Y414488D01*
X197688Y412704D01*
X199872Y411443D01*
X202309Y410790D01*
X204831D01*
X207268Y411443D01*
X209452Y412704D01*
X211236Y414488D01*
X212497Y416672D01*
X213150Y419109D01*
Y421631D01*
X212497Y424068D01*
X211236Y426252D01*
X209452Y428036D01*
X207268Y429297D01*
X204831Y429950D01*
D02*
G37*
G36*
X179431D02*
X176909D01*
X174472Y429297D01*
X172288Y428036D01*
X170504Y426252D01*
X169243Y424068D01*
X168590Y421631D01*
Y419109D01*
X168800Y418325D01*
X116987Y366513D01*
X115865Y364832D01*
X115471Y362850D01*
Y55315D01*
X105975D01*
Y27235D01*
X134055D01*
Y55315D01*
X125829D01*
Y360705D01*
X176125Y411000D01*
X176909Y410790D01*
X179431D01*
X181868Y411443D01*
X184052Y412704D01*
X185836Y414488D01*
X187097Y416672D01*
X187750Y419109D01*
Y421631D01*
X187097Y424068D01*
X185836Y426252D01*
X184052Y428036D01*
X181868Y429297D01*
X179431Y429950D01*
D02*
G37*
G36*
X1201152Y519390D02*
X1199147D01*
X1197295Y518623D01*
X1195877Y517205D01*
X1195110Y515353D01*
Y513348D01*
X1195877Y511495D01*
X1196265Y511107D01*
Y410913D01*
X1195877Y410525D01*
X1195110Y408672D01*
Y406668D01*
X1195877Y404815D01*
X1197295Y403397D01*
X1199147Y402630D01*
X1201152D01*
X1203005Y403397D01*
X1204423Y404815D01*
X1205190Y406668D01*
Y408672D01*
X1204423Y410525D01*
X1204035Y410913D01*
Y511107D01*
X1204423Y511495D01*
X1205190Y513348D01*
Y515353D01*
X1204423Y517205D01*
X1203005Y518623D01*
X1201152Y519390D01*
D02*
G37*
G36*
X1296788Y418211D02*
X1294012D01*
X1291331Y417493D01*
X1288928Y416105D01*
X1286965Y414142D01*
X1285577Y411739D01*
X1284859Y409058D01*
Y406282D01*
X1285577Y403601D01*
X1286965Y401198D01*
X1288928Y399235D01*
X1291331Y397847D01*
X1294012Y397129D01*
X1296788D01*
X1299469Y397847D01*
X1301872Y399235D01*
X1303835Y401198D01*
X1305223Y403601D01*
X1305941Y406282D01*
Y409058D01*
X1305223Y411739D01*
X1303835Y414142D01*
X1301872Y416105D01*
X1299469Y417493D01*
X1296788Y418211D01*
D02*
G37*
G36*
X1271388D02*
X1268612D01*
X1265931Y417493D01*
X1263528Y416105D01*
X1261565Y414142D01*
X1260177Y411739D01*
X1259459Y409058D01*
Y406282D01*
X1260177Y403601D01*
X1261565Y401198D01*
X1263528Y399235D01*
X1265931Y397847D01*
X1268612Y397129D01*
X1271388D01*
X1274069Y397847D01*
X1276472Y399235D01*
X1278435Y401198D01*
X1279823Y403601D01*
X1280541Y406282D01*
Y409058D01*
X1279823Y411739D01*
X1278435Y414142D01*
X1276472Y416105D01*
X1274069Y417493D01*
X1271388Y418211D01*
D02*
G37*
G36*
X382631Y404550D02*
X380109D01*
X377672Y403897D01*
X375488Y402636D01*
X373704Y400852D01*
X372443Y398668D01*
X371790Y396231D01*
Y393709D01*
X372443Y391272D01*
X373704Y389088D01*
X375488Y387304D01*
X377672Y386043D01*
X380109Y385390D01*
X382631D01*
X385068Y386043D01*
X387252Y387304D01*
X389036Y389088D01*
X390297Y391272D01*
X390950Y393709D01*
Y396231D01*
X390297Y398668D01*
X389036Y400852D01*
X387252Y402636D01*
X385068Y403897D01*
X382631Y404550D01*
D02*
G37*
G36*
X204831D02*
X202309D01*
X199872Y403897D01*
X197688Y402636D01*
X195904Y400852D01*
X194643Y398668D01*
X193990Y396231D01*
Y393709D01*
X194643Y391272D01*
X195904Y389088D01*
X197688Y387304D01*
X199872Y386043D01*
X202309Y385390D01*
X204831D01*
X207268Y386043D01*
X209452Y387304D01*
X211236Y389088D01*
X212497Y391272D01*
X213150Y393709D01*
Y396231D01*
X212497Y398668D01*
X211236Y400852D01*
X209452Y402636D01*
X207268Y403897D01*
X204831Y404550D01*
D02*
G37*
G36*
X179431D02*
X176909D01*
X174472Y403897D01*
X172288Y402636D01*
X170504Y400852D01*
X169243Y398668D01*
X168590Y396231D01*
Y393709D01*
X168800Y392925D01*
X153818Y377943D01*
X152695Y376262D01*
X152301Y374280D01*
Y105410D01*
X152695Y103428D01*
X153818Y101748D01*
X219858Y35707D01*
X221538Y34585D01*
X223520Y34190D01*
X250120D01*
Y25330D01*
X278200D01*
Y53410D01*
X250120D01*
Y44549D01*
X225665D01*
X162659Y107555D01*
Y372135D01*
X176125Y385600D01*
X176909Y385390D01*
X179431D01*
X181868Y386043D01*
X184052Y387304D01*
X185836Y389088D01*
X187097Y391272D01*
X187750Y393709D01*
Y396231D01*
X187097Y398668D01*
X185836Y400852D01*
X184052Y402636D01*
X181868Y403897D01*
X179431Y404550D01*
D02*
G37*
G36*
X1124952Y681950D02*
X1122947D01*
X1121095Y681183D01*
X1119677Y679765D01*
X1118910Y677913D01*
Y675908D01*
X1119677Y674055D01*
X1120065Y673667D01*
Y498543D01*
X1119677Y498155D01*
X1118910Y496302D01*
Y494297D01*
X1119677Y492445D01*
X1120065Y492057D01*
Y385513D01*
X1119677Y385125D01*
X1118910Y383273D01*
Y381268D01*
X1119677Y379415D01*
X1121095Y377997D01*
X1122947Y377230D01*
X1124952D01*
X1126805Y377997D01*
X1128223Y379415D01*
X1128990Y381268D01*
Y383273D01*
X1128223Y385125D01*
X1127835Y385513D01*
Y492057D01*
X1128223Y492445D01*
X1128990Y494297D01*
Y496302D01*
X1128223Y498155D01*
X1127835Y498543D01*
Y673667D01*
X1128223Y674055D01*
X1128990Y675908D01*
Y677913D01*
X1128223Y679765D01*
X1126805Y681183D01*
X1124952Y681950D01*
D02*
G37*
G36*
X1296788Y392811D02*
X1294012D01*
X1291331Y392093D01*
X1288928Y390705D01*
X1286965Y388742D01*
X1285577Y386339D01*
X1284859Y383658D01*
Y380882D01*
X1285577Y378201D01*
X1286965Y375798D01*
X1288928Y373835D01*
X1291331Y372447D01*
X1294012Y371729D01*
X1296788D01*
X1299469Y372447D01*
X1301872Y373835D01*
X1303835Y375798D01*
X1305223Y378201D01*
X1305941Y380882D01*
Y383658D01*
X1305223Y386339D01*
X1303835Y388742D01*
X1301872Y390705D01*
X1299469Y392093D01*
X1296788Y392811D01*
D02*
G37*
G36*
X1271388D02*
X1268612D01*
X1265931Y392093D01*
X1263528Y390705D01*
X1261565Y388742D01*
X1260177Y386339D01*
X1259459Y383658D01*
Y380882D01*
X1260177Y378201D01*
X1261565Y375798D01*
X1263528Y373835D01*
X1265931Y372447D01*
X1268612Y371729D01*
X1271388D01*
X1274069Y372447D01*
X1276472Y373835D01*
X1278435Y375798D01*
X1279823Y378201D01*
X1280541Y380882D01*
Y383658D01*
X1279823Y386339D01*
X1278435Y388742D01*
X1276472Y390705D01*
X1274069Y392093D01*
X1271388Y392811D01*
D02*
G37*
G36*
X948881Y379150D02*
X946359D01*
X943922Y378497D01*
X941738Y377236D01*
X939954Y375452D01*
X938693Y373268D01*
X938040Y370831D01*
Y368309D01*
X938693Y365872D01*
X939954Y363688D01*
X941738Y361904D01*
X943922Y360643D01*
X946359Y359990D01*
X948881D01*
X951318Y360643D01*
X953502Y361904D01*
X955286Y363688D01*
X956547Y365872D01*
X957200Y368309D01*
Y370831D01*
X956547Y373268D01*
X955286Y375452D01*
X953502Y377236D01*
X951318Y378497D01*
X948881Y379150D01*
D02*
G37*
G36*
X923481D02*
X920959D01*
X918522Y378497D01*
X916338Y377236D01*
X914554Y375452D01*
X913293Y373268D01*
X912640Y370831D01*
Y368309D01*
X913293Y365872D01*
X914554Y363688D01*
X916338Y361904D01*
X918522Y360643D01*
X920959Y359990D01*
X923481D01*
X925918Y360643D01*
X928102Y361904D01*
X929886Y363688D01*
X931147Y365872D01*
X931800Y368309D01*
Y370831D01*
X931147Y373268D01*
X929886Y375452D01*
X928102Y377236D01*
X925918Y378497D01*
X923481Y379150D01*
D02*
G37*
G36*
X204831D02*
X202309D01*
X199872Y378497D01*
X197688Y377236D01*
X195904Y375452D01*
X194643Y373268D01*
X193990Y370831D01*
Y368309D01*
X194643Y365872D01*
X195904Y363688D01*
X197688Y361904D01*
X199872Y360643D01*
X202309Y359990D01*
X204831D01*
X207268Y360643D01*
X209452Y361904D01*
X211236Y363688D01*
X212497Y365872D01*
X213150Y368309D01*
Y370831D01*
X212497Y373268D01*
X211236Y375452D01*
X209452Y377236D01*
X207268Y378497D01*
X204831Y379150D01*
D02*
G37*
G36*
X1226553Y695920D02*
X1224548D01*
X1222695Y695153D01*
X1221277Y693735D01*
X1220510Y691882D01*
Y689877D01*
X1221277Y688025D01*
X1221665Y687637D01*
Y464253D01*
X1221277Y463865D01*
X1220510Y462012D01*
Y460008D01*
X1221277Y458155D01*
X1221665Y457767D01*
Y360113D01*
X1221277Y359725D01*
X1220510Y357873D01*
Y355868D01*
X1221277Y354015D01*
X1222695Y352597D01*
X1224548Y351830D01*
X1226553D01*
X1228405Y352597D01*
X1229823Y354015D01*
X1230590Y355868D01*
Y357873D01*
X1229823Y359725D01*
X1229435Y360113D01*
Y457767D01*
X1229823Y458155D01*
X1230590Y460008D01*
Y462012D01*
X1229823Y463865D01*
X1229435Y464253D01*
Y687637D01*
X1229823Y688025D01*
X1230590Y689877D01*
Y691882D01*
X1229823Y693735D01*
X1228405Y695153D01*
X1226553Y695920D01*
D02*
G37*
G36*
X1296788Y367411D02*
X1294012D01*
X1291331Y366693D01*
X1288928Y365305D01*
X1286965Y363342D01*
X1285577Y360939D01*
X1284859Y358258D01*
Y355482D01*
X1285577Y352801D01*
X1286965Y350398D01*
X1288928Y348435D01*
X1291331Y347047D01*
X1294012Y346329D01*
X1296788D01*
X1299469Y347047D01*
X1301872Y348435D01*
X1303835Y350398D01*
X1305223Y352801D01*
X1305941Y355482D01*
Y358258D01*
X1305223Y360939D01*
X1303835Y363342D01*
X1301872Y365305D01*
X1299469Y366693D01*
X1296788Y367411D01*
D02*
G37*
G36*
X1271388D02*
X1268612D01*
X1265931Y366693D01*
X1263528Y365305D01*
X1261565Y363342D01*
X1260177Y360939D01*
X1259459Y358258D01*
Y355482D01*
X1260177Y352801D01*
X1261565Y350398D01*
X1263528Y348435D01*
X1265931Y347047D01*
X1268612Y346329D01*
X1271388D01*
X1274069Y347047D01*
X1276472Y348435D01*
X1278435Y350398D01*
X1279823Y352801D01*
X1280541Y355482D01*
Y358258D01*
X1279823Y360939D01*
X1278435Y363342D01*
X1276472Y365305D01*
X1274069Y366693D01*
X1271388Y367411D01*
D02*
G37*
G36*
X948881Y353750D02*
X946359D01*
X943922Y353097D01*
X941738Y351836D01*
X939954Y350052D01*
X938693Y347868D01*
X938040Y345431D01*
Y342909D01*
X938693Y340472D01*
X939954Y338288D01*
X941738Y336504D01*
X943922Y335243D01*
X946359Y334590D01*
X948881D01*
X951318Y335243D01*
X953502Y336504D01*
X955286Y338288D01*
X956547Y340472D01*
X957200Y342909D01*
Y345431D01*
X956547Y347868D01*
X955286Y350052D01*
X953502Y351836D01*
X951318Y353097D01*
X948881Y353750D01*
D02*
G37*
G36*
X204831D02*
X202309D01*
X199872Y353097D01*
X197688Y351836D01*
X195904Y350052D01*
X194643Y347868D01*
X193990Y345431D01*
Y342909D01*
X194643Y340472D01*
X195904Y338288D01*
X197688Y336504D01*
X199872Y335243D01*
X202309Y334590D01*
X204831D01*
X207268Y335243D01*
X209452Y336504D01*
X211236Y338288D01*
X212497Y340472D01*
X213150Y342909D01*
Y345431D01*
X212497Y347868D01*
X211236Y350052D01*
X209452Y351836D01*
X207268Y353097D01*
X204831Y353750D01*
D02*
G37*
G36*
X1164323Y720050D02*
X1162318D01*
X1160465Y719283D01*
X1159047Y717865D01*
X1158280Y716012D01*
Y714007D01*
X1159047Y712155D01*
X1159435Y711767D01*
Y446473D01*
X1159047Y446085D01*
X1158280Y444232D01*
Y442228D01*
X1159047Y440375D01*
X1159435Y439987D01*
Y335983D01*
X1159047Y335595D01*
X1158280Y333742D01*
Y331738D01*
X1159047Y329885D01*
X1160465Y328467D01*
X1162318Y327700D01*
X1164323D01*
X1166175Y328467D01*
X1167593Y329885D01*
X1168360Y331738D01*
Y333742D01*
X1167593Y335595D01*
X1167205Y335983D01*
Y439987D01*
X1167593Y440375D01*
X1168360Y442228D01*
Y444232D01*
X1167593Y446085D01*
X1167205Y446473D01*
Y711767D01*
X1167593Y712155D01*
X1168360Y714007D01*
Y716012D01*
X1167593Y717865D01*
X1166175Y719283D01*
X1164323Y720050D01*
D02*
G37*
G36*
X1296788Y342011D02*
X1294012D01*
X1291331Y341293D01*
X1288928Y339905D01*
X1286965Y337942D01*
X1285577Y335539D01*
X1284859Y332858D01*
Y330082D01*
X1285577Y327401D01*
X1286965Y324998D01*
X1288928Y323035D01*
X1291331Y321647D01*
X1294012Y320929D01*
X1296788D01*
X1299469Y321647D01*
X1301872Y323035D01*
X1303835Y324998D01*
X1305223Y327401D01*
X1305941Y330082D01*
Y332858D01*
X1305223Y335539D01*
X1303835Y337942D01*
X1301872Y339905D01*
X1299469Y341293D01*
X1296788Y342011D01*
D02*
G37*
G36*
X1271388D02*
X1268612D01*
X1265931Y341293D01*
X1263528Y339905D01*
X1261565Y337942D01*
X1260177Y335539D01*
X1259459Y332858D01*
Y330082D01*
X1260177Y327401D01*
X1261565Y324998D01*
X1263528Y323035D01*
X1265931Y321647D01*
X1268612Y320929D01*
X1271388D01*
X1274069Y321647D01*
X1276472Y323035D01*
X1278435Y324998D01*
X1279823Y327401D01*
X1280541Y330082D01*
Y332858D01*
X1279823Y335539D01*
X1278435Y337942D01*
X1276472Y339905D01*
X1274069Y341293D01*
X1271388Y342011D01*
D02*
G37*
G36*
X948881Y328350D02*
X946359D01*
X943922Y327697D01*
X941738Y326436D01*
X939954Y324652D01*
X938693Y322468D01*
X938040Y320031D01*
Y317509D01*
X938693Y315072D01*
X939954Y312888D01*
X941738Y311104D01*
X943922Y309843D01*
X946359Y309190D01*
X948881D01*
X951318Y309843D01*
X953502Y311104D01*
X955286Y312888D01*
X956547Y315072D01*
X957200Y317509D01*
Y320031D01*
X956547Y322468D01*
X955286Y324652D01*
X953502Y326436D01*
X951318Y327697D01*
X948881Y328350D01*
D02*
G37*
G36*
X872681D02*
X870159D01*
X867722Y327697D01*
X865538Y326436D01*
X863754Y324652D01*
X862493Y322468D01*
X861840Y320031D01*
Y317509D01*
X862493Y315072D01*
X863754Y312888D01*
X865538Y311104D01*
X867722Y309843D01*
X870159Y309190D01*
X872681D01*
X875118Y309843D01*
X877302Y311104D01*
X879086Y312888D01*
X880347Y315072D01*
X881000Y317509D01*
Y320031D01*
X880347Y322468D01*
X879086Y324652D01*
X877302Y326436D01*
X875118Y327697D01*
X872681Y328350D01*
D02*
G37*
G36*
X204831D02*
X202309D01*
X199872Y327697D01*
X197688Y326436D01*
X195904Y324652D01*
X194643Y322468D01*
X193990Y320031D01*
Y317509D01*
X194643Y315072D01*
X195904Y312888D01*
X197688Y311104D01*
X199872Y309843D01*
X202309Y309190D01*
X204831D01*
X207268Y309843D01*
X209452Y311104D01*
X211236Y312888D01*
X212497Y315072D01*
X213150Y317509D01*
Y320031D01*
X212497Y322468D01*
X211236Y324652D01*
X209452Y326436D01*
X207268Y327697D01*
X204831Y328350D01*
D02*
G37*
G36*
X1184642Y707350D02*
X1182637D01*
X1180785Y706583D01*
X1179367Y705165D01*
X1178600Y703313D01*
Y701308D01*
X1179367Y699455D01*
X1179755Y699067D01*
Y487113D01*
X1179367Y486725D01*
X1178600Y484873D01*
Y482868D01*
X1179367Y481015D01*
X1179755Y480627D01*
Y309313D01*
X1179367Y308925D01*
X1178600Y307073D01*
Y305068D01*
X1179367Y303215D01*
X1180785Y301797D01*
X1182637Y301030D01*
X1184642D01*
X1186495Y301797D01*
X1187913Y303215D01*
X1188680Y305068D01*
Y307073D01*
X1187913Y308925D01*
X1187525Y309313D01*
Y480627D01*
X1187913Y481015D01*
X1188680Y482868D01*
Y484873D01*
X1187913Y486725D01*
X1187525Y487113D01*
Y699067D01*
X1187913Y699455D01*
X1188680Y701308D01*
Y703313D01*
X1187913Y705165D01*
X1186495Y706583D01*
X1184642Y707350D01*
D02*
G37*
G36*
X1296788Y316611D02*
X1294012D01*
X1291331Y315893D01*
X1288928Y314505D01*
X1286965Y312542D01*
X1285577Y310139D01*
X1284859Y307458D01*
Y304682D01*
X1285577Y302001D01*
X1286965Y299598D01*
X1288928Y297635D01*
X1291331Y296247D01*
X1294012Y295529D01*
X1296788D01*
X1299469Y296247D01*
X1301872Y297635D01*
X1303835Y299598D01*
X1305223Y302001D01*
X1305941Y304682D01*
Y307458D01*
X1305223Y310139D01*
X1303835Y312542D01*
X1301872Y314505D01*
X1299469Y315893D01*
X1296788Y316611D01*
D02*
G37*
G36*
X1271388D02*
X1268612D01*
X1265931Y315893D01*
X1263528Y314505D01*
X1261565Y312542D01*
X1260177Y310139D01*
X1259459Y307458D01*
Y304682D01*
X1260177Y302001D01*
X1261565Y299598D01*
X1263528Y297635D01*
X1265931Y296247D01*
X1268612Y295529D01*
X1271388D01*
X1274069Y296247D01*
X1276472Y297635D01*
X1278435Y299598D01*
X1279823Y302001D01*
X1280541Y304682D01*
Y307458D01*
X1279823Y310139D01*
X1278435Y312542D01*
X1276472Y314505D01*
X1274069Y315893D01*
X1271388Y316611D01*
D02*
G37*
G36*
X974281Y302950D02*
X971759D01*
X969322Y302297D01*
X967138Y301036D01*
X965354Y299252D01*
X964093Y297068D01*
X963440Y294631D01*
Y292109D01*
X963844Y290603D01*
X956915Y283675D01*
X955933Y282204D01*
X955588Y280470D01*
Y253497D01*
X955933Y251763D01*
X956915Y250293D01*
X968288Y238920D01*
Y219780D01*
X965780D01*
Y206700D01*
X979860D01*
Y219780D01*
X977352D01*
Y240797D01*
X977352Y240797D01*
X977007Y242532D01*
X976025Y244002D01*
X976025Y244002D01*
X964652Y255375D01*
Y258390D01*
X982600D01*
Y277550D01*
X965201D01*
X964880Y278820D01*
X970253Y284193D01*
X971759Y283790D01*
X974281D01*
X976718Y284443D01*
X978902Y285704D01*
X980686Y287488D01*
X981947Y289672D01*
X982600Y292109D01*
Y294631D01*
X981947Y297068D01*
X980686Y299252D01*
X978902Y301036D01*
X976718Y302297D01*
X974281Y302950D01*
D02*
G37*
G36*
X179431D02*
X176909D01*
X174472Y302297D01*
X172288Y301036D01*
X170504Y299252D01*
X169243Y297068D01*
X168590Y294631D01*
Y292109D01*
X169243Y289672D01*
X170504Y287488D01*
X172288Y285704D01*
X174472Y284443D01*
X176909Y283790D01*
X179431D01*
X181868Y284443D01*
X184052Y285704D01*
X185836Y287488D01*
X187097Y289672D01*
X187750Y292109D01*
Y294631D01*
X187097Y297068D01*
X185836Y299252D01*
X184052Y301036D01*
X181868Y302297D01*
X179431Y302950D01*
D02*
G37*
G36*
X923481D02*
X920959D01*
X918522Y302297D01*
X916338Y301036D01*
X914554Y299252D01*
X913293Y297068D01*
X912640Y294631D01*
Y292109D01*
X913293Y289672D01*
X914554Y287488D01*
X916338Y285704D01*
X918522Y284443D01*
X920959Y283790D01*
X921659D01*
X922220Y282951D01*
X928022Y277149D01*
X927242Y276133D01*
X925918Y276897D01*
X923481Y277550D01*
X920959D01*
X918522Y276897D01*
X916338Y275636D01*
X914554Y273852D01*
X913293Y271668D01*
X912640Y269231D01*
Y266709D01*
X913293Y264272D01*
X914554Y262088D01*
X916338Y260304D01*
X917465Y259653D01*
Y229504D01*
X916980Y228333D01*
Y226327D01*
X917747Y224475D01*
X919165Y223057D01*
X921018Y222290D01*
X923023D01*
X924875Y223057D01*
X926293Y224475D01*
X927060Y226327D01*
Y228333D01*
X926293Y230185D01*
X925235Y231243D01*
Y258860D01*
X925918Y259043D01*
X928102Y260304D01*
X929886Y262088D01*
X930333Y262862D01*
X931603Y262522D01*
Y252429D01*
X931948Y250694D01*
X932931Y249224D01*
X942888Y239266D01*
Y220090D01*
X939110D01*
Y207010D01*
X953190D01*
Y220090D01*
X951952D01*
Y241144D01*
X951607Y242878D01*
X950625Y244348D01*
X950625Y244348D01*
X940667Y254306D01*
Y275445D01*
X940322Y277179D01*
X939340Y278650D01*
X939340Y278650D01*
X930111Y287878D01*
X931147Y289672D01*
X931800Y292109D01*
Y294631D01*
X931147Y297068D01*
X929886Y299252D01*
X928102Y301036D01*
X925918Y302297D01*
X923481Y302950D01*
D02*
G37*
G36*
X1296788Y291211D02*
X1294012D01*
X1291331Y290493D01*
X1288928Y289105D01*
X1286965Y287142D01*
X1285577Y284739D01*
X1284859Y282058D01*
Y279282D01*
X1285577Y276601D01*
X1286965Y274198D01*
X1288928Y272235D01*
X1291331Y270847D01*
X1294012Y270129D01*
X1296788D01*
X1299469Y270847D01*
X1301872Y272235D01*
X1303835Y274198D01*
X1305223Y276601D01*
X1305941Y279282D01*
Y282058D01*
X1305223Y284739D01*
X1303835Y287142D01*
X1301872Y289105D01*
X1299469Y290493D01*
X1296788Y291211D01*
D02*
G37*
G36*
X1271388D02*
X1268612D01*
X1265931Y290493D01*
X1263528Y289105D01*
X1261565Y287142D01*
X1260177Y284739D01*
X1259459Y282058D01*
Y279282D01*
X1260177Y276601D01*
X1261565Y274198D01*
X1263528Y272235D01*
X1265931Y270847D01*
X1268612Y270129D01*
X1271388D01*
X1274069Y270847D01*
X1276472Y272235D01*
X1278435Y274198D01*
X1279823Y276601D01*
X1280541Y279282D01*
Y282058D01*
X1279823Y284739D01*
X1278435Y287142D01*
X1276472Y289105D01*
X1274069Y290493D01*
X1271388Y291211D01*
D02*
G37*
G36*
X1075526Y279410D02*
X1072514D01*
X1069604Y278630D01*
X1066996Y277124D01*
X1064866Y274994D01*
X1063360Y272386D01*
X1062580Y269476D01*
Y266464D01*
X1063360Y263554D01*
X1064866Y260946D01*
X1066996Y258816D01*
X1069604Y257310D01*
X1072514Y256530D01*
X1075526D01*
X1078436Y257310D01*
X1081044Y258816D01*
X1083175Y260946D01*
X1084681Y263554D01*
X1085460Y266464D01*
Y269476D01*
X1084681Y272386D01*
X1083175Y274994D01*
X1081044Y277124D01*
X1078436Y278630D01*
X1075526Y279410D01*
D02*
G37*
G36*
X78676D02*
X75664D01*
X72754Y278630D01*
X70146Y277124D01*
X68015Y274994D01*
X66509Y272386D01*
X65730Y269476D01*
Y266464D01*
X66509Y263554D01*
X68015Y260946D01*
X70146Y258816D01*
X72754Y257310D01*
X75664Y256530D01*
X78676D01*
X81585Y257310D01*
X84194Y258816D01*
X86324Y260946D01*
X87830Y263554D01*
X88610Y266464D01*
Y269476D01*
X87830Y272386D01*
X86324Y274994D01*
X84194Y277124D01*
X81585Y278630D01*
X78676Y279410D01*
D02*
G37*
G36*
X1296788Y265811D02*
X1294012D01*
X1291331Y265093D01*
X1288928Y263705D01*
X1286965Y261742D01*
X1285577Y259339D01*
X1284859Y256658D01*
Y253882D01*
X1285577Y251201D01*
X1286965Y248798D01*
X1288928Y246835D01*
X1291331Y245447D01*
X1294012Y244729D01*
X1296788D01*
X1299469Y245447D01*
X1301872Y246835D01*
X1303835Y248798D01*
X1305223Y251201D01*
X1305941Y253882D01*
Y256658D01*
X1305223Y259339D01*
X1303835Y261742D01*
X1301872Y263705D01*
X1299469Y265093D01*
X1296788Y265811D01*
D02*
G37*
G36*
X1271388D02*
X1268612D01*
X1265931Y265093D01*
X1263528Y263705D01*
X1261565Y261742D01*
X1260177Y259339D01*
X1259459Y256658D01*
Y253882D01*
X1260177Y251201D01*
X1261565Y248798D01*
X1263528Y246835D01*
X1265931Y245447D01*
X1268612Y244729D01*
X1271388D01*
X1274069Y245447D01*
X1276472Y246835D01*
X1278435Y248798D01*
X1279823Y251201D01*
X1280541Y253882D01*
Y256658D01*
X1279823Y259339D01*
X1278435Y261742D01*
X1276472Y263705D01*
X1274069Y265093D01*
X1271388Y265811D01*
D02*
G37*
G36*
X419809Y249729D02*
X419108Y249589D01*
X418807D01*
X418529Y249474D01*
X417827Y249334D01*
X417232Y248937D01*
X416954Y248822D01*
X416741Y248609D01*
X416147Y248212D01*
X402738Y234802D01*
X401615Y233122D01*
X401221Y231140D01*
Y223590D01*
X399360D01*
Y210510D01*
X413440D01*
Y223590D01*
X411580D01*
Y228995D01*
X423472Y240887D01*
X423869Y241481D01*
X424082Y241694D01*
X424197Y241972D01*
X424594Y242567D01*
X424734Y243269D01*
X424849Y243547D01*
Y243848D01*
X424989Y244549D01*
X424849Y245251D01*
Y245552D01*
X424734Y245830D01*
X424594Y246531D01*
X424197Y247126D01*
X424082Y247404D01*
X423869Y247617D01*
X423472Y248212D01*
X422877Y248609D01*
X422664Y248822D01*
X422386Y248937D01*
X421791Y249334D01*
X421090Y249474D01*
X420812Y249589D01*
X420511D01*
X419809Y249729D01*
D02*
G37*
G36*
X695117Y263417D02*
X694416Y263277D01*
X694115D01*
X693837Y263162D01*
X693135Y263022D01*
X692540Y262625D01*
X692262Y262510D01*
X692049Y262297D01*
X691455Y261900D01*
X691057Y261305D01*
X690844Y261092D01*
X690729Y260814D01*
X690332Y260219D01*
X690192Y259518D01*
X690077Y259240D01*
Y258939D01*
X689938Y258237D01*
X690077Y257536D01*
Y257235D01*
X690192Y256957D01*
X690332Y256255D01*
X690729Y255660D01*
X690844Y255382D01*
X691057Y255169D01*
X691455Y254575D01*
X713641Y232389D01*
Y218510D01*
X711780D01*
Y205430D01*
X725860D01*
Y218510D01*
X723999D01*
Y234534D01*
X723605Y236517D01*
X722483Y238197D01*
X698780Y261900D01*
X698185Y262297D01*
X697972Y262510D01*
X697694Y262625D01*
X697099Y263022D01*
X696398Y263162D01*
X696120Y263277D01*
X695819D01*
X695117Y263417D01*
D02*
G37*
G36*
X357231Y277550D02*
X354709D01*
X352272Y276897D01*
X350088Y275636D01*
X348304Y273852D01*
X347043Y271668D01*
X346390Y269231D01*
Y266709D01*
X347043Y264272D01*
X348304Y262088D01*
X350088Y260304D01*
X352085Y259151D01*
Y249621D01*
X351976Y249599D01*
X350715Y248757D01*
X349192Y247233D01*
X348349Y245973D01*
X348054Y244486D01*
Y239914D01*
X348349Y238428D01*
X349192Y237167D01*
X350715Y235643D01*
X351976Y234801D01*
X353462Y234506D01*
X353996D01*
X354117Y234346D01*
X354465Y233235D01*
X353223Y231993D01*
X352381Y230733D01*
X352085Y229246D01*
Y211153D01*
X351697Y210765D01*
X350930Y208913D01*
Y206908D01*
X351697Y205055D01*
X353115Y203638D01*
X354967Y202870D01*
X356972D01*
X358825Y203638D01*
X360243Y205055D01*
X361010Y206908D01*
Y208913D01*
X360243Y210765D01*
X359855Y211153D01*
Y227160D01*
X359963Y227181D01*
X361224Y228023D01*
X362748Y229547D01*
X363590Y230808D01*
X363885Y232294D01*
Y236866D01*
X363590Y238353D01*
X362748Y239613D01*
X361224Y241137D01*
X359963Y241979D01*
X358477Y242275D01*
X357943D01*
X357822Y242434D01*
X357474Y243545D01*
X358717Y244787D01*
X359559Y246048D01*
X359855Y247534D01*
Y259151D01*
X361852Y260304D01*
X363636Y262088D01*
X364897Y264272D01*
X365550Y266709D01*
Y269231D01*
X364897Y271668D01*
X363636Y273852D01*
X361852Y275636D01*
X359668Y276897D01*
X357231Y277550D01*
D02*
G37*
G36*
X898081D02*
X895559D01*
X893122Y276897D01*
X890938Y275636D01*
X889154Y273852D01*
X887893Y271668D01*
X887240Y269231D01*
Y266709D01*
X887893Y264272D01*
X889154Y262088D01*
X890938Y260304D01*
X892053Y259660D01*
Y212373D01*
X891595Y212183D01*
X890177Y210765D01*
X889410Y208913D01*
Y206908D01*
X890177Y205055D01*
X891595Y203638D01*
X893447Y202870D01*
X894402D01*
X894439Y202845D01*
X895926Y202550D01*
X897412Y202845D01*
X898672Y203688D01*
X898685Y203700D01*
X899527Y204960D01*
X899822Y206447D01*
Y258857D01*
X900518Y259043D01*
X902702Y260304D01*
X904486Y262088D01*
X905747Y264272D01*
X906400Y266709D01*
Y269231D01*
X905747Y271668D01*
X904486Y273852D01*
X902702Y275636D01*
X900518Y276897D01*
X898081Y277550D01*
D02*
G37*
G36*
X1215123Y535900D02*
X1213118D01*
X1211265Y535133D01*
X1209847Y533715D01*
X1209080Y531862D01*
Y529857D01*
X1209847Y528005D01*
X1210235Y527617D01*
Y207713D01*
X1209847Y207325D01*
X1209080Y205473D01*
Y203468D01*
X1209847Y201615D01*
X1211265Y200197D01*
X1213118Y199430D01*
X1215123D01*
X1216975Y200197D01*
X1218393Y201615D01*
X1219160Y203468D01*
Y205473D01*
X1218393Y207325D01*
X1218005Y207713D01*
Y527617D01*
X1218393Y528005D01*
X1219160Y529857D01*
Y531862D01*
X1218393Y533715D01*
X1216975Y535133D01*
X1215123Y535900D01*
D02*
G37*
G36*
X281031Y277550D02*
X278509D01*
X276072Y276897D01*
X273888Y275636D01*
X272104Y273852D01*
X270843Y271668D01*
X270190Y269231D01*
Y266709D01*
X270843Y264272D01*
X272104Y262088D01*
X273888Y260304D01*
X275885Y259151D01*
Y172159D01*
X271326Y167600D01*
X270777D01*
X268925Y166833D01*
X267507Y165415D01*
X266740Y163563D01*
Y161558D01*
X267507Y159705D01*
X268925Y158287D01*
X270777Y157520D01*
X272782D01*
X274635Y158287D01*
X276053Y159705D01*
X276820Y161558D01*
Y162106D01*
X282517Y167803D01*
X283359Y169063D01*
X283654Y170550D01*
Y259151D01*
X285652Y260304D01*
X287436Y262088D01*
X288697Y264272D01*
X289350Y266709D01*
Y269231D01*
X288697Y271668D01*
X287436Y273852D01*
X285652Y275636D01*
X283468Y276897D01*
X281031Y277550D01*
D02*
G37*
G36*
X255631D02*
X253109D01*
X250672Y276897D01*
X248488Y275636D01*
X246704Y273852D01*
X245443Y271668D01*
X244790Y269231D01*
Y266709D01*
X245443Y264272D01*
X246704Y262088D01*
X248488Y260304D01*
X250672Y259043D01*
X250935Y258972D01*
Y243915D01*
X247397D01*
X245911Y243619D01*
X244651Y242777D01*
X243127Y241253D01*
X242285Y239993D01*
X241989Y238506D01*
Y142494D01*
X242285Y141007D01*
X243127Y139747D01*
X244651Y138223D01*
X245911Y137381D01*
X247397Y137085D01*
X250935D01*
Y129423D01*
X250547Y129035D01*
X249780Y127183D01*
Y125178D01*
X250547Y123325D01*
X251965Y121907D01*
X253817Y121140D01*
X255822D01*
X257675Y121907D01*
X259093Y123325D01*
X259860Y125178D01*
Y127183D01*
X259093Y129035D01*
X258705Y129423D01*
Y139446D01*
X258409Y140933D01*
X257567Y142193D01*
X256043Y143717D01*
X254783Y144559D01*
X253296Y144855D01*
X249758D01*
Y236145D01*
X253296D01*
X254783Y236441D01*
X256043Y237283D01*
X257567Y238807D01*
X258409Y240067D01*
X258705Y241554D01*
Y259411D01*
X260252Y260304D01*
X262036Y262088D01*
X263297Y264272D01*
X263950Y266709D01*
Y269231D01*
X263297Y271668D01*
X262036Y273852D01*
X260252Y275636D01*
X258068Y276897D01*
X255631Y277550D01*
D02*
G37*
G36*
X230231D02*
X227709D01*
X225272Y276897D01*
X223088Y275636D01*
X221304Y273852D01*
X220043Y271668D01*
X219390Y269231D01*
Y266709D01*
X220043Y264272D01*
X221304Y262088D01*
X223088Y260304D01*
X225085Y259151D01*
Y107753D01*
X224697Y107365D01*
X223930Y105512D01*
Y103507D01*
X224697Y101655D01*
X226115Y100237D01*
X227967Y99470D01*
X229972D01*
X231825Y100237D01*
X233242Y101655D01*
X234010Y103507D01*
Y105512D01*
X233242Y107365D01*
X232854Y107753D01*
Y259151D01*
X234852Y260304D01*
X236636Y262088D01*
X237897Y264272D01*
X238550Y266709D01*
Y269231D01*
X237897Y271668D01*
X236636Y273852D01*
X234852Y275636D01*
X232668Y276897D01*
X230231Y277550D01*
D02*
G37*
G36*
X938817Y80930D02*
X935903D01*
X933046Y80362D01*
X930354Y79247D01*
X927932Y77628D01*
X925872Y75568D01*
X924253Y73146D01*
X923138Y70454D01*
X922570Y67597D01*
Y64683D01*
X923138Y61826D01*
X924253Y59134D01*
X925872Y56712D01*
X927932Y54652D01*
X930354Y53033D01*
X933046Y51918D01*
X935903Y51350D01*
X938817D01*
X941674Y51918D01*
X944366Y53033D01*
X946788Y54652D01*
X948848Y56712D01*
X950467Y59134D01*
X951582Y61826D01*
X952150Y64683D01*
Y67597D01*
X951582Y70454D01*
X950467Y73146D01*
X948848Y75568D01*
X946788Y77628D01*
X944366Y79247D01*
X941674Y80362D01*
X938817Y80930D01*
D02*
G37*
G36*
X974281Y379150D02*
X971759D01*
X969322Y378497D01*
X967138Y377236D01*
X965354Y375452D01*
X964093Y373268D01*
X963440Y370831D01*
Y368309D01*
X964093Y365872D01*
X965354Y363688D01*
X967138Y361904D01*
X968164Y361312D01*
X968487Y360827D01*
X1004471Y324845D01*
Y171055D01*
X908197Y74783D01*
X907075Y73102D01*
X906681Y71120D01*
Y54680D01*
X897820D01*
Y26600D01*
X925900D01*
Y54680D01*
X917039D01*
Y68975D01*
X1013313Y165247D01*
X1014435Y166928D01*
X1014829Y168910D01*
Y326990D01*
X1014829Y326990D01*
X1014435Y328972D01*
X1013313Y330652D01*
X980482Y363483D01*
X980686Y363688D01*
X981947Y365872D01*
X982600Y368309D01*
Y370831D01*
X981947Y373268D01*
X980686Y375452D01*
X978902Y377236D01*
X976718Y378497D01*
X974281Y379150D01*
D02*
G37*
G36*
X1171127Y45270D02*
X1168213D01*
X1165356Y44702D01*
X1162664Y43587D01*
X1160242Y41968D01*
X1158182Y39908D01*
X1156563Y37486D01*
X1155448Y34794D01*
X1154880Y31937D01*
Y29023D01*
X1155448Y26166D01*
X1156563Y23474D01*
X1158182Y21052D01*
X1160242Y18992D01*
X1162664Y17373D01*
X1165356Y16258D01*
X1168213Y15690D01*
X1171127D01*
X1173984Y16258D01*
X1176676Y17373D01*
X1179098Y18992D01*
X1181158Y21052D01*
X1182777Y23474D01*
X1183892Y26166D01*
X1184460Y29023D01*
Y31937D01*
X1183892Y34794D01*
X1182777Y37486D01*
X1181158Y39908D01*
X1179098Y41968D01*
X1176676Y43587D01*
X1173984Y44702D01*
X1171127Y45270D01*
D02*
G37*
%LPD*%
G36*
X632297Y504673D02*
X633557Y503831D01*
X635044Y503535D01*
X710838D01*
X711246Y502265D01*
X710093Y500268D01*
X709440Y497831D01*
Y495309D01*
X710093Y492872D01*
X711354Y490688D01*
X713138Y488904D01*
X713986Y488415D01*
X713645Y487145D01*
X709760D01*
X708274Y486849D01*
X707014Y486007D01*
X703024Y482018D01*
X701914Y482366D01*
X701754Y482487D01*
Y482980D01*
X701459Y484467D01*
X700616Y485727D01*
X699092Y487251D01*
X697832Y488093D01*
X696346Y488389D01*
X691774D01*
X690287Y488093D01*
X689027Y487251D01*
X687503Y485727D01*
X687203Y485279D01*
X685676D01*
X685376Y485727D01*
X683852Y487251D01*
X682592Y488093D01*
X681106Y488389D01*
X676534D01*
X675047Y488093D01*
X673787Y487251D01*
X672263Y485727D01*
X671963Y485279D01*
X670436D01*
X670136Y485727D01*
X668612Y487251D01*
X667352Y488093D01*
X665866Y488389D01*
X661294D01*
X659807Y488093D01*
X658547Y487251D01*
X657023Y485727D01*
X656723Y485279D01*
X655196D01*
X654896Y485727D01*
X653372Y487251D01*
X652112Y488093D01*
X650626Y488389D01*
X646054D01*
X644567Y488093D01*
X643307Y487251D01*
X641783Y485727D01*
X641483Y485279D01*
X639956D01*
X639656Y485727D01*
X638132Y487251D01*
X636872Y488093D01*
X635386Y488389D01*
X630814D01*
X629327Y488093D01*
X628067Y487251D01*
X626543Y485727D01*
X626243Y485279D01*
X624716D01*
X624416Y485727D01*
X622892Y487251D01*
X621632Y488093D01*
X620146Y488389D01*
X615574D01*
X614087Y488093D01*
X612827Y487251D01*
X611303Y485727D01*
X611003Y485279D01*
X609476D01*
X609176Y485727D01*
X607652Y487251D01*
X606392Y488093D01*
X604906Y488389D01*
X600334D01*
X598847Y488093D01*
X597587Y487251D01*
X596063Y485727D01*
X595763Y485279D01*
X594236D01*
X593936Y485727D01*
X592412Y487251D01*
X591152Y488093D01*
X589666Y488389D01*
X585094D01*
X583607Y488093D01*
X582347Y487251D01*
X580823Y485727D01*
X579981Y484467D01*
X579685Y482980D01*
Y482675D01*
X575019D01*
X569226Y488467D01*
X567966Y489309D01*
X566479Y489605D01*
X551224D01*
X549738Y489309D01*
X548477Y488467D01*
X547131Y487121D01*
X546373Y487195D01*
X545769Y487457D01*
X545669Y487961D01*
X544827Y489221D01*
X543303Y490745D01*
X542043Y491587D01*
X540556Y491883D01*
X535984D01*
X534498Y491587D01*
X533237Y490745D01*
X531713Y489221D01*
X531414Y488773D01*
X529887D01*
X529587Y489221D01*
X528063Y490745D01*
X526803Y491587D01*
X525316Y491883D01*
X520744D01*
X519258Y491587D01*
X517997Y490745D01*
X516473Y489221D01*
X516174Y488773D01*
X514646D01*
X514347Y489221D01*
X512823Y490745D01*
X511563Y491587D01*
X510076Y491883D01*
X505504D01*
X504018Y491587D01*
X502757Y490745D01*
X501233Y489221D01*
X500934Y488773D01*
X499407D01*
X499107Y489221D01*
X497583Y490745D01*
X496323Y491587D01*
X494836Y491883D01*
X490264D01*
X488778Y491587D01*
X487517Y490745D01*
X485993Y489221D01*
X485694Y488773D01*
X484166D01*
X483867Y489221D01*
X482343Y490745D01*
X481083Y491587D01*
X479596Y491883D01*
X475024D01*
X473538Y491587D01*
X472277Y490745D01*
X470753Y489221D01*
X470454Y488773D01*
X468927D01*
X468627Y489221D01*
X467103Y490745D01*
X465843Y491587D01*
X464356Y491883D01*
X459784D01*
X458298Y491587D01*
X457037Y490745D01*
X455513Y489221D01*
X454671Y487961D01*
X454571Y487457D01*
X453968Y487195D01*
X453209Y487121D01*
X451863Y488467D01*
X450603Y489309D01*
X449116Y489605D01*
X440352D01*
X439944Y490875D01*
X441097Y492872D01*
X441750Y495309D01*
Y497831D01*
X441097Y500268D01*
X439944Y502265D01*
X440352Y503535D01*
X461995D01*
Y500745D01*
X462291Y499259D01*
X463133Y497998D01*
X464657Y496474D01*
X465917Y495632D01*
X467404Y495337D01*
X502456D01*
X503942Y495632D01*
X505202Y496474D01*
X506602Y497874D01*
X507171Y497840D01*
X507960Y497558D01*
X508011Y497301D01*
X508853Y496041D01*
X510377Y494517D01*
X511637Y493675D01*
X513124Y493379D01*
X517696D01*
X519182Y493675D01*
X520443Y494517D01*
X521967Y496041D01*
X522266Y496489D01*
X523793D01*
X524093Y496041D01*
X525617Y494517D01*
X526877Y493675D01*
X528364Y493379D01*
X532936D01*
X534422Y493675D01*
X535682Y494517D01*
X537206Y496041D01*
X537506Y496489D01*
X539033D01*
X539333Y496041D01*
X540857Y494517D01*
X542117Y493675D01*
X543604Y493379D01*
X548176D01*
X549662Y493675D01*
X550923Y494517D01*
X552447Y496041D01*
X552746Y496489D01*
X554273D01*
X554573Y496041D01*
X556097Y494517D01*
X557357Y493675D01*
X558844Y493379D01*
X563416D01*
X564902Y493675D01*
X566162Y494517D01*
X567687Y496041D01*
X567986Y496489D01*
X569513D01*
X569813Y496041D01*
X571337Y494517D01*
X572597Y493675D01*
X574084Y493379D01*
X578656D01*
X580142Y493675D01*
X581403Y494517D01*
X582926Y496041D01*
X583226Y496489D01*
X584753D01*
X585053Y496041D01*
X586577Y494517D01*
X587837Y493675D01*
X589324Y493379D01*
X593896D01*
X595382Y493675D01*
X596642Y494517D01*
X598167Y496041D01*
X598466Y496489D01*
X599993D01*
X600293Y496041D01*
X601817Y494517D01*
X603077Y493675D01*
X604564Y493379D01*
X609136D01*
X610622Y493675D01*
X611883Y494517D01*
X613406Y496041D01*
X613706Y496489D01*
X615233D01*
X615533Y496041D01*
X617057Y494517D01*
X618317Y493675D01*
X619804Y493379D01*
X624376D01*
X625862Y493675D01*
X627122Y494517D01*
X628647Y496041D01*
X629489Y497301D01*
X629784Y498788D01*
Y505446D01*
X629944Y505567D01*
X631054Y505915D01*
X632297Y504673D01*
D02*
G37*
G36*
X762046Y502265D02*
X760893Y500268D01*
X760240Y497831D01*
Y495309D01*
X760893Y492872D01*
X762154Y490688D01*
X763938Y488904D01*
X764786Y488415D01*
X764445Y487145D01*
X724395D01*
X724055Y488415D01*
X724902Y488904D01*
X726686Y490688D01*
X727947Y492872D01*
X728600Y495309D01*
Y497831D01*
X727947Y500268D01*
X726794Y502265D01*
X727202Y503535D01*
X761638D01*
X762046Y502265D01*
D02*
G37*
G36*
X910007Y476043D02*
X911267Y475201D01*
X912754Y474905D01*
X927356D01*
X927882Y473635D01*
X889351Y435104D01*
X746537D01*
X746370Y436375D01*
X748118Y436843D01*
X750302Y438104D01*
X752086Y439888D01*
X753347Y442072D01*
X753386Y442216D01*
X754785Y442530D01*
X755687Y441927D01*
X757174Y441631D01*
X761746D01*
X763233Y441927D01*
X764493Y442769D01*
X766017Y444293D01*
X766316Y444741D01*
X767844D01*
X768143Y444293D01*
X769667Y442769D01*
X770927Y441927D01*
X772414Y441631D01*
X776986D01*
X778473Y441927D01*
X779733Y442769D01*
X781257Y444293D01*
X781556Y444741D01*
X783084D01*
X783383Y444293D01*
X784907Y442769D01*
X786167Y441927D01*
X787654Y441631D01*
X792226D01*
X793713Y441927D01*
X794973Y442769D01*
X796497Y444293D01*
X797339Y445553D01*
X797635Y447040D01*
Y448235D01*
X831180D01*
X832666Y448531D01*
X833927Y449373D01*
X846144Y461590D01*
X847281D01*
X849718Y462243D01*
X851902Y463504D01*
X853686Y465288D01*
X854947Y467472D01*
X855600Y469909D01*
Y472431D01*
X854947Y474868D01*
X854192Y476175D01*
X854926Y477445D01*
X862515D01*
X863248Y476175D01*
X862493Y474868D01*
X861840Y472431D01*
Y469909D01*
X862493Y467472D01*
X863754Y465288D01*
X865538Y463504D01*
X867722Y462243D01*
X870159Y461590D01*
X872681D01*
X875118Y462243D01*
X877302Y463504D01*
X879086Y465288D01*
X880347Y467472D01*
X881000Y469909D01*
Y472014D01*
X881771Y472871D01*
X882141Y473082D01*
X882274Y473055D01*
X886846D01*
X888332Y473351D01*
X889592Y474193D01*
X891116Y475717D01*
X891503Y476296D01*
X892856D01*
X893243Y475717D01*
X894767Y474193D01*
X896027Y473351D01*
X897514Y473055D01*
X902086D01*
X903572Y473351D01*
X904832Y474193D01*
X906356Y475717D01*
X907198Y476977D01*
X907233Y477151D01*
X908092Y477437D01*
X908589Y477460D01*
X910007Y476043D01*
D02*
G37*
G36*
X829347Y478653D02*
X830607Y477811D01*
X832094Y477515D01*
X837155D01*
X837888Y476245D01*
X837093Y474868D01*
X836440Y472431D01*
Y469909D01*
X837093Y467472D01*
X838354Y465288D01*
X838604Y465038D01*
X829571Y456005D01*
X795274D01*
X793787Y455709D01*
X792527Y454867D01*
X791285Y453624D01*
X790174Y453973D01*
X790015Y454094D01*
Y466201D01*
X789719Y467688D01*
X788877Y468948D01*
X787353Y470472D01*
X786093Y471314D01*
X784606Y471610D01*
X780034D01*
X778547Y471314D01*
X777287Y470472D01*
X775763Y468948D01*
X775464Y468500D01*
X773936D01*
X773637Y468948D01*
X772113Y470472D01*
X770853Y471314D01*
X769366Y471610D01*
X764794D01*
X763307Y471314D01*
X762047Y470472D01*
X760523Y468948D01*
X759681Y467688D01*
X759385Y466201D01*
Y460480D01*
X759226Y460359D01*
X758115Y460010D01*
X756909Y461217D01*
X755649Y462059D01*
X754162Y462355D01*
X750610D01*
X750576Y462481D01*
X750423Y463625D01*
X752086Y465288D01*
X753347Y467472D01*
X754000Y469909D01*
Y472431D01*
X753347Y474868D01*
X752086Y477052D01*
X751033Y478105D01*
X751559Y479375D01*
X768190D01*
X770454Y477111D01*
X770481Y476977D01*
X771323Y475717D01*
X772847Y474193D01*
X774107Y473351D01*
X775594Y473055D01*
X780166D01*
X781652Y473351D01*
X782912Y474193D01*
X784436Y475717D01*
X784823Y476296D01*
X786176D01*
X786563Y475717D01*
X788087Y474193D01*
X789347Y473351D01*
X790834Y473055D01*
X795406D01*
X796892Y473351D01*
X798152Y474193D01*
X799676Y475717D01*
X800063Y476296D01*
X801416D01*
X801803Y475717D01*
X803327Y474193D01*
X804587Y473351D01*
X806074Y473055D01*
X810646D01*
X812132Y473351D01*
X813392Y474193D01*
X818575Y479375D01*
X828624D01*
X829347Y478653D01*
D02*
G37*
G36*
X994335Y556444D02*
Y482635D01*
X972785Y461085D01*
X952522D01*
X952300Y461343D01*
X952577Y462970D01*
X953502Y463504D01*
X955286Y465288D01*
X956547Y467472D01*
X957200Y469909D01*
Y472431D01*
X956547Y474868D01*
X955286Y477052D01*
X953502Y478836D01*
X951318Y480097D01*
X949571Y480565D01*
X949738Y481835D01*
X977514D01*
X979001Y482131D01*
X980261Y482973D01*
X990807Y493519D01*
X991649Y494779D01*
X991945Y496266D01*
Y554287D01*
X992333Y554675D01*
X993100Y556527D01*
X994335Y556444D01*
D02*
G37*
G36*
X328619Y480565D02*
X326872Y480097D01*
X324688Y478836D01*
X322904Y477052D01*
X321643Y474868D01*
X320990Y472431D01*
Y469909D01*
X321643Y467472D01*
X322904Y465288D01*
X324688Y463504D01*
X326872Y462243D01*
X329309Y461590D01*
X331831D01*
X332349Y460414D01*
X331887Y460105D01*
X330363Y458581D01*
X329521Y457321D01*
X329512Y457275D01*
X324559D01*
X314153Y467681D01*
X314750Y469909D01*
Y472431D01*
X314097Y474868D01*
X312836Y477052D01*
X311052Y478836D01*
X308868Y480097D01*
X307120Y480565D01*
X307287Y481835D01*
X328452D01*
X328619Y480565D01*
D02*
G37*
G36*
X400888Y488904D02*
X403072Y487643D01*
X405509Y486990D01*
X408031D01*
X410259Y487587D01*
X414873Y482973D01*
X416133Y482131D01*
X417620Y481836D01*
X446755D01*
Y474804D01*
X447051Y473318D01*
X447893Y472057D01*
X449417Y470533D01*
X450678Y469691D01*
X452164Y469396D01*
X456736D01*
X458223Y469691D01*
X459483Y470533D01*
X461007Y472057D01*
X461306Y472505D01*
X462834D01*
X463133Y472057D01*
X464657Y470533D01*
X465918Y469691D01*
X467404Y469396D01*
X471976D01*
X473463Y469691D01*
X474723Y470533D01*
X476247Y472057D01*
X476547Y472505D01*
X478074D01*
X478373Y472057D01*
X479897Y470533D01*
X481158Y469691D01*
X482644Y469396D01*
X487216D01*
X488703Y469691D01*
X489963Y470533D01*
X491487Y472057D01*
X491786Y472505D01*
X493314D01*
X493613Y472057D01*
X495137Y470533D01*
X496398Y469691D01*
X497884Y469396D01*
X502456D01*
X503943Y469691D01*
X505203Y470533D01*
X506727Y472057D01*
X507026Y472505D01*
X508554D01*
X508853Y472057D01*
X510377Y470533D01*
X511638Y469691D01*
X513124Y469396D01*
X517696D01*
X519183Y469691D01*
X520443Y470533D01*
X521967Y472057D01*
X522267Y472505D01*
X523794D01*
X524093Y472057D01*
X525617Y470533D01*
X526878Y469691D01*
X528364Y469396D01*
X532936D01*
X534423Y469691D01*
X535683Y470533D01*
X537207Y472057D01*
X538049Y473318D01*
X538345Y474804D01*
Y476913D01*
X538504Y477034D01*
X539615Y477382D01*
X540857Y476140D01*
X542118Y475298D01*
X543604Y475002D01*
X548176D01*
X549663Y475298D01*
X550923Y476140D01*
X552447Y477664D01*
X553289Y478924D01*
X553585Y480410D01*
Y481836D01*
X564870D01*
X570663Y476043D01*
X571923Y475201D01*
X573410Y474905D01*
X582046D01*
X583532Y475201D01*
X584792Y476043D01*
X586064Y477314D01*
X586225Y477324D01*
X587029Y477131D01*
X587401Y476904D01*
X587601Y475898D01*
X588443Y474637D01*
X589967Y473114D01*
X591227Y472271D01*
X592714Y471976D01*
X597286D01*
X598772Y472271D01*
X600032Y473114D01*
X601556Y474637D01*
X601856Y475086D01*
X603383D01*
X603683Y474637D01*
X605207Y473114D01*
X606467Y472271D01*
X607954Y471976D01*
X612526D01*
X614012Y472271D01*
X615272Y473114D01*
X616796Y474637D01*
X617096Y475086D01*
X618623D01*
X618923Y474637D01*
X620447Y473114D01*
X621707Y472271D01*
X623194Y471976D01*
X627766D01*
X629252Y472271D01*
X630512Y473114D01*
X632036Y474637D01*
X632336Y475086D01*
X633863D01*
X634163Y474637D01*
X635687Y473114D01*
X636947Y472271D01*
X638434Y471976D01*
X643006D01*
X644492Y472271D01*
X645752Y473114D01*
X647276Y474637D01*
X647576Y475086D01*
X649103D01*
X649403Y474637D01*
X650927Y473114D01*
X652187Y472271D01*
X653674Y471976D01*
X658246D01*
X659732Y472271D01*
X660992Y473114D01*
X662516Y474637D01*
X662816Y475086D01*
X664343D01*
X664643Y474637D01*
X666167Y473114D01*
X667427Y472271D01*
X668914Y471976D01*
X673486D01*
X674972Y472271D01*
X676232Y473114D01*
X677756Y474637D01*
X678056Y475086D01*
X679583D01*
X679883Y474637D01*
X681407Y473114D01*
X682667Y472271D01*
X684154Y471976D01*
X688726D01*
X690212Y472271D01*
X691472Y473114D01*
X692996Y474637D01*
X693656Y475625D01*
X694668Y475798D01*
X695103Y475746D01*
X695123Y475717D01*
X696647Y474193D01*
X697907Y473351D01*
X699394Y473055D01*
X703966D01*
X705452Y473351D01*
X706712Y474193D01*
X708236Y475717D01*
X709079Y476977D01*
X709105Y477111D01*
X711369Y479375D01*
X737281D01*
X737807Y478105D01*
X736754Y477052D01*
X735493Y474868D01*
X734840Y472431D01*
Y469909D01*
X735493Y467472D01*
X736754Y465288D01*
X738417Y463625D01*
X738264Y462481D01*
X738230Y462355D01*
X713740D01*
X712253Y462059D01*
X710993Y461217D01*
X699431Y449655D01*
X689685D01*
Y454382D01*
X689389Y455869D01*
X688547Y457129D01*
X687023Y458653D01*
X685763Y459495D01*
X684276Y459791D01*
X679704D01*
X678217Y459495D01*
X676957Y458653D01*
X675433Y457129D01*
X675134Y456681D01*
X673606D01*
X673307Y457129D01*
X671783Y458653D01*
X670523Y459495D01*
X669036Y459791D01*
X664464D01*
X662977Y459495D01*
X661717Y458653D01*
X660193Y457129D01*
X659894Y456681D01*
X658366D01*
X658067Y457129D01*
X656543Y458653D01*
X655283Y459495D01*
X653796Y459791D01*
X649224D01*
X647737Y459495D01*
X646477Y458653D01*
X644953Y457129D01*
X644654Y456681D01*
X643126D01*
X642827Y457129D01*
X641303Y458653D01*
X640043Y459495D01*
X638556Y459791D01*
X633984D01*
X632497Y459495D01*
X631237Y458653D01*
X629713Y457129D01*
X629414Y456681D01*
X627886D01*
X627587Y457129D01*
X626063Y458653D01*
X624803Y459495D01*
X623316Y459791D01*
X618744D01*
X617257Y459495D01*
X615997Y458653D01*
X614473Y457129D01*
X614174Y456681D01*
X612646D01*
X612347Y457129D01*
X610823Y458653D01*
X609563Y459495D01*
X608076Y459791D01*
X603504D01*
X602017Y459495D01*
X600757Y458653D01*
X599233Y457129D01*
X598934Y456681D01*
X597406D01*
X597107Y457129D01*
X595583Y458653D01*
X594323Y459495D01*
X592836Y459791D01*
X588264D01*
X586777Y459495D01*
X585517Y458653D01*
X583993Y457129D01*
X583694Y456681D01*
X582166D01*
X581867Y457129D01*
X580343Y458653D01*
X579083Y459495D01*
X577596Y459791D01*
X573024D01*
X571537Y459495D01*
X570277Y458653D01*
X568753Y457129D01*
X568454Y456681D01*
X566926D01*
X566627Y457129D01*
X565103Y458653D01*
X563843Y459495D01*
X562356Y459791D01*
X557784D01*
X556297Y459495D01*
X555037Y458653D01*
X553513Y457129D01*
X553214Y456681D01*
X551686D01*
X551387Y457129D01*
X549863Y458653D01*
X548603Y459495D01*
X547116Y459791D01*
X542544D01*
X541057Y459495D01*
X539797Y458653D01*
X538273Y457129D01*
X537974Y456681D01*
X536446D01*
X536147Y457129D01*
X534623Y458653D01*
X533363Y459495D01*
X531876Y459791D01*
X527304D01*
X525817Y459495D01*
X524557Y458653D01*
X523033Y457129D01*
X522734Y456681D01*
X521206D01*
X520907Y457129D01*
X519383Y458653D01*
X518123Y459495D01*
X516636Y459791D01*
X512064D01*
X510577Y459495D01*
X509317Y458653D01*
X507793Y457129D01*
X507494Y456681D01*
X505966D01*
X505667Y457129D01*
X504143Y458653D01*
X502883Y459495D01*
X501396Y459791D01*
X496824D01*
X495337Y459495D01*
X494077Y458653D01*
X492553Y457129D01*
X492254Y456681D01*
X490726D01*
X490427Y457129D01*
X488903Y458653D01*
X487643Y459495D01*
X486156Y459791D01*
X481584D01*
X480097Y459495D01*
X478837Y458653D01*
X477313Y457129D01*
X477014Y456681D01*
X475486D01*
X475187Y457129D01*
X473663Y458653D01*
X472403Y459495D01*
X470916Y459791D01*
X466344D01*
X464857Y459495D01*
X463597Y458653D01*
X462073Y457129D01*
X461231Y455869D01*
X460935Y454382D01*
Y449655D01*
X456269D01*
X445977Y459947D01*
X444717Y460789D01*
X443230Y461085D01*
X391160D01*
X389673Y460789D01*
X388413Y459947D01*
X385741Y457275D01*
X374810D01*
X374799Y457329D01*
X373957Y458590D01*
X372433Y460113D01*
X371172Y460956D01*
X369686Y461251D01*
X365114D01*
X363627Y460956D01*
X362367Y460113D01*
X360843Y458590D01*
X360544Y458141D01*
X359016D01*
X358717Y458590D01*
X357193Y460113D01*
X355932Y460956D01*
X354446Y461251D01*
X349874D01*
X348387Y460956D01*
X347127Y460113D01*
X345603Y458590D01*
X345301Y458137D01*
X343773D01*
X343477Y458581D01*
X341953Y460105D01*
X340692Y460947D01*
X339206Y461243D01*
X335076D01*
X334736Y462513D01*
X336452Y463504D01*
X338236Y465288D01*
X339497Y467472D01*
X340150Y469909D01*
Y472431D01*
X339497Y474868D01*
X338236Y477052D01*
X336452Y478836D01*
X334268Y480097D01*
X332520Y480565D01*
X332687Y481835D01*
X390470D01*
X391957Y482131D01*
X393217Y482973D01*
X397560Y487316D01*
X398402Y488576D01*
X398571Y489425D01*
X399935Y489857D01*
X400888Y488904D01*
D02*
G37*
G36*
X738264Y454459D02*
X738417Y453315D01*
X736754Y451652D01*
X735493Y449468D01*
X734840Y447031D01*
Y444509D01*
X735493Y442072D01*
X736754Y439888D01*
X738538Y438104D01*
X740722Y436843D01*
X742470Y436375D01*
X742303Y435104D01*
X408887D01*
X408720Y436375D01*
X410468Y436843D01*
X412652Y438104D01*
X414436Y439888D01*
X415697Y442072D01*
X416350Y444509D01*
Y447031D01*
X415697Y449468D01*
X414436Y451652D01*
X413946Y452142D01*
X414432Y453315D01*
X441621D01*
X451913Y443023D01*
X453173Y442181D01*
X454660Y441885D01*
X463296D01*
X464783Y442181D01*
X466043Y443023D01*
X467567Y444547D01*
X468409Y445807D01*
X469425Y445997D01*
X469742Y445998D01*
X471217Y444523D01*
X472477Y443681D01*
X473964Y443386D01*
X478536D01*
X480023Y443681D01*
X481283Y444523D01*
X482807Y446047D01*
X483106Y446495D01*
X484634D01*
X484933Y446047D01*
X486457Y444523D01*
X487717Y443681D01*
X489204Y443386D01*
X493776D01*
X495263Y443681D01*
X496523Y444523D01*
X498047Y446047D01*
X498346Y446495D01*
X499874D01*
X500173Y446047D01*
X501697Y444523D01*
X502957Y443681D01*
X504444Y443386D01*
X509016D01*
X510503Y443681D01*
X511763Y444523D01*
X513287Y446047D01*
X513586Y446495D01*
X515114D01*
X515413Y446047D01*
X516937Y444523D01*
X518197Y443681D01*
X519684Y443386D01*
X524256D01*
X525743Y443681D01*
X527003Y444523D01*
X528527Y446047D01*
X528826Y446495D01*
X530354D01*
X530653Y446047D01*
X532177Y444523D01*
X533437Y443681D01*
X534924Y443386D01*
X539496D01*
X540983Y443681D01*
X542243Y444523D01*
X543767Y446047D01*
X544066Y446495D01*
X545594D01*
X545893Y446047D01*
X547417Y444523D01*
X548677Y443681D01*
X550164Y443386D01*
X554736D01*
X556223Y443681D01*
X557483Y444523D01*
X559007Y446047D01*
X559306Y446495D01*
X560834D01*
X561133Y446047D01*
X562657Y444523D01*
X563917Y443681D01*
X565404Y443386D01*
X569976D01*
X571463Y443681D01*
X572723Y444523D01*
X574247Y446047D01*
X574546Y446495D01*
X576074D01*
X576373Y446047D01*
X577897Y444523D01*
X579157Y443681D01*
X580644Y443386D01*
X585216D01*
X586703Y443681D01*
X587963Y444523D01*
X589487Y446047D01*
X589786Y446495D01*
X591314D01*
X591613Y446047D01*
X593137Y444523D01*
X594397Y443681D01*
X595884Y443386D01*
X600456D01*
X601943Y443681D01*
X603203Y444523D01*
X604727Y446047D01*
X605026Y446495D01*
X606554D01*
X606853Y446047D01*
X608377Y444523D01*
X609637Y443681D01*
X611124Y443386D01*
X615696D01*
X617183Y443681D01*
X618443Y444523D01*
X619967Y446047D01*
X620266Y446495D01*
X621794D01*
X622093Y446047D01*
X623617Y444523D01*
X624877Y443681D01*
X626364Y443386D01*
X630936D01*
X632423Y443681D01*
X633683Y444523D01*
X635207Y446047D01*
X635506Y446495D01*
X637034D01*
X637333Y446047D01*
X638857Y444523D01*
X640117Y443681D01*
X641604Y443386D01*
X646176D01*
X647663Y443681D01*
X648923Y444523D01*
X650447Y446047D01*
X650746Y446495D01*
X652274D01*
X652573Y446047D01*
X654097Y444523D01*
X655357Y443681D01*
X656844Y443386D01*
X661416D01*
X662903Y443681D01*
X664163Y444523D01*
X665687Y446047D01*
X665986Y446495D01*
X667514D01*
X667813Y446047D01*
X669337Y444523D01*
X670597Y443681D01*
X672084Y443386D01*
X676656D01*
X678143Y443681D01*
X679403Y444523D01*
X680878Y445998D01*
X681195Y445997D01*
X682211Y445807D01*
X683053Y444547D01*
X684577Y443023D01*
X685837Y442181D01*
X687324Y441885D01*
X701040D01*
X702527Y442181D01*
X703787Y443023D01*
X715349Y454585D01*
X738230D01*
X738264Y454459D01*
D02*
G37*
G36*
X1004495Y570414D02*
Y467395D01*
X972231Y435131D01*
X949834D01*
X949667Y436400D01*
X951318Y436843D01*
X953502Y438104D01*
X955286Y439888D01*
X956547Y442072D01*
X957200Y444509D01*
Y447031D01*
X956547Y449468D01*
X955286Y451652D01*
X954796Y452142D01*
X955282Y453315D01*
X974394D01*
X975881Y453611D01*
X977141Y454453D01*
X1000967Y478279D01*
X1001809Y479539D01*
X1002105Y481026D01*
Y568257D01*
X1002493Y568645D01*
X1003260Y570498D01*
X1004495Y570414D01*
D02*
G37*
G36*
X940444Y452142D02*
X939954Y451652D01*
X938693Y449468D01*
X938040Y447031D01*
Y444509D01*
X938693Y442072D01*
X939954Y439888D01*
X941738Y438104D01*
X943922Y436843D01*
X945573Y436400D01*
X945406Y435131D01*
X918662D01*
X918183Y436306D01*
X931507Y449343D01*
X931519Y449361D01*
X931537Y449373D01*
X935479Y453315D01*
X939958D01*
X940444Y452142D01*
D02*
G37*
G36*
X938040Y471010D02*
Y469909D01*
X938693Y467472D01*
X939954Y465288D01*
X941738Y463504D01*
X942663Y462970D01*
X942941Y461343D01*
X942719Y461085D01*
X933870D01*
X932384Y460789D01*
X931124Y459947D01*
X926059Y454883D01*
X879884Y409705D01*
X746537D01*
X746370Y410975D01*
X748118Y411443D01*
X750302Y412704D01*
X752086Y414488D01*
X753347Y416672D01*
X754000Y419109D01*
Y421631D01*
X753347Y424068D01*
X752194Y426065D01*
X752602Y427335D01*
X890960D01*
X892446Y427631D01*
X893707Y428473D01*
X936770Y471536D01*
X938040Y471010D01*
D02*
G37*
G36*
X736646Y426065D02*
X735493Y424068D01*
X734840Y421631D01*
Y419109D01*
X735493Y416672D01*
X736754Y414488D01*
X738538Y412704D01*
X740722Y411443D01*
X742470Y410975D01*
X742303Y409705D01*
X434287D01*
X434120Y410975D01*
X435868Y411443D01*
X438052Y412704D01*
X439836Y414488D01*
X441097Y416672D01*
X441750Y419109D01*
Y421631D01*
X441097Y424068D01*
X439944Y426065D01*
X440352Y427335D01*
X736238D01*
X736646Y426065D01*
D02*
G37*
G36*
X879138Y400762D02*
X862681Y384305D01*
X771937D01*
X771770Y385574D01*
X773518Y386043D01*
X775702Y387304D01*
X777486Y389088D01*
X778747Y391272D01*
X779400Y393709D01*
Y396231D01*
X778747Y398668D01*
X777594Y400665D01*
X778002Y401935D01*
X878652D01*
X879138Y400762D01*
D02*
G37*
G36*
X762046Y400665D02*
X760893Y398668D01*
X760240Y396231D01*
Y393709D01*
X760893Y391272D01*
X762154Y389088D01*
X763938Y387304D01*
X766122Y386043D01*
X767870Y385574D01*
X767703Y384305D01*
X746537D01*
X746370Y385574D01*
X748118Y386043D01*
X750302Y387304D01*
X752086Y389088D01*
X753347Y391272D01*
X754000Y393709D01*
Y396231D01*
X753347Y398668D01*
X752194Y400665D01*
X752602Y401935D01*
X761638D01*
X762046Y400665D01*
D02*
G37*
G36*
X939861Y426091D02*
X938693Y424068D01*
X938040Y421631D01*
Y419109D01*
X938693Y416672D01*
X939954Y414488D01*
X941738Y412704D01*
X942663Y412170D01*
X942941Y410543D01*
X942719Y410285D01*
X911280D01*
X909793Y409989D01*
X908533Y409147D01*
X858291Y358904D01*
X771937D01*
X771770Y360174D01*
X773518Y360643D01*
X775702Y361904D01*
X777486Y363688D01*
X778747Y365872D01*
X779400Y368309D01*
Y370831D01*
X778747Y373268D01*
X777594Y375265D01*
X778002Y376535D01*
X864290D01*
X865776Y376831D01*
X867037Y377673D01*
X916725Y427361D01*
X939472D01*
X939861Y426091D01*
D02*
G37*
G36*
X762046Y375265D02*
X760893Y373268D01*
X760240Y370831D01*
Y368309D01*
X760893Y365872D01*
X762154Y363688D01*
X763938Y361904D01*
X766122Y360643D01*
X767870Y360174D01*
X767703Y358904D01*
X746537D01*
X746370Y360174D01*
X748118Y360643D01*
X750302Y361904D01*
X752086Y363688D01*
X753347Y365872D01*
X754000Y368309D01*
Y370831D01*
X753347Y373268D01*
X752194Y375265D01*
X752602Y376535D01*
X761638D01*
X762046Y375265D01*
D02*
G37*
G36*
X736646D02*
X735493Y373268D01*
X734840Y370831D01*
Y368309D01*
X735493Y365872D01*
X736754Y363688D01*
X738538Y361904D01*
X740722Y360643D01*
X742470Y360174D01*
X742303Y358904D01*
X721137D01*
X720970Y360174D01*
X722718Y360643D01*
X724902Y361904D01*
X726686Y363688D01*
X727947Y365872D01*
X728600Y368309D01*
Y370831D01*
X727947Y373268D01*
X726794Y375265D01*
X727202Y376535D01*
X736238D01*
X736646Y375265D01*
D02*
G37*
G36*
X400614Y327458D02*
X400767Y326315D01*
X399104Y324652D01*
X397843Y322468D01*
X397190Y320031D01*
Y317509D01*
X397843Y315072D01*
X399104Y312888D01*
X400888Y311104D01*
X403072Y309843D01*
X404820Y309375D01*
X404653Y308104D01*
X307287D01*
X307120Y309375D01*
X308868Y309843D01*
X311052Y311104D01*
X312836Y312888D01*
X314097Y315072D01*
X314750Y317509D01*
Y320031D01*
X314153Y322259D01*
X319479Y327585D01*
X400580D01*
X400614Y327458D01*
D02*
G37*
G36*
X705520Y303756D02*
X707007Y303460D01*
X714171D01*
X714373Y303216D01*
X714077Y301578D01*
X713138Y301036D01*
X711354Y299252D01*
X710093Y297068D01*
X709440Y294631D01*
Y292109D01*
X710093Y289672D01*
X711354Y287488D01*
X713138Y285704D01*
X713904Y285262D01*
X713564Y283992D01*
X710171D01*
X708684Y283696D01*
X707424Y282854D01*
X704805Y280235D01*
X703736Y280949D01*
X702250Y281245D01*
X697678D01*
X696191Y280949D01*
X694931Y280107D01*
X693688Y278865D01*
X692578Y279213D01*
X692418Y279334D01*
Y289724D01*
X692122Y291211D01*
X691629Y291950D01*
X692393Y293092D01*
X693290Y292914D01*
X697862D01*
X699349Y293209D01*
X700609Y294052D01*
X702133Y295576D01*
X702975Y296836D01*
X703271Y298323D01*
Y303791D01*
X703646Y304097D01*
X704541Y304410D01*
X705520Y303756D01*
D02*
G37*
G36*
X628060Y295576D02*
X629584Y294052D01*
X630844Y293209D01*
X631346Y293110D01*
X631931Y291698D01*
X631605Y291211D01*
X631309Y289724D01*
Y281325D01*
X626643D01*
X624540Y283427D01*
X623280Y284269D01*
X621794Y284565D01*
X613740D01*
Y286265D01*
X613445Y287752D01*
X612602Y289012D01*
X611078Y290536D01*
X609818Y291378D01*
X608331Y291674D01*
X606698D01*
X606573Y292944D01*
X607909Y293209D01*
X609169Y294052D01*
X610693Y295576D01*
X610993Y296024D01*
X612520D01*
X612820Y295576D01*
X614344Y294052D01*
X615604Y293209D01*
X617090Y292914D01*
X621662D01*
X623149Y293209D01*
X624409Y294052D01*
X625933Y295576D01*
X626233Y296024D01*
X627760D01*
X628060Y295576D01*
D02*
G37*
G36*
X459577Y301473D02*
X460837Y300631D01*
X462324Y300335D01*
X472878D01*
X473120Y300093D01*
X473763Y299663D01*
X474380Y299251D01*
X474380Y299251D01*
X474380Y299251D01*
X475141Y299100D01*
X475867Y298955D01*
X484502D01*
X485989Y299251D01*
X487249Y300093D01*
X488492Y301336D01*
X489603Y300988D01*
X489762Y300867D01*
Y298323D01*
X490057Y296836D01*
X490900Y295576D01*
X492424Y294052D01*
X493684Y293209D01*
X495171Y292914D01*
X496804D01*
X496929Y291644D01*
X495593Y291378D01*
X494333Y290536D01*
X492809Y289012D01*
X492509Y288564D01*
X490982D01*
X490682Y289012D01*
X489158Y290536D01*
X487898Y291378D01*
X486412Y291674D01*
X481839D01*
X480353Y291378D01*
X479093Y290536D01*
X477569Y289012D01*
X477269Y288564D01*
X475742D01*
X475442Y289012D01*
X473918Y290536D01*
X472658Y291378D01*
X471171Y291674D01*
X466600D01*
X465113Y291378D01*
X463853Y290536D01*
X462329Y289012D01*
X461487Y287752D01*
X461191Y286265D01*
Y284565D01*
X438368D01*
X438183Y285835D01*
X439836Y287488D01*
X441097Y289672D01*
X441750Y292109D01*
Y293502D01*
X442211Y293804D01*
X443020Y293990D01*
X444337Y292673D01*
X445597Y291831D01*
X447084Y291535D01*
X451656D01*
X453142Y291831D01*
X454403Y292673D01*
X455927Y294197D01*
X456769Y295457D01*
X457064Y296944D01*
Y302246D01*
X457224Y302367D01*
X458334Y302715D01*
X459577Y301473D01*
D02*
G37*
G36*
X424396Y299065D02*
X423243Y297068D01*
X422590Y294631D01*
Y292109D01*
X423243Y289672D01*
X424504Y287488D01*
X426157Y285835D01*
X425972Y284565D01*
X387568D01*
X387383Y285835D01*
X389036Y287488D01*
X390297Y289672D01*
X390950Y292109D01*
Y294631D01*
X390297Y297068D01*
X389144Y299065D01*
X389552Y300335D01*
X423988D01*
X424396Y299065D01*
D02*
G37*
D10*
X911860Y40640D02*
Y71120D01*
X1009650Y168910D01*
X157480Y105410D02*
Y374280D01*
Y105410D02*
X223520Y39370D01*
X264160D01*
X1054100Y41910D02*
X1055370Y40640D01*
X1054100Y41910D02*
Y327660D01*
X119380Y40640D02*
X120650Y41910D01*
Y362850D01*
X973020Y394970D02*
X986790D01*
X1054100Y327660D01*
X1009650Y168910D02*
Y326990D01*
X972150Y364490D02*
X1009650Y326990D01*
X685800Y530860D02*
Y572890D01*
Y530860D02*
X692670Y523990D01*
X406400Y231140D02*
X419809Y244549D01*
X406400Y217050D02*
Y231140D01*
X718820Y211970D02*
Y234534D01*
X695117Y258237D02*
X718820Y234534D01*
X157480Y374280D02*
X178170Y394970D01*
X120650Y362850D02*
X178170Y420370D01*
D17*
X988060Y496266D02*
Y557530D01*
X977514Y485720D02*
X988060Y496266D01*
X945460Y485720D02*
X977514D01*
X890960Y431220D02*
X945460Y485720D01*
X998220Y481026D02*
Y571500D01*
X974394Y457200D02*
X998220Y481026D01*
X933870Y457200D02*
X974394D01*
X1008380Y465786D02*
Y599440D01*
X973840Y431246D02*
X1008380Y465786D01*
X915116Y431246D02*
X973840D01*
X1123950Y495300D02*
Y676910D01*
X1225550Y461010D02*
Y690880D01*
X1183640Y306070D02*
Y702310D01*
X1163320Y332740D02*
Y715010D01*
X1123950Y382270D02*
Y495300D01*
X994410Y426416D02*
Y429260D01*
X974394Y406400D02*
X994410Y426416D01*
X911280Y406400D02*
X974394D01*
X1225550Y356870D02*
Y461010D01*
X1146810Y429260D02*
Y585470D01*
X1200150Y407670D02*
Y514350D01*
X1214120Y204470D02*
Y530860D01*
X928790Y452120D02*
X933870Y457200D01*
X184150Y689650D02*
Y722630D01*
X182880Y723900D02*
X184150Y722630D01*
X262490D02*
X296780Y688340D01*
X212962Y722630D02*
X262490D01*
X200064Y709732D02*
X212962Y722630D01*
X200064Y701714D02*
Y709732D01*
X198120Y699770D02*
X200064Y701714D01*
X224594Y710526D02*
X246780Y688340D01*
X219114Y710526D02*
X224594D01*
X217170Y712470D02*
X219114Y710526D01*
X717018Y522702D02*
Y679019D01*
Y522702D02*
X717750Y521970D01*
X716547Y679490D02*
X717018Y679019D01*
X178803Y678824D02*
Y679490D01*
X177800Y522340D02*
Y677822D01*
X178803Y678824D01*
X819750Y516890D02*
Y587340D01*
X836295Y603885D02*
Y619125D01*
X819750Y587340D02*
X836295Y603885D01*
X297398Y168910D02*
X318552D01*
X320040Y170398D01*
X318552Y176530D02*
X320040Y175042D01*
X308403Y176530D02*
X318552D01*
X320040Y170398D02*
Y175042D01*
X297398Y161290D02*
X314706D01*
X295910Y162778D02*
X297398Y161290D01*
X295910Y162778D02*
Y167422D01*
X297398Y168910D01*
X271780Y162560D02*
X279770Y170550D01*
Y267970D01*
X254370Y496570D02*
X265220Y485720D01*
X390470D01*
X394813Y490063D01*
Y499957D01*
X402276Y507420D01*
X464356D01*
X465880Y505896D01*
Y500745D02*
X467404Y499221D01*
X465880Y500745D02*
Y505896D01*
X392220Y431220D02*
X890960D01*
X864290Y380420D02*
X915116Y431246D01*
X421320Y380420D02*
X864290D01*
X881469Y405820D02*
X928790Y452120D01*
X406770Y420370D02*
X421320Y405820D01*
X881469D01*
X679426Y281940D02*
X680913Y283428D01*
X673294D02*
Y289724D01*
Y283428D02*
X674781Y281940D01*
X680913Y283428D02*
Y289724D01*
X674781Y281940D02*
X679426D01*
X658054Y283428D02*
X659541Y281940D01*
X665674Y283428D02*
Y289724D01*
X659541Y281940D02*
X664186D01*
X658054Y283428D02*
Y289724D01*
X664186Y281940D02*
X665674Y283428D01*
X760097Y278820D02*
X785272D01*
X786559Y280107D01*
X800663D01*
X803410Y277360D01*
X814104D01*
X816851Y280107D01*
X825788D01*
X827879Y278016D01*
X836816D01*
X840045Y281245D01*
X850078D01*
X854463Y276860D01*
X862330D01*
X866140Y280670D01*
X876300D01*
X879530Y277440D01*
X885100D01*
X703773Y275836D02*
X705900D01*
X710171Y280107D01*
X725411D01*
X728158Y277360D01*
X732729D02*
X734769Y279400D01*
X749881D01*
X753992Y275289D01*
X757113D01*
Y275836D02*
X760097Y278820D01*
X707007Y307345D02*
X720389D01*
X724204Y303530D01*
X734260D01*
X735004Y302786D02*
X744420Y293370D01*
X734260Y303530D02*
X735004Y302786D01*
X832094Y481399D02*
X839758D01*
X841619Y483260D01*
X851074D01*
X853004Y481330D01*
X863600D01*
X866372Y484102D01*
X875569D01*
X879158Y480513D01*
X879226D01*
X831350Y482144D02*
X832094Y481399D01*
X830233Y483260D02*
X831350Y482144D01*
X810646Y476940D02*
X816966Y483260D01*
X830233D01*
X807720Y512649D02*
X818029Y502340D01*
X803267Y605163D02*
X807720Y600710D01*
Y512649D02*
Y600710D01*
X635044Y507420D02*
X783100D01*
X793950Y496570D01*
X859900Y355020D02*
X911280Y406400D01*
X769799Y483260D02*
X774070Y478989D01*
X709760Y483260D02*
X769799D01*
X705490Y478989D02*
X709760Y483260D01*
X713740Y458470D02*
X754162D01*
X755650Y456982D01*
X701040Y445770D02*
X713740Y458470D01*
X755650Y447040D02*
Y456982D01*
X672454Y331470D02*
X827370D01*
X845150Y313690D01*
X421320Y355020D02*
X859900D01*
X688533Y275289D02*
X690058Y273765D01*
X682438Y291248D02*
X687010D01*
X690058Y273765D02*
X694630D01*
X688533Y275289D02*
Y289724D01*
X687010Y291248D02*
X688533Y289724D01*
X911230Y480314D02*
Y482028D01*
X790834Y476940D02*
X795406D01*
X796930Y478464D02*
Y478989D01*
X882274Y476940D02*
X886846D01*
X912754Y478790D02*
X928570D01*
X905134Y483551D02*
X909706D01*
X903610Y478464D02*
Y482028D01*
X783214Y480513D02*
X787786D01*
X895990Y478464D02*
Y478989D01*
X806074Y476940D02*
X810646D01*
X775594D02*
X780166D01*
X895990Y478464D02*
X897514Y476940D01*
X780166D02*
X781690Y478464D01*
X909706Y483551D02*
X911230Y482028D01*
X789310Y478464D02*
X790834Y476940D01*
X880750Y478464D02*
X882274Y476940D01*
X928570Y478790D02*
X946350Y496570D01*
X888370Y478989D02*
X889894Y480513D01*
X803026D02*
X804550Y478989D01*
X911230Y480314D02*
X912754Y478790D01*
X795406Y476940D02*
X796930Y478464D01*
X902086Y476940D02*
X903610Y478464D01*
X781690Y478989D02*
X783214Y480513D01*
X897514Y476940D02*
X902086D01*
X781690Y478464D02*
Y478989D01*
X903610Y482028D02*
X905134Y483551D01*
X787786Y480513D02*
X789310Y478989D01*
X798454Y480513D02*
X803026D01*
X888370Y478464D02*
Y478989D01*
X880750Y478464D02*
Y478989D01*
X804550Y478464D02*
X806074Y476940D01*
X894466Y480513D02*
X895990Y478989D01*
X774070Y478464D02*
X775594Y476940D01*
X804550Y478464D02*
Y478989D01*
X889894Y480513D02*
X894466D01*
X879226D02*
X880750Y478989D01*
X796930D02*
X798454Y480513D01*
X886846Y476940D02*
X888370Y478464D01*
X789310D02*
Y478989D01*
X774070Y478464D02*
Y478989D01*
X705490Y478464D02*
Y478989D01*
X703966Y476940D02*
X705490Y478464D01*
X699394Y476940D02*
X703966D01*
X697870Y478464D02*
X699394Y476940D01*
X697870Y478464D02*
Y482980D01*
X696346Y484505D02*
X697870Y482980D01*
X406770Y369570D02*
X421320Y355020D01*
X406770Y394970D02*
X421320Y380420D01*
X831180Y452120D02*
X845150Y466090D01*
X795274Y452120D02*
X831180D01*
X391160Y457200D02*
X443230D01*
X463296Y445770D02*
X464820Y447294D01*
X466344Y455906D02*
X470916D01*
X548640Y448794D02*
X550164Y447270D01*
X470916Y455906D02*
X472440Y454382D01*
X550164Y447270D02*
X554736D01*
X472440Y448794D02*
Y454382D01*
X557784Y455906D02*
X562356D01*
X480060Y448794D02*
Y454382D01*
X464820Y447294D02*
Y454382D01*
X562356Y455906D02*
X563880Y454382D01*
X480060D02*
X481584Y455906D01*
X563880Y448794D02*
Y454382D01*
X481584Y455906D02*
X486156D01*
X573024D02*
X577596D01*
X495300Y448794D02*
Y454382D01*
X577596Y455906D02*
X579120Y454382D01*
X495300D02*
X496824Y455906D01*
X579120Y448794D02*
Y454382D01*
X496824Y455906D02*
X501396D01*
X579120Y448794D02*
X580644Y447270D01*
X501396Y455906D02*
X502920Y454382D01*
X585216Y447270D02*
X586740Y448794D01*
X502920D02*
X504444Y447270D01*
X592836Y455906D02*
X594360Y454382D01*
X510540D02*
X512064Y455906D01*
X473964Y447270D02*
X478536D01*
X556260Y448794D02*
Y454382D01*
X594360Y448794D02*
Y454382D01*
X512064Y455906D02*
X516636D01*
X594360Y448794D02*
X595884Y447270D01*
X516636Y455906D02*
X518160Y454382D01*
X601980D02*
X603504Y455906D01*
X524256Y447270D02*
X525780Y448794D01*
X464820Y454382D02*
X466344Y455906D01*
X609600Y448794D02*
Y454382D01*
X527304Y455906D02*
X531876D01*
X617220Y448794D02*
Y454382D01*
X534924Y447270D02*
X539496D01*
X618744Y455906D02*
X623316D01*
X541020Y448794D02*
Y454382D01*
X487680Y448794D02*
X489204Y447270D01*
X569976D02*
X571500Y448794D01*
X793750Y450596D02*
X795274Y452120D01*
X623316Y455906D02*
X624840Y454382D01*
X541020D02*
X542544Y455906D01*
X525780Y448794D02*
Y454382D01*
X603504Y455906D02*
X608076D01*
X624840Y448794D02*
Y454382D01*
X542544Y455906D02*
X547116D01*
X556260Y454382D02*
X557784Y455906D01*
X478536Y447270D02*
X480060Y448794D01*
X624840D02*
X626364Y447270D01*
X547116Y455906D02*
X548640Y454382D01*
X630936Y447270D02*
X632460Y448794D01*
Y454382D02*
X633984Y455906D01*
X638556D01*
X641604Y447270D02*
X646176D01*
X486156Y455906D02*
X487680Y454382D01*
X563880Y448794D02*
X565404Y447270D01*
X672084D02*
X676656D01*
X763270Y466201D02*
X764794Y467725D01*
X664464Y455906D02*
X669036D01*
X640080Y448794D02*
Y454382D01*
X678180Y448794D02*
Y454382D01*
X769366Y467725D02*
X770890Y466201D01*
X670560Y448794D02*
Y454382D01*
X685800Y447294D02*
Y454382D01*
X776986Y445516D02*
X778510Y447040D01*
X504444Y447270D02*
X509016D01*
X586740Y448794D02*
Y454382D01*
X647700Y448794D02*
Y454382D01*
X649224Y455906D02*
X653796D01*
X687324Y445770D02*
X701040D01*
X778510Y466201D02*
X780034Y467725D01*
X510540Y448794D02*
Y454382D01*
X588264Y455906D02*
X592836D01*
X554736Y447270D02*
X556260Y448794D01*
X472440D02*
X473964Y447270D01*
X615696D02*
X617220Y448794D01*
X533400D02*
X534924Y447270D01*
X684276Y455906D02*
X685800Y454382D01*
X772414Y445516D02*
X776986D01*
X646176Y447270D02*
X647700Y448794D01*
X586740Y454382D02*
X588264Y455906D01*
X509016Y447270D02*
X510540Y448794D01*
X617220Y454382D02*
X618744Y455906D01*
X539496Y447270D02*
X541020Y448794D01*
X685800Y447294D02*
X687324Y445770D01*
X778510Y447040D02*
Y466201D01*
X647700Y454382D02*
X649224Y455906D01*
X786130Y447040D02*
Y466201D01*
X655320Y448794D02*
X656844Y447270D01*
X786130Y447040D02*
X787654Y445516D01*
X595884Y447270D02*
X600456D01*
X518160Y448794D02*
Y454382D01*
X656844Y447270D02*
X661416D01*
X626364D02*
X630936D01*
X548640Y448794D02*
Y454382D01*
X487680Y448794D02*
Y454382D01*
X565404Y447270D02*
X569976D01*
X653796Y455906D02*
X655320Y454382D01*
X381370Y420370D02*
X392220Y431220D01*
X679704Y455906D02*
X684276D01*
X770890Y447040D02*
X772414Y445516D01*
X611124Y447270D02*
X615696D01*
X533400Y448794D02*
Y454382D01*
X580644Y447270D02*
X585216D01*
X502920Y448794D02*
Y454382D01*
X784606Y467725D02*
X786130Y466201D01*
X655320Y448794D02*
Y454382D01*
X571500Y448794D02*
Y454382D01*
X489204Y447270D02*
X493776D01*
X757174Y445516D02*
X761746D01*
X792226D02*
X793750Y447040D01*
X662940Y448794D02*
Y454382D01*
X632460Y448794D02*
Y454382D01*
X519684Y447270D02*
X524256D01*
X601980Y448794D02*
Y454382D01*
X454660Y445770D02*
X463296D01*
X493776Y447270D02*
X495300Y448794D01*
X571500Y454382D02*
X573024Y455906D01*
X761746Y445516D02*
X763270Y447040D01*
X793750D02*
Y450596D01*
X670560Y448794D02*
X672084Y447270D01*
X763270Y447040D02*
Y466201D01*
X662940Y454382D02*
X664464Y455906D01*
X755650Y447040D02*
X757174Y445516D01*
X787654D02*
X792226D01*
X443230Y457200D02*
X454660Y445770D01*
X600456Y447270D02*
X601980Y448794D01*
X518160D02*
X519684Y447270D01*
X661416D02*
X662940Y448794D01*
X676656Y447270D02*
X678180Y448794D01*
X638556Y455906D02*
X640080Y454382D01*
X669036Y455906D02*
X670560Y454382D01*
X608076Y455906D02*
X609600Y454382D01*
X525780D02*
X527304Y455906D01*
X678180Y454382D02*
X679704Y455906D01*
X770890Y447040D02*
Y466201D01*
X640080Y448794D02*
X641604Y447270D01*
X609600Y448794D02*
X611124Y447270D01*
X531876Y455906D02*
X533400Y454382D01*
X387350Y453390D02*
X391160Y457200D01*
X228970Y104510D02*
Y267970D01*
X573410Y478790D02*
X582046D01*
X623194Y475860D02*
X627766D01*
X592714D02*
X597286D01*
X591190Y477384D02*
X592714Y475860D01*
X607954D02*
X612526D01*
X597286D02*
X598810Y477384D01*
X591190D02*
Y482980D01*
X621670Y477384D02*
X623194Y475860D01*
X612526D02*
X614050Y477384D01*
X627766Y475860D02*
X629290Y477384D01*
X606430D02*
X607954Y475860D01*
X629290Y477384D02*
Y482980D01*
X621670Y477384D02*
Y482980D01*
X653674Y475860D02*
X658246D01*
X659770Y477384D01*
X668914Y475860D02*
X673486D01*
X667390Y477384D02*
X668914Y475860D01*
X638434D02*
X643006D01*
X644530Y477384D01*
X652150D02*
X653674Y475860D01*
X684154D02*
X688726D01*
X682630Y477384D02*
X684154Y475860D01*
X688726D02*
X690250Y477384D01*
X673486Y475860D02*
X675010Y477384D01*
X636910D02*
X638434Y475860D01*
X659770Y477384D02*
Y482980D01*
X675010Y477384D02*
Y482980D01*
X667390Y477384D02*
Y482980D01*
X636910Y477384D02*
Y482980D01*
X652150Y477384D02*
Y482980D01*
X644530Y477384D02*
Y482980D01*
X682630Y477384D02*
Y482980D01*
X690250Y477384D02*
Y482980D01*
X582046Y478790D02*
X583570Y480314D01*
Y482980D01*
X585094Y484505D01*
X598810Y477384D02*
Y482980D01*
X604906Y484505D02*
X606430Y482980D01*
X598810D02*
X600334Y484505D01*
X589666D02*
X591190Y482980D01*
X585094Y484505D02*
X589666D01*
X600334D02*
X604906D01*
X614050Y477384D02*
Y482980D01*
X606430Y477384D02*
Y482980D01*
X681106Y484505D02*
X682630Y482980D01*
X675010D02*
X676534Y484505D01*
X665866D02*
X667390Y482980D01*
X676534Y484505D02*
X681106D01*
X690250Y482980D02*
X691774Y484505D01*
X629290Y482980D02*
X630814Y484505D01*
X620146D02*
X621670Y482980D01*
X644530D02*
X646054Y484505D01*
X635386D02*
X636910Y482980D01*
X615574Y484505D02*
X620146D01*
X614050Y482980D02*
X615574Y484505D01*
X630814D02*
X635386D01*
X659770Y482980D02*
X661294Y484505D01*
X650626D02*
X652150Y482980D01*
X646054Y484505D02*
X650626D01*
X691774D02*
X696346D01*
X661294D02*
X665866D01*
X316230Y146050D02*
Y159766D01*
X895926Y206434D02*
X895938Y206447D01*
Y262878D01*
X322950Y453390D02*
X331586D01*
X372734D02*
X387350D01*
X357494Y452763D02*
X362066D01*
X363590Y454287D01*
X355970D02*
X357494Y452763D01*
X342254D02*
X346826D01*
X340730Y454287D02*
X342254Y452763D01*
X346826D02*
X348350Y454287D01*
X331586Y453390D02*
X333110Y454914D01*
Y455835D01*
X340730Y454287D02*
Y455835D01*
X348350Y454287D02*
Y455843D01*
X371210Y454914D02*
X372734Y453390D01*
X363590Y454287D02*
Y455843D01*
X355970Y454287D02*
Y455843D01*
X371210Y454914D02*
Y455843D01*
X333110Y455835D02*
X334634Y457359D01*
X339206D02*
X340730Y455835D01*
X334634Y457359D02*
X339206D01*
X348350Y455843D02*
X349874Y457367D01*
X363590Y455843D02*
X365114Y457367D01*
X369686D02*
X371210Y455843D01*
X354446Y457367D02*
X355970Y455843D01*
X349874Y457367D02*
X354446D01*
X365114D02*
X369686D01*
X764794Y467725D02*
X769366D01*
X780034D02*
X784606D01*
X254820Y522420D02*
Y644710D01*
X255270Y645160D01*
X819750Y262890D02*
X820085Y262555D01*
Y162895D02*
Y262555D01*
Y162895D02*
X820420Y162560D01*
X330570Y521970D02*
X331020Y522420D01*
Y536376D01*
X329496Y537900D02*
X331020Y536376D01*
X321599Y537900D02*
X329496D01*
X320075Y539424D02*
X321599Y537900D01*
X320075Y539424D02*
Y543996D01*
X321599Y545520D01*
X340244D01*
X341768Y547044D01*
Y551616D01*
X340244Y553140D02*
X341768Y551616D01*
X321599Y553140D02*
X340244D01*
X320075Y554664D02*
X321599Y553140D01*
X320075Y554664D02*
Y559236D01*
X321599Y560760D01*
X340244D01*
X341768Y562284D01*
Y566856D01*
X340244Y568380D02*
X341768Y566856D01*
X332544Y568380D02*
X340244D01*
X331020Y569904D02*
X332544Y568380D01*
X331020Y569904D02*
Y583750D01*
X332740Y585470D01*
X870250Y564824D02*
Y585170D01*
Y564824D02*
X871774Y563300D01*
X885099D01*
X886623Y561776D01*
Y557204D02*
Y561776D01*
X885099Y555680D02*
X886623Y557204D01*
X854563Y555680D02*
X885099D01*
X853039Y554156D02*
X854563Y555680D01*
X853039Y549584D02*
Y554156D01*
Y549584D02*
X854563Y548060D01*
X885099D01*
X886623Y546536D01*
Y541964D02*
Y546536D01*
X885099Y540440D02*
X886623Y541964D01*
X856239Y540440D02*
X885099D01*
X854715Y538916D02*
X856239Y540440D01*
X854715Y534344D02*
Y538916D01*
Y534344D02*
X856239Y532820D01*
X868726D01*
X870250Y531296D01*
Y522070D02*
Y531296D01*
X870150Y521970D02*
X870250Y522070D01*
X705482Y308869D02*
X707007Y307345D01*
X700910Y308869D02*
X705482D01*
X699387Y307345D02*
X700910Y308869D01*
X699387Y298323D02*
Y307345D01*
X697862Y296798D02*
X699387Y298323D01*
X693290Y296798D02*
X697862D01*
X691767Y298323D02*
X693290Y296798D01*
X691767Y298323D02*
Y307345D01*
X690242Y308869D02*
X691767Y307345D01*
X685670Y308869D02*
X690242D01*
X684146Y307345D02*
X685670Y308869D01*
X684146Y298323D02*
Y307345D01*
X682623Y296798D02*
X684146Y298323D01*
X678051Y296798D02*
X682623D01*
X676526Y298323D02*
X678051Y296798D01*
X676526Y298323D02*
Y307345D01*
X675003Y308869D02*
X676526Y307345D01*
X670431Y308869D02*
X675003D01*
X668906Y307345D02*
X670431Y308869D01*
X668906Y298323D02*
Y307345D01*
X667383Y296798D02*
X668906Y298323D01*
X662811Y296798D02*
X667383D01*
X661286Y298323D02*
X662811Y296798D01*
X661286Y298323D02*
Y307345D01*
X659762Y308869D02*
X661286Y307345D01*
X655191Y308869D02*
X659762D01*
X653667Y307345D02*
X655191Y308869D01*
X653667Y298323D02*
Y307345D01*
X652142Y296798D02*
X653667Y298323D01*
X647570Y296798D02*
X652142D01*
X646047Y298323D02*
X647570Y296798D01*
X646047Y298323D02*
Y307345D01*
X644522Y308869D02*
X646047Y307345D01*
X639950Y308869D02*
X644522D01*
X638427Y307345D02*
X639950Y308869D01*
X638427Y298323D02*
Y307345D01*
X636903Y296798D02*
X638427Y298323D01*
X632331Y296798D02*
X636903D01*
X630807Y298323D02*
X632331Y296798D01*
X630807Y298323D02*
Y307345D01*
X629282Y308869D02*
X630807Y307345D01*
X624711Y308869D02*
X629282D01*
X623186Y307345D02*
X624711Y308869D01*
X623186Y298323D02*
Y307345D01*
X621662Y296798D02*
X623186Y298323D01*
X617090Y296798D02*
X621662D01*
X615566Y298323D02*
X617090Y296798D01*
X615566Y298323D02*
Y307345D01*
X614043Y308869D02*
X615566Y307345D01*
X609470Y308869D02*
X614043D01*
X607947Y307345D02*
X609470Y308869D01*
X607947Y298323D02*
Y307345D01*
X606423Y296798D02*
X607947Y298323D01*
X601851Y296798D02*
X606423D01*
X600326Y298323D02*
X601851Y296798D01*
X600326Y298323D02*
Y307345D01*
X598802Y308869D02*
X600326Y307345D01*
X594230Y308869D02*
X598802D01*
X592706Y307345D02*
X594230Y308869D01*
X592706Y298323D02*
Y307345D01*
X591183Y296798D02*
X592706Y298323D01*
X586610Y296798D02*
X591183D01*
X585087Y298323D02*
X586610Y296798D01*
X585087Y298323D02*
Y307345D01*
X583563Y308869D02*
X585087Y307345D01*
X578991Y308869D02*
X583563D01*
X577467Y307345D02*
X578991Y308869D01*
X577467Y298323D02*
Y307345D01*
X575942Y296798D02*
X577467Y298323D01*
X571371Y296798D02*
X575942D01*
X569846Y298323D02*
X571371Y296798D01*
X569846Y298323D02*
Y307345D01*
X568322Y308869D02*
X569846Y307345D01*
X563750Y308869D02*
X568322D01*
X562226Y307345D02*
X563750Y308869D01*
X562226Y298323D02*
Y307345D01*
X560703Y296798D02*
X562226Y298323D01*
X556130Y296798D02*
X560703D01*
X554607Y298323D02*
X556130Y296798D01*
X554607Y298323D02*
Y307345D01*
X553083Y308869D02*
X554607Y307345D01*
X548511Y308869D02*
X553083D01*
X546987Y307345D02*
X548511Y308869D01*
X546987Y298323D02*
Y307345D01*
X545462Y296798D02*
X546987Y298323D01*
X540891Y296798D02*
X545462D01*
X539366Y298323D02*
X540891Y296798D01*
X539366Y298323D02*
Y307345D01*
X537842Y308869D02*
X539366Y307345D01*
X533270Y308869D02*
X537842D01*
X531746Y307345D02*
X533270Y308869D01*
X531746Y298323D02*
Y307345D01*
X530223Y296798D02*
X531746Y298323D01*
X525650Y296798D02*
X530223D01*
X524127Y298323D02*
X525650Y296798D01*
X524127Y298323D02*
Y307345D01*
X522603Y308869D02*
X524127Y307345D01*
X518031Y308869D02*
X522603D01*
X516507Y307345D02*
X518031Y308869D01*
X516507Y298323D02*
Y307345D01*
X514982Y296798D02*
X516507Y298323D01*
X510410Y296798D02*
X514982D01*
X508886Y298323D02*
X510410Y296798D01*
X508886Y298323D02*
Y307345D01*
X507363Y308869D02*
X508886Y307345D01*
X502790Y308869D02*
X507363D01*
X501267Y307345D02*
X502790Y308869D01*
X501267Y298323D02*
Y307345D01*
X499743Y296798D02*
X501267Y298323D01*
X495171Y296798D02*
X499743D01*
X493647Y298323D02*
X495171Y296798D01*
X493647Y298323D02*
Y307345D01*
X492122Y308869D02*
X493647Y307345D01*
X487551Y308869D02*
X492122D01*
X486026Y307345D02*
X487551Y308869D01*
X486026Y304364D02*
Y307345D01*
X484502Y302840D02*
X486026Y304364D01*
X475867Y302840D02*
X484502D01*
X474486Y304220D02*
X475867Y302840D01*
X462324Y304220D02*
X474486D01*
X460800Y305744D02*
X462324Y304220D01*
X460800Y305744D02*
Y311497D01*
X459276Y313020D02*
X460800Y311497D01*
X454704Y313020D02*
X459276D01*
X453180Y311497D02*
X454704Y313020D01*
X453180Y296944D02*
Y311497D01*
X451656Y295420D02*
X453180Y296944D01*
X447084Y295420D02*
X451656D01*
X445560Y296944D02*
X447084Y295420D01*
X445560Y296944D02*
Y302696D01*
X444036Y304220D02*
X445560Y302696D01*
X214420Y304220D02*
X444036D01*
X203570Y293370D02*
X214420Y304220D01*
X406770Y496570D02*
X417620Y485720D01*
X449116D01*
X450640Y484196D01*
Y474804D02*
Y484196D01*
Y474804D02*
X452164Y473280D01*
X456736D01*
X458260Y474804D01*
Y486474D01*
X459784Y487998D01*
X464356D01*
X465880Y486474D01*
Y474804D02*
Y486474D01*
Y474804D02*
X467404Y473280D01*
X471976D01*
X473500Y474804D01*
Y486474D01*
X475024Y487998D01*
X479596D01*
X481120Y486474D01*
Y474804D02*
Y486474D01*
Y474804D02*
X482644Y473280D01*
X487216D01*
X488740Y474804D01*
Y486474D01*
X490264Y487998D01*
X494836D01*
X496360Y486474D01*
Y474804D02*
Y486474D01*
Y474804D02*
X497884Y473280D01*
X502456D01*
X503980Y474804D01*
Y486474D01*
X505504Y487998D01*
X510076D01*
X511600Y486474D01*
Y474804D02*
Y486474D01*
Y474804D02*
X513124Y473280D01*
X517696D01*
X519220Y474804D01*
Y486474D01*
X520744Y487998D01*
X525316D01*
X526840Y486474D01*
Y474804D02*
Y486474D01*
Y474804D02*
X528364Y473280D01*
X532936D01*
X534460Y474804D01*
Y486474D01*
X535984Y487998D01*
X540556D01*
X542080Y486474D01*
Y480410D02*
Y486474D01*
Y480410D02*
X543604Y478886D01*
X548176D01*
X549700Y480410D01*
Y484196D01*
X551224Y485720D01*
X566479D01*
X573410Y478790D01*
X670930Y332994D02*
X672454Y331470D01*
X670930Y332994D02*
Y337248D01*
X669406Y338773D02*
X670930Y337248D01*
X664834Y338773D02*
X669406D01*
X663310Y337248D02*
X664834Y338773D01*
X663310Y327316D02*
Y337248D01*
X661786Y325792D02*
X663310Y327316D01*
X657214Y325792D02*
X661786D01*
X655690Y327316D02*
X657214Y325792D01*
X655690Y327316D02*
Y337248D01*
X654166Y338773D02*
X655690Y337248D01*
X649594Y338773D02*
X654166D01*
X648070Y337248D02*
X649594Y338773D01*
X648070Y327316D02*
Y337248D01*
X646546Y325792D02*
X648070Y327316D01*
X641974Y325792D02*
X646546D01*
X640450Y327316D02*
X641974Y325792D01*
X640450Y327316D02*
Y337248D01*
X638926Y338773D02*
X640450Y337248D01*
X634354Y338773D02*
X638926D01*
X632830Y337248D02*
X634354Y338773D01*
X632830Y327316D02*
Y337248D01*
X631306Y325792D02*
X632830Y327316D01*
X626734Y325792D02*
X631306D01*
X625210Y327316D02*
X626734Y325792D01*
X625210Y327316D02*
Y337248D01*
X623686Y338773D02*
X625210Y337248D01*
X619114Y338773D02*
X623686D01*
X617590Y337248D02*
X619114Y338773D01*
X617590Y327316D02*
Y337248D01*
X616066Y325792D02*
X617590Y327316D01*
X611494Y325792D02*
X616066D01*
X609970Y327316D02*
X611494Y325792D01*
X609970Y327316D02*
Y337248D01*
X608446Y338773D02*
X609970Y337248D01*
X603874Y338773D02*
X608446D01*
X602350Y337248D02*
X603874Y338773D01*
X602350Y327316D02*
Y337248D01*
X600826Y325792D02*
X602350Y327316D01*
X596254Y325792D02*
X600826D01*
X594730Y327316D02*
X596254Y325792D01*
X594730Y327316D02*
Y337248D01*
X593206Y338773D02*
X594730Y337248D01*
X588634Y338773D02*
X593206D01*
X587110Y337248D02*
X588634Y338773D01*
X587110Y327316D02*
Y337248D01*
X585586Y325792D02*
X587110Y327316D01*
X581014Y325792D02*
X585586D01*
X579490Y327316D02*
X581014Y325792D01*
X579490Y327316D02*
Y337248D01*
X577966Y338773D02*
X579490Y337248D01*
X573394Y338773D02*
X577966D01*
X571870Y337248D02*
X573394Y338773D01*
X571870Y327316D02*
Y337248D01*
X570346Y325792D02*
X571870Y327316D01*
X565774Y325792D02*
X570346D01*
X564250Y327316D02*
X565774Y325792D01*
X564250Y327316D02*
Y337248D01*
X562726Y338773D02*
X564250Y337248D01*
X558154Y338773D02*
X562726D01*
X556630Y337248D02*
X558154Y338773D01*
X556630Y327316D02*
Y337248D01*
X555106Y325792D02*
X556630Y327316D01*
X550534Y325792D02*
X555106D01*
X549010Y327316D02*
X550534Y325792D01*
X549010Y327316D02*
Y337248D01*
X547486Y338773D02*
X549010Y337248D01*
X542914Y338773D02*
X547486D01*
X541390Y337248D02*
X542914Y338773D01*
X541390Y327316D02*
Y337248D01*
X539866Y325792D02*
X541390Y327316D01*
X535294Y325792D02*
X539866D01*
X533770Y327316D02*
X535294Y325792D01*
X533770Y327316D02*
Y337248D01*
X532246Y338773D02*
X533770Y337248D01*
X527674Y338773D02*
X532246D01*
X526150Y337248D02*
X527674Y338773D01*
X526150Y327316D02*
Y337248D01*
X524626Y325792D02*
X526150Y327316D01*
X520054Y325792D02*
X524626D01*
X518530Y327316D02*
X520054Y325792D01*
X518530Y327316D02*
Y337248D01*
X517006Y338773D02*
X518530Y337248D01*
X512434Y338773D02*
X517006D01*
X510910Y337248D02*
X512434Y338773D01*
X510910Y327316D02*
Y337248D01*
X509386Y325792D02*
X510910Y327316D01*
X504814Y325792D02*
X509386D01*
X503290Y327316D02*
X504814Y325792D01*
X503290Y327316D02*
Y337248D01*
X501766Y338773D02*
X503290Y337248D01*
X497194Y338773D02*
X501766D01*
X495670Y337248D02*
X497194Y338773D01*
X495670Y327316D02*
Y337248D01*
X494146Y325792D02*
X495670Y327316D01*
X489574Y325792D02*
X494146D01*
X488050Y327316D02*
X489574Y325792D01*
X488050Y327316D02*
Y337248D01*
X486526Y338773D02*
X488050Y337248D01*
X481954Y338773D02*
X486526D01*
X480430Y337248D02*
X481954Y338773D01*
X480430Y327316D02*
Y337248D01*
X478906Y325792D02*
X480430Y327316D01*
X474334Y325792D02*
X478906D01*
X472810Y327316D02*
X474334Y325792D01*
X472810Y327316D02*
Y337248D01*
X471286Y338773D02*
X472810Y337248D01*
X466714Y338773D02*
X471286D01*
X465190Y337248D02*
X466714Y338773D01*
X465190Y327316D02*
Y337248D01*
X463666Y325792D02*
X465190Y327316D01*
X459094Y325792D02*
X463666D01*
X457570Y327316D02*
X459094Y325792D01*
X457570Y327316D02*
Y337248D01*
X456046Y338773D02*
X457570Y337248D01*
X451474Y338773D02*
X456046D01*
X449950Y337248D02*
X451474Y338773D01*
X449950Y332994D02*
Y337248D01*
X448426Y331470D02*
X449950Y332994D01*
X317870Y331470D02*
X448426D01*
X305170Y318770D02*
X317870Y331470D01*
X870550Y246634D02*
Y262890D01*
Y246634D02*
X872074Y245110D01*
X878114D01*
X879638Y243586D01*
Y239014D02*
Y243586D01*
X878114Y237490D02*
X879638Y239014D01*
X862985Y237490D02*
X878114D01*
X861461Y235966D02*
X862985Y237490D01*
X861461Y231394D02*
Y235966D01*
Y231394D02*
X862985Y229870D01*
X878114D01*
X879638Y228346D01*
Y223774D02*
Y228346D01*
X878114Y222250D02*
X879638Y223774D01*
X862985Y222250D02*
X878114D01*
X861461Y220726D02*
X862985Y222250D01*
X861461Y216154D02*
Y220726D01*
Y216154D02*
X862985Y214630D01*
X878114D01*
X879638Y213106D01*
Y208534D02*
Y213106D01*
X878114Y207010D02*
X879638Y208534D01*
X862985Y207010D02*
X878114D01*
X861461Y205486D02*
X862985Y207010D01*
X861461Y200914D02*
Y205486D01*
Y200914D02*
X862985Y199390D01*
X869026D01*
X870550Y197866D01*
Y184750D02*
Y197866D01*
X869950Y184150D02*
X870550Y184750D01*
X331020Y185870D02*
Y267520D01*
X330570Y267970D02*
X331020Y267520D01*
X316230Y279030D02*
X330570Y293370D01*
X316230Y185674D02*
Y279030D01*
X314706Y184150D02*
X316230Y185674D01*
X308403Y184150D02*
X314706D01*
X306879Y182626D02*
X308403Y184150D01*
X306879Y178054D02*
Y182626D01*
Y178054D02*
X308403Y176530D01*
X314706Y161290D02*
X316230Y159766D01*
Y146050D02*
X316865Y146685D01*
X845150Y147920D02*
Y262890D01*
X885100Y277440D02*
X895950Y288290D01*
X757113Y275289D02*
Y275836D01*
X728158Y277360D02*
X732729D01*
X702250D02*
X703773Y275836D01*
X697678Y277360D02*
X702250D01*
X696153Y275836D02*
X697678Y277360D01*
X696153Y275289D02*
Y275836D01*
X694630Y273765D02*
X696153Y275289D01*
X680913Y289724D02*
X682438Y291248D01*
X671769D02*
X673294Y289724D01*
X667197Y291248D02*
X671769D01*
X665674Y289724D02*
X667197Y291248D01*
X656529D02*
X658054Y289724D01*
X651957Y291248D02*
X656529D01*
X650434Y289724D02*
X651957Y291248D01*
X650434Y271873D02*
Y289724D01*
X648910Y270349D02*
X650434Y271873D01*
X644337Y270349D02*
X648910D01*
X642813Y271873D02*
X644337Y270349D01*
X642813Y271873D02*
Y289724D01*
X641290Y291248D02*
X642813Y289724D01*
X636717Y291248D02*
X641290D01*
X635193Y289724D02*
X636717Y291248D01*
X635193Y278964D02*
Y289724D01*
X633670Y277440D02*
X635193Y278964D01*
X625033Y277440D02*
X633670D01*
X621794Y280680D02*
X625033Y277440D01*
X611380Y280680D02*
X621794D01*
X609855Y282204D02*
X611380Y280680D01*
X609855Y282204D02*
Y286265D01*
X608331Y287789D02*
X609855Y286265D01*
X603759Y287789D02*
X608331D01*
X602235Y286265D02*
X603759Y287789D01*
X602235Y278146D02*
Y286265D01*
X600712Y276622D02*
X602235Y278146D01*
X596139Y276622D02*
X600712D01*
X594616Y278146D02*
X596139Y276622D01*
X594616Y278146D02*
Y286265D01*
X593092Y287789D02*
X594616Y286265D01*
X588520Y287789D02*
X593092D01*
X586996Y286265D02*
X588520Y287789D01*
X586996Y278146D02*
Y286265D01*
X585471Y276622D02*
X586996Y278146D01*
X580900Y276622D02*
X585471D01*
X579375Y278146D02*
X580900Y276622D01*
X579375Y278146D02*
Y286265D01*
X577851Y287789D02*
X579375Y286265D01*
X573279Y287789D02*
X577851D01*
X571755Y286265D02*
X573279Y287789D01*
X571755Y278146D02*
Y286265D01*
X570232Y276622D02*
X571755Y278146D01*
X565659Y276622D02*
X570232D01*
X564136Y278146D02*
X565659Y276622D01*
X564136Y278146D02*
Y286265D01*
X562612Y287789D02*
X564136Y286265D01*
X558040Y287789D02*
X562612D01*
X556516Y286265D02*
X558040Y287789D01*
X556516Y278146D02*
Y286265D01*
X554991Y276622D02*
X556516Y278146D01*
X550420Y276622D02*
X554991D01*
X548895Y278146D02*
X550420Y276622D01*
X548895Y278146D02*
Y286265D01*
X547371Y287789D02*
X548895Y286265D01*
X542799Y287789D02*
X547371D01*
X541275Y286265D02*
X542799Y287789D01*
X541275Y278146D02*
Y286265D01*
X539752Y276622D02*
X541275Y278146D01*
X535179Y276622D02*
X539752D01*
X533656Y278146D02*
X535179Y276622D01*
X533656Y278146D02*
Y286265D01*
X532132Y287789D02*
X533656Y286265D01*
X527560Y287789D02*
X532132D01*
X526035Y286265D02*
X527560Y287789D01*
X526035Y278146D02*
Y286265D01*
X524511Y276622D02*
X526035Y278146D01*
X519939Y276622D02*
X524511D01*
X518415Y278146D02*
X519939Y276622D01*
X518415Y278146D02*
Y286265D01*
X516892Y287789D02*
X518415Y286265D01*
X512319Y287789D02*
X516892D01*
X510796Y286265D02*
X512319Y287789D01*
X510796Y278146D02*
Y286265D01*
X509272Y276622D02*
X510796Y278146D01*
X504700Y276622D02*
X509272D01*
X503176Y278146D02*
X504700Y276622D01*
X503176Y278146D02*
Y286265D01*
X501651Y287789D02*
X503176Y286265D01*
X497080Y287789D02*
X501651D01*
X495555Y286265D02*
X497080Y287789D01*
X495555Y282204D02*
Y286265D01*
X494031Y280680D02*
X495555Y282204D01*
X489459Y280680D02*
X494031D01*
X487935Y282204D02*
X489459Y280680D01*
X487935Y282204D02*
Y286265D01*
X486412Y287789D02*
X487935Y286265D01*
X481839Y287789D02*
X486412D01*
X480316Y286265D02*
X481839Y287789D01*
X480316Y282204D02*
Y286265D01*
X478792Y280680D02*
X480316Y282204D01*
X474220Y280680D02*
X478792D01*
X472696Y282204D02*
X474220Y280680D01*
X472696Y282204D02*
Y286265D01*
X471171Y287789D02*
X472696Y286265D01*
X466600Y287789D02*
X471171D01*
X465075Y286265D02*
X466600Y287789D01*
X465075Y282204D02*
Y286265D01*
X463551Y280680D02*
X465075Y282204D01*
X378716Y280680D02*
X463551D01*
X366820Y292576D02*
X378716Y280680D01*
X356764Y292576D02*
X366820D01*
X355970Y293370D02*
X356764Y292576D01*
X895938Y262878D02*
X895950Y262890D01*
X894450Y207910D02*
X895926Y206434D01*
X355970Y207910D02*
Y229246D01*
X357494Y230770D01*
X358477D01*
X360001Y232294D01*
Y236866D01*
X358477Y238390D02*
X360001Y236866D01*
X353462Y238390D02*
X358477D01*
X351938Y239914D02*
X353462Y238390D01*
X351938Y239914D02*
Y244486D01*
X353462Y246010D01*
X354446D01*
X355970Y247534D01*
Y267970D01*
X921350Y228000D02*
Y262890D01*
Y228000D02*
X922020Y227330D01*
X381820Y227780D02*
Y267520D01*
X381370Y267970D02*
X381820Y267520D01*
X305170Y471170D02*
X322950Y453390D01*
X279585Y522155D02*
Y619575D01*
Y522155D02*
X279770Y521970D01*
X818029Y493211D02*
X819750Y491490D01*
X818029Y493211D02*
Y502340D01*
X305170Y521970D02*
Y605420D01*
X467404Y499221D02*
X502456D01*
X503980Y500745D01*
Y515836D01*
X505504Y517360D01*
X510076D01*
X511600Y515836D01*
Y498788D02*
Y515836D01*
Y498788D02*
X513124Y497264D01*
X517696D01*
X519220Y498788D01*
Y515836D01*
X520744Y517360D01*
X525316D01*
X526840Y515836D01*
Y498788D02*
Y515836D01*
Y498788D02*
X528364Y497264D01*
X532936D01*
X534460Y498788D01*
Y515836D01*
X535984Y517360D01*
X540556D01*
X542080Y515836D01*
Y498788D02*
Y515836D01*
Y498788D02*
X543604Y497264D01*
X548176D01*
X549700Y498788D01*
Y515836D01*
X551224Y517360D01*
X555796D01*
X557320Y515836D01*
Y498788D02*
Y515836D01*
Y498788D02*
X558844Y497264D01*
X563416D01*
X564940Y498788D01*
Y515836D01*
X566464Y517360D01*
X571036D01*
X572560Y515836D01*
Y498788D02*
Y515836D01*
Y498788D02*
X574084Y497264D01*
X578656D01*
X580180Y498788D01*
Y515836D01*
X581704Y517360D01*
X586276D01*
X587800Y515836D01*
Y498788D02*
Y515836D01*
Y498788D02*
X589324Y497264D01*
X593896D01*
X595420Y498788D01*
Y515836D01*
X596944Y517360D01*
X601516D01*
X603040Y515836D01*
Y498788D02*
Y515836D01*
Y498788D02*
X604564Y497264D01*
X609136D01*
X610660Y498788D01*
Y515836D01*
X612184Y517360D01*
X616756D01*
X618280Y515836D01*
Y498788D02*
Y515836D01*
Y498788D02*
X619804Y497264D01*
X624376D01*
X625900Y498788D01*
Y515836D01*
X627424Y517360D01*
X631996D01*
X633520Y515836D01*
Y508944D02*
Y515836D01*
Y508944D02*
X635044Y507420D01*
X254370Y521970D02*
X254820Y522420D01*
X255270Y645160D02*
X256540Y643890D01*
X792480Y523440D02*
Y643890D01*
Y523440D02*
X793950Y521970D01*
X228970D02*
Y536376D01*
X227446Y537900D02*
X228970Y536376D01*
X219988Y537900D02*
X227446D01*
X218464Y539424D02*
X219988Y537900D01*
X218464Y539424D02*
Y635436D01*
X219988Y636960D01*
X227446D01*
X228970Y638484D01*
Y662040D01*
X768450Y522070D02*
Y662840D01*
Y522070D02*
X768550Y521970D01*
X177800Y522340D02*
X178170Y521970D01*
X794350Y240284D02*
Y262890D01*
X792826Y238760D02*
X794350Y240284D01*
X787118Y238760D02*
X792826D01*
X785594Y237236D02*
X787118Y238760D01*
X785594Y232664D02*
Y237236D01*
Y232664D02*
X787118Y231140D01*
X790949D01*
X792473Y229616D01*
Y225044D02*
Y229616D01*
X790949Y223520D02*
X792473Y225044D01*
X787118Y223520D02*
X790949D01*
X785594Y221996D02*
X787118Y223520D01*
X785594Y217424D02*
Y221996D01*
Y217424D02*
X787118Y215900D01*
X790949D01*
X792473Y214376D01*
Y209804D02*
Y214376D01*
X790949Y208280D02*
X792473Y209804D01*
X787118Y208280D02*
X790949D01*
X785594Y206756D02*
X787118Y208280D01*
X785594Y202184D02*
Y206756D01*
Y202184D02*
X787118Y200660D01*
X792826D01*
X794350Y199136D01*
Y125130D02*
Y199136D01*
Y125130D02*
X795020Y124460D01*
X254820Y126180D02*
Y139446D01*
X253296Y140970D02*
X254820Y139446D01*
X247397Y140970D02*
X253296D01*
X245874Y142494D02*
X247397Y140970D01*
X245874Y142494D02*
Y238506D01*
X247397Y240030D01*
X253296D01*
X254820Y241554D01*
Y267520D01*
X254370Y267970D02*
X254820Y267520D01*
X355785Y522155D02*
X355970Y521970D01*
X355785Y522155D02*
Y536376D01*
X354261Y537900D02*
X355785Y536376D01*
X348374Y537900D02*
X354261D01*
X346850Y539424D02*
X348374Y537900D01*
X346850Y539424D02*
Y543996D01*
X348374Y545520D01*
X354261D01*
X355785Y547044D01*
Y570045D01*
X355600Y570230D02*
X355785Y570045D01*
X895550Y521970D02*
Y570030D01*
X768950Y262890D02*
X769920Y261920D01*
Y105110D02*
Y261920D01*
X381370Y521970D02*
X381820Y522420D01*
Y541840D01*
X382270Y542290D01*
X920850Y522070D02*
Y542190D01*
Y522070D02*
X920950Y521970D01*
D18*
X685800Y587890D02*
D03*
Y572890D02*
D03*
X391160Y591700D02*
D03*
Y576700D02*
D03*
X946150Y198550D02*
D03*
Y213550D02*
D03*
X972820Y198240D02*
D03*
Y213240D02*
D03*
X845820Y585350D02*
D03*
Y570350D02*
D03*
X718820Y196970D02*
D03*
Y211970D02*
D03*
X298450Y209670D02*
D03*
Y224670D02*
D03*
X947420Y584200D02*
D03*
Y569200D02*
D03*
X203200Y205860D02*
D03*
Y220860D02*
D03*
X406400Y202050D02*
D03*
Y217050D02*
D03*
X452120Y591700D02*
D03*
Y576700D02*
D03*
X152400Y582810D02*
D03*
Y567810D02*
D03*
D19*
X886360Y15140D02*
D03*
Y66140D02*
D03*
X937360Y15140D02*
D03*
Y66140D02*
D03*
X94515Y15775D02*
D03*
Y66775D02*
D03*
X145515Y15775D02*
D03*
Y66775D02*
D03*
X1029870Y15140D02*
D03*
Y66140D02*
D03*
X1080870Y15140D02*
D03*
Y66140D02*
D03*
X238660Y13870D02*
D03*
Y64870D02*
D03*
X289660Y13870D02*
D03*
Y64870D02*
D03*
X1235710Y30480D02*
D03*
X1169670D02*
D03*
X1107440Y745490D02*
D03*
X1173480D02*
D03*
D20*
X911860Y40640D02*
D03*
X120015Y41275D02*
D03*
X1055370Y40640D02*
D03*
X264160Y39370D02*
D03*
D28*
X947520Y522070D02*
X947620Y521970D01*
X947520Y522070D02*
Y569100D01*
X947420Y569200D02*
X947520Y569100D01*
X391160Y576700D02*
X391660D01*
X393755Y574605D01*
Y574105D02*
Y574605D01*
Y574105D02*
X394989Y572871D01*
X391660Y576700D02*
X395239Y573121D01*
X842010Y528759D02*
X845920Y524849D01*
Y522070D02*
Y524849D01*
X842010Y528759D02*
Y566023D01*
X845320Y570350D02*
X845820D01*
X843225Y568255D02*
X845320Y570350D01*
X843225Y567238D02*
Y568255D01*
X842010Y566023D02*
X843225Y567238D01*
X936135Y252429D02*
Y275445D01*
Y252429D02*
X947420Y241144D01*
X925424Y286156D02*
X936135Y275445D01*
X925424Y286156D02*
Y287387D01*
X922220Y290591D02*
Y293370D01*
Y290591D02*
X925424Y287387D01*
X452256Y525644D02*
X452391Y525509D01*
X452256Y525644D02*
Y576564D01*
X452120Y576700D02*
X452256Y576564D01*
X203570Y267970D02*
X228970Y293370D01*
X305170Y265191D02*
Y267970D01*
X298450Y258471D02*
X305170Y265191D01*
X298450Y224670D02*
Y258471D01*
X922220Y496570D02*
X947420Y521770D01*
X152400Y522340D02*
X178170Y496570D01*
X152400Y522340D02*
Y567810D01*
X203385Y267785D02*
X203570Y267970D01*
X203385Y221045D02*
Y267785D01*
X203200Y220860D02*
X203385Y221045D01*
X394989Y510189D02*
Y572871D01*
X381370Y496570D02*
X394989Y510189D01*
X960120Y253497D02*
X972820Y240797D01*
X960120Y253497D02*
Y280470D01*
X973020Y293370D01*
X972820Y213240D02*
Y240797D01*
X947420Y214510D02*
Y241144D01*
D29*
X1270000Y661670D02*
D03*
X1295400D02*
D03*
X1270000Y636270D02*
D03*
X1295400D02*
D03*
X1270000Y610870D02*
D03*
X1295400D02*
D03*
X1270000Y585470D02*
D03*
X1295400D02*
D03*
X1270000Y560070D02*
D03*
X1295400D02*
D03*
X1270000Y534670D02*
D03*
X1295400D02*
D03*
X1270000Y509270D02*
D03*
X1295400D02*
D03*
X1270000Y483870D02*
D03*
X1295400D02*
D03*
X1270000Y458470D02*
D03*
X1295400D02*
D03*
X1270000Y433070D02*
D03*
X1295400D02*
D03*
X1270000Y407670D02*
D03*
X1295400D02*
D03*
X1270000Y382270D02*
D03*
X1295400D02*
D03*
X1270000Y356870D02*
D03*
X1295400D02*
D03*
X1270000Y331470D02*
D03*
X1295400D02*
D03*
X1270000Y306070D02*
D03*
X1295400D02*
D03*
X1270000Y280670D02*
D03*
X1295400D02*
D03*
X1270000Y255270D02*
D03*
X1295400D02*
D03*
X1270000Y229870D02*
D03*
X1295400D02*
D03*
X1270000Y204470D02*
D03*
X1295400D02*
D03*
X1270000Y179070D02*
D03*
X1295400D02*
D03*
D30*
X846020Y267970D02*
D03*
X871420D02*
D03*
X896820D02*
D03*
X922220D02*
D03*
X947620D02*
D03*
X820620D02*
D03*
X795220D02*
D03*
X769820D02*
D03*
X744420D02*
D03*
X719020D02*
D03*
X973020Y293370D02*
D03*
Y318770D02*
D03*
Y344170D02*
D03*
Y369570D02*
D03*
Y394970D02*
D03*
Y420370D02*
D03*
Y445770D02*
D03*
Y471170D02*
D03*
Y496570D02*
D03*
Y521970D02*
D03*
X947620Y293370D02*
D03*
X922220D02*
D03*
X896820D02*
D03*
X871420D02*
D03*
X846020D02*
D03*
X820620D02*
D03*
X795220D02*
D03*
X769820D02*
D03*
X744420D02*
D03*
X719020D02*
D03*
X947620Y318770D02*
D03*
X871420D02*
D03*
X846020D02*
D03*
X820620D02*
D03*
X744420D02*
D03*
X719020D02*
D03*
X947620Y344170D02*
D03*
X744420D02*
D03*
X719020D02*
D03*
X947620Y369570D02*
D03*
X769820D02*
D03*
X744420D02*
D03*
X719020D02*
D03*
X947620Y394970D02*
D03*
X769820D02*
D03*
X744420D02*
D03*
X719020D02*
D03*
X947620Y420370D02*
D03*
X769820D02*
D03*
X744420D02*
D03*
X719020D02*
D03*
X947620Y445770D02*
D03*
X744420D02*
D03*
X719020D02*
D03*
X947620Y471170D02*
D03*
X871420D02*
D03*
X846020D02*
D03*
X820620D02*
D03*
X744420D02*
D03*
X719020D02*
D03*
X947620Y496570D02*
D03*
X922220D02*
D03*
X896820D02*
D03*
X871420D02*
D03*
X846020D02*
D03*
X820620D02*
D03*
X795220D02*
D03*
X769820D02*
D03*
X744420D02*
D03*
X719020D02*
D03*
X947620Y521970D02*
D03*
X922220D02*
D03*
X896820D02*
D03*
X871420D02*
D03*
X846020D02*
D03*
X820620D02*
D03*
X795220D02*
D03*
X769820D02*
D03*
X744420D02*
D03*
X719020D02*
D03*
X922220Y369570D02*
D03*
Y394970D02*
D03*
Y420370D02*
D03*
X305170Y521970D02*
D03*
X279770D02*
D03*
X254370D02*
D03*
X228970D02*
D03*
X203570D02*
D03*
X330570D02*
D03*
X355970D02*
D03*
X381370D02*
D03*
X406770D02*
D03*
X432170D02*
D03*
X178170Y496570D02*
D03*
Y471170D02*
D03*
Y445770D02*
D03*
Y420370D02*
D03*
Y394970D02*
D03*
Y369570D02*
D03*
Y344170D02*
D03*
Y318770D02*
D03*
Y293370D02*
D03*
Y267970D02*
D03*
X203570Y496570D02*
D03*
X228970D02*
D03*
X254370D02*
D03*
X279770D02*
D03*
X305170D02*
D03*
X330570D02*
D03*
X355970D02*
D03*
X381370D02*
D03*
X406770D02*
D03*
X432170D02*
D03*
X203570Y471170D02*
D03*
X279770D02*
D03*
X305170D02*
D03*
X330570D02*
D03*
X406770D02*
D03*
X432170D02*
D03*
X203570Y445770D02*
D03*
X406770D02*
D03*
X432170D02*
D03*
X203570Y420370D02*
D03*
X381370D02*
D03*
X406770D02*
D03*
X432170D02*
D03*
X203570Y394970D02*
D03*
X381370D02*
D03*
X406770D02*
D03*
X432170D02*
D03*
X203570Y369570D02*
D03*
X381370D02*
D03*
X406770D02*
D03*
X432170D02*
D03*
X203570Y344170D02*
D03*
X406770D02*
D03*
X432170D02*
D03*
X203570Y318770D02*
D03*
X279770D02*
D03*
X305170D02*
D03*
X330570D02*
D03*
X406770D02*
D03*
X432170D02*
D03*
X203570Y293370D02*
D03*
X228970D02*
D03*
X254370D02*
D03*
X279770D02*
D03*
X305170D02*
D03*
X330570D02*
D03*
X355970D02*
D03*
X381370D02*
D03*
X406770D02*
D03*
X432170D02*
D03*
X203570Y267970D02*
D03*
X228970D02*
D03*
X254370D02*
D03*
X279770D02*
D03*
X305170D02*
D03*
X330570D02*
D03*
X355970D02*
D03*
X381370D02*
D03*
X406770D02*
D03*
X432170D02*
D03*
X228970Y420370D02*
D03*
Y394970D02*
D03*
Y369570D02*
D03*
D31*
X973020Y267970D02*
D03*
X178170Y521970D02*
D03*
D32*
X1074020Y267970D02*
D03*
Y521970D02*
D03*
X668020Y267970D02*
D03*
Y521970D02*
D03*
X77170D02*
D03*
Y267970D02*
D03*
X483170Y521970D02*
D03*
Y267970D02*
D03*
D33*
X864400Y688340D02*
D03*
X889400D02*
D03*
X839400D02*
D03*
X271780D02*
D03*
X296780D02*
D03*
X246780D02*
D03*
D34*
X914400D02*
D03*
X321780D02*
D03*
D35*
X32797Y750022D02*
D03*
Y32472D02*
D03*
X1302797D02*
D03*
X1303020Y750570D02*
D03*
D36*
X988060Y557530D02*
D03*
X998220Y571500D02*
D03*
X1008380Y599440D02*
D03*
X1123950Y676910D02*
D03*
X1225550Y690880D02*
D03*
X1183640Y702310D02*
D03*
X1163320Y715010D02*
D03*
X1123950Y382270D02*
D03*
Y495300D02*
D03*
X1146810Y430530D02*
D03*
X994410Y429260D02*
D03*
X1225550Y461010D02*
D03*
Y356870D02*
D03*
X1146810Y585470D02*
D03*
X1163320Y443230D02*
D03*
Y332740D02*
D03*
X1183640Y483870D02*
D03*
Y306070D02*
D03*
X1200150Y407670D02*
D03*
Y514350D02*
D03*
X1214120Y530860D02*
D03*
Y204470D02*
D03*
X923428Y99321D02*
D03*
X168910Y146897D02*
D03*
Y133773D02*
D03*
Y120650D02*
D03*
X197307Y51927D02*
D03*
X206197Y43038D02*
D03*
X215087Y34148D02*
D03*
X146050Y106680D02*
D03*
Y119380D02*
D03*
X189230Y59690D02*
D03*
X180340Y68580D02*
D03*
X171450Y77470D02*
D03*
X162560Y86360D02*
D03*
X153670Y95250D02*
D03*
X1042670Y92242D02*
D03*
Y131345D02*
D03*
Y157413D02*
D03*
Y183482D02*
D03*
X133350Y92710D02*
D03*
Y105833D02*
D03*
Y118957D02*
D03*
Y132080D02*
D03*
Y146050D02*
D03*
Y172297D02*
D03*
Y185420D02*
D03*
Y198543D02*
D03*
Y224790D02*
D03*
Y211667D02*
D03*
Y319617D02*
D03*
X184150Y689650D02*
D03*
X182880Y723900D02*
D03*
X198120Y699770D02*
D03*
X217170Y712470D02*
D03*
X716547Y679490D02*
D03*
X178803D02*
D03*
X163925Y393561D02*
D03*
X156305Y385941D02*
D03*
X147415Y374511D02*
D03*
X157480Y415290D02*
D03*
X149860Y407670D02*
D03*
X140970Y398780D02*
D03*
X132175Y389751D02*
D03*
X123285Y382131D02*
D03*
X114395Y373241D02*
D03*
X146050Y306493D02*
D03*
Y319617D02*
D03*
Y360680D02*
D03*
Y347557D02*
D03*
Y267123D02*
D03*
Y280247D02*
D03*
Y293370D02*
D03*
Y332740D02*
D03*
X133350Y306493D02*
D03*
Y360680D02*
D03*
Y347557D02*
D03*
Y267123D02*
D03*
Y280247D02*
D03*
Y293370D02*
D03*
Y332740D02*
D03*
X107950Y306493D02*
D03*
Y319617D02*
D03*
Y360680D02*
D03*
Y347557D02*
D03*
Y267123D02*
D03*
Y280247D02*
D03*
Y293370D02*
D03*
Y332740D02*
D03*
X169177Y199523D02*
D03*
Y212646D02*
D03*
Y253709D02*
D03*
Y240586D02*
D03*
Y160153D02*
D03*
Y173276D02*
D03*
Y186399D02*
D03*
Y225769D02*
D03*
X171450Y106680D02*
D03*
X180340Y96520D02*
D03*
X189230Y87630D02*
D03*
X198120Y78740D02*
D03*
X207010Y69850D02*
D03*
X215900Y60960D02*
D03*
X146050Y132080D02*
D03*
Y224790D02*
D03*
Y185420D02*
D03*
Y172297D02*
D03*
Y159173D02*
D03*
Y146050D02*
D03*
Y239607D02*
D03*
Y252730D02*
D03*
Y211667D02*
D03*
Y198543D02*
D03*
X133350Y159173D02*
D03*
Y239607D02*
D03*
Y252730D02*
D03*
X107950Y92710D02*
D03*
Y105833D02*
D03*
Y118957D02*
D03*
Y132080D02*
D03*
Y224790D02*
D03*
Y185420D02*
D03*
Y172297D02*
D03*
Y159173D02*
D03*
Y146050D02*
D03*
Y239607D02*
D03*
Y252730D02*
D03*
Y211667D02*
D03*
Y198543D02*
D03*
X986928Y162822D02*
D03*
X979308Y155202D02*
D03*
X971688Y147582D02*
D03*
X964068Y139962D02*
D03*
X956448Y132341D02*
D03*
X948828Y124721D02*
D03*
X939938Y115831D02*
D03*
X931048Y106941D02*
D03*
X914538Y90431D02*
D03*
X944880Y88900D02*
D03*
X952500Y96520D02*
D03*
X961390Y105410D02*
D03*
X970280Y114300D02*
D03*
X977900Y121920D02*
D03*
X985520Y129540D02*
D03*
X993140Y137160D02*
D03*
X1000760Y144780D02*
D03*
X1008380Y152400D02*
D03*
X1014730Y160020D02*
D03*
X999490Y222584D02*
D03*
Y183482D02*
D03*
X996950Y170180D02*
D03*
X999490Y235618D02*
D03*
Y248653D02*
D03*
Y209550D02*
D03*
Y195580D02*
D03*
Y261687D02*
D03*
Y274721D02*
D03*
Y287755D02*
D03*
Y298450D02*
D03*
X1019810Y298650D02*
D03*
Y287955D02*
D03*
Y274921D02*
D03*
Y261887D02*
D03*
Y195580D02*
D03*
Y209750D02*
D03*
Y248853D02*
D03*
Y235819D02*
D03*
Y170648D02*
D03*
Y183682D02*
D03*
Y222784D02*
D03*
X998220Y317500D02*
D03*
X1019810D02*
D03*
X1012190Y340360D02*
D03*
X1004570Y347980D02*
D03*
X1042670Y105276D02*
D03*
Y118311D02*
D03*
Y222584D02*
D03*
Y170447D02*
D03*
Y144379D02*
D03*
Y235618D02*
D03*
Y248653D02*
D03*
Y209550D02*
D03*
Y195580D02*
D03*
X1065530D02*
D03*
Y209127D02*
D03*
X1042670Y261687D02*
D03*
Y274721D02*
D03*
Y287755D02*
D03*
Y298450D02*
D03*
Y317500D02*
D03*
X1028700Y339090D02*
D03*
X1019810Y346710D02*
D03*
X1003300Y363220D02*
D03*
X995680Y370840D02*
D03*
X999490Y398780D02*
D03*
X1008380Y392430D02*
D03*
X1026160Y375920D02*
D03*
X1035050Y365760D02*
D03*
X1050290Y347980D02*
D03*
X1065530Y298450D02*
D03*
Y285327D02*
D03*
Y313267D02*
D03*
Y326390D02*
D03*
Y250190D02*
D03*
Y237067D02*
D03*
Y143510D02*
D03*
Y156633D02*
D03*
Y169757D02*
D03*
Y182880D02*
D03*
Y222250D02*
D03*
Y129540D02*
D03*
Y116417D02*
D03*
Y103293D02*
D03*
Y90170D02*
D03*
X271780Y162560D02*
D03*
X692670Y523990D02*
D03*
X452391Y525509D02*
D03*
X419809Y244549D02*
D03*
X695117Y258237D02*
D03*
X228970Y104510D02*
D03*
X332740Y585470D02*
D03*
X305170Y605420D02*
D03*
X279585Y619575D02*
D03*
X256540Y643890D02*
D03*
X228970Y662040D02*
D03*
X768450Y662840D02*
D03*
X803267Y605163D02*
D03*
X836295Y619125D02*
D03*
X869950Y585470D02*
D03*
X895350Y570230D02*
D03*
X920750Y542290D02*
D03*
X894450Y207910D02*
D03*
X845150Y147920D02*
D03*
X770890Y104140D02*
D03*
X381820Y227780D02*
D03*
X331020Y185870D02*
D03*
X316865Y146685D02*
D03*
X254820Y126180D02*
D03*
X820420Y162560D02*
D03*
X869950Y184150D02*
D03*
X355970Y207910D02*
D03*
X922020Y227330D02*
D03*
X792480Y643890D02*
D03*
X795020Y124460D02*
D03*
X355600Y570230D02*
D03*
X382270Y542290D02*
D03*
M02*
